G04 ================== begin FILE IDENTIFICATION RECORD ==================*
G04 Layout Name:  D:/Project/Circuit/ORCAD/KPRD/03v1/pcb/kprd_03v1.brd*
G04 Film Name:    BOARD*
G04 File Format:  Gerber RS274X*
G04 File Origin:  Cadence Allegro 16.6-S012*
G04 Origin Date:  Sun Jul 28 12:05:33 2013*
G04 *
G04 Layer:  BOARD GEOMETRY/NCROUTE_PATH*
G04 Layer:  BOARD GEOMETRY/OUTLINE*
G04 *
G04 Offset:    (0.000 0.000)*
G04 Mirror:    No*
G04 Mode:      Positive*
G04 Rotation:  0*
G04 FullContactRelief:  No*
G04 UndefLineWidth:     0.250*
G04 ================== end FILE IDENTIFICATION RECORD ====================*
%FSLAX34Y34*MOMM*%
%IR0*IPPOS*OFA0.00000B0.00000*MIA0B0*SFA1.00000B1.00000*%
%ADD10C,.25*%
G75*
%LPD*%
G75*
G54D10*
G01X-914400Y-1320800D02*
Y1008380D01*
X114300D01*
Y-1320800D01*
X-914400D01*
G01X-659050Y-1035100D02*
Y-1073100D01*
G03X-654050Y-1078100I5000J0D01*
G03X-649050Y-1073100I0J5000D01*
G01Y-1035100D01*
G03X-654050Y-1030100I-5000J0D01*
G03X-659050Y-1035100I0J-5000D01*
G01Y-933500D02*
Y-971500D01*
G03X-654050Y-976500I5000J0D01*
G03X-649050Y-971500I0J5000D01*
G01Y-933500D01*
G03X-654050Y-928500I-5000J0D01*
G03X-659050Y-933500I0J-5000D01*
G01Y-831900D02*
Y-869900D01*
G03X-654050Y-874900I5000J0D01*
G03X-649050Y-869900I0J5000D01*
G01Y-831900D01*
G03X-654050Y-826900I-5000J0D01*
G03X-659050Y-831900I0J-5000D01*
G01Y-730300D02*
Y-768300D01*
G03X-654050Y-773300I5000J0D01*
G03X-649050Y-768300I0J5000D01*
G01Y-730300D01*
G03X-654050Y-725300I-5000J0D01*
G03X-659050Y-730300I0J-5000D01*
G01Y-628700D02*
Y-666700D01*
G03X-654050Y-671700I5000J0D01*
G03X-649050Y-666700I0J5000D01*
G01Y-628700D01*
G03X-654050Y-623700I-5000J0D01*
G03X-659050Y-628700I0J-5000D01*
G01Y-527100D02*
Y-565100D01*
G03X-654050Y-570100I5000J0D01*
G03X-649050Y-565100I0J5000D01*
G01Y-527100D01*
G03X-654050Y-522100I-5000J0D01*
G03X-659050Y-527100I0J-5000D01*
G01Y-425500D02*
Y-463500D01*
G03X-654050Y-468500I5000J0D01*
G03X-649050Y-463500I0J5000D01*
G01Y-425500D01*
G03X-654050Y-420500I-5000J0D01*
G03X-659050Y-425500I0J-5000D01*
G01Y-323900D02*
Y-361900D01*
G03X-654050Y-366900I5000J0D01*
G03X-649050Y-361900I0J5000D01*
G01Y-323900D01*
G03X-654050Y-318900I-5000J0D01*
G03X-659050Y-323900I0J-5000D01*
G01Y38050D02*
Y50D01*
G03X-654050Y-4950I5000J0D01*
G03X-649050Y50I0J5000D01*
G01Y38050D01*
G03X-654050Y43050I-5000J0D01*
G03X-659050Y38050I0J-5000D01*
G01Y139650D02*
Y101650D01*
G03X-654050Y96650I5000J0D01*
G03X-649050Y101650I0J5000D01*
G01Y139650D01*
G03X-654050Y144650I-5000J0D01*
G03X-659050Y139650I0J-5000D01*
G01Y241250D02*
Y203250D01*
G03X-654050Y198250I5000J0D01*
G03X-649050Y203250I0J5000D01*
G01Y241250D01*
G03X-654050Y246250I-5000J0D01*
G03X-659050Y241250I0J-5000D01*
G01Y342850D02*
Y304850D01*
G03X-654050Y299850I5000J0D01*
G03X-649050Y304850I0J5000D01*
G01Y342850D01*
G03X-654050Y347850I-5000J0D01*
G03X-659050Y342850I0J-5000D01*
G01Y444450D02*
Y406450D01*
G03X-654050Y401450I5000J0D01*
G03X-649050Y406450I0J5000D01*
G01Y444450D01*
G03X-654050Y449450I-5000J0D01*
G03X-659050Y444450I0J-5000D01*
G01Y546050D02*
Y508050D01*
G03X-654050Y503050I5000J0D01*
G03X-649050Y508050I0J5000D01*
G01Y546050D01*
G03X-654050Y551050I-5000J0D01*
G03X-659050Y546050I0J-5000D01*
G01Y647650D02*
Y609650D01*
G03X-654050Y604650I5000J0D01*
G03X-649050Y609650I0J5000D01*
G01Y647650D01*
G03X-654050Y652650I-5000J0D01*
G03X-659050Y647650I0J-5000D01*
G01Y749250D02*
Y711250D01*
G03X-654050Y706250I5000J0D01*
G03X-649050Y711250I0J5000D01*
G01Y749250D01*
G03X-654050Y754250I-5000J0D01*
G03X-659050Y749250I0J-5000D01*
G01X-276290Y-1035660D02*
X-206290D01*
G02X-201290Y-1040660I0J-5000D01*
G02X-206290Y-1045660I-5000J0D01*
G01X-276290D01*
G02X-281290Y-1040660I0J5000D01*
G02X-276290Y-1035660I5000J0D01*
G01Y-832460D02*
X-206290D01*
G02X-201290Y-837460I0J-5000D01*
G02X-206290Y-842460I-5000J0D01*
G01X-276290D01*
G02X-281290Y-837460I0J5000D01*
G02X-276290Y-832460I5000J0D01*
G01Y-629260D02*
X-206290D01*
G02X-201290Y-634260I0J-5000D01*
G02X-206290Y-639260I-5000J0D01*
G01X-276290D01*
G02X-281290Y-634260I0J5000D01*
G02X-276290Y-629260I5000J0D01*
G01Y-426060D02*
X-206290D01*
G02X-201290Y-431060I0J-5000D01*
G02X-206290Y-436060I-5000J0D01*
G01X-276290D01*
G02X-281290Y-431060I0J5000D01*
G02X-276290Y-426060I5000J0D01*
G01Y37490D02*
X-206290D01*
G02X-201290Y32490I0J-5000D01*
G02X-206290Y27490I-5000J0D01*
G01X-276290D01*
G02X-281290Y32490I0J5000D01*
G02X-276290Y37490I5000J0D01*
G01X-276300Y240690D02*
X-206300D01*
G02X-201300Y235690I0J-5000D01*
G02X-206300Y230690I-5000J0D01*
G01X-276300D01*
G02X-281300Y235690I0J5000D01*
G02X-276300Y240690I5000J0D01*
G01Y443900D02*
X-206300D01*
G02X-201300Y438900I0J-5000D01*
G02X-206300Y433900I-5000J0D01*
G01X-276300D01*
G02X-281300Y438900I0J5000D01*
G02X-276300Y443900I5000J0D01*
G01Y647100D02*
X-206300D01*
G02X-201300Y642100I0J-5000D01*
G02X-206300Y637100I-5000J0D01*
G01X-276300D01*
G02X-281300Y642100I0J5000D01*
G02X-276300Y647100I5000J0D01*
G01X-149290Y-934060D02*
X-79290D01*
G02X-74290Y-939060I0J-5000D01*
G02X-79290Y-944060I-5000J0D01*
G01X-149290D01*
G02X-154290Y-939060I0J5000D01*
G02X-149290Y-934060I5000J0D01*
G01Y-730860D02*
X-79290D01*
G02X-74290Y-735860I0J-5000D01*
G02X-79290Y-740860I-5000J0D01*
G01X-149290D01*
G02X-154290Y-735860I0J5000D01*
G02X-149290Y-730860I5000J0D01*
G01Y-527660D02*
X-79290D01*
G02X-74290Y-532660I0J-5000D01*
G02X-79290Y-537660I-5000J0D01*
G01X-149290D01*
G02X-154290Y-532660I0J5000D01*
G02X-149290Y-527660I5000J0D01*
G01Y-324460D02*
X-79290D01*
G02X-74290Y-329460I0J-5000D01*
G02X-79290Y-334460I-5000J0D01*
G01X-149290D01*
G02X-154290Y-329460I0J5000D01*
G02X-149290Y-324460I5000J0D01*
G01Y139090D02*
X-79290D01*
G02X-74290Y134090I0J-5000D01*
G02X-79290Y129090I-5000J0D01*
G01X-149290D01*
G02X-154290Y134090I0J5000D01*
G02X-149290Y139090I5000J0D01*
G01X-149280Y342280D02*
X-79280D01*
G02X-74280Y337280I0J-5000D01*
G02X-79280Y332280I-5000J0D01*
G01X-149280D01*
G02X-154280Y337280I0J5000D01*
G02X-149280Y342280I5000J0D01*
G01X-149300Y545500D02*
X-79300D01*
G02X-74300Y540500I0J-5000D01*
G02X-79300Y535500I-5000J0D01*
G01X-149300D01*
G02X-154300Y540500I0J5000D01*
G02X-149300Y545500I5000J0D01*
G01Y748700D02*
X-79300D01*
G02X-74300Y743700I0J-5000D01*
G02X-79300Y738700I-5000J0D01*
G01X-149300D01*
G02X-154300Y743700I0J5000D01*
G02X-149300Y748700I5000J0D01*
M02*
