G04 ================== begin FILE IDENTIFICATION RECORD ==================*
G04 Layout Name:  D:/Project/Circuit/ORCAD/KPRD/03v1/pcb/kprd_03v1.brd*
G04 Film Name:    BOARD*
G04 File Format:  Gerber RS274X*
G04 File Origin:  Cadence Allegro 16.6-S012*
G04 Origin Date:  Mon Jul 29 12:29:18 2013*
G04 *
G04 Layer:  BOARD GEOMETRY/NCROUTE_PATH*
G04 Layer:  BOARD GEOMETRY/OUTLINE*
G04 *
G04 Offset:    (0.000 0.000)*
G04 Mirror:    No*
G04 Mode:      Positive*
G04 Rotation:  0*
G04 FullContactRelief:  No*
G04 UndefLineWidth:     0.250*
G04 ================== end FILE IDENTIFICATION RECORD ====================*
%FSLAX34Y34*MOMM*%
%IR0*IPPOS*OFA0.00000B0.00000*MIA0B0*SFA1.00000B1.00000*%
%ADD10C,.25*%
G75*
%LPD*%
G75*
G54D10*
G01X-914400Y-2082800D02*
Y246380D01*
X114300D01*
Y-2082800D01*
X-914400D01*
G01X-659050Y-1797100D02*
Y-1835100D01*
G03X-654050Y-1840100I5000J0D01*
G03X-649050Y-1835100I0J5000D01*
G01Y-1797100D01*
G03X-654050Y-1792100I-5000J0D01*
G03X-659050Y-1797100I0J-5000D01*
G01Y-1695500D02*
Y-1733500D01*
G03X-654050Y-1738500I5000J0D01*
G03X-649050Y-1733500I0J5000D01*
G01Y-1695500D01*
G03X-654050Y-1690500I-5000J0D01*
G03X-659050Y-1695500I0J-5000D01*
G01Y-1593900D02*
Y-1631900D01*
G03X-654050Y-1636900I5000J0D01*
G03X-649050Y-1631900I0J5000D01*
G01Y-1593900D01*
G03X-654050Y-1588900I-5000J0D01*
G03X-659050Y-1593900I0J-5000D01*
G01Y-1492300D02*
Y-1530300D01*
G03X-654050Y-1535300I5000J0D01*
G03X-649050Y-1530300I0J5000D01*
G01Y-1492300D01*
G03X-654050Y-1487300I-5000J0D01*
G03X-659050Y-1492300I0J-5000D01*
G01Y-1390700D02*
Y-1428700D01*
G03X-654050Y-1433700I5000J0D01*
G03X-649050Y-1428700I0J5000D01*
G01Y-1390700D01*
G03X-654050Y-1385700I-5000J0D01*
G03X-659050Y-1390700I0J-5000D01*
G01Y-1289100D02*
Y-1327100D01*
G03X-654050Y-1332100I5000J0D01*
G03X-649050Y-1327100I0J5000D01*
G01Y-1289100D01*
G03X-654050Y-1284100I-5000J0D01*
G03X-659050Y-1289100I0J-5000D01*
G01Y-1187500D02*
Y-1225500D01*
G03X-654050Y-1230500I5000J0D01*
G03X-649050Y-1225500I0J5000D01*
G01Y-1187500D01*
G03X-654050Y-1182500I-5000J0D01*
G03X-659050Y-1187500I0J-5000D01*
G01Y-1085900D02*
Y-1123900D01*
G03X-654050Y-1128900I5000J0D01*
G03X-649050Y-1123900I0J5000D01*
G01Y-1085900D01*
G03X-654050Y-1080900I-5000J0D01*
G03X-659050Y-1085900I0J-5000D01*
G01Y-723950D02*
Y-761950D01*
G03X-654050Y-766950I5000J0D01*
G03X-649050Y-761950I0J5000D01*
G01Y-723950D01*
G03X-654050Y-718950I-5000J0D01*
G03X-659050Y-723950I0J-5000D01*
G01Y-622350D02*
Y-660350D01*
G03X-654050Y-665350I5000J0D01*
G03X-649050Y-660350I0J5000D01*
G01Y-622350D01*
G03X-654050Y-617350I-5000J0D01*
G03X-659050Y-622350I0J-5000D01*
G01Y-520750D02*
Y-558750D01*
G03X-654050Y-563750I5000J0D01*
G03X-649050Y-558750I0J5000D01*
G01Y-520750D01*
G03X-654050Y-515750I-5000J0D01*
G03X-659050Y-520750I0J-5000D01*
G01Y-419150D02*
Y-457150D01*
G03X-654050Y-462150I5000J0D01*
G03X-649050Y-457150I0J5000D01*
G01Y-419150D01*
G03X-654050Y-414150I-5000J0D01*
G03X-659050Y-419150I0J-5000D01*
G01Y-317550D02*
Y-355550D01*
G03X-654050Y-360550I5000J0D01*
G03X-649050Y-355550I0J5000D01*
G01Y-317550D01*
G03X-654050Y-312550I-5000J0D01*
G03X-659050Y-317550I0J-5000D01*
G01Y-215950D02*
Y-253950D01*
G03X-654050Y-258950I5000J0D01*
G03X-649050Y-253950I0J5000D01*
G01Y-215950D01*
G03X-654050Y-210950I-5000J0D01*
G03X-659050Y-215950I0J-5000D01*
G01Y-114350D02*
Y-152350D01*
G03X-654050Y-157350I5000J0D01*
G03X-649050Y-152350I0J5000D01*
G01Y-114350D01*
G03X-654050Y-109350I-5000J0D01*
G03X-659050Y-114350I0J-5000D01*
G01Y-12750D02*
Y-50750D01*
G03X-654050Y-55750I5000J0D01*
G03X-649050Y-50750I0J5000D01*
G01Y-12750D01*
G03X-654050Y-7750I-5000J0D01*
G03X-659050Y-12750I0J-5000D01*
G01X-276290Y-1797660D02*
X-206290D01*
G02X-201290Y-1802660I0J-5000D01*
G02X-206290Y-1807660I-5000J0D01*
G01X-276290D01*
G02X-281290Y-1802660I0J5000D01*
G02X-276290Y-1797660I5000J0D01*
G01Y-1594460D02*
X-206290D01*
G02X-201290Y-1599460I0J-5000D01*
G02X-206290Y-1604460I-5000J0D01*
G01X-276290D01*
G02X-281290Y-1599460I0J5000D01*
G02X-276290Y-1594460I5000J0D01*
G01Y-1391260D02*
X-206290D01*
G02X-201290Y-1396260I0J-5000D01*
G02X-206290Y-1401260I-5000J0D01*
G01X-276290D01*
G02X-281290Y-1396260I0J5000D01*
G02X-276290Y-1391260I5000J0D01*
G01Y-1188060D02*
X-206290D01*
G02X-201290Y-1193060I0J-5000D01*
G02X-206290Y-1198060I-5000J0D01*
G01X-276290D01*
G02X-281290Y-1193060I0J5000D01*
G02X-276290Y-1188060I5000J0D01*
G01Y-724510D02*
X-206290D01*
G02X-201290Y-729510I0J-5000D01*
G02X-206290Y-734510I-5000J0D01*
G01X-276290D01*
G02X-281290Y-729510I0J5000D01*
G02X-276290Y-724510I5000J0D01*
G01X-276300Y-521310D02*
X-206300D01*
G02X-201300Y-526310I0J-5000D01*
G02X-206300Y-531310I-5000J0D01*
G01X-276300D01*
G02X-281300Y-526310I0J5000D01*
G02X-276300Y-521310I5000J0D01*
G01Y-318100D02*
X-206300D01*
G02X-201300Y-323100I0J-5000D01*
G02X-206300Y-328100I-5000J0D01*
G01X-276300D01*
G02X-281300Y-323100I0J5000D01*
G02X-276300Y-318100I5000J0D01*
G01Y-114900D02*
X-206300D01*
G02X-201300Y-119900I0J-5000D01*
G02X-206300Y-124900I-5000J0D01*
G01X-276300D01*
G02X-281300Y-119900I0J5000D01*
G02X-276300Y-114900I5000J0D01*
G01X-149290Y-1696060D02*
X-79290D01*
G02X-74290Y-1701060I0J-5000D01*
G02X-79290Y-1706060I-5000J0D01*
G01X-149290D01*
G02X-154290Y-1701060I0J5000D01*
G02X-149290Y-1696060I5000J0D01*
G01Y-1492860D02*
X-79290D01*
G02X-74290Y-1497860I0J-5000D01*
G02X-79290Y-1502860I-5000J0D01*
G01X-149290D01*
G02X-154290Y-1497860I0J5000D01*
G02X-149290Y-1492860I5000J0D01*
G01Y-1289660D02*
X-79290D01*
G02X-74290Y-1294660I0J-5000D01*
G02X-79290Y-1299660I-5000J0D01*
G01X-149290D01*
G02X-154290Y-1294660I0J5000D01*
G02X-149290Y-1289660I5000J0D01*
G01Y-1086460D02*
X-79290D01*
G02X-74290Y-1091460I0J-5000D01*
G02X-79290Y-1096460I-5000J0D01*
G01X-149290D01*
G02X-154290Y-1091460I0J5000D01*
G02X-149290Y-1086460I5000J0D01*
G01Y-622910D02*
X-79290D01*
G02X-74290Y-627910I0J-5000D01*
G02X-79290Y-632910I-5000J0D01*
G01X-149290D01*
G02X-154290Y-627910I0J5000D01*
G02X-149290Y-622910I5000J0D01*
G01X-149280Y-419720D02*
X-79280D01*
G02X-74280Y-424720I0J-5000D01*
G02X-79280Y-429720I-5000J0D01*
G01X-149280D01*
G02X-154280Y-424720I0J5000D01*
G02X-149280Y-419720I5000J0D01*
G01X-149300Y-216500D02*
X-79300D01*
G02X-74300Y-221500I0J-5000D01*
G02X-79300Y-226500I-5000J0D01*
G01X-149300D01*
G02X-154300Y-221500I0J5000D01*
G02X-149300Y-216500I5000J0D01*
G01Y-13300D02*
X-79300D01*
G02X-74300Y-18300I0J-5000D01*
G02X-79300Y-23300I-5000J0D01*
G01X-149300D01*
G02X-154300Y-18300I0J5000D01*
G02X-149300Y-13300I5000J0D01*
M02*
