G04 ================== begin FILE IDENTIFICATION RECORD ==================*
G04 Layout Name:  D:/Project/Circuit/ORCAD/KPRD/03v1/pcb/kprd_03v1.brd*
G04 Film Name:    BOTTOM*
G04 File Format:  Gerber RS274X*
G04 File Origin:  Cadence Allegro 16.6-S012*
G04 Origin Date:  Mon Jul 29 16:02:30 2013*
G04 *
G04 Layer:  ETCH/BOTTOM*
G04 Layer:  PIN/BOTTOM*
G04 Layer:  VIA CLASS/BOTTOM*
G04 *
G04 Offset:    (0.000 0.000)*
G04 Mirror:    No*
G04 Mode:      Positive*
G04 Rotation:  0*
G04 FullContactRelief:  No*
G04 UndefLineWidth:     0.250*
G04 ================== end FILE IDENTIFICATION RECORD ====================*
%FSLAX34Y34*MOMM*%
%IR0*IPPOS*OFA0.00000B0.00000*MIA0B0*SFA1.00000B1.00000*%
%ADD11C,1.*%
%ADD14C,2.*%
%ADD10C,4.2*%
%ADD29C,5.2*%
%ADD27C,2.5*%
%ADD15C,1.6*%
%ADD13C,1.55*%
%ADD21R,2.05X2.05*%
%ADD16R,1.55X.65*%
%ADD24C,1.95*%
%ADD12R,1.55X1.55*%
%ADD22R,1.95X1.95*%
%ADD18R,1.1X1.4*%
%ADD20R,1.1X2.7*%
%ADD23R,2.7X1.1*%
%ADD26R,3.15X2.2*%
%ADD28R,2.5X2.5*%
%ADD17R,1.75X1.*%
%ADD25R,1.8X1.25*%
%ADD19R,.5X.9*%
%ADD30C,1.27*%
%ADD31C,.4*%
%ADD32C,.5*%
%ADD33C,.25*%
%ADD34C,.65*%
%ADD35C,.75*%
%ADD38C,2.104*%
%ADD36C,3.004*%
%ADD37C,2.054*%
G75*
%LPD*%
G75*
G36*
G01X-44420Y-87900D02*
Y-73060D01*
G02X-43860Y-72160I1000J2D01*
G01X-41990Y-71240D01*
X-41440Y-71290D01*
X-41210Y-71470D01*
G03Y-30130I15810J20670D01*
G01X-41440Y-30310D01*
X-41990Y-30360D01*
X-43860Y-29440D01*
G02X-44420Y-28540I440J898D01*
G01Y815940D01*
G02X-43860Y816840I1000J2D01*
G01X-41990Y817760D01*
X-41440Y817710D01*
X-41210Y817530D01*
G03Y858870I15810J20670D01*
G01X-41440Y858690D01*
X-41990Y858640D01*
X-43860Y859560D01*
G02X-44420Y860460I440J898D01*
G01Y2056400D01*
G02X-43420Y2057400I1000J0D01*
G01X176800D01*
G02X177800Y2056400I0J-1000D01*
G01Y1990410D01*
G02X176800Y1989410I-1000J0D01*
G01X172100D01*
G02X171230Y1989920I2J1000D01*
G03X168900Y1993090I-13975J-7830D01*
G02X168650Y1993600I736J677D01*
G03X154210Y1989610I-7396J-1357D01*
G01X154290Y1989370D01*
X154230Y1988900D01*
X153150Y1987340D01*
G02X152330Y1986910I-821J569D01*
G01X143230D01*
G03X142230Y1985910I0J-1000D01*
G01Y1968870D01*
G03X143230Y1967870I1000J0D01*
G01X155730D01*
G02X156730Y1966870I0J-1000D01*
G01Y1965950D01*
X157310Y1965370D01*
X157430D01*
Y1958960D01*
G02X156430Y1957960I-1000J0D01*
G01X133280D01*
G03X132280Y1956960I0J-1000D01*
G01Y1938920D01*
G03X133280Y1937920I1000J0D01*
G01X156880D01*
X157140Y1937660D01*
G03X157840Y1937370I704J710D01*
G01X158930D01*
G02X159930Y1936370I0J-1000D01*
G01Y1928960D01*
G02X158930Y1927960I-1000J0D01*
G01X133280D01*
G03X132280Y1926960I0J-1000D01*
G01Y1921840D01*
X131870Y1921310D01*
X131540Y1921220D01*
G03X125450Y1917680I3646J-13282D01*
G01X19310Y1811540D01*
G03X15280Y1801800I9742J-9735D01*
G01Y1156410D01*
G02X14840Y1155580I-1000J-1D01*
G03X23260I4210J-6230D01*
G02X22820Y1156410I560J829D01*
G01Y1801800D01*
G02X24650Y1806200I6228J-10D01*
G01X130580Y1912140D01*
G02X131670Y1912350I702J-712D01*
G01X131950Y1912240D01*
X132280Y1911740D01*
Y1908920D01*
G03X133280Y1907920I1000J0D01*
G01X158820D01*
G03X159820Y1908920I0J1000D01*
G01Y1926170D01*
G02X160820Y1927170I1000J0D01*
G01X176800D01*
G02X177800Y1926170I0J-1000D01*
G01Y1888810D01*
G02X176800Y1887810I-1000J0D01*
G01X171870D01*
G02X171010Y1888300I0J1000D01*
G03X168910Y1891080I-13756J-8208D01*
G02X168650Y1891590I726J691D01*
G03X154110Y1887930I-7401J-1310D01*
G01X154180Y1887710D01*
X154110Y1887230D01*
X153020Y1885720D01*
G02X152210Y1885310I-808J592D01*
G01X143230D01*
G03X142230Y1884310I0J-1000D01*
G01Y1867270D01*
G03X143230Y1866270I1000J0D01*
G01X155730D01*
G02X156730Y1865270I0J-1000D01*
G01Y1864350D01*
X157310Y1863770D01*
X157430D01*
Y1857360D01*
G02X156430Y1856360I-1000J0D01*
G01X133280D01*
G03X132280Y1855360I0J-1000D01*
G01Y1837320D01*
G03X133280Y1836320I1000J0D01*
G01X156880D01*
X157140Y1836060D01*
G03X157840Y1835770I704J710D01*
G01X158930D01*
G02X159930Y1834770I0J-1000D01*
G01Y1827360D01*
G02X158930Y1826360I-1000J0D01*
G01X133280D01*
G03X132280Y1825360I0J-1000D01*
G01Y1820240D01*
X131870Y1819710D01*
X131540Y1819620D01*
G03X125450Y1816080I3646J-13282D01*
G01X38360Y1728990D01*
G03X34330Y1719250I9742J-9735D01*
G01Y1162760D01*
G02X33890Y1161930I-1000J-1D01*
G03X42310I4210J-6230D01*
G02X41870Y1162760I560J829D01*
G01Y1719250D01*
G02X43700Y1723650I6228J-10D01*
G01X130580Y1810540D01*
G02X131670Y1810750I702J-712D01*
G01X131950Y1810640D01*
X132280Y1810140D01*
Y1807320D01*
G03X133280Y1806320I1000J0D01*
G01X158820D01*
G03X159820Y1807320I0J1000D01*
G01Y1824570D01*
G02X160820Y1825570I1000J0D01*
G01X176800D01*
G02X177800Y1824570I0J-1000D01*
G01Y1787210D01*
G02X176800Y1786210I-1000J0D01*
G01X173150D01*
X172630Y1786590D01*
X172530Y1786910D01*
G03X168900Y1793090I-15277J-4818D01*
G02X168650Y1793600I736J677D01*
G03X156380Y1786510I-7397J-1361D01*
G02X156730Y1785750I-650J-760D01*
G01Y1784710D01*
G02X155730Y1783710I-1000J0D01*
G01X143230D01*
G03X142230Y1782710I0J-1000D01*
G01Y1765670D01*
G03X143230Y1764670I1000J0D01*
G01X155730D01*
G02X156730Y1763670I0J-1000D01*
G01Y1762750D01*
X157310Y1762170D01*
X157430D01*
Y1755760D01*
G02X156430Y1754760I-1000J0D01*
G01X133280D01*
G03X132280Y1753760I0J-1000D01*
G01Y1735720D01*
G03X133280Y1734720I1000J0D01*
G01X156880D01*
X157140Y1734460D01*
G03X157840Y1734170I704J710D01*
G01X158930D01*
G02X159930Y1733170I0J-1000D01*
G01Y1725760D01*
G02X158930Y1724760I-1000J0D01*
G01X133280D01*
G03X132280Y1723760I0J-1000D01*
G01Y1718640D01*
X131870Y1718110D01*
X131540Y1718020D01*
G03X125450Y1714480I3646J-13282D01*
G01X57410Y1646440D01*
G03X53380Y1636700I9742J-9735D01*
G01Y1169110D01*
G02X52940Y1168280I-1000J-1D01*
G03X61360I4210J-6230D01*
G02X60920Y1169110I560J829D01*
G01Y1636700D01*
G02X62750Y1641100I6228J-10D01*
G01X130580Y1708940D01*
G02X131670Y1709150I702J-712D01*
G01X131950Y1709040D01*
X132280Y1708540D01*
Y1705720D01*
G03X133280Y1704720I1000J0D01*
G01X158820D01*
G03X159820Y1705720I0J1000D01*
G01Y1722970D01*
G02X160820Y1723970I1000J0D01*
G01X176800D01*
G02X177800Y1722970I0J-1000D01*
G01Y1685610D01*
G02X176800Y1684610I-1000J0D01*
G01X173540D01*
X173000Y1685050D01*
X172930Y1685400D01*
G03X168900Y1693090I-15674J-3313D01*
G02X168650Y1693600I736J677D01*
G03X156530Y1686390I-7397J-1358D01*
G01X156700Y1686240D01*
X156900Y1685840D01*
Y1684610D01*
X156730D01*
Y1683110D01*
G02X155730Y1682110I-1000J0D01*
G01X143230D01*
G03X142230Y1681110I0J-1000D01*
G01Y1664070D01*
G03X143230Y1663070I1000J0D01*
G01X155730D01*
G02X156730Y1662070I0J-1000D01*
G01Y1661150D01*
X157310Y1660570D01*
X157430D01*
Y1654160D01*
G02X156430Y1653160I-1000J0D01*
G01X133280D01*
G03X132280Y1652160I0J-1000D01*
G01Y1634120D01*
G03X133280Y1633120I1000J0D01*
G01X156880D01*
X157140Y1632860D01*
G03X157840Y1632570I704J710D01*
G01X158930D01*
G02X159930Y1631570I0J-1000D01*
G01Y1624160D01*
G02X158930Y1623160I-1000J0D01*
G01X133280D01*
G03X132280Y1622160I0J-1000D01*
G01Y1617040D01*
X131870Y1616510D01*
X131540Y1616420D01*
G03X125450Y1612880I3646J-13282D01*
G01X76460Y1563890D01*
G03X72430Y1554150I9742J-9735D01*
G01Y1175460D01*
G02X71990Y1174630I-1000J-1D01*
G03X80410I4210J-6230D01*
G02X79970Y1175460I560J829D01*
G01Y1554150D01*
G02X81800Y1558550I6228J-10D01*
G01X130580Y1607340D01*
G02X131670Y1607550I702J-712D01*
G01X131950Y1607440D01*
X132280Y1606940D01*
Y1604120D01*
G03X133280Y1603120I1000J0D01*
G01X158820D01*
G03X159820Y1604120I0J1000D01*
G01Y1621370D01*
G02X160820Y1622370I1000J0D01*
G01X176800D01*
G02X177800Y1621370I0J-1000D01*
G01Y1584010D01*
G02X176800Y1583010I-1000J0D01*
G01X173460D01*
X172920Y1583440D01*
X172840Y1583780D01*
G03X168900Y1591090I-15589J-3685D01*
G02X168650Y1591600I736J677D01*
G03X156380Y1584510I-7397J-1361D01*
G02X156730Y1583750I-650J-760D01*
G01Y1581510D01*
G02X155730Y1580510I-1000J0D01*
G01X143230D01*
G03X142230Y1579510I0J-1000D01*
G01Y1562470D01*
G03X143230Y1561470I1000J0D01*
G01X155730D01*
G02X156730Y1560470I0J-1000D01*
G01Y1559550D01*
X157310Y1558970D01*
X157430D01*
Y1552560D01*
G02X156430Y1551560I-1000J0D01*
G01X133280D01*
G03X132280Y1550560I0J-1000D01*
G01Y1532520D01*
G03X133280Y1531520I1000J0D01*
G01X156880D01*
X157140Y1531260D01*
G03X157840Y1530970I704J710D01*
G01X158930D01*
G02X159930Y1529970I0J-1000D01*
G01Y1522560D01*
G02X158930Y1521560I-1000J0D01*
G01X133280D01*
G03X132280Y1520560I0J-1000D01*
G01Y1514850D01*
G02X131710Y1513950I-999J2D01*
G03X127940Y1511280I5962J-12415D01*
G01X95510Y1478850D01*
G03X91480Y1469110I9742J-9735D01*
G01Y1181810D01*
G02X91040Y1180980I-1000J-1D01*
G03X99460I4210J-6230D01*
G02X99020Y1181810I560J829D01*
G01Y1469110D01*
G02X100850Y1473510I6228J-10D01*
G01X130580Y1503250D01*
G02X131670Y1503460I702J-712D01*
G01X131950Y1503350D01*
X132280Y1502850D01*
Y1502520D01*
G03X133280Y1501520I1000J0D01*
G01X158820D01*
G03X159820Y1502520I0J1000D01*
G01Y1519770D01*
G02X160820Y1520770I1000J0D01*
G01X176800D01*
G02X177800Y1519770I0J-1000D01*
G01Y1482410D01*
G02X176800Y1481410I-1000J0D01*
G01X173370D01*
X172830Y1481830D01*
X172750Y1482160D01*
G03X168900Y1489090I-15494J-4073D01*
G02X168650Y1489600I736J677D01*
G03X156380Y1482510I-7397J-1361D01*
G02X156730Y1481750I-650J-760D01*
G01Y1479910D01*
G02X155730Y1478910I-1000J0D01*
G01X143230D01*
G03X142230Y1477910I0J-1000D01*
G01Y1460870D01*
G03X143230Y1459870I1000J0D01*
G01X155730D01*
G02X156730Y1458870I0J-1000D01*
G01Y1457950D01*
X157310Y1457370D01*
X157430D01*
Y1450960D01*
G02X156430Y1449960I-1000J0D01*
G01X133280D01*
G03X132280Y1448960I0J-1000D01*
G01Y1430920D01*
G03X133280Y1429920I1000J0D01*
G01X156880D01*
X157140Y1429660D01*
G03X157840Y1429370I704J710D01*
G01X158930D01*
G02X159930Y1428370I0J-1000D01*
G01Y1420960D01*
G02X158930Y1419960I-1000J0D01*
G01X133280D01*
G03X132280Y1418960I0J-1000D01*
G01Y1413250D01*
G02X131710Y1412350I-999J2D01*
G03X127940Y1409680I5962J-12415D01*
G01X114560Y1396300D01*
G03X110530Y1386560I9742J-9735D01*
G01Y1147140D01*
G02X108700Y1142740I-6228J10D01*
G01X70110Y1104150D01*
G03X66080Y1094410I9742J-9735D01*
G01Y158750D01*
G02X63850Y156190I-2584J0D01*
G02X62770Y156840I-138J993D01*
G03X57320Y163380I-11973J-4437D01*
G02X56830Y164240I510J860D01*
G01Y165960D01*
G02X57320Y166820I1000J0D01*
G03Y188780I-6520J10980D01*
G02X56830Y189640I510J860D01*
G01Y191360D01*
G02X57320Y192220I1000J0D01*
G03X59670Y212390I-6519J10981D01*
G01X59440Y212610D01*
X59310Y213190D01*
X60130Y215200D01*
G02X61050Y215830I928J-368D01*
G01X62570D01*
G03X63570Y216830I0J1000D01*
G01Y240370D01*
G03X62570Y241370I-1000J0D01*
G01X61050D01*
G02X60130Y242000I8J998D01*
G01X59310Y244010D01*
X59440Y244590D01*
X59670Y244810D01*
G03X57320Y264980I-8869J9189D01*
G02X56830Y265840I510J860D01*
G01Y267560D01*
G02X57320Y268420I1000J0D01*
G03Y290380I-6520J10980D01*
G02X56830Y291240I510J860D01*
G01Y292960D01*
G02X57320Y293820I1000J0D01*
G03Y315780I-6520J10980D01*
G02X56830Y316640I510J860D01*
G01Y318360D01*
G02X57320Y319220I1000J0D01*
G03Y341180I-6520J10980D01*
G02X56830Y342040I510J860D01*
G01Y343760D01*
G02X57320Y344620I1000J0D01*
G03Y366580I-6520J10980D01*
G02X56830Y367440I510J860D01*
G01Y369160D01*
G02X57320Y370020I1000J0D01*
G03Y391980I-6520J10980D01*
G02X56830Y392840I510J860D01*
G01Y394560D01*
G02X57320Y395420I1000J0D01*
G03Y417380I-6520J10980D01*
G02X56830Y418240I510J860D01*
G01Y419960D01*
G02X57320Y420820I1000J0D01*
G03Y442780I-6520J10980D01*
G02X56830Y443640I510J860D01*
G01Y445360D01*
G02X57320Y446220I1000J0D01*
G03X59670Y466390I-6519J10981D01*
G01X59440Y466610D01*
X59310Y467190D01*
X60130Y469200D01*
G02X61050Y469830I928J-368D01*
G01X62570D01*
G03X63570Y470830I0J1000D01*
G01Y494370D01*
G03X62570Y495370I-1000J0D01*
G01X61050D01*
G02X60130Y496000I8J998D01*
G01X59310Y498010D01*
X59440Y498590D01*
X59670Y498810D01*
G03X57320Y518980I-8869J9189D01*
G02X56830Y519840I510J860D01*
G01Y521560D01*
G02X57320Y522420I1000J0D01*
G03Y544380I-6520J10980D01*
G02X56830Y545240I510J860D01*
G01Y546960D01*
G02X57320Y547820I1000J0D01*
G03Y569780I-6520J10980D01*
G02X56830Y570640I510J860D01*
G01Y572360D01*
G02X57320Y573220I1000J0D01*
G03Y595180I-6520J10980D01*
G02X56830Y596040I510J860D01*
G01Y597760D01*
G02X57320Y598620I1000J0D01*
G03Y620580I-6520J10980D01*
G02X56830Y621440I510J860D01*
G01Y623160D01*
G02X57320Y624020I1000J0D01*
G03Y645980I-6520J10980D01*
G02X56830Y646840I510J860D01*
G01Y648560D01*
G02X57320Y649420I1000J0D01*
G03Y671380I-6520J10980D01*
G02X56830Y672240I510J860D01*
G01Y673960D01*
G02X57320Y674820I1000J0D01*
G03Y696780I-6520J10980D01*
G02X56830Y697640I510J860D01*
G01Y699360D01*
G02X57320Y700220I1000J0D01*
G03X59670Y720390I-6519J10981D01*
G01X59440Y720610D01*
X59310Y721190D01*
X60130Y723200D01*
G02X61050Y723830I928J-368D01*
G01X62570D01*
G03X63570Y724830I0J1000D01*
G01Y748370D01*
G03X62570Y749370I-1000J0D01*
G01X39030D01*
G03X38030Y748370I0J-1000D01*
G01Y724830D01*
G03X39030Y723830I1000J0D01*
G01X40550D01*
G02X41470Y723200I-8J-998D01*
G01X42290Y721190D01*
X42160Y720610D01*
X41930Y720390D01*
G03X44280Y700220I8869J-9189D01*
G02X44770Y699360I-510J-860D01*
G01Y697640D01*
G02X44280Y696780I-1000J0D01*
G03Y674820I6520J-10980D01*
G02X44770Y673960I-510J-860D01*
G01Y672240D01*
G02X44280Y671380I-1000J0D01*
G03Y649420I6520J-10980D01*
G02X44770Y648560I-510J-860D01*
G01Y646840D01*
G02X44280Y645980I-1000J0D01*
G03Y624020I6520J-10980D01*
G02X44770Y623160I-510J-860D01*
G01Y621440D01*
G02X44280Y620580I-1000J0D01*
G03Y598620I6520J-10980D01*
G02X44770Y597760I-510J-860D01*
G01Y596040D01*
G02X44280Y595180I-1000J0D01*
G03Y573220I6520J-10980D01*
G02X44770Y572360I-510J-860D01*
G01Y570640D01*
G02X44280Y569780I-1000J0D01*
G03Y547820I6520J-10980D01*
G02X44770Y546960I-510J-860D01*
G01Y545240D01*
G02X44280Y544380I-1000J0D01*
G03Y522420I6520J-10980D01*
G02X44770Y521560I-510J-860D01*
G01Y519840D01*
G02X44280Y518980I-1000J0D01*
G03X41930Y498810I6519J-10981D01*
G01X42160Y498590D01*
X42290Y498010D01*
X41470Y496000D01*
G02X40550Y495370I-928J368D01*
G01X39030D01*
G03X38030Y494370I0J-1000D01*
G01Y470830D01*
G03X39030Y469830I1000J0D01*
G01X40550D01*
G02X41470Y469200I-8J-998D01*
G01X42290Y467190D01*
X42160Y466610D01*
X41930Y466390D01*
G03X44280Y446220I8869J-9189D01*
G02X44770Y445360I-510J-860D01*
G01Y443640D01*
G02X44280Y442780I-1000J0D01*
G03Y420820I6520J-10980D01*
G02X44770Y419960I-510J-860D01*
G01Y418240D01*
G02X44280Y417380I-1000J0D01*
G03Y395420I6520J-10980D01*
G02X44770Y394560I-510J-860D01*
G01Y392840D01*
G02X44280Y391980I-1000J0D01*
G03Y370020I6520J-10980D01*
G02X44770Y369160I-510J-860D01*
G01Y367440D01*
G02X44280Y366580I-1000J0D01*
G03Y344620I6520J-10980D01*
G02X44770Y343760I-510J-860D01*
G01Y342040D01*
G02X44280Y341180I-1000J0D01*
G03Y319220I6520J-10980D01*
G02X44770Y318360I-510J-860D01*
G01Y316640D01*
G02X44280Y315780I-1000J0D01*
G03Y293820I6520J-10980D01*
G02X44770Y292960I-510J-860D01*
G01Y291240D01*
G02X44280Y290380I-1000J0D01*
G03Y268420I6520J-10980D01*
G02X44770Y267560I-510J-860D01*
G01Y265840D01*
G02X44280Y264980I-1000J0D01*
G03X41930Y244810I6519J-10981D01*
G01X42160Y244590D01*
X42290Y244010D01*
X41470Y242000D01*
G02X40550Y241370I-928J368D01*
G01X39030D01*
G03X38030Y240370I0J-1000D01*
G01Y216830D01*
G03X39030Y215830I1000J0D01*
G01X40550D01*
G02X41470Y215200I-8J-998D01*
G01X42290Y213190D01*
X42160Y212610D01*
X41930Y212390D01*
G03X44280Y192220I8869J-9189D01*
G02X44770Y191360I-510J-860D01*
G01Y189640D01*
G02X44280Y188780I-1000J0D01*
G03Y166820I6520J-10980D01*
G02X44770Y165960I-510J-860D01*
G01Y164240D01*
G02X44280Y163380I-1000J0D01*
G03X39520Y146410I6519J-10981D01*
G01X39650Y146170D01*
X39630Y145650D01*
X38610Y143950D01*
G02X37760Y143470I-854J520D01*
G01X35530D01*
G02X34640Y144000I-7J1001D01*
G01X33680Y145820D01*
X33710Y146370D01*
X33870Y146600D01*
G03X18100Y145170I-8476J5800D01*
G01X18240Y145030D01*
X18390Y144670D01*
Y144470D01*
G02X17390Y143470I-1000J0D01*
G01X16840D01*
G03X13260Y143000I-13J-13771D01*
G01X12960Y142910D01*
X12390Y143110D01*
X10890Y145070D01*
X10860Y145670D01*
X11010Y145940D01*
G03X6520Y163380I-11012J6463D01*
G02X6030Y164240I510J860D01*
G01Y165960D01*
G02X6520Y166820I1000J0D01*
G03Y188780I-6520J10980D01*
G02X6030Y189640I510J860D01*
G01Y191360D01*
G02X6520Y192220I1000J0D01*
G03X8870Y212390I-6519J10981D01*
G01X8640Y212610D01*
X8510Y213190D01*
X9330Y215200D01*
G02X10250Y215830I928J-368D01*
G01X11770D01*
G03X12770Y216830I0J1000D01*
G01Y240370D01*
G03X11770Y241370I-1000J0D01*
G01X10250D01*
G02X9330Y242000I8J998D01*
G01X8510Y244010D01*
X8640Y244590D01*
X8870Y244810D01*
G03X6520Y264980I-8869J9189D01*
G02X6030Y265840I510J860D01*
G01Y267560D01*
G02X6520Y268420I1000J0D01*
G03Y290380I-6520J10980D01*
G02X6030Y291240I510J860D01*
G01Y292960D01*
G02X6520Y293820I1000J0D01*
G03Y315780I-6520J10980D01*
G02X6030Y316640I510J860D01*
G01Y318360D01*
G02X6520Y319220I1000J0D01*
G03Y341180I-6520J10980D01*
G02X6030Y342040I510J860D01*
G01Y343760D01*
G02X6520Y344620I1000J0D01*
G03Y366580I-6520J10980D01*
G02X6030Y367440I510J860D01*
G01Y369160D01*
G02X6520Y370020I1000J0D01*
G03Y391980I-6520J10980D01*
G02X6030Y392840I510J860D01*
G01Y394560D01*
G02X6520Y395420I1000J0D01*
G03Y417380I-6520J10980D01*
G02X6030Y418240I510J860D01*
G01Y419960D01*
G02X6520Y420820I1000J0D01*
G03Y442780I-6520J10980D01*
G02X6030Y443640I510J860D01*
G01Y445360D01*
G02X6520Y446220I1000J0D01*
G03X8870Y466390I-6519J10981D01*
G01X8640Y466610D01*
X8510Y467190D01*
X9330Y469200D01*
G02X10250Y469830I928J-368D01*
G01X11770D01*
G03X12770Y470830I0J1000D01*
G01Y494370D01*
G03X11770Y495370I-1000J0D01*
G01X10250D01*
G02X9330Y496000I8J998D01*
G01X8510Y498010D01*
X8640Y498590D01*
X8870Y498810D01*
G03X6520Y518980I-8869J9189D01*
G02X6030Y519840I510J860D01*
G01Y521560D01*
G02X6520Y522420I1000J0D01*
G03Y544380I-6520J10980D01*
G02X6030Y545240I510J860D01*
G01Y546960D01*
G02X6520Y547820I1000J0D01*
G03Y569780I-6520J10980D01*
G02X6030Y570640I510J860D01*
G01Y572360D01*
G02X6520Y573220I1000J0D01*
G03Y595180I-6520J10980D01*
G02X6030Y596040I510J860D01*
G01Y597760D01*
G02X6520Y598620I1000J0D01*
G03Y620580I-6520J10980D01*
G02X6030Y621440I510J860D01*
G01Y623160D01*
G02X6520Y624020I1000J0D01*
G03Y645980I-6520J10980D01*
G02X6030Y646840I510J860D01*
G01Y648560D01*
G02X6520Y649420I1000J0D01*
G03Y671380I-6520J10980D01*
G02X6030Y672240I510J860D01*
G01Y673960D01*
G02X6520Y674820I1000J0D01*
G03Y696780I-6520J10980D01*
G02X6030Y697640I510J860D01*
G01Y699360D01*
G02X6520Y700220I1000J0D01*
G03X8870Y720390I-6519J10981D01*
G01X8640Y720610D01*
X8510Y721190D01*
X9330Y723200D01*
G02X10250Y723830I928J-368D01*
G01X11770D01*
G03X12770Y724830I0J1000D01*
G01Y748370D01*
G03X11770Y749370I-1000J0D01*
G01X-11770D01*
G03X-12770Y748370I0J-1000D01*
G01Y724830D01*
G03X-11770Y723830I1000J0D01*
G01X-10250D01*
G02X-9330Y723200I-8J-998D01*
G01X-8510Y721190D01*
X-8640Y720610D01*
X-8870Y720390D01*
G03X-6520Y700220I8869J-9189D01*
G02X-6030Y699360I-510J-860D01*
G01Y697640D01*
G02X-6520Y696780I-1000J0D01*
G03Y674820I6520J-10980D01*
G02X-6030Y673960I-510J-860D01*
G01Y672240D01*
G02X-6520Y671380I-1000J0D01*
G03Y649420I6520J-10980D01*
G02X-6030Y648560I-510J-860D01*
G01Y646840D01*
G02X-6520Y645980I-1000J0D01*
G03Y624020I6520J-10980D01*
G02X-6030Y623160I-510J-860D01*
G01Y621440D01*
G02X-6520Y620580I-1000J0D01*
G03Y598620I6520J-10980D01*
G02X-6030Y597760I-510J-860D01*
G01Y596040D01*
G02X-6520Y595180I-1000J0D01*
G03Y573220I6520J-10980D01*
G02X-6030Y572360I-510J-860D01*
G01Y570640D01*
G02X-6520Y569780I-1000J0D01*
G03Y547820I6520J-10980D01*
G02X-6030Y546960I-510J-860D01*
G01Y545240D01*
G02X-6520Y544380I-1000J0D01*
G03Y522420I6520J-10980D01*
G02X-6030Y521560I-510J-860D01*
G01Y519840D01*
G02X-6520Y518980I-1000J0D01*
G03X-8870Y498810I6519J-10981D01*
G01X-8640Y498590D01*
X-8510Y498010D01*
X-9330Y496000D01*
G02X-10250Y495370I-928J368D01*
G01X-11770D01*
G03X-12770Y494370I0J-1000D01*
G01Y470830D01*
G03X-11770Y469830I1000J0D01*
G01X-10250D01*
G02X-9330Y469200I-8J-998D01*
G01X-8510Y467190D01*
X-8640Y466610D01*
X-8870Y466390D01*
G03X-6520Y446220I8869J-9189D01*
G02X-6030Y445360I-510J-860D01*
G01Y443640D01*
G02X-6520Y442780I-1000J0D01*
G03Y420820I6520J-10980D01*
G02X-6030Y419960I-510J-860D01*
G01Y418240D01*
G02X-6520Y417380I-1000J0D01*
G03Y395420I6520J-10980D01*
G02X-6030Y394560I-510J-860D01*
G01Y392840D01*
G02X-6520Y391980I-1000J0D01*
G03Y370020I6520J-10980D01*
G02X-6030Y369160I-510J-860D01*
G01Y367440D01*
G02X-6520Y366580I-1000J0D01*
G03Y344620I6520J-10980D01*
G02X-6030Y343760I-510J-860D01*
G01Y342040D01*
G02X-6520Y341180I-1000J0D01*
G03Y319220I6520J-10980D01*
G02X-6030Y318360I-510J-860D01*
G01Y316640D01*
G02X-6520Y315780I-1000J0D01*
G03Y293820I6520J-10980D01*
G02X-6030Y292960I-510J-860D01*
G01Y291240D01*
G02X-6520Y290380I-1000J0D01*
G03Y268420I6520J-10980D01*
G02X-6030Y267560I-510J-860D01*
G01Y265840D01*
G02X-6520Y264980I-1000J0D01*
G03X-8870Y244810I6519J-10981D01*
G01X-8640Y244590D01*
X-8510Y244010D01*
X-9330Y242000D01*
G02X-10250Y241370I-928J368D01*
G01X-11770D01*
G03X-12770Y240370I0J-1000D01*
G01Y216830D01*
G03X-11770Y215830I1000J0D01*
G01X-10250D01*
G02X-9330Y215200I-8J-998D01*
G01X-8510Y213190D01*
X-8640Y212610D01*
X-8870Y212390D01*
G03X-6520Y192220I8869J-9189D01*
G02X-6030Y191360I-510J-860D01*
G01Y189640D01*
G02X-6520Y188780I-1000J0D01*
G03Y166820I6520J-10980D01*
G02X-6030Y165960I-510J-860D01*
G01Y164240D01*
G02X-6520Y163380I-1000J0D01*
G03Y141420I6520J-10980D01*
G02X-6030Y140560I-510J-860D01*
G01Y138840D01*
G02X-6520Y137980I-1000J0D01*
G03Y116020I6520J-10980D01*
G02X-6030Y115160I-510J-860D01*
G01Y113440D01*
G02X-6520Y112580I-1000J0D01*
G03Y90620I6520J-10980D01*
G02X-6030Y89760I-510J-860D01*
G01Y88040D01*
G02X-6520Y87180I-1000J0D01*
G03Y65220I6520J-10980D01*
G02X-6030Y64360I-510J-860D01*
G01Y62640D01*
G02X-6520Y61780I-1000J0D01*
G03Y39820I6520J-10980D01*
G02X-6030Y38960I-510J-860D01*
G01Y37240D01*
G02X-6520Y36380I-1000J0D01*
G03X-8870Y16210I6519J-10981D01*
G01X-8640Y15990D01*
X-8510Y15410D01*
X-9330Y13400D01*
G02X-10250Y12770I-928J368D01*
G01X-11770D01*
G03X-12770Y11770I0J-1000D01*
G01Y-11770D01*
G03X-11770Y-12770I1000J0D01*
G01X11770D01*
G03X12770Y-11770I0J1000D01*
G01Y11770D01*
G03X11770Y12770I-1000J0D01*
G01X10250D01*
G02X9330Y13400I8J998D01*
G01X8510Y15410D01*
X8640Y15990D01*
X8870Y16210D01*
G03X11600Y30740I-8870J9188D01*
G01X11470Y31030D01*
X11580Y31640D01*
X12440Y32500D01*
G02X16840Y34330I4410J-4398D01*
G01X17390D01*
G02X18390Y33330I0J-1000D01*
G01Y33130D01*
X18240Y32770D01*
X18100Y32630D01*
G03X33870Y31200I7294J-7230D01*
G01X33710Y31430D01*
X33680Y31980D01*
X34640Y33800D01*
G02X35530Y34330I883J-471D01*
G01X37760D01*
G02X38610Y33850I-4J-1000D01*
G01X39630Y32150D01*
X39650Y31630D01*
X39520Y31390D01*
G03X41930Y16210I11279J-5991D01*
G01X42160Y15990D01*
X42290Y15410D01*
X41470Y13400D01*
G02X40550Y12770I-928J368D01*
G01X39030D01*
G03X38030Y11770I0J-1000D01*
G01Y-11770D01*
G03X39030Y-12770I1000J0D01*
G01X62570D01*
G03X63570Y-11770I0J1000D01*
G01Y11770D01*
G03X62570Y12770I-1000J0D01*
G01X61050D01*
G02X60130Y13400I8J998D01*
G01X59310Y15410D01*
X59440Y15990D01*
X59670Y16210D01*
G03X63010Y21660I-8872J9186D01*
G02X63650Y22320I959J-289D01*
G03X69100Y25660I-4274J13091D01*
G01X133090Y89650D01*
G03X137120Y99390I-9742J9735D01*
G01Y122570D01*
G02X138120Y123570I1000J0D01*
G01X158820D01*
G03X159820Y124570I0J1000D01*
G01Y141820D01*
G02X160820Y142820I1000J0D01*
G01X176800D01*
G02X177800Y141820I0J-1000D01*
G01Y89900D01*
G03X178800Y88900I1000J0D01*
G01X215490D01*
G02X216190Y88610I-4J-1000D01*
G01X272760Y32040D01*
G02X273050Y31340I-710J-704D01*
G01Y-87900D01*
G02X272050Y-88900I-1000J0D01*
G01X-43420D01*
G02X-44420Y-87900I0J1000D01*
G37*
G36*
G01X105370Y522630D02*
Y608000D01*
G02X107200Y612400I6228J-10D01*
G01X130580Y635790D01*
G02X131670Y636000I702J-712D01*
G01X131950Y635890D01*
X132280Y635390D01*
Y632570D01*
G03X133280Y631570I1000J0D01*
G01X158820D01*
G03X159820Y632570I0J1000D01*
G01Y649820D01*
G02X160820Y650820I1000J0D01*
G01X176800D01*
G02X177800Y649820I0J-1000D01*
G01Y612460D01*
G02X176800Y611460I-1000J0D01*
G01X172070D01*
G02X171200Y611970I2J1001D01*
G03X168900Y615090I-13949J-7875D01*
G02X168650Y615600I736J677D01*
G03X154190Y611650I-7396J-1367D01*
G01X154280Y611410D01*
X154220Y610940D01*
X153130Y609390D01*
G02X152310Y608960I-821J569D01*
G01X143230D01*
G03X142230Y607960I0J-1000D01*
G01Y590920D01*
G03X143230Y589920I1000J0D01*
G01X155730D01*
G02X156730Y588920I0J-1000D01*
G01Y588000D01*
X157310Y587420D01*
X157430D01*
Y581010D01*
G02X156430Y580010I-1000J0D01*
G01X133280D01*
G03X132280Y579010I0J-1000D01*
G01Y560970D01*
G03X133280Y559970I1000J0D01*
G01X156880D01*
X157140Y559710D01*
G03X157840Y559420I704J710D01*
G01X158930D01*
G02X159930Y558420I0J-1000D01*
G01Y551010D01*
G02X158930Y550010I-1000J0D01*
G01X133280D01*
G03X132280Y549010I0J-1000D01*
G01Y543890D01*
X131870Y543360D01*
X131540Y543270D01*
G03X125450Y539730I3646J-13282D01*
G01X108210Y522490D01*
G03X107580Y521810I9783J-9696D01*
G02X106500Y521520I-755J656D01*
G01X106040Y521680D01*
G02X105370Y522630I331J945D01*
G37*
G36*
G01X99020Y617880D02*
Y703250D01*
G02X100850Y707650I6228J-10D01*
G01X130580Y737390D01*
G02X131670Y737600I702J-712D01*
G01X131950Y737490D01*
X132280Y736990D01*
Y734170D01*
G03X133280Y733170I1000J0D01*
G01X158820D01*
G03X159820Y734170I0J1000D01*
G01Y751420D01*
G02X160820Y752420I1000J0D01*
G01X176800D01*
G02X177800Y751420I0J-1000D01*
G01Y714060D01*
G02X176800Y713060I-1000J0D01*
G01X173190D01*
G02X172250Y713710I-2J1002D01*
G03X168900Y719090I-15003J-5609D01*
G02X168650Y719600I736J677D01*
G03X156380Y712510I-7397J-1361D01*
G01X156550Y712370D01*
X156730Y711970D01*
Y711560D01*
G02X155730Y710560I-1000J0D01*
G01X143230D01*
G03X142230Y709560I0J-1000D01*
G01Y692520D01*
G03X143230Y691520I1000J0D01*
G01X155730D01*
G02X156730Y690520I0J-1000D01*
G01Y689600D01*
X157310Y689020D01*
X157430D01*
Y682610D01*
G02X156430Y681610I-1000J0D01*
G01X133280D01*
G03X132280Y680610I0J-1000D01*
G01Y662570D01*
G03X133280Y661570I1000J0D01*
G01X156880D01*
X157140Y661310D01*
G03X157840Y661020I704J710D01*
G01X158930D01*
G02X159930Y660020I0J-1000D01*
G01Y652610D01*
G02X158930Y651610I-1000J0D01*
G01X133280D01*
G03X132280Y650610I0J-1000D01*
G01Y645490D01*
X131870Y644960D01*
X131540Y644870D01*
G03X125450Y641330I3646J-13282D01*
G01X101860Y617740D01*
G03X101230Y617060I9783J-9696D01*
G02X100150Y616770I-755J656D01*
G01X99690Y616930D01*
G02X99020Y617880I331J945D01*
G37*
G36*
G01X92670Y713130D02*
Y798500D01*
G02X94500Y802900I6228J-10D01*
G01X130580Y838990D01*
G02X131670Y839200I702J-712D01*
G01X131950Y839090D01*
X132280Y838590D01*
Y835770D01*
G03X133280Y834770I1000J0D01*
G01X158820D01*
G03X159820Y835770I0J1000D01*
G01Y853020D01*
G02X160820Y854020I1000J0D01*
G01X176800D01*
G02X177800Y853020I0J-1000D01*
G01Y815660D01*
G02X176800Y814660I-1000J0D01*
G01X172500D01*
G02X171600Y815220I-2J1000D01*
G03X168900Y819090I-14344J-7131D01*
G02X168650Y819600I736J677D01*
G03X154460Y815020I-7396J-1357D01*
G01X154570Y814780D01*
X154540Y814270D01*
X153490Y812630D01*
G02X152650Y812160I-847J528D01*
G01X143230D01*
G03X142230Y811160I0J-1000D01*
G01Y794120D01*
G03X143230Y793120I1000J0D01*
G01X155730D01*
G02X156730Y792120I0J-1000D01*
G01Y791200D01*
X157310Y790620D01*
X157430D01*
Y784210D01*
G02X156430Y783210I-1000J0D01*
G01X133280D01*
G03X132280Y782210I0J-1000D01*
G01Y764170D01*
G03X133280Y763170I1000J0D01*
G01X156880D01*
X157140Y762910D01*
G03X157840Y762620I704J710D01*
G01X158930D01*
G02X159930Y761620I0J-1000D01*
G01Y754210D01*
G02X158930Y753210I-1000J0D01*
G01X133280D01*
G03X132280Y752210I0J-1000D01*
G01Y747090D01*
X131870Y746560D01*
X131540Y746470D01*
G03X125450Y742930I3646J-13282D01*
G01X95510Y712990D01*
G03X94880Y712310I9783J-9696D01*
G02X93800Y712020I-755J656D01*
G01X93340Y712180D01*
G02X92670Y713130I331J945D01*
G37*
G36*
G01X86320Y808380D02*
Y1081710D01*
G02X88150Y1086110I6228J-10D01*
G01X126740Y1124700D01*
G03X130770Y1134440I-9742J9735D01*
G01Y1195720D01*
G02X131770Y1196720I1000J0D01*
G01X158820D01*
G03X159820Y1197720I0J1000D01*
G01Y1214970D01*
G02X160820Y1215970I1000J0D01*
G01X176800D01*
G02X177800Y1214970I0J-1000D01*
G01Y917260D01*
G02X176800Y916260I-1000J0D01*
G01X172690D01*
G02X171780Y916840I-2J1001D01*
G03X168900Y921090I-14529J-6745D01*
G02X168650Y921600I736J677D01*
G03X154610Y916700I-7397J-1369D01*
G01X154740Y916470D01*
X154730Y915940D01*
X153710Y914250D01*
G02X152850Y913760I-860J510D01*
G01X143230D01*
G03X142230Y912760I0J-1000D01*
G01Y895720D01*
G03X143230Y894720I1000J0D01*
G01X155730D01*
G02X156730Y893720I0J-1000D01*
G01Y892800D01*
X157310Y892220D01*
X157430D01*
Y885810D01*
G02X156430Y884810I-1000J0D01*
G01X133280D01*
G03X132280Y883810I0J-1000D01*
G01Y865770D01*
G03X133280Y864770I1000J0D01*
G01X156880D01*
X157140Y864510D01*
G03X157840Y864220I704J710D01*
G01X158930D01*
G02X159930Y863220I0J-1000D01*
G01Y855810D01*
G02X158930Y854810I-1000J0D01*
G01X133280D01*
G03X132280Y853810I0J-1000D01*
G01Y848690D01*
X131870Y848160D01*
X131540Y848070D01*
G03X125450Y844530I3646J-13282D01*
G01X89160Y808240D01*
G03X88530Y807560I9783J-9696D01*
G02X87450Y807270I-755J656D01*
G01X86990Y807430D01*
G02X86320Y808380I331J945D01*
G37*
G36*
G01X130770Y174610D02*
Y224170D01*
G02X131770Y225170I1000J0D01*
G01X158820D01*
G03X159820Y226170I0J1000D01*
G01Y243420D01*
G02X160820Y244420I1000J0D01*
G01X176800D01*
G02X177800Y243420I0J-1000D01*
G01Y206060D01*
G02X176800Y205060I-1000J0D01*
G01X170700D01*
G02X169950Y205400I1J999D01*
G01X168810Y206690D01*
X168680Y207090D01*
X168710Y207310D01*
G03X154310Y205330I-7464J927D01*
G01X154410Y205100D01*
X154370Y204610D01*
X153300Y203010D01*
G02X152470Y202560I-834J548D01*
G01X143230D01*
G03X142230Y201560I0J-1000D01*
G01Y184520D01*
G03X143230Y183520I1000J0D01*
G01X155730D01*
G02X156730Y182520I0J-1000D01*
G01Y181600D01*
X157310Y181020D01*
X157430D01*
Y174610D01*
G02X156430Y173610I-1000J0D01*
G01X131770D01*
G02X130770Y174610I0J1000D01*
G37*
G36*
G01X126780Y236700D02*
X124960Y237660D01*
G02X124420Y238540I458J887D01*
G01Y322250D01*
G02X126250Y326650I6228J-10D01*
G01X130580Y330990D01*
G02X131670Y331200I702J-712D01*
G01X131950Y331090D01*
X132280Y330590D01*
Y327770D01*
G03X133280Y326770I1000J0D01*
G01X158820D01*
G03X159820Y327770I0J1000D01*
G01Y345020D01*
G02X160820Y346020I1000J0D01*
G01X176800D01*
G02X177800Y345020I0J-1000D01*
G01Y307660D01*
G02X176800Y306660I-1000J0D01*
G01X171330D01*
G02X170500Y307100I-1J1000D01*
G03X169020Y308970I-13267J-8980D01*
G02X168760Y309580I736J674D01*
G03X154110Y306780I-7507J-450D01*
G01X154180Y306560D01*
X154110Y306080D01*
X153020Y304570D01*
G02X152210Y304160I-808J592D01*
G01X143230D01*
G03X142230Y303160I0J-1000D01*
G01Y286120D01*
G03X143230Y285120I1000J0D01*
G01X155730D01*
G02X156730Y284120I0J-1000D01*
G01Y283200D01*
X157310Y282620D01*
X157430D01*
Y276210D01*
G02X156430Y275210I-1000J0D01*
G01X133280D01*
G03X132280Y274210I0J-1000D01*
G01Y256170D01*
G03X133280Y255170I1000J0D01*
G01X156880D01*
X157140Y254910D01*
G03X157840Y254620I704J710D01*
G01X158930D01*
G02X159930Y253620I0J-1000D01*
G01Y246210D01*
G02X158930Y245210I-1000J0D01*
G01X133280D01*
G03X132280Y244210I0J-1000D01*
G01Y239160D01*
X131830Y238610D01*
X131470Y238540D01*
G03X127560Y236900I1872J-9944D01*
G01X127330Y236740D01*
X126780Y236700D01*
G37*
G36*
G01X118070Y332130D02*
Y417500D01*
G02X119900Y421900I6228J-10D01*
G01X130580Y432590D01*
G02X131670Y432800I702J-712D01*
G01X131950Y432690D01*
X132280Y432190D01*
Y429370D01*
G03X133280Y428370I1000J0D01*
G01X158820D01*
G03X159820Y429370I0J1000D01*
G01Y446620D01*
G02X160820Y447620I1000J0D01*
G01X176800D01*
G02X177800Y446620I0J-1000D01*
G01Y409260D01*
G02X176800Y408260I-1000J0D01*
G01X172690D01*
G02X171780Y408840I-2J1001D01*
G03X168900Y413090I-14529J-6745D01*
G02X168650Y413600I736J677D01*
G03X154610Y408700I-7397J-1369D01*
G01X154740Y408470D01*
X154730Y407940D01*
X153710Y406250D01*
G02X152850Y405760I-860J510D01*
G01X143230D01*
G03X142230Y404760I0J-1000D01*
G01Y387720D01*
G03X143230Y386720I1000J0D01*
G01X155730D01*
G02X156730Y385720I0J-1000D01*
G01Y384800D01*
X157310Y384220D01*
X157430D01*
Y377810D01*
G02X156430Y376810I-1000J0D01*
G01X133280D01*
G03X132280Y375810I0J-1000D01*
G01Y357770D01*
G03X133280Y356770I1000J0D01*
G01X156880D01*
X157140Y356510D01*
G03X157840Y356220I704J710D01*
G01X158930D01*
G02X159930Y355220I0J-1000D01*
G01Y347810D01*
G02X158930Y346810I-1000J0D01*
G01X133280D01*
G03X132280Y345810I0J-1000D01*
G01Y340690D01*
X131870Y340160D01*
X131540Y340070D01*
G03X125450Y336530I3646J-13282D01*
G01X120910Y331990D01*
G03X120280Y331310I9783J-9696D01*
G02X119200Y331020I-755J656D01*
G01X118740Y331180D01*
G02X118070Y332130I331J945D01*
G37*
G36*
G01X111720Y427380D02*
Y512750D01*
G02X113550Y517150I6228J-10D01*
G01X130580Y534190D01*
G02X131670Y534400I702J-712D01*
G01X131950Y534290D01*
X132280Y533790D01*
Y530970D01*
G03X133280Y529970I1000J0D01*
G01X158820D01*
G03X159820Y530970I0J1000D01*
G01Y548220D01*
G02X160820Y549220I1000J0D01*
G01X176800D01*
G02X177800Y548220I0J-1000D01*
G01Y510860D01*
G02X176800Y509860I-1000J0D01*
G01X171840D01*
G02X170980Y510350I0J1000D01*
G03X168920Y513070I-13727J-8256D01*
G02X168660Y513590I728J689D01*
G03X154110Y509980I-7410J-1260D01*
G01X154180Y509760D01*
X154110Y509280D01*
X153020Y507770D01*
G02X152210Y507360I-808J592D01*
G01X143230D01*
G03X142230Y506360I0J-1000D01*
G01Y489320D01*
G03X143230Y488320I1000J0D01*
G01X155730D01*
G02X156730Y487320I0J-1000D01*
G01Y486400D01*
X157310Y485820D01*
X157430D01*
Y479410D01*
G02X156430Y478410I-1000J0D01*
G01X133280D01*
G03X132280Y477410I0J-1000D01*
G01Y459370D01*
G03X133280Y458370I1000J0D01*
G01X156880D01*
X157140Y458110D01*
G03X157840Y457820I704J710D01*
G01X158930D01*
G02X159930Y456820I0J-1000D01*
G01Y449410D01*
G02X158930Y448410I-1000J0D01*
G01X133280D01*
G03X132280Y447410I0J-1000D01*
G01Y442290D01*
X131870Y441760D01*
X131540Y441670D01*
G03X125450Y438130I3646J-13282D01*
G01X114560Y427240D01*
G03X113930Y426560I9783J-9696D01*
G02X112850Y426270I-755J656D01*
G01X112390Y426430D01*
G02X111720Y427380I331J945D01*
G37*
G36*
G01X126800Y1208400D02*
X124960Y1209350D01*
G02X124420Y1210240I461J889D01*
G01Y1293310D01*
Y1293320D01*
G02X124830Y1294290I1388J-15D01*
G01Y1294300D01*
X130580Y1300050D01*
G02X131670Y1300260I702J-712D01*
G01X131950Y1300150D01*
X132280Y1299650D01*
Y1299320D01*
G03X133280Y1298320I1000J0D01*
G01X158820D01*
G03X159820Y1299320I0J1000D01*
G01Y1316570D01*
G02X160820Y1317570I1000J0D01*
G01X176800D01*
G02X177800Y1316570I0J-1000D01*
G01Y1279210D01*
G02X176800Y1278210I-1000J0D01*
G01X171630D01*
G02X170780Y1278670I-8J1001D01*
G03X168980Y1281010I-13543J-8556D01*
G02X168720Y1281570I732J680D01*
G03X154110Y1278330I-7467J-889D01*
G01X154180Y1278110D01*
X154110Y1277630D01*
X153020Y1276120D01*
G02X152210Y1275710I-808J592D01*
G01X143230D01*
G03X142230Y1274710I0J-1000D01*
G01Y1257670D01*
G03X143230Y1256670I1000J0D01*
G01X155730D01*
G02X156730Y1255670I0J-1000D01*
G01Y1254750D01*
X157310Y1254170D01*
X157430D01*
Y1247760D01*
G02X156430Y1246760I-1000J0D01*
G01X133280D01*
G03X132280Y1245760I0J-1000D01*
G01Y1227720D01*
G03X133280Y1226720I1000J0D01*
G01X156880D01*
X157140Y1226460D01*
G03X157840Y1226170I704J710D01*
G01X158930D01*
G02X159930Y1225170I0J-1000D01*
G01Y1217760D01*
G02X158930Y1216760I-1000J0D01*
G01X133280D01*
G03X132280Y1215760I0J-1000D01*
G01Y1210930D01*
X131830Y1210370D01*
X131480Y1210300D01*
G03X127580Y1208610I2061J-10100D01*
G01X127340Y1208440D01*
X126800Y1208400D01*
G37*
G36*
G01X118070Y1300300D02*
Y1386560D01*
G02X119900Y1390960I6228J-10D01*
G01X130580Y1401650D01*
G02X131670Y1401860I702J-712D01*
G01X131950Y1401750D01*
X132280Y1401250D01*
Y1400920D01*
G03X133280Y1399920I1000J0D01*
G01X158820D01*
G03X159820Y1400920I0J1000D01*
G01Y1418170D01*
G02X160820Y1419170I1000J0D01*
G01X176800D01*
G02X177800Y1418170I0J-1000D01*
G01Y1380810D01*
G02X176800Y1379810I-1000J0D01*
G01X173260D01*
X172740Y1380200D01*
X172640Y1380530D01*
G03X168900Y1387090I-15393J-4430D01*
G02X168650Y1387600I736J677D01*
G03X156380Y1380510I-7397J-1361D01*
G02X156730Y1379750I-650J-760D01*
G01Y1378310D01*
G02X155730Y1377310I-1000J0D01*
G01X143230D01*
G03X142230Y1376310I0J-1000D01*
G01Y1359270D01*
G03X143230Y1358270I1000J0D01*
G01X155730D01*
G02X156730Y1357270I0J-1000D01*
G01Y1356350D01*
X157310Y1355770D01*
X157430D01*
Y1349360D01*
G02X156430Y1348360I-1000J0D01*
G01X133280D01*
G03X132280Y1347360I0J-1000D01*
G01Y1329320D01*
G03X133280Y1328320I1000J0D01*
G01X156880D01*
X157140Y1328060D01*
G03X157840Y1327770I704J710D01*
G01X158930D01*
G02X159930Y1326770I0J-1000D01*
G01Y1319360D01*
G02X158930Y1318360I-1000J0D01*
G01X133280D01*
G03X132280Y1317360I0J-1000D01*
G01Y1311650D01*
G02X131710Y1310750I-999J2D01*
G03X127940Y1308080I5962J-12415D01*
G01X119770Y1299900D01*
G02X118680Y1299690I-702J712D01*
G01X118400Y1299800D01*
X118070Y1300300D01*
G37*
G36*
G01X336820Y131540D02*
Y152940D01*
G02X338820Y154940I2000J0D01*
G01X404330D01*
G02X406330Y152940I0J-2000D01*
G01Y131540D01*
G02X404330Y129540I-2000J0D01*
G01X338820D01*
G02X336820Y131540I0J2000D01*
G37*
G36*
G01X311150D02*
Y152940D01*
G02X313150Y154940I2000J0D01*
G01X318780D01*
G02X320780Y152940I0J-2000D01*
G01Y131540D01*
G02X318780Y129540I-2000J0D01*
G01X313150D01*
G02X311150Y131540I0J2000D01*
G37*
G36*
G01X552770D02*
Y165960D01*
G03X550770Y167960I-2000J0D01*
G01X541570D01*
G02X539570Y169960I0J2000D01*
G01Y184060D01*
G03X537570Y186060I-2000J0D01*
G01X514320D01*
G02X512320Y188060I0J2000D01*
G01Y192310D01*
G03X510320Y194310I-2000J0D01*
G01X480280D01*
G03X478280Y192310I0J-2000D01*
G01Y178270D01*
G03X480280Y176270I2000J0D01*
G01X512530D01*
G02X514530Y174270I0J-2000D01*
G01Y169960D01*
G02X512530Y167960I-2000J0D01*
G01X434870D01*
G02X432870Y169960I0J2000D01*
G01Y194560D01*
G03X430870Y196560I-2000J0D01*
G01X407330D01*
G03X405330Y194560I0J-2000D01*
G01Y169960D01*
G02X403330Y167960I-2000J0D01*
G01X347320D01*
G02X345320Y169960I0J2000D01*
G01Y171110D01*
G03X343320Y173110I-2000J0D01*
G01X315640D01*
X314490Y174190D01*
X314440Y174990D01*
Y175010D01*
X314410Y175430D01*
X314690Y176210D01*
X316970Y178640D01*
G02X318430Y179270I1457J-1370D01*
G01X338070D01*
G03X340070Y181270I0J2000D01*
G01Y183770D01*
G02X342070Y185770I2000J0D01*
G01X342670D01*
X343650Y185130D01*
X343900Y184580D01*
G03X380210Y200210I18050J8060D01*
G01X380020Y200680D01*
X380120Y201660D01*
X382250Y204850D01*
G02X383910Y205740I1663J-1109D01*
G01X588230D01*
G02X590230Y203740I0J-2000D01*
G01Y184750D01*
G02X588230Y182750I-2000J0D01*
G01X580960D01*
G03Y166710I0J-8020D01*
G01X650960D01*
G03X653720Y167200I0J8018D01*
G01X654050Y167320D01*
X753650D01*
G02X755650Y165320I0J-2000D01*
G01Y131540D01*
G02X753650Y129540I-2000J0D01*
G01X554770D01*
G02X552770Y131540I0J2000D01*
G37*
G36*
G01X311150Y233140D02*
Y254540D01*
G02X313150Y256540I2000J0D01*
G01X318780D01*
G02X320780Y254540I0J-2000D01*
G01Y233140D01*
G02X318780Y231140I-2000J0D01*
G01X313150D01*
G02X311150Y233140I0J2000D01*
G37*
G36*
G01X552770D02*
Y267560D01*
G03X550770Y269560I-2000J0D01*
G01X540570D01*
G02X538570Y271560I0J2000D01*
G01Y284660D01*
G03X536570Y286660I-2000J0D01*
G01X517530D01*
G03X515530Y284660I0J-2000D01*
G01Y271560D01*
G02X513530Y269560I-2000J0D01*
G01X446570D01*
G02X444570Y271560I0J2000D01*
G01Y295160D01*
G03X442570Y297160I-2000J0D01*
G01X421030D01*
G03X419030Y295160I0J-2000D01*
G01Y271560D01*
G02X417030Y269560I-2000J0D01*
G01X346320D01*
G02X344320Y271560I0J2000D01*
G01Y271710D01*
G03X342320Y273710I-2000J0D01*
G01X314640D01*
X313480Y274870D01*
X313470Y275700D01*
G03X313360Y277390I-15019J-129D01*
G01X313310Y277820D01*
X313570Y278640D01*
X315840Y281200D01*
G02X317330Y281870I1494J-1330D01*
G01X337580D01*
G02X339580Y279870I0J-2000D01*
G01X340580Y278870D01*
X369620D01*
G03X371620Y280870I0J2000D01*
G01Y292910D01*
G03X369620Y294910I-2000J0D01*
G01X341070D01*
G02X339070Y296910I0J2000D01*
G01Y305340D01*
G02X341070Y307340I2000J0D01*
G01X466990D01*
G02X468650Y306450I-3J-1999D01*
G01X470780Y303260D01*
X470880Y302280D01*
X470690Y301810D01*
G03X507210I18260J-7570D01*
G01X507020Y302280D01*
X507120Y303260D01*
X509250Y306450D01*
G02X510910Y307340I1663J-1109D01*
G01X588230D01*
G02X590230Y305340I0J-2000D01*
G01Y270920D01*
G03X592230Y268920I2000J0D01*
G01X704870D01*
X705200Y268800D01*
G03X707960Y268310I2760J7528D01*
G01X753650D01*
G02X755650Y266310I0J-2000D01*
G01Y233140D01*
G02X753650Y231140I-2000J0D01*
G01X554770D01*
G02X552770Y233140I0J2000D01*
G37*
G36*
G01X371620D02*
Y244910D01*
G03X369620Y246910I-2000J0D01*
G01X338820D01*
G02X336820Y248910I0J2000D01*
G01Y254540D01*
G02X338820Y256540I2000J0D01*
G01X417030D01*
G02X419030Y254540I0J-2000D01*
G01Y233140D01*
G02X417030Y231140I-2000J0D01*
G01X411720D01*
G02X409720Y233140I0J2000D01*
G01Y244910D01*
G03X407720Y246910I-2000J0D01*
G01X379680D01*
G03X377680Y244910I0J-2000D01*
G01Y233140D01*
G02X375680Y231140I-2000J0D01*
G01X373620D01*
G02X371620Y233140I0J2000D01*
G37*
G36*
G01X552770Y334740D02*
Y369160D01*
G03X550770Y371160I-2000J0D01*
G01X541570D01*
G02X539570Y373160I0J2000D01*
G01Y387260D01*
G03X537570Y389260I-2000J0D01*
G01X514320D01*
G02X512320Y391260I0J2000D01*
G01Y395510D01*
G03X510320Y397510I-2000J0D01*
G01X480280D01*
G03X478280Y395510I0J-2000D01*
G01Y381470D01*
G03X480280Y379470I2000J0D01*
G01X512530D01*
G02X514530Y377470I0J-2000D01*
G01Y373160D01*
G02X512530Y371160I-2000J0D01*
G01X434870D01*
G02X432870Y373160I0J2000D01*
G01Y397760D01*
G03X430870Y399760I-2000J0D01*
G01X407330D01*
G03X405330Y397760I0J-2000D01*
G01Y373160D01*
G02X403330Y371160I-2000J0D01*
G01X347320D01*
G02X345320Y373160I0J2000D01*
G01Y374310D01*
G03X343320Y376310I-2000J0D01*
G01X315640D01*
X314490Y377390D01*
X314440Y378190D01*
Y378210D01*
X314410Y378630D01*
X314690Y379410D01*
X316970Y381840D01*
G02X318430Y382470I1457J-1370D01*
G01X338070D01*
G03X340070Y384470I0J2000D01*
G01Y386970D01*
G02X342070Y388970I2000J0D01*
G01X342670D01*
X343650Y388330D01*
X343900Y387780D01*
G03X380210Y403410I18050J8060D01*
G01X380020Y403880D01*
X380120Y404860D01*
X382250Y408050D01*
G02X383910Y408940I1663J-1109D01*
G01X588230D01*
G02X590230Y406940I0J-2000D01*
G01Y387950D01*
G02X588230Y385950I-2000J0D01*
G01X580960D01*
G03Y369910I0J-8020D01*
G01X650960D01*
G03X653720Y370400I0J8018D01*
G01X654050Y370520D01*
X753650D01*
G02X755650Y368520I0J-2000D01*
G01Y334740D01*
G02X753650Y332740I-2000J0D01*
G01X554770D01*
G02X552770Y334740I0J2000D01*
G37*
G36*
G01X336820D02*
Y356140D01*
G02X338820Y358140I2000J0D01*
G01X404330D01*
G02X406330Y356140I0J-2000D01*
G01Y334740D01*
G02X404330Y332740I-2000J0D01*
G01X338820D01*
G02X336820Y334740I0J2000D01*
G37*
G36*
G01X311150D02*
Y356140D01*
G02X313150Y358140I2000J0D01*
G01X318780D01*
G02X320780Y356140I0J-2000D01*
G01Y334740D01*
G02X318780Y332740I-2000J0D01*
G01X313150D01*
G02X311150Y334740I0J2000D01*
G37*
G36*
G01X371620Y436340D02*
Y448110D01*
G03X369620Y450110I-2000J0D01*
G01X338820D01*
G02X336820Y452110I0J2000D01*
G01Y457740D01*
G02X338820Y459740I2000J0D01*
G01X417030D01*
G02X419030Y457740I0J-2000D01*
G01Y436340D01*
G02X417030Y434340I-2000J0D01*
G01X411720D01*
G02X409720Y436340I0J2000D01*
G01Y448110D01*
G03X407720Y450110I-2000J0D01*
G01X379680D01*
G03X377680Y448110I0J-2000D01*
G01Y436340D01*
G02X375680Y434340I-2000J0D01*
G01X373620D01*
G02X371620Y436340I0J2000D01*
G37*
G36*
G01X311150D02*
Y457740D01*
G02X313150Y459740I2000J0D01*
G01X318780D01*
G02X320780Y457740I0J-2000D01*
G01Y436340D01*
G02X318780Y434340I-2000J0D01*
G01X313150D01*
G02X311150Y436340I0J2000D01*
G37*
G36*
G01X552770D02*
Y470760D01*
G03X550770Y472760I-2000J0D01*
G01X540570D01*
G02X538570Y474760I0J2000D01*
G01Y487860D01*
G03X536570Y489860I-2000J0D01*
G01X517530D01*
G03X515530Y487860I0J-2000D01*
G01Y474760D01*
G02X513530Y472760I-2000J0D01*
G01X446570D01*
G02X444570Y474760I0J2000D01*
G01Y498360D01*
G03X442570Y500360I-2000J0D01*
G01X421030D01*
G03X419030Y498360I0J-2000D01*
G01Y474760D01*
G02X417030Y472760I-2000J0D01*
G01X346320D01*
G02X344320Y474760I0J2000D01*
G01Y474910D01*
G03X342320Y476910I-2000J0D01*
G01X314640D01*
X313480Y478070D01*
X313470Y478900D01*
G03X313360Y480590I-15019J-129D01*
G01X313310Y481020D01*
X313570Y481840D01*
X315840Y484400D01*
G02X317330Y485070I1494J-1330D01*
G01X337580D01*
G02X339580Y483070I0J-2000D01*
G01X340580Y482070D01*
X369620D01*
G03X371620Y484070I0J2000D01*
G01Y496110D01*
G03X369620Y498110I-2000J0D01*
G01X341070D01*
G02X339070Y500110I0J2000D01*
G01Y508540D01*
G02X341070Y510540I2000J0D01*
G01X466990D01*
G02X468650Y509650I-3J-1999D01*
G01X470780Y506460D01*
X470880Y505480D01*
X470690Y505010D01*
G03X507210I18260J-7570D01*
G01X507020Y505480D01*
X507120Y506460D01*
X509250Y509650D01*
G02X510910Y510540I1663J-1109D01*
G01X588230D01*
G02X590230Y508540I0J-2000D01*
G01Y474120D01*
G03X592230Y472120I2000J0D01*
G01X704870D01*
X705200Y472000D01*
G03X707960Y471510I2760J7528D01*
G01X753650D01*
G02X755650Y469510I0J-2000D01*
G01Y436340D01*
G02X753650Y434340I-2000J0D01*
G01X554770D01*
G02X552770Y436340I0J2000D01*
G37*
G36*
G01X336820Y537940D02*
Y559340D01*
G02X338820Y561340I2000J0D01*
G01X404330D01*
G02X406330Y559340I0J-2000D01*
G01Y537940D01*
G02X404330Y535940I-2000J0D01*
G01X338820D01*
G02X336820Y537940I0J2000D01*
G37*
G36*
G01X311150D02*
Y559340D01*
G02X313150Y561340I2000J0D01*
G01X318780D01*
G02X320780Y559340I0J-2000D01*
G01Y537940D01*
G02X318780Y535940I-2000J0D01*
G01X313150D01*
G02X311150Y537940I0J2000D01*
G37*
G36*
G01X552770D02*
Y572360D01*
G03X550770Y574360I-2000J0D01*
G01X541570D01*
G02X539570Y576360I0J2000D01*
G01Y590460D01*
G03X537570Y592460I-2000J0D01*
G01X514320D01*
G02X512320Y594460I0J2000D01*
G01Y598710D01*
G03X510320Y600710I-2000J0D01*
G01X480280D01*
G03X478280Y598710I0J-2000D01*
G01Y584670D01*
G03X480280Y582670I2000J0D01*
G01X512530D01*
G02X514530Y580670I0J-2000D01*
G01Y576360D01*
G02X512530Y574360I-2000J0D01*
G01X434870D01*
G02X432870Y576360I0J2000D01*
G01Y600960D01*
G03X430870Y602960I-2000J0D01*
G01X407330D01*
G03X405330Y600960I0J-2000D01*
G01Y576360D01*
G02X403330Y574360I-2000J0D01*
G01X347320D01*
G02X345320Y576360I0J2000D01*
G01Y577510D01*
G03X343320Y579510I-2000J0D01*
G01X315640D01*
X314490Y580590D01*
X314440Y581390D01*
Y581410D01*
X314410Y581830D01*
X314690Y582610D01*
X316970Y585040D01*
G02X318430Y585670I1457J-1370D01*
G01X338070D01*
G03X340070Y587670I0J2000D01*
G01Y590170D01*
G02X342070Y592170I2000J0D01*
G01X342670D01*
X343650Y591530D01*
X343900Y590980D01*
G03X380210Y606610I18050J8060D01*
G01X380020Y607080D01*
X380120Y608060D01*
X382250Y611250D01*
G02X383910Y612140I1663J-1109D01*
G01X588230D01*
G02X590230Y610140I0J-2000D01*
G01Y591150D01*
G02X588230Y589150I-2000J0D01*
G01X580960D01*
G03Y573110I0J-8020D01*
G01X650960D01*
G03X653720Y573600I0J8018D01*
G01X654050Y573720D01*
X753650D01*
G02X755650Y571720I0J-2000D01*
G01Y537940D01*
G02X753650Y535940I-2000J0D01*
G01X554770D01*
G02X552770Y537940I0J2000D01*
G37*
G36*
G01Y639540D02*
Y673960D01*
G03X550770Y675960I-2000J0D01*
G01X540570D01*
G02X538570Y677960I0J2000D01*
G01Y691060D01*
G03X536570Y693060I-2000J0D01*
G01X517530D01*
G03X515530Y691060I0J-2000D01*
G01Y677960D01*
G02X513530Y675960I-2000J0D01*
G01X446570D01*
G02X444570Y677960I0J2000D01*
G01Y701560D01*
G03X442570Y703560I-2000J0D01*
G01X421030D01*
G03X419030Y701560I0J-2000D01*
G01Y677960D01*
G02X417030Y675960I-2000J0D01*
G01X346320D01*
G02X344320Y677960I0J2000D01*
G01Y678110D01*
G03X342320Y680110I-2000J0D01*
G01X314640D01*
X313480Y681270D01*
X313470Y682100D01*
G03X313360Y683790I-15019J-129D01*
G01X313310Y684220D01*
X313570Y685040D01*
X315840Y687600D01*
G02X317330Y688270I1494J-1330D01*
G01X337580D01*
G02X339580Y686270I0J-2000D01*
G01X340580Y685270D01*
X369620D01*
G03X371620Y687270I0J2000D01*
G01Y699310D01*
G03X369620Y701310I-2000J0D01*
G01X341070D01*
G02X339070Y703310I0J2000D01*
G01Y711740D01*
G02X341070Y713740I2000J0D01*
G01X466990D01*
G02X468650Y712850I-3J-1999D01*
G01X470780Y709660D01*
X470880Y708680D01*
X470690Y708210D01*
G03X507210I18260J-7570D01*
G01X507020Y708680D01*
X507120Y709660D01*
X509250Y712850D01*
G02X510910Y713740I1663J-1109D01*
G01X588230D01*
G02X590230Y711740I0J-2000D01*
G01Y677320D01*
G03X592230Y675320I2000J0D01*
G01X704870D01*
X705200Y675200D01*
G03X707960Y674710I2760J7528D01*
G01X753650D01*
G02X755650Y672710I0J-2000D01*
G01Y639540D01*
G02X753650Y637540I-2000J0D01*
G01X554770D01*
G02X552770Y639540I0J2000D01*
G37*
G36*
G01X371620D02*
Y651310D01*
G03X369620Y653310I-2000J0D01*
G01X338820D01*
G02X336820Y655310I0J2000D01*
G01Y660940D01*
G02X338820Y662940I2000J0D01*
G01X417030D01*
G02X419030Y660940I0J-2000D01*
G01Y639540D01*
G02X417030Y637540I-2000J0D01*
G01X411720D01*
G02X409720Y639540I0J2000D01*
G01Y651310D01*
G03X407720Y653310I-2000J0D01*
G01X379680D01*
G03X377680Y651310I0J-2000D01*
G01Y639540D01*
G02X375680Y637540I-2000J0D01*
G01X373620D01*
G02X371620Y639540I0J2000D01*
G37*
G36*
G01X311150D02*
Y660940D01*
G02X313150Y662940I2000J0D01*
G01X318780D01*
G02X320780Y660940I0J-2000D01*
G01Y639540D01*
G02X318780Y637540I-2000J0D01*
G01X313150D01*
G02X311150Y639540I0J2000D01*
G37*
G36*
G01X336820Y741140D02*
Y762540D01*
G02X338820Y764540I2000J0D01*
G01X404330D01*
G02X406330Y762540I0J-2000D01*
G01Y741140D01*
G02X404330Y739140I-2000J0D01*
G01X338820D01*
G02X336820Y741140I0J2000D01*
G37*
G36*
G01X311150D02*
Y762540D01*
G02X313150Y764540I2000J0D01*
G01X318780D01*
G02X320780Y762540I0J-2000D01*
G01Y741140D01*
G02X318780Y739140I-2000J0D01*
G01X313150D01*
G02X311150Y741140I0J2000D01*
G37*
G36*
G01X552770D02*
Y775560D01*
G03X550770Y777560I-2000J0D01*
G01X541570D01*
G02X539570Y779560I0J2000D01*
G01Y793660D01*
G03X537570Y795660I-2000J0D01*
G01X514320D01*
G02X512320Y797660I0J2000D01*
G01Y801910D01*
G03X510320Y803910I-2000J0D01*
G01X480280D01*
G03X478280Y801910I0J-2000D01*
G01Y787870D01*
G03X480280Y785870I2000J0D01*
G01X512530D01*
G02X514530Y783870I0J-2000D01*
G01Y779560D01*
G02X512530Y777560I-2000J0D01*
G01X434870D01*
G02X432870Y779560I0J2000D01*
G01Y804160D01*
G03X430870Y806160I-2000J0D01*
G01X407330D01*
G03X405330Y804160I0J-2000D01*
G01Y779560D01*
G02X403330Y777560I-2000J0D01*
G01X347320D01*
G02X345320Y779560I0J2000D01*
G01Y780710D01*
G03X343320Y782710I-2000J0D01*
G01X315640D01*
X314490Y783790D01*
X314440Y784590D01*
Y784610D01*
X314410Y785030D01*
X314690Y785810D01*
X316970Y788240D01*
G02X318430Y788870I1457J-1370D01*
G01X338070D01*
G03X340070Y790870I0J2000D01*
G01Y793370D01*
G02X342070Y795370I2000J0D01*
G01X342670D01*
X343650Y794730D01*
X343900Y794180D01*
G03X380210Y809810I18050J8060D01*
G01X380020Y810280D01*
X380120Y811260D01*
X382250Y814450D01*
G02X383910Y815340I1663J-1109D01*
G01X588230D01*
G02X590230Y813340I0J-2000D01*
G01Y794350D01*
G02X588230Y792350I-2000J0D01*
G01X580960D01*
G03Y776310I0J-8020D01*
G01X650960D01*
G03X653720Y776800I0J8018D01*
G01X654050Y776920D01*
X753650D01*
G02X755650Y774920I0J-2000D01*
G01Y741140D01*
G02X753650Y739140I-2000J0D01*
G01X554770D01*
G02X552770Y741140I0J2000D01*
G37*
G36*
G01X311150Y842740D02*
Y864140D01*
G02X313150Y866140I2000J0D01*
G01X318780D01*
G02X320780Y864140I0J-2000D01*
G01Y842740D01*
G02X318780Y840740I-2000J0D01*
G01X313150D01*
G02X311150Y842740I0J2000D01*
G37*
G36*
G01X552770D02*
Y877160D01*
G03X550770Y879160I-2000J0D01*
G01X540570D01*
G02X538570Y881160I0J2000D01*
G01Y894260D01*
G03X536570Y896260I-2000J0D01*
G01X517530D01*
G03X515530Y894260I0J-2000D01*
G01Y881160D01*
G02X513530Y879160I-2000J0D01*
G01X446570D01*
G02X444570Y881160I0J2000D01*
G01Y904760D01*
G03X442570Y906760I-2000J0D01*
G01X421030D01*
G03X419030Y904760I0J-2000D01*
G01Y881160D01*
G02X417030Y879160I-2000J0D01*
G01X346320D01*
G02X344320Y881160I0J2000D01*
G01Y881310D01*
G03X342320Y883310I-2000J0D01*
G01X314640D01*
X313480Y884470D01*
X313470Y885300D01*
G03X313360Y886990I-15019J-129D01*
G01X313310Y887420D01*
X313570Y888240D01*
X315840Y890800D01*
G02X317330Y891470I1494J-1330D01*
G01X337580D01*
G02X339580Y889470I0J-2000D01*
G01X340580Y888470D01*
X369620D01*
G03X371620Y890470I0J2000D01*
G01Y902510D01*
G03X369620Y904510I-2000J0D01*
G01X341070D01*
G02X339070Y906510I0J2000D01*
G01Y914940D01*
G02X341070Y916940I2000J0D01*
G01X466990D01*
G02X468650Y916050I-3J-1999D01*
G01X470780Y912860D01*
X470880Y911880D01*
X470690Y911410D01*
G03X507210I18260J-7570D01*
G01X507020Y911880D01*
X507120Y912860D01*
X509250Y916050D01*
G02X510910Y916940I1663J-1109D01*
G01X588230D01*
G02X590230Y914940I0J-2000D01*
G01Y880520D01*
G03X592230Y878520I2000J0D01*
G01X704870D01*
X705200Y878400D01*
G03X707960Y877910I2760J7528D01*
G01X753650D01*
G02X755650Y875910I0J-2000D01*
G01Y842740D01*
G02X753650Y840740I-2000J0D01*
G01X554770D01*
G02X552770Y842740I0J2000D01*
G37*
G36*
G01X371620D02*
Y854510D01*
G03X369620Y856510I-2000J0D01*
G01X338820D01*
G02X336820Y858510I0J2000D01*
G01Y864140D01*
G02X338820Y866140I2000J0D01*
G01X417030D01*
G02X419030Y864140I0J-2000D01*
G01Y842740D01*
G02X417030Y840740I-2000J0D01*
G01X411720D01*
G02X409720Y842740I0J2000D01*
G01Y854510D01*
G03X407720Y856510I-2000J0D01*
G01X379680D01*
G03X377680Y854510I0J-2000D01*
G01Y842740D01*
G02X375680Y840740I-2000J0D01*
G01X373620D01*
G02X371620Y842740I0J2000D01*
G37*
G36*
G01X336820Y1204690D02*
Y1226090D01*
G02X338820Y1228090I2000J0D01*
G01X404330D01*
G02X406330Y1226090I0J-2000D01*
G01Y1204690D01*
G02X404330Y1202690I-2000J0D01*
G01X338820D01*
G02X336820Y1204690I0J2000D01*
G37*
G36*
G01X311150D02*
Y1226090D01*
G02X313150Y1228090I2000J0D01*
G01X318780D01*
G02X320780Y1226090I0J-2000D01*
G01Y1204690D01*
G02X318780Y1202690I-2000J0D01*
G01X313150D01*
G02X311150Y1204690I0J2000D01*
G37*
G36*
G01X552770D02*
Y1239110D01*
G03X550770Y1241110I-2000J0D01*
G01X541570D01*
G02X539570Y1243110I0J2000D01*
G01Y1257210D01*
G03X537570Y1259210I-2000J0D01*
G01X514320D01*
G02X512320Y1261210I0J2000D01*
G01Y1265460D01*
G03X510320Y1267460I-2000J0D01*
G01X480280D01*
G03X478280Y1265460I0J-2000D01*
G01Y1251420D01*
G03X480280Y1249420I2000J0D01*
G01X512530D01*
G02X514530Y1247420I0J-2000D01*
G01Y1243110D01*
G02X512530Y1241110I-2000J0D01*
G01X434870D01*
G02X432870Y1243110I0J2000D01*
G01Y1267710D01*
G03X430870Y1269710I-2000J0D01*
G01X407330D01*
G03X405330Y1267710I0J-2000D01*
G01Y1243110D01*
G02X403330Y1241110I-2000J0D01*
G01X347320D01*
G02X345320Y1243110I0J2000D01*
G01Y1244260D01*
G03X343320Y1246260I-2000J0D01*
G01X315640D01*
X314490Y1247340D01*
X314440Y1248140D01*
Y1248160D01*
X314410Y1248580D01*
X314690Y1249360D01*
X316970Y1251790D01*
G02X318430Y1252420I1457J-1370D01*
G01X338070D01*
G03X340070Y1254420I0J2000D01*
G01Y1256920D01*
G02X342070Y1258920I2000J0D01*
G01X342670D01*
X343650Y1258280D01*
X343900Y1257730D01*
G03X380210Y1273360I18050J8060D01*
G01X380020Y1273830D01*
X380120Y1274810D01*
X382250Y1278000D01*
G02X383910Y1278890I1663J-1109D01*
G01X588230D01*
G02X590230Y1276890I0J-2000D01*
G01Y1257900D01*
G02X588230Y1255900I-2000J0D01*
G01X580960D01*
G03Y1239860I0J-8020D01*
G01X650960D01*
G03X653720Y1240350I0J8018D01*
G01X654050Y1240470D01*
X753650D01*
G02X755650Y1238470I0J-2000D01*
G01Y1204690D01*
G02X753650Y1202690I-2000J0D01*
G01X554770D01*
G02X552770Y1204690I0J2000D01*
G37*
G36*
G01Y1306290D02*
Y1340710D01*
G03X550770Y1342710I-2000J0D01*
G01X540570D01*
G02X538570Y1344710I0J2000D01*
G01Y1357810D01*
G03X536570Y1359810I-2000J0D01*
G01X517530D01*
G03X515530Y1357810I0J-2000D01*
G01Y1344710D01*
G02X513530Y1342710I-2000J0D01*
G01X446570D01*
G02X444570Y1344710I0J2000D01*
G01Y1368310D01*
G03X442570Y1370310I-2000J0D01*
G01X421030D01*
G03X419030Y1368310I0J-2000D01*
G01Y1344710D01*
G02X417030Y1342710I-2000J0D01*
G01X346320D01*
G02X344320Y1344710I0J2000D01*
G01Y1344860D01*
G03X342320Y1346860I-2000J0D01*
G01X314640D01*
X313480Y1348020D01*
X313470Y1348850D01*
G03X313360Y1350540I-15019J-129D01*
G01X313310Y1350970D01*
X313570Y1351790D01*
X315840Y1354350D01*
G02X317330Y1355020I1494J-1330D01*
G01X337580D01*
G02X339580Y1353020I0J-2000D01*
G01X340580Y1352020D01*
X369620D01*
G03X371620Y1354020I0J2000D01*
G01Y1366060D01*
G03X369620Y1368060I-2000J0D01*
G01X341070D01*
G02X339070Y1370060I0J2000D01*
G01Y1378490D01*
G02X341070Y1380490I2000J0D01*
G01X466990D01*
G02X468650Y1379600I-3J-1999D01*
G01X470780Y1376410D01*
X470880Y1375430D01*
X470690Y1374960D01*
G03X507210I18260J-7570D01*
G01X507020Y1375430D01*
X507120Y1376410D01*
X509250Y1379600D01*
G02X510910Y1380490I1663J-1109D01*
G01X588230D01*
G02X590230Y1378490I0J-2000D01*
G01Y1344070D01*
G03X592230Y1342070I2000J0D01*
G01X704870D01*
X705200Y1341950D01*
G03X707960Y1341460I2760J7528D01*
G01X753650D01*
G02X755650Y1339460I0J-2000D01*
G01Y1306290D01*
G02X753650Y1304290I-2000J0D01*
G01X554770D01*
G02X552770Y1306290I0J2000D01*
G37*
G36*
G01X371620D02*
Y1318060D01*
G03X369620Y1320060I-2000J0D01*
G01X338820D01*
G02X336820Y1322060I0J2000D01*
G01Y1327690D01*
G02X338820Y1329690I2000J0D01*
G01X417030D01*
G02X419030Y1327690I0J-2000D01*
G01Y1306290D01*
G02X417030Y1304290I-2000J0D01*
G01X411720D01*
G02X409720Y1306290I0J2000D01*
G01Y1318060D01*
G03X407720Y1320060I-2000J0D01*
G01X379680D01*
G03X377680Y1318060I0J-2000D01*
G01Y1306290D01*
G02X375680Y1304290I-2000J0D01*
G01X373620D01*
G02X371620Y1306290I0J2000D01*
G37*
G36*
G01X311150D02*
Y1327690D01*
G02X313150Y1329690I2000J0D01*
G01X318780D01*
G02X320780Y1327690I0J-2000D01*
G01Y1306290D01*
G02X318780Y1304290I-2000J0D01*
G01X313150D01*
G02X311150Y1306290I0J2000D01*
G37*
G36*
G01X552770Y1407890D02*
Y1442310D01*
G03X550770Y1444310I-2000J0D01*
G01X541570D01*
G02X539570Y1446310I0J2000D01*
G01Y1460410D01*
G03X537570Y1462410I-2000J0D01*
G01X514320D01*
G02X512320Y1464410I0J2000D01*
G01Y1468660D01*
G03X510320Y1470660I-2000J0D01*
G01X480280D01*
G03X478280Y1468660I0J-2000D01*
G01Y1454620D01*
G03X480280Y1452620I2000J0D01*
G01X512530D01*
G02X514530Y1450620I0J-2000D01*
G01Y1446310D01*
G02X512530Y1444310I-2000J0D01*
G01X434870D01*
G02X432870Y1446310I0J2000D01*
G01Y1470910D01*
G03X430870Y1472910I-2000J0D01*
G01X407330D01*
G03X405330Y1470910I0J-2000D01*
G01Y1446310D01*
G02X403330Y1444310I-2000J0D01*
G01X347320D01*
G02X345320Y1446310I0J2000D01*
G01Y1447460D01*
G03X343320Y1449460I-2000J0D01*
G01X315640D01*
X314490Y1450540D01*
X314440Y1451340D01*
Y1451360D01*
X314410Y1451780D01*
X314690Y1452560D01*
X316970Y1454990D01*
G02X318430Y1455620I1457J-1370D01*
G01X338070D01*
G03X340070Y1457620I0J2000D01*
G01Y1460120D01*
G02X342070Y1462120I2000J0D01*
G01X342670D01*
X343650Y1461480D01*
X343900Y1460930D01*
G03X380210Y1476560I18050J8060D01*
G01X380020Y1477030D01*
X380120Y1478010D01*
X382250Y1481200D01*
G02X383910Y1482090I1663J-1109D01*
G01X588230D01*
G02X590230Y1480090I0J-2000D01*
G01Y1461100D01*
G02X588230Y1459100I-2000J0D01*
G01X580950D01*
G03Y1443060I0J-8020D01*
G01X650950D01*
G03X653710Y1443550I0J8018D01*
G01X654040Y1443670D01*
X753650D01*
G02X755650Y1441670I0J-2000D01*
G01Y1407890D01*
G02X753650Y1405890I-2000J0D01*
G01X554770D01*
G02X552770Y1407890I0J2000D01*
G37*
G36*
G01X336820D02*
Y1429290D01*
G02X338820Y1431290I2000J0D01*
G01X404330D01*
G02X406330Y1429290I0J-2000D01*
G01Y1407890D01*
G02X404330Y1405890I-2000J0D01*
G01X338820D01*
G02X336820Y1407890I0J2000D01*
G37*
G36*
G01X311150D02*
Y1429290D01*
G02X313150Y1431290I2000J0D01*
G01X318780D01*
G02X320780Y1429290I0J-2000D01*
G01Y1407890D01*
G02X318780Y1405890I-2000J0D01*
G01X313150D01*
G02X311150Y1407890I0J2000D01*
G37*
G36*
G01X371620Y1509490D02*
Y1521260D01*
G03X369620Y1523260I-2000J0D01*
G01X338820D01*
G02X336820Y1525260I0J2000D01*
G01Y1530890D01*
G02X338820Y1532890I2000J0D01*
G01X417030D01*
G02X419030Y1530890I0J-2000D01*
G01Y1509490D01*
G02X417030Y1507490I-2000J0D01*
G01X411720D01*
G02X409720Y1509490I0J2000D01*
G01Y1521260D01*
G03X407720Y1523260I-2000J0D01*
G01X379680D01*
G03X377680Y1521260I0J-2000D01*
G01Y1509490D01*
G02X375680Y1507490I-2000J0D01*
G01X373620D01*
G02X371620Y1509490I0J2000D01*
G37*
G36*
G01X311150D02*
Y1530890D01*
G02X313150Y1532890I2000J0D01*
G01X318780D01*
G02X320780Y1530890I0J-2000D01*
G01Y1509490D01*
G02X318780Y1507490I-2000J0D01*
G01X313150D01*
G02X311150Y1509490I0J2000D01*
G37*
G36*
G01X552770D02*
Y1543910D01*
G03X550770Y1545910I-2000J0D01*
G01X540570D01*
G02X538570Y1547910I0J2000D01*
G01Y1561010D01*
G03X536570Y1563010I-2000J0D01*
G01X517530D01*
G03X515530Y1561010I0J-2000D01*
G01Y1547910D01*
G02X513530Y1545910I-2000J0D01*
G01X446570D01*
G02X444570Y1547910I0J2000D01*
G01Y1571510D01*
G03X442570Y1573510I-2000J0D01*
G01X421030D01*
G03X419030Y1571510I0J-2000D01*
G01Y1547910D01*
G02X417030Y1545910I-2000J0D01*
G01X346320D01*
G02X344320Y1547910I0J2000D01*
G01Y1548060D01*
G03X342320Y1550060I-2000J0D01*
G01X314640D01*
X313480Y1551220D01*
X313470Y1552050D01*
G03X313360Y1553740I-15019J-129D01*
G01X313310Y1554170D01*
X313570Y1554990D01*
X315840Y1557550D01*
G02X317330Y1558220I1494J-1330D01*
G01X337580D01*
G02X339580Y1556220I0J-2000D01*
G01X340580Y1555220D01*
X369620D01*
G03X371620Y1557220I0J2000D01*
G01Y1569260D01*
G03X369620Y1571260I-2000J0D01*
G01X341070D01*
G02X339070Y1573260I0J2000D01*
G01Y1581690D01*
G02X341070Y1583690I2000J0D01*
G01X466990D01*
G02X468650Y1582800I-3J-1999D01*
G01X470780Y1579610D01*
X470880Y1578630D01*
X470690Y1578160D01*
G03X507210I18260J-7570D01*
G01X507020Y1578630D01*
X507120Y1579610D01*
X509250Y1582800D01*
G02X510910Y1583690I1663J-1109D01*
G01X588230D01*
G02X590230Y1581690I0J-2000D01*
G01Y1547270D01*
G03X592230Y1545270I2000J0D01*
G01X704860D01*
X705190Y1545150D01*
G03X707970Y1544650I2787J7519D01*
G01X753650D01*
G02X755650Y1542650I0J-2000D01*
G01Y1509490D01*
G02X753650Y1507490I-2000J0D01*
G01X554770D01*
G02X552770Y1509490I0J2000D01*
G37*
G36*
G01Y1611090D02*
Y1645510D01*
G03X550770Y1647510I-2000J0D01*
G01X541570D01*
G02X539570Y1649510I0J2000D01*
G01Y1663610D01*
G03X537570Y1665610I-2000J0D01*
G01X514320D01*
G02X512320Y1667610I0J2000D01*
G01Y1671860D01*
G03X510320Y1673860I-2000J0D01*
G01X480280D01*
G03X478280Y1671860I0J-2000D01*
G01Y1657820D01*
G03X480280Y1655820I2000J0D01*
G01X512530D01*
G02X514530Y1653820I0J-2000D01*
G01Y1649510D01*
G02X512530Y1647510I-2000J0D01*
G01X434870D01*
G02X432870Y1649510I0J2000D01*
G01Y1674110D01*
G03X430870Y1676110I-2000J0D01*
G01X407330D01*
G03X405330Y1674110I0J-2000D01*
G01Y1649510D01*
G02X403330Y1647510I-2000J0D01*
G01X347320D01*
G02X345320Y1649510I0J2000D01*
G01Y1650660D01*
G03X343320Y1652660I-2000J0D01*
G01X315640D01*
X314490Y1653740D01*
X314440Y1654540D01*
Y1654560D01*
X314410Y1654980D01*
X314690Y1655760D01*
X316970Y1658190D01*
G02X318430Y1658820I1457J-1370D01*
G01X338070D01*
G03X340070Y1660820I0J2000D01*
G01Y1663320D01*
G02X342070Y1665320I2000J0D01*
G01X342670D01*
X343650Y1664680D01*
X343900Y1664130D01*
G03X380210Y1679760I18050J8060D01*
G01X380020Y1680230D01*
X380120Y1681210D01*
X382250Y1684400D01*
G02X383910Y1685290I1663J-1109D01*
G01X588230D01*
G02X590230Y1683290I0J-2000D01*
G01Y1664310D01*
G02X588230Y1662310I-2000J0D01*
G01X580950D01*
G03Y1646270I0J-8020D01*
G01X650950D01*
G03X653680Y1646750I-3J8020D01*
G01X654010Y1646870D01*
X753650D01*
G02X755650Y1644870I0J-2000D01*
G01Y1611090D01*
G02X753650Y1609090I-2000J0D01*
G01X554770D01*
G02X552770Y1611090I0J2000D01*
G37*
G36*
G01X336820D02*
Y1632490D01*
G02X338820Y1634490I2000J0D01*
G01X404330D01*
G02X406330Y1632490I0J-2000D01*
G01Y1611090D01*
G02X404330Y1609090I-2000J0D01*
G01X338820D01*
G02X336820Y1611090I0J2000D01*
G37*
G36*
G01X311150D02*
Y1632490D01*
G02X313150Y1634490I2000J0D01*
G01X318780D01*
G02X320780Y1632490I0J-2000D01*
G01Y1611090D01*
G02X318780Y1609090I-2000J0D01*
G01X313150D01*
G02X311150Y1611090I0J2000D01*
G37*
G36*
G01X552770Y1712690D02*
Y1747110D01*
G03X550770Y1749110I-2000J0D01*
G01X540570D01*
G02X538570Y1751110I0J2000D01*
G01Y1764210D01*
G03X536570Y1766210I-2000J0D01*
G01X517530D01*
G03X515530Y1764210I0J-2000D01*
G01Y1751110D01*
G02X513530Y1749110I-2000J0D01*
G01X446570D01*
G02X444570Y1751110I0J2000D01*
G01Y1774710D01*
G03X442570Y1776710I-2000J0D01*
G01X421030D01*
G03X419030Y1774710I0J-2000D01*
G01Y1751110D01*
G02X417030Y1749110I-2000J0D01*
G01X346320D01*
G02X344320Y1751110I0J2000D01*
G01Y1751260D01*
G03X342320Y1753260I-2000J0D01*
G01X314640D01*
X313480Y1754420D01*
X313470Y1755250D01*
G03X313360Y1756940I-15019J-129D01*
G01X313310Y1757370D01*
X313570Y1758190D01*
X315840Y1760750D01*
G02X317330Y1761420I1494J-1330D01*
G01X337580D01*
G02X339580Y1759420I0J-2000D01*
G01X340580Y1758420D01*
X369620D01*
G03X371620Y1760420I0J2000D01*
G01Y1772460D01*
G03X369620Y1774460I-2000J0D01*
G01X341070D01*
G02X339070Y1776460I0J2000D01*
G01Y1784890D01*
G02X341070Y1786890I2000J0D01*
G01X466990D01*
G02X468650Y1786000I-3J-1999D01*
G01X470780Y1782810D01*
X470880Y1781830D01*
X470690Y1781360D01*
G03X507210I18260J-7570D01*
G01X507020Y1781830D01*
X507120Y1782810D01*
X509250Y1786000D01*
G02X510910Y1786890I1663J-1109D01*
G01X588230D01*
G02X590230Y1784890I0J-2000D01*
G01Y1750470D01*
G03X592230Y1748470I2000J0D01*
G01X704890D01*
X705220Y1748350D01*
G03X707950Y1747870I2733J7540D01*
G01X753650D01*
G02X755650Y1745870I0J-2000D01*
G01Y1712690D01*
G02X753650Y1710690I-2000J0D01*
G01X554770D01*
G02X552770Y1712690I0J2000D01*
G37*
G36*
G01X371620D02*
Y1724460D01*
G03X369620Y1726460I-2000J0D01*
G01X338820D01*
G02X336820Y1728460I0J2000D01*
G01Y1734090D01*
G02X338820Y1736090I2000J0D01*
G01X417030D01*
G02X419030Y1734090I0J-2000D01*
G01Y1712690D01*
G02X417030Y1710690I-2000J0D01*
G01X411720D01*
G02X409720Y1712690I0J2000D01*
G01Y1724460D01*
G03X407720Y1726460I-2000J0D01*
G01X379680D01*
G03X377680Y1724460I0J-2000D01*
G01Y1712690D01*
G02X375680Y1710690I-2000J0D01*
G01X373620D01*
G02X371620Y1712690I0J2000D01*
G37*
G36*
G01X311150D02*
Y1734090D01*
G02X313150Y1736090I2000J0D01*
G01X318780D01*
G02X320780Y1734090I0J-2000D01*
G01Y1712690D01*
G02X318780Y1710690I-2000J0D01*
G01X313150D01*
G02X311150Y1712690I0J2000D01*
G37*
G36*
G01X336820Y1814290D02*
Y1835690D01*
G02X338820Y1837690I2000J0D01*
G01X404330D01*
G02X406330Y1835690I0J-2000D01*
G01Y1814290D01*
G02X404330Y1812290I-2000J0D01*
G01X338820D01*
G02X336820Y1814290I0J2000D01*
G37*
G36*
G01X311150D02*
Y1835690D01*
G02X313150Y1837690I2000J0D01*
G01X318780D01*
G02X320780Y1835690I0J-2000D01*
G01Y1814290D01*
G02X318780Y1812290I-2000J0D01*
G01X313150D01*
G02X311150Y1814290I0J2000D01*
G37*
G36*
G01X552770D02*
Y1848710D01*
G03X550770Y1850710I-2000J0D01*
G01X541570D01*
G02X539570Y1852710I0J2000D01*
G01Y1866810D01*
G03X537570Y1868810I-2000J0D01*
G01X514320D01*
G02X512320Y1870810I0J2000D01*
G01Y1875060D01*
G03X510320Y1877060I-2000J0D01*
G01X480280D01*
G03X478280Y1875060I0J-2000D01*
G01Y1861020D01*
G03X480280Y1859020I2000J0D01*
G01X512530D01*
G02X514530Y1857020I0J-2000D01*
G01Y1852710D01*
G02X512530Y1850710I-2000J0D01*
G01X434870D01*
G02X432870Y1852710I0J2000D01*
G01Y1877310D01*
G03X430870Y1879310I-2000J0D01*
G01X407330D01*
G03X405330Y1877310I0J-2000D01*
G01Y1852710D01*
G02X403330Y1850710I-2000J0D01*
G01X347320D01*
G02X345320Y1852710I0J2000D01*
G01Y1853860D01*
G03X343320Y1855860I-2000J0D01*
G01X315640D01*
X314490Y1856940D01*
X314440Y1857740D01*
Y1857760D01*
X314410Y1858180D01*
X314690Y1858960D01*
X316970Y1861390D01*
G02X318430Y1862020I1457J-1370D01*
G01X338070D01*
G03X340070Y1864020I0J2000D01*
G01Y1866520D01*
G02X342070Y1868520I2000J0D01*
G01X342670D01*
X343650Y1867880D01*
X343900Y1867330D01*
G03X380210Y1882960I18050J8060D01*
G01X380020Y1883430D01*
X380120Y1884410D01*
X382250Y1887600D01*
G02X383910Y1888490I1663J-1109D01*
G01X588230D01*
G02X590230Y1886490I0J-2000D01*
G01Y1867510D01*
G02X588230Y1865510I-2000J0D01*
G01X580950D01*
G03Y1849470I0J-8020D01*
G01X650950D01*
G03X653680Y1849950I-3J8020D01*
G01X654010Y1850070D01*
X753650D01*
G02X755650Y1848070I0J-2000D01*
G01Y1814290D01*
G02X753650Y1812290I-2000J0D01*
G01X554770D01*
G02X552770Y1814290I0J2000D01*
G37*
G36*
G01Y1915890D02*
Y1950310D01*
G03X550770Y1952310I-2000J0D01*
G01X540570D01*
G02X538570Y1954310I0J2000D01*
G01Y1967410D01*
G03X536570Y1969410I-2000J0D01*
G01X517530D01*
G03X515530Y1967410I0J-2000D01*
G01Y1954310D01*
G02X513530Y1952310I-2000J0D01*
G01X446570D01*
G02X444570Y1954310I0J2000D01*
G01Y1977910D01*
G03X442570Y1979910I-2000J0D01*
G01X421030D01*
G03X419030Y1977910I0J-2000D01*
G01Y1954310D01*
G02X417030Y1952310I-2000J0D01*
G01X346320D01*
G02X344320Y1954310I0J2000D01*
G01Y1954460D01*
G03X342320Y1956460I-2000J0D01*
G01X314640D01*
X313480Y1957620D01*
X313470Y1958450D01*
G03X313360Y1960140I-15019J-129D01*
G01X313310Y1960570D01*
X313570Y1961390D01*
X315840Y1963950D01*
G02X317330Y1964620I1494J-1330D01*
G01X337580D01*
G02X339580Y1962620I0J-2000D01*
G01X340580Y1961620D01*
X369620D01*
G03X371620Y1963620I0J2000D01*
G01Y1975660D01*
G03X369620Y1977660I-2000J0D01*
G01X341070D01*
G02X339070Y1979660I0J2000D01*
G01Y1988090D01*
G02X341070Y1990090I2000J0D01*
G01X466990D01*
G02X468650Y1989200I-3J-1999D01*
G01X470780Y1986010D01*
X470880Y1985030D01*
X470690Y1984560D01*
G03X507210I18260J-7570D01*
G01X507020Y1985030D01*
X507120Y1986010D01*
X509250Y1989200D01*
G02X510910Y1990090I1663J-1109D01*
G01X588230D01*
G02X590230Y1988090I0J-2000D01*
G01Y1953670D01*
G03X592230Y1951670I2000J0D01*
G01X704890D01*
X705220Y1951550D01*
G03X707950Y1951070I2733J7540D01*
G01X753650D01*
G02X755650Y1949070I0J-2000D01*
G01Y1915890D01*
G02X753650Y1913890I-2000J0D01*
G01X554770D01*
G02X552770Y1915890I0J2000D01*
G37*
G36*
G01X371620D02*
Y1927660D01*
G03X369620Y1929660I-2000J0D01*
G01X338820D01*
G02X336820Y1931660I0J2000D01*
G01Y1937290D01*
G02X338820Y1939290I2000J0D01*
G01X417030D01*
G02X419030Y1937290I0J-2000D01*
G01Y1915890D01*
G02X417030Y1913890I-2000J0D01*
G01X411720D01*
G02X409720Y1915890I0J2000D01*
G01Y1927660D01*
G03X407720Y1929660I-2000J0D01*
G01X379680D01*
G03X377680Y1927660I0J-2000D01*
G01Y1915890D01*
G02X375680Y1913890I-2000J0D01*
G01X373620D01*
G02X371620Y1915890I0J2000D01*
G37*
G36*
G01X311150D02*
Y1937290D01*
G02X313150Y1939290I2000J0D01*
G01X318780D01*
G02X320780Y1937290I0J-2000D01*
G01Y1915890D01*
G02X318780Y1913890I-2000J0D01*
G01X313150D01*
G02X311150Y1915890I0J2000D01*
G37*
G36*
G01X431870Y131540D02*
Y152940D01*
G02X433870Y154940I2000J0D01*
G01X513530D01*
G02X515530Y152940I0J-2000D01*
G01Y139520D01*
G03X517530Y137520I2000J0D01*
G01X537750D01*
G02X539750Y135520I0J-2000D01*
G01Y131540D01*
G02X537750Y129540I-2000J0D01*
G01X513320D01*
G02X511320Y131540I0J2000D01*
G01Y143310D01*
G03X509320Y145310I-2000J0D01*
G01X481280D01*
G03X479280Y143310I0J-2000D01*
G01Y131540D01*
G02X477280Y129540I-2000J0D01*
G01X475220D01*
G02X473220Y131540I0J2000D01*
G01Y143310D01*
G03X471220Y145310I-2000J0D01*
G01X443180D01*
G03X441180Y143310I0J-2000D01*
G01Y131540D01*
G02X439180Y129540I-2000J0D01*
G01X433870D01*
G02X431870Y131540I0J2000D01*
G37*
G36*
G01X444570Y233140D02*
Y254540D01*
G02X446570Y256540I2000J0D01*
G01X513530D01*
G02X515530Y254540I0J-2000D01*
G01Y241120D01*
G03X517530Y239120I2000J0D01*
G01X537750D01*
G02X539750Y237120I0J-2000D01*
G01Y233140D01*
G02X537750Y231140I-2000J0D01*
G01X446570D01*
G02X444570Y233140I0J2000D01*
G37*
G36*
G01X431870Y334740D02*
Y356140D01*
G02X433870Y358140I2000J0D01*
G01X513530D01*
G02X515530Y356140I0J-2000D01*
G01Y342720D01*
G03X517530Y340720I2000J0D01*
G01X537750D01*
G02X539750Y338720I0J-2000D01*
G01Y334740D01*
G02X537750Y332740I-2000J0D01*
G01X513320D01*
G02X511320Y334740I0J2000D01*
G01Y346510D01*
G03X509320Y348510I-2000J0D01*
G01X481280D01*
G03X479280Y346510I0J-2000D01*
G01Y334740D01*
G02X477280Y332740I-2000J0D01*
G01X475220D01*
G02X473220Y334740I0J2000D01*
G01Y346510D01*
G03X471220Y348510I-2000J0D01*
G01X443180D01*
G03X441180Y346510I0J-2000D01*
G01Y334740D01*
G02X439180Y332740I-2000J0D01*
G01X433870D01*
G02X431870Y334740I0J2000D01*
G37*
G36*
G01X444570Y436340D02*
Y457740D01*
G02X446570Y459740I2000J0D01*
G01X513530D01*
G02X515530Y457740I0J-2000D01*
G01Y444320D01*
G03X517530Y442320I2000J0D01*
G01X537750D01*
G02X539750Y440320I0J-2000D01*
G01Y436340D01*
G02X537750Y434340I-2000J0D01*
G01X446570D01*
G02X444570Y436340I0J2000D01*
G37*
G36*
G01X431870Y537940D02*
Y559340D01*
G02X433870Y561340I2000J0D01*
G01X513530D01*
G02X515530Y559340I0J-2000D01*
G01Y545920D01*
G03X517530Y543920I2000J0D01*
G01X537750D01*
G02X539750Y541920I0J-2000D01*
G01Y537940D01*
G02X537750Y535940I-2000J0D01*
G01X513320D01*
G02X511320Y537940I0J2000D01*
G01Y549710D01*
G03X509320Y551710I-2000J0D01*
G01X481280D01*
G03X479280Y549710I0J-2000D01*
G01Y537940D01*
G02X477280Y535940I-2000J0D01*
G01X475220D01*
G02X473220Y537940I0J2000D01*
G01Y549710D01*
G03X471220Y551710I-2000J0D01*
G01X443180D01*
G03X441180Y549710I0J-2000D01*
G01Y537940D01*
G02X439180Y535940I-2000J0D01*
G01X433870D01*
G02X431870Y537940I0J2000D01*
G37*
G36*
G01X444570Y639540D02*
Y660940D01*
G02X446570Y662940I2000J0D01*
G01X513530D01*
G02X515530Y660940I0J-2000D01*
G01Y647520D01*
G03X517530Y645520I2000J0D01*
G01X537750D01*
G02X539750Y643520I0J-2000D01*
G01Y639540D01*
G02X537750Y637540I-2000J0D01*
G01X446570D01*
G02X444570Y639540I0J2000D01*
G37*
G36*
G01X431870Y741140D02*
Y762540D01*
G02X433870Y764540I2000J0D01*
G01X513530D01*
G02X515530Y762540I0J-2000D01*
G01Y749120D01*
G03X517530Y747120I2000J0D01*
G01X537750D01*
G02X539750Y745120I0J-2000D01*
G01Y741140D01*
G02X537750Y739140I-2000J0D01*
G01X513320D01*
G02X511320Y741140I0J2000D01*
G01Y752910D01*
G03X509320Y754910I-2000J0D01*
G01X481280D01*
G03X479280Y752910I0J-2000D01*
G01Y741140D01*
G02X477280Y739140I-2000J0D01*
G01X475220D01*
G02X473220Y741140I0J2000D01*
G01Y752910D01*
G03X471220Y754910I-2000J0D01*
G01X443180D01*
G03X441180Y752910I0J-2000D01*
G01Y741140D01*
G02X439180Y739140I-2000J0D01*
G01X433870D01*
G02X431870Y741140I0J2000D01*
G37*
G36*
G01X444570Y842740D02*
Y864140D01*
G02X446570Y866140I2000J0D01*
G01X513530D01*
G02X515530Y864140I0J-2000D01*
G01Y850720D01*
G03X517530Y848720I2000J0D01*
G01X537750D01*
G02X539750Y846720I0J-2000D01*
G01Y842740D01*
G02X537750Y840740I-2000J0D01*
G01X446570D01*
G02X444570Y842740I0J2000D01*
G37*
G36*
G01X431870Y1204690D02*
Y1226090D01*
G02X433870Y1228090I2000J0D01*
G01X513530D01*
G02X515530Y1226090I0J-2000D01*
G01Y1212670D01*
G03X517530Y1210670I2000J0D01*
G01X537750D01*
G02X539750Y1208670I0J-2000D01*
G01Y1204690D01*
G02X537750Y1202690I-2000J0D01*
G01X513320D01*
G02X511320Y1204690I0J2000D01*
G01Y1216460D01*
G03X509320Y1218460I-2000J0D01*
G01X481280D01*
G03X479280Y1216460I0J-2000D01*
G01Y1204690D01*
G02X477280Y1202690I-2000J0D01*
G01X475220D01*
G02X473220Y1204690I0J2000D01*
G01Y1216460D01*
G03X471220Y1218460I-2000J0D01*
G01X443180D01*
G03X441180Y1216460I0J-2000D01*
G01Y1204690D01*
G02X439180Y1202690I-2000J0D01*
G01X433870D01*
G02X431870Y1204690I0J2000D01*
G37*
G36*
G01X444570Y1306290D02*
Y1327690D01*
G02X446570Y1329690I2000J0D01*
G01X513530D01*
G02X515530Y1327690I0J-2000D01*
G01Y1314270D01*
G03X517530Y1312270I2000J0D01*
G01X537750D01*
G02X539750Y1310270I0J-2000D01*
G01Y1306290D01*
G02X537750Y1304290I-2000J0D01*
G01X446570D01*
G02X444570Y1306290I0J2000D01*
G37*
G36*
G01X431870Y1407890D02*
Y1429290D01*
G02X433870Y1431290I2000J0D01*
G01X513530D01*
G02X515530Y1429290I0J-2000D01*
G01Y1415870D01*
G03X517530Y1413870I2000J0D01*
G01X537750D01*
G02X539750Y1411870I0J-2000D01*
G01Y1407890D01*
G02X537750Y1405890I-2000J0D01*
G01X513320D01*
G02X511320Y1407890I0J2000D01*
G01Y1419660D01*
G03X509320Y1421660I-2000J0D01*
G01X481280D01*
G03X479280Y1419660I0J-2000D01*
G01Y1407890D01*
G02X477280Y1405890I-2000J0D01*
G01X475220D01*
G02X473220Y1407890I0J2000D01*
G01Y1419660D01*
G03X471220Y1421660I-2000J0D01*
G01X443180D01*
G03X441180Y1419660I0J-2000D01*
G01Y1407890D01*
G02X439180Y1405890I-2000J0D01*
G01X433870D01*
G02X431870Y1407890I0J2000D01*
G37*
G36*
G01X444570Y1509490D02*
Y1530890D01*
G02X446570Y1532890I2000J0D01*
G01X513530D01*
G02X515530Y1530890I0J-2000D01*
G01Y1517470D01*
G03X517530Y1515470I2000J0D01*
G01X537750D01*
G02X539750Y1513470I0J-2000D01*
G01Y1509490D01*
G02X537750Y1507490I-2000J0D01*
G01X446570D01*
G02X444570Y1509490I0J2000D01*
G37*
G36*
G01X431870Y1611090D02*
Y1632490D01*
G02X433870Y1634490I2000J0D01*
G01X513530D01*
G02X515530Y1632490I0J-2000D01*
G01Y1619070D01*
G03X517530Y1617070I2000J0D01*
G01X537750D01*
G02X539750Y1615070I0J-2000D01*
G01Y1611090D01*
G02X537750Y1609090I-2000J0D01*
G01X513320D01*
G02X511320Y1611090I0J2000D01*
G01Y1622860D01*
G03X509320Y1624860I-2000J0D01*
G01X481280D01*
G03X479280Y1622860I0J-2000D01*
G01Y1611090D01*
G02X477280Y1609090I-2000J0D01*
G01X475220D01*
G02X473220Y1611090I0J2000D01*
G01Y1622860D01*
G03X471220Y1624860I-2000J0D01*
G01X443180D01*
G03X441180Y1622860I0J-2000D01*
G01Y1611090D01*
G02X439180Y1609090I-2000J0D01*
G01X433870D01*
G02X431870Y1611090I0J2000D01*
G37*
G36*
G01X444570Y1712690D02*
Y1734090D01*
G02X446570Y1736090I2000J0D01*
G01X513530D01*
G02X515530Y1734090I0J-2000D01*
G01Y1720670D01*
G03X517530Y1718670I2000J0D01*
G01X537750D01*
G02X539750Y1716670I0J-2000D01*
G01Y1712690D01*
G02X537750Y1710690I-2000J0D01*
G01X446570D01*
G02X444570Y1712690I0J2000D01*
G37*
G36*
G01X431870Y1814290D02*
Y1835690D01*
G02X433870Y1837690I2000J0D01*
G01X513530D01*
G02X515530Y1835690I0J-2000D01*
G01Y1822270D01*
G03X517530Y1820270I2000J0D01*
G01X537750D01*
G02X539750Y1818270I0J-2000D01*
G01Y1814290D01*
G02X537750Y1812290I-2000J0D01*
G01X513320D01*
G02X511320Y1814290I0J2000D01*
G01Y1826060D01*
G03X509320Y1828060I-2000J0D01*
G01X481280D01*
G03X479280Y1826060I0J-2000D01*
G01Y1814290D01*
G02X477280Y1812290I-2000J0D01*
G01X475220D01*
G02X473220Y1814290I0J2000D01*
G01Y1826060D01*
G03X471220Y1828060I-2000J0D01*
G01X443180D01*
G03X441180Y1826060I0J-2000D01*
G01Y1814290D01*
G02X439180Y1812290I-2000J0D01*
G01X433870D01*
G02X431870Y1814290I0J2000D01*
G37*
G36*
G01X444570Y1915890D02*
Y1937290D01*
G02X446570Y1939290I2000J0D01*
G01X513530D01*
G02X515530Y1937290I0J-2000D01*
G01Y1923870D01*
G03X517530Y1921870I2000J0D01*
G01X537750D01*
G02X539750Y1919870I0J-2000D01*
G01Y1915890D01*
G02X537750Y1913890I-2000J0D01*
G01X446570D01*
G02X444570Y1915890I0J2000D01*
G37*
G36*
G01X656180Y180820D02*
G03X650960Y182750I-5220J-6094D01*
G01X605250D01*
G02X603250Y184750I0J2000D01*
G01Y203740D01*
G02X605250Y205740I2000J0D01*
G01X779830D01*
G02X781830Y203740I0J-2000D01*
G01Y200720D01*
G03X783830Y198720I2000J0D01*
G01X816370D01*
G03X818370Y200720I0J2000D01*
G01Y203740D01*
G02X820370Y205740I2000J0D01*
G01X840340D01*
G02X842040Y204780I-8J-1999D01*
G01X844100Y201410D01*
X844140Y200380D01*
X843890Y199910D01*
G03Y186170I13360J-6870D01*
G01X844140Y185700D01*
X844100Y184670D01*
X842040Y181300D01*
G02X840340Y180340I-1708J1039D01*
G01X657480D01*
G02X656180Y180820I0J2000D01*
G37*
G36*
G01X603250Y283940D02*
Y305340D01*
G02X605250Y307340I2000J0D01*
G01X840340D01*
G02X842040Y306380I-8J-1999D01*
G01X844100Y303010D01*
X844140Y301980D01*
X843890Y301510D01*
G03Y287770I13360J-6870D01*
G01X844140Y287300D01*
X844100Y286270D01*
X842040Y282900D01*
G02X840340Y281940I-1708J1039D01*
G01X784480D01*
G02X783180Y282420I0J2000D01*
G03X777960Y284350I-5220J-6094D01*
G01X707960D01*
G03X702740Y282420I0J-8024D01*
G02X701440Y281940I-1300J1520D01*
G01X605250D01*
G02X603250Y283940I0J2000D01*
G37*
G36*
G01X656180Y384020D02*
G03X650960Y385950I-5220J-6094D01*
G01X605250D01*
G02X603250Y387950I0J2000D01*
G01Y406940D01*
G02X605250Y408940I2000J0D01*
G01X779830D01*
G02X781830Y406940I0J-2000D01*
G01Y403920D01*
G03X783830Y401920I2000J0D01*
G01X816370D01*
G03X818370Y403920I0J2000D01*
G01Y406940D01*
G02X820370Y408940I2000J0D01*
G01X840340D01*
G02X842040Y407980I-8J-1999D01*
G01X844100Y404610D01*
X844140Y403580D01*
X843890Y403110D01*
G03Y389370I13360J-6870D01*
G01X844140Y388900D01*
X844100Y387870D01*
X842040Y384500D01*
G02X840340Y383540I-1708J1039D01*
G01X657480D01*
G02X656180Y384020I0J2000D01*
G37*
G36*
G01X603250Y487140D02*
Y508540D01*
G02X605250Y510540I2000J0D01*
G01X840340D01*
G02X842040Y509580I-8J-1999D01*
G01X844100Y506210D01*
X844140Y505180D01*
X843890Y504710D01*
G03Y490970I13360J-6870D01*
G01X844140Y490500D01*
X844100Y489470D01*
X842040Y486100D01*
G02X840340Y485140I-1708J1039D01*
G01X784480D01*
G02X783180Y485620I0J2000D01*
G03X777960Y487550I-5220J-6094D01*
G01X707960D01*
G03X702740Y485620I0J-8024D01*
G02X701440Y485140I-1300J1520D01*
G01X605250D01*
G02X603250Y487140I0J2000D01*
G37*
G36*
G01X656180Y587220D02*
G03X650960Y589150I-5220J-6094D01*
G01X605250D01*
G02X603250Y591150I0J2000D01*
G01Y610140D01*
G02X605250Y612140I2000J0D01*
G01X779830D01*
G02X781830Y610140I0J-2000D01*
G01Y607120D01*
G03X783830Y605120I2000J0D01*
G01X816370D01*
G03X818370Y607120I0J2000D01*
G01Y610140D01*
G02X820370Y612140I2000J0D01*
G01X840340D01*
G02X842040Y611180I-8J-1999D01*
G01X844100Y607810D01*
X844140Y606780D01*
X843890Y606310D01*
G03Y592570I13360J-6870D01*
G01X844140Y592100D01*
X844100Y591070D01*
X842040Y587700D01*
G02X840340Y586740I-1708J1039D01*
G01X657480D01*
G02X656180Y587220I0J2000D01*
G37*
G36*
G01X603250Y690340D02*
Y711740D01*
G02X605250Y713740I2000J0D01*
G01X840340D01*
G02X842040Y712780I-8J-1999D01*
G01X844100Y709410D01*
X844140Y708380D01*
X843890Y707910D01*
G03Y694170I13360J-6870D01*
G01X844140Y693700D01*
X844100Y692670D01*
X842040Y689300D01*
G02X840340Y688340I-1708J1039D01*
G01X784480D01*
G02X783180Y688820I0J2000D01*
G03X777960Y690750I-5220J-6094D01*
G01X707960D01*
G03X702740Y688820I0J-8024D01*
G02X701440Y688340I-1300J1520D01*
G01X605250D01*
G02X603250Y690340I0J2000D01*
G37*
G36*
G01X656180Y790420D02*
G03X650960Y792350I-5220J-6094D01*
G01X605250D01*
G02X603250Y794350I0J2000D01*
G01Y813340D01*
G02X605250Y815340I2000J0D01*
G01X779830D01*
G02X781830Y813340I0J-2000D01*
G01Y810320D01*
G03X783830Y808320I2000J0D01*
G01X816370D01*
G03X818370Y810320I0J2000D01*
G01Y813340D01*
G02X820370Y815340I2000J0D01*
G01X840340D01*
G02X842040Y814380I-8J-1999D01*
G01X844100Y811010D01*
X844140Y809980D01*
X843890Y809510D01*
G03Y795770I13360J-6870D01*
G01X844140Y795300D01*
X844100Y794270D01*
X842040Y790900D01*
G02X840340Y789940I-1708J1039D01*
G01X657480D01*
G02X656180Y790420I0J2000D01*
G37*
G36*
G01X603250Y893540D02*
Y914940D01*
G02X605250Y916940I2000J0D01*
G01X840230D01*
G02X842230Y914940I0J-2000D01*
G01Y893540D01*
G02X840230Y891540I-2000J0D01*
G01X784480D01*
G02X783180Y892020I0J2000D01*
G03X777960Y893950I-5220J-6094D01*
G01X707960D01*
G03X702740Y892020I0J-8024D01*
G02X701440Y891540I-1300J1520D01*
G01X605250D01*
G02X603250Y893540I0J2000D01*
G37*
G36*
G01X656180Y1253970D02*
G03X650960Y1255900I-5220J-6094D01*
G01X605250D01*
G02X603250Y1257900I0J2000D01*
G01Y1276890D01*
G02X605250Y1278890I2000J0D01*
G01X779830D01*
G02X781830Y1276890I0J-2000D01*
G01Y1273870D01*
G03X783830Y1271870I2000J0D01*
G01X816370D01*
G03X818370Y1273870I0J2000D01*
G01Y1276890D01*
G02X820370Y1278890I2000J0D01*
G01X840340D01*
G02X842040Y1277930I-8J-1999D01*
G01X844100Y1274560D01*
X844140Y1273530D01*
X843890Y1273060D01*
G03Y1259320I13360J-6870D01*
G01X844140Y1258850D01*
X844100Y1257820D01*
X842040Y1254450D01*
G02X840340Y1253490I-1708J1039D01*
G01X657480D01*
G02X656180Y1253970I0J2000D01*
G37*
G36*
G01X603250Y1357090D02*
Y1378490D01*
G02X605250Y1380490I2000J0D01*
G01X840340D01*
G02X842040Y1379530I-8J-1999D01*
G01X844100Y1376160D01*
X844140Y1375130D01*
X843890Y1374660D01*
G03Y1360920I13360J-6870D01*
G01X844140Y1360450D01*
X844100Y1359420D01*
X842040Y1356050D01*
G02X840340Y1355090I-1708J1039D01*
G01X784480D01*
G02X783180Y1355570I0J2000D01*
G03X777960Y1357500I-5220J-6094D01*
G01X707960D01*
G03X702740Y1355570I0J-8024D01*
G02X701440Y1355090I-1300J1520D01*
G01X605250D01*
G02X603250Y1357090I0J2000D01*
G37*
G36*
G01X656170Y1457170D02*
G03X650950Y1459100I-5220J-6094D01*
G01X605250D01*
G02X603250Y1461100I0J2000D01*
G01Y1480090D01*
G02X605250Y1482090I2000J0D01*
G01X779830D01*
G02X781830Y1480090I0J-2000D01*
G01Y1477070D01*
G03X783830Y1475070I2000J0D01*
G01X816370D01*
G03X818370Y1477070I0J2000D01*
G01Y1480090D01*
G02X820370Y1482090I2000J0D01*
G01X840340D01*
G02X842040Y1481130I-8J-1999D01*
G01X844100Y1477760D01*
X844140Y1476730D01*
X843890Y1476260D01*
G03Y1462520I13360J-6870D01*
G01X844140Y1462050D01*
X844100Y1461020D01*
X842040Y1457650D01*
G02X840340Y1456690I-1708J1039D01*
G01X657470D01*
G02X656170Y1457170I0J2000D01*
G37*
G36*
G01X603250Y1560290D02*
Y1581690D01*
G02X605250Y1583690I2000J0D01*
G01X840340D01*
G02X842040Y1582730I-8J-1999D01*
G01X844100Y1579360D01*
X844140Y1578330D01*
X843890Y1577860D01*
G03Y1564120I13360J-6870D01*
G01X844140Y1563650D01*
X844100Y1562620D01*
X842040Y1559250D01*
G02X840340Y1558290I-1708J1039D01*
G01X784480D01*
G02X783180Y1558770I0J1999D01*
G03X777970Y1560690I-5210J-6109D01*
G01X707970D01*
G03X702760Y1558770I0J-8029D01*
G02X701460Y1558290I-1300J1519D01*
G01X605250D01*
G02X603250Y1560290I0J2000D01*
G37*
G36*
G01X656180Y1660370D02*
G03X650950Y1662310I-5230J-6080D01*
G01X605250D01*
G02X603250Y1664310I0J2000D01*
G01Y1683290D01*
G02X605250Y1685290I2000J0D01*
G01X779830D01*
G02X781830Y1683290I0J-2000D01*
G01Y1680270D01*
G03X783830Y1678270I2000J0D01*
G01X816370D01*
G03X818370Y1680270I0J2000D01*
G01Y1683290D01*
G02X820370Y1685290I2000J0D01*
G01X840340D01*
G02X842040Y1684330I-8J-1999D01*
G01X844100Y1680960D01*
X844140Y1679930D01*
X843890Y1679460D01*
G03Y1665720I13360J-6870D01*
G01X844140Y1665250D01*
X844100Y1664220D01*
X842040Y1660850D01*
G02X840340Y1659890I-1708J1039D01*
G01X657480D01*
G02X656180Y1660370I0J2000D01*
G37*
G36*
G01X603250Y1763490D02*
Y1784890D01*
G02X605250Y1786890I2000J0D01*
G01X840340D01*
G02X842040Y1785930I-8J-1999D01*
G01X844100Y1782560D01*
X844140Y1781530D01*
X843890Y1781060D01*
G03Y1767320I13360J-6870D01*
G01X844140Y1766850D01*
X844100Y1765820D01*
X842040Y1762450D01*
G02X840340Y1761490I-1708J1039D01*
G01X784480D01*
G02X783180Y1761970I0J2000D01*
G03X777950Y1763910I-5230J-6080D01*
G01X707950D01*
G03X702720Y1761970I0J-8020D01*
G02X701420Y1761490I-1300J1520D01*
G01X605250D01*
G02X603250Y1763490I0J2000D01*
G37*
G36*
G01X656180Y1863570D02*
G03X650950Y1865510I-5230J-6080D01*
G01X605250D01*
G02X603250Y1867510I0J2000D01*
G01Y1886490D01*
G02X605250Y1888490I2000J0D01*
G01X779830D01*
G02X781830Y1886490I0J-2000D01*
G01Y1883470D01*
G03X783830Y1881470I2000J0D01*
G01X816370D01*
G03X818370Y1883470I0J2000D01*
G01Y1886490D01*
G02X820370Y1888490I2000J0D01*
G01X840340D01*
G02X842040Y1887530I-8J-1999D01*
G01X844100Y1884160D01*
X844140Y1883130D01*
X843890Y1882660D01*
G03Y1868920I13360J-6870D01*
G01X844140Y1868450D01*
X844100Y1867420D01*
X842040Y1864050D01*
G02X840340Y1863090I-1708J1039D01*
G01X657480D01*
G02X656180Y1863570I0J2000D01*
G37*
G36*
G01X603250Y1966690D02*
Y1988090D01*
G02X605250Y1990090I2000J0D01*
G01X840230D01*
G02X842230Y1988090I0J-2000D01*
G01Y1966690D01*
G02X840230Y1964690I-2000J0D01*
G01X784480D01*
G02X783180Y1965170I0J2000D01*
G03X777950Y1967110I-5230J-6080D01*
G01X707950D01*
G03X702720Y1965170I0J-8020D01*
G02X701420Y1964690I-1300J1520D01*
G01X605250D01*
G02X603250Y1966690I0J2000D01*
G37*
%LPC*%
G75*
G36*
G01X13560Y781370D02*
X11840D01*
G03X10980Y780880I0J-1000D01*
G02Y793920I-10980J6520D01*
G03X11840Y793430I860J510D01*
G01X13560D01*
G03X14420Y793920I0J1000D01*
G02X36380I10980J-6520D01*
G03X37240Y793430I860J510D01*
G01X38960D01*
G03X39820Y793920I0J1000D01*
G02Y780880I10980J-6520D01*
G03X38960Y781370I-860J-510D01*
G01X37240D01*
G03X36380Y780880I0J-1000D01*
G02X14420I-10980J6520D01*
G03X13560Y781370I-860J-510D01*
G37*
G36*
G01X16130Y10270D02*
X34670D01*
G02X35670Y9270I0J-1000D01*
G01Y-9270D01*
G02X34670Y-10270I-1000J0D01*
G01X16130D01*
G02X15130Y-9270I0J1000D01*
G01Y9270D01*
G02X16130Y10270I1000J0D01*
G37*
G36*
G01Y238870D02*
X34670D01*
G02X35670Y237870I0J-1000D01*
G01Y219330D01*
G02X34670Y218330I-1000J0D01*
G01X16130D01*
G02X15130Y219330I0J1000D01*
G01Y237870D01*
G02X16130Y238870I1000J0D01*
G37*
G36*
G01Y492870D02*
X34670D01*
G02X35670Y491870I0J-1000D01*
G01Y473330D01*
G02X34670Y472330I-1000J0D01*
G01X16130D01*
G02X15130Y473330I0J1000D01*
G01Y491870D01*
G02X16130Y492870I1000J0D01*
G37*
G36*
G01Y746870D02*
X34670D01*
G02X35670Y745870I0J-1000D01*
G01Y727330D01*
G02X34670Y726330I-1000J0D01*
G01X16130D01*
G02X15130Y727330I0J1000D01*
G01Y745870D01*
G02X16130Y746870I1000J0D01*
G37*
G36*
G01X107980Y1050960D02*
X126520D01*
G02X127520Y1049960I0J-1000D01*
G01Y1031420D01*
G02X126520Y1030420I-1000J0D01*
G01X107980D01*
G02X106980Y1031420I0J1000D01*
G01Y1049960D01*
G02X107980Y1050960I1000J0D01*
G37*
G36*
G01X442180Y194310D02*
X472220D01*
G02X474220Y192310I0J-2000D01*
G01Y178270D01*
G02X472220Y176270I-2000J0D01*
G01X442180D01*
G02X440180Y178270I0J2000D01*
G01Y192310D01*
G02X442180Y194310I2000J0D01*
G37*
G36*
G01X379680Y294910D02*
X407720D01*
G02X409720Y292910I0J-2000D01*
G01Y280870D01*
G02X407720Y278870I-2000J0D01*
G01X379680D01*
G02X377680Y280870I0J2000D01*
G01Y292910D01*
G02X379680Y294910I2000J0D01*
G37*
G36*
G01X442180Y397510D02*
X472220D01*
G02X474220Y395510I0J-2000D01*
G01Y381470D01*
G02X472220Y379470I-2000J0D01*
G01X442180D01*
G02X440180Y381470I0J2000D01*
G01Y395510D01*
G02X442180Y397510I2000J0D01*
G37*
G36*
G01X379680Y498110D02*
X407720D01*
G02X409720Y496110I0J-2000D01*
G01Y484070D01*
G02X407720Y482070I-2000J0D01*
G01X379680D01*
G02X377680Y484070I0J2000D01*
G01Y496110D01*
G02X379680Y498110I2000J0D01*
G37*
G36*
G01X442180Y600710D02*
X472220D01*
G02X474220Y598710I0J-2000D01*
G01Y584670D01*
G02X472220Y582670I-2000J0D01*
G01X442180D01*
G02X440180Y584670I0J2000D01*
G01Y598710D01*
G02X442180Y600710I2000J0D01*
G37*
G36*
G01X379680Y701310D02*
X407720D01*
G02X409720Y699310I0J-2000D01*
G01Y687270D01*
G02X407720Y685270I-2000J0D01*
G01X379680D01*
G02X377680Y687270I0J2000D01*
G01Y699310D01*
G02X379680Y701310I2000J0D01*
G37*
G36*
G01X442180Y803910D02*
X472220D01*
G02X474220Y801910I0J-2000D01*
G01Y787870D01*
G02X472220Y785870I-2000J0D01*
G01X442180D01*
G02X440180Y787870I0J2000D01*
G01Y801910D01*
G02X442180Y803910I2000J0D01*
G37*
G36*
G01X379680Y904510D02*
X407720D01*
G02X409720Y902510I0J-2000D01*
G01Y890470D01*
G02X407720Y888470I-2000J0D01*
G01X379680D01*
G02X377680Y890470I0J2000D01*
G01Y902510D01*
G02X379680Y904510I2000J0D01*
G37*
G36*
G01X442180Y1267460D02*
X472220D01*
G02X474220Y1265460I0J-2000D01*
G01Y1251420D01*
G02X472220Y1249420I-2000J0D01*
G01X442180D01*
G02X440180Y1251420I0J2000D01*
G01Y1265460D01*
G02X442180Y1267460I2000J0D01*
G37*
G36*
G01X379680Y1368060D02*
X407720D01*
G02X409720Y1366060I0J-2000D01*
G01Y1354020D01*
G02X407720Y1352020I-2000J0D01*
G01X379680D01*
G02X377680Y1354020I0J2000D01*
G01Y1366060D01*
G02X379680Y1368060I2000J0D01*
G37*
G36*
G01X442180Y1470660D02*
X472220D01*
G02X474220Y1468660I0J-2000D01*
G01Y1454620D01*
G02X472220Y1452620I-2000J0D01*
G01X442180D01*
G02X440180Y1454620I0J2000D01*
G01Y1468660D01*
G02X442180Y1470660I2000J0D01*
G37*
G36*
G01X379680Y1571260D02*
X407720D01*
G02X409720Y1569260I0J-2000D01*
G01Y1557220D01*
G02X407720Y1555220I-2000J0D01*
G01X379680D01*
G02X377680Y1557220I0J2000D01*
G01Y1569260D01*
G02X379680Y1571260I2000J0D01*
G37*
G36*
G01X442180Y1673860D02*
X472220D01*
G02X474220Y1671860I0J-2000D01*
G01Y1657820D01*
G02X472220Y1655820I-2000J0D01*
G01X442180D01*
G02X440180Y1657820I0J2000D01*
G01Y1671860D01*
G02X442180Y1673860I2000J0D01*
G37*
G36*
G01X379680Y1774460D02*
X407720D01*
G02X409720Y1772460I0J-2000D01*
G01Y1760420D01*
G02X407720Y1758420I-2000J0D01*
G01X379680D01*
G02X377680Y1760420I0J2000D01*
G01Y1772460D01*
G02X379680Y1774460I2000J0D01*
G37*
G36*
G01X442180Y1877060D02*
X472220D01*
G02X474220Y1875060I0J-2000D01*
G01Y1861020D01*
G02X472220Y1859020I-2000J0D01*
G01X442180D01*
G02X440180Y1861020I0J2000D01*
G01Y1875060D01*
G02X442180Y1877060I2000J0D01*
G37*
G36*
G01X379680Y1977660D02*
X407720D01*
G02X409720Y1975660I0J-2000D01*
G01Y1963620D01*
G02X407720Y1961620I-2000J0D01*
G01X379680D01*
G02X377680Y1963620I0J2000D01*
G01Y1975660D01*
G02X379680Y1977660I2000J0D01*
G37*
G54D38*
X117250Y1066090D03*
G54D36*
X44450Y-54610D03*
X-19050Y1037590D03*
G54D37*
X25400Y203200D03*
Y177800D03*
Y304800D03*
Y279400D03*
Y254000D03*
Y381000D03*
Y355600D03*
Y330200D03*
Y457200D03*
Y431800D03*
Y406400D03*
Y533400D03*
Y508000D03*
Y609600D03*
Y584200D03*
Y558800D03*
Y685800D03*
Y660400D03*
Y635000D03*
Y762000D03*
Y711200D03*
X0Y762000D03*
X50800D03*
%LPD*%
G75*
G54D10*
X-25400Y-50800D03*
Y838200D03*
G54D20*
X328800Y148590D03*
X280800D03*
X328800Y250190D03*
X280800D03*
X328800Y351790D03*
X280800D03*
X328800Y453390D03*
X280800D03*
X328800Y554990D03*
X280800D03*
X328800Y656590D03*
X280800D03*
X328800Y758190D03*
X280800D03*
X328800Y859790D03*
X280800D03*
X328800Y1221740D03*
X280800D03*
X328800Y1323340D03*
X280800D03*
X328800Y1424940D03*
X280800D03*
X328800Y1526540D03*
X280800D03*
X328800Y1628140D03*
X280800D03*
X328800Y1729740D03*
X280800D03*
X328800Y1831340D03*
X280800D03*
X328800Y1932940D03*
X280800D03*
G54D11*
X-36750Y-18610D03*
X-38100Y129540D03*
Y281940D03*
Y447040D03*
Y548640D03*
Y739140D03*
Y802640D03*
Y878840D03*
Y999490D03*
Y1304290D03*
Y1513840D03*
Y1723390D03*
X12700Y-73660D03*
X44450Y-54610D03*
X6350Y897890D03*
X0Y993140D03*
X12700Y1037590D03*
X-3750Y1118390D03*
X19050Y1149350D03*
X38100Y1155700D03*
X28800Y1210000D03*
X-3750Y1327390D03*
X27800Y1400000D03*
X-3750Y1536390D03*
X27800Y1690000D03*
X-3750Y1746390D03*
X33800Y1798000D03*
X0Y1805940D03*
Y1926590D03*
X-31750Y1958340D03*
Y2047240D03*
X-6350Y2104390D03*
X114300Y-82550D03*
X71250Y13390D03*
X63500Y-29210D03*
X114300Y31750D03*
X117250Y437390D03*
X114300Y535940D03*
X107950Y637540D03*
Y739140D03*
X57150Y821690D03*
X107950Y840740D03*
X57150Y891540D03*
X57250Y985390D03*
X107950Y929640D03*
X104800Y1148000D03*
X79800Y1152000D03*
X73800Y1133000D03*
X66800Y1114000D03*
X57250Y1091390D03*
X85800Y1188000D03*
X104800Y1206000D03*
X76200Y1168400D03*
X95250Y1174750D03*
X57150Y1162050D03*
X66800Y1264000D03*
X47800Y1333000D03*
X109250Y1405390D03*
X85800Y1405000D03*
X66800Y1486000D03*
X107950Y1507490D03*
X47800Y1581000D03*
X86800Y1553000D03*
X107950Y1609090D03*
X67800Y1635000D03*
X95250Y1659890D03*
X50800Y1715000D03*
X107950Y1710690D03*
X95250Y1761490D03*
X107950Y1812290D03*
X95250Y1863090D03*
X57150D03*
X107950Y1913890D03*
X95250Y1964690D03*
X57150Y1977390D03*
X50800Y2015490D03*
X69850Y2047240D03*
X101600D03*
X133350Y-63500D03*
X127000Y63500D03*
X165100Y114300D03*
X143250Y115390D03*
X161250Y208240D03*
X174250Y218240D03*
X161250Y309130D03*
X174250Y320240D03*
X161250Y412240D03*
X174250Y421240D03*
X127000Y415290D03*
X161250Y512330D03*
X174250Y523240D03*
X127000Y516890D03*
X161250Y614240D03*
X127000Y618490D03*
X174250Y625240D03*
X161250Y718240D03*
X174250Y726240D03*
X127000Y720090D03*
X161250Y818240D03*
X174250Y828240D03*
X127000Y821690D03*
X161250Y920240D03*
X127250Y923390D03*
X174250Y930240D03*
X147250Y936240D03*
X174250Y1189240D03*
X147250Y1186240D03*
X161250Y1280680D03*
X174250Y1292240D03*
X129940Y1287210D03*
X161250Y1386240D03*
X174250Y1393240D03*
X127250Y1387390D03*
X161250Y1488240D03*
X174250Y1495240D03*
X129250Y1487390D03*
X161250Y1590240D03*
X174250Y1596240D03*
X127000Y1590040D03*
X161250Y1692240D03*
X174250Y1698240D03*
X127000Y1691640D03*
X161250Y1792240D03*
X174250Y1799240D03*
X127000Y1793240D03*
X161250Y1890280D03*
X174250Y1901240D03*
X127000Y1894840D03*
X161250Y1992240D03*
X170250Y2007240D03*
X158750Y2047240D03*
X265250Y-80610D03*
X241300Y-54610D03*
X273050Y173990D03*
X298450D03*
X273050Y275430D03*
X298450Y275590D03*
X273050Y377190D03*
X298450D03*
X273050Y478630D03*
X298450Y478790D03*
X273050Y580390D03*
X298450D03*
X273050Y681830D03*
X298450Y681990D03*
X273050Y783590D03*
X298450D03*
Y885190D03*
X273050Y885030D03*
Y1247140D03*
X298450D03*
X273050Y1348580D03*
X298450Y1348740D03*
X273050Y1450340D03*
X298450D03*
X273050Y1551780D03*
X298450Y1551940D03*
X273050Y1653540D03*
X298450D03*
X273050Y1754980D03*
X298450Y1755140D03*
X273050Y1856740D03*
X298450D03*
Y1958340D03*
X273050Y1958180D03*
X857250Y-54610D03*
Y2104390D03*
G54D30*
G01Y142240D02*
X800100D01*
G01X857250Y345440D02*
X800100D01*
G01X857250Y548640D02*
X800100D01*
G01X857250Y751840D02*
X800100D01*
G01X857250Y1215390D02*
X800100D01*
G01X857250Y1418590D02*
X800100D01*
G01X857250Y1621790D02*
X800100D01*
G01X857250Y1824990D02*
X800100D01*
G01X840230Y193040D02*
X857250D01*
G01Y294640D02*
X876050D01*
G03X883120Y297570I-2J10000D01*
G01X886860Y301310D01*
G02X893930Y304240I7072J-7070D01*
G01X914400D01*
G01X840230Y294640D02*
X857250D01*
G01Y243840D02*
X876050D01*
G02X883120Y240910I-2J-10000D01*
G01X886860Y237170D01*
G03X893930Y234240I7072J7070D01*
G01X914400D01*
G01X857250Y447040D02*
X876050D01*
G02X883120Y444110I-2J-10000D01*
G01X886860Y440370D01*
G03X893930Y437440I7072J7070D01*
G01X914400D01*
G01X840230Y396240D02*
X857250D01*
G01X914400Y507440D02*
X892350D01*
G03X885280Y504510I2J-10000D01*
G01X881540Y500770D01*
G02X874470Y497840I-7072J7070D01*
G01X857250D01*
G01X840230D02*
X857250D01*
G01X840230Y599440D02*
X857250D01*
G01Y650240D02*
X876050D01*
G02X883120Y647310I-2J-10000D01*
G01X886860Y643570D01*
G03X893930Y640640I7072J7070D01*
G01X914400D01*
G01X857250Y701040D02*
X876050D01*
G03X883120Y703970I-2J10000D01*
G01X886860Y707710D01*
G02X893930Y710640I7072J-7070D01*
G01X914400D01*
G01X840230Y701040D02*
X857250D01*
G01X840230Y802640D02*
X857250D01*
G01Y853440D02*
X876050D01*
G02X883120Y850510I-2J-10000D01*
G01X886860Y846770D01*
G03X893930Y843840I7072J7070D01*
G01X914400D01*
G01X857250Y904240D02*
X876050D01*
G03X883120Y907170I-2J10000D01*
G01X886860Y910910D01*
G02X893930Y913840I7072J-7070D01*
G01X914400D01*
G01X840230Y904240D02*
X857250D01*
G01X840230Y1266190D02*
X857250D01*
G01Y1316990D02*
X876050D01*
G02X883120Y1314060I-2J-10000D01*
G01X886860Y1310320D01*
G03X893930Y1307390I7072J7070D01*
G01X914400D01*
G01X857250Y1367790D02*
X876050D01*
G03X883120Y1370720I-2J10000D01*
G01X886860Y1374460D01*
G02X893930Y1377390I7072J-7070D01*
G01X914400D01*
G01X840230Y1367790D02*
X857250D01*
G01Y1520190D02*
X876050D01*
G02X883120Y1517260I-2J-10000D01*
G01X886860Y1513520D01*
G03X893930Y1510590I7072J7070D01*
G01X914400D01*
G01X840230Y1469390D02*
X857250D01*
G01Y1570990D02*
X876050D01*
G03X883120Y1573920I-2J10000D01*
G01X886860Y1577660D01*
G02X893930Y1580590I7072J-7070D01*
G01X914400D01*
G01X840230Y1570990D02*
X857250D01*
G01X840230Y1672590D02*
X857250D01*
G01Y1723390D02*
X876050D01*
G02X883120Y1720460I-2J-10000D01*
G01X886860Y1716720D01*
G03X893930Y1713790I7072J7070D01*
G01X914400D01*
G01X857250Y1774190D02*
X876050D01*
G03X883120Y1777120I-2J10000D01*
G01X886860Y1780860D01*
G02X893930Y1783790I7072J-7070D01*
G01X914400D01*
G01X840230Y1774190D02*
X857250D01*
G01X840230Y1875790D02*
X857250D01*
G01Y1977390D02*
X876050D01*
G03X883120Y1980320I-2J10000D01*
G01X886860Y1984060D01*
G02X893930Y1986990I7072J-7070D01*
G01X914400D01*
G01X840230Y1977390D02*
X857250D01*
G01Y1926590D02*
X876050D01*
G02X883120Y1923660I-2J-10000D01*
G01X886860Y1919920D01*
G03X893930Y1916990I7072J7070D01*
G01X914400D01*
G54D12*
X25400Y0D03*
X0D03*
X25400Y228600D03*
X0D03*
X25400Y482600D03*
X0D03*
X25400Y736600D03*
X0D03*
X50800Y0D03*
Y228600D03*
Y482600D03*
Y736600D03*
X117250Y1040690D03*
G54D21*
X283300Y193040D03*
X326300D03*
X283300Y294640D03*
X326300D03*
X283300Y396240D03*
X326300D03*
X283300Y497840D03*
X326300D03*
X283300Y599440D03*
X326300D03*
X283300Y701040D03*
X326300D03*
X283300Y802640D03*
X326300D03*
X283300Y904240D03*
X326300D03*
X283300Y1266190D03*
X326300D03*
X283300Y1367790D03*
X326300D03*
X283300Y1469390D03*
X326300D03*
X283300Y1570990D03*
X326300D03*
X283300Y1672590D03*
X326300D03*
X283300Y1774190D03*
X326300D03*
X283300Y1875790D03*
X326300D03*
X283300Y1977390D03*
X326300D03*
X419100Y139790D03*
Y182790D03*
Y342990D03*
Y385990D03*
Y546190D03*
Y589190D03*
Y749390D03*
Y792390D03*
Y1212940D03*
Y1255940D03*
Y1416140D03*
Y1459140D03*
Y1619340D03*
Y1662340D03*
Y1822540D03*
Y1865540D03*
X431800Y241390D03*
Y284390D03*
Y444590D03*
Y487590D03*
Y647790D03*
Y690790D03*
Y850990D03*
Y893990D03*
Y1314540D03*
Y1357540D03*
Y1517740D03*
Y1560740D03*
Y1720940D03*
Y1763940D03*
Y1924140D03*
Y1967140D03*
G54D31*
G01X167250Y193040D02*
Y181080D01*
G03X170180Y174010I10000J2D01*
G01X170200Y173990D01*
G01X161250Y208240D02*
Y203180D01*
G03X164180Y196110I10000J2D01*
G01X167250Y193040D01*
G01X170200Y161290D02*
X151600D01*
G02X146050Y163590I-3J7840D01*
G01X167250Y294640D02*
Y282680D01*
G03X170180Y275610I10000J2D01*
G01X170200Y275590D01*
G01X167250Y294640D02*
Y298100D01*
G03X164320Y305170I-10000J-2D01*
G01X161250Y308240D01*
Y309130D01*
G01X170200Y262890D02*
X151600D01*
G02X146050Y265190I-3J7840D01*
G01X167250Y396240D02*
Y384280D01*
G03X170180Y377210I10000J2D01*
G01X170200Y377190D01*
G01Y364490D02*
X151600D01*
G02X146050Y366790I-3J7840D01*
G01X167250Y396240D02*
Y402100D01*
G03X164320Y409170I-10000J-2D01*
G01X161250Y412240D01*
G01X167250Y497840D02*
Y485880D01*
G03X170180Y478810I10000J2D01*
G01X170200Y478790D01*
G01X167250Y497840D02*
Y502100D01*
G03X164320Y509170I-10000J-2D01*
G01X161250Y512240D01*
Y512330D01*
G01X170200Y466090D02*
X151600D01*
G02X146050Y468390I-3J7840D01*
G01X167250Y599440D02*
Y587480D01*
G03X170180Y580410I10000J2D01*
G01X170200Y580390D01*
G01X167250Y599440D02*
Y604100D01*
G03X164320Y611170I-10000J-2D01*
G01X161250Y614240D01*
G01X170200Y567690D02*
X151600D01*
G02X146050Y569990I-3J7840D01*
G01X167250Y701040D02*
Y689080D01*
G03X170180Y682010I10000J2D01*
G01X170200Y681990D01*
G01Y669290D02*
X151600D01*
G02X146050Y671590I-3J7840D01*
G01X167250Y701040D02*
Y708100D01*
G03X164320Y715170I-10000J-2D01*
G01X161250Y718240D01*
G01X167250Y802640D02*
Y790680D01*
G03X170180Y783610I10000J2D01*
G01X170200Y783590D01*
G01X167250Y802640D02*
Y808100D01*
G03X164320Y815170I-10000J-2D01*
G01X161250Y818240D01*
G01X170200Y770890D02*
X151600D01*
G02X146050Y773190I-3J7840D01*
G01X167250Y904240D02*
Y892280D01*
G03X170180Y885210I10000J2D01*
G01X170200Y885190D01*
G01X167250Y904240D02*
Y910100D01*
G03X164320Y917170I-10000J-2D01*
G01X161250Y920240D01*
G01X170200Y872490D02*
X151600D01*
G02X146050Y874790I-3J7840D01*
G01X167250Y1266190D02*
Y1254230D01*
G03X170180Y1247160I10000J2D01*
G01X170200Y1247140D01*
G01X167250Y1266190D02*
Y1270100D01*
G03X164320Y1277170I-10000J-2D01*
G01X161250Y1280240D01*
Y1280680D01*
G01X170200Y1234440D02*
X151600D01*
G02X146050Y1236740I-3J7840D01*
G01X167250Y1367790D02*
Y1355830D01*
G03X170180Y1348760I10000J2D01*
G01X170200Y1348740D01*
G01X167250Y1367790D02*
Y1376100D01*
G03X164320Y1383170I-10000J-2D01*
G01X161250Y1386240D01*
G01X170200Y1336040D02*
X151600D01*
G02X146050Y1338340I-3J7840D01*
G01X167250Y1469390D02*
Y1457430D01*
G03X170180Y1450360I10000J2D01*
G01X170200Y1450340D01*
G01Y1437640D02*
X151600D01*
G02X146050Y1439940I-3J7840D01*
G01X167250Y1469390D02*
Y1478100D01*
G03X164320Y1485170I-10000J-2D01*
G01X161250Y1488240D01*
G01X167250Y1570990D02*
Y1559030D01*
G03X170180Y1551960I10000J2D01*
G01X170200Y1551940D01*
G01X167250Y1570990D02*
Y1580100D01*
G03X164320Y1587170I-10000J-2D01*
G01X161250Y1590240D01*
G01X170200Y1539240D02*
X151600D01*
G02X146050Y1541540I-3J7840D01*
G01X167250Y1672590D02*
Y1660630D01*
G03X170180Y1653560I10000J2D01*
G01X170200Y1653540D01*
G01X167250Y1672590D02*
Y1682100D01*
G03X164320Y1689170I-10000J-2D01*
G01X161250Y1692240D01*
G01X170200Y1640840D02*
X151600D01*
G02X146050Y1643140I-3J7840D01*
G01X167250Y1774190D02*
Y1762230D01*
G03X170180Y1755160I10000J2D01*
G01X170200Y1755140D01*
G01Y1742440D02*
X151600D01*
G02X146050Y1744740I-3J7840D01*
G01X167250Y1774190D02*
Y1782100D01*
G03X164320Y1789170I-10000J-2D01*
G01X161250Y1792240D01*
G01X167250Y1875790D02*
Y1863830D01*
G03X170180Y1856760I10000J2D01*
G01X170200Y1856740D01*
G01X167250Y1875790D02*
Y1880100D01*
G03X164320Y1887170I-10000J-2D01*
G01X161250Y1890240D01*
Y1890280D01*
G01X146050Y1846340D02*
X164650D01*
G02X170200Y1844040I3J-7840D01*
G01X167250Y1977390D02*
Y1965430D01*
G03X170180Y1958360I10000J2D01*
G01X170200Y1958340D01*
G01X167250Y1977390D02*
Y1982100D01*
G03X164320Y1989170I-10000J-2D01*
G01X161250Y1992240D01*
G01X146050Y1947940D02*
X164650D01*
G02X170200Y1945640I3J-7840D01*
G01X280800Y148590D02*
X267650D01*
X267350Y148290D01*
X260350D01*
G01D02*
X253350D01*
X253050Y148590D01*
X236200D01*
G01Y173990D02*
X253050D01*
X253350Y174290D01*
X260350D01*
G01D02*
Y184150D01*
G02X269240Y193040I8890J0D01*
G01X283300D01*
G01X280800Y250190D02*
X267650D01*
X267350Y249890D01*
X260350D01*
G01D02*
X253350D01*
X253050Y250190D01*
X236200D01*
G01Y275590D02*
X253050D01*
X253350Y275890D01*
X260350D01*
G01D02*
Y285750D01*
G02X269240Y294640I8890J0D01*
G01X283300D01*
G01X280800Y351790D02*
X267650D01*
X267350Y351490D01*
X260350D01*
G01D02*
X253350D01*
X253050Y351790D01*
X236200D01*
G01Y377190D02*
X253050D01*
X253350Y377490D01*
X260350D01*
G01D02*
Y387350D01*
G02X269240Y396240I8890J0D01*
G01X283300D01*
G01X236200Y453390D02*
X253050D01*
X253350Y453090D01*
X260350D01*
G01D02*
X267350D01*
X267650Y453390D01*
X280800D01*
G01X260350Y479090D02*
Y488950D01*
G02X269240Y497840I8890J0D01*
G01X283300D01*
G01X260350Y479090D02*
X254090D01*
X253790Y478790D01*
X236200D01*
G01X280800Y554990D02*
X267650D01*
X267350Y554690D01*
X260350D01*
G01D02*
X253350D01*
X253050Y554990D01*
X236200D01*
G01Y580390D02*
X253050D01*
X253350Y580690D01*
X260350D01*
G01D02*
Y590550D01*
G02X269240Y599440I8890J0D01*
G01X283300D01*
G01X280800Y656590D02*
X267650D01*
X267350Y656290D01*
X260350D01*
G01D02*
X253350D01*
X253050Y656590D01*
X236200D01*
G01Y681990D02*
X253050D01*
X253350Y682290D01*
X260350D01*
G01D02*
Y692150D01*
G02X269240Y701040I8890J0D01*
G01X283300D01*
G01X280800Y758190D02*
X267650D01*
X267350Y757890D01*
X260350D01*
G01D02*
X253350D01*
X253050Y758190D01*
X236200D01*
G01Y783590D02*
X253050D01*
X253350Y783890D01*
X260350D01*
G01D02*
Y793750D01*
G02X269240Y802640I8890J0D01*
G01X283300D01*
G01Y904240D02*
X268550D01*
G03X260350Y896040I0J-8200D01*
G01Y885490D01*
G01D02*
X253350D01*
X253050Y885190D01*
X236200D01*
G01X260350Y859490D02*
X267350D01*
X267650Y859790D01*
X280800D01*
G01X260350Y859490D02*
X254090D01*
X253790Y859790D01*
X236200D01*
G01Y1221740D02*
X253050D01*
X253350Y1221440D01*
X260350D01*
G01D02*
X267350D01*
X267650Y1221740D01*
X280800D01*
G01X236200Y1247140D02*
X253050D01*
X253350Y1247440D01*
X260350D01*
G01D02*
Y1257300D01*
G02X269240Y1266190I8890J0D01*
G01X283300D01*
G01X236200Y1323340D02*
X253050D01*
X253350Y1323040D01*
X260350D01*
G01D02*
X267350D01*
X267650Y1323340D01*
X280800D01*
G01X236200Y1348740D02*
X253050D01*
X253350Y1349040D01*
X260350D01*
G01D02*
Y1358900D01*
G02X269240Y1367790I8890J0D01*
G01X283300D01*
G01X236200Y1424940D02*
X253050D01*
X253350Y1424640D01*
X260350D01*
G01D02*
X267350D01*
X267650Y1424940D01*
X280800D01*
G01X236200Y1450340D02*
X253050D01*
X253350Y1450640D01*
X260350D01*
G01D02*
Y1460500D01*
G02X269240Y1469390I8890J0D01*
G01X283300D01*
G01X260350Y1526240D02*
X267350D01*
X267650Y1526540D01*
X280800D01*
G01X260350Y1526240D02*
X254090D01*
X253790Y1526540D01*
X236200D01*
G01X260350Y1552240D02*
Y1562100D01*
G02X269240Y1570990I8890J0D01*
G01X283300D01*
G01X260350Y1552240D02*
X254090D01*
X253790Y1551940D01*
X236200D01*
G01X280800Y1628140D02*
X267650D01*
X267350Y1627840D01*
X260350D01*
G01D02*
X253350D01*
X253050Y1628140D01*
X236200D01*
G01Y1653540D02*
X253050D01*
X253350Y1653840D01*
X260350D01*
G01D02*
Y1663700D01*
G02X269240Y1672590I8890J0D01*
G01X283300D01*
G01X260350Y1729440D02*
X267350D01*
X267650Y1729740D01*
X280800D01*
G01X260350Y1729440D02*
X254090D01*
X253790Y1729740D01*
X236200D01*
G01X260350Y1755440D02*
Y1765300D01*
G02X269240Y1774190I8890J0D01*
G01X283300D01*
G01X260350Y1755440D02*
X254090D01*
X253790Y1755140D01*
X236200D01*
G01Y1831340D02*
X253050D01*
X253350Y1831040D01*
X260350D01*
G01D02*
X267350D01*
X267650Y1831340D01*
X280800D01*
G01X236200Y1856740D02*
X253050D01*
X253350Y1857040D01*
X260350D01*
G01D02*
Y1866900D01*
G02X269240Y1875790I8890J0D01*
G01X283300D01*
G01X260350Y1958640D02*
Y1968500D01*
G02X269240Y1977390I8890J0D01*
G01X283300D01*
G01X236200Y1958340D02*
X253050D01*
X253350Y1958640D01*
X260350D01*
G01X236200Y1932940D02*
X253050D01*
X253350Y1932640D01*
X260350D01*
G01D02*
X267350D01*
X267650Y1932940D01*
X280800D01*
G01X273050Y173990D02*
X277870Y169170D01*
G02X280800Y162100I-7070J-7072D01*
G01Y148590D01*
G01X298450Y173990D02*
G03X295690Y180650I-9410J2D01*
G01X283300Y193040D01*
G01X273050Y275430D02*
X277870Y270610D01*
G02X280800Y263540I-7070J-7072D01*
G01Y250190D01*
G01X298450Y275590D02*
G03X295690Y282250I-9410J2D01*
G01X283300Y294640D01*
G01X273050Y377190D02*
X277870Y372370D01*
G02X280800Y365300I-7070J-7072D01*
G01Y351790D01*
G01X298450Y377190D02*
G03X295690Y383850I-9410J2D01*
G01X283300Y396240D01*
G01X273050Y478630D02*
X277870Y473810D01*
G02X280800Y466740I-7070J-7072D01*
G01Y453390D01*
G01X298450Y478790D02*
G03X295690Y485450I-9410J2D01*
G01X283300Y497840D01*
G01X273050Y580390D02*
X277870Y575570D01*
G02X280800Y568500I-7070J-7072D01*
G01Y554990D01*
G01X298450Y580390D02*
G03X295690Y587050I-9410J2D01*
G01X283300Y599440D01*
G01X273050Y681830D02*
X277870Y677010D01*
G02X280800Y669940I-7070J-7072D01*
G01Y656590D01*
G01X298450Y681990D02*
G03X295690Y688650I-9410J2D01*
G01X283300Y701040D01*
G01X273050Y783590D02*
X277870Y778770D01*
G02X280800Y771700I-7070J-7072D01*
G01Y758190D01*
G01X298450Y783590D02*
G03X295690Y790250I-9410J2D01*
G01X283300Y802640D01*
G01X298450Y885190D02*
G03X295690Y891850I-9410J2D01*
G01X283300Y904240D01*
G01X273050Y885030D02*
X277870Y880210D01*
G02X280800Y873140I-7070J-7072D01*
G01Y859790D01*
G01X273050Y1247140D02*
X277870Y1242320D01*
G02X280800Y1235250I-7070J-7072D01*
G01Y1221740D01*
G01X298450Y1247140D02*
G03X295690Y1253800I-9410J2D01*
G01X283300Y1266190D01*
G01X273050Y1348580D02*
X277870Y1343760D01*
G02X280800Y1336690I-7070J-7072D01*
G01Y1323340D01*
G01X298450Y1348740D02*
G03X295690Y1355400I-9410J2D01*
G01X283300Y1367790D01*
G01X273050Y1450340D02*
X277870Y1445520D01*
G02X280800Y1438450I-7070J-7072D01*
G01Y1424940D01*
G01X298450Y1450340D02*
G03X295690Y1457000I-9410J2D01*
G01X283300Y1469390D01*
G01X273050Y1551780D02*
X277870Y1546960D01*
G02X280800Y1539890I-7070J-7072D01*
G01Y1526540D01*
G01X298450Y1551940D02*
G03X295690Y1558600I-9410J2D01*
G01X283300Y1570990D01*
G01X273050Y1653540D02*
X277870Y1648720D01*
G02X280800Y1641650I-7070J-7072D01*
G01Y1628140D01*
G01X298450Y1653540D02*
G03X295690Y1660200I-9410J2D01*
G01X283300Y1672590D01*
G01X273050Y1754980D02*
X277870Y1750160D01*
G02X280800Y1743090I-7070J-7072D01*
G01Y1729740D01*
G01X298450Y1755140D02*
G03X295690Y1761800I-9410J2D01*
G01X283300Y1774190D01*
G01X273050Y1856740D02*
X277870Y1851920D01*
G02X280800Y1844850I-7070J-7072D01*
G01Y1831340D01*
G01X298450Y1856740D02*
G03X295690Y1863400I-9410J2D01*
G01X283300Y1875790D01*
G01X298450Y1958340D02*
G03X295690Y1965000I-9410J2D01*
G01X283300Y1977390D01*
G01X273050Y1958180D02*
X277870Y1953360D01*
G02X280800Y1946290I-7070J-7072D01*
G01Y1932940D01*
G54D22*
X361950Y142640D03*
Y345840D03*
Y549040D03*
Y752240D03*
Y1215790D03*
Y1418990D03*
Y1622190D03*
Y1825390D03*
X488950Y244240D03*
Y447440D03*
Y650640D03*
Y853840D03*
Y1317390D03*
Y1520590D03*
Y1723790D03*
Y1926990D03*
X615950Y142640D03*
Y345840D03*
Y549040D03*
Y752240D03*
Y1215790D03*
Y1418990D03*
Y1622190D03*
Y1825390D03*
X742950Y244240D03*
Y447440D03*
Y650640D03*
Y853840D03*
Y1317390D03*
Y1520590D03*
Y1723790D03*
Y1926990D03*
G54D13*
X25400Y76200D03*
Y50800D03*
Y25400D03*
X0Y76200D03*
Y50800D03*
Y25400D03*
X25400Y152400D03*
Y127000D03*
Y101600D03*
X0Y152400D03*
Y127000D03*
Y101600D03*
X25400Y203200D03*
Y177800D03*
X0Y203200D03*
Y177800D03*
X25400Y304800D03*
Y279400D03*
Y254000D03*
X0Y304800D03*
Y279400D03*
Y254000D03*
X25400Y381000D03*
Y355600D03*
Y330200D03*
X0Y381000D03*
Y355600D03*
Y330200D03*
X25400Y457200D03*
Y431800D03*
Y406400D03*
X0Y457200D03*
Y431800D03*
Y406400D03*
X25400Y533400D03*
Y508000D03*
X0Y533400D03*
Y508000D03*
X25400Y609600D03*
Y584200D03*
Y558800D03*
X0Y609600D03*
Y584200D03*
Y558800D03*
X25400Y685800D03*
Y660400D03*
Y635000D03*
X0Y685800D03*
Y660400D03*
Y635000D03*
X25400Y762000D03*
Y711200D03*
X0Y762000D03*
Y711200D03*
X25400Y787400D03*
X0D03*
X50800Y76200D03*
Y50800D03*
Y25400D03*
Y152400D03*
Y127000D03*
Y101600D03*
Y203200D03*
Y177800D03*
Y304800D03*
Y279400D03*
Y254000D03*
Y381000D03*
Y355600D03*
Y330200D03*
Y457200D03*
Y431800D03*
Y406400D03*
Y533400D03*
Y508000D03*
Y609600D03*
Y584200D03*
Y558800D03*
Y685800D03*
Y660400D03*
Y635000D03*
Y762000D03*
Y711200D03*
Y787400D03*
G54D32*
G01X25400Y-11270D02*
Y0D01*
G01D02*
Y11270D01*
G01X14130Y0D02*
X25400D01*
G01D02*
X36670D01*
G01X25400Y14130D02*
Y25400D01*
G01X14130D02*
X25400D01*
G01D02*
X36670D01*
G01X25400Y152400D02*
Y163670D01*
G01X14130Y152400D02*
X25400D01*
G01D02*
X36670D01*
G01X25400Y166530D02*
Y177800D01*
G01D02*
Y189070D01*
G01X14130Y177800D02*
X25400D01*
G01D02*
X36670D01*
G01X25400Y191930D02*
Y203200D01*
G01D02*
Y214470D01*
G01X14130Y203200D02*
X25400D01*
G01D02*
X36670D01*
G01X25400Y217330D02*
Y228600D01*
G01D02*
Y239870D01*
G01X14130Y228600D02*
X25400D01*
G01D02*
X36670D01*
G01X25400Y242730D02*
Y254000D01*
G01D02*
Y265270D01*
G01X14130Y254000D02*
X25400D01*
G01D02*
X36670D01*
G01X25400Y268130D02*
Y279400D01*
G01D02*
Y290670D01*
G01X14130Y279400D02*
X25400D01*
G01D02*
X36670D01*
G01X25400Y293530D02*
Y304800D01*
G01D02*
Y316070D01*
G01X14130Y304800D02*
X25400D01*
G01D02*
X36670D01*
G01X25400Y318930D02*
Y330200D01*
G01D02*
Y341470D01*
G01X14130Y330200D02*
X25400D01*
G01D02*
X36670D01*
G01X25400Y344330D02*
Y355600D01*
G01D02*
Y366870D01*
G01X14130Y355600D02*
X25400D01*
G01D02*
X36670D01*
G01X25400Y369730D02*
Y381000D01*
G01D02*
Y392270D01*
G01X14130Y381000D02*
X25400D01*
G01D02*
X36670D01*
G01X25400Y395130D02*
Y406400D01*
G01D02*
Y417670D01*
G01X14130Y406400D02*
X25400D01*
G01D02*
X36670D01*
G01X25400Y420530D02*
Y431800D01*
G01D02*
Y443070D01*
G01X14130Y431800D02*
X25400D01*
G01D02*
X36670D01*
G01X25400Y445930D02*
Y457200D01*
G01D02*
Y468470D01*
G01X14130Y457200D02*
X25400D01*
G01D02*
X36670D01*
G01X25400Y496730D02*
Y508000D01*
G01D02*
Y519270D01*
G01X14130Y508000D02*
X25400D01*
G01D02*
X36670D01*
G01X25400Y522130D02*
Y533400D01*
G01D02*
Y544670D01*
G01X14130Y533400D02*
X25400D01*
G01D02*
X36670D01*
G01X25400Y471330D02*
Y482600D01*
G01D02*
Y493870D01*
G01X14130Y482600D02*
X25400D01*
G01D02*
X36670D01*
G01X25400Y547530D02*
Y558800D01*
G01D02*
Y570070D01*
G01X14130Y558800D02*
X25400D01*
G01D02*
X36670D01*
G01X25400Y572930D02*
Y584200D01*
G01D02*
Y595470D01*
G01X14130Y584200D02*
X25400D01*
G01D02*
X36670D01*
G01X25400Y598330D02*
Y609600D01*
G01D02*
Y620870D01*
G01X14130Y609600D02*
X25400D01*
G01D02*
X36670D01*
G01X25400Y623730D02*
Y635000D01*
G01D02*
Y646270D01*
G01X14130Y635000D02*
X25400D01*
G01D02*
X36670D01*
G01X25400Y649130D02*
Y660400D01*
G01D02*
Y671670D01*
G01X14130Y660400D02*
X25400D01*
G01D02*
X36670D01*
G01X25400Y674530D02*
Y685800D01*
G01D02*
Y697070D01*
G01X14130Y685800D02*
X25400D01*
G01D02*
X36670D01*
G01X0Y750730D02*
Y762000D01*
G01D02*
Y773270D01*
G01X-11270Y762000D02*
X0D01*
G01D02*
X11270D01*
G01X25400Y699930D02*
Y711200D01*
G01D02*
Y722470D01*
G01X14130Y711200D02*
X25400D01*
G01D02*
X36670D01*
G01X25400Y750730D02*
Y762000D01*
G01D02*
Y773270D01*
G01X14130Y762000D02*
X25400D01*
G01D02*
X36670D01*
G01X25400Y725330D02*
Y736600D01*
G01D02*
Y747870D01*
G01X14130Y736600D02*
X25400D01*
G01D02*
X36670D01*
G01X50800Y750730D02*
Y762000D01*
G01D02*
Y773270D01*
G01X39530Y762000D02*
X50800D01*
G01D02*
X62070D01*
G01X105730Y1066090D02*
X117250D01*
G01X105980Y1040690D02*
X117250D01*
G01X170200Y141820D02*
Y148590D01*
G01X150250Y182520D02*
Y193040D01*
G01D02*
Y203560D01*
G01X141230Y193040D02*
X150250D01*
G01Y284120D02*
Y294640D01*
G01D02*
Y305160D01*
G01X141230Y294640D02*
X150250D01*
G01X170200Y243420D02*
Y250190D01*
G01X158930D02*
X170200D01*
G01X150250Y385720D02*
Y396240D01*
G01X170200Y345020D02*
Y351790D01*
G01X158930D02*
X170200D01*
G01X150250Y396240D02*
Y406760D01*
G01X141230Y396240D02*
X150250D01*
G01X170200Y446620D02*
Y453390D01*
G01X158930D02*
X170200D01*
G01X150250Y487320D02*
Y497840D01*
G01D02*
Y508360D01*
G01X141230Y497840D02*
X150250D01*
G01Y588920D02*
Y599440D01*
G01D02*
Y609960D01*
G01X141230Y599440D02*
X150250D01*
G01X170200Y548220D02*
Y554990D01*
G01X158930D02*
X170200D01*
G01X150250Y690520D02*
Y701040D01*
G01X170200Y649820D02*
Y656590D01*
G01X158930D02*
X170200D01*
G01X150250Y701040D02*
Y711560D01*
G01X141230Y701040D02*
X150250D01*
G01X170200Y751420D02*
Y758190D01*
G01X158930D02*
X170200D01*
G01X150250Y792120D02*
Y802640D01*
G01D02*
Y813160D01*
G01X141230Y802640D02*
X150250D01*
G01Y893720D02*
Y904240D01*
G01D02*
Y914760D01*
G01X141230Y904240D02*
X150250D01*
G01X170200Y853020D02*
Y859790D01*
G01X158930D02*
X170200D01*
G01X117250Y1054570D02*
Y1066090D01*
G01D02*
Y1077610D01*
G01Y1066090D02*
X128770D01*
G01X117250Y1029420D02*
Y1040690D01*
G01D02*
Y1051960D01*
G01Y1040690D02*
X128520D01*
G01X170200Y1214970D02*
Y1221740D01*
G01X158930D02*
X170200D01*
G01X150250Y1255670D02*
Y1266190D01*
G01D02*
Y1276710D01*
G01X141230Y1266190D02*
X150250D01*
G01Y1357270D02*
Y1367790D01*
G01D02*
Y1378310D01*
G01X141230Y1367790D02*
X150250D01*
G01X170200Y1316570D02*
Y1323340D01*
G01X158930D02*
X170200D01*
G01Y1418170D02*
Y1424940D01*
G01X158930D02*
X170200D01*
G01X150250Y1458870D02*
Y1469390D01*
G01D02*
Y1479910D01*
G01X141230Y1469390D02*
X150250D01*
G01X170200Y1519770D02*
Y1526540D01*
G01X158930D02*
X170200D01*
G01X150250Y1560470D02*
Y1570990D01*
G01D02*
Y1581510D01*
G01X141230Y1570990D02*
X150250D01*
G01Y1662070D02*
Y1672590D01*
G01D02*
Y1683110D01*
G01X141230Y1672590D02*
X150250D01*
G01X170200Y1621370D02*
Y1628140D01*
G01X158930D02*
X170200D01*
G01Y1722970D02*
Y1729740D01*
G01X158930D02*
X170200D01*
G01X150250Y1763670D02*
Y1774190D01*
G01D02*
Y1784710D01*
G01X141230Y1774190D02*
X150250D01*
G01X170200Y1824570D02*
Y1831340D01*
G01X158930D02*
X170200D01*
G01X150250Y1865270D02*
Y1875790D01*
G01D02*
Y1886310D01*
G01X141230Y1875790D02*
X150250D01*
G01Y1966870D02*
Y1977390D01*
G01D02*
Y1987910D01*
G01X141230Y1977390D02*
X150250D01*
G01X170200Y1926170D02*
Y1932940D01*
G01X158930D02*
X170200D01*
G01X318780Y148590D02*
X328800D01*
G01D02*
X338820D01*
G01X326300Y177270D02*
Y193040D01*
G01D02*
X342070Y177270D01*
G01X326300Y279870D02*
Y294640D01*
G01X318920Y279870D02*
X326300Y294640D01*
G01X318780Y250190D02*
X328800D01*
G01D02*
X338820D01*
G01X326300Y380470D02*
Y396240D01*
G01D02*
X342070Y380470D01*
G01X318780Y351790D02*
X328800D01*
G01D02*
X338820D01*
G01X318780Y453390D02*
X328800D01*
G01D02*
X338820D01*
G01X326300Y483070D02*
Y497840D01*
G01X318920Y483070D02*
X326300Y497840D01*
G01Y583670D02*
Y599440D01*
G01D02*
X342070Y583670D01*
G01X318780Y554990D02*
X328800D01*
G01D02*
X338820D01*
G01X326300Y686270D02*
Y701040D01*
G01X318920Y686270D02*
X326300Y701040D01*
G01X318780Y656590D02*
X328800D01*
G01D02*
X338820D01*
G01X318780Y758190D02*
X328800D01*
G01D02*
X338820D01*
G01X326300Y786870D02*
Y802640D01*
G01D02*
X342070Y786870D01*
G01X326300Y889470D02*
Y904240D01*
G01X318920Y889470D02*
X326300Y904240D01*
G01X318780Y859790D02*
X328800D01*
G01D02*
X338820D01*
G01X318780Y1221740D02*
X328800D01*
G01D02*
X338820D01*
G01X326300Y1250420D02*
Y1266190D01*
G01D02*
X342070Y1250420D01*
G01X326300Y1353020D02*
Y1367790D01*
G01X318920Y1353020D02*
X326300Y1367790D01*
G01X318780Y1323340D02*
X328800D01*
G01D02*
X338820D01*
G01X326300Y1453620D02*
Y1469390D01*
G01D02*
X342070Y1453620D01*
G01X318780Y1424940D02*
X328800D01*
G01D02*
X338820D01*
G01X318780Y1526540D02*
X328800D01*
G01D02*
X338820D01*
G01X326300Y1556220D02*
Y1570990D01*
G01X318920Y1556220D02*
X326300Y1570990D01*
G01Y1656820D02*
Y1672590D01*
G01D02*
X342070Y1656820D01*
G01X318780Y1628140D02*
X328800D01*
G01D02*
X338820D01*
G01X326300Y1759420D02*
Y1774190D01*
G01X318920Y1759420D02*
X326300Y1774190D01*
G01X318780Y1729740D02*
X328800D01*
G01D02*
X338820D01*
G01X318780Y1831340D02*
X328800D01*
G01D02*
X338820D01*
G01X326300Y1860020D02*
Y1875790D01*
G01D02*
X342070Y1860020D01*
G01X326300Y1962620D02*
Y1977390D01*
G01X318920Y1962620D02*
X326300Y1977390D01*
G01X318780Y1932940D02*
X328800D01*
G01D02*
X338820D01*
G01X404330Y139790D02*
X419100D01*
G01X403330Y182790D02*
X419100D01*
G01X417030Y284390D02*
X431800D01*
G01X355600Y276870D02*
Y286890D01*
G01D02*
Y296910D01*
G01Y286890D02*
X373620D01*
G01X393700Y276870D02*
Y286890D01*
G01D02*
Y296910D01*
G01X375680Y286890D02*
X393700D01*
G01D02*
X411720D01*
G01X417030Y241390D02*
X431800D01*
G01X355600Y238890D02*
Y248910D01*
G01Y238890D02*
X373620D01*
G01X393700D02*
Y248910D01*
G01X375680Y238890D02*
X393700D01*
G01D02*
X411720D01*
G01X403330Y385990D02*
X419100D01*
G01X404330Y342990D02*
X419100D01*
G01X417030Y444590D02*
X431800D01*
G01X355600Y442090D02*
Y452110D01*
G01Y442090D02*
X373620D01*
G01X393700D02*
Y452110D01*
G01X375680Y442090D02*
X393700D01*
G01D02*
X411720D01*
G01X417030Y487590D02*
X431800D01*
G01X355600Y480070D02*
Y490090D01*
G01D02*
Y500110D01*
G01Y490090D02*
X373620D01*
G01X393700Y480070D02*
Y490090D01*
G01D02*
Y500110D01*
G01X375680Y490090D02*
X393700D01*
G01D02*
X411720D01*
G01X403330Y589190D02*
X419100D01*
G01X404330Y546190D02*
X419100D01*
G01X417030Y690790D02*
X431800D01*
G01X355600Y683270D02*
Y693290D01*
G01D02*
Y703310D01*
G01Y693290D02*
X373620D01*
G01X393700Y683270D02*
Y693290D01*
G01D02*
Y703310D01*
G01X375680Y693290D02*
X393700D01*
G01D02*
X411720D01*
G01X417030Y647790D02*
X431800D01*
G01X355600Y645290D02*
Y655310D01*
G01Y645290D02*
X373620D01*
G01X393700D02*
Y655310D01*
G01X375680Y645290D02*
X393700D01*
G01D02*
X411720D01*
G01X404330Y749390D02*
X419100D01*
G01X403330Y792390D02*
X419100D01*
G01X417030Y893990D02*
X431800D01*
G01X355600Y886470D02*
Y896490D01*
G01D02*
Y906510D01*
G01Y896490D02*
X373620D01*
G01X393700Y886470D02*
Y896490D01*
G01D02*
Y906510D01*
G01X375680Y896490D02*
X393700D01*
G01D02*
X411720D01*
G01X417030Y850990D02*
X431800D01*
G01X355600Y848490D02*
Y858510D01*
G01Y848490D02*
X373620D01*
G01X393700D02*
Y858510D01*
G01X375680Y848490D02*
X393700D01*
G01D02*
X411720D01*
G01X404330Y1212940D02*
X419100D01*
G01X403330Y1255940D02*
X419100D01*
G01X417030Y1357540D02*
X431800D01*
G01X355600Y1350020D02*
Y1360040D01*
G01D02*
Y1370060D01*
G01Y1360040D02*
X373620D01*
G01X393700Y1350020D02*
Y1360040D01*
G01D02*
Y1370060D01*
G01X375680Y1360040D02*
X393700D01*
G01D02*
X411720D01*
G01X417030Y1314540D02*
X431800D01*
G01X355600Y1312040D02*
Y1322060D01*
G01Y1312040D02*
X373620D01*
G01X393700D02*
Y1322060D01*
G01X375680Y1312040D02*
X393700D01*
G01D02*
X411720D01*
G01X404330Y1416140D02*
X419100D01*
G01X403330Y1459140D02*
X419100D01*
G01X417030Y1517740D02*
X431800D01*
G01X355600Y1515240D02*
Y1525260D01*
G01Y1515240D02*
X373620D01*
G01X393700D02*
Y1525260D01*
G01X375680Y1515240D02*
X393700D01*
G01D02*
X411720D01*
G01X417030Y1560740D02*
X431800D01*
G01X355600Y1553220D02*
Y1563240D01*
G01D02*
Y1573260D01*
G01Y1563240D02*
X373620D01*
G01X393700Y1553220D02*
Y1563240D01*
G01D02*
Y1573260D01*
G01X375680Y1563240D02*
X393700D01*
G01D02*
X411720D01*
G01X403330Y1662340D02*
X419100D01*
G01X404330Y1619340D02*
X419100D01*
G01X355600Y1756420D02*
Y1766440D01*
G01X393700Y1756420D02*
Y1766440D01*
G01X417030Y1720940D02*
X431800D01*
G01X355600Y1718440D02*
Y1728460D01*
G01Y1718440D02*
X373620D01*
G01X393700D02*
Y1728460D01*
G01X375680Y1718440D02*
X393700D01*
G01D02*
X411720D01*
G01X417030Y1763940D02*
X431800D01*
G01X355600Y1766440D02*
Y1776460D01*
G01Y1766440D02*
X373620D01*
G01X393700D02*
Y1776460D01*
G01X375680Y1766440D02*
X393700D01*
G01D02*
X411720D01*
G01X404330Y1822540D02*
X419100D01*
G01X403330Y1865540D02*
X419100D01*
G01X417030Y1967140D02*
X431800D01*
G01X355600Y1959620D02*
Y1969640D01*
G01D02*
Y1979660D01*
G01Y1969640D02*
X373620D01*
G01X393700Y1959620D02*
Y1969640D01*
G01D02*
Y1979660D01*
G01X375680Y1969640D02*
X393700D01*
G01D02*
X411720D01*
G01X417030Y1924140D02*
X431800D01*
G01X355600Y1921640D02*
Y1931660D01*
G01Y1921640D02*
X373620D01*
G01X393700D02*
Y1931660D01*
G01X375680Y1921640D02*
X393700D01*
G01D02*
X411720D01*
G01X477280Y137290D02*
X495300D01*
G01X457200D02*
Y147310D01*
G01X439180Y137290D02*
X457200D01*
G01D02*
X475220D01*
G01X419100Y139790D02*
X433870D01*
G01X476280Y185290D02*
X495300D01*
G01X457200Y174270D02*
Y185290D01*
G01D02*
Y196310D01*
G01X438180Y185290D02*
X457200D01*
G01D02*
X476220D01*
G01X419100Y182790D02*
Y198560D01*
G01Y182790D02*
X434870D01*
G01X431800Y284390D02*
Y299160D01*
G01Y284390D02*
X446570D01*
G01X431800Y241390D02*
X446570D01*
G01X476280Y388490D02*
X495300D01*
G01X457200Y377470D02*
Y388490D01*
G01D02*
Y399510D01*
G01X438180Y388490D02*
X457200D01*
G01D02*
X476220D01*
G01X419100Y385990D02*
Y401760D01*
G01Y385990D02*
X434870D01*
G01X477280Y340490D02*
X495300D01*
G01X457200D02*
Y350510D01*
G01X439180Y340490D02*
X457200D01*
G01D02*
X475220D01*
G01X419100Y342990D02*
X433870D01*
G01X431800Y444590D02*
X446570D01*
G01X431800Y487590D02*
Y502360D01*
G01Y487590D02*
X446570D01*
G01X476280Y591690D02*
X495300D01*
G01X457200Y580670D02*
Y591690D01*
G01D02*
Y602710D01*
G01X438180Y591690D02*
X457200D01*
G01D02*
X476220D01*
G01X419100Y589190D02*
Y604960D01*
G01Y589190D02*
X434870D01*
G01X477280Y543690D02*
X495300D01*
G01X457200D02*
Y553710D01*
G01X439180Y543690D02*
X457200D01*
G01D02*
X475220D01*
G01X419100Y546190D02*
X433870D01*
G01X431800Y690790D02*
Y705560D01*
G01Y690790D02*
X446570D01*
G01X431800Y647790D02*
X446570D01*
G01X477280Y746890D02*
X495300D01*
G01X457200D02*
Y756910D01*
G01X439180Y746890D02*
X457200D01*
G01D02*
X475220D01*
G01X419100Y749390D02*
X433870D01*
G01X476280Y794890D02*
X495300D01*
G01X457200Y783870D02*
Y794890D01*
G01D02*
Y805910D01*
G01X438180Y794890D02*
X457200D01*
G01D02*
X476220D01*
G01X419100Y792390D02*
Y808160D01*
G01Y792390D02*
X434870D01*
G01X431800Y893990D02*
Y908760D01*
G01Y893990D02*
X446570D01*
G01X431800Y850990D02*
X446570D01*
G01X477280Y1210440D02*
X495300D01*
G01X457200D02*
Y1220460D01*
G01X439180Y1210440D02*
X457200D01*
G01D02*
X475220D01*
G01X419100Y1212940D02*
X433870D01*
G01X476280Y1258440D02*
X495300D01*
G01X457200Y1247420D02*
Y1258440D01*
G01D02*
Y1269460D01*
G01X438180Y1258440D02*
X457200D01*
G01D02*
X476220D01*
G01X419100Y1255940D02*
Y1271710D01*
G01Y1255940D02*
X434870D01*
G01X431800Y1357540D02*
Y1372310D01*
G01Y1357540D02*
X446570D01*
G01X431800Y1314540D02*
X446570D01*
G01X457200Y1450620D02*
Y1461640D01*
G01X477280Y1413640D02*
X495300D01*
G01X457200D02*
Y1423660D01*
G01X439180Y1413640D02*
X457200D01*
G01D02*
X475220D01*
G01X419100Y1416140D02*
X433870D01*
G01X476280Y1461640D02*
X495300D01*
G01X457200D02*
Y1472660D01*
G01X438180Y1461640D02*
X457200D01*
G01D02*
X476220D01*
G01X419100Y1459140D02*
Y1474910D01*
G01Y1459140D02*
X434870D01*
G01X431800Y1517740D02*
X446570D01*
G01X431800Y1560740D02*
Y1575510D01*
G01Y1560740D02*
X446570D01*
G01X476280Y1664840D02*
X495300D01*
G01X457200Y1653820D02*
Y1664840D01*
G01D02*
Y1675860D01*
G01X438180Y1664840D02*
X457200D01*
G01D02*
X476220D01*
G01X419100Y1662340D02*
Y1678110D01*
G01Y1662340D02*
X434870D01*
G01X477280Y1616840D02*
X495300D01*
G01X457200D02*
Y1626860D01*
G01X439180Y1616840D02*
X457200D01*
G01D02*
X475220D01*
G01X419100Y1619340D02*
X433870D01*
G01X431800Y1720940D02*
X446570D01*
G01X431800Y1763940D02*
Y1778710D01*
G01Y1763940D02*
X446570D01*
G01X477280Y1820040D02*
X495300D01*
G01X457200D02*
Y1830060D01*
G01X439180Y1820040D02*
X457200D01*
G01D02*
X475220D01*
G01X419100Y1822540D02*
X433870D01*
G01X476280Y1868040D02*
X495300D01*
G01X457200Y1857020D02*
Y1868040D01*
G01D02*
Y1879060D01*
G01X438180Y1868040D02*
X457200D01*
G01D02*
X476220D01*
G01X419100Y1865540D02*
Y1881310D01*
G01Y1865540D02*
X434870D01*
G01X431800Y1967140D02*
Y1981910D01*
G01Y1967140D02*
X446570D01*
G01X431800Y1924140D02*
X446570D01*
G01X527050Y135520D02*
Y146290D01*
G01X513530D02*
X527050D01*
G01X495300Y137290D02*
Y147310D01*
G01Y137290D02*
X513320D01*
G01X527050Y176290D02*
Y188060D01*
G01Y176290D02*
X541570D01*
G01X495300Y174270D02*
Y185290D01*
G01D02*
Y196310D01*
G01X527050Y277890D02*
Y288660D01*
G01X513530Y277890D02*
X527050D01*
G01D02*
X540570D01*
G01X527050Y237120D02*
Y247890D01*
G01X513530D02*
X527050D01*
G01Y379490D02*
Y391260D01*
G01Y379490D02*
X541570D01*
G01X495300Y377470D02*
Y388490D01*
G01D02*
Y399510D01*
G01X527050Y338720D02*
Y349490D01*
G01X513530D02*
X527050D01*
G01X495300Y340490D02*
Y350510D01*
G01Y340490D02*
X513320D01*
G01X527050Y440320D02*
Y451090D01*
G01X513530D02*
X527050D01*
G01Y481090D02*
Y491860D01*
G01X513530Y481090D02*
X527050D01*
G01D02*
X540570D01*
G01X527050Y582690D02*
Y594460D01*
G01Y582690D02*
X541570D01*
G01X495300Y580670D02*
Y591690D01*
G01D02*
Y602710D01*
G01X527050Y541920D02*
Y552690D01*
G01X513530D02*
X527050D01*
G01X495300Y543690D02*
Y553710D01*
G01Y543690D02*
X513320D01*
G01X527050Y684290D02*
Y695060D01*
G01X513530Y684290D02*
X527050D01*
G01D02*
X540570D01*
G01X527050Y643520D02*
Y654290D01*
G01X513530D02*
X527050D01*
G01Y745120D02*
Y755890D01*
G01X513530D02*
X527050D01*
G01X495300Y746890D02*
Y756910D01*
G01Y746890D02*
X513320D01*
G01X527050Y785890D02*
Y797660D01*
G01Y785890D02*
X541570D01*
G01X495300Y783870D02*
Y794890D01*
G01D02*
Y805910D01*
G01X527050Y887490D02*
Y898260D01*
G01X513530Y887490D02*
X527050D01*
G01D02*
X540570D01*
G01X527050Y846720D02*
Y857490D01*
G01X513530D02*
X527050D01*
G01Y1208670D02*
Y1219440D01*
G01X513530D02*
X527050D01*
G01X495300Y1210440D02*
Y1220460D01*
G01Y1210440D02*
X513320D01*
G01X527050Y1249440D02*
Y1261210D01*
G01Y1249440D02*
X541570D01*
G01X495300Y1247420D02*
Y1258440D01*
G01D02*
Y1269460D01*
G01X527050Y1351040D02*
Y1361810D01*
G01X513530Y1351040D02*
X527050D01*
G01D02*
X540570D01*
G01X527050Y1310270D02*
Y1321040D01*
G01X513530D02*
X527050D01*
G01Y1452640D02*
Y1464410D01*
G01Y1452640D02*
X541570D01*
G01X495300Y1450620D02*
Y1461640D01*
G01X527050Y1411870D02*
Y1422640D01*
G01X513530D02*
X527050D01*
G01X495300Y1413640D02*
Y1423660D01*
G01Y1413640D02*
X513320D01*
G01X495300Y1461640D02*
Y1472660D01*
G01X527050Y1513470D02*
Y1524240D01*
G01X513530D02*
X527050D01*
G01Y1554240D02*
Y1565010D01*
G01X513530Y1554240D02*
X527050D01*
G01D02*
X540570D01*
G01X527050Y1655840D02*
Y1667610D01*
G01Y1655840D02*
X541570D01*
G01X495300Y1653820D02*
Y1664840D01*
G01D02*
Y1675860D01*
G01X527050Y1615070D02*
Y1625840D01*
G01X513530D02*
X527050D01*
G01X495300Y1616840D02*
Y1626860D01*
G01Y1616840D02*
X513320D01*
G01X527050Y1757440D02*
Y1768210D01*
G01X513530Y1757440D02*
X527050D01*
G01D02*
X540570D01*
G01X527050Y1716670D02*
Y1727440D01*
G01X513530D02*
X527050D01*
G01Y1818270D02*
Y1829040D01*
G01X513530D02*
X527050D01*
G01X495300Y1820040D02*
Y1830060D01*
G01Y1820040D02*
X513320D01*
G01X527050Y1859040D02*
Y1870810D01*
G01Y1859040D02*
X541570D01*
G01X495300Y1857020D02*
Y1868040D01*
G01D02*
Y1879060D01*
G01X527050Y1960640D02*
Y1971410D01*
G01X513530Y1960640D02*
X527050D01*
G01D02*
X540570D01*
G01X527050Y1919870D02*
Y1930640D01*
G01X513530D02*
X527050D01*
G54D23*
X393700Y238890D03*
X355600D03*
X393700Y286890D03*
X355600D03*
X393700Y442090D03*
X355600D03*
X393700Y490090D03*
X355600D03*
X393700Y693290D03*
Y645290D03*
X355600Y693290D03*
Y645290D03*
X393700Y848490D03*
X355600D03*
X393700Y896490D03*
X355600D03*
X393700Y1360040D03*
Y1312040D03*
X355600Y1360040D03*
Y1312040D03*
X393700Y1515240D03*
X355600D03*
X393700Y1563240D03*
X355600D03*
X393700Y1718440D03*
X355600D03*
X393700Y1766440D03*
X355600D03*
X393700Y1969640D03*
Y1921640D03*
X355600Y1969640D03*
Y1921640D03*
X457200Y137290D03*
X495300D03*
X457200Y185290D03*
X495300D03*
X457200Y388490D03*
Y340490D03*
X495300Y388490D03*
Y340490D03*
X457200Y543690D03*
X495300D03*
X457200Y591690D03*
X495300D03*
X457200Y746890D03*
X495300D03*
X457200Y794890D03*
X495300D03*
X457200Y1210440D03*
X495300D03*
X457200Y1258440D03*
X495300D03*
X457200Y1413640D03*
X495300D03*
X457200Y1461640D03*
X495300D03*
X457200Y1664840D03*
Y1616840D03*
X495300Y1664840D03*
Y1616840D03*
X457200Y1820040D03*
X495300D03*
X457200Y1868040D03*
X495300D03*
G54D14*
X-19050Y1037590D03*
G54D33*
G01X0Y76200D02*
X9770Y85970D01*
G02X16840Y88900I7072J-7070D01*
G01X59360D01*
G03X66430Y91830I-2J10000D01*
G01X98670Y124070D01*
G03X101600Y131140I-7070J7072D01*
G01Y608000D01*
G02X104530Y615070I10000J-2D01*
G01X128120Y638660D01*
G02X135190Y641590I7072J-7070D01*
G01X146050D01*
G01X0Y25400D02*
X9770Y35170D01*
G02X16840Y38100I7072J-7070D01*
G01X59360D01*
G03X66430Y41030I-2J10000D01*
G01X124070Y98670D01*
G03X127000Y105740I-7070J7072D01*
G01Y228600D01*
G02X133350Y234950I6350J0D01*
G01X145810D01*
X146050Y235190D01*
G01X0Y50800D02*
X9770Y60570D01*
G02X16840Y63500I7072J-7070D01*
G01X59360D01*
G03X66430Y66430I-2J10000D01*
G01X111370Y111370D01*
G03X114300Y118440I-7070J7072D01*
G01Y417500D01*
G02X117230Y424570I10000J-2D01*
G01X128120Y435460D01*
G02X135190Y438390I7072J-7070D01*
G01X146050D01*
G01X0Y101600D02*
X9770Y111370D01*
G02X16840Y114300I7072J-7070D01*
G01X59360D01*
G03X66430Y117230I-2J10000D01*
G01X85970Y136770D01*
G03X88900Y143840I-7070J7072D01*
G01Y798500D01*
G02X91830Y805570I10000J-2D01*
G01X128120Y841860D01*
G02X135190Y844790I7072J-7070D01*
G01X146050D01*
G01Y1308340D02*
X137680D01*
G03X130610Y1305410I2J-10000D01*
G01X122160Y1296960D01*
G03X120650Y1293310I3650J-3647D01*
G01Y1140790D01*
G02X117720Y1133720I-10000J2D01*
G01X79130Y1095130D01*
G03X76200Y1088060I7070J-7072D01*
G01Y156540D01*
G02X73270Y149470I-10000J2D01*
G01X66430Y142630D01*
G02X59360Y139700I-7072J7070D01*
G01X16840D01*
G03X9770Y136770I2J-10000D01*
G01X0Y127000D01*
G01X19050Y1149350D02*
Y1801800D01*
G02X21980Y1808870I10000J-2D01*
G01X128120Y1915010D01*
G02X135190Y1917940I7072J-7070D01*
G01X146050D01*
G01X50800Y50800D02*
X59360D01*
G03X66430Y53730I-2J10000D01*
G01X117720Y105020D01*
G03X120650Y112090I-7070J7072D01*
G01Y322250D01*
G02X123580Y329320I10000J-2D01*
G01X128120Y333860D01*
G02X135190Y336790I7072J-7070D01*
G01X146050D01*
G01X50800Y76200D02*
X59360D01*
G03X66430Y79130I-2J10000D01*
G01X105020Y117720D01*
G03X107950Y124790I-7070J7072D01*
G01Y512750D01*
G02X110880Y519820I10000J-2D01*
G01X128120Y537060D01*
G02X135190Y539990I7072J-7070D01*
G01X146050D01*
G01X50800Y25400D02*
X59360D01*
G03X66430Y28330I-2J10000D01*
G01X130420Y92320D01*
G03X133350Y99390I-7070J7072D01*
G01Y124640D01*
G02X142300Y133590I8950J0D01*
G01X146050D01*
G01Y1409940D02*
X137680D01*
G03X130610Y1407010I2J-10000D01*
G01X117230Y1393630D01*
G03X114300Y1386560I7070J-7072D01*
G01Y1147140D01*
G02X111370Y1140070I-10000J2D01*
G01X72780Y1101480D01*
G03X69850Y1094410I7070J-7072D01*
G01Y158750D01*
G02X63500Y152400I-6350J0D01*
G01X50800D01*
G01Y127000D02*
X59360D01*
G03X66430Y129930I-2J10000D01*
G01X79620Y143120D01*
G03X82550Y150190I-7070J7072D01*
G01Y1081710D01*
G02X85480Y1088780I10000J-2D01*
G01X124070Y1127370D01*
G03X127000Y1134440I-7070J7072D01*
G01Y1200200D01*
G02X133540Y1206740I6540J0D01*
G01X146050D01*
G01X50800Y101600D02*
X59360D01*
G03X66430Y104530I-2J10000D01*
G01X92320Y130420D01*
G03X95250Y137490I-7070J7072D01*
G01Y703250D01*
G02X98180Y710320I10000J-2D01*
G01X128120Y740260D01*
G02X135190Y743190I7072J-7070D01*
G01X146050D01*
G01X76200Y1168400D02*
Y1554150D01*
G02X79130Y1561220I10000J-2D01*
G01X128120Y1610210D01*
G02X135190Y1613140I7072J-7070D01*
G01X146050D01*
G01X95250Y1174750D02*
Y1469110D01*
G02X98180Y1476180I10000J-2D01*
G01X130610Y1508610D01*
G02X137680Y1511540I7072J-7070D01*
G01X146050D01*
G01X57150Y1162050D02*
Y1636700D01*
G02X60080Y1643770I10000J-2D01*
G01X128120Y1711810D01*
G02X135190Y1714740I7072J-7070D01*
G01X146050D01*
G01X38100Y1155700D02*
Y1719250D01*
G02X41030Y1726320I10000J-2D01*
G01X128120Y1813410D01*
G02X135190Y1816340I7072J-7070D01*
G01X146050D01*
G54D24*
X361950Y192640D03*
Y395840D03*
Y599040D03*
Y802240D03*
Y1265790D03*
Y1468990D03*
Y1672190D03*
Y1875390D03*
X488950Y294240D03*
Y497440D03*
Y700640D03*
Y903840D03*
Y1367390D03*
Y1570590D03*
Y1773790D03*
Y1976990D03*
X615950Y192640D03*
Y395840D03*
Y599040D03*
Y802240D03*
Y1265790D03*
Y1468990D03*
Y1672190D03*
Y1875390D03*
X742950Y294240D03*
Y497440D03*
Y700640D03*
Y903840D03*
Y1367390D03*
Y1570590D03*
Y1773790D03*
Y1976990D03*
G54D15*
X117250Y1066090D03*
G54D34*
G01X779830Y807680D02*
X800100Y821840D01*
G01D02*
X820370Y807680D01*
G54D25*
X527050Y146290D03*
Y176290D03*
Y247890D03*
Y277890D03*
Y349490D03*
Y379490D03*
Y451090D03*
Y481090D03*
Y552690D03*
Y582690D03*
Y654290D03*
Y684290D03*
Y755890D03*
Y785890D03*
Y857490D03*
Y887490D03*
Y1219440D03*
Y1249440D03*
Y1321040D03*
Y1351040D03*
Y1422640D03*
Y1452640D03*
Y1524240D03*
Y1554240D03*
Y1625840D03*
Y1655840D03*
Y1727440D03*
Y1757440D03*
Y1829040D03*
Y1859040D03*
Y1930640D03*
Y1960640D03*
G54D16*
X170200Y148590D03*
Y161290D03*
Y173990D03*
Y250190D03*
Y262890D03*
Y275590D03*
Y351790D03*
Y364490D03*
Y377190D03*
Y453390D03*
Y466090D03*
Y478790D03*
Y554990D03*
Y567690D03*
Y580390D03*
Y656590D03*
Y669290D03*
Y681990D03*
Y758190D03*
Y770890D03*
Y783590D03*
Y859790D03*
Y872490D03*
Y885190D03*
Y1221740D03*
Y1234440D03*
Y1247140D03*
Y1323340D03*
Y1336040D03*
Y1348740D03*
Y1424940D03*
Y1437640D03*
Y1450340D03*
Y1526540D03*
Y1539240D03*
Y1551940D03*
Y1628140D03*
Y1640840D03*
Y1653540D03*
Y1729740D03*
Y1742440D03*
Y1755140D03*
Y1831340D03*
Y1844040D03*
Y1856740D03*
Y1932940D03*
Y1945640D03*
Y1958340D03*
X236200Y148590D03*
Y173990D03*
Y250190D03*
Y275590D03*
Y351790D03*
Y377190D03*
Y453390D03*
Y478790D03*
Y554990D03*
Y580390D03*
Y656590D03*
Y681990D03*
Y758190D03*
Y783590D03*
Y859790D03*
Y885190D03*
Y1221740D03*
Y1247140D03*
Y1323340D03*
Y1348740D03*
Y1424940D03*
Y1450340D03*
Y1526540D03*
Y1551940D03*
Y1628140D03*
Y1653540D03*
Y1729740D03*
Y1755140D03*
Y1831340D03*
Y1856740D03*
Y1932940D03*
Y1958340D03*
G54D35*
G01X779830Y198080D02*
X800100Y212240D01*
G01D02*
X820370Y198080D01*
G01X779830Y401280D02*
X800100Y415440D01*
G01D02*
X820370Y401280D01*
G01X779830Y604480D02*
X800100Y618640D01*
G01D02*
X820370Y604480D01*
G01X779830Y1271230D02*
X800100Y1285390D01*
G01D02*
X820370Y1271230D01*
G01X779830Y1474430D02*
X800100Y1488590D01*
G01D02*
X820370Y1474430D01*
G01X779830Y1677630D02*
X800100Y1691790D01*
G01D02*
X820370Y1677630D01*
G01X779830Y1880830D02*
X800100Y1894990D01*
G01D02*
X820370Y1880830D01*
G54D17*
X146050Y163590D03*
Y133590D03*
Y235190D03*
Y265190D03*
Y366790D03*
Y336790D03*
Y468390D03*
Y438390D03*
Y539990D03*
Y569990D03*
Y671590D03*
Y641590D03*
Y773190D03*
Y743190D03*
Y844790D03*
Y874790D03*
Y1206740D03*
Y1236740D03*
Y1338340D03*
Y1308340D03*
Y1439940D03*
Y1409940D03*
Y1511540D03*
Y1541540D03*
Y1643140D03*
Y1613140D03*
Y1744740D03*
Y1714740D03*
Y1816340D03*
Y1846340D03*
Y1947940D03*
Y1917940D03*
G54D26*
X800100Y142240D03*
Y212240D03*
Y345440D03*
Y415440D03*
Y548640D03*
Y618640D03*
Y751840D03*
Y821840D03*
Y1215390D03*
Y1285390D03*
Y1418590D03*
Y1488590D03*
Y1621790D03*
Y1691790D03*
Y1824990D03*
Y1894990D03*
X914400Y234240D03*
Y304240D03*
Y437440D03*
Y507440D03*
Y640640D03*
Y710640D03*
Y843840D03*
Y913840D03*
Y1307390D03*
Y1377390D03*
Y1510590D03*
Y1580590D03*
Y1713790D03*
Y1783790D03*
Y1916990D03*
Y1986990D03*
G54D18*
X150250Y193040D03*
X167250D03*
X150250Y294640D03*
X167250D03*
X150250Y396240D03*
X167250D03*
X150250Y497840D03*
X167250D03*
X150250Y599440D03*
X167250D03*
X150250Y701040D03*
X167250D03*
X150250Y802640D03*
X167250D03*
X150250Y904240D03*
X167250D03*
X150250Y1266190D03*
X167250D03*
X150250Y1367790D03*
X167250D03*
X150250Y1469390D03*
X167250D03*
X150250Y1570990D03*
X167250D03*
X150250Y1672590D03*
X167250D03*
X150250Y1774190D03*
X167250D03*
X150250Y1875790D03*
X167250D03*
X150250Y1977390D03*
X167250D03*
G54D27*
X857250Y142240D03*
Y243840D03*
Y193040D03*
Y294640D03*
Y396240D03*
Y345440D03*
Y447040D03*
Y548640D03*
Y497840D03*
Y599440D03*
Y701040D03*
Y650240D03*
Y751840D03*
Y853440D03*
Y802640D03*
Y1215390D03*
Y1266190D03*
Y1367790D03*
Y1316990D03*
Y1418590D03*
Y1520190D03*
Y1469390D03*
Y1570990D03*
Y1672590D03*
Y1621790D03*
Y1723390D03*
Y1824990D03*
Y1774190D03*
Y1875790D03*
Y1926590D03*
G54D19*
X260350Y148290D03*
Y174290D03*
Y249890D03*
Y275890D03*
Y351490D03*
Y377490D03*
Y453090D03*
Y479090D03*
Y554690D03*
Y580690D03*
Y656290D03*
Y682290D03*
Y757890D03*
Y783890D03*
Y859490D03*
Y885490D03*
Y1221440D03*
Y1247440D03*
Y1323040D03*
Y1349040D03*
Y1424640D03*
Y1450640D03*
Y1526240D03*
Y1552240D03*
Y1627840D03*
Y1653840D03*
Y1729440D03*
Y1755440D03*
Y1831040D03*
Y1857040D03*
Y1932640D03*
Y1958640D03*
G54D28*
X857250Y904240D03*
Y1977390D03*
G54D29*
X939800Y-52070D03*
Y2170430D03*
M02*
