G04 ================== begin FILE IDENTIFICATION RECORD ==================*
G04 Layout Name:  D:/Project/Circuit/ORCAD/KPRD/03v1/pcb/kprd_03v1.brd*
G04 Film Name:    BOTTOM*
G04 File Format:  Gerber RS274X*
G04 File Origin:  Cadence Allegro 16.6-S012*
G04 Origin Date:  Mon Jul 29 12:29:18 2013*
G04 *
G04 Layer:  ETCH/BOTTOM*
G04 Layer:  PIN/BOTTOM*
G04 Layer:  VIA CLASS/BOTTOM*
G04 *
G04 Offset:    (0.000 0.000)*
G04 Mirror:    No*
G04 Mode:      Positive*
G04 Rotation:  0*
G04 FullContactRelief:  No*
G04 UndefLineWidth:     0.250*
G04 ================== end FILE IDENTIFICATION RECORD ====================*
%FSLAX34Y34*MOMM*%
%IR0*IPPOS*OFA0.00000B0.00000*MIA0B0*SFA1.00000B1.00000*%
%ADD11C,1.*%
%ADD14C,2.*%
%ADD10C,4.2*%
%ADD29C,5.2*%
%ADD27C,2.5*%
%ADD15C,1.6*%
%ADD13C,1.55*%
%ADD21R,2.05X2.05*%
%ADD16R,1.55X.65*%
%ADD24C,1.95*%
%ADD12R,1.55X1.55*%
%ADD22R,1.95X1.95*%
%ADD18R,1.1X1.4*%
%ADD20R,1.1X2.7*%
%ADD23R,2.7X1.1*%
%ADD26R,3.15X2.2*%
%ADD28R,2.5X2.5*%
%ADD17R,1.75X1.*%
%ADD25R,1.8X1.25*%
%ADD19R,.5X.9*%
%ADD30C,1.27*%
%ADD31C,.4*%
%ADD32C,.5*%
%ADD33C,.25*%
%ADD34C,.65*%
%ADD35C,.75*%
%ADD38C,2.104*%
%ADD36C,3.004*%
%ADD37C,2.054*%
G75*
%LPD*%
G75*
G36*
G01X-901670Y-2065290D02*
Y-2050450D01*
G02X-901110Y-2049550I1000J2D01*
G01X-899240Y-2048630D01*
X-898690Y-2048680D01*
X-898460Y-2048860D01*
G03Y-2007520I15810J20670D01*
G01X-898690Y-2007700D01*
X-899240Y-2007750D01*
X-901110Y-2006830D01*
G02X-901670Y-2005930I440J898D01*
G01Y-1161450D01*
G02X-901110Y-1160550I1000J2D01*
G01X-899240Y-1159630D01*
X-898690Y-1159680D01*
X-898460Y-1159860D01*
G03Y-1118520I15810J20670D01*
G01X-898690Y-1118700D01*
X-899240Y-1118750D01*
X-901110Y-1117830D01*
G02X-901670Y-1116930I440J898D01*
G01Y79010D01*
G02X-900670Y80010I1000J0D01*
G01X-680450D01*
G02X-679450Y79010I0J-1000D01*
G01Y13020D01*
G02X-680450Y12020I-1000J0D01*
G01X-684240D01*
G02X-684950Y12310I-5J1001D01*
G01X-688440Y15810D01*
X-688580Y16060D01*
X-688610Y16220D01*
G03X-703040Y12220I-7390J-1370D01*
G01X-702960Y11980D01*
X-703020Y11510D01*
X-704100Y9950D01*
G02X-704920Y9520I-821J569D01*
G01X-714020D01*
G03X-715020Y8520I0J-1000D01*
G01Y-8520D01*
G03X-714020Y-9520I1000J0D01*
G01X-701520D01*
G02X-700520Y-10520I0J-1000D01*
G01Y-11440D01*
X-699940Y-12020D01*
X-699820D01*
Y-18430D01*
G02X-700820Y-19430I-1000J0D01*
G01X-723970D01*
G03X-724970Y-20430I0J-1000D01*
G01Y-38470D01*
G03X-723970Y-39470I1000J0D01*
G01X-700370D01*
X-700110Y-39730D01*
G03X-699410Y-40020I704J710D01*
G01X-698320D01*
G02X-697320Y-41020I0J-1000D01*
G01Y-48430D01*
G02X-698320Y-49430I-1000J0D01*
G01X-723970D01*
G03X-724970Y-50430I0J-1000D01*
G01Y-54680D01*
G02X-725970Y-55680I-1000J0D01*
G01X-727350D01*
G03X-728050Y-55970I4J-1000D01*
G01X-841680Y-169600D01*
G03X-841970Y-170300I710J-704D01*
G01Y-820980D01*
G02X-842410Y-821810I-1000J-1D01*
G03X-833990I4210J-6230D01*
G02X-834430Y-820980I560J829D01*
G01Y-173430D01*
G02X-834140Y-172720I1000J6D01*
G01X-726670Y-65250D01*
G02X-725580Y-65040I702J-712D01*
G01X-725300Y-65150D01*
X-724970Y-65650D01*
Y-68470D01*
G03X-723970Y-69470I1000J0D01*
G01X-698430D01*
G03X-697430Y-68470I0J1000D01*
G01Y-51220D01*
G02X-696430Y-50220I1000J0D01*
G01X-680450D01*
G02X-679450Y-51220I0J-1000D01*
G01Y-88580D01*
G02X-680450Y-89580I-1000J0D01*
G01X-684640D01*
G02X-685350Y-89290I-5J1001D01*
G01X-688430Y-86210D01*
X-688570Y-85940D01*
X-688600Y-85790D01*
G03X-703140Y-89460I-7400J-1320D01*
G01X-703070Y-89680D01*
X-703140Y-90160D01*
X-704230Y-91670D01*
G02X-705040Y-92080I-808J592D01*
G01X-714020D01*
G03X-715020Y-93080I0J-1000D01*
G01Y-110120D01*
G03X-714020Y-111120I1000J0D01*
G01X-701520D01*
G02X-700520Y-112120I0J-1000D01*
G01Y-113040D01*
X-699940Y-113620D01*
X-699820D01*
Y-120030D01*
G02X-700820Y-121030I-1000J0D01*
G01X-723970D01*
G03X-724970Y-122030I0J-1000D01*
G01Y-140070D01*
G03X-723970Y-141070I1000J0D01*
G01X-700370D01*
X-700110Y-141330D01*
G03X-699410Y-141620I704J710D01*
G01X-698320D01*
G02X-697320Y-142620I0J-1000D01*
G01Y-150030D01*
G02X-698320Y-151030I-1000J0D01*
G01X-723970D01*
G03X-724970Y-152030I0J-1000D01*
G01Y-156280D01*
G02X-725970Y-157280I-1000J0D01*
G01X-727350D01*
G03X-728050Y-157570I4J-1000D01*
G01X-822630Y-252150D01*
G03X-822920Y-252850I710J-704D01*
G01Y-814630D01*
G02X-823360Y-815460I-1000J-1D01*
G03X-814940I4210J-6230D01*
G02X-815380Y-814630I560J829D01*
G01Y-255980D01*
G02X-815090Y-255270I1000J6D01*
G01X-726670Y-166850D01*
G02X-725580Y-166640I702J-712D01*
G01X-725300Y-166750D01*
X-724970Y-167250D01*
Y-170070D01*
G03X-723970Y-171070I1000J0D01*
G01X-698430D01*
G03X-697430Y-170070I0J1000D01*
G01Y-152820D01*
G02X-696430Y-151820I1000J0D01*
G01X-680450D01*
G02X-679450Y-152820I0J-1000D01*
G01Y-190180D01*
G02X-680450Y-191180I-1000J0D01*
G01X-682980D01*
G02X-683980Y-190180I0J1000D01*
G01Y-189070D01*
G03X-684270Y-188360I-1002J5D01*
G01X-688440Y-184190D01*
X-688580Y-183940D01*
X-688610Y-183780D01*
G03X-700870Y-190880I-7393J-1369D01*
G02X-700520Y-191640I-650J-760D01*
G01Y-192680D01*
G02X-701520Y-193680I-1000J0D01*
G01X-714020D01*
G03X-715020Y-194680I0J-1000D01*
G01Y-211720D01*
G03X-714020Y-212720I1000J0D01*
G01X-701520D01*
G02X-700520Y-213720I0J-1000D01*
G01Y-214640D01*
X-699940Y-215220D01*
X-699820D01*
Y-221630D01*
G02X-700820Y-222630I-1000J0D01*
G01X-723970D01*
G03X-724970Y-223630I0J-1000D01*
G01Y-241670D01*
G03X-723970Y-242670I1000J0D01*
G01X-700370D01*
X-700110Y-242930D01*
G03X-699410Y-243220I704J710D01*
G01X-698320D01*
G02X-697320Y-244220I0J-1000D01*
G01Y-251630D01*
G02X-698320Y-252630I-1000J0D01*
G01X-723970D01*
G03X-724970Y-253630I0J-1000D01*
G01Y-257880D01*
G02X-725970Y-258880I-1000J0D01*
G01X-727350D01*
G03X-728050Y-259170I4J-1000D01*
G01X-803580Y-334700D01*
G03X-803870Y-335400I710J-704D01*
G01Y-808280D01*
G02X-804310Y-809110I-1000J-1D01*
G03X-795890I4210J-6230D01*
G02X-796330Y-808280I560J829D01*
G01Y-338530D01*
G02X-796040Y-337820I1000J6D01*
G01X-726670Y-268450D01*
G02X-725580Y-268240I702J-712D01*
G01X-725300Y-268350D01*
X-724970Y-268850D01*
Y-271670D01*
G03X-723970Y-272670I1000J0D01*
G01X-698430D01*
G03X-697430Y-271670I0J1000D01*
G01Y-254420D01*
G02X-696430Y-253420I1000J0D01*
G01X-680450D01*
G02X-679450Y-254420I0J-1000D01*
G01Y-291780D01*
G02X-680450Y-292780I-1000J0D01*
G01X-682980D01*
G02X-683980Y-291780I0J1000D01*
G01Y-289070D01*
G03X-684270Y-288360I-1002J5D01*
G01X-688440Y-284190D01*
X-688580Y-283940D01*
X-688610Y-283780D01*
G03X-700720Y-291000I-7392J-1367D01*
G01X-700550Y-291150D01*
X-700350Y-291550D01*
Y-292780D01*
X-700520D01*
Y-294280D01*
G02X-701520Y-295280I-1000J0D01*
G01X-714020D01*
G03X-715020Y-296280I0J-1000D01*
G01Y-313320D01*
G03X-714020Y-314320I1000J0D01*
G01X-701520D01*
G02X-700520Y-315320I0J-1000D01*
G01Y-316240D01*
X-699940Y-316820D01*
X-699820D01*
Y-323230D01*
G02X-700820Y-324230I-1000J0D01*
G01X-723970D01*
G03X-724970Y-325230I0J-1000D01*
G01Y-343270D01*
G03X-723970Y-344270I1000J0D01*
G01X-700370D01*
X-700110Y-344530D01*
G03X-699410Y-344820I704J710D01*
G01X-698320D01*
G02X-697320Y-345820I0J-1000D01*
G01Y-353230D01*
G02X-698320Y-354230I-1000J0D01*
G01X-723970D01*
G03X-724970Y-355230I0J-1000D01*
G01Y-359480D01*
G02X-725970Y-360480I-1000J0D01*
G01X-727350D01*
G03X-728050Y-360770I4J-1000D01*
G01X-784530Y-417250D01*
G03X-784820Y-417950I710J-704D01*
G01Y-801930D01*
G02X-785260Y-802760I-1000J-1D01*
G03X-776840I4210J-6230D01*
G02X-777280Y-801930I560J829D01*
G01Y-421080D01*
G02X-776990Y-420370I1000J6D01*
G01X-726670Y-370050D01*
G02X-725580Y-369840I702J-712D01*
G01X-725300Y-369950D01*
X-724970Y-370450D01*
Y-373270D01*
G03X-723970Y-374270I1000J0D01*
G01X-698430D01*
G03X-697430Y-373270I0J1000D01*
G01Y-356020D01*
G02X-696430Y-355020I1000J0D01*
G01X-680450D01*
G02X-679450Y-356020I0J-1000D01*
G01Y-393380D01*
G02X-680450Y-394380I-1000J0D01*
G01X-682980D01*
G02X-683980Y-393380I0J1000D01*
G01Y-391070D01*
G03X-684270Y-390360I-1002J5D01*
G01X-688440Y-386190D01*
X-688580Y-385940D01*
X-688610Y-385780D01*
G03X-700870Y-392880I-7393J-1369D01*
G02X-700520Y-393640I-650J-760D01*
G01Y-395880D01*
G02X-701520Y-396880I-1000J0D01*
G01X-714020D01*
G03X-715020Y-397880I0J-1000D01*
G01Y-414920D01*
G03X-714020Y-415920I1000J0D01*
G01X-701520D01*
G02X-700520Y-416920I0J-1000D01*
G01Y-417840D01*
X-699940Y-418420D01*
X-699820D01*
Y-424830D01*
G02X-700820Y-425830I-1000J0D01*
G01X-723970D01*
G03X-724970Y-426830I0J-1000D01*
G01Y-444870D01*
G03X-723970Y-445870I1000J0D01*
G01X-700370D01*
X-700110Y-446130D01*
G03X-699410Y-446420I704J710D01*
G01X-698320D01*
G02X-697320Y-447420I0J-1000D01*
G01Y-454830D01*
G02X-698320Y-455830I-1000J0D01*
G01X-723970D01*
G03X-724970Y-456830I0J-1000D01*
G01Y-461360D01*
G02X-725260Y-462070I-1000J-6D01*
G01X-765480Y-502290D01*
G03X-765770Y-502990I710J-704D01*
G01Y-795580D01*
G02X-766210Y-796410I-1000J-1D01*
G03X-757790I4210J-6230D01*
G02X-758230Y-795580I560J829D01*
G01Y-506120D01*
G02X-757940Y-505410I1000J6D01*
G01X-726670Y-474140D01*
G02X-725580Y-473930I702J-712D01*
G01X-725300Y-474040D01*
X-724970Y-474540D01*
Y-474870D01*
G03X-723970Y-475870I1000J0D01*
G01X-698430D01*
G03X-697430Y-474870I0J1000D01*
G01Y-457620D01*
G02X-696430Y-456620I1000J0D01*
G01X-680450D01*
G02X-679450Y-457620I0J-1000D01*
G01Y-494980D01*
G02X-680450Y-495980I-1000J0D01*
G01X-682980D01*
G02X-683980Y-494980I0J1000D01*
G01Y-493070D01*
G03X-684270Y-492360I-1002J5D01*
G01X-688440Y-488190D01*
X-688580Y-487940D01*
X-688610Y-487780D01*
G03X-700870Y-494880I-7393J-1369D01*
G02X-700520Y-495640I-650J-760D01*
G01Y-497480D01*
G02X-701520Y-498480I-1000J0D01*
G01X-714020D01*
G03X-715020Y-499480I0J-1000D01*
G01Y-516520D01*
G03X-714020Y-517520I1000J0D01*
G01X-701520D01*
G02X-700520Y-518520I0J-1000D01*
G01Y-519440D01*
X-699940Y-520020D01*
X-699820D01*
Y-526430D01*
G02X-700820Y-527430I-1000J0D01*
G01X-723970D01*
G03X-724970Y-528430I0J-1000D01*
G01Y-546470D01*
G03X-723970Y-547470I1000J0D01*
G01X-700370D01*
X-700110Y-547730D01*
G03X-699410Y-548020I704J710D01*
G01X-698320D01*
G02X-697320Y-549020I0J-1000D01*
G01Y-556430D01*
G02X-698320Y-557430I-1000J0D01*
G01X-723970D01*
G03X-724970Y-558430I0J-1000D01*
G01Y-562960D01*
G02X-725260Y-563670I-1000J-6D01*
G01X-746430Y-584840D01*
G03X-746720Y-585540I710J-704D01*
G01Y-832410D01*
G02X-747010Y-833120I-1000J-6D01*
G01X-790880Y-876990D01*
G03X-791170Y-877690I710J-704D01*
G01Y-1816660D01*
G02X-791460Y-1817370I-1000J-6D01*
G01X-792570Y-1818480D01*
G02X-793390Y-1818770I-711J705D01*
G01X-795170Y-1818570D01*
X-795550Y-1818330D01*
X-795670Y-1818140D01*
G03X-799930Y-1814010I-10776J-6853D01*
G02X-800420Y-1813150I510J860D01*
G01Y-1811430D01*
G02X-799930Y-1810570I1000J0D01*
G03Y-1788610I-6520J10980D01*
G02X-800420Y-1787750I510J860D01*
G01Y-1786030D01*
G02X-799930Y-1785170I1000J0D01*
G03X-797580Y-1765000I-6519J10981D01*
G01X-797810Y-1764780D01*
X-797940Y-1764200D01*
X-797120Y-1762190D01*
G02X-796200Y-1761560I928J-368D01*
G01X-794680D01*
G03X-793680Y-1760560I0J1000D01*
G01Y-1737020D01*
G03X-794680Y-1736020I-1000J0D01*
G01X-796200D01*
G02X-797120Y-1735390I8J998D01*
G01X-797940Y-1733380D01*
X-797810Y-1732800D01*
X-797580Y-1732580D01*
G03X-799930Y-1712410I-8869J9189D01*
G02X-800420Y-1711550I510J860D01*
G01Y-1709830D01*
G02X-799930Y-1708970I1000J0D01*
G03Y-1687010I-6520J10980D01*
G02X-800420Y-1686150I510J860D01*
G01Y-1684430D01*
G02X-799930Y-1683570I1000J0D01*
G03Y-1661610I-6520J10980D01*
G02X-800420Y-1660750I510J860D01*
G01Y-1659030D01*
G02X-799930Y-1658170I1000J0D01*
G03Y-1636210I-6520J10980D01*
G02X-800420Y-1635350I510J860D01*
G01Y-1633630D01*
G02X-799930Y-1632770I1000J0D01*
G03Y-1610810I-6520J10980D01*
G02X-800420Y-1609950I510J860D01*
G01Y-1608230D01*
G02X-799930Y-1607370I1000J0D01*
G03Y-1585410I-6520J10980D01*
G02X-800420Y-1584550I510J860D01*
G01Y-1582830D01*
G02X-799930Y-1581970I1000J0D01*
G03Y-1560010I-6520J10980D01*
G02X-800420Y-1559150I510J860D01*
G01Y-1557430D01*
G02X-799930Y-1556570I1000J0D01*
G03Y-1534610I-6520J10980D01*
G02X-800420Y-1533750I510J860D01*
G01Y-1532030D01*
G02X-799930Y-1531170I1000J0D01*
G03X-797580Y-1511000I-6519J10981D01*
G01X-797810Y-1510780D01*
X-797940Y-1510200D01*
X-797120Y-1508190D01*
G02X-796200Y-1507560I928J-368D01*
G01X-794680D01*
G03X-793680Y-1506560I0J1000D01*
G01Y-1483020D01*
G03X-794680Y-1482020I-1000J0D01*
G01X-796200D01*
G02X-797120Y-1481390I8J998D01*
G01X-797940Y-1479380D01*
X-797810Y-1478800D01*
X-797580Y-1478580D01*
G03X-799930Y-1458410I-8869J9189D01*
G02X-800420Y-1457550I510J860D01*
G01Y-1455830D01*
G02X-799930Y-1454970I1000J0D01*
G03Y-1433010I-6520J10980D01*
G02X-800420Y-1432150I510J860D01*
G01Y-1430430D01*
G02X-799930Y-1429570I1000J0D01*
G03Y-1407610I-6520J10980D01*
G02X-800420Y-1406750I510J860D01*
G01Y-1405030D01*
G02X-799930Y-1404170I1000J0D01*
G03Y-1382210I-6520J10980D01*
G02X-800420Y-1381350I510J860D01*
G01Y-1379630D01*
G02X-799930Y-1378770I1000J0D01*
G03Y-1356810I-6520J10980D01*
G02X-800420Y-1355950I510J860D01*
G01Y-1354230D01*
G02X-799930Y-1353370I1000J0D01*
G03Y-1331410I-6520J10980D01*
G02X-800420Y-1330550I510J860D01*
G01Y-1328830D01*
G02X-799930Y-1327970I1000J0D01*
G03Y-1306010I-6520J10980D01*
G02X-800420Y-1305150I510J860D01*
G01Y-1303430D01*
G02X-799930Y-1302570I1000J0D01*
G03Y-1280610I-6520J10980D01*
G02X-800420Y-1279750I510J860D01*
G01Y-1278030D01*
G02X-799930Y-1277170I1000J0D01*
G03X-797580Y-1257000I-6519J10981D01*
G01X-797810Y-1256780D01*
X-797940Y-1256200D01*
X-797120Y-1254190D01*
G02X-796200Y-1253560I928J-368D01*
G01X-794680D01*
G03X-793680Y-1252560I0J1000D01*
G01Y-1229020D01*
G03X-794680Y-1228020I-1000J0D01*
G01X-818220D01*
G03X-819220Y-1229020I0J-1000D01*
G01Y-1252560D01*
G03X-818220Y-1253560I1000J0D01*
G01X-816700D01*
G02X-815780Y-1254190I-8J-998D01*
G01X-814960Y-1256200D01*
X-815090Y-1256780D01*
X-815320Y-1257000D01*
G03X-812970Y-1277170I8869J-9189D01*
G02X-812480Y-1278030I-510J-860D01*
G01Y-1279750D01*
G02X-812970Y-1280610I-1000J0D01*
G03Y-1302570I6520J-10980D01*
G02X-812480Y-1303430I-510J-860D01*
G01Y-1305150D01*
G02X-812970Y-1306010I-1000J0D01*
G03Y-1327970I6520J-10980D01*
G02X-812480Y-1328830I-510J-860D01*
G01Y-1330550D01*
G02X-812970Y-1331410I-1000J0D01*
G03Y-1353370I6520J-10980D01*
G02X-812480Y-1354230I-510J-860D01*
G01Y-1355950D01*
G02X-812970Y-1356810I-1000J0D01*
G03Y-1378770I6520J-10980D01*
G02X-812480Y-1379630I-510J-860D01*
G01Y-1381350D01*
G02X-812970Y-1382210I-1000J0D01*
G03Y-1404170I6520J-10980D01*
G02X-812480Y-1405030I-510J-860D01*
G01Y-1406750D01*
G02X-812970Y-1407610I-1000J0D01*
G03Y-1429570I6520J-10980D01*
G02X-812480Y-1430430I-510J-860D01*
G01Y-1432150D01*
G02X-812970Y-1433010I-1000J0D01*
G03Y-1454970I6520J-10980D01*
G02X-812480Y-1455830I-510J-860D01*
G01Y-1457550D01*
G02X-812970Y-1458410I-1000J0D01*
G03X-815320Y-1478580I6519J-10981D01*
G01X-815090Y-1478800D01*
X-814960Y-1479380D01*
X-815780Y-1481390D01*
G02X-816700Y-1482020I-928J368D01*
G01X-818220D01*
G03X-819220Y-1483020I0J-1000D01*
G01Y-1506560D01*
G03X-818220Y-1507560I1000J0D01*
G01X-816700D01*
G02X-815780Y-1508190I-8J-998D01*
G01X-814960Y-1510200D01*
X-815090Y-1510780D01*
X-815320Y-1511000D01*
G03X-812970Y-1531170I8869J-9189D01*
G02X-812480Y-1532030I-510J-860D01*
G01Y-1533750D01*
G02X-812970Y-1534610I-1000J0D01*
G03Y-1556570I6520J-10980D01*
G02X-812480Y-1557430I-510J-860D01*
G01Y-1559150D01*
G02X-812970Y-1560010I-1000J0D01*
G03Y-1581970I6520J-10980D01*
G02X-812480Y-1582830I-510J-860D01*
G01Y-1584550D01*
G02X-812970Y-1585410I-1000J0D01*
G03Y-1607370I6520J-10980D01*
G02X-812480Y-1608230I-510J-860D01*
G01Y-1609950D01*
G02X-812970Y-1610810I-1000J0D01*
G03Y-1632770I6520J-10980D01*
G02X-812480Y-1633630I-510J-860D01*
G01Y-1635350D01*
G02X-812970Y-1636210I-1000J0D01*
G03Y-1658170I6520J-10980D01*
G02X-812480Y-1659030I-510J-860D01*
G01Y-1660750D01*
G02X-812970Y-1661610I-1000J0D01*
G03Y-1683570I6520J-10980D01*
G02X-812480Y-1684430I-510J-860D01*
G01Y-1686150D01*
G02X-812970Y-1687010I-1000J0D01*
G03Y-1708970I6520J-10980D01*
G02X-812480Y-1709830I-510J-860D01*
G01Y-1711550D01*
G02X-812970Y-1712410I-1000J0D01*
G03X-815320Y-1732580I6519J-10981D01*
G01X-815090Y-1732800D01*
X-814960Y-1733380D01*
X-815780Y-1735390D01*
G02X-816700Y-1736020I-928J368D01*
G01X-818220D01*
G03X-819220Y-1737020I0J-1000D01*
G01Y-1760560D01*
G03X-818220Y-1761560I1000J0D01*
G01X-816700D01*
G02X-815780Y-1762190I-8J-998D01*
G01X-814960Y-1764200D01*
X-815090Y-1764780D01*
X-815320Y-1765000D01*
G03X-812970Y-1785170I8869J-9189D01*
G02X-812480Y-1786030I-510J-860D01*
G01Y-1787750D01*
G02X-812970Y-1788610I-1000J0D01*
G03Y-1810570I6520J-10980D01*
G02X-812480Y-1811430I-510J-860D01*
G01Y-1813150D01*
G02X-812970Y-1814010I-1000J0D01*
G03X-817730Y-1830980I6519J-10981D01*
G01X-817600Y-1831220D01*
X-817620Y-1831740D01*
X-818640Y-1833440D01*
G02X-819490Y-1833920I-854J520D01*
G01X-821720D01*
G02X-822610Y-1833390I-7J1001D01*
G01X-823570Y-1831570D01*
X-823540Y-1831020D01*
X-823380Y-1830790D01*
G03X-840320I-8470J5800D01*
G01X-840160Y-1831020D01*
X-840130Y-1831570D01*
X-841090Y-1833390D01*
G02X-841980Y-1833920I-883J471D01*
G01X-844210D01*
G02X-845060Y-1833440I4J1000D01*
G01X-846080Y-1831740D01*
X-846100Y-1831220D01*
X-845970Y-1830980D01*
G03X-850730Y-1814010I-11279J5989D01*
G02X-851220Y-1813150I510J860D01*
G01Y-1811430D01*
G02X-850730Y-1810570I1000J0D01*
G03Y-1788610I-6520J10980D01*
G02X-851220Y-1787750I510J860D01*
G01Y-1786030D01*
G02X-850730Y-1785170I1000J0D01*
G03X-848380Y-1765000I-6519J10981D01*
G01X-848610Y-1764780D01*
X-848740Y-1764200D01*
X-847920Y-1762190D01*
G02X-847000Y-1761560I928J-368D01*
G01X-845480D01*
G03X-844480Y-1760560I0J1000D01*
G01Y-1737020D01*
G03X-845480Y-1736020I-1000J0D01*
G01X-847000D01*
G02X-847920Y-1735390I8J998D01*
G01X-848740Y-1733380D01*
X-848610Y-1732800D01*
X-848380Y-1732580D01*
G03X-850730Y-1712410I-8869J9189D01*
G02X-851220Y-1711550I510J860D01*
G01Y-1709830D01*
G02X-850730Y-1708970I1000J0D01*
G03Y-1687010I-6520J10980D01*
G02X-851220Y-1686150I510J860D01*
G01Y-1684430D01*
G02X-850730Y-1683570I1000J0D01*
G03Y-1661610I-6520J10980D01*
G02X-851220Y-1660750I510J860D01*
G01Y-1659030D01*
G02X-850730Y-1658170I1000J0D01*
G03Y-1636210I-6520J10980D01*
G02X-851220Y-1635350I510J860D01*
G01Y-1633630D01*
G02X-850730Y-1632770I1000J0D01*
G03Y-1610810I-6520J10980D01*
G02X-851220Y-1609950I510J860D01*
G01Y-1608230D01*
G02X-850730Y-1607370I1000J0D01*
G03Y-1585410I-6520J10980D01*
G02X-851220Y-1584550I510J860D01*
G01Y-1582830D01*
G02X-850730Y-1581970I1000J0D01*
G03Y-1560010I-6520J10980D01*
G02X-851220Y-1559150I510J860D01*
G01Y-1557430D01*
G02X-850730Y-1556570I1000J0D01*
G03Y-1534610I-6520J10980D01*
G02X-851220Y-1533750I510J860D01*
G01Y-1532030D01*
G02X-850730Y-1531170I1000J0D01*
G03X-848380Y-1511000I-6519J10981D01*
G01X-848610Y-1510780D01*
X-848740Y-1510200D01*
X-847920Y-1508190D01*
G02X-847000Y-1507560I928J-368D01*
G01X-845480D01*
G03X-844480Y-1506560I0J1000D01*
G01Y-1483020D01*
G03X-845480Y-1482020I-1000J0D01*
G01X-847000D01*
G02X-847920Y-1481390I8J998D01*
G01X-848740Y-1479380D01*
X-848610Y-1478800D01*
X-848380Y-1478580D01*
G03X-850730Y-1458410I-8869J9189D01*
G02X-851220Y-1457550I510J860D01*
G01Y-1455830D01*
G02X-850730Y-1454970I1000J0D01*
G03Y-1433010I-6520J10980D01*
G02X-851220Y-1432150I510J860D01*
G01Y-1430430D01*
G02X-850730Y-1429570I1000J0D01*
G03Y-1407610I-6520J10980D01*
G02X-851220Y-1406750I510J860D01*
G01Y-1405030D01*
G02X-850730Y-1404170I1000J0D01*
G03Y-1382210I-6520J10980D01*
G02X-851220Y-1381350I510J860D01*
G01Y-1379630D01*
G02X-850730Y-1378770I1000J0D01*
G03Y-1356810I-6520J10980D01*
G02X-851220Y-1355950I510J860D01*
G01Y-1354230D01*
G02X-850730Y-1353370I1000J0D01*
G03Y-1331410I-6520J10980D01*
G02X-851220Y-1330550I510J860D01*
G01Y-1328830D01*
G02X-850730Y-1327970I1000J0D01*
G03Y-1306010I-6520J10980D01*
G02X-851220Y-1305150I510J860D01*
G01Y-1303430D01*
G02X-850730Y-1302570I1000J0D01*
G03Y-1280610I-6520J10980D01*
G02X-851220Y-1279750I510J860D01*
G01Y-1278030D01*
G02X-850730Y-1277170I1000J0D01*
G03X-848380Y-1257000I-6519J10981D01*
G01X-848610Y-1256780D01*
X-848740Y-1256200D01*
X-847920Y-1254190D01*
G02X-847000Y-1253560I928J-368D01*
G01X-845480D01*
G03X-844480Y-1252560I0J1000D01*
G01Y-1229020D01*
G03X-845480Y-1228020I-1000J0D01*
G01X-869020D01*
G03X-870020Y-1229020I0J-1000D01*
G01Y-1252560D01*
G03X-869020Y-1253560I1000J0D01*
G01X-867500D01*
G02X-866580Y-1254190I-8J-998D01*
G01X-865760Y-1256200D01*
X-865890Y-1256780D01*
X-866120Y-1257000D01*
G03X-863770Y-1277170I8869J-9189D01*
G02X-863280Y-1278030I-510J-860D01*
G01Y-1279750D01*
G02X-863770Y-1280610I-1000J0D01*
G03Y-1302570I6520J-10980D01*
G02X-863280Y-1303430I-510J-860D01*
G01Y-1305150D01*
G02X-863770Y-1306010I-1000J0D01*
G03Y-1327970I6520J-10980D01*
G02X-863280Y-1328830I-510J-860D01*
G01Y-1330550D01*
G02X-863770Y-1331410I-1000J0D01*
G03Y-1353370I6520J-10980D01*
G02X-863280Y-1354230I-510J-860D01*
G01Y-1355950D01*
G02X-863770Y-1356810I-1000J0D01*
G03Y-1378770I6520J-10980D01*
G02X-863280Y-1379630I-510J-860D01*
G01Y-1381350D01*
G02X-863770Y-1382210I-1000J0D01*
G03Y-1404170I6520J-10980D01*
G02X-863280Y-1405030I-510J-860D01*
G01Y-1406750D01*
G02X-863770Y-1407610I-1000J0D01*
G03Y-1429570I6520J-10980D01*
G02X-863280Y-1430430I-510J-860D01*
G01Y-1432150D01*
G02X-863770Y-1433010I-1000J0D01*
G03Y-1454970I6520J-10980D01*
G02X-863280Y-1455830I-510J-860D01*
G01Y-1457550D01*
G02X-863770Y-1458410I-1000J0D01*
G03X-866120Y-1478580I6519J-10981D01*
G01X-865890Y-1478800D01*
X-865760Y-1479380D01*
X-866580Y-1481390D01*
G02X-867500Y-1482020I-928J368D01*
G01X-869020D01*
G03X-870020Y-1483020I0J-1000D01*
G01Y-1506560D01*
G03X-869020Y-1507560I1000J0D01*
G01X-867500D01*
G02X-866580Y-1508190I-8J-998D01*
G01X-865760Y-1510200D01*
X-865890Y-1510780D01*
X-866120Y-1511000D01*
G03X-863770Y-1531170I8869J-9189D01*
G02X-863280Y-1532030I-510J-860D01*
G01Y-1533750D01*
G02X-863770Y-1534610I-1000J0D01*
G03Y-1556570I6520J-10980D01*
G02X-863280Y-1557430I-510J-860D01*
G01Y-1559150D01*
G02X-863770Y-1560010I-1000J0D01*
G03Y-1581970I6520J-10980D01*
G02X-863280Y-1582830I-510J-860D01*
G01Y-1584550D01*
G02X-863770Y-1585410I-1000J0D01*
G03Y-1607370I6520J-10980D01*
G02X-863280Y-1608230I-510J-860D01*
G01Y-1609950D01*
G02X-863770Y-1610810I-1000J0D01*
G03Y-1632770I6520J-10980D01*
G02X-863280Y-1633630I-510J-860D01*
G01Y-1635350D01*
G02X-863770Y-1636210I-1000J0D01*
G03Y-1658170I6520J-10980D01*
G02X-863280Y-1659030I-510J-860D01*
G01Y-1660750D01*
G02X-863770Y-1661610I-1000J0D01*
G03Y-1683570I6520J-10980D01*
G02X-863280Y-1684430I-510J-860D01*
G01Y-1686150D01*
G02X-863770Y-1687010I-1000J0D01*
G03Y-1708970I6520J-10980D01*
G02X-863280Y-1709830I-510J-860D01*
G01Y-1711550D01*
G02X-863770Y-1712410I-1000J0D01*
G03X-866120Y-1732580I6519J-10981D01*
G01X-865890Y-1732800D01*
X-865760Y-1733380D01*
X-866580Y-1735390D01*
G02X-867500Y-1736020I-928J368D01*
G01X-869020D01*
G03X-870020Y-1737020I0J-1000D01*
G01Y-1760560D01*
G03X-869020Y-1761560I1000J0D01*
G01X-867500D01*
G02X-866580Y-1762190I-8J-998D01*
G01X-865760Y-1764200D01*
X-865890Y-1764780D01*
X-866120Y-1765000D01*
G03X-863770Y-1785170I8869J-9189D01*
G02X-863280Y-1786030I-510J-860D01*
G01Y-1787750D01*
G02X-863770Y-1788610I-1000J0D01*
G03Y-1810570I6520J-10980D01*
G02X-863280Y-1811430I-510J-860D01*
G01Y-1813150D01*
G02X-863770Y-1814010I-1000J0D01*
G03Y-1835970I6520J-10980D01*
G02X-863280Y-1836830I-510J-860D01*
G01Y-1838550D01*
G02X-863770Y-1839410I-1000J0D01*
G03Y-1861370I6520J-10980D01*
G02X-863280Y-1862230I-510J-860D01*
G01Y-1863950D01*
G02X-863770Y-1864810I-1000J0D01*
G03Y-1886770I6520J-10980D01*
G02X-863280Y-1887630I-510J-860D01*
G01Y-1889350D01*
G02X-863770Y-1890210I-1000J0D01*
G03Y-1912170I6520J-10980D01*
G02X-863280Y-1913030I-510J-860D01*
G01Y-1914750D01*
G02X-863770Y-1915610I-1000J0D01*
G03Y-1937570I6520J-10980D01*
G02X-863280Y-1938430I-510J-860D01*
G01Y-1940150D01*
G02X-863770Y-1941010I-1000J0D01*
G03X-866120Y-1961180I6519J-10981D01*
G01X-865890Y-1961400D01*
X-865760Y-1961980D01*
X-866580Y-1963990D01*
G02X-867500Y-1964620I-928J368D01*
G01X-869020D01*
G03X-870020Y-1965620I0J-1000D01*
G01Y-1989160D01*
G03X-869020Y-1990160I1000J0D01*
G01X-845480D01*
G03X-844480Y-1989160I0J1000D01*
G01Y-1965620D01*
G03X-845480Y-1964620I-1000J0D01*
G01X-847000D01*
G02X-847920Y-1963990I8J998D01*
G01X-848740Y-1961980D01*
X-848610Y-1961400D01*
X-848380Y-1961180D01*
G03X-845650Y-1946650I-8870J9188D01*
G02X-845450Y-1945520I907J422D01*
G01X-843280Y-1943350D01*
G02X-842570Y-1943060I704J-710D01*
G01X-841980D01*
G02X-841090Y-1943590I7J-1001D01*
G01X-840130Y-1945410D01*
X-840160Y-1945960D01*
X-840320Y-1946190D01*
G03X-823380I8470J-5800D01*
G01X-823540Y-1945960D01*
X-823570Y-1945410D01*
X-822610Y-1943590D01*
G02X-821720Y-1943060I883J-471D01*
G01X-819490D01*
G02X-818640Y-1943540I-4J-1000D01*
G01X-817620Y-1945240D01*
X-817600Y-1945760D01*
X-817730Y-1946000D01*
G03X-815320Y-1961180I11279J-5991D01*
G01X-815090Y-1961400D01*
X-814960Y-1961980D01*
X-815780Y-1963990D01*
G02X-816700Y-1964620I-928J368D01*
G01X-818220D01*
G03X-819220Y-1965620I0J-1000D01*
G01Y-1989160D01*
G03X-818220Y-1990160I1000J0D01*
G01X-794680D01*
G03X-793680Y-1989160I0J1000D01*
G01Y-1965620D01*
G03X-794680Y-1964620I-1000J0D01*
G01X-796200D01*
G02X-797120Y-1963990I8J998D01*
G01X-797940Y-1961980D01*
X-797810Y-1961400D01*
X-797580Y-1961180D01*
G03X-794470Y-1956410I-8873J9184D01*
G01X-794360Y-1956120D01*
X-793850Y-1955760D01*
X-729100D01*
G03X-728400Y-1955470I-4J1000D01*
G01X-720420Y-1947490D01*
G03X-720130Y-1946790I-710J704D01*
G01Y-1854730D01*
G02X-719840Y-1854020I1000J6D01*
G01X-719790Y-1853970D01*
X-719430Y-1853820D01*
X-698430D01*
G03X-697430Y-1852820I0J1000D01*
G01Y-1835570D01*
G02X-696430Y-1834570I1000J0D01*
G01X-680450D01*
G02X-679450Y-1835570I0J-1000D01*
G01Y-1887490D01*
G03X-678450Y-1888490I1000J0D01*
G01X-641760D01*
G02X-641060Y-1888780I-4J-1000D01*
G01X-584490Y-1945350D01*
G02X-584200Y-1946050I-710J-704D01*
G01Y-2065290D01*
G02X-585200Y-2066290I-1000J0D01*
G01X-900670D01*
G02X-901670Y-2065290I0J1000D01*
G37*
G36*
G01X-751880Y-1455650D02*
Y-1367230D01*
G02X-751590Y-1366520I1000J6D01*
G01X-726670Y-1341600D01*
G02X-725580Y-1341390I702J-712D01*
G01X-725300Y-1341500D01*
X-724970Y-1342000D01*
Y-1344820D01*
G03X-723970Y-1345820I1000J0D01*
G01X-698430D01*
G03X-697430Y-1344820I0J1000D01*
G01Y-1327570D01*
G02X-696430Y-1326570I1000J0D01*
G01X-680450D01*
G02X-679450Y-1327570I0J-1000D01*
G01Y-1364930D01*
G02X-680450Y-1365930I-1000J0D01*
G01X-684290D01*
G02X-685000Y-1365640I-5J1001D01*
G01X-688440Y-1362190D01*
X-688580Y-1361940D01*
X-688610Y-1361780D01*
G03X-703060Y-1365740I-7394J-1363D01*
G01X-702970Y-1365980D01*
X-703030Y-1366450D01*
X-704120Y-1368000D01*
G02X-704940Y-1368430I-821J569D01*
G01X-714020D01*
G03X-715020Y-1369430I0J-1000D01*
G01Y-1386470D01*
G03X-714020Y-1387470I1000J0D01*
G01X-701520D01*
G02X-700520Y-1388470I0J-1000D01*
G01Y-1389390D01*
X-699940Y-1389970D01*
X-699820D01*
Y-1396380D01*
G02X-700820Y-1397380I-1000J0D01*
G01X-723970D01*
G03X-724970Y-1398380I0J-1000D01*
G01Y-1416420D01*
G03X-723970Y-1417420I1000J0D01*
G01X-700370D01*
X-700110Y-1417680D01*
G03X-699410Y-1417970I704J710D01*
G01X-698320D01*
G02X-697320Y-1418970I0J-1000D01*
G01Y-1426380D01*
G02X-698320Y-1427380I-1000J0D01*
G01X-723970D01*
G03X-724970Y-1428380I0J-1000D01*
G01Y-1432630D01*
G02X-725970Y-1433630I-1000J0D01*
G01X-727350D01*
G03X-728050Y-1433920I4J-1000D01*
G01X-750180Y-1456050D01*
G02X-751270Y-1456260I-702J712D01*
G01X-751550Y-1456150D01*
X-751880Y-1455650D01*
G37*
G36*
G01X-758230Y-1360400D02*
Y-1271980D01*
G02X-757940Y-1271270I1000J6D01*
G01X-726670Y-1240000D01*
G02X-725580Y-1239790I702J-712D01*
G01X-725300Y-1239900D01*
X-724970Y-1240400D01*
Y-1243220D01*
G03X-723970Y-1244220I1000J0D01*
G01X-698430D01*
G03X-697430Y-1243220I0J1000D01*
G01Y-1225970D01*
G02X-696430Y-1224970I1000J0D01*
G01X-680450D01*
G02X-679450Y-1225970I0J-1000D01*
G01Y-1263330D01*
G02X-680450Y-1264330I-1000J0D01*
G01X-682980D01*
G02X-683980Y-1263330I0J1000D01*
G01Y-1263070D01*
G03X-684270Y-1262360I-1002J5D01*
G01X-688440Y-1258190D01*
X-688580Y-1257940D01*
X-688610Y-1257780D01*
G03X-700870Y-1264880I-7393J-1369D01*
G01X-700700Y-1265020D01*
X-700520Y-1265420D01*
Y-1265830D01*
G02X-701520Y-1266830I-1000J0D01*
G01X-714020D01*
G03X-715020Y-1267830I0J-1000D01*
G01Y-1284870D01*
G03X-714020Y-1285870I1000J0D01*
G01X-701520D01*
G02X-700520Y-1286870I0J-1000D01*
G01Y-1287790D01*
X-699940Y-1288370D01*
X-699820D01*
Y-1294780D01*
G02X-700820Y-1295780I-1000J0D01*
G01X-723970D01*
G03X-724970Y-1296780I0J-1000D01*
G01Y-1314820D01*
G03X-723970Y-1315820I1000J0D01*
G01X-700370D01*
X-700110Y-1316080D01*
G03X-699410Y-1316370I704J710D01*
G01X-698320D01*
G02X-697320Y-1317370I0J-1000D01*
G01Y-1324780D01*
G02X-698320Y-1325780I-1000J0D01*
G01X-723970D01*
G03X-724970Y-1326780I0J-1000D01*
G01Y-1331030D01*
G02X-725970Y-1332030I-1000J0D01*
G01X-727350D01*
G03X-728050Y-1332320I4J-1000D01*
G01X-756530Y-1360800D01*
G02X-757620Y-1361010I-702J712D01*
G01X-757900Y-1360900D01*
X-758230Y-1360400D01*
G37*
G36*
G01X-764580Y-1265150D02*
Y-1176730D01*
G02X-764290Y-1176020I1000J6D01*
G01X-726670Y-1138400D01*
G02X-725580Y-1138190I702J-712D01*
G01X-725300Y-1138300D01*
X-724970Y-1138800D01*
Y-1141620D01*
G03X-723970Y-1142620I1000J0D01*
G01X-698430D01*
G03X-697430Y-1141620I0J1000D01*
G01Y-1124370D01*
G02X-696430Y-1123370I1000J0D01*
G01X-680450D01*
G02X-679450Y-1124370I0J-1000D01*
G01Y-1161730D01*
G02X-680450Y-1162730I-1000J0D01*
G01X-683980D01*
Y-1162660D01*
X-688440Y-1158190D01*
X-688580Y-1157940D01*
X-688610Y-1157780D01*
G03X-702790Y-1162370I-7393J-1359D01*
G01X-702680Y-1162610D01*
X-702710Y-1163120D01*
X-703760Y-1164760D01*
G02X-704600Y-1165230I-847J528D01*
G01X-714020D01*
G03X-715020Y-1166230I0J-1000D01*
G01Y-1183270D01*
G03X-714020Y-1184270I1000J0D01*
G01X-701520D01*
G02X-700520Y-1185270I0J-1000D01*
G01Y-1186190D01*
X-699940Y-1186770D01*
X-699820D01*
Y-1193180D01*
G02X-700820Y-1194180I-1000J0D01*
G01X-723970D01*
G03X-724970Y-1195180I0J-1000D01*
G01Y-1213220D01*
G03X-723970Y-1214220I1000J0D01*
G01X-700370D01*
X-700110Y-1214480D01*
G03X-699410Y-1214770I704J710D01*
G01X-698320D01*
G02X-697320Y-1215770I0J-1000D01*
G01Y-1223180D01*
G02X-698320Y-1224180I-1000J0D01*
G01X-723970D01*
G03X-724970Y-1225180I0J-1000D01*
G01Y-1229430D01*
G02X-725970Y-1230430I-1000J0D01*
G01X-727350D01*
G03X-728050Y-1230720I4J-1000D01*
G01X-762880Y-1265550D01*
G02X-763970Y-1265760I-702J712D01*
G01X-764250Y-1265650D01*
X-764580Y-1265150D01*
G37*
G36*
G01X-770930Y-1169900D02*
Y-893520D01*
G02X-770640Y-892810I1000J6D01*
G01X-726770Y-848940D01*
G03X-726480Y-848240I-710J704D01*
G01Y-781670D01*
G02X-725480Y-780670I1000J0D01*
G01X-698430D01*
G03X-697430Y-779670I0J1000D01*
G01Y-762420D01*
G02X-696430Y-761420I1000J0D01*
G01X-680450D01*
G02X-679450Y-762420I0J-1000D01*
G01Y-1060130D01*
G02X-680450Y-1061130I-1000J0D01*
G01X-683510D01*
X-688440Y-1056190D01*
X-688580Y-1055940D01*
X-688610Y-1055780D01*
G03X-702640Y-1060690I-7394J-1372D01*
G01X-702510Y-1060920D01*
X-702520Y-1061450D01*
X-703540Y-1063140D01*
G02X-704400Y-1063630I-860J510D01*
G01X-714020D01*
G03X-715020Y-1064630I0J-1000D01*
G01Y-1081670D01*
G03X-714020Y-1082670I1000J0D01*
G01X-701520D01*
G02X-700520Y-1083670I0J-1000D01*
G01Y-1084590D01*
X-699940Y-1085170D01*
X-699820D01*
Y-1091580D01*
G02X-700820Y-1092580I-1000J0D01*
G01X-723970D01*
G03X-724970Y-1093580I0J-1000D01*
G01Y-1111620D01*
G03X-723970Y-1112620I1000J0D01*
G01X-700370D01*
X-700110Y-1112880D01*
G03X-699410Y-1113170I704J710D01*
G01X-698320D01*
G02X-697320Y-1114170I0J-1000D01*
G01Y-1121580D01*
G02X-698320Y-1122580I-1000J0D01*
G01X-723970D01*
G03X-724970Y-1123580I0J-1000D01*
G01Y-1127830D01*
G02X-725970Y-1128830I-1000J0D01*
G01X-727350D01*
G03X-728050Y-1129120I4J-1000D01*
G01X-769230Y-1170300D01*
G02X-770320Y-1170510I-702J712D01*
G01X-770600Y-1170400D01*
X-770930Y-1169900D01*
G37*
G36*
G01X-726480Y-1802780D02*
Y-1753220D01*
G02X-725480Y-1752220I1000J0D01*
G01X-698430D01*
G03X-697430Y-1751220I0J1000D01*
G01Y-1733970D01*
G02X-696430Y-1732970I1000J0D01*
G01X-680450D01*
G02X-679450Y-1733970I0J-1000D01*
G01Y-1771330D01*
G02X-680450Y-1772330I-1000J0D01*
G01X-686550D01*
G02X-687300Y-1771990I1J999D01*
G01X-688440Y-1770700D01*
X-688570Y-1770300D01*
X-688540Y-1770080D01*
G03X-702940Y-1772060I-7464J927D01*
G01X-702840Y-1772290D01*
X-702880Y-1772780D01*
X-703950Y-1774380D01*
G02X-704780Y-1774830I-834J548D01*
G01X-714020D01*
G03X-715020Y-1775830I0J-1000D01*
G01Y-1792870D01*
G03X-714020Y-1793870I1000J0D01*
G01X-701520D01*
G02X-700520Y-1794870I0J-1000D01*
G01Y-1795790D01*
X-699940Y-1796370D01*
X-699820D01*
Y-1802780D01*
G02X-700820Y-1803780I-1000J0D01*
G01X-725480D01*
G02X-726480Y-1802780I0J1000D01*
G37*
G36*
G01X-732830Y-1743940D02*
Y-1652980D01*
G02X-732540Y-1652270I1000J6D01*
G01X-726670Y-1646400D01*
G02X-725580Y-1646190I702J-712D01*
G01X-725300Y-1646300D01*
X-724970Y-1646800D01*
Y-1649620D01*
G03X-723970Y-1650620I1000J0D01*
G01X-698430D01*
G03X-697430Y-1649620I0J1000D01*
G01Y-1632370D01*
G02X-696430Y-1631370I1000J0D01*
G01X-680450D01*
G02X-679450Y-1632370I0J-1000D01*
G01Y-1669730D01*
G02X-680450Y-1670730I-1000J0D01*
G01X-685490D01*
G02X-686200Y-1670440I-5J1001D01*
G01X-688340Y-1668300D01*
X-688480Y-1667980D01*
X-688490Y-1667790D01*
G03X-703140Y-1670610I-7506J-471D01*
G01X-703070Y-1670830D01*
X-703140Y-1671310D01*
X-704230Y-1672820D01*
G02X-705040Y-1673230I-808J592D01*
G01X-714020D01*
G03X-715020Y-1674230I0J-1000D01*
G01Y-1691270D01*
G03X-714020Y-1692270I1000J0D01*
G01X-701520D01*
G02X-700520Y-1693270I0J-1000D01*
G01Y-1694190D01*
X-699940Y-1694770D01*
X-699820D01*
Y-1701180D01*
G02X-700820Y-1702180I-1000J0D01*
G01X-723970D01*
G03X-724970Y-1703180I0J-1000D01*
G01Y-1721220D01*
G03X-723970Y-1722220I1000J0D01*
G01X-700370D01*
X-700110Y-1722480D01*
G03X-699410Y-1722770I704J710D01*
G01X-698320D01*
G02X-697320Y-1723770I0J-1000D01*
G01Y-1731180D01*
G02X-698320Y-1732180I-1000J0D01*
G01X-723970D01*
G03X-724970Y-1733180I0J-1000D01*
G01Y-1737760D01*
G02X-725260Y-1738470I-1000J-6D01*
G01X-731130Y-1744340D01*
G02X-732220Y-1744550I-702J712D01*
G01X-732500Y-1744440D01*
X-732830Y-1743940D01*
G37*
G36*
G01X-739180Y-1646150D02*
Y-1557730D01*
G02X-738890Y-1557020I1000J6D01*
G01X-726670Y-1544800D01*
G02X-725580Y-1544590I702J-712D01*
G01X-725300Y-1544700D01*
X-724970Y-1545200D01*
Y-1548020D01*
G03X-723970Y-1549020I1000J0D01*
G01X-698430D01*
G03X-697430Y-1548020I0J1000D01*
G01Y-1530770D01*
G02X-696430Y-1529770I1000J0D01*
G01X-680450D01*
G02X-679450Y-1530770I0J-1000D01*
G01Y-1568130D01*
G02X-680450Y-1569130I-1000J0D01*
G01X-683510D01*
X-688440Y-1564190D01*
X-688580Y-1563940D01*
X-688610Y-1563780D01*
G03X-702640Y-1568690I-7394J-1372D01*
G01X-702510Y-1568920D01*
X-702520Y-1569450D01*
X-703540Y-1571140D01*
G02X-704400Y-1571630I-860J510D01*
G01X-714020D01*
G03X-715020Y-1572630I0J-1000D01*
G01Y-1589670D01*
G03X-714020Y-1590670I1000J0D01*
G01X-701520D01*
G02X-700520Y-1591670I0J-1000D01*
G01Y-1592590D01*
X-699940Y-1593170D01*
X-699820D01*
Y-1599580D01*
G02X-700820Y-1600580I-1000J0D01*
G01X-723970D01*
G03X-724970Y-1601580I0J-1000D01*
G01Y-1619620D01*
G03X-723970Y-1620620I1000J0D01*
G01X-700370D01*
X-700110Y-1620880D01*
G03X-699410Y-1621170I704J710D01*
G01X-698320D01*
G02X-697320Y-1622170I0J-1000D01*
G01Y-1629580D01*
G02X-698320Y-1630580I-1000J0D01*
G01X-723970D01*
G03X-724970Y-1631580I0J-1000D01*
G01Y-1635830D01*
G02X-725970Y-1636830I-1000J0D01*
G01X-727350D01*
G03X-728050Y-1637120I4J-1000D01*
G01X-737480Y-1646550D01*
G02X-738570Y-1646760I-702J712D01*
G01X-738850Y-1646650D01*
X-739180Y-1646150D01*
G37*
G36*
G01X-745530Y-1550900D02*
Y-1462480D01*
G02X-745240Y-1461770I1000J6D01*
G01X-726670Y-1443200D01*
G02X-725580Y-1442990I702J-712D01*
G01X-725300Y-1443100D01*
X-724970Y-1443600D01*
Y-1446420D01*
G03X-723970Y-1447420I1000J0D01*
G01X-698430D01*
G03X-697430Y-1446420I0J1000D01*
G01Y-1429170D01*
G02X-696430Y-1428170I1000J0D01*
G01X-680450D01*
G02X-679450Y-1429170I0J-1000D01*
G01Y-1466530D01*
G02X-680450Y-1467530I-1000J0D01*
G01X-684690D01*
G02X-685400Y-1467240I-5J1001D01*
G01X-688420Y-1464220D01*
X-688560Y-1463940D01*
X-688590Y-1463790D01*
G03X-703140Y-1467410I-7412J-1259D01*
G01X-703070Y-1467630D01*
X-703140Y-1468110D01*
X-704230Y-1469620D01*
G02X-705040Y-1470030I-808J592D01*
G01X-714020D01*
G03X-715020Y-1471030I0J-1000D01*
G01Y-1488070D01*
G03X-714020Y-1489070I1000J0D01*
G01X-701520D01*
G02X-700520Y-1490070I0J-1000D01*
G01Y-1490990D01*
X-699940Y-1491570D01*
X-699820D01*
Y-1497980D01*
G02X-700820Y-1498980I-1000J0D01*
G01X-723970D01*
G03X-724970Y-1499980I0J-1000D01*
G01Y-1518020D01*
G03X-723970Y-1519020I1000J0D01*
G01X-700370D01*
X-700110Y-1519280D01*
G03X-699410Y-1519570I704J710D01*
G01X-698320D01*
G02X-697320Y-1520570I0J-1000D01*
G01Y-1527980D01*
G02X-698320Y-1528980I-1000J0D01*
G01X-723970D01*
G03X-724970Y-1529980I0J-1000D01*
G01Y-1534230D01*
G02X-725970Y-1535230I-1000J0D01*
G01X-727350D01*
G03X-728050Y-1535520I4J-1000D01*
G01X-743830Y-1551300D01*
G02X-744920Y-1551510I-702J712D01*
G01X-745200Y-1551400D01*
X-745530Y-1550900D01*
G37*
G36*
G01X-732830Y-772340D02*
Y-692430D01*
X-732980Y-692070D01*
Y-688140D01*
X-732830Y-687780D01*
Y-683920D01*
G02X-732540Y-683210I1000J6D01*
G01X-726670Y-677340D01*
G02X-725580Y-677130I702J-712D01*
G01X-725300Y-677240D01*
X-724970Y-677740D01*
Y-678070D01*
G03X-723970Y-679070I1000J0D01*
G01X-698430D01*
G03X-697430Y-678070I0J1000D01*
G01Y-660820D01*
G02X-696430Y-659820I1000J0D01*
G01X-680450D01*
G02X-679450Y-660820I0J-1000D01*
G01Y-698180D01*
G02X-680450Y-699180I-1000J0D01*
G01X-685040D01*
G02X-685750Y-698890I-5J1001D01*
G01X-688370Y-696260D01*
X-688510Y-695970D01*
X-688540Y-695800D01*
G03X-703140Y-699060I-7464J-897D01*
G01X-703070Y-699280D01*
X-703140Y-699760D01*
X-704230Y-701270D01*
G02X-705040Y-701680I-808J592D01*
G01X-714020D01*
G03X-715020Y-702680I0J-1000D01*
G01Y-719720D01*
G03X-714020Y-720720I1000J0D01*
G01X-701520D01*
G02X-700520Y-721720I0J-1000D01*
G01Y-722640D01*
X-699940Y-723220D01*
X-699820D01*
Y-729630D01*
G02X-700820Y-730630I-1000J0D01*
G01X-723970D01*
G03X-724970Y-731630I0J-1000D01*
G01Y-749670D01*
G03X-723970Y-750670I1000J0D01*
G01X-700370D01*
X-700110Y-750930D01*
G03X-699410Y-751220I704J710D01*
G01X-698320D01*
G02X-697320Y-752220I0J-1000D01*
G01Y-759630D01*
G02X-698320Y-760630I-1000J0D01*
G01X-723970D01*
G03X-724970Y-761630I0J-1000D01*
G01Y-766160D01*
G02X-725260Y-766870I-1000J-6D01*
G01X-731130Y-772740D01*
G02X-732220Y-772950I-702J712D01*
G01X-732500Y-772840D01*
X-732830Y-772340D01*
G37*
G36*
G01X-739180Y-677090D02*
Y-588670D01*
G02X-738890Y-587960I1000J6D01*
G01X-726670Y-575740D01*
G02X-725580Y-575530I702J-712D01*
G01X-725300Y-575640D01*
X-724970Y-576140D01*
Y-576470D01*
G03X-723970Y-577470I1000J0D01*
G01X-698430D01*
G03X-697430Y-576470I0J1000D01*
G01Y-559220D01*
G02X-696430Y-558220I1000J0D01*
G01X-680450D01*
G02X-679450Y-559220I0J-1000D01*
G01Y-596580D01*
G02X-680450Y-597580I-1000J0D01*
G01X-682980D01*
G02X-683980Y-596580I0J1000D01*
G01Y-595070D01*
G03X-684270Y-594360I-1002J5D01*
G01X-688440Y-590190D01*
X-688580Y-589940D01*
X-688610Y-589780D01*
G03X-700870Y-596880I-7393J-1369D01*
G02X-700520Y-597640I-650J-760D01*
G01Y-599080D01*
G02X-701520Y-600080I-1000J0D01*
G01X-714020D01*
G03X-715020Y-601080I0J-1000D01*
G01Y-618120D01*
G03X-714020Y-619120I1000J0D01*
G01X-701520D01*
G02X-700520Y-620120I0J-1000D01*
G01Y-621040D01*
X-699940Y-621620D01*
X-699820D01*
Y-628030D01*
G02X-700820Y-629030I-1000J0D01*
G01X-723970D01*
G03X-724970Y-630030I0J-1000D01*
G01Y-648070D01*
G03X-723970Y-649070I1000J0D01*
G01X-700370D01*
X-700110Y-649330D01*
G03X-699410Y-649620I704J710D01*
G01X-698320D01*
G02X-697320Y-650620I0J-1000D01*
G01Y-658030D01*
G02X-698320Y-659030I-1000J0D01*
G01X-723970D01*
G03X-724970Y-660030I0J-1000D01*
G01Y-664560D01*
G02X-725260Y-665270I-1000J-6D01*
G01X-737480Y-677490D01*
G02X-738570Y-677700I-702J712D01*
G01X-738850Y-677590D01*
X-739180Y-677090D01*
G37*
G36*
G01X-520430Y-1845850D02*
Y-1824450D01*
G02X-518430Y-1822450I2000J0D01*
G01X-452920D01*
G02X-450920Y-1824450I0J-2000D01*
G01Y-1845850D01*
G02X-452920Y-1847850I-2000J0D01*
G01X-518430D01*
G02X-520430Y-1845850I0J2000D01*
G37*
G36*
G01X-546100D02*
Y-1824450D01*
G02X-544100Y-1822450I2000J0D01*
G01X-538470D01*
G02X-536470Y-1824450I0J-2000D01*
G01Y-1845850D01*
G02X-538470Y-1847850I-2000J0D01*
G01X-544100D01*
G02X-546100Y-1845850I0J2000D01*
G37*
G36*
G01X-304480D02*
Y-1811430D01*
G03X-306480Y-1809430I-2000J0D01*
G01X-315680D01*
G02X-317680Y-1807430I0J2000D01*
G01Y-1793330D01*
G03X-319680Y-1791330I-2000J0D01*
G01X-342930D01*
G02X-344930Y-1789330I0J2000D01*
G01Y-1785080D01*
G03X-346930Y-1783080I-2000J0D01*
G01X-376970D01*
G03X-378970Y-1785080I0J-2000D01*
G01Y-1799120D01*
G03X-376970Y-1801120I2000J0D01*
G01X-344720D01*
G02X-342720Y-1803120I0J-2000D01*
G01Y-1807430D01*
G02X-344720Y-1809430I-2000J0D01*
G01X-422380D01*
G02X-424380Y-1807430I0J2000D01*
G01Y-1782830D01*
G03X-426380Y-1780830I-2000J0D01*
G01X-449920D01*
G03X-451920Y-1782830I0J-2000D01*
G01Y-1807430D01*
G02X-453920Y-1809430I-2000J0D01*
G01X-509930D01*
G02X-511930Y-1807430I0J2000D01*
G01Y-1806280D01*
G03X-513930Y-1804280I-2000J0D01*
G01X-541610D01*
X-542760Y-1803200D01*
X-542810Y-1802400D01*
Y-1802380D01*
X-542840Y-1801960D01*
X-542560Y-1801180D01*
X-540280Y-1798750D01*
G02X-538820Y-1798120I1457J-1370D01*
G01X-519180D01*
G03X-517180Y-1796120I0J2000D01*
G01Y-1793620D01*
G02X-515180Y-1791620I2000J0D01*
G01X-514580D01*
X-513600Y-1792260D01*
X-513350Y-1792810D01*
G03X-477040Y-1777180I18050J8060D01*
G01X-477230Y-1776710D01*
X-477130Y-1775730D01*
X-475000Y-1772540D01*
G02X-473340Y-1771650I1663J-1109D01*
G01X-269020D01*
G02X-267020Y-1773650I0J-2000D01*
G01Y-1792640D01*
G02X-269020Y-1794640I-2000J0D01*
G01X-276290D01*
G03Y-1810680I0J-8020D01*
G01X-206290D01*
G03X-203530Y-1810190I0J8018D01*
G01X-203200Y-1810070D01*
X-103600D01*
G02X-101600Y-1812070I0J-2000D01*
G01Y-1845850D01*
G02X-103600Y-1847850I-2000J0D01*
G01X-302480D01*
G02X-304480Y-1845850I0J2000D01*
G37*
G36*
G01X-546100Y-1744250D02*
Y-1722850D01*
G02X-544100Y-1720850I2000J0D01*
G01X-538470D01*
G02X-536470Y-1722850I0J-2000D01*
G01Y-1744250D01*
G02X-538470Y-1746250I-2000J0D01*
G01X-544100D01*
G02X-546100Y-1744250I0J2000D01*
G37*
G36*
G01X-304480D02*
Y-1709830D01*
G03X-306480Y-1707830I-2000J0D01*
G01X-316680D01*
G02X-318680Y-1705830I0J2000D01*
G01Y-1692730D01*
G03X-320680Y-1690730I-2000J0D01*
G01X-339720D01*
G03X-341720Y-1692730I0J-2000D01*
G01Y-1705830D01*
G02X-343720Y-1707830I-2000J0D01*
G01X-410680D01*
G02X-412680Y-1705830I0J2000D01*
G01Y-1682230D01*
G03X-414680Y-1680230I-2000J0D01*
G01X-436220D01*
G03X-438220Y-1682230I0J-2000D01*
G01Y-1705830D01*
G02X-440220Y-1707830I-2000J0D01*
G01X-510930D01*
G02X-512930Y-1705830I0J2000D01*
G01Y-1705680D01*
G03X-514930Y-1703680I-2000J0D01*
G01X-542610D01*
X-543770Y-1702520D01*
X-543780Y-1701690D01*
G03X-543890Y-1700000I-15019J-129D01*
G01X-543940Y-1699570D01*
X-543680Y-1698750D01*
X-541410Y-1696190D01*
G02X-539920Y-1695520I1494J-1330D01*
G01X-519670D01*
G02X-517670Y-1697520I0J-2000D01*
G01X-516670Y-1698520D01*
X-487630D01*
G03X-485630Y-1696520I0J2000D01*
G01Y-1684480D01*
G03X-487630Y-1682480I-2000J0D01*
G01X-516180D01*
G02X-518180Y-1680480I0J2000D01*
G01Y-1672050D01*
G02X-516180Y-1670050I2000J0D01*
G01X-390260D01*
G02X-388600Y-1670940I-3J-1999D01*
G01X-386470Y-1674130D01*
X-386370Y-1675110D01*
X-386560Y-1675580D01*
G03X-350040I18260J-7570D01*
G01X-350230Y-1675110D01*
X-350130Y-1674130D01*
X-348000Y-1670940D01*
G02X-346340Y-1670050I1663J-1109D01*
G01X-269020D01*
G02X-267020Y-1672050I0J-2000D01*
G01Y-1706470D01*
G03X-265020Y-1708470I2000J0D01*
G01X-152380D01*
X-152050Y-1708590D01*
G03X-149290Y-1709080I2760J7528D01*
G01X-103600D01*
G02X-101600Y-1711080I0J-2000D01*
G01Y-1744250D01*
G02X-103600Y-1746250I-2000J0D01*
G01X-302480D01*
G02X-304480Y-1744250I0J2000D01*
G37*
G36*
G01X-485630D02*
Y-1732480D01*
G03X-487630Y-1730480I-2000J0D01*
G01X-518430D01*
G02X-520430Y-1728480I0J2000D01*
G01Y-1722850D01*
G02X-518430Y-1720850I2000J0D01*
G01X-440220D01*
G02X-438220Y-1722850I0J-2000D01*
G01Y-1744250D01*
G02X-440220Y-1746250I-2000J0D01*
G01X-445530D01*
G02X-447530Y-1744250I0J2000D01*
G01Y-1732480D01*
G03X-449530Y-1730480I-2000J0D01*
G01X-477570D01*
G03X-479570Y-1732480I0J-2000D01*
G01Y-1744250D01*
G02X-481570Y-1746250I-2000J0D01*
G01X-483630D01*
G02X-485630Y-1744250I0J2000D01*
G37*
G36*
G01X-304480Y-1642650D02*
Y-1608230D01*
G03X-306480Y-1606230I-2000J0D01*
G01X-315680D01*
G02X-317680Y-1604230I0J2000D01*
G01Y-1590130D01*
G03X-319680Y-1588130I-2000J0D01*
G01X-342930D01*
G02X-344930Y-1586130I0J2000D01*
G01Y-1581880D01*
G03X-346930Y-1579880I-2000J0D01*
G01X-376970D01*
G03X-378970Y-1581880I0J-2000D01*
G01Y-1595920D01*
G03X-376970Y-1597920I2000J0D01*
G01X-344720D01*
G02X-342720Y-1599920I0J-2000D01*
G01Y-1604230D01*
G02X-344720Y-1606230I-2000J0D01*
G01X-422380D01*
G02X-424380Y-1604230I0J2000D01*
G01Y-1579630D01*
G03X-426380Y-1577630I-2000J0D01*
G01X-449920D01*
G03X-451920Y-1579630I0J-2000D01*
G01Y-1604230D01*
G02X-453920Y-1606230I-2000J0D01*
G01X-509930D01*
G02X-511930Y-1604230I0J2000D01*
G01Y-1603080D01*
G03X-513930Y-1601080I-2000J0D01*
G01X-541610D01*
X-542760Y-1600000D01*
X-542810Y-1599200D01*
Y-1599180D01*
X-542840Y-1598760D01*
X-542560Y-1597980D01*
X-540280Y-1595550D01*
G02X-538820Y-1594920I1457J-1370D01*
G01X-519180D01*
G03X-517180Y-1592920I0J2000D01*
G01Y-1590420D01*
G02X-515180Y-1588420I2000J0D01*
G01X-514580D01*
X-513600Y-1589060D01*
X-513350Y-1589610D01*
G03X-477040Y-1573980I18050J8060D01*
G01X-477230Y-1573510D01*
X-477130Y-1572530D01*
X-475000Y-1569340D01*
G02X-473340Y-1568450I1663J-1109D01*
G01X-269020D01*
G02X-267020Y-1570450I0J-2000D01*
G01Y-1589440D01*
G02X-269020Y-1591440I-2000J0D01*
G01X-276290D01*
G03Y-1607480I0J-8020D01*
G01X-206290D01*
G03X-203530Y-1606990I0J8018D01*
G01X-203200Y-1606870D01*
X-103600D01*
G02X-101600Y-1608870I0J-2000D01*
G01Y-1642650D01*
G02X-103600Y-1644650I-2000J0D01*
G01X-302480D01*
G02X-304480Y-1642650I0J2000D01*
G37*
G36*
G01X-520430D02*
Y-1621250D01*
G02X-518430Y-1619250I2000J0D01*
G01X-452920D01*
G02X-450920Y-1621250I0J-2000D01*
G01Y-1642650D01*
G02X-452920Y-1644650I-2000J0D01*
G01X-518430D01*
G02X-520430Y-1642650I0J2000D01*
G37*
G36*
G01X-546100D02*
Y-1621250D01*
G02X-544100Y-1619250I2000J0D01*
G01X-538470D01*
G02X-536470Y-1621250I0J-2000D01*
G01Y-1642650D01*
G02X-538470Y-1644650I-2000J0D01*
G01X-544100D01*
G02X-546100Y-1642650I0J2000D01*
G37*
G36*
G01X-485630Y-1541050D02*
Y-1529280D01*
G03X-487630Y-1527280I-2000J0D01*
G01X-518430D01*
G02X-520430Y-1525280I0J2000D01*
G01Y-1519650D01*
G02X-518430Y-1517650I2000J0D01*
G01X-440220D01*
G02X-438220Y-1519650I0J-2000D01*
G01Y-1541050D01*
G02X-440220Y-1543050I-2000J0D01*
G01X-445530D01*
G02X-447530Y-1541050I0J2000D01*
G01Y-1529280D01*
G03X-449530Y-1527280I-2000J0D01*
G01X-477570D01*
G03X-479570Y-1529280I0J-2000D01*
G01Y-1541050D01*
G02X-481570Y-1543050I-2000J0D01*
G01X-483630D01*
G02X-485630Y-1541050I0J2000D01*
G37*
G36*
G01X-546100D02*
Y-1519650D01*
G02X-544100Y-1517650I2000J0D01*
G01X-538470D01*
G02X-536470Y-1519650I0J-2000D01*
G01Y-1541050D01*
G02X-538470Y-1543050I-2000J0D01*
G01X-544100D01*
G02X-546100Y-1541050I0J2000D01*
G37*
G36*
G01X-304480D02*
Y-1506630D01*
G03X-306480Y-1504630I-2000J0D01*
G01X-316680D01*
G02X-318680Y-1502630I0J2000D01*
G01Y-1489530D01*
G03X-320680Y-1487530I-2000J0D01*
G01X-339720D01*
G03X-341720Y-1489530I0J-2000D01*
G01Y-1502630D01*
G02X-343720Y-1504630I-2000J0D01*
G01X-410680D01*
G02X-412680Y-1502630I0J2000D01*
G01Y-1479030D01*
G03X-414680Y-1477030I-2000J0D01*
G01X-436220D01*
G03X-438220Y-1479030I0J-2000D01*
G01Y-1502630D01*
G02X-440220Y-1504630I-2000J0D01*
G01X-510930D01*
G02X-512930Y-1502630I0J2000D01*
G01Y-1502480D01*
G03X-514930Y-1500480I-2000J0D01*
G01X-542610D01*
X-543770Y-1499320D01*
X-543780Y-1498490D01*
G03X-543890Y-1496800I-15019J-129D01*
G01X-543940Y-1496370D01*
X-543680Y-1495550D01*
X-541410Y-1492990D01*
G02X-539920Y-1492320I1494J-1330D01*
G01X-519670D01*
G02X-517670Y-1494320I0J-2000D01*
G01X-516670Y-1495320D01*
X-487630D01*
G03X-485630Y-1493320I0J2000D01*
G01Y-1481280D01*
G03X-487630Y-1479280I-2000J0D01*
G01X-516180D01*
G02X-518180Y-1477280I0J2000D01*
G01Y-1468850D01*
G02X-516180Y-1466850I2000J0D01*
G01X-390260D01*
G02X-388600Y-1467740I-3J-1999D01*
G01X-386470Y-1470930D01*
X-386370Y-1471910D01*
X-386560Y-1472380D01*
G03X-350040I18260J-7570D01*
G01X-350230Y-1471910D01*
X-350130Y-1470930D01*
X-348000Y-1467740D01*
G02X-346340Y-1466850I1663J-1109D01*
G01X-269020D01*
G02X-267020Y-1468850I0J-2000D01*
G01Y-1503270D01*
G03X-265020Y-1505270I2000J0D01*
G01X-152380D01*
X-152050Y-1505390D01*
G03X-149290Y-1505880I2760J7528D01*
G01X-103600D01*
G02X-101600Y-1507880I0J-2000D01*
G01Y-1541050D01*
G02X-103600Y-1543050I-2000J0D01*
G01X-302480D01*
G02X-304480Y-1541050I0J2000D01*
G37*
G36*
G01X-520430Y-1439450D02*
Y-1418050D01*
G02X-518430Y-1416050I2000J0D01*
G01X-452920D01*
G02X-450920Y-1418050I0J-2000D01*
G01Y-1439450D01*
G02X-452920Y-1441450I-2000J0D01*
G01X-518430D01*
G02X-520430Y-1439450I0J2000D01*
G37*
G36*
G01X-546100D02*
Y-1418050D01*
G02X-544100Y-1416050I2000J0D01*
G01X-538470D01*
G02X-536470Y-1418050I0J-2000D01*
G01Y-1439450D01*
G02X-538470Y-1441450I-2000J0D01*
G01X-544100D01*
G02X-546100Y-1439450I0J2000D01*
G37*
G36*
G01X-304480D02*
Y-1405030D01*
G03X-306480Y-1403030I-2000J0D01*
G01X-315680D01*
G02X-317680Y-1401030I0J2000D01*
G01Y-1386930D01*
G03X-319680Y-1384930I-2000J0D01*
G01X-342930D01*
G02X-344930Y-1382930I0J2000D01*
G01Y-1378680D01*
G03X-346930Y-1376680I-2000J0D01*
G01X-376970D01*
G03X-378970Y-1378680I0J-2000D01*
G01Y-1392720D01*
G03X-376970Y-1394720I2000J0D01*
G01X-344720D01*
G02X-342720Y-1396720I0J-2000D01*
G01Y-1401030D01*
G02X-344720Y-1403030I-2000J0D01*
G01X-422380D01*
G02X-424380Y-1401030I0J2000D01*
G01Y-1376430D01*
G03X-426380Y-1374430I-2000J0D01*
G01X-449920D01*
G03X-451920Y-1376430I0J-2000D01*
G01Y-1401030D01*
G02X-453920Y-1403030I-2000J0D01*
G01X-509930D01*
G02X-511930Y-1401030I0J2000D01*
G01Y-1399880D01*
G03X-513930Y-1397880I-2000J0D01*
G01X-541610D01*
X-542760Y-1396800D01*
X-542810Y-1396000D01*
Y-1395980D01*
X-542840Y-1395560D01*
X-542560Y-1394780D01*
X-540280Y-1392350D01*
G02X-538820Y-1391720I1457J-1370D01*
G01X-519180D01*
G03X-517180Y-1389720I0J2000D01*
G01Y-1387220D01*
G02X-515180Y-1385220I2000J0D01*
G01X-514580D01*
X-513600Y-1385860D01*
X-513350Y-1386410D01*
G03X-477040Y-1370780I18050J8060D01*
G01X-477230Y-1370310D01*
X-477130Y-1369330D01*
X-475000Y-1366140D01*
G02X-473340Y-1365250I1663J-1109D01*
G01X-269020D01*
G02X-267020Y-1367250I0J-2000D01*
G01Y-1386240D01*
G02X-269020Y-1388240I-2000J0D01*
G01X-276290D01*
G03Y-1404280I0J-8020D01*
G01X-206290D01*
G03X-203530Y-1403790I0J8018D01*
G01X-203200Y-1403670D01*
X-103600D01*
G02X-101600Y-1405670I0J-2000D01*
G01Y-1439450D01*
G02X-103600Y-1441450I-2000J0D01*
G01X-302480D01*
G02X-304480Y-1439450I0J2000D01*
G37*
G36*
G01Y-1337850D02*
Y-1303430D01*
G03X-306480Y-1301430I-2000J0D01*
G01X-316680D01*
G02X-318680Y-1299430I0J2000D01*
G01Y-1286330D01*
G03X-320680Y-1284330I-2000J0D01*
G01X-339720D01*
G03X-341720Y-1286330I0J-2000D01*
G01Y-1299430D01*
G02X-343720Y-1301430I-2000J0D01*
G01X-410680D01*
G02X-412680Y-1299430I0J2000D01*
G01Y-1275830D01*
G03X-414680Y-1273830I-2000J0D01*
G01X-436220D01*
G03X-438220Y-1275830I0J-2000D01*
G01Y-1299430D01*
G02X-440220Y-1301430I-2000J0D01*
G01X-510930D01*
G02X-512930Y-1299430I0J2000D01*
G01Y-1299280D01*
G03X-514930Y-1297280I-2000J0D01*
G01X-542610D01*
X-543770Y-1296120D01*
X-543780Y-1295290D01*
G03X-543890Y-1293600I-15019J-129D01*
G01X-543940Y-1293170D01*
X-543680Y-1292350D01*
X-541410Y-1289790D01*
G02X-539920Y-1289120I1494J-1330D01*
G01X-519670D01*
G02X-517670Y-1291120I0J-2000D01*
G01X-516670Y-1292120D01*
X-487630D01*
G03X-485630Y-1290120I0J2000D01*
G01Y-1278080D01*
G03X-487630Y-1276080I-2000J0D01*
G01X-516180D01*
G02X-518180Y-1274080I0J2000D01*
G01Y-1265650D01*
G02X-516180Y-1263650I2000J0D01*
G01X-390260D01*
G02X-388600Y-1264540I-3J-1999D01*
G01X-386470Y-1267730D01*
X-386370Y-1268710D01*
X-386560Y-1269180D01*
G03X-350040I18260J-7570D01*
G01X-350230Y-1268710D01*
X-350130Y-1267730D01*
X-348000Y-1264540D01*
G02X-346340Y-1263650I1663J-1109D01*
G01X-269020D01*
G02X-267020Y-1265650I0J-2000D01*
G01Y-1300070D01*
G03X-265020Y-1302070I2000J0D01*
G01X-152380D01*
X-152050Y-1302190D01*
G03X-149290Y-1302680I2760J7528D01*
G01X-103600D01*
G02X-101600Y-1304680I0J-2000D01*
G01Y-1337850D01*
G02X-103600Y-1339850I-2000J0D01*
G01X-302480D01*
G02X-304480Y-1337850I0J2000D01*
G37*
G36*
G01X-485630D02*
Y-1326080D01*
G03X-487630Y-1324080I-2000J0D01*
G01X-518430D01*
G02X-520430Y-1322080I0J2000D01*
G01Y-1316450D01*
G02X-518430Y-1314450I2000J0D01*
G01X-440220D01*
G02X-438220Y-1316450I0J-2000D01*
G01Y-1337850D01*
G02X-440220Y-1339850I-2000J0D01*
G01X-445530D01*
G02X-447530Y-1337850I0J2000D01*
G01Y-1326080D01*
G03X-449530Y-1324080I-2000J0D01*
G01X-477570D01*
G03X-479570Y-1326080I0J-2000D01*
G01Y-1337850D01*
G02X-481570Y-1339850I-2000J0D01*
G01X-483630D01*
G02X-485630Y-1337850I0J2000D01*
G37*
G36*
G01X-546100D02*
Y-1316450D01*
G02X-544100Y-1314450I2000J0D01*
G01X-538470D01*
G02X-536470Y-1316450I0J-2000D01*
G01Y-1337850D01*
G02X-538470Y-1339850I-2000J0D01*
G01X-544100D01*
G02X-546100Y-1337850I0J2000D01*
G37*
G36*
G01X-520430Y-1236250D02*
Y-1214850D01*
G02X-518430Y-1212850I2000J0D01*
G01X-452920D01*
G02X-450920Y-1214850I0J-2000D01*
G01Y-1236250D01*
G02X-452920Y-1238250I-2000J0D01*
G01X-518430D01*
G02X-520430Y-1236250I0J2000D01*
G37*
G36*
G01X-546100D02*
Y-1214850D01*
G02X-544100Y-1212850I2000J0D01*
G01X-538470D01*
G02X-536470Y-1214850I0J-2000D01*
G01Y-1236250D01*
G02X-538470Y-1238250I-2000J0D01*
G01X-544100D01*
G02X-546100Y-1236250I0J2000D01*
G37*
G36*
G01X-304480D02*
Y-1201830D01*
G03X-306480Y-1199830I-2000J0D01*
G01X-315680D01*
G02X-317680Y-1197830I0J2000D01*
G01Y-1183730D01*
G03X-319680Y-1181730I-2000J0D01*
G01X-342930D01*
G02X-344930Y-1179730I0J2000D01*
G01Y-1175480D01*
G03X-346930Y-1173480I-2000J0D01*
G01X-376970D01*
G03X-378970Y-1175480I0J-2000D01*
G01Y-1189520D01*
G03X-376970Y-1191520I2000J0D01*
G01X-344720D01*
G02X-342720Y-1193520I0J-2000D01*
G01Y-1197830D01*
G02X-344720Y-1199830I-2000J0D01*
G01X-422380D01*
G02X-424380Y-1197830I0J2000D01*
G01Y-1173230D01*
G03X-426380Y-1171230I-2000J0D01*
G01X-449920D01*
G03X-451920Y-1173230I0J-2000D01*
G01Y-1197830D01*
G02X-453920Y-1199830I-2000J0D01*
G01X-509930D01*
G02X-511930Y-1197830I0J2000D01*
G01Y-1196680D01*
G03X-513930Y-1194680I-2000J0D01*
G01X-541610D01*
X-542760Y-1193600D01*
X-542810Y-1192800D01*
Y-1192780D01*
X-542840Y-1192360D01*
X-542560Y-1191580D01*
X-540280Y-1189150D01*
G02X-538820Y-1188520I1457J-1370D01*
G01X-519180D01*
G03X-517180Y-1186520I0J2000D01*
G01Y-1184020D01*
G02X-515180Y-1182020I2000J0D01*
G01X-514580D01*
X-513600Y-1182660D01*
X-513350Y-1183210D01*
G03X-477040Y-1167580I18050J8060D01*
G01X-477230Y-1167110D01*
X-477130Y-1166130D01*
X-475000Y-1162940D01*
G02X-473340Y-1162050I1663J-1109D01*
G01X-269020D01*
G02X-267020Y-1164050I0J-2000D01*
G01Y-1183040D01*
G02X-269020Y-1185040I-2000J0D01*
G01X-276290D01*
G03Y-1201080I0J-8020D01*
G01X-206290D01*
G03X-203530Y-1200590I0J8018D01*
G01X-203200Y-1200470D01*
X-103600D01*
G02X-101600Y-1202470I0J-2000D01*
G01Y-1236250D01*
G02X-103600Y-1238250I-2000J0D01*
G01X-302480D01*
G02X-304480Y-1236250I0J2000D01*
G37*
G36*
G01X-546100Y-1134650D02*
Y-1113250D01*
G02X-544100Y-1111250I2000J0D01*
G01X-538470D01*
G02X-536470Y-1113250I0J-2000D01*
G01Y-1134650D01*
G02X-538470Y-1136650I-2000J0D01*
G01X-544100D01*
G02X-546100Y-1134650I0J2000D01*
G37*
G36*
G01X-304480D02*
Y-1100230D01*
G03X-306480Y-1098230I-2000J0D01*
G01X-316680D01*
G02X-318680Y-1096230I0J2000D01*
G01Y-1083130D01*
G03X-320680Y-1081130I-2000J0D01*
G01X-339720D01*
G03X-341720Y-1083130I0J-2000D01*
G01Y-1096230D01*
G02X-343720Y-1098230I-2000J0D01*
G01X-410680D01*
G02X-412680Y-1096230I0J2000D01*
G01Y-1072630D01*
G03X-414680Y-1070630I-2000J0D01*
G01X-436220D01*
G03X-438220Y-1072630I0J-2000D01*
G01Y-1096230D01*
G02X-440220Y-1098230I-2000J0D01*
G01X-510930D01*
G02X-512930Y-1096230I0J2000D01*
G01Y-1096080D01*
G03X-514930Y-1094080I-2000J0D01*
G01X-542610D01*
X-543770Y-1092920D01*
X-543780Y-1092090D01*
G03X-543890Y-1090400I-15019J-129D01*
G01X-543940Y-1089970D01*
X-543680Y-1089150D01*
X-541410Y-1086590D01*
G02X-539920Y-1085920I1494J-1330D01*
G01X-519670D01*
G02X-517670Y-1087920I0J-2000D01*
G01X-516670Y-1088920D01*
X-487630D01*
G03X-485630Y-1086920I0J2000D01*
G01Y-1074880D01*
G03X-487630Y-1072880I-2000J0D01*
G01X-516180D01*
G02X-518180Y-1070880I0J2000D01*
G01Y-1062450D01*
G02X-516180Y-1060450I2000J0D01*
G01X-390260D01*
G02X-388600Y-1061340I-3J-1999D01*
G01X-386470Y-1064530D01*
X-386370Y-1065510D01*
X-386560Y-1065980D01*
G03X-350040I18260J-7570D01*
G01X-350230Y-1065510D01*
X-350130Y-1064530D01*
X-348000Y-1061340D01*
G02X-346340Y-1060450I1663J-1109D01*
G01X-269020D01*
G02X-267020Y-1062450I0J-2000D01*
G01Y-1096870D01*
G03X-265020Y-1098870I2000J0D01*
G01X-152380D01*
X-152050Y-1098990D01*
G03X-149290Y-1099480I2760J7528D01*
G01X-103600D01*
G02X-101600Y-1101480I0J-2000D01*
G01Y-1134650D01*
G02X-103600Y-1136650I-2000J0D01*
G01X-302480D01*
G02X-304480Y-1134650I0J2000D01*
G37*
G36*
G01X-485630D02*
Y-1122880D01*
G03X-487630Y-1120880I-2000J0D01*
G01X-518430D01*
G02X-520430Y-1118880I0J2000D01*
G01Y-1113250D01*
G02X-518430Y-1111250I2000J0D01*
G01X-440220D01*
G02X-438220Y-1113250I0J-2000D01*
G01Y-1134650D01*
G02X-440220Y-1136650I-2000J0D01*
G01X-445530D01*
G02X-447530Y-1134650I0J2000D01*
G01Y-1122880D01*
G03X-449530Y-1120880I-2000J0D01*
G01X-477570D01*
G03X-479570Y-1122880I0J-2000D01*
G01Y-1134650D01*
G02X-481570Y-1136650I-2000J0D01*
G01X-483630D01*
G02X-485630Y-1134650I0J2000D01*
G37*
G36*
G01X-520430Y-772700D02*
Y-751300D01*
G02X-518430Y-749300I2000J0D01*
G01X-452920D01*
G02X-450920Y-751300I0J-2000D01*
G01Y-772700D01*
G02X-452920Y-774700I-2000J0D01*
G01X-518430D01*
G02X-520430Y-772700I0J2000D01*
G37*
G36*
G01X-546100D02*
Y-751300D01*
G02X-544100Y-749300I2000J0D01*
G01X-538470D01*
G02X-536470Y-751300I0J-2000D01*
G01Y-772700D01*
G02X-538470Y-774700I-2000J0D01*
G01X-544100D01*
G02X-546100Y-772700I0J2000D01*
G37*
G36*
G01X-304480D02*
Y-738280D01*
G03X-306480Y-736280I-2000J0D01*
G01X-315680D01*
G02X-317680Y-734280I0J2000D01*
G01Y-720180D01*
G03X-319680Y-718180I-2000J0D01*
G01X-342930D01*
G02X-344930Y-716180I0J2000D01*
G01Y-711930D01*
G03X-346930Y-709930I-2000J0D01*
G01X-376970D01*
G03X-378970Y-711930I0J-2000D01*
G01Y-725970D01*
G03X-376970Y-727970I2000J0D01*
G01X-344720D01*
G02X-342720Y-729970I0J-2000D01*
G01Y-734280D01*
G02X-344720Y-736280I-2000J0D01*
G01X-422380D01*
G02X-424380Y-734280I0J2000D01*
G01Y-709680D01*
G03X-426380Y-707680I-2000J0D01*
G01X-449920D01*
G03X-451920Y-709680I0J-2000D01*
G01Y-734280D01*
G02X-453920Y-736280I-2000J0D01*
G01X-509930D01*
G02X-511930Y-734280I0J2000D01*
G01Y-733130D01*
G03X-513930Y-731130I-2000J0D01*
G01X-541610D01*
X-542760Y-730050D01*
X-542810Y-729250D01*
Y-729230D01*
X-542840Y-728810D01*
X-542560Y-728030D01*
X-540280Y-725600D01*
G02X-538820Y-724970I1457J-1370D01*
G01X-519180D01*
G03X-517180Y-722970I0J2000D01*
G01Y-720470D01*
G02X-515180Y-718470I2000J0D01*
G01X-514580D01*
X-513600Y-719110D01*
X-513350Y-719660D01*
G03X-477040Y-704030I18050J8060D01*
G01X-477230Y-703560D01*
X-477130Y-702580D01*
X-475000Y-699390D01*
G02X-473340Y-698500I1663J-1109D01*
G01X-269020D01*
G02X-267020Y-700500I0J-2000D01*
G01Y-719490D01*
G02X-269020Y-721490I-2000J0D01*
G01X-276290D01*
G03Y-737530I0J-8020D01*
G01X-206290D01*
G03X-203530Y-737040I0J8018D01*
G01X-203200Y-736920D01*
X-103600D01*
G02X-101600Y-738920I0J-2000D01*
G01Y-772700D01*
G02X-103600Y-774700I-2000J0D01*
G01X-302480D01*
G02X-304480Y-772700I0J2000D01*
G37*
G36*
G01Y-671100D02*
Y-636680D01*
G03X-306480Y-634680I-2000J0D01*
G01X-316680D01*
G02X-318680Y-632680I0J2000D01*
G01Y-619580D01*
G03X-320680Y-617580I-2000J0D01*
G01X-339720D01*
G03X-341720Y-619580I0J-2000D01*
G01Y-632680D01*
G02X-343720Y-634680I-2000J0D01*
G01X-410680D01*
G02X-412680Y-632680I0J2000D01*
G01Y-609080D01*
G03X-414680Y-607080I-2000J0D01*
G01X-436220D01*
G03X-438220Y-609080I0J-2000D01*
G01Y-632680D01*
G02X-440220Y-634680I-2000J0D01*
G01X-510930D01*
G02X-512930Y-632680I0J2000D01*
G01Y-632530D01*
G03X-514930Y-630530I-2000J0D01*
G01X-542610D01*
X-543770Y-629370D01*
X-543780Y-628540D01*
G03X-543890Y-626850I-15019J-129D01*
G01X-543940Y-626420D01*
X-543680Y-625600D01*
X-541410Y-623040D01*
G02X-539920Y-622370I1494J-1330D01*
G01X-519670D01*
G02X-517670Y-624370I0J-2000D01*
G01X-516670Y-625370D01*
X-487630D01*
G03X-485630Y-623370I0J2000D01*
G01Y-611330D01*
G03X-487630Y-609330I-2000J0D01*
G01X-516180D01*
G02X-518180Y-607330I0J2000D01*
G01Y-598900D01*
G02X-516180Y-596900I2000J0D01*
G01X-390260D01*
G02X-388600Y-597790I-3J-1999D01*
G01X-386470Y-600980D01*
X-386370Y-601960D01*
X-386560Y-602430D01*
G03X-350040I18260J-7570D01*
G01X-350230Y-601960D01*
X-350130Y-600980D01*
X-348000Y-597790D01*
G02X-346340Y-596900I1663J-1109D01*
G01X-269020D01*
G02X-267020Y-598900I0J-2000D01*
G01Y-633320D01*
G03X-265020Y-635320I2000J0D01*
G01X-152380D01*
X-152050Y-635440D01*
G03X-149290Y-635930I2760J7528D01*
G01X-103600D01*
G02X-101600Y-637930I0J-2000D01*
G01Y-671100D01*
G02X-103600Y-673100I-2000J0D01*
G01X-302480D01*
G02X-304480Y-671100I0J2000D01*
G37*
G36*
G01X-485630D02*
Y-659330D01*
G03X-487630Y-657330I-2000J0D01*
G01X-518430D01*
G02X-520430Y-655330I0J2000D01*
G01Y-649700D01*
G02X-518430Y-647700I2000J0D01*
G01X-440220D01*
G02X-438220Y-649700I0J-2000D01*
G01Y-671100D01*
G02X-440220Y-673100I-2000J0D01*
G01X-445530D01*
G02X-447530Y-671100I0J2000D01*
G01Y-659330D01*
G03X-449530Y-657330I-2000J0D01*
G01X-477570D01*
G03X-479570Y-659330I0J-2000D01*
G01Y-671100D01*
G02X-481570Y-673100I-2000J0D01*
G01X-483630D01*
G02X-485630Y-671100I0J2000D01*
G37*
G36*
G01X-546100D02*
Y-649700D01*
G02X-544100Y-647700I2000J0D01*
G01X-538470D01*
G02X-536470Y-649700I0J-2000D01*
G01Y-671100D01*
G02X-538470Y-673100I-2000J0D01*
G01X-544100D01*
G02X-546100Y-671100I0J2000D01*
G37*
G36*
G01X-304480Y-569500D02*
Y-535080D01*
G03X-306480Y-533080I-2000J0D01*
G01X-315680D01*
G02X-317680Y-531080I0J2000D01*
G01Y-516980D01*
G03X-319680Y-514980I-2000J0D01*
G01X-342930D01*
G02X-344930Y-512980I0J2000D01*
G01Y-508730D01*
G03X-346930Y-506730I-2000J0D01*
G01X-376970D01*
G03X-378970Y-508730I0J-2000D01*
G01Y-522770D01*
G03X-376970Y-524770I2000J0D01*
G01X-344720D01*
G02X-342720Y-526770I0J-2000D01*
G01Y-531080D01*
G02X-344720Y-533080I-2000J0D01*
G01X-422380D01*
G02X-424380Y-531080I0J2000D01*
G01Y-506480D01*
G03X-426380Y-504480I-2000J0D01*
G01X-449920D01*
G03X-451920Y-506480I0J-2000D01*
G01Y-531080D01*
G02X-453920Y-533080I-2000J0D01*
G01X-509930D01*
G02X-511930Y-531080I0J2000D01*
G01Y-529930D01*
G03X-513930Y-527930I-2000J0D01*
G01X-541610D01*
X-542760Y-526850D01*
X-542810Y-526050D01*
Y-526030D01*
X-542840Y-525610D01*
X-542560Y-524830D01*
X-540280Y-522400D01*
G02X-538820Y-521770I1457J-1370D01*
G01X-519180D01*
G03X-517180Y-519770I0J2000D01*
G01Y-517270D01*
G02X-515180Y-515270I2000J0D01*
G01X-514580D01*
X-513600Y-515910D01*
X-513350Y-516460D01*
G03X-477040Y-500830I18050J8060D01*
G01X-477230Y-500360D01*
X-477130Y-499380D01*
X-475000Y-496190D01*
G02X-473340Y-495300I1663J-1109D01*
G01X-269020D01*
G02X-267020Y-497300I0J-2000D01*
G01Y-516290D01*
G02X-269020Y-518290I-2000J0D01*
G01X-276300D01*
G03Y-534330I0J-8020D01*
G01X-206300D01*
G03X-203540Y-533840I0J8018D01*
G01X-203210Y-533720D01*
X-103600D01*
G02X-101600Y-535720I0J-2000D01*
G01Y-569500D01*
G02X-103600Y-571500I-2000J0D01*
G01X-302480D01*
G02X-304480Y-569500I0J2000D01*
G37*
G36*
G01X-520430D02*
Y-548100D01*
G02X-518430Y-546100I2000J0D01*
G01X-452920D01*
G02X-450920Y-548100I0J-2000D01*
G01Y-569500D01*
G02X-452920Y-571500I-2000J0D01*
G01X-518430D01*
G02X-520430Y-569500I0J2000D01*
G37*
G36*
G01X-546100D02*
Y-548100D01*
G02X-544100Y-546100I2000J0D01*
G01X-538470D01*
G02X-536470Y-548100I0J-2000D01*
G01Y-569500D01*
G02X-538470Y-571500I-2000J0D01*
G01X-544100D01*
G02X-546100Y-569500I0J2000D01*
G37*
G36*
G01X-485630Y-467900D02*
Y-456130D01*
G03X-487630Y-454130I-2000J0D01*
G01X-518430D01*
G02X-520430Y-452130I0J2000D01*
G01Y-446500D01*
G02X-518430Y-444500I2000J0D01*
G01X-440220D01*
G02X-438220Y-446500I0J-2000D01*
G01Y-467900D01*
G02X-440220Y-469900I-2000J0D01*
G01X-445530D01*
G02X-447530Y-467900I0J2000D01*
G01Y-456130D01*
G03X-449530Y-454130I-2000J0D01*
G01X-477570D01*
G03X-479570Y-456130I0J-2000D01*
G01Y-467900D01*
G02X-481570Y-469900I-2000J0D01*
G01X-483630D01*
G02X-485630Y-467900I0J2000D01*
G37*
G36*
G01X-546100D02*
Y-446500D01*
G02X-544100Y-444500I2000J0D01*
G01X-538470D01*
G02X-536470Y-446500I0J-2000D01*
G01Y-467900D01*
G02X-538470Y-469900I-2000J0D01*
G01X-544100D01*
G02X-546100Y-467900I0J2000D01*
G37*
G36*
G01X-304480D02*
Y-433480D01*
G03X-306480Y-431480I-2000J0D01*
G01X-316680D01*
G02X-318680Y-429480I0J2000D01*
G01Y-416380D01*
G03X-320680Y-414380I-2000J0D01*
G01X-339720D01*
G03X-341720Y-416380I0J-2000D01*
G01Y-429480D01*
G02X-343720Y-431480I-2000J0D01*
G01X-410680D01*
G02X-412680Y-429480I0J2000D01*
G01Y-405880D01*
G03X-414680Y-403880I-2000J0D01*
G01X-436220D01*
G03X-438220Y-405880I0J-2000D01*
G01Y-429480D01*
G02X-440220Y-431480I-2000J0D01*
G01X-510930D01*
G02X-512930Y-429480I0J2000D01*
G01Y-429330D01*
G03X-514930Y-427330I-2000J0D01*
G01X-542610D01*
X-543770Y-426170D01*
X-543780Y-425340D01*
G03X-543890Y-423650I-15019J-129D01*
G01X-543940Y-423220D01*
X-543680Y-422400D01*
X-541410Y-419840D01*
G02X-539920Y-419170I1494J-1330D01*
G01X-519670D01*
G02X-517670Y-421170I0J-2000D01*
G01X-516670Y-422170D01*
X-487630D01*
G03X-485630Y-420170I0J2000D01*
G01Y-408130D01*
G03X-487630Y-406130I-2000J0D01*
G01X-516180D01*
G02X-518180Y-404130I0J2000D01*
G01Y-395700D01*
G02X-516180Y-393700I2000J0D01*
G01X-390260D01*
G02X-388600Y-394590I-3J-1999D01*
G01X-386470Y-397780D01*
X-386370Y-398760D01*
X-386560Y-399230D01*
G03X-350040I18260J-7570D01*
G01X-350230Y-398760D01*
X-350130Y-397780D01*
X-348000Y-394590D01*
G02X-346340Y-393700I1663J-1109D01*
G01X-269020D01*
G02X-267020Y-395700I0J-2000D01*
G01Y-430120D01*
G03X-265020Y-432120I2000J0D01*
G01X-152390D01*
X-152060Y-432240D01*
G03X-149280Y-432740I2787J7519D01*
G01X-103600D01*
G02X-101600Y-434740I0J-2000D01*
G01Y-467900D01*
G02X-103600Y-469900I-2000J0D01*
G01X-302480D01*
G02X-304480Y-467900I0J2000D01*
G37*
G36*
G01Y-366300D02*
Y-331880D01*
G03X-306480Y-329880I-2000J0D01*
G01X-315680D01*
G02X-317680Y-327880I0J2000D01*
G01Y-313780D01*
G03X-319680Y-311780I-2000J0D01*
G01X-342930D01*
G02X-344930Y-309780I0J2000D01*
G01Y-305530D01*
G03X-346930Y-303530I-2000J0D01*
G01X-376970D01*
G03X-378970Y-305530I0J-2000D01*
G01Y-319570D01*
G03X-376970Y-321570I2000J0D01*
G01X-344720D01*
G02X-342720Y-323570I0J-2000D01*
G01Y-327880D01*
G02X-344720Y-329880I-2000J0D01*
G01X-422380D01*
G02X-424380Y-327880I0J2000D01*
G01Y-303280D01*
G03X-426380Y-301280I-2000J0D01*
G01X-449920D01*
G03X-451920Y-303280I0J-2000D01*
G01Y-327880D01*
G02X-453920Y-329880I-2000J0D01*
G01X-509930D01*
G02X-511930Y-327880I0J2000D01*
G01Y-326730D01*
G03X-513930Y-324730I-2000J0D01*
G01X-541610D01*
X-542760Y-323650D01*
X-542810Y-322850D01*
Y-322830D01*
X-542840Y-322410D01*
X-542560Y-321630D01*
X-540280Y-319200D01*
G02X-538820Y-318570I1457J-1370D01*
G01X-519180D01*
G03X-517180Y-316570I0J2000D01*
G01Y-314070D01*
G02X-515180Y-312070I2000J0D01*
G01X-514580D01*
X-513600Y-312710D01*
X-513350Y-313260D01*
G03X-477040Y-297630I18050J8060D01*
G01X-477230Y-297160D01*
X-477130Y-296180D01*
X-475000Y-292990D01*
G02X-473340Y-292100I1663J-1109D01*
G01X-269020D01*
G02X-267020Y-294100I0J-2000D01*
G01Y-313080D01*
G02X-269020Y-315080I-2000J0D01*
G01X-276300D01*
G03Y-331120I0J-8020D01*
G01X-206300D01*
G03X-203570Y-330640I-3J8020D01*
G01X-203240Y-330520D01*
X-103600D01*
G02X-101600Y-332520I0J-2000D01*
G01Y-366300D01*
G02X-103600Y-368300I-2000J0D01*
G01X-302480D01*
G02X-304480Y-366300I0J2000D01*
G37*
G36*
G01X-520430D02*
Y-344900D01*
G02X-518430Y-342900I2000J0D01*
G01X-452920D01*
G02X-450920Y-344900I0J-2000D01*
G01Y-366300D01*
G02X-452920Y-368300I-2000J0D01*
G01X-518430D01*
G02X-520430Y-366300I0J2000D01*
G37*
G36*
G01X-546100D02*
Y-344900D01*
G02X-544100Y-342900I2000J0D01*
G01X-538470D01*
G02X-536470Y-344900I0J-2000D01*
G01Y-366300D01*
G02X-538470Y-368300I-2000J0D01*
G01X-544100D01*
G02X-546100Y-366300I0J2000D01*
G37*
G36*
G01X-304480Y-264700D02*
Y-230280D01*
G03X-306480Y-228280I-2000J0D01*
G01X-316680D01*
G02X-318680Y-226280I0J2000D01*
G01Y-213180D01*
G03X-320680Y-211180I-2000J0D01*
G01X-339720D01*
G03X-341720Y-213180I0J-2000D01*
G01Y-226280D01*
G02X-343720Y-228280I-2000J0D01*
G01X-410680D01*
G02X-412680Y-226280I0J2000D01*
G01Y-202680D01*
G03X-414680Y-200680I-2000J0D01*
G01X-436220D01*
G03X-438220Y-202680I0J-2000D01*
G01Y-226280D01*
G02X-440220Y-228280I-2000J0D01*
G01X-510930D01*
G02X-512930Y-226280I0J2000D01*
G01Y-226130D01*
G03X-514930Y-224130I-2000J0D01*
G01X-542610D01*
X-543770Y-222970D01*
X-543780Y-222140D01*
G03X-543890Y-220450I-15019J-129D01*
G01X-543940Y-220020D01*
X-543680Y-219200D01*
X-541410Y-216640D01*
G02X-539920Y-215970I1494J-1330D01*
G01X-519670D01*
G02X-517670Y-217970I0J-2000D01*
G01X-516670Y-218970D01*
X-487630D01*
G03X-485630Y-216970I0J2000D01*
G01Y-204930D01*
G03X-487630Y-202930I-2000J0D01*
G01X-516180D01*
G02X-518180Y-200930I0J2000D01*
G01Y-192500D01*
G02X-516180Y-190500I2000J0D01*
G01X-390260D01*
G02X-388600Y-191390I-3J-1999D01*
G01X-386470Y-194580D01*
X-386370Y-195560D01*
X-386560Y-196030D01*
G03X-350040I18260J-7570D01*
G01X-350230Y-195560D01*
X-350130Y-194580D01*
X-348000Y-191390D01*
G02X-346340Y-190500I1663J-1109D01*
G01X-269020D01*
G02X-267020Y-192500I0J-2000D01*
G01Y-226920D01*
G03X-265020Y-228920I2000J0D01*
G01X-152360D01*
X-152030Y-229040D01*
G03X-149300Y-229520I2733J7540D01*
G01X-103600D01*
G02X-101600Y-231520I0J-2000D01*
G01Y-264700D01*
G02X-103600Y-266700I-2000J0D01*
G01X-302480D01*
G02X-304480Y-264700I0J2000D01*
G37*
G36*
G01X-485630D02*
Y-252930D01*
G03X-487630Y-250930I-2000J0D01*
G01X-518430D01*
G02X-520430Y-248930I0J2000D01*
G01Y-243300D01*
G02X-518430Y-241300I2000J0D01*
G01X-440220D01*
G02X-438220Y-243300I0J-2000D01*
G01Y-264700D01*
G02X-440220Y-266700I-2000J0D01*
G01X-445530D01*
G02X-447530Y-264700I0J2000D01*
G01Y-252930D01*
G03X-449530Y-250930I-2000J0D01*
G01X-477570D01*
G03X-479570Y-252930I0J-2000D01*
G01Y-264700D01*
G02X-481570Y-266700I-2000J0D01*
G01X-483630D01*
G02X-485630Y-264700I0J2000D01*
G37*
G36*
G01X-546100D02*
Y-243300D01*
G02X-544100Y-241300I2000J0D01*
G01X-538470D01*
G02X-536470Y-243300I0J-2000D01*
G01Y-264700D01*
G02X-538470Y-266700I-2000J0D01*
G01X-544100D01*
G02X-546100Y-264700I0J2000D01*
G37*
G36*
G01X-520430Y-163100D02*
Y-141700D01*
G02X-518430Y-139700I2000J0D01*
G01X-452920D01*
G02X-450920Y-141700I0J-2000D01*
G01Y-163100D01*
G02X-452920Y-165100I-2000J0D01*
G01X-518430D01*
G02X-520430Y-163100I0J2000D01*
G37*
G36*
G01X-546100D02*
Y-141700D01*
G02X-544100Y-139700I2000J0D01*
G01X-538470D01*
G02X-536470Y-141700I0J-2000D01*
G01Y-163100D01*
G02X-538470Y-165100I-2000J0D01*
G01X-544100D01*
G02X-546100Y-163100I0J2000D01*
G37*
G36*
G01X-304480D02*
Y-128680D01*
G03X-306480Y-126680I-2000J0D01*
G01X-315680D01*
G02X-317680Y-124680I0J2000D01*
G01Y-110580D01*
G03X-319680Y-108580I-2000J0D01*
G01X-342930D01*
G02X-344930Y-106580I0J2000D01*
G01Y-102330D01*
G03X-346930Y-100330I-2000J0D01*
G01X-376970D01*
G03X-378970Y-102330I0J-2000D01*
G01Y-116370D01*
G03X-376970Y-118370I2000J0D01*
G01X-344720D01*
G02X-342720Y-120370I0J-2000D01*
G01Y-124680D01*
G02X-344720Y-126680I-2000J0D01*
G01X-422380D01*
G02X-424380Y-124680I0J2000D01*
G01Y-100080D01*
G03X-426380Y-98080I-2000J0D01*
G01X-449920D01*
G03X-451920Y-100080I0J-2000D01*
G01Y-124680D01*
G02X-453920Y-126680I-2000J0D01*
G01X-509930D01*
G02X-511930Y-124680I0J2000D01*
G01Y-123530D01*
G03X-513930Y-121530I-2000J0D01*
G01X-541610D01*
X-542760Y-120450D01*
X-542810Y-119650D01*
Y-119630D01*
X-542840Y-119210D01*
X-542560Y-118430D01*
X-540280Y-116000D01*
G02X-538820Y-115370I1457J-1370D01*
G01X-519180D01*
G03X-517180Y-113370I0J2000D01*
G01Y-110870D01*
G02X-515180Y-108870I2000J0D01*
G01X-514580D01*
X-513600Y-109510D01*
X-513350Y-110060D01*
G03X-477040Y-94430I18050J8060D01*
G01X-477230Y-93960D01*
X-477130Y-92980D01*
X-475000Y-89790D01*
G02X-473340Y-88900I1663J-1109D01*
G01X-269020D01*
G02X-267020Y-90900I0J-2000D01*
G01Y-109880D01*
G02X-269020Y-111880I-2000J0D01*
G01X-276300D01*
G03Y-127920I0J-8020D01*
G01X-206300D01*
G03X-203570Y-127440I-3J8020D01*
G01X-203240Y-127320D01*
X-103600D01*
G02X-101600Y-129320I0J-2000D01*
G01Y-163100D01*
G02X-103600Y-165100I-2000J0D01*
G01X-302480D01*
G02X-304480Y-163100I0J2000D01*
G37*
G36*
G01Y-61500D02*
Y-27080D01*
G03X-306480Y-25080I-2000J0D01*
G01X-316680D01*
G02X-318680Y-23080I0J2000D01*
G01Y-9980D01*
G03X-320680Y-7980I-2000J0D01*
G01X-339720D01*
G03X-341720Y-9980I0J-2000D01*
G01Y-23080D01*
G02X-343720Y-25080I-2000J0D01*
G01X-410680D01*
G02X-412680Y-23080I0J2000D01*
G01Y520D01*
G03X-414680Y2520I-2000J0D01*
G01X-436220D01*
G03X-438220Y520I0J-2000D01*
G01Y-23080D01*
G02X-440220Y-25080I-2000J0D01*
G01X-510930D01*
G02X-512930Y-23080I0J2000D01*
G01Y-22930D01*
G03X-514930Y-20930I-2000J0D01*
G01X-542610D01*
X-543770Y-19770D01*
X-543780Y-18940D01*
G03X-543890Y-17250I-15019J-129D01*
G01X-543940Y-16820D01*
X-543680Y-16000D01*
X-541410Y-13440D01*
G02X-539920Y-12770I1494J-1330D01*
G01X-519670D01*
G02X-517670Y-14770I0J-2000D01*
G01X-516670Y-15770D01*
X-487630D01*
G03X-485630Y-13770I0J2000D01*
G01Y-1730D01*
G03X-487630Y270I-2000J0D01*
G01X-516180D01*
G02X-518180Y2270I0J2000D01*
G01Y10700D01*
G02X-516180Y12700I2000J0D01*
G01X-390260D01*
G02X-388600Y11810I-3J-1999D01*
G01X-386470Y8620D01*
X-386370Y7640D01*
X-386560Y7170D01*
G03X-350040I18260J-7570D01*
G01X-350230Y7640D01*
X-350130Y8620D01*
X-348000Y11810D01*
G02X-346340Y12700I1663J-1109D01*
G01X-269020D01*
G02X-267020Y10700I0J-2000D01*
G01Y-23720D01*
G03X-265020Y-25720I2000J0D01*
G01X-152360D01*
X-152030Y-25840D01*
G03X-149300Y-26320I2733J7540D01*
G01X-103600D01*
G02X-101600Y-28320I0J-2000D01*
G01Y-61500D01*
G02X-103600Y-63500I-2000J0D01*
G01X-302480D01*
G02X-304480Y-61500I0J2000D01*
G37*
G36*
G01X-485630D02*
Y-49730D01*
G03X-487630Y-47730I-2000J0D01*
G01X-518430D01*
G02X-520430Y-45730I0J2000D01*
G01Y-40100D01*
G02X-518430Y-38100I2000J0D01*
G01X-440220D01*
G02X-438220Y-40100I0J-2000D01*
G01Y-61500D01*
G02X-440220Y-63500I-2000J0D01*
G01X-445530D01*
G02X-447530Y-61500I0J2000D01*
G01Y-49730D01*
G03X-449530Y-47730I-2000J0D01*
G01X-477570D01*
G03X-479570Y-49730I0J-2000D01*
G01Y-61500D01*
G02X-481570Y-63500I-2000J0D01*
G01X-483630D01*
G02X-485630Y-61500I0J2000D01*
G37*
G36*
G01X-546100D02*
Y-40100D01*
G02X-544100Y-38100I2000J0D01*
G01X-538470D01*
G02X-536470Y-40100I0J-2000D01*
G01Y-61500D01*
G02X-538470Y-63500I-2000J0D01*
G01X-544100D01*
G02X-546100Y-61500I0J2000D01*
G37*
G36*
G01X-425380Y-1845850D02*
Y-1824450D01*
G02X-423380Y-1822450I2000J0D01*
G01X-343720D01*
G02X-341720Y-1824450I0J-2000D01*
G01Y-1837870D01*
G03X-339720Y-1839870I2000J0D01*
G01X-319500D01*
G02X-317500Y-1841870I0J-2000D01*
G01Y-1845850D01*
G02X-319500Y-1847850I-2000J0D01*
G01X-343930D01*
G02X-345930Y-1845850I0J2000D01*
G01Y-1834080D01*
G03X-347930Y-1832080I-2000J0D01*
G01X-375970D01*
G03X-377970Y-1834080I0J-2000D01*
G01Y-1845850D01*
G02X-379970Y-1847850I-2000J0D01*
G01X-382030D01*
G02X-384030Y-1845850I0J2000D01*
G01Y-1834080D01*
G03X-386030Y-1832080I-2000J0D01*
G01X-414070D01*
G03X-416070Y-1834080I0J-2000D01*
G01Y-1845850D01*
G02X-418070Y-1847850I-2000J0D01*
G01X-423380D01*
G02X-425380Y-1845850I0J2000D01*
G37*
G36*
G01X-412680Y-1744250D02*
Y-1722850D01*
G02X-410680Y-1720850I2000J0D01*
G01X-343720D01*
G02X-341720Y-1722850I0J-2000D01*
G01Y-1736270D01*
G03X-339720Y-1738270I2000J0D01*
G01X-319500D01*
G02X-317500Y-1740270I0J-2000D01*
G01Y-1744250D01*
G02X-319500Y-1746250I-2000J0D01*
G01X-410680D01*
G02X-412680Y-1744250I0J2000D01*
G37*
G36*
G01X-425380Y-1642650D02*
Y-1621250D01*
G02X-423380Y-1619250I2000J0D01*
G01X-343720D01*
G02X-341720Y-1621250I0J-2000D01*
G01Y-1634670D01*
G03X-339720Y-1636670I2000J0D01*
G01X-319500D01*
G02X-317500Y-1638670I0J-2000D01*
G01Y-1642650D01*
G02X-319500Y-1644650I-2000J0D01*
G01X-343930D01*
G02X-345930Y-1642650I0J2000D01*
G01Y-1630880D01*
G03X-347930Y-1628880I-2000J0D01*
G01X-375970D01*
G03X-377970Y-1630880I0J-2000D01*
G01Y-1642650D01*
G02X-379970Y-1644650I-2000J0D01*
G01X-382030D01*
G02X-384030Y-1642650I0J2000D01*
G01Y-1630880D01*
G03X-386030Y-1628880I-2000J0D01*
G01X-414070D01*
G03X-416070Y-1630880I0J-2000D01*
G01Y-1642650D01*
G02X-418070Y-1644650I-2000J0D01*
G01X-423380D01*
G02X-425380Y-1642650I0J2000D01*
G37*
G36*
G01X-412680Y-1541050D02*
Y-1519650D01*
G02X-410680Y-1517650I2000J0D01*
G01X-343720D01*
G02X-341720Y-1519650I0J-2000D01*
G01Y-1533070D01*
G03X-339720Y-1535070I2000J0D01*
G01X-319500D01*
G02X-317500Y-1537070I0J-2000D01*
G01Y-1541050D01*
G02X-319500Y-1543050I-2000J0D01*
G01X-410680D01*
G02X-412680Y-1541050I0J2000D01*
G37*
G36*
G01X-425380Y-1439450D02*
Y-1418050D01*
G02X-423380Y-1416050I2000J0D01*
G01X-343720D01*
G02X-341720Y-1418050I0J-2000D01*
G01Y-1431470D01*
G03X-339720Y-1433470I2000J0D01*
G01X-319500D01*
G02X-317500Y-1435470I0J-2000D01*
G01Y-1439450D01*
G02X-319500Y-1441450I-2000J0D01*
G01X-343930D01*
G02X-345930Y-1439450I0J2000D01*
G01Y-1427680D01*
G03X-347930Y-1425680I-2000J0D01*
G01X-375970D01*
G03X-377970Y-1427680I0J-2000D01*
G01Y-1439450D01*
G02X-379970Y-1441450I-2000J0D01*
G01X-382030D01*
G02X-384030Y-1439450I0J2000D01*
G01Y-1427680D01*
G03X-386030Y-1425680I-2000J0D01*
G01X-414070D01*
G03X-416070Y-1427680I0J-2000D01*
G01Y-1439450D01*
G02X-418070Y-1441450I-2000J0D01*
G01X-423380D01*
G02X-425380Y-1439450I0J2000D01*
G37*
G36*
G01X-412680Y-1337850D02*
Y-1316450D01*
G02X-410680Y-1314450I2000J0D01*
G01X-343720D01*
G02X-341720Y-1316450I0J-2000D01*
G01Y-1329870D01*
G03X-339720Y-1331870I2000J0D01*
G01X-319500D01*
G02X-317500Y-1333870I0J-2000D01*
G01Y-1337850D01*
G02X-319500Y-1339850I-2000J0D01*
G01X-410680D01*
G02X-412680Y-1337850I0J2000D01*
G37*
G36*
G01X-425380Y-1236250D02*
Y-1214850D01*
G02X-423380Y-1212850I2000J0D01*
G01X-343720D01*
G02X-341720Y-1214850I0J-2000D01*
G01Y-1228270D01*
G03X-339720Y-1230270I2000J0D01*
G01X-319500D01*
G02X-317500Y-1232270I0J-2000D01*
G01Y-1236250D01*
G02X-319500Y-1238250I-2000J0D01*
G01X-343930D01*
G02X-345930Y-1236250I0J2000D01*
G01Y-1224480D01*
G03X-347930Y-1222480I-2000J0D01*
G01X-375970D01*
G03X-377970Y-1224480I0J-2000D01*
G01Y-1236250D01*
G02X-379970Y-1238250I-2000J0D01*
G01X-382030D01*
G02X-384030Y-1236250I0J2000D01*
G01Y-1224480D01*
G03X-386030Y-1222480I-2000J0D01*
G01X-414070D01*
G03X-416070Y-1224480I0J-2000D01*
G01Y-1236250D01*
G02X-418070Y-1238250I-2000J0D01*
G01X-423380D01*
G02X-425380Y-1236250I0J2000D01*
G37*
G36*
G01X-412680Y-1134650D02*
Y-1113250D01*
G02X-410680Y-1111250I2000J0D01*
G01X-343720D01*
G02X-341720Y-1113250I0J-2000D01*
G01Y-1126670D01*
G03X-339720Y-1128670I2000J0D01*
G01X-319500D01*
G02X-317500Y-1130670I0J-2000D01*
G01Y-1134650D01*
G02X-319500Y-1136650I-2000J0D01*
G01X-410680D01*
G02X-412680Y-1134650I0J2000D01*
G37*
G36*
G01X-425380Y-772700D02*
Y-751300D01*
G02X-423380Y-749300I2000J0D01*
G01X-343720D01*
G02X-341720Y-751300I0J-2000D01*
G01Y-764720D01*
G03X-339720Y-766720I2000J0D01*
G01X-319500D01*
G02X-317500Y-768720I0J-2000D01*
G01Y-772700D01*
G02X-319500Y-774700I-2000J0D01*
G01X-343930D01*
G02X-345930Y-772700I0J2000D01*
G01Y-760930D01*
G03X-347930Y-758930I-2000J0D01*
G01X-375970D01*
G03X-377970Y-760930I0J-2000D01*
G01Y-772700D01*
G02X-379970Y-774700I-2000J0D01*
G01X-382030D01*
G02X-384030Y-772700I0J2000D01*
G01Y-760930D01*
G03X-386030Y-758930I-2000J0D01*
G01X-414070D01*
G03X-416070Y-760930I0J-2000D01*
G01Y-772700D01*
G02X-418070Y-774700I-2000J0D01*
G01X-423380D01*
G02X-425380Y-772700I0J2000D01*
G37*
G36*
G01X-412680Y-671100D02*
Y-649700D01*
G02X-410680Y-647700I2000J0D01*
G01X-343720D01*
G02X-341720Y-649700I0J-2000D01*
G01Y-663120D01*
G03X-339720Y-665120I2000J0D01*
G01X-319500D01*
G02X-317500Y-667120I0J-2000D01*
G01Y-671100D01*
G02X-319500Y-673100I-2000J0D01*
G01X-410680D01*
G02X-412680Y-671100I0J2000D01*
G37*
G36*
G01X-425380Y-569500D02*
Y-548100D01*
G02X-423380Y-546100I2000J0D01*
G01X-343720D01*
G02X-341720Y-548100I0J-2000D01*
G01Y-561520D01*
G03X-339720Y-563520I2000J0D01*
G01X-319500D01*
G02X-317500Y-565520I0J-2000D01*
G01Y-569500D01*
G02X-319500Y-571500I-2000J0D01*
G01X-343930D01*
G02X-345930Y-569500I0J2000D01*
G01Y-557730D01*
G03X-347930Y-555730I-2000J0D01*
G01X-375970D01*
G03X-377970Y-557730I0J-2000D01*
G01Y-569500D01*
G02X-379970Y-571500I-2000J0D01*
G01X-382030D01*
G02X-384030Y-569500I0J2000D01*
G01Y-557730D01*
G03X-386030Y-555730I-2000J0D01*
G01X-414070D01*
G03X-416070Y-557730I0J-2000D01*
G01Y-569500D01*
G02X-418070Y-571500I-2000J0D01*
G01X-423380D01*
G02X-425380Y-569500I0J2000D01*
G37*
G36*
G01X-412680Y-467900D02*
Y-446500D01*
G02X-410680Y-444500I2000J0D01*
G01X-343720D01*
G02X-341720Y-446500I0J-2000D01*
G01Y-459920D01*
G03X-339720Y-461920I2000J0D01*
G01X-319500D01*
G02X-317500Y-463920I0J-2000D01*
G01Y-467900D01*
G02X-319500Y-469900I-2000J0D01*
G01X-410680D01*
G02X-412680Y-467900I0J2000D01*
G37*
G36*
G01X-425380Y-366300D02*
Y-344900D01*
G02X-423380Y-342900I2000J0D01*
G01X-343720D01*
G02X-341720Y-344900I0J-2000D01*
G01Y-358320D01*
G03X-339720Y-360320I2000J0D01*
G01X-319500D01*
G02X-317500Y-362320I0J-2000D01*
G01Y-366300D01*
G02X-319500Y-368300I-2000J0D01*
G01X-343930D01*
G02X-345930Y-366300I0J2000D01*
G01Y-354530D01*
G03X-347930Y-352530I-2000J0D01*
G01X-375970D01*
G03X-377970Y-354530I0J-2000D01*
G01Y-366300D01*
G02X-379970Y-368300I-2000J0D01*
G01X-382030D01*
G02X-384030Y-366300I0J2000D01*
G01Y-354530D01*
G03X-386030Y-352530I-2000J0D01*
G01X-414070D01*
G03X-416070Y-354530I0J-2000D01*
G01Y-366300D01*
G02X-418070Y-368300I-2000J0D01*
G01X-423380D01*
G02X-425380Y-366300I0J2000D01*
G37*
G36*
G01X-412680Y-264700D02*
Y-243300D01*
G02X-410680Y-241300I2000J0D01*
G01X-343720D01*
G02X-341720Y-243300I0J-2000D01*
G01Y-256720D01*
G03X-339720Y-258720I2000J0D01*
G01X-319500D01*
G02X-317500Y-260720I0J-2000D01*
G01Y-264700D01*
G02X-319500Y-266700I-2000J0D01*
G01X-410680D01*
G02X-412680Y-264700I0J2000D01*
G37*
G36*
G01X-425380Y-163100D02*
Y-141700D01*
G02X-423380Y-139700I2000J0D01*
G01X-343720D01*
G02X-341720Y-141700I0J-2000D01*
G01Y-155120D01*
G03X-339720Y-157120I2000J0D01*
G01X-319500D01*
G02X-317500Y-159120I0J-2000D01*
G01Y-163100D01*
G02X-319500Y-165100I-2000J0D01*
G01X-343930D01*
G02X-345930Y-163100I0J2000D01*
G01Y-151330D01*
G03X-347930Y-149330I-2000J0D01*
G01X-375970D01*
G03X-377970Y-151330I0J-2000D01*
G01Y-163100D01*
G02X-379970Y-165100I-2000J0D01*
G01X-382030D01*
G02X-384030Y-163100I0J2000D01*
G01Y-151330D01*
G03X-386030Y-149330I-2000J0D01*
G01X-414070D01*
G03X-416070Y-151330I0J-2000D01*
G01Y-163100D01*
G02X-418070Y-165100I-2000J0D01*
G01X-423380D01*
G02X-425380Y-163100I0J2000D01*
G37*
G36*
G01X-412680Y-61500D02*
Y-40100D01*
G02X-410680Y-38100I2000J0D01*
G01X-343720D01*
G02X-341720Y-40100I0J-2000D01*
G01Y-53520D01*
G03X-339720Y-55520I2000J0D01*
G01X-319500D01*
G02X-317500Y-57520I0J-2000D01*
G01Y-61500D01*
G02X-319500Y-63500I-2000J0D01*
G01X-410680D01*
G02X-412680Y-61500I0J2000D01*
G37*
G36*
G01X-201070Y-1796570D02*
G03X-206290Y-1794640I-5220J-6094D01*
G01X-252000D01*
G02X-254000Y-1792640I0J2000D01*
G01Y-1773650D01*
G02X-252000Y-1771650I2000J0D01*
G01X-77420D01*
G02X-75420Y-1773650I0J-2000D01*
G01Y-1776670D01*
G03X-73420Y-1778670I2000J0D01*
G01X-40880D01*
G03X-38880Y-1776670I0J2000D01*
G01Y-1773650D01*
G02X-36880Y-1771650I2000J0D01*
G01X-16910D01*
G02X-15210Y-1772610I-8J-1999D01*
G01X-13150Y-1775980D01*
X-13110Y-1777010D01*
X-13360Y-1777480D01*
G03Y-1791220I13360J-6870D01*
G01X-13110Y-1791690D01*
X-13150Y-1792720D01*
X-15210Y-1796090D01*
G02X-16910Y-1797050I-1708J1039D01*
G01X-199770D01*
G02X-201070Y-1796570I0J2000D01*
G37*
G36*
G01X-254000Y-1693450D02*
Y-1672050D01*
G02X-252000Y-1670050I2000J0D01*
G01X-16910D01*
G02X-15210Y-1671010I-8J-1999D01*
G01X-13150Y-1674380D01*
X-13110Y-1675410D01*
X-13360Y-1675880D01*
G03Y-1689620I13360J-6870D01*
G01X-13110Y-1690090D01*
X-13150Y-1691120D01*
X-15210Y-1694490D01*
G02X-16910Y-1695450I-1708J1039D01*
G01X-72770D01*
G02X-74070Y-1694970I0J2000D01*
G03X-79290Y-1693040I-5220J-6094D01*
G01X-149290D01*
G03X-154510Y-1694970I0J-8024D01*
G02X-155810Y-1695450I-1300J1520D01*
G01X-252000D01*
G02X-254000Y-1693450I0J2000D01*
G37*
G36*
G01X-201070Y-1593370D02*
G03X-206290Y-1591440I-5220J-6094D01*
G01X-252000D01*
G02X-254000Y-1589440I0J2000D01*
G01Y-1570450D01*
G02X-252000Y-1568450I2000J0D01*
G01X-77420D01*
G02X-75420Y-1570450I0J-2000D01*
G01Y-1573470D01*
G03X-73420Y-1575470I2000J0D01*
G01X-40880D01*
G03X-38880Y-1573470I0J2000D01*
G01Y-1570450D01*
G02X-36880Y-1568450I2000J0D01*
G01X-16910D01*
G02X-15210Y-1569410I-8J-1999D01*
G01X-13150Y-1572780D01*
X-13110Y-1573810D01*
X-13360Y-1574280D01*
G03Y-1588020I13360J-6870D01*
G01X-13110Y-1588490D01*
X-13150Y-1589520D01*
X-15210Y-1592890D01*
G02X-16910Y-1593850I-1708J1039D01*
G01X-199770D01*
G02X-201070Y-1593370I0J2000D01*
G37*
G36*
G01X-254000Y-1490250D02*
Y-1468850D01*
G02X-252000Y-1466850I2000J0D01*
G01X-16910D01*
G02X-15210Y-1467810I-8J-1999D01*
G01X-13150Y-1471180D01*
X-13110Y-1472210D01*
X-13360Y-1472680D01*
G03Y-1486420I13360J-6870D01*
G01X-13110Y-1486890D01*
X-13150Y-1487920D01*
X-15210Y-1491290D01*
G02X-16910Y-1492250I-1708J1039D01*
G01X-72770D01*
G02X-74070Y-1491770I0J2000D01*
G03X-79290Y-1489840I-5220J-6094D01*
G01X-149290D01*
G03X-154510Y-1491770I0J-8024D01*
G02X-155810Y-1492250I-1300J1520D01*
G01X-252000D01*
G02X-254000Y-1490250I0J2000D01*
G37*
G36*
G01X-201070Y-1390170D02*
G03X-206290Y-1388240I-5220J-6094D01*
G01X-252000D01*
G02X-254000Y-1386240I0J2000D01*
G01Y-1367250D01*
G02X-252000Y-1365250I2000J0D01*
G01X-77420D01*
G02X-75420Y-1367250I0J-2000D01*
G01Y-1370270D01*
G03X-73420Y-1372270I2000J0D01*
G01X-40880D01*
G03X-38880Y-1370270I0J2000D01*
G01Y-1367250D01*
G02X-36880Y-1365250I2000J0D01*
G01X-16910D01*
G02X-15210Y-1366210I-8J-1999D01*
G01X-13150Y-1369580D01*
X-13110Y-1370610D01*
X-13360Y-1371080D01*
G03Y-1384820I13360J-6870D01*
G01X-13110Y-1385290D01*
X-13150Y-1386320D01*
X-15210Y-1389690D01*
G02X-16910Y-1390650I-1708J1039D01*
G01X-199770D01*
G02X-201070Y-1390170I0J2000D01*
G37*
G36*
G01X-254000Y-1287050D02*
Y-1265650D01*
G02X-252000Y-1263650I2000J0D01*
G01X-16910D01*
G02X-15210Y-1264610I-8J-1999D01*
G01X-13150Y-1267980D01*
X-13110Y-1269010D01*
X-13360Y-1269480D01*
G03Y-1283220I13360J-6870D01*
G01X-13110Y-1283690D01*
X-13150Y-1284720D01*
X-15210Y-1288090D01*
G02X-16910Y-1289050I-1708J1039D01*
G01X-72770D01*
G02X-74070Y-1288570I0J2000D01*
G03X-79290Y-1286640I-5220J-6094D01*
G01X-149290D01*
G03X-154510Y-1288570I0J-8024D01*
G02X-155810Y-1289050I-1300J1520D01*
G01X-252000D01*
G02X-254000Y-1287050I0J2000D01*
G37*
G36*
G01X-201070Y-1186970D02*
G03X-206290Y-1185040I-5220J-6094D01*
G01X-252000D01*
G02X-254000Y-1183040I0J2000D01*
G01Y-1164050D01*
G02X-252000Y-1162050I2000J0D01*
G01X-77420D01*
G02X-75420Y-1164050I0J-2000D01*
G01Y-1167070D01*
G03X-73420Y-1169070I2000J0D01*
G01X-40880D01*
G03X-38880Y-1167070I0J2000D01*
G01Y-1164050D01*
G02X-36880Y-1162050I2000J0D01*
G01X-16910D01*
G02X-15210Y-1163010I-8J-1999D01*
G01X-13150Y-1166380D01*
X-13110Y-1167410D01*
X-13360Y-1167880D01*
G03Y-1181620I13360J-6870D01*
G01X-13110Y-1182090D01*
X-13150Y-1183120D01*
X-15210Y-1186490D01*
G02X-16910Y-1187450I-1708J1039D01*
G01X-199770D01*
G02X-201070Y-1186970I0J2000D01*
G37*
G36*
G01X-254000Y-1083850D02*
Y-1062450D01*
G02X-252000Y-1060450I2000J0D01*
G01X-17020D01*
G02X-15020Y-1062450I0J-2000D01*
G01Y-1083850D01*
G02X-17020Y-1085850I-2000J0D01*
G01X-72770D01*
G02X-74070Y-1085370I0J2000D01*
G03X-79290Y-1083440I-5220J-6094D01*
G01X-149290D01*
G03X-154510Y-1085370I0J-8024D01*
G02X-155810Y-1085850I-1300J1520D01*
G01X-252000D01*
G02X-254000Y-1083850I0J2000D01*
G37*
G36*
G01X-201070Y-723420D02*
G03X-206290Y-721490I-5220J-6094D01*
G01X-252000D01*
G02X-254000Y-719490I0J2000D01*
G01Y-700500D01*
G02X-252000Y-698500I2000J0D01*
G01X-77420D01*
G02X-75420Y-700500I0J-2000D01*
G01Y-703520D01*
G03X-73420Y-705520I2000J0D01*
G01X-40880D01*
G03X-38880Y-703520I0J2000D01*
G01Y-700500D01*
G02X-36880Y-698500I2000J0D01*
G01X-16910D01*
G02X-15210Y-699460I-8J-1999D01*
G01X-13150Y-702830D01*
X-13110Y-703860D01*
X-13360Y-704330D01*
G03Y-718070I13360J-6870D01*
G01X-13110Y-718540D01*
X-13150Y-719570D01*
X-15210Y-722940D01*
G02X-16910Y-723900I-1708J1039D01*
G01X-199770D01*
G02X-201070Y-723420I0J2000D01*
G37*
G36*
G01X-254000Y-620300D02*
Y-598900D01*
G02X-252000Y-596900I2000J0D01*
G01X-16910D01*
G02X-15210Y-597860I-8J-1999D01*
G01X-13150Y-601230D01*
X-13110Y-602260D01*
X-13360Y-602730D01*
G03Y-616470I13360J-6870D01*
G01X-13110Y-616940D01*
X-13150Y-617970D01*
X-15210Y-621340D01*
G02X-16910Y-622300I-1708J1039D01*
G01X-72770D01*
G02X-74070Y-621820I0J2000D01*
G03X-79290Y-619890I-5220J-6094D01*
G01X-149290D01*
G03X-154510Y-621820I0J-8024D01*
G02X-155810Y-622300I-1300J1520D01*
G01X-252000D01*
G02X-254000Y-620300I0J2000D01*
G37*
G36*
G01X-201080Y-520220D02*
G03X-206300Y-518290I-5220J-6094D01*
G01X-252000D01*
G02X-254000Y-516290I0J2000D01*
G01Y-497300D01*
G02X-252000Y-495300I2000J0D01*
G01X-77420D01*
G02X-75420Y-497300I0J-2000D01*
G01Y-500320D01*
G03X-73420Y-502320I2000J0D01*
G01X-40880D01*
G03X-38880Y-500320I0J2000D01*
G01Y-497300D01*
G02X-36880Y-495300I2000J0D01*
G01X-16910D01*
G02X-15210Y-496260I-8J-1999D01*
G01X-13150Y-499630D01*
X-13110Y-500660D01*
X-13360Y-501130D01*
G03Y-514870I13360J-6870D01*
G01X-13110Y-515340D01*
X-13150Y-516370D01*
X-15210Y-519740D01*
G02X-16910Y-520700I-1708J1039D01*
G01X-199780D01*
G02X-201080Y-520220I0J2000D01*
G37*
G36*
G01X-254000Y-417100D02*
Y-395700D01*
G02X-252000Y-393700I2000J0D01*
G01X-16910D01*
G02X-15210Y-394660I-8J-1999D01*
G01X-13150Y-398030D01*
X-13110Y-399060D01*
X-13360Y-399530D01*
G03Y-413270I13360J-6870D01*
G01X-13110Y-413740D01*
X-13150Y-414770D01*
X-15210Y-418140D01*
G02X-16910Y-419100I-1708J1039D01*
G01X-72770D01*
G02X-74070Y-418620I0J1999D01*
G03X-79280Y-416700I-5210J-6109D01*
G01X-149280D01*
G03X-154490Y-418620I0J-8029D01*
G02X-155790Y-419100I-1300J1519D01*
G01X-252000D01*
G02X-254000Y-417100I0J2000D01*
G37*
G36*
G01X-201070Y-317020D02*
G03X-206300Y-315080I-5230J-6080D01*
G01X-252000D01*
G02X-254000Y-313080I0J2000D01*
G01Y-294100D01*
G02X-252000Y-292100I2000J0D01*
G01X-77420D01*
G02X-75420Y-294100I0J-2000D01*
G01Y-297120D01*
G03X-73420Y-299120I2000J0D01*
G01X-40880D01*
G03X-38880Y-297120I0J2000D01*
G01Y-294100D01*
G02X-36880Y-292100I2000J0D01*
G01X-16910D01*
G02X-15210Y-293060I-8J-1999D01*
G01X-13150Y-296430D01*
X-13110Y-297460D01*
X-13360Y-297930D01*
G03Y-311670I13360J-6870D01*
G01X-13110Y-312140D01*
X-13150Y-313170D01*
X-15210Y-316540D01*
G02X-16910Y-317500I-1708J1039D01*
G01X-199770D01*
G02X-201070Y-317020I0J2000D01*
G37*
G36*
G01X-254000Y-213900D02*
Y-192500D01*
G02X-252000Y-190500I2000J0D01*
G01X-16910D01*
G02X-15210Y-191460I-8J-1999D01*
G01X-13150Y-194830D01*
X-13110Y-195860D01*
X-13360Y-196330D01*
G03Y-210070I13360J-6870D01*
G01X-13110Y-210540D01*
X-13150Y-211570D01*
X-15210Y-214940D01*
G02X-16910Y-215900I-1708J1039D01*
G01X-72770D01*
G02X-74070Y-215420I0J2000D01*
G03X-79300Y-213480I-5230J-6080D01*
G01X-149300D01*
G03X-154530Y-215420I0J-8020D01*
G02X-155830Y-215900I-1300J1520D01*
G01X-252000D01*
G02X-254000Y-213900I0J2000D01*
G37*
G36*
G01X-201070Y-113820D02*
G03X-206300Y-111880I-5230J-6080D01*
G01X-252000D01*
G02X-254000Y-109880I0J2000D01*
G01Y-90900D01*
G02X-252000Y-88900I2000J0D01*
G01X-77420D01*
G02X-75420Y-90900I0J-2000D01*
G01Y-93920D01*
G03X-73420Y-95920I2000J0D01*
G01X-40880D01*
G03X-38880Y-93920I0J2000D01*
G01Y-90900D01*
G02X-36880Y-88900I2000J0D01*
G01X-16910D01*
G02X-15210Y-89860I-8J-1999D01*
G01X-13150Y-93230D01*
X-13110Y-94260D01*
X-13360Y-94730D01*
G03Y-108470I13360J-6870D01*
G01X-13110Y-108940D01*
X-13150Y-109970D01*
X-15210Y-113340D01*
G02X-16910Y-114300I-1708J1039D01*
G01X-199770D01*
G02X-201070Y-113820I0J2000D01*
G37*
G36*
G01X-254000Y-10700D02*
Y10700D01*
G02X-252000Y12700I2000J0D01*
G01X-17020D01*
G02X-15020Y10700I0J-2000D01*
G01Y-10700D01*
G02X-17020Y-12700I-2000J0D01*
G01X-72770D01*
G02X-74070Y-12220I0J2000D01*
G03X-79300Y-10280I-5230J-6080D01*
G01X-149300D01*
G03X-154530Y-12220I0J-8020D01*
G02X-155830Y-12700I-1300J1520D01*
G01X-252000D01*
G02X-254000Y-10700I0J2000D01*
G37*
%LPC*%
G75*
G36*
G01X-843690Y-1196020D02*
X-845410D01*
G03X-846270Y-1196510I0J-1000D01*
G02Y-1183470I-10980J6520D01*
G03X-845410Y-1183960I860J510D01*
G01X-843690D01*
G03X-842830Y-1183470I0J1000D01*
G02X-820870I10980J-6520D01*
G03X-820010Y-1183960I860J510D01*
G01X-818290D01*
G03X-817430Y-1183470I0J1000D01*
G02Y-1196510I10980J-6520D01*
G03X-818290Y-1196020I-860J-510D01*
G01X-820010D01*
G03X-820870Y-1196510I0J-1000D01*
G02X-842830I-10980J6520D01*
G03X-843690Y-1196020I-860J-510D01*
G37*
G36*
G01X-841120Y-1967120D02*
X-822580D01*
G02X-821580Y-1968120I0J-1000D01*
G01Y-1986660D01*
G02X-822580Y-1987660I-1000J0D01*
G01X-841120D01*
G02X-842120Y-1986660I0J1000D01*
G01Y-1968120D01*
G02X-841120Y-1967120I1000J0D01*
G37*
G36*
G01Y-1738520D02*
X-822580D01*
G02X-821580Y-1739520I0J-1000D01*
G01Y-1758060D01*
G02X-822580Y-1759060I-1000J0D01*
G01X-841120D01*
G02X-842120Y-1758060I0J1000D01*
G01Y-1739520D01*
G02X-841120Y-1738520I1000J0D01*
G37*
G36*
G01Y-1484520D02*
X-822580D01*
G02X-821580Y-1485520I0J-1000D01*
G01Y-1504060D01*
G02X-822580Y-1505060I-1000J0D01*
G01X-841120D01*
G02X-842120Y-1504060I0J1000D01*
G01Y-1485520D01*
G02X-841120Y-1484520I1000J0D01*
G37*
G36*
G01Y-1230520D02*
X-822580D01*
G02X-821580Y-1231520I0J-1000D01*
G01Y-1250060D01*
G02X-822580Y-1251060I-1000J0D01*
G01X-841120D01*
G02X-842120Y-1250060I0J1000D01*
G01Y-1231520D01*
G02X-841120Y-1230520I1000J0D01*
G37*
G36*
G01X-749270Y-926430D02*
X-730730D01*
G02X-729730Y-927430I0J-1000D01*
G01Y-945970D01*
G02X-730730Y-946970I-1000J0D01*
G01X-749270D01*
G02X-750270Y-945970I0J1000D01*
G01Y-927430D01*
G02X-749270Y-926430I1000J0D01*
G37*
G36*
G01X-415070Y-1783080D02*
X-385030D01*
G02X-383030Y-1785080I0J-2000D01*
G01Y-1799120D01*
G02X-385030Y-1801120I-2000J0D01*
G01X-415070D01*
G02X-417070Y-1799120I0J2000D01*
G01Y-1785080D01*
G02X-415070Y-1783080I2000J0D01*
G37*
G36*
G01X-477570Y-1682480D02*
X-449530D01*
G02X-447530Y-1684480I0J-2000D01*
G01Y-1696520D01*
G02X-449530Y-1698520I-2000J0D01*
G01X-477570D01*
G02X-479570Y-1696520I0J2000D01*
G01Y-1684480D01*
G02X-477570Y-1682480I2000J0D01*
G37*
G36*
G01X-415070Y-1579880D02*
X-385030D01*
G02X-383030Y-1581880I0J-2000D01*
G01Y-1595920D01*
G02X-385030Y-1597920I-2000J0D01*
G01X-415070D01*
G02X-417070Y-1595920I0J2000D01*
G01Y-1581880D01*
G02X-415070Y-1579880I2000J0D01*
G37*
G36*
G01X-477570Y-1479280D02*
X-449530D01*
G02X-447530Y-1481280I0J-2000D01*
G01Y-1493320D01*
G02X-449530Y-1495320I-2000J0D01*
G01X-477570D01*
G02X-479570Y-1493320I0J2000D01*
G01Y-1481280D01*
G02X-477570Y-1479280I2000J0D01*
G37*
G36*
G01X-415070Y-1376680D02*
X-385030D01*
G02X-383030Y-1378680I0J-2000D01*
G01Y-1392720D01*
G02X-385030Y-1394720I-2000J0D01*
G01X-415070D01*
G02X-417070Y-1392720I0J2000D01*
G01Y-1378680D01*
G02X-415070Y-1376680I2000J0D01*
G37*
G36*
G01X-477570Y-1276080D02*
X-449530D01*
G02X-447530Y-1278080I0J-2000D01*
G01Y-1290120D01*
G02X-449530Y-1292120I-2000J0D01*
G01X-477570D01*
G02X-479570Y-1290120I0J2000D01*
G01Y-1278080D01*
G02X-477570Y-1276080I2000J0D01*
G37*
G36*
G01X-415070Y-1173480D02*
X-385030D01*
G02X-383030Y-1175480I0J-2000D01*
G01Y-1189520D01*
G02X-385030Y-1191520I-2000J0D01*
G01X-415070D01*
G02X-417070Y-1189520I0J2000D01*
G01Y-1175480D01*
G02X-415070Y-1173480I2000J0D01*
G37*
G36*
G01X-477570Y-1072880D02*
X-449530D01*
G02X-447530Y-1074880I0J-2000D01*
G01Y-1086920D01*
G02X-449530Y-1088920I-2000J0D01*
G01X-477570D01*
G02X-479570Y-1086920I0J2000D01*
G01Y-1074880D01*
G02X-477570Y-1072880I2000J0D01*
G37*
G36*
G01X-415070Y-709930D02*
X-385030D01*
G02X-383030Y-711930I0J-2000D01*
G01Y-725970D01*
G02X-385030Y-727970I-2000J0D01*
G01X-415070D01*
G02X-417070Y-725970I0J2000D01*
G01Y-711930D01*
G02X-415070Y-709930I2000J0D01*
G37*
G36*
G01X-477570Y-609330D02*
X-449530D01*
G02X-447530Y-611330I0J-2000D01*
G01Y-623370D01*
G02X-449530Y-625370I-2000J0D01*
G01X-477570D01*
G02X-479570Y-623370I0J2000D01*
G01Y-611330D01*
G02X-477570Y-609330I2000J0D01*
G37*
G36*
G01X-415070Y-506730D02*
X-385030D01*
G02X-383030Y-508730I0J-2000D01*
G01Y-522770D01*
G02X-385030Y-524770I-2000J0D01*
G01X-415070D01*
G02X-417070Y-522770I0J2000D01*
G01Y-508730D01*
G02X-415070Y-506730I2000J0D01*
G37*
G36*
G01X-477570Y-406130D02*
X-449530D01*
G02X-447530Y-408130I0J-2000D01*
G01Y-420170D01*
G02X-449530Y-422170I-2000J0D01*
G01X-477570D01*
G02X-479570Y-420170I0J2000D01*
G01Y-408130D01*
G02X-477570Y-406130I2000J0D01*
G37*
G36*
G01X-415070Y-303530D02*
X-385030D01*
G02X-383030Y-305530I0J-2000D01*
G01Y-319570D01*
G02X-385030Y-321570I-2000J0D01*
G01X-415070D01*
G02X-417070Y-319570I0J2000D01*
G01Y-305530D01*
G02X-415070Y-303530I2000J0D01*
G37*
G36*
G01X-477570Y-202930D02*
X-449530D01*
G02X-447530Y-204930I0J-2000D01*
G01Y-216970D01*
G02X-449530Y-218970I-2000J0D01*
G01X-477570D01*
G02X-479570Y-216970I0J2000D01*
G01Y-204930D01*
G02X-477570Y-202930I2000J0D01*
G37*
G36*
G01X-415070Y-100330D02*
X-385030D01*
G02X-383030Y-102330I0J-2000D01*
G01Y-116370D01*
G02X-385030Y-118370I-2000J0D01*
G01X-415070D01*
G02X-417070Y-116370I0J2000D01*
G01Y-102330D01*
G02X-415070Y-100330I2000J0D01*
G37*
G36*
G01X-477570Y270D02*
X-449530D01*
G02X-447530Y-1730I0J-2000D01*
G01Y-13770D01*
G02X-449530Y-15770I-2000J0D01*
G01X-477570D01*
G02X-479570Y-13770I0J2000D01*
G01Y-1730D01*
G02X-477570Y270I2000J0D01*
G37*
G54D38*
X-740000Y-911300D03*
G54D36*
X-812800Y-2032000D03*
X-876300Y-939800D03*
G54D37*
X-831850Y-1774190D03*
Y-1799590D03*
Y-1672590D03*
Y-1697990D03*
Y-1723390D03*
Y-1596390D03*
Y-1621790D03*
Y-1647190D03*
Y-1520190D03*
Y-1545590D03*
Y-1570990D03*
Y-1443990D03*
Y-1469390D03*
Y-1367790D03*
Y-1393190D03*
Y-1418590D03*
Y-1291590D03*
Y-1316990D03*
Y-1342390D03*
Y-1215390D03*
Y-1266190D03*
X-857250Y-1215390D03*
X-806450D03*
%LPD*%
G75*
G54D10*
X-882650Y-2028190D03*
Y-1139190D03*
G54D20*
X-528450Y-1828800D03*
X-576450D03*
X-528450Y-1727200D03*
X-576450D03*
X-528450Y-1625600D03*
X-576450D03*
X-528450Y-1524000D03*
X-576450D03*
X-528450Y-1422400D03*
X-576450D03*
X-528450Y-1320800D03*
X-576450D03*
X-528450Y-1219200D03*
X-576450D03*
X-528450Y-1117600D03*
X-576450D03*
X-528450Y-755650D03*
X-576450D03*
X-528450Y-654050D03*
X-576450D03*
X-528450Y-552450D03*
X-576450D03*
X-528450Y-450850D03*
X-576450D03*
X-528450Y-349250D03*
X-576450D03*
X-528450Y-247650D03*
X-576450D03*
X-528450Y-146050D03*
X-576450D03*
X-528450Y-44450D03*
X-576450D03*
G54D11*
X-894000Y-1996000D03*
X-895350Y-1847850D03*
Y-1695450D03*
Y-1530350D03*
Y-1428750D03*
Y-1238250D03*
Y-1174750D03*
Y-1098550D03*
Y-977900D03*
Y-673100D03*
Y-463550D03*
Y-254000D03*
X-844550Y-2051050D03*
X-812800Y-2032000D03*
X-850900Y-1079500D03*
X-857250Y-984250D03*
X-844550Y-939800D03*
X-861000Y-859000D03*
X-838200Y-828040D03*
X-819150Y-821690D03*
X-828450Y-767390D03*
X-861000Y-650000D03*
X-829450Y-577390D03*
X-861000Y-441000D03*
X-829450Y-287390D03*
X-861000Y-231000D03*
X-823450Y-179390D03*
X-857250Y-171450D03*
Y-50800D03*
X-889000Y-19050D03*
Y69850D03*
X-863600Y127000D03*
X-786000Y-1964000D03*
X-793750Y-2006600D03*
X-740000Y-1540000D03*
X-742950Y-1441450D03*
X-749300Y-1339850D03*
Y-1238250D03*
X-800100Y-1155700D03*
X-749300Y-1136650D03*
X-800100Y-1085850D03*
X-800000Y-992000D03*
X-749300Y-1047750D03*
X-752450Y-829390D03*
X-777450Y-825390D03*
X-783450Y-844390D03*
X-790450Y-863390D03*
X-800000Y-886000D03*
X-771450Y-789390D03*
X-752450Y-771390D03*
X-781050Y-808990D03*
X-762000Y-802640D03*
X-800100Y-815340D03*
X-790450Y-713390D03*
X-809450Y-644390D03*
X-748000Y-572000D03*
X-771450Y-572390D03*
X-790450Y-491390D03*
X-749300Y-469900D03*
X-809450Y-396390D03*
X-770450Y-424390D03*
X-749300Y-368300D03*
X-789450Y-342390D03*
X-762000Y-317500D03*
X-806450Y-262390D03*
X-749300Y-266700D03*
X-762000Y-215900D03*
X-749300Y-165100D03*
X-762000Y-114300D03*
X-800100D03*
X-749300Y-63500D03*
X-762000Y-12700D03*
X-800100Y0D03*
X-806450Y38100D03*
X-787400Y69850D03*
X-755650D03*
X-717550Y-2057400D03*
X-728000Y-1971150D03*
X-726000Y-2033150D03*
X-680000Y-1940000D03*
X-692000Y-1846000D03*
X-714000Y-1862000D03*
X-696000Y-1769150D03*
X-683000Y-1759150D03*
X-696000Y-1668260D03*
X-683000Y-1657150D03*
X-696000Y-1565150D03*
X-683000Y-1556150D03*
X-730250Y-1562100D03*
X-696000Y-1465060D03*
X-683000Y-1454150D03*
X-730250Y-1460500D03*
X-696000Y-1363150D03*
X-730250Y-1358900D03*
X-683000Y-1352150D03*
X-696000Y-1259150D03*
X-683000Y-1251150D03*
X-730250Y-1257300D03*
X-696000Y-1159150D03*
X-683000Y-1149150D03*
X-730250Y-1155700D03*
X-696000Y-1057150D03*
X-730000Y-1054000D03*
X-683000Y-1047150D03*
X-710000Y-1041150D03*
X-683000Y-788150D03*
X-710000Y-791150D03*
X-696000Y-696710D03*
X-683000Y-685150D03*
X-728000Y-690000D03*
X-696000Y-591150D03*
X-683000Y-584150D03*
X-730000Y-590000D03*
X-696000Y-489150D03*
X-683000Y-482150D03*
X-728000Y-490000D03*
X-696000Y-387150D03*
X-683000Y-381150D03*
X-730250Y-387350D03*
X-696000Y-285150D03*
X-683000Y-279150D03*
X-730250Y-285750D03*
X-696000Y-185150D03*
X-683000Y-178150D03*
X-730250Y-184150D03*
X-696000Y-87110D03*
X-683000Y-76150D03*
X-730250Y-82550D03*
X-696000Y14850D03*
X-687000Y29850D03*
X-698500Y69850D03*
X-592000Y-2058000D03*
X-616000Y-1991150D03*
X-615950Y-2032000D03*
X-592000Y-1950000D03*
X-638000Y-1904000D03*
X-584200Y-1803400D03*
X-558800D03*
X-584200Y-1701960D03*
X-558800Y-1701800D03*
X-584200Y-1600200D03*
X-558800D03*
X-584200Y-1498760D03*
X-558800Y-1498600D03*
X-584200Y-1397000D03*
X-558800D03*
X-584200Y-1295560D03*
X-558800Y-1295400D03*
X-584200Y-1193800D03*
X-558800D03*
Y-1092200D03*
X-584200Y-1092360D03*
Y-730250D03*
X-558800D03*
X-584200Y-628810D03*
X-558800Y-628650D03*
X-584200Y-527050D03*
X-558800D03*
X-584200Y-425610D03*
X-558800Y-425450D03*
X-584200Y-323850D03*
X-558800D03*
X-584200Y-222410D03*
X-558800Y-222250D03*
X-584200Y-120650D03*
X-558800D03*
Y-19050D03*
X-584200Y-19210D03*
X0Y-2032000D03*
Y127000D03*
G54D30*
G01Y-1835150D02*
X-57150D01*
G01X0Y-1631950D02*
X-57150D01*
G01X0Y-1428750D02*
X-57150D01*
G01X0Y-1225550D02*
X-57150D01*
G01X0Y-762000D02*
X-57150D01*
G01X0Y-558800D02*
X-57150D01*
G01X0Y-355600D02*
X-57150D01*
G01X0Y-152400D02*
X-57150D01*
G01X-17020Y-1784350D02*
X0D01*
G01Y-1682750D02*
X22940D01*
X32540Y-1673150D01*
X57150D01*
G01X-17020Y-1682750D02*
X0D01*
G01Y-1733550D02*
X22940D01*
X32540Y-1743150D01*
X57150D01*
G01X0Y-1530350D02*
X22940D01*
X32540Y-1539950D01*
X57150D01*
G01X-17020Y-1581150D02*
X0D01*
G01X57150Y-1469950D02*
X30960D01*
X21360Y-1479550D01*
X0D01*
G01X-17020D02*
X0D01*
G01X-17020Y-1377950D02*
X0D01*
G01Y-1327150D02*
X22940D01*
X32540Y-1336750D01*
X57150D01*
G01X0Y-1276350D02*
X22940D01*
X32540Y-1266750D01*
X57150D01*
G01X-17020Y-1276350D02*
X0D01*
G01X-17020Y-1174750D02*
X0D01*
G01Y-1123950D02*
X22940D01*
X32540Y-1133550D01*
X57150D01*
G01X0Y-1073150D02*
X22940D01*
X32540Y-1063550D01*
X57150D01*
G01X-17020Y-1073150D02*
X0D01*
G01X-17020Y-711200D02*
X0D01*
G01Y-660400D02*
X22940D01*
X32540Y-670000D01*
X57150D01*
G01X0Y-609600D02*
X22940D01*
X32540Y-600000D01*
X57150D01*
G01X-17020Y-609600D02*
X0D01*
G01Y-457200D02*
X22940D01*
X32540Y-466800D01*
X57150D01*
G01X-17020Y-508000D02*
X0D01*
G01Y-406400D02*
X22940D01*
X32540Y-396800D01*
X57150D01*
G01X-17020Y-406400D02*
X0D01*
G01X-17020Y-304800D02*
X0D01*
G01Y-254000D02*
X22940D01*
X32540Y-263600D01*
X57150D01*
G01X0Y-203200D02*
X22940D01*
X32540Y-193600D01*
X57150D01*
G01X-17020Y-203200D02*
X0D01*
G01X-17020Y-101600D02*
X0D01*
G01Y0D02*
X22940D01*
X32540Y9600D01*
X57150D01*
G01X-17020Y0D02*
X0D01*
G01Y-50800D02*
X22940D01*
X32540Y-60400D01*
X57150D01*
G54D12*
X-831850Y-1977390D03*
X-857250D03*
X-831850Y-1748790D03*
X-857250D03*
X-831850Y-1494790D03*
X-857250D03*
X-831850Y-1240790D03*
X-857250D03*
X-806450Y-1977390D03*
Y-1748790D03*
Y-1494790D03*
Y-1240790D03*
X-740000Y-936700D03*
G54D21*
X-573950Y-1784350D03*
X-530950D03*
X-573950Y-1682750D03*
X-530950D03*
X-573950Y-1581150D03*
X-530950D03*
X-573950Y-1479550D03*
X-530950D03*
X-573950Y-1377950D03*
X-530950D03*
X-573950Y-1276350D03*
X-530950D03*
X-573950Y-1174750D03*
X-530950D03*
X-573950Y-1073150D03*
X-530950D03*
X-573950Y-711200D03*
X-530950D03*
X-573950Y-609600D03*
X-530950D03*
X-573950Y-508000D03*
X-530950D03*
X-573950Y-406400D03*
X-530950D03*
X-573950Y-304800D03*
X-530950D03*
X-573950Y-203200D03*
X-530950D03*
X-573950Y-101600D03*
X-530950D03*
X-573950Y0D03*
X-530950D03*
X-438150Y-1837600D03*
Y-1794600D03*
Y-1634400D03*
Y-1591400D03*
Y-1431200D03*
Y-1388200D03*
Y-1228000D03*
Y-1185000D03*
Y-764450D03*
Y-721450D03*
Y-561250D03*
Y-518250D03*
Y-358050D03*
Y-315050D03*
Y-154850D03*
Y-111850D03*
X-425450Y-1736000D03*
Y-1693000D03*
Y-1532800D03*
Y-1489800D03*
Y-1329600D03*
Y-1286600D03*
Y-1126400D03*
Y-1083400D03*
Y-662850D03*
Y-619850D03*
Y-459650D03*
Y-416650D03*
Y-256450D03*
Y-213450D03*
Y-53250D03*
Y-10250D03*
G54D31*
G01X-690000Y-1784350D02*
Y-1800450D01*
X-687050Y-1803400D01*
G01X-696000Y-1769150D02*
Y-1778350D01*
X-690000Y-1784350D01*
G01X-687050Y-1816100D02*
X-708900D01*
X-711200Y-1813800D01*
G01X-690000Y-1682750D02*
Y-1698850D01*
X-687050Y-1701800D01*
G01X-690000Y-1682750D02*
Y-1675150D01*
X-696000Y-1669150D01*
Y-1668260D01*
G01X-687050Y-1714500D02*
X-708900D01*
X-711200Y-1712200D01*
G01X-690000Y-1581150D02*
Y-1597250D01*
X-687050Y-1600200D01*
G01Y-1612900D02*
X-708900D01*
X-711200Y-1610600D01*
G01X-690000Y-1581150D02*
Y-1571150D01*
X-696000Y-1565150D01*
G01X-690000Y-1479550D02*
Y-1495650D01*
X-687050Y-1498600D01*
G01X-690000Y-1479550D02*
Y-1471150D01*
X-696000Y-1465150D01*
Y-1465060D01*
G01X-687050Y-1511300D02*
X-708900D01*
X-711200Y-1509000D01*
G01X-690000Y-1377950D02*
Y-1394050D01*
X-687050Y-1397000D01*
G01X-690000Y-1377950D02*
Y-1369150D01*
X-696000Y-1363150D01*
G01X-687050Y-1409700D02*
X-708900D01*
X-711200Y-1407400D01*
G01X-690000Y-1276350D02*
Y-1292450D01*
X-687050Y-1295400D01*
G01Y-1308100D02*
X-708900D01*
X-711200Y-1305800D01*
G01X-690000Y-1276350D02*
Y-1265150D01*
X-696000Y-1259150D01*
G01X-690000Y-1174750D02*
Y-1190850D01*
X-687050Y-1193800D01*
G01X-690000Y-1174750D02*
Y-1165150D01*
X-696000Y-1159150D01*
G01X-687050Y-1206500D02*
X-708900D01*
X-711200Y-1204200D01*
G01X-690000Y-1073150D02*
Y-1089250D01*
X-687050Y-1092200D01*
G01X-690000Y-1073150D02*
Y-1063150D01*
X-696000Y-1057150D01*
G01X-687050Y-1104900D02*
X-708900D01*
X-711200Y-1102600D01*
G01X-690000Y-711200D02*
Y-727300D01*
X-687050Y-730250D01*
G01X-690000Y-711200D02*
Y-703150D01*
X-696000Y-697150D01*
Y-696710D01*
G01X-687050Y-742950D02*
X-708900D01*
X-711200Y-740650D01*
G01X-690000Y-609600D02*
Y-625700D01*
X-687050Y-628650D01*
G01X-690000Y-609600D02*
Y-597150D01*
X-696000Y-591150D01*
G01X-687050Y-641350D02*
X-708900D01*
X-711200Y-639050D01*
G01X-690000Y-508000D02*
Y-524100D01*
X-687050Y-527050D01*
G01Y-539750D02*
X-708900D01*
X-711200Y-537450D01*
G01X-690000Y-508000D02*
Y-495150D01*
X-696000Y-489150D01*
G01X-690000Y-406400D02*
Y-422500D01*
X-687050Y-425450D01*
G01X-690000Y-406400D02*
Y-393150D01*
X-696000Y-387150D01*
G01X-687050Y-438150D02*
X-708900D01*
X-711200Y-435850D01*
G01X-690000Y-304800D02*
Y-320900D01*
X-687050Y-323850D01*
G01X-690000Y-304800D02*
Y-291150D01*
X-696000Y-285150D01*
G01X-687050Y-336550D02*
X-708900D01*
X-711200Y-334250D01*
G01X-690000Y-203200D02*
Y-219300D01*
X-687050Y-222250D01*
G01Y-234950D02*
X-708900D01*
X-711200Y-232650D01*
G01X-690000Y-203200D02*
Y-191150D01*
X-696000Y-185150D01*
G01X-690000Y-101600D02*
Y-117700D01*
X-687050Y-120650D01*
G01X-690000Y-101600D02*
Y-93150D01*
X-696000Y-87150D01*
Y-87110D01*
G01X-711200Y-131050D02*
X-689350D01*
X-687050Y-133350D01*
G01X-690000Y0D02*
Y-16100D01*
X-687050Y-19050D01*
G01X-690000Y0D02*
Y8850D01*
X-696000Y14850D01*
G01X-711200Y-29450D02*
X-689350D01*
X-687050Y-31750D01*
G01X-576450Y-1828800D02*
X-589600D01*
X-589900Y-1829100D01*
X-596900D01*
G01D02*
X-603900D01*
X-604200Y-1828800D01*
X-621050D01*
G01Y-1803400D02*
X-604200D01*
X-603900Y-1803100D01*
X-596900D01*
G01D02*
Y-1793240D01*
X-588010Y-1784350D01*
X-573950D01*
G01X-576450Y-1727200D02*
X-589600D01*
X-589900Y-1727500D01*
X-596900D01*
G01D02*
X-603900D01*
X-604200Y-1727200D01*
X-621050D01*
G01Y-1701800D02*
X-604200D01*
X-603900Y-1701500D01*
X-596900D01*
G01D02*
Y-1691640D01*
X-588010Y-1682750D01*
X-573950D01*
G01X-576450Y-1625600D02*
X-589600D01*
X-589900Y-1625900D01*
X-596900D01*
G01D02*
X-603900D01*
X-604200Y-1625600D01*
X-621050D01*
G01Y-1600200D02*
X-604200D01*
X-603900Y-1599900D01*
X-596900D01*
G01D02*
Y-1590040D01*
X-588010Y-1581150D01*
X-573950D01*
G01X-621050Y-1524000D02*
X-604200D01*
X-603900Y-1524300D01*
X-596900D01*
G01D02*
X-589900D01*
X-589600Y-1524000D01*
X-576450D01*
G01X-596900Y-1498300D02*
Y-1488440D01*
X-588010Y-1479550D01*
X-573950D01*
G01X-596900Y-1498300D02*
X-603160D01*
X-603460Y-1498600D01*
X-621050D01*
G01X-576450Y-1422400D02*
X-589600D01*
X-589900Y-1422700D01*
X-596900D01*
G01D02*
X-603900D01*
X-604200Y-1422400D01*
X-621050D01*
G01Y-1397000D02*
X-604200D01*
X-603900Y-1396700D01*
X-596900D01*
G01D02*
Y-1386840D01*
X-588010Y-1377950D01*
X-573950D01*
G01X-576450Y-1320800D02*
X-589600D01*
X-589900Y-1321100D01*
X-596900D01*
G01D02*
X-603900D01*
X-604200Y-1320800D01*
X-621050D01*
G01Y-1295400D02*
X-604200D01*
X-603900Y-1295100D01*
X-596900D01*
G01D02*
Y-1285240D01*
X-588010Y-1276350D01*
X-573950D01*
G01X-576450Y-1219200D02*
X-589600D01*
X-589900Y-1219500D01*
X-596900D01*
G01D02*
X-603900D01*
X-604200Y-1219200D01*
X-621050D01*
G01Y-1193800D02*
X-604200D01*
X-603900Y-1193500D01*
X-596900D01*
G01D02*
Y-1183640D01*
X-588010Y-1174750D01*
X-573950D01*
G01Y-1073150D02*
X-588700D01*
X-596900Y-1081350D01*
Y-1091900D01*
G01D02*
X-603900D01*
X-604200Y-1092200D01*
X-621050D01*
G01X-596900Y-1117900D02*
X-589900D01*
X-589600Y-1117600D01*
X-576450D01*
G01X-596900Y-1117900D02*
X-603160D01*
X-603460Y-1117600D01*
X-621050D01*
G01Y-755650D02*
X-604200D01*
X-603900Y-755950D01*
X-596900D01*
G01D02*
X-589900D01*
X-589600Y-755650D01*
X-576450D01*
G01X-621050Y-730250D02*
X-604200D01*
X-603900Y-729950D01*
X-596900D01*
G01D02*
Y-720090D01*
X-588010Y-711200D01*
X-573950D01*
G01X-621050Y-654050D02*
X-604200D01*
X-603900Y-654350D01*
X-596900D01*
G01D02*
X-589900D01*
X-589600Y-654050D01*
X-576450D01*
G01X-621050Y-628650D02*
X-604200D01*
X-603900Y-628350D01*
X-596900D01*
G01D02*
Y-618490D01*
X-588010Y-609600D01*
X-573950D01*
G01X-621050Y-552450D02*
X-604200D01*
X-603900Y-552750D01*
X-596900D01*
G01D02*
X-589900D01*
X-589600Y-552450D01*
X-576450D01*
G01X-621050Y-527050D02*
X-604200D01*
X-603900Y-526750D01*
X-596900D01*
G01D02*
Y-516890D01*
X-588010Y-508000D01*
X-573950D01*
G01X-596900Y-451150D02*
X-589900D01*
X-589600Y-450850D01*
X-576450D01*
G01X-596900Y-451150D02*
X-603160D01*
X-603460Y-450850D01*
X-621050D01*
G01X-596900Y-425150D02*
Y-415290D01*
X-588010Y-406400D01*
X-573950D01*
G01X-596900Y-425150D02*
X-603160D01*
X-603460Y-425450D01*
X-621050D01*
G01X-576450Y-349250D02*
X-589600D01*
X-589900Y-349550D01*
X-596900D01*
G01D02*
X-603900D01*
X-604200Y-349250D01*
X-621050D01*
G01Y-323850D02*
X-604200D01*
X-603900Y-323550D01*
X-596900D01*
G01D02*
Y-313690D01*
X-588010Y-304800D01*
X-573950D01*
G01X-596900Y-247950D02*
X-589900D01*
X-589600Y-247650D01*
X-576450D01*
G01X-596900Y-247950D02*
X-603160D01*
X-603460Y-247650D01*
X-621050D01*
G01X-596900Y-221950D02*
Y-212090D01*
X-588010Y-203200D01*
X-573950D01*
G01X-596900Y-221950D02*
X-603160D01*
X-603460Y-222250D01*
X-621050D01*
G01Y-146050D02*
X-604200D01*
X-603900Y-146350D01*
X-596900D01*
G01D02*
X-589900D01*
X-589600Y-146050D01*
X-576450D01*
G01X-621050Y-120650D02*
X-604200D01*
X-603900Y-120350D01*
X-596900D01*
G01D02*
Y-110490D01*
X-588010Y-101600D01*
X-573950D01*
G01X-596900Y-18750D02*
Y-8890D01*
X-588010Y0D01*
X-573950D01*
G01X-621050Y-19050D02*
X-604200D01*
X-603900Y-18750D01*
X-596900D01*
G01X-621050Y-44450D02*
X-604200D01*
X-603900Y-44750D01*
X-596900D01*
G01D02*
X-589900D01*
X-589600Y-44450D01*
X-576450D01*
G01X-584200Y-1803400D02*
X-576450Y-1811150D01*
Y-1828800D01*
G01X-558800Y-1803400D02*
Y-1799500D01*
X-573950Y-1784350D01*
G01X-584200Y-1701960D02*
X-576450Y-1709710D01*
Y-1727200D01*
G01X-558800Y-1701800D02*
Y-1697900D01*
X-573950Y-1682750D01*
G01X-584200Y-1600200D02*
X-576450Y-1607950D01*
Y-1625600D01*
G01X-558800Y-1600200D02*
Y-1596300D01*
X-573950Y-1581150D01*
G01X-584200Y-1498760D02*
X-576450Y-1506510D01*
Y-1524000D01*
G01X-558800Y-1498600D02*
Y-1494700D01*
X-573950Y-1479550D01*
G01X-584200Y-1397000D02*
X-576450Y-1404750D01*
Y-1422400D01*
G01X-558800Y-1397000D02*
Y-1393100D01*
X-573950Y-1377950D01*
G01X-584200Y-1295560D02*
X-576450Y-1303310D01*
Y-1320800D01*
G01X-558800Y-1295400D02*
Y-1291500D01*
X-573950Y-1276350D01*
G01X-584200Y-1193800D02*
X-576450Y-1201550D01*
Y-1219200D01*
G01X-558800Y-1193800D02*
Y-1189900D01*
X-573950Y-1174750D01*
G01X-558800Y-1092200D02*
Y-1088300D01*
X-573950Y-1073150D01*
G01X-584200Y-1092360D02*
X-576450Y-1100110D01*
Y-1117600D01*
G01X-584200Y-730250D02*
X-576450Y-738000D01*
Y-755650D01*
G01X-558800Y-730250D02*
Y-726350D01*
X-573950Y-711200D01*
G01X-584200Y-628810D02*
X-576450Y-636560D01*
Y-654050D01*
G01X-558800Y-628650D02*
Y-624750D01*
X-573950Y-609600D01*
G01X-584200Y-527050D02*
X-576450Y-534800D01*
Y-552450D01*
G01X-558800Y-527050D02*
Y-523150D01*
X-573950Y-508000D01*
G01X-584200Y-425610D02*
X-576450Y-433360D01*
Y-450850D01*
G01X-558800Y-425450D02*
Y-421550D01*
X-573950Y-406400D01*
G01X-584200Y-323850D02*
X-576450Y-331600D01*
Y-349250D01*
G01X-558800Y-323850D02*
Y-319950D01*
X-573950Y-304800D01*
G01X-584200Y-222410D02*
X-576450Y-230160D01*
Y-247650D01*
G01X-558800Y-222250D02*
Y-218350D01*
X-573950Y-203200D01*
G01X-584200Y-120650D02*
X-576450Y-128400D01*
Y-146050D01*
G01X-558800Y-120650D02*
Y-116750D01*
X-573950Y-101600D01*
G01X-558800Y-19050D02*
Y-15150D01*
X-573950Y0D01*
G01X-584200Y-19210D02*
X-576450Y-26960D01*
Y-44450D01*
G54D22*
X-495300Y-1834750D03*
Y-1631550D03*
Y-1428350D03*
Y-1225150D03*
Y-761600D03*
Y-558400D03*
Y-355200D03*
Y-152000D03*
X-368300Y-1733150D03*
Y-1529950D03*
Y-1326750D03*
Y-1123550D03*
Y-660000D03*
Y-456800D03*
Y-253600D03*
Y-50400D03*
X-241300Y-1834750D03*
Y-1631550D03*
Y-1428350D03*
Y-1225150D03*
Y-761600D03*
Y-558400D03*
Y-355200D03*
Y-152000D03*
X-114300Y-1733150D03*
Y-1529950D03*
Y-1326750D03*
Y-1123550D03*
Y-660000D03*
Y-456800D03*
Y-253600D03*
Y-50400D03*
G54D13*
X-831850Y-1901190D03*
Y-1926590D03*
Y-1951990D03*
X-857250Y-1901190D03*
Y-1926590D03*
Y-1951990D03*
X-831850Y-1824990D03*
Y-1850390D03*
Y-1875790D03*
X-857250Y-1824990D03*
Y-1850390D03*
Y-1875790D03*
X-831850Y-1774190D03*
Y-1799590D03*
X-857250Y-1774190D03*
Y-1799590D03*
X-831850Y-1672590D03*
Y-1697990D03*
Y-1723390D03*
X-857250Y-1672590D03*
Y-1697990D03*
Y-1723390D03*
X-831850Y-1596390D03*
Y-1621790D03*
Y-1647190D03*
X-857250Y-1596390D03*
Y-1621790D03*
Y-1647190D03*
X-831850Y-1520190D03*
Y-1545590D03*
Y-1570990D03*
X-857250Y-1520190D03*
Y-1545590D03*
Y-1570990D03*
X-831850Y-1443990D03*
Y-1469390D03*
X-857250Y-1443990D03*
Y-1469390D03*
X-831850Y-1367790D03*
Y-1393190D03*
Y-1418590D03*
X-857250Y-1367790D03*
Y-1393190D03*
Y-1418590D03*
X-831850Y-1291590D03*
Y-1316990D03*
Y-1342390D03*
X-857250Y-1291590D03*
Y-1316990D03*
Y-1342390D03*
X-831850Y-1215390D03*
Y-1266190D03*
X-857250Y-1215390D03*
Y-1266190D03*
X-831850Y-1189990D03*
X-857250D03*
X-806450Y-1901190D03*
Y-1926590D03*
Y-1951990D03*
Y-1824990D03*
Y-1850390D03*
Y-1875790D03*
Y-1774190D03*
Y-1799590D03*
Y-1672590D03*
Y-1697990D03*
Y-1723390D03*
Y-1596390D03*
Y-1621790D03*
Y-1647190D03*
Y-1520190D03*
Y-1545590D03*
Y-1570990D03*
Y-1443990D03*
Y-1469390D03*
Y-1367790D03*
Y-1393190D03*
Y-1418590D03*
Y-1291590D03*
Y-1316990D03*
Y-1342390D03*
Y-1215390D03*
Y-1266190D03*
Y-1189990D03*
G54D32*
G01X-831850Y-1988660D02*
Y-1977390D01*
G01D02*
Y-1966120D01*
G01X-843120Y-1977390D02*
X-831850D01*
G01D02*
X-820580D01*
G01X-831850Y-1963260D02*
Y-1951990D01*
G01X-843120D02*
X-831850D01*
G01D02*
X-820580D01*
G01X-831850Y-1824990D02*
Y-1813720D01*
G01X-843120Y-1824990D02*
X-831850D01*
G01D02*
X-820580D01*
G01X-831850Y-1810860D02*
Y-1799590D01*
G01D02*
Y-1788320D01*
G01X-843120Y-1799590D02*
X-831850D01*
G01D02*
X-820580D01*
G01X-831850Y-1785460D02*
Y-1774190D01*
G01D02*
Y-1762920D01*
G01X-843120Y-1774190D02*
X-831850D01*
G01D02*
X-820580D01*
G01X-831850Y-1760060D02*
Y-1748790D01*
G01D02*
Y-1737520D01*
G01X-843120Y-1748790D02*
X-831850D01*
G01D02*
X-820580D01*
G01X-831850Y-1734660D02*
Y-1723390D01*
G01D02*
Y-1712120D01*
G01X-843120Y-1723390D02*
X-831850D01*
G01D02*
X-820580D01*
G01X-831850Y-1709260D02*
Y-1697990D01*
G01D02*
Y-1686720D01*
G01X-843120Y-1697990D02*
X-831850D01*
G01D02*
X-820580D01*
G01X-831850Y-1683860D02*
Y-1672590D01*
G01D02*
Y-1661320D01*
G01X-843120Y-1672590D02*
X-831850D01*
G01D02*
X-820580D01*
G01X-831850Y-1658460D02*
Y-1647190D01*
G01D02*
Y-1635920D01*
G01X-843120Y-1647190D02*
X-831850D01*
G01D02*
X-820580D01*
G01X-831850Y-1633060D02*
Y-1621790D01*
G01D02*
Y-1610520D01*
G01X-843120Y-1621790D02*
X-831850D01*
G01D02*
X-820580D01*
G01X-831850Y-1607660D02*
Y-1596390D01*
G01D02*
Y-1585120D01*
G01X-843120Y-1596390D02*
X-831850D01*
G01D02*
X-820580D01*
G01X-831850Y-1582260D02*
Y-1570990D01*
G01D02*
Y-1559720D01*
G01X-843120Y-1570990D02*
X-831850D01*
G01D02*
X-820580D01*
G01X-831850Y-1556860D02*
Y-1545590D01*
G01D02*
Y-1534320D01*
G01X-843120Y-1545590D02*
X-831850D01*
G01D02*
X-820580D01*
G01X-831850Y-1531460D02*
Y-1520190D01*
G01D02*
Y-1508920D01*
G01X-843120Y-1520190D02*
X-831850D01*
G01D02*
X-820580D01*
G01X-831850Y-1480660D02*
Y-1469390D01*
G01D02*
Y-1458120D01*
G01X-843120Y-1469390D02*
X-831850D01*
G01D02*
X-820580D01*
G01X-831850Y-1455260D02*
Y-1443990D01*
G01D02*
Y-1432720D01*
G01X-843120Y-1443990D02*
X-831850D01*
G01D02*
X-820580D01*
G01X-831850Y-1506060D02*
Y-1494790D01*
G01D02*
Y-1483520D01*
G01X-843120Y-1494790D02*
X-831850D01*
G01D02*
X-820580D01*
G01X-831850Y-1429860D02*
Y-1418590D01*
G01D02*
Y-1407320D01*
G01X-843120Y-1418590D02*
X-831850D01*
G01D02*
X-820580D01*
G01X-831850Y-1404460D02*
Y-1393190D01*
G01D02*
Y-1381920D01*
G01X-843120Y-1393190D02*
X-831850D01*
G01D02*
X-820580D01*
G01X-831850Y-1379060D02*
Y-1367790D01*
G01D02*
Y-1356520D01*
G01X-843120Y-1367790D02*
X-831850D01*
G01D02*
X-820580D01*
G01X-831850Y-1353660D02*
Y-1342390D01*
G01D02*
Y-1331120D01*
G01X-843120Y-1342390D02*
X-831850D01*
G01D02*
X-820580D01*
G01X-831850Y-1328260D02*
Y-1316990D01*
G01D02*
Y-1305720D01*
G01X-843120Y-1316990D02*
X-831850D01*
G01D02*
X-820580D01*
G01X-831850Y-1302860D02*
Y-1291590D01*
G01D02*
Y-1280320D01*
G01X-843120Y-1291590D02*
X-831850D01*
G01D02*
X-820580D01*
G01X-857250Y-1226660D02*
Y-1215390D01*
G01D02*
Y-1204120D01*
G01X-868520Y-1215390D02*
X-857250D01*
G01D02*
X-845980D01*
G01X-831850Y-1277460D02*
Y-1266190D01*
G01D02*
Y-1254920D01*
G01X-843120Y-1266190D02*
X-831850D01*
G01D02*
X-820580D01*
G01X-831850Y-1226660D02*
Y-1215390D01*
G01D02*
Y-1204120D01*
G01X-843120Y-1215390D02*
X-831850D01*
G01D02*
X-820580D01*
G01X-831850Y-1252060D02*
Y-1240790D01*
G01D02*
Y-1229520D01*
G01X-843120Y-1240790D02*
X-831850D01*
G01D02*
X-820580D01*
G01X-806450Y-1226660D02*
Y-1215390D01*
G01D02*
Y-1204120D01*
G01X-817720Y-1215390D02*
X-806450D01*
G01D02*
X-795180D01*
G01X-751520Y-911300D02*
X-740000D01*
G01X-751270Y-936700D02*
X-740000D01*
G01X-687050Y-1835570D02*
Y-1828800D01*
G01X-707000Y-1794870D02*
Y-1784350D01*
G01D02*
Y-1773830D01*
G01X-716020Y-1784350D02*
X-707000D01*
G01Y-1693270D02*
Y-1682750D01*
G01D02*
Y-1672230D01*
G01X-716020Y-1682750D02*
X-707000D01*
G01X-687050Y-1733970D02*
Y-1727200D01*
G01X-698320D02*
X-687050D01*
G01X-707000Y-1591670D02*
Y-1581150D01*
G01X-687050Y-1632370D02*
Y-1625600D01*
G01X-698320D02*
X-687050D01*
G01X-707000Y-1581150D02*
Y-1570630D01*
G01X-716020Y-1581150D02*
X-707000D01*
G01X-687050Y-1530770D02*
Y-1524000D01*
G01X-698320D02*
X-687050D01*
G01X-707000Y-1490070D02*
Y-1479550D01*
G01D02*
Y-1469030D01*
G01X-716020Y-1479550D02*
X-707000D01*
G01Y-1388470D02*
Y-1377950D01*
G01D02*
Y-1367430D01*
G01X-716020Y-1377950D02*
X-707000D01*
G01X-687050Y-1429170D02*
Y-1422400D01*
G01X-698320D02*
X-687050D01*
G01X-707000Y-1286870D02*
Y-1276350D01*
G01X-687050Y-1327570D02*
Y-1320800D01*
G01X-698320D02*
X-687050D01*
G01X-707000Y-1276350D02*
Y-1265830D01*
G01X-716020Y-1276350D02*
X-707000D01*
G01X-687050Y-1225970D02*
Y-1219200D01*
G01X-698320D02*
X-687050D01*
G01X-707000Y-1185270D02*
Y-1174750D01*
G01D02*
Y-1164230D01*
G01X-716020Y-1174750D02*
X-707000D01*
G01Y-1083670D02*
Y-1073150D01*
G01D02*
Y-1062630D01*
G01X-716020Y-1073150D02*
X-707000D01*
G01X-687050Y-1124370D02*
Y-1117600D01*
G01X-698320D02*
X-687050D01*
G01X-740000Y-922820D02*
Y-911300D01*
G01D02*
Y-899780D01*
G01Y-911300D02*
X-728480D01*
G01X-740000Y-947970D02*
Y-936700D01*
G01D02*
Y-925430D01*
G01Y-936700D02*
X-728730D01*
G01X-687050Y-762420D02*
Y-755650D01*
G01X-698320D02*
X-687050D01*
G01X-707000Y-721720D02*
Y-711200D01*
G01D02*
Y-700680D01*
G01X-716020Y-711200D02*
X-707000D01*
G01Y-620120D02*
Y-609600D01*
G01D02*
Y-599080D01*
G01X-716020Y-609600D02*
X-707000D01*
G01X-687050Y-660820D02*
Y-654050D01*
G01X-698320D02*
X-687050D01*
G01Y-559220D02*
Y-552450D01*
G01X-698320D02*
X-687050D01*
G01X-707000Y-518520D02*
Y-508000D01*
G01D02*
Y-497480D01*
G01X-716020Y-508000D02*
X-707000D01*
G01X-687050Y-457620D02*
Y-450850D01*
G01X-698320D02*
X-687050D01*
G01X-707000Y-416920D02*
Y-406400D01*
G01D02*
Y-395880D01*
G01X-716020Y-406400D02*
X-707000D01*
G01Y-315320D02*
Y-304800D01*
G01D02*
Y-294280D01*
G01X-716020Y-304800D02*
X-707000D01*
G01X-687050Y-356020D02*
Y-349250D01*
G01X-698320D02*
X-687050D01*
G01Y-254420D02*
Y-247650D01*
G01X-698320D02*
X-687050D01*
G01X-707000Y-213720D02*
Y-203200D01*
G01D02*
Y-192680D01*
G01X-716020Y-203200D02*
X-707000D01*
G01X-687050Y-152820D02*
Y-146050D01*
G01X-698320D02*
X-687050D01*
G01X-707000Y-112120D02*
Y-101600D01*
G01D02*
Y-91080D01*
G01X-716020Y-101600D02*
X-707000D01*
G01Y-10520D02*
Y0D01*
G01D02*
Y10520D01*
G01X-716020Y0D02*
X-707000D01*
G01X-687050Y-51220D02*
Y-44450D01*
G01X-698320D02*
X-687050D01*
G01X-538470Y-1828800D02*
X-528450D01*
G01D02*
X-518430D01*
G01X-530950Y-1800120D02*
Y-1784350D01*
G01D02*
X-515180Y-1800120D01*
G01X-530950Y-1697520D02*
Y-1682750D01*
G01X-538340Y-1697520D02*
X-530950Y-1682750D01*
G01X-538470Y-1727200D02*
X-528450D01*
G01D02*
X-518430D01*
G01X-530950Y-1596920D02*
Y-1581150D01*
G01D02*
X-515180Y-1596920D01*
G01X-538470Y-1625600D02*
X-528450D01*
G01D02*
X-518430D01*
G01X-538470Y-1524000D02*
X-528450D01*
G01D02*
X-518430D01*
G01X-530950Y-1494320D02*
Y-1479550D01*
G01X-538340Y-1494320D02*
X-530950Y-1479550D01*
G01Y-1393720D02*
Y-1377950D01*
G01D02*
X-515180Y-1393720D01*
G01X-538470Y-1422400D02*
X-528450D01*
G01D02*
X-518430D01*
G01X-530950Y-1291120D02*
Y-1276350D01*
G01X-538340Y-1291120D02*
X-530950Y-1276350D01*
G01X-538470Y-1320800D02*
X-528450D01*
G01D02*
X-518430D01*
G01X-538470Y-1219200D02*
X-528450D01*
G01D02*
X-518430D01*
G01X-530950Y-1190520D02*
Y-1174750D01*
G01D02*
X-515180Y-1190520D01*
G01X-530950Y-1087920D02*
Y-1073150D01*
G01X-538340Y-1087920D02*
X-530950Y-1073150D01*
G01X-538470Y-1117600D02*
X-528450D01*
G01D02*
X-518430D01*
G01X-538470Y-755650D02*
X-528450D01*
G01D02*
X-518430D01*
G01X-530950Y-726970D02*
Y-711200D01*
G01D02*
X-515180Y-726970D01*
G01X-530950Y-624370D02*
Y-609600D01*
G01X-538340Y-624370D02*
X-530950Y-609600D01*
G01X-538470Y-654050D02*
X-528450D01*
G01D02*
X-518430D01*
G01X-530950Y-523770D02*
Y-508000D01*
G01D02*
X-515180Y-523770D01*
G01X-538470Y-552450D02*
X-528450D01*
G01D02*
X-518430D01*
G01X-538470Y-450850D02*
X-528450D01*
G01D02*
X-518430D01*
G01X-530950Y-421170D02*
Y-406400D01*
G01X-538340Y-421170D02*
X-530950Y-406400D01*
G01Y-320570D02*
Y-304800D01*
G01D02*
X-515180Y-320570D01*
G01X-538470Y-349250D02*
X-528450D01*
G01D02*
X-518430D01*
G01X-530950Y-217970D02*
Y-203200D01*
G01X-538340Y-217970D02*
X-530950Y-203200D01*
G01X-538470Y-247650D02*
X-528450D01*
G01D02*
X-518430D01*
G01X-538470Y-146050D02*
X-528450D01*
G01D02*
X-518430D01*
G01X-530950Y-117370D02*
Y-101600D01*
G01D02*
X-515180Y-117370D01*
G01X-530950Y-14770D02*
Y0D01*
G01X-538340Y-14770D02*
X-530950Y0D01*
G01X-538470Y-44450D02*
X-528450D01*
G01D02*
X-518430D01*
G01X-452920Y-1837600D02*
X-438150D01*
G01X-453920Y-1794600D02*
X-438150D01*
G01X-440220Y-1693000D02*
X-425450D01*
G01X-501650Y-1700520D02*
Y-1690500D01*
G01D02*
Y-1680480D01*
G01Y-1690500D02*
X-483630D01*
G01X-463550Y-1700520D02*
Y-1690500D01*
G01D02*
Y-1680480D01*
G01X-481570Y-1690500D02*
X-463550D01*
G01D02*
X-445530D01*
G01X-440220Y-1736000D02*
X-425450D01*
G01X-501650Y-1738500D02*
Y-1728480D01*
G01Y-1738500D02*
X-483630D01*
G01X-463550D02*
Y-1728480D01*
G01X-481570Y-1738500D02*
X-463550D01*
G01D02*
X-445530D01*
G01X-453920Y-1591400D02*
X-438150D01*
G01X-452920Y-1634400D02*
X-438150D01*
G01X-440220Y-1532800D02*
X-425450D01*
G01X-501650Y-1535300D02*
Y-1525280D01*
G01Y-1535300D02*
X-483630D01*
G01X-463550D02*
Y-1525280D01*
G01X-481570Y-1535300D02*
X-463550D01*
G01D02*
X-445530D01*
G01X-440220Y-1489800D02*
X-425450D01*
G01X-501650Y-1497320D02*
Y-1487300D01*
G01D02*
Y-1477280D01*
G01Y-1487300D02*
X-483630D01*
G01X-463550Y-1497320D02*
Y-1487300D01*
G01D02*
Y-1477280D01*
G01X-481570Y-1487300D02*
X-463550D01*
G01D02*
X-445530D01*
G01X-453920Y-1388200D02*
X-438150D01*
G01X-452920Y-1431200D02*
X-438150D01*
G01X-440220Y-1286600D02*
X-425450D01*
G01X-501650Y-1294120D02*
Y-1284100D01*
G01D02*
Y-1274080D01*
G01Y-1284100D02*
X-483630D01*
G01X-463550Y-1294120D02*
Y-1284100D01*
G01D02*
Y-1274080D01*
G01X-481570Y-1284100D02*
X-463550D01*
G01D02*
X-445530D01*
G01X-440220Y-1329600D02*
X-425450D01*
G01X-501650Y-1332100D02*
Y-1322080D01*
G01Y-1332100D02*
X-483630D01*
G01X-463550D02*
Y-1322080D01*
G01X-481570Y-1332100D02*
X-463550D01*
G01D02*
X-445530D01*
G01X-452920Y-1228000D02*
X-438150D01*
G01X-453920Y-1185000D02*
X-438150D01*
G01X-440220Y-1083400D02*
X-425450D01*
G01X-501650Y-1090920D02*
Y-1080900D01*
G01D02*
Y-1070880D01*
G01Y-1080900D02*
X-483630D01*
G01X-463550Y-1090920D02*
Y-1080900D01*
G01D02*
Y-1070880D01*
G01X-481570Y-1080900D02*
X-463550D01*
G01D02*
X-445530D01*
G01X-440220Y-1126400D02*
X-425450D01*
G01X-501650Y-1128900D02*
Y-1118880D01*
G01Y-1128900D02*
X-483630D01*
G01X-463550D02*
Y-1118880D01*
G01X-481570Y-1128900D02*
X-463550D01*
G01D02*
X-445530D01*
G01X-452920Y-764450D02*
X-438150D01*
G01X-453920Y-721450D02*
X-438150D01*
G01X-440220Y-619850D02*
X-425450D01*
G01X-501650Y-627370D02*
Y-617350D01*
G01D02*
Y-607330D01*
G01Y-617350D02*
X-483630D01*
G01X-463550Y-627370D02*
Y-617350D01*
G01D02*
Y-607330D01*
G01X-481570Y-617350D02*
X-463550D01*
G01D02*
X-445530D01*
G01X-440220Y-662850D02*
X-425450D01*
G01X-501650Y-665350D02*
Y-655330D01*
G01Y-665350D02*
X-483630D01*
G01X-463550D02*
Y-655330D01*
G01X-481570Y-665350D02*
X-463550D01*
G01D02*
X-445530D01*
G01X-452920Y-561250D02*
X-438150D01*
G01X-453920Y-518250D02*
X-438150D01*
G01X-440220Y-459650D02*
X-425450D01*
G01X-501650Y-462150D02*
Y-452130D01*
G01Y-462150D02*
X-483630D01*
G01X-463550D02*
Y-452130D01*
G01X-481570Y-462150D02*
X-463550D01*
G01D02*
X-445530D01*
G01X-440220Y-416650D02*
X-425450D01*
G01X-501650Y-424170D02*
Y-414150D01*
G01D02*
Y-404130D01*
G01Y-414150D02*
X-483630D01*
G01X-463550Y-424170D02*
Y-414150D01*
G01D02*
Y-404130D01*
G01X-481570Y-414150D02*
X-463550D01*
G01D02*
X-445530D01*
G01X-453920Y-315050D02*
X-438150D01*
G01X-452920Y-358050D02*
X-438150D01*
G01X-501650Y-220970D02*
Y-210950D01*
G01X-463550Y-220970D02*
Y-210950D01*
G01X-440220Y-256450D02*
X-425450D01*
G01X-501650Y-258950D02*
Y-248930D01*
G01Y-258950D02*
X-483630D01*
G01X-463550D02*
Y-248930D01*
G01X-481570Y-258950D02*
X-463550D01*
G01D02*
X-445530D01*
G01X-440220Y-213450D02*
X-425450D01*
G01X-501650Y-210950D02*
Y-200930D01*
G01Y-210950D02*
X-483630D01*
G01X-463550D02*
Y-200930D01*
G01X-481570Y-210950D02*
X-463550D01*
G01D02*
X-445530D01*
G01X-452920Y-154850D02*
X-438150D01*
G01X-453920Y-111850D02*
X-438150D01*
G01X-440220Y-10250D02*
X-425450D01*
G01X-501650Y-17770D02*
Y-7750D01*
G01D02*
Y2270D01*
G01Y-7750D02*
X-483630D01*
G01X-463550Y-17770D02*
Y-7750D01*
G01D02*
Y2270D01*
G01X-481570Y-7750D02*
X-463550D01*
G01D02*
X-445530D01*
G01X-440220Y-53250D02*
X-425450D01*
G01X-501650Y-55750D02*
Y-45730D01*
G01Y-55750D02*
X-483630D01*
G01X-463550D02*
Y-45730D01*
G01X-481570Y-55750D02*
X-463550D01*
G01D02*
X-445530D01*
G01X-379970Y-1840100D02*
X-361950D01*
G01X-400050D02*
Y-1830080D01*
G01X-418070Y-1840100D02*
X-400050D01*
G01D02*
X-382030D01*
G01X-438150Y-1837600D02*
X-423380D01*
G01X-380970Y-1792100D02*
X-361950D01*
G01X-400050Y-1803120D02*
Y-1792100D01*
G01D02*
Y-1781080D01*
G01X-419070Y-1792100D02*
X-400050D01*
G01D02*
X-381030D01*
G01X-438150Y-1794600D02*
Y-1778830D01*
G01Y-1794600D02*
X-422380D01*
G01X-425450Y-1693000D02*
Y-1678230D01*
G01Y-1693000D02*
X-410680D01*
G01X-425450Y-1736000D02*
X-410680D01*
G01X-380970Y-1588900D02*
X-361950D01*
G01X-400050Y-1599920D02*
Y-1588900D01*
G01D02*
Y-1577880D01*
G01X-419070Y-1588900D02*
X-400050D01*
G01D02*
X-381030D01*
G01X-438150Y-1591400D02*
Y-1575630D01*
G01Y-1591400D02*
X-422380D01*
G01X-379970Y-1636900D02*
X-361950D01*
G01X-400050D02*
Y-1626880D01*
G01X-418070Y-1636900D02*
X-400050D01*
G01D02*
X-382030D01*
G01X-438150Y-1634400D02*
X-423380D01*
G01X-425450Y-1532800D02*
X-410680D01*
G01X-425450Y-1489800D02*
Y-1475030D01*
G01Y-1489800D02*
X-410680D01*
G01X-380970Y-1385700D02*
X-361950D01*
G01X-400050Y-1396720D02*
Y-1385700D01*
G01D02*
Y-1374680D01*
G01X-419070Y-1385700D02*
X-400050D01*
G01D02*
X-381030D01*
G01X-438150Y-1388200D02*
Y-1372430D01*
G01Y-1388200D02*
X-422380D01*
G01X-379970Y-1433700D02*
X-361950D01*
G01X-400050D02*
Y-1423680D01*
G01X-418070Y-1433700D02*
X-400050D01*
G01D02*
X-382030D01*
G01X-438150Y-1431200D02*
X-423380D01*
G01X-425450Y-1286600D02*
Y-1271830D01*
G01Y-1286600D02*
X-410680D01*
G01X-425450Y-1329600D02*
X-410680D01*
G01X-379970Y-1230500D02*
X-361950D01*
G01X-400050D02*
Y-1220480D01*
G01X-418070Y-1230500D02*
X-400050D01*
G01D02*
X-382030D01*
G01X-438150Y-1228000D02*
X-423380D01*
G01X-380970Y-1182500D02*
X-361950D01*
G01X-400050Y-1193520D02*
Y-1182500D01*
G01D02*
Y-1171480D01*
G01X-419070Y-1182500D02*
X-400050D01*
G01D02*
X-381030D01*
G01X-438150Y-1185000D02*
Y-1169230D01*
G01Y-1185000D02*
X-422380D01*
G01X-425450Y-1083400D02*
Y-1068630D01*
G01Y-1083400D02*
X-410680D01*
G01X-425450Y-1126400D02*
X-410680D01*
G01X-379970Y-766950D02*
X-361950D01*
G01X-400050D02*
Y-756930D01*
G01X-418070Y-766950D02*
X-400050D01*
G01D02*
X-382030D01*
G01X-438150Y-764450D02*
X-423380D01*
G01X-380970Y-718950D02*
X-361950D01*
G01X-400050Y-729970D02*
Y-718950D01*
G01D02*
Y-707930D01*
G01X-419070Y-718950D02*
X-400050D01*
G01D02*
X-381030D01*
G01X-438150Y-721450D02*
Y-705680D01*
G01Y-721450D02*
X-422380D01*
G01X-425450Y-619850D02*
Y-605080D01*
G01Y-619850D02*
X-410680D01*
G01X-425450Y-662850D02*
X-410680D01*
G01X-400050Y-526770D02*
Y-515750D01*
G01X-379970Y-563750D02*
X-361950D01*
G01X-400050D02*
Y-553730D01*
G01X-418070Y-563750D02*
X-400050D01*
G01D02*
X-382030D01*
G01X-438150Y-561250D02*
X-423380D01*
G01X-380970Y-515750D02*
X-361950D01*
G01X-400050D02*
Y-504730D01*
G01X-419070Y-515750D02*
X-400050D01*
G01D02*
X-381030D01*
G01X-438150Y-518250D02*
Y-502480D01*
G01Y-518250D02*
X-422380D01*
G01X-425450Y-459650D02*
X-410680D01*
G01X-425450Y-416650D02*
Y-401880D01*
G01Y-416650D02*
X-410680D01*
G01X-380970Y-312550D02*
X-361950D01*
G01X-400050Y-323570D02*
Y-312550D01*
G01D02*
Y-301530D01*
G01X-419070Y-312550D02*
X-400050D01*
G01D02*
X-381030D01*
G01X-438150Y-315050D02*
Y-299280D01*
G01Y-315050D02*
X-422380D01*
G01X-379970Y-360550D02*
X-361950D01*
G01X-400050D02*
Y-350530D01*
G01X-418070Y-360550D02*
X-400050D01*
G01D02*
X-382030D01*
G01X-438150Y-358050D02*
X-423380D01*
G01X-425450Y-256450D02*
X-410680D01*
G01X-425450Y-213450D02*
Y-198680D01*
G01Y-213450D02*
X-410680D01*
G01X-379970Y-157350D02*
X-361950D01*
G01X-400050D02*
Y-147330D01*
G01X-418070Y-157350D02*
X-400050D01*
G01D02*
X-382030D01*
G01X-438150Y-154850D02*
X-423380D01*
G01X-380970Y-109350D02*
X-361950D01*
G01X-400050Y-120370D02*
Y-109350D01*
G01D02*
Y-98330D01*
G01X-419070Y-109350D02*
X-400050D01*
G01D02*
X-381030D01*
G01X-438150Y-111850D02*
Y-96080D01*
G01Y-111850D02*
X-422380D01*
G01X-425450Y-10250D02*
Y4520D01*
G01Y-10250D02*
X-410680D01*
G01X-425450Y-53250D02*
X-410680D01*
G01X-330200Y-1841870D02*
Y-1831100D01*
G01X-343720D02*
X-330200D01*
G01X-361950Y-1840100D02*
Y-1830080D01*
G01Y-1840100D02*
X-343930D01*
G01X-330200Y-1801100D02*
Y-1789330D01*
G01Y-1801100D02*
X-315680D01*
G01X-361950Y-1803120D02*
Y-1792100D01*
G01D02*
Y-1781080D01*
G01X-330200Y-1699500D02*
Y-1688730D01*
G01X-343720Y-1699500D02*
X-330200D01*
G01D02*
X-316680D01*
G01X-330200Y-1740270D02*
Y-1729500D01*
G01X-343720D02*
X-330200D01*
G01Y-1597900D02*
Y-1586130D01*
G01Y-1597900D02*
X-315680D01*
G01X-361950Y-1599920D02*
Y-1588900D01*
G01D02*
Y-1577880D01*
G01X-330200Y-1638670D02*
Y-1627900D01*
G01X-343720D02*
X-330200D01*
G01X-361950Y-1636900D02*
Y-1626880D01*
G01Y-1636900D02*
X-343930D01*
G01X-330200Y-1537070D02*
Y-1526300D01*
G01X-343720D02*
X-330200D01*
G01Y-1496300D02*
Y-1485530D01*
G01X-343720Y-1496300D02*
X-330200D01*
G01D02*
X-316680D01*
G01X-330200Y-1394700D02*
Y-1382930D01*
G01Y-1394700D02*
X-315680D01*
G01X-361950Y-1396720D02*
Y-1385700D01*
G01D02*
Y-1374680D01*
G01X-330200Y-1435470D02*
Y-1424700D01*
G01X-343720D02*
X-330200D01*
G01X-361950Y-1433700D02*
Y-1423680D01*
G01Y-1433700D02*
X-343930D01*
G01X-330200Y-1293100D02*
Y-1282330D01*
G01X-343720Y-1293100D02*
X-330200D01*
G01D02*
X-316680D01*
G01X-330200Y-1333870D02*
Y-1323100D01*
G01X-343720D02*
X-330200D01*
G01Y-1232270D02*
Y-1221500D01*
G01X-343720D02*
X-330200D01*
G01X-361950Y-1230500D02*
Y-1220480D01*
G01Y-1230500D02*
X-343930D01*
G01X-330200Y-1191500D02*
Y-1179730D01*
G01Y-1191500D02*
X-315680D01*
G01X-361950Y-1193520D02*
Y-1182500D01*
G01D02*
Y-1171480D01*
G01X-330200Y-1089900D02*
Y-1079130D01*
G01X-343720Y-1089900D02*
X-330200D01*
G01D02*
X-316680D01*
G01X-330200Y-1130670D02*
Y-1119900D01*
G01X-343720D02*
X-330200D01*
G01Y-768720D02*
Y-757950D01*
G01X-343720D02*
X-330200D01*
G01X-361950Y-766950D02*
Y-756930D01*
G01Y-766950D02*
X-343930D01*
G01X-330200Y-727950D02*
Y-716180D01*
G01Y-727950D02*
X-315680D01*
G01X-361950Y-729970D02*
Y-718950D01*
G01D02*
Y-707930D01*
G01X-330200Y-626350D02*
Y-615580D01*
G01X-343720Y-626350D02*
X-330200D01*
G01D02*
X-316680D01*
G01X-330200Y-667120D02*
Y-656350D01*
G01X-343720D02*
X-330200D01*
G01Y-524750D02*
Y-512980D01*
G01Y-524750D02*
X-315680D01*
G01X-361950Y-526770D02*
Y-515750D01*
G01X-330200Y-565520D02*
Y-554750D01*
G01X-343720D02*
X-330200D01*
G01X-361950Y-563750D02*
Y-553730D01*
G01Y-563750D02*
X-343930D01*
G01X-361950Y-515750D02*
Y-504730D01*
G01X-330200Y-463920D02*
Y-453150D01*
G01X-343720D02*
X-330200D01*
G01Y-423150D02*
Y-412380D01*
G01X-343720Y-423150D02*
X-330200D01*
G01D02*
X-316680D01*
G01X-330200Y-321550D02*
Y-309780D01*
G01Y-321550D02*
X-315680D01*
G01X-361950Y-323570D02*
Y-312550D01*
G01D02*
Y-301530D01*
G01X-330200Y-362320D02*
Y-351550D01*
G01X-343720D02*
X-330200D01*
G01X-361950Y-360550D02*
Y-350530D01*
G01Y-360550D02*
X-343930D01*
G01X-330200Y-219950D02*
Y-209180D01*
G01X-343720Y-219950D02*
X-330200D01*
G01D02*
X-316680D01*
G01X-330200Y-260720D02*
Y-249950D01*
G01X-343720D02*
X-330200D01*
G01Y-159120D02*
Y-148350D01*
G01X-343720D02*
X-330200D01*
G01X-361950Y-157350D02*
Y-147330D01*
G01Y-157350D02*
X-343930D01*
G01X-330200Y-118350D02*
Y-106580D01*
G01Y-118350D02*
X-315680D01*
G01X-361950Y-120370D02*
Y-109350D01*
G01D02*
Y-98330D01*
G01X-330200Y-16750D02*
Y-5980D01*
G01X-343720Y-16750D02*
X-330200D01*
G01D02*
X-316680D01*
G01X-330200Y-57520D02*
Y-46750D01*
G01X-343720D02*
X-330200D01*
G54D23*
X-463550Y-1738500D03*
X-501650D03*
X-463550Y-1690500D03*
X-501650D03*
X-463550Y-1535300D03*
X-501650D03*
X-463550Y-1487300D03*
X-501650D03*
X-463550Y-1284100D03*
Y-1332100D03*
X-501650Y-1284100D03*
Y-1332100D03*
X-463550Y-1128900D03*
X-501650D03*
X-463550Y-1080900D03*
X-501650D03*
X-463550Y-617350D03*
Y-665350D03*
X-501650Y-617350D03*
Y-665350D03*
X-463550Y-462150D03*
X-501650D03*
X-463550Y-414150D03*
X-501650D03*
X-463550Y-258950D03*
X-501650D03*
X-463550Y-210950D03*
X-501650D03*
X-463550Y-7750D03*
Y-55750D03*
X-501650Y-7750D03*
Y-55750D03*
X-400050Y-1840100D03*
X-361950D03*
X-400050Y-1792100D03*
X-361950D03*
X-400050Y-1588900D03*
Y-1636900D03*
X-361950Y-1588900D03*
Y-1636900D03*
X-400050Y-1433700D03*
X-361950D03*
X-400050Y-1385700D03*
X-361950D03*
X-400050Y-1230500D03*
X-361950D03*
X-400050Y-1182500D03*
X-361950D03*
X-400050Y-766950D03*
X-361950D03*
X-400050Y-718950D03*
X-361950D03*
X-400050Y-563750D03*
X-361950D03*
X-400050Y-515750D03*
X-361950D03*
X-400050Y-312550D03*
Y-360550D03*
X-361950Y-312550D03*
Y-360550D03*
X-400050Y-157350D03*
X-361950D03*
X-400050Y-109350D03*
X-361950D03*
G54D14*
X-876300Y-939800D03*
G54D33*
G01X-711200Y-1335800D02*
X-726200D01*
X-755650Y-1365250D01*
Y-1882140D01*
X-762000Y-1888490D01*
X-844550D01*
X-857250Y-1901190D01*
G01X-711200Y-1742200D02*
X-711440Y-1742440D01*
X-723900D01*
X-730250Y-1748790D01*
Y-1932940D01*
X-736600Y-1939290D01*
X-844550D01*
X-857250Y-1951990D01*
G01X-711200Y-1539000D02*
X-726200D01*
X-742950Y-1555750D01*
Y-1907540D01*
X-749300Y-1913890D01*
X-844550D01*
X-857250Y-1926590D01*
G01X-711200Y-1132600D02*
X-726200D01*
X-768350Y-1174750D01*
Y-1856740D01*
X-774700Y-1863090D01*
X-844550D01*
X-857250Y-1875790D01*
G01Y-1850390D02*
X-844550Y-1837690D01*
X-787400D01*
X-781050Y-1831340D01*
Y-885190D01*
X-736600Y-840740D01*
Y-693780D01*
X-736750Y-693630D01*
Y-686370D01*
X-736600Y-686220D01*
Y-681940D01*
X-723710Y-669050D01*
X-711200D01*
G01X-838200Y-828040D02*
Y-171450D01*
X-726200Y-59450D01*
X-711200D01*
G01Y-1640600D02*
X-726200D01*
X-736600Y-1651000D01*
Y-1920240D01*
X-742950Y-1926590D01*
X-806450D01*
G01X-711200Y-1437400D02*
X-726200D01*
X-749300Y-1460500D01*
Y-1894840D01*
X-755650Y-1901190D01*
X-806450D01*
G01X-711200Y-1843800D02*
X-714950D01*
X-723900Y-1852750D01*
Y-1945640D01*
X-730250Y-1951990D01*
X-806450D01*
G01X-711200Y-567450D02*
X-723710D01*
X-742950Y-586690D01*
Y-834390D01*
X-787400Y-878840D01*
Y-1818640D01*
X-793750Y-1824990D01*
X-806450D01*
G01X-711200Y-770650D02*
X-723710D01*
X-730250Y-777190D01*
Y-847090D01*
X-774700Y-891540D01*
Y-1844040D01*
X-781050Y-1850390D01*
X-806450D01*
G01X-711200Y-1234200D02*
X-726200D01*
X-762000Y-1270000D01*
Y-1869440D01*
X-768350Y-1875790D01*
X-806450D01*
G01X-781050Y-808990D02*
Y-419100D01*
X-726200Y-364250D01*
X-711200D01*
G01X-762000Y-802640D02*
Y-504140D01*
X-723710Y-465850D01*
X-711200D01*
G01X-800100Y-815340D02*
Y-336550D01*
X-726200Y-262650D01*
X-711200D01*
G01X-819150Y-821690D02*
Y-254000D01*
X-726200Y-161050D01*
X-711200D01*
G54D24*
X-495300Y-1784750D03*
Y-1581550D03*
Y-1378350D03*
Y-1175150D03*
Y-711600D03*
Y-508400D03*
Y-305200D03*
Y-102000D03*
X-368300Y-1683150D03*
Y-1479950D03*
Y-1276750D03*
Y-1073550D03*
Y-610000D03*
Y-406800D03*
Y-203600D03*
Y-400D03*
X-241300Y-1784750D03*
Y-1581550D03*
Y-1378350D03*
Y-1175150D03*
Y-711600D03*
Y-508400D03*
Y-305200D03*
Y-102000D03*
X-114300Y-1683150D03*
Y-1479950D03*
Y-1276750D03*
Y-1073550D03*
Y-610000D03*
Y-406800D03*
Y-203600D03*
Y-400D03*
G54D15*
X-740000Y-911300D03*
G54D34*
G01X-77420Y-1169710D02*
X-57150Y-1155550D01*
G01D02*
X-36880Y-1169710D01*
G54D25*
X-330200Y-1831100D03*
Y-1801100D03*
Y-1729500D03*
Y-1699500D03*
Y-1627900D03*
Y-1597900D03*
Y-1526300D03*
Y-1496300D03*
Y-1424700D03*
Y-1394700D03*
Y-1323100D03*
Y-1293100D03*
Y-1221500D03*
Y-1191500D03*
Y-1119900D03*
Y-1089900D03*
Y-757950D03*
Y-727950D03*
Y-656350D03*
Y-626350D03*
Y-554750D03*
Y-524750D03*
Y-453150D03*
Y-423150D03*
Y-351550D03*
Y-321550D03*
Y-249950D03*
Y-219950D03*
Y-148350D03*
Y-118350D03*
Y-46750D03*
Y-16750D03*
G54D16*
X-687050Y-1828800D03*
Y-1816100D03*
Y-1803400D03*
Y-1727200D03*
Y-1714500D03*
Y-1701800D03*
Y-1625600D03*
Y-1612900D03*
Y-1600200D03*
Y-1524000D03*
Y-1511300D03*
Y-1498600D03*
Y-1422400D03*
Y-1409700D03*
Y-1397000D03*
Y-1320800D03*
Y-1308100D03*
Y-1295400D03*
Y-1219200D03*
Y-1206500D03*
Y-1193800D03*
Y-1117600D03*
Y-1104900D03*
Y-1092200D03*
Y-755650D03*
Y-742950D03*
Y-730250D03*
Y-654050D03*
Y-641350D03*
Y-628650D03*
Y-552450D03*
Y-539750D03*
Y-527050D03*
Y-450850D03*
Y-438150D03*
Y-425450D03*
Y-349250D03*
Y-336550D03*
Y-323850D03*
Y-247650D03*
Y-234950D03*
Y-222250D03*
Y-146050D03*
Y-133350D03*
Y-120650D03*
Y-44450D03*
Y-31750D03*
Y-19050D03*
X-621050Y-1828800D03*
Y-1803400D03*
Y-1727200D03*
Y-1701800D03*
Y-1625600D03*
Y-1600200D03*
Y-1524000D03*
Y-1498600D03*
Y-1422400D03*
Y-1397000D03*
Y-1320800D03*
Y-1295400D03*
Y-1219200D03*
Y-1193800D03*
Y-1117600D03*
Y-1092200D03*
Y-755650D03*
Y-730250D03*
Y-654050D03*
Y-628650D03*
Y-552450D03*
Y-527050D03*
Y-450850D03*
Y-425450D03*
Y-349250D03*
Y-323850D03*
Y-247650D03*
Y-222250D03*
Y-146050D03*
Y-120650D03*
Y-44450D03*
Y-19050D03*
G54D35*
G01X-77420Y-1779310D02*
X-57150Y-1765150D01*
G01D02*
X-36880Y-1779310D01*
G01X-77420Y-1576110D02*
X-57150Y-1561950D01*
G01D02*
X-36880Y-1576110D01*
G01X-77420Y-1372910D02*
X-57150Y-1358750D01*
G01D02*
X-36880Y-1372910D01*
G01X-77420Y-706160D02*
X-57150Y-692000D01*
G01D02*
X-36880Y-706160D01*
G01X-77420Y-502960D02*
X-57150Y-488800D01*
G01D02*
X-36880Y-502960D01*
G01X-77420Y-299760D02*
X-57150Y-285600D01*
G01D02*
X-36880Y-299760D01*
G01X-77420Y-96560D02*
X-57150Y-82400D01*
G01D02*
X-36880Y-96560D01*
G54D17*
X-711200Y-1813800D03*
Y-1843800D03*
Y-1742200D03*
Y-1712200D03*
Y-1610600D03*
Y-1640600D03*
Y-1509000D03*
Y-1539000D03*
Y-1437400D03*
Y-1407400D03*
Y-1305800D03*
Y-1335800D03*
Y-1204200D03*
Y-1234200D03*
Y-1132600D03*
Y-1102600D03*
Y-770650D03*
Y-740650D03*
Y-639050D03*
Y-669050D03*
Y-537450D03*
Y-567450D03*
Y-465850D03*
Y-435850D03*
Y-334250D03*
Y-364250D03*
Y-232650D03*
Y-262650D03*
Y-161050D03*
Y-131050D03*
Y-29450D03*
Y-59450D03*
G54D26*
X-57150Y-1835150D03*
Y-1765150D03*
Y-1631950D03*
Y-1561950D03*
Y-1428750D03*
Y-1358750D03*
Y-1225550D03*
Y-1155550D03*
Y-762000D03*
Y-692000D03*
Y-558800D03*
Y-488800D03*
Y-355600D03*
Y-285600D03*
Y-152400D03*
Y-82400D03*
X57150Y-1743150D03*
Y-1673150D03*
Y-1539950D03*
Y-1469950D03*
Y-1336750D03*
Y-1266750D03*
Y-1133550D03*
Y-1063550D03*
Y-670000D03*
Y-600000D03*
Y-466800D03*
Y-396800D03*
Y-263600D03*
Y-193600D03*
Y-60400D03*
Y9600D03*
G54D18*
X-707000Y-1784350D03*
X-690000D03*
X-707000Y-1682750D03*
X-690000D03*
X-707000Y-1581150D03*
X-690000D03*
X-707000Y-1479550D03*
X-690000D03*
X-707000Y-1377950D03*
X-690000D03*
X-707000Y-1276350D03*
X-690000D03*
X-707000Y-1174750D03*
X-690000D03*
X-707000Y-1073150D03*
X-690000D03*
X-707000Y-711200D03*
X-690000D03*
X-707000Y-609600D03*
X-690000D03*
X-707000Y-508000D03*
X-690000D03*
X-707000Y-406400D03*
X-690000D03*
X-707000Y-304800D03*
X-690000D03*
X-707000Y-203200D03*
X-690000D03*
X-707000Y-101600D03*
X-690000D03*
X-707000Y0D03*
X-690000D03*
G54D27*
X0Y-1835150D03*
Y-1733550D03*
Y-1784350D03*
Y-1682750D03*
Y-1581150D03*
Y-1631950D03*
Y-1530350D03*
Y-1428750D03*
Y-1479550D03*
Y-1377950D03*
Y-1276350D03*
Y-1327150D03*
Y-1225550D03*
Y-1123950D03*
Y-1174750D03*
Y-762000D03*
Y-711200D03*
Y-609600D03*
Y-660400D03*
Y-558800D03*
Y-457200D03*
Y-508000D03*
Y-406400D03*
Y-304800D03*
Y-355600D03*
Y-254000D03*
Y-152400D03*
Y-203200D03*
Y-101600D03*
Y-50800D03*
G54D19*
X-596900Y-1829100D03*
Y-1803100D03*
Y-1727500D03*
Y-1701500D03*
Y-1625900D03*
Y-1599900D03*
Y-1524300D03*
Y-1498300D03*
Y-1422700D03*
Y-1396700D03*
Y-1321100D03*
Y-1295100D03*
Y-1219500D03*
Y-1193500D03*
Y-1117900D03*
Y-1091900D03*
Y-755950D03*
Y-729950D03*
Y-654350D03*
Y-628350D03*
Y-552750D03*
Y-526750D03*
Y-451150D03*
Y-425150D03*
Y-349550D03*
Y-323550D03*
Y-247950D03*
Y-221950D03*
Y-146350D03*
Y-120350D03*
Y-44750D03*
Y-18750D03*
G54D28*
X0Y-1073150D03*
Y0D03*
G54D29*
X82550Y-2029460D03*
Y193040D03*
M02*
