M48
METRIC,TZ
T01C.5
T02C1.
T03C1.3
T04C2.
T05C3.2
;LEADER: 12 
;HEADER: 
;CODE  : ASCII 
;FILE  : kprd_03v1-1-2.drl for  ... layers TOP and BOTTOM
;T01 Holesize 1. = 0.500000 Tolerance = +0.000000/-0.000000 PLATED MM Quantity = 166
;T02 Holesize 2. = 1.000000 Tolerance = +0.000000/-0.000000 PLATED MM Quantity = 99
;T03 Holesize 3. = 1.300000 Tolerance = +0.000000/-0.000000 PLATED MM Quantity = 64
;T04 Holesize 4. = 2.000000 Tolerance = +0.000000/-0.000000 PLATED MM Quantity = 32
;T05 Holesize 5. = 3.200000 Tolerance = +0.000000/-0.000000 PLATED MM Quantity = 4
%
G90
T01
X-558800Y-730250
Y-1803400
Y-120650
Y-1193800
Y-323850
Y-1397000
Y-527050
Y-1600200
Y-628650
Y-1701800
Y-222250
Y-1295400
Y-425450
Y-1498600
X-584200Y-19210
Y-1092360
X-558800Y-19050
Y-1092200
X-819150Y-821690
X-800100Y-815340
X-762000Y-802640
X-838200Y-828040
X-781050Y-808990
X-584200Y-730250
Y-1803400
Y-120650
Y-1193800
Y-323850
Y-1397000
Y-527050
Y-1600200
Y-628810
Y-1701960
Y-222410
Y-1295560
Y-425610
Y-1498760
X-698500Y69850
X-755650
X-787400
X-889000
Y-19050
X-687000Y29850
X-806450Y38100
X-800100Y0
X-762000Y-12700
X-749300Y-63500
X-857250Y-50800
Y-171450
X-800100Y-114300
X-730250Y-82550
X-762000Y-114300
X-749300Y-165100
X-823450Y-179390
X-730250Y-184150
X-762000Y-215900
X-749300Y-266700
X-806450Y-262390
X-730250Y-285750
X-762000Y-317500
X-749300Y-368300
X-789450Y-342390
X-730250Y-387350
X-770450Y-424390
X-749300Y-469900
X-730000Y-1054000
X-749300Y-1047750
Y-1136650
X-730250Y-1155700
X-749300Y-1238250
X-730250Y-1257300
X-749300Y-1339850
X-730250Y-1358900
X-742950Y-1441450
X-730250Y-1460500
Y-1562100
X-740000Y-1540000
X-714000Y-1862000
X-692000Y-1846000
X-680000Y-1940000
X-638000Y-1904000
X-592000Y-1950000
Y-2058000
X-717550Y-2057400
X-844550Y-2051050
X-793750Y-2006600
X-726000Y-2033150
X-728000Y-1971150
X-786000Y-1964000
X-615950Y-2032000
X-894000Y-1996000
X-895350Y-1847850
Y-1695450
Y-1530350
Y-1428750
Y-1238250
Y-1174750
X-800100Y-1155700
X-850900Y-1079500
X-895350Y-1098550
Y-977900
X-857250Y-984250
X-800100Y-1085850
X-800000Y-992000
Y-886000
X-844550Y-939800
X-895350Y-673100
R02Y209550
X-861000Y-859000
R02Y209000
Y-231000
X-790450Y-863390
X-783450Y-844390
X-777450Y-825390
X-752450Y-829390
Y-771390
X-828450Y-767390
X-809450Y-644390
X-790450Y-491390
Y-713390
X-771450Y-572390
Y-789390
X-829450Y-577390
X-809450Y-396390
X-829450Y-287390
X-728000Y-490000
X-730000Y-590000
X-748000Y-572000
X-728000Y-690000
X-616000Y-1991150
X-710000Y-1041150
Y-791150
X-683000Y-1759150
Y-1657150
Y-1556150
R02Y102000
Y-1251150
R02Y102000
Y-788150
Y-685150
Y-584150
Y-482150
Y-381150
Y-279150
Y-178150
Y-76150
X-696000Y-87110
Y-185150
Y-285150
R03Y-102000
Y-696710
Y-1057150
Y-1159150
Y-1259150
Y-1363150
Y-1465060
Y-1565150
Y-1668260
Y-1769150
Y14850
T02
X-876300Y-939800
X-857250Y-1951990
R07Y25400
Y-1723390
R08Y25400
Y-1469390
R08Y25400
Y-1215390
Y-1189990
X-806450Y-1951990
R07Y25400
Y-1723390
R08Y25400
Y-1469390
R08Y25400
Y-1215390
Y-1189990
X-831850Y-1951990
R07Y25400
Y-1723390
R08Y25400
Y-1469390
R08Y25400
Y-1215390
Y-1189990
X-857250Y-1977390
R02X25400
X-857250Y-1748790
R02X25400
X-857250Y-1494790
R02X25400
X-857250Y-1240790
R02X25400
X-740000Y-936700
Y-911300
T03
X-368300Y-50400
Y-400
X-495300Y-1834750
Y-1784750
X-114300Y-1123550
Y-1073550
X-368300Y-1123550
Y-1073550
X-241300Y-152000
Y-102000
X-495300Y-152000
Y-102000
X-114300Y-253600
Y-203600
X-368300Y-253600
Y-203600
X-241300Y-355200
Y-305200
X-495300Y-355200
Y-305200
X-114300Y-456800
Y-406800
X-368300Y-456800
Y-406800
X-241300Y-558400
Y-508400
X-495300Y-558400
Y-508400
X-114300Y-660000
Y-610000
Y-50400
Y-400
X-368300Y-660000
Y-610000
X-241300Y-761600
Y-711600
X-495300Y-761600
Y-711600
X-241300Y-1225150
Y-1175150
X-495300Y-1225150
Y-1175150
X-114300Y-1326750
Y-1276750
X-368300Y-1326750
Y-1276750
X-241300Y-1428350
Y-1378350
X-495300Y-1428350
Y-1378350
X-114300Y-1529950
Y-1479950
X-368300Y-1529950
Y-1479950
X-241300Y-1631550
Y-1581550
X-495300Y-1631550
Y-1581550
X-114300Y-1733150
Y-1683150
X-368300Y-1733150
Y-1683150
X-241300Y-1834750
Y-1784750
T04
X0Y0
R15Y-50800
X0Y-1073150
R15Y-50800
T05
X-882650Y-2028190
Y-1139190
X82550Y193040
Y-2029460
M30
