M48
METRIC,TZ
T01C.5
T02C1.
T03C1.3
T04C2.
T05C3.2
;LEADER: 12 
;HEADER: 
;CODE  : ASCII 
;FILE  : kprd_03v1-1-2.drl for  ... layers TOP and BOTTOM
;T01 Holesize 1. = 0.500000 Tolerance = +0.000000/-0.000000 PLATED MM Quantity = 181
;T02 Holesize 2. = 1.000000 Tolerance = +0.000000/-0.000000 PLATED MM Quantity = 99
;T03 Holesize 3. = 1.300000 Tolerance = +0.000000/-0.000000 PLATED MM Quantity = 64
;T04 Holesize 4. = 2.000000 Tolerance = +0.000000/-0.000000 PLATED MM Quantity = 32
;T05 Holesize 5. = 3.200000 Tolerance = +0.000000/-0.000000 PLATED MM Quantity = 4
%
G90
T01
X-558800Y31750
Y-1041400
Y641350
Y-431800
Y438150
Y-635000
Y234950
Y-838200
Y133350
Y-939800
Y539750
Y-533400
Y336550
Y-736600
X-584200Y742790
Y-330360
X-558800Y742950
Y-330200
X-838200Y-129540
X-825500Y-110490
X-800100Y-72390
X-850900Y-148590
X-812800Y-91440
X-584200Y31750
Y-1041400
Y641350
Y-431800
Y438150
Y-635000
Y234950
Y-838200
Y133190
Y-939960
Y539590
Y-533560
Y336390
Y-736760
X-850900Y781050
X-698500Y831850
X-755650
X-787400
X-889000
X-838200Y819150
X-889000Y742950
X-698500Y800100
X-730250
X-806450
X-800100Y762000
X-762000Y749300
X-749300Y698500
X-857250Y711200
Y590550
X-800100Y647700
X-793750Y717550
X-831850Y666750
X-730250Y679450
X-762000Y647700
X-749300Y596900
X-787400Y584200
X-838200Y571500
Y508000
X-730250Y577850
X-762000Y546100
X-749300Y495300
X-825500Y419100
Y482600
X-787400Y488950
X-730250Y476250
X-762000Y444500
X-749300Y393700
X-812800Y330200
Y393700
X-781050
X-730250Y374650
X-762000Y342900
X-749300Y292100
X-800100Y241300
Y304800
X-730250Y273050
X-762000Y241300
X-749300Y190500
X-787400Y152400
Y209550
X-730250Y171450
X-749300Y88900
X-768350Y133350
X-774700Y63500
X-730250Y69850
X-762000Y38100
X-768350Y-31750
X-749300Y-12700
X-730250Y-31750
X-762000Y-63500
X-755650Y-95250
X-749300Y-234950
X-731000Y-269000
X-749300Y-285750
Y-374650
X-730250Y-393700
X-749300Y-476250
X-730250Y-495300
X-749300Y-577850
X-730250Y-596900
X-742950Y-679450
X-730250Y-698500
Y-800100
X-740000Y-778000
X-714000Y-1100000
X-692000Y-1084000
X-680000Y-1140000
Y-1178000
X-638000Y-1142000
X-592000Y-1188000
Y-1296000
X-666750Y-1295400
X-736600
X-812800
X-842000Y-1256000
X-787400Y-1231900
X-723900Y-1244600
X-726000Y-1210000
X-786000Y-1202000
X-638000Y-1266000
X-894000Y-1234000
X-895350Y-1162050
Y-1085850
Y-1003300
Y-933450
Y-857250
Y-768350
Y-666750
R02Y95250
Y-412750
X-844550Y-406400
X-800100
X-844550Y-323850
X-895350Y-336550
Y-260350
X-857250Y-222250
X-895350Y-190500
X-800100Y-323850
Y-260350
Y-222250
X-844550Y-177800
X-895350Y-107950
Y-12700
Y88900
Y196850
Y298450
Y406400
Y508000
Y615950
X-861000Y-97000
Y8000
Y112000
Y217000
Y321000
R02Y105000
X-707000Y-27000
X-708000Y-90000
Y-162000
Y-240000
X-781050Y-1276350
X-692150Y676910
R06Y-101600
Y-294640
R07Y-101600
Y778510
T02
X-876300Y-177800
X-857250Y-1189990
R07Y25400
Y-961390
R08Y25400
Y-707390
R08Y25400
Y-453390
Y-427990
X-806450Y-1189990
R07Y25400
Y-961390
R08Y25400
Y-707390
R08Y25400
Y-453390
Y-427990
X-831850Y-1189990
R07Y25400
Y-961390
R08Y25400
Y-707390
R08Y25400
Y-453390
Y-427990
X-857250Y-1215390
R02X25400
X-857250Y-986790
R02X25400
X-857250Y-732790
R02X25400
X-857250Y-478790
R02X25400
X-740000Y-174700
Y-149300
T03
X-368300Y711600
Y761600
X-495300Y-1072750
Y-1022750
X-114300Y-361550
Y-311550
X-368300Y-361550
Y-311550
X-241300Y610000
Y660000
X-495300Y610000
Y660000
X-114300Y508400
Y558400
X-368300Y508400
Y558400
X-241300Y406800
Y456800
X-495300Y406800
Y456800
X-114300Y305200
Y355200
X-368300Y305200
Y355200
X-241300Y203600
Y253600
X-495300Y203600
Y253600
X-114300Y102000
Y152000
Y711600
Y761600
X-368300Y102000
Y152000
X-241300Y400
Y50400
X-495300Y400
Y50400
X-241300Y-463150
Y-413150
X-495300Y-463150
Y-413150
X-114300Y-564750
Y-514750
X-368300Y-564750
Y-514750
X-241300Y-666350
Y-616350
X-495300Y-666350
Y-616350
X-114300Y-767950
Y-717950
X-368300Y-767950
Y-717950
X-241300Y-869550
Y-819550
X-495300Y-869550
Y-819550
X-114300Y-971150
Y-921150
X-368300Y-971150
Y-921150
X-241300Y-1072750
Y-1022750
T04
X0Y762000
R15Y-50800
X0Y-311150
R15Y-50800
T05
X-882650Y-1266190
Y-377190
X82550Y955040
Y-1267460
M30
