M48
METRIC,TZ
T01C.5
T02C1.
T03C1.3
T04C2.
T05C3.2
;LEADER: 12 
;HEADER: 
;CODE  : ASCII 
;FILE  : kprd_03v1-1-2.drl for  ... layers TOP and BOTTOM
;T01 Holesize 1. = 0.500000 Tolerance = +0.000000/-0.000000 PLATED MM Quantity = 163
;T02 Holesize 2. = 1.000000 Tolerance = +0.000000/-0.000000 PLATED MM Quantity = 99
;T03 Holesize 3. = 1.300000 Tolerance = +0.000000/-0.000000 PLATED MM Quantity = 64
;T04 Holesize 4. = 2.000000 Tolerance = +0.000000/-0.000000 PLATED MM Quantity = 32
;T05 Holesize 5. = 3.200000 Tolerance = +0.000000/-0.000000 PLATED MM Quantity = 4
%
G90
T01
X298450Y1247140
Y173990
Y1856740
Y783590
Y1653540
Y580390
Y1450340
Y377190
Y1348740
Y275590
Y1755140
Y681990
Y1551940
Y478790
X273050Y1958180
Y885030
X298450Y1958340
Y885190
X38100Y1155700
X57150Y1162050
X95250Y1174750
X19050Y1149350
X76200Y1168400
X273050Y1247140
Y173990
Y1856740
Y783590
Y1653540
Y580390
Y1450340
Y377190
Y1348580
Y275430
Y1754980
Y681830
Y1551780
Y478630
X158750Y2047240
X101600
X69850
X-31750
Y1958340
X170250Y2007240
X50800Y2015490
X57150Y1977390
X95250Y1964690
X107950Y1913890
X0Y1926590
X0Y1805940
X57150Y1863090
X127000Y1894840
X95250Y1863090
X107950Y1812290
X33800Y1798000
X127000Y1793240
X95250Y1761490
X107950Y1710690
X50800Y1715000
X127000Y1691640
X95250Y1659890
X107950Y1609090
X67800Y1635000
X127000Y1590040
X86800Y1553000
X107950Y1507490
X127250Y923390
X107950Y929640
Y840740
X127000Y821690
X107950Y739140
X127000Y720090
X107950Y637540
X127000Y618490
X114300Y535940
X127000Y516890
Y415290
X117250Y437390
X143250Y115390
X165100Y114300
X265250Y-80610
X114300Y-82550
X12700Y-73660
X63500Y-29210
X127000Y63500
X71250Y13390
X241300Y-54610
X-36750Y-18610
X-38100Y129540
Y281940
Y447040
Y548640
Y739140
Y802640
X57150Y821690
X6350Y897890
X-38100Y878840
Y999490
X0Y993140
X57150Y891540
X57250Y985390
Y1091390
X12700Y1037590
X-38100Y1304290
R02Y209550
X-3750Y1118390
R02Y209000
Y1746390
X66800Y1114000
X73800Y1133000
X79800Y1152000
X104800Y1148000
Y1206000
X28800Y1210000
X47800Y1333000
X66800Y1486000
Y1264000
X85800Y1405000
Y1188000
X27800Y1400000
X47800Y1581000
X27800Y1690000
X129250Y1487390
X127250Y1387390
X109250Y1405390
X129940Y1287210
X147250Y936240
Y1186240
X174250Y218240
Y320240
Y421240
R02Y102000
Y726240
R02Y102000
Y1189240
Y1292240
Y1393240
Y1495240
Y1596240
Y1698240
Y1799240
Y1901240
X133350Y-63500
X114300Y31750
X161250Y1890280
Y1792240
Y1692240
R03Y-102000
Y1280680
Y920240
Y818240
Y718240
Y614240
Y512330
Y412240
Y309130
Y208240
Y1992240
T02
X-19050Y1037590
X0Y25400
R07Y25400
X0Y254000
R08Y25400
X0Y508000
R08Y25400
X0Y762000
X0Y787400
X50800Y25400
R07Y25400
Y254000
R08Y25400
Y508000
R08Y25400
Y762000
Y787400
X25400Y25400
R07Y25400
Y254000
R08Y25400
Y508000
R08Y25400
Y762000
Y787400
X0Y0
R02X25400
X0Y228600
R02X25400
X0Y482600
R02X25400
X0Y736600
R02X25400
X117250Y1040690
Y1066090
T03
X488950Y1926990
Y1976990
X361950Y142640
Y192640
X742950Y853840
Y903840
X488950Y853840
Y903840
X615950Y1825390
Y1875390
X361950Y1825390
Y1875390
X742950Y1723790
Y1773790
X488950Y1723790
Y1773790
X615950Y1622190
Y1672190
X361950Y1622190
Y1672190
X742950Y1520590
Y1570590
X488950Y1520590
Y1570590
X615950Y1418990
Y1468990
X361950Y1418990
Y1468990
X742950Y1317390
Y1367390
Y1926990
Y1976990
X488950Y1317390
Y1367390
X615950Y1215790
Y1265790
X361950Y1215790
Y1265790
X615950Y752240
Y802240
X361950Y752240
Y802240
X742950Y650640
Y700640
X488950Y650640
Y700640
X615950Y549040
Y599040
X361950Y549040
Y599040
X742950Y447440
Y497440
X488950Y447440
Y497440
X615950Y345840
Y395840
X361950Y345840
Y395840
X742950Y244240
Y294240
X488950Y244240
Y294240
X615950Y142640
Y192640
T04
X857250Y1977390
R15Y-50800
Y904240
R15Y-50800
T05
X-25400Y-50800
Y838200
X939800Y2170430
Y-52070
M30
