G04 ================== begin FILE IDENTIFICATION RECORD ==================*
G04 Layout Name:  D:/Project/Circuit/ORCAD/KPRD/03v1/pcb/kprd_03v1.brd*
G04 Film Name:    MASK_BOT*
G04 File Format:  Gerber RS274X*
G04 File Origin:  Cadence Allegro 16.6-S012*
G04 Origin Date:  Mon Jul 29 12:29:18 2013*
G04 *
G04 Layer:  VIA CLASS/SOLDERMASK_BOTTOM*
G04 Layer:  PIN/SOLDERMASK_BOTTOM*
G04 Layer:  PACKAGE GEOMETRY/SOLDERMASK_BOTTOM*
G04 *
G04 Offset:    (0.000 0.000)*
G04 Mirror:    No*
G04 Mode:      Positive*
G04 Rotation:  0*
G04 FullContactRelief:  No*
G04 UndefLineWidth:     0.000*
G04 ================== end FILE IDENTIFICATION RECORD ====================*
%FSLAX34Y34*MOMM*%
%IR0*IPPOS*OFA0.00000B0.00000*MIA0B0*SFA1.00000B1.00000*%
%ADD19R,.7X1.1*%
%ADD12C,3.*%
%ADD14C,2.2*%
%ADD24C,2.15*%
%ADD10C,4.4*%
%ADD29C,5.4*%
%ADD27C,2.7*%
%ADD15C,1.8*%
%ADD13C,1.75*%
%ADD22R,2.15X2.15*%
%ADD21R,2.25X2.25*%
%ADD16R,1.75X.85*%
%ADD11R,1.75X1.75*%
%ADD18R,1.3X1.6*%
%ADD25R,2.X1.45*%
%ADD20R,1.3X2.9*%
%ADD23R,2.9X1.3*%
%ADD26R,3.35X2.4*%
%ADD28R,2.7X2.7*%
%ADD17R,1.95X1.2*%
%LPD*%
G75*
G54D10*
X-882650Y-2028190D03*
Y-1139190D03*
G54D20*
X-528450Y-1828800D03*
X-576450D03*
X-528450Y-1727200D03*
X-576450D03*
X-528450Y-1625600D03*
X-576450D03*
X-528450Y-1524000D03*
X-576450D03*
X-528450Y-1422400D03*
X-576450D03*
X-528450Y-1320800D03*
X-576450D03*
X-528450Y-1219200D03*
X-576450D03*
X-528450Y-1117600D03*
X-576450D03*
X-528450Y-755650D03*
X-576450D03*
X-528450Y-654050D03*
X-576450D03*
X-528450Y-552450D03*
X-576450D03*
X-528450Y-450850D03*
X-576450D03*
X-528450Y-349250D03*
X-576450D03*
X-528450Y-247650D03*
X-576450D03*
X-528450Y-146050D03*
X-576450D03*
X-528450Y-44450D03*
X-576450D03*
G54D11*
X-831850Y-1977390D03*
X-857250D03*
X-831850Y-1748790D03*
X-857250D03*
X-831850Y-1494790D03*
X-857250D03*
X-831850Y-1240790D03*
X-857250D03*
X-806450Y-1977390D03*
Y-1748790D03*
Y-1494790D03*
Y-1240790D03*
X-740000Y-936700D03*
G54D21*
X-573950Y-1784350D03*
X-530950D03*
X-573950Y-1682750D03*
X-530950D03*
X-573950Y-1581150D03*
X-530950D03*
X-573950Y-1479550D03*
X-530950D03*
X-573950Y-1377950D03*
X-530950D03*
X-573950Y-1276350D03*
X-530950D03*
X-573950Y-1174750D03*
X-530950D03*
X-573950Y-1073150D03*
X-530950D03*
X-573950Y-711200D03*
X-530950D03*
X-573950Y-609600D03*
X-530950D03*
X-573950Y-508000D03*
X-530950D03*
X-573950Y-406400D03*
X-530950D03*
X-573950Y-304800D03*
X-530950D03*
X-573950Y-203200D03*
X-530950D03*
X-573950Y-101600D03*
X-530950D03*
X-573950Y0D03*
X-530950D03*
X-438150Y-1837600D03*
Y-1794600D03*
Y-1634400D03*
Y-1591400D03*
Y-1431200D03*
Y-1388200D03*
Y-1228000D03*
Y-1185000D03*
Y-764450D03*
Y-721450D03*
Y-561250D03*
Y-518250D03*
Y-358050D03*
Y-315050D03*
Y-154850D03*
Y-111850D03*
X-425450Y-1736000D03*
Y-1693000D03*
Y-1532800D03*
Y-1489800D03*
Y-1329600D03*
Y-1286600D03*
Y-1126400D03*
Y-1083400D03*
Y-662850D03*
Y-619850D03*
Y-459650D03*
Y-416650D03*
Y-256450D03*
Y-213450D03*
Y-53250D03*
Y-10250D03*
G54D12*
X-812800Y-2032000D03*
X-863600Y127000D03*
X0Y-2032000D03*
Y127000D03*
G54D22*
X-495300Y-1834750D03*
Y-1631550D03*
Y-1428350D03*
Y-1225150D03*
Y-761600D03*
Y-558400D03*
Y-355200D03*
Y-152000D03*
X-368300Y-1733150D03*
Y-1529950D03*
Y-1326750D03*
Y-1123550D03*
Y-660000D03*
Y-456800D03*
Y-253600D03*
Y-50400D03*
X-241300Y-1834750D03*
Y-1631550D03*
Y-1428350D03*
Y-1225150D03*
Y-761600D03*
Y-558400D03*
Y-355200D03*
Y-152000D03*
X-114300Y-1733150D03*
Y-1529950D03*
Y-1326750D03*
Y-1123550D03*
Y-660000D03*
Y-456800D03*
Y-253600D03*
Y-50400D03*
G54D13*
X-831850Y-1901190D03*
Y-1926590D03*
Y-1951990D03*
X-857250Y-1901190D03*
Y-1926590D03*
Y-1951990D03*
X-831850Y-1824990D03*
Y-1850390D03*
Y-1875790D03*
X-857250Y-1824990D03*
Y-1850390D03*
Y-1875790D03*
X-831850Y-1774190D03*
Y-1799590D03*
X-857250Y-1774190D03*
Y-1799590D03*
X-831850Y-1672590D03*
Y-1697990D03*
Y-1723390D03*
X-857250Y-1672590D03*
Y-1697990D03*
Y-1723390D03*
X-831850Y-1596390D03*
Y-1621790D03*
Y-1647190D03*
X-857250Y-1596390D03*
Y-1621790D03*
Y-1647190D03*
X-831850Y-1520190D03*
Y-1545590D03*
Y-1570990D03*
X-857250Y-1520190D03*
Y-1545590D03*
Y-1570990D03*
X-831850Y-1443990D03*
Y-1469390D03*
X-857250Y-1443990D03*
Y-1469390D03*
X-831850Y-1367790D03*
Y-1393190D03*
Y-1418590D03*
X-857250Y-1367790D03*
Y-1393190D03*
Y-1418590D03*
X-831850Y-1291590D03*
Y-1316990D03*
Y-1342390D03*
X-857250Y-1291590D03*
Y-1316990D03*
Y-1342390D03*
X-831850Y-1215390D03*
Y-1266190D03*
X-857250Y-1215390D03*
Y-1266190D03*
X-831850Y-1189990D03*
X-857250D03*
X-806450Y-1901190D03*
Y-1926590D03*
Y-1951990D03*
Y-1824990D03*
Y-1850390D03*
Y-1875790D03*
Y-1774190D03*
Y-1799590D03*
Y-1672590D03*
Y-1697990D03*
Y-1723390D03*
Y-1596390D03*
Y-1621790D03*
Y-1647190D03*
Y-1520190D03*
Y-1545590D03*
Y-1570990D03*
Y-1443990D03*
Y-1469390D03*
Y-1367790D03*
Y-1393190D03*
Y-1418590D03*
Y-1291590D03*
Y-1316990D03*
Y-1342390D03*
Y-1215390D03*
Y-1266190D03*
Y-1189990D03*
G54D23*
X-463550Y-1738500D03*
X-501650D03*
X-463550Y-1690500D03*
X-501650D03*
X-463550Y-1535300D03*
X-501650D03*
X-463550Y-1487300D03*
X-501650D03*
X-463550Y-1284100D03*
Y-1332100D03*
X-501650Y-1284100D03*
Y-1332100D03*
X-463550Y-1128900D03*
X-501650D03*
X-463550Y-1080900D03*
X-501650D03*
X-463550Y-617350D03*
Y-665350D03*
X-501650Y-617350D03*
Y-665350D03*
X-463550Y-462150D03*
X-501650D03*
X-463550Y-414150D03*
X-501650D03*
X-463550Y-258950D03*
X-501650D03*
X-463550Y-210950D03*
X-501650D03*
X-463550Y-7750D03*
Y-55750D03*
X-501650Y-7750D03*
Y-55750D03*
X-400050Y-1840100D03*
X-361950D03*
X-400050Y-1792100D03*
X-361950D03*
X-400050Y-1588900D03*
Y-1636900D03*
X-361950Y-1588900D03*
Y-1636900D03*
X-400050Y-1433700D03*
X-361950D03*
X-400050Y-1385700D03*
X-361950D03*
X-400050Y-1230500D03*
X-361950D03*
X-400050Y-1182500D03*
X-361950D03*
X-400050Y-766950D03*
X-361950D03*
X-400050Y-718950D03*
X-361950D03*
X-400050Y-563750D03*
X-361950D03*
X-400050Y-515750D03*
X-361950D03*
X-400050Y-312550D03*
Y-360550D03*
X-361950Y-312550D03*
Y-360550D03*
X-400050Y-157350D03*
X-361950D03*
X-400050Y-109350D03*
X-361950D03*
G54D14*
X-876300Y-939800D03*
G54D15*
X-740000Y-911300D03*
G54D24*
X-495300Y-1784750D03*
Y-1581550D03*
Y-1378350D03*
Y-1175150D03*
Y-711600D03*
Y-508400D03*
Y-305200D03*
Y-102000D03*
X-368300Y-1683150D03*
Y-1479950D03*
Y-1276750D03*
Y-1073550D03*
Y-610000D03*
Y-406800D03*
Y-203600D03*
Y-400D03*
X-241300Y-1784750D03*
Y-1581550D03*
Y-1378350D03*
Y-1175150D03*
Y-711600D03*
Y-508400D03*
Y-305200D03*
Y-102000D03*
X-114300Y-1683150D03*
Y-1479950D03*
Y-1276750D03*
Y-1073550D03*
Y-610000D03*
Y-406800D03*
Y-203600D03*
Y-400D03*
G54D25*
X-330200Y-1831100D03*
Y-1801100D03*
Y-1729500D03*
Y-1699500D03*
Y-1627900D03*
Y-1597900D03*
Y-1526300D03*
Y-1496300D03*
Y-1424700D03*
Y-1394700D03*
Y-1323100D03*
Y-1293100D03*
Y-1221500D03*
Y-1191500D03*
Y-1119900D03*
Y-1089900D03*
Y-757950D03*
Y-727950D03*
Y-656350D03*
Y-626350D03*
Y-554750D03*
Y-524750D03*
Y-453150D03*
Y-423150D03*
Y-351550D03*
Y-321550D03*
Y-249950D03*
Y-219950D03*
Y-148350D03*
Y-118350D03*
Y-46750D03*
Y-16750D03*
G54D16*
X-687050Y-1828800D03*
Y-1816100D03*
Y-1803400D03*
Y-1727200D03*
Y-1714500D03*
Y-1701800D03*
Y-1625600D03*
Y-1612900D03*
Y-1600200D03*
Y-1524000D03*
Y-1511300D03*
Y-1498600D03*
Y-1422400D03*
Y-1409700D03*
Y-1397000D03*
Y-1320800D03*
Y-1308100D03*
Y-1295400D03*
Y-1219200D03*
Y-1206500D03*
Y-1193800D03*
Y-1117600D03*
Y-1104900D03*
Y-1092200D03*
Y-755650D03*
Y-742950D03*
Y-730250D03*
Y-654050D03*
Y-641350D03*
Y-628650D03*
Y-552450D03*
Y-539750D03*
Y-527050D03*
Y-450850D03*
Y-438150D03*
Y-425450D03*
Y-349250D03*
Y-336550D03*
Y-323850D03*
Y-247650D03*
Y-234950D03*
Y-222250D03*
Y-146050D03*
Y-133350D03*
Y-120650D03*
Y-44450D03*
Y-31750D03*
Y-19050D03*
X-621050Y-1828800D03*
Y-1803400D03*
Y-1727200D03*
Y-1701800D03*
Y-1625600D03*
Y-1600200D03*
Y-1524000D03*
Y-1498600D03*
Y-1422400D03*
Y-1397000D03*
Y-1320800D03*
Y-1295400D03*
Y-1219200D03*
Y-1193800D03*
Y-1117600D03*
Y-1092200D03*
Y-755650D03*
Y-730250D03*
Y-654050D03*
Y-628650D03*
Y-552450D03*
Y-527050D03*
Y-450850D03*
Y-425450D03*
Y-349250D03*
Y-323850D03*
Y-247650D03*
Y-222250D03*
Y-146050D03*
Y-120650D03*
Y-44450D03*
Y-19050D03*
G54D17*
X-711200Y-1813800D03*
Y-1843800D03*
Y-1742200D03*
Y-1712200D03*
Y-1610600D03*
Y-1640600D03*
Y-1509000D03*
Y-1539000D03*
Y-1437400D03*
Y-1407400D03*
Y-1305800D03*
Y-1335800D03*
Y-1204200D03*
Y-1234200D03*
Y-1132600D03*
Y-1102600D03*
Y-770650D03*
Y-740650D03*
Y-639050D03*
Y-669050D03*
Y-537450D03*
Y-567450D03*
Y-465850D03*
Y-435850D03*
Y-334250D03*
Y-364250D03*
Y-232650D03*
Y-262650D03*
Y-161050D03*
Y-131050D03*
Y-29450D03*
Y-59450D03*
G54D26*
X-57150Y-1835150D03*
Y-1765150D03*
Y-1631950D03*
Y-1561950D03*
Y-1428750D03*
Y-1358750D03*
Y-1225550D03*
Y-1155550D03*
Y-762000D03*
Y-692000D03*
Y-558800D03*
Y-488800D03*
Y-355600D03*
Y-285600D03*
Y-152400D03*
Y-82400D03*
X57150Y-1743150D03*
Y-1673150D03*
Y-1539950D03*
Y-1469950D03*
Y-1336750D03*
Y-1266750D03*
Y-1133550D03*
Y-1063550D03*
Y-670000D03*
Y-600000D03*
Y-466800D03*
Y-396800D03*
Y-263600D03*
Y-193600D03*
Y-60400D03*
Y9600D03*
G54D18*
X-707000Y-1784350D03*
X-690000D03*
X-707000Y-1682750D03*
X-690000D03*
X-707000Y-1581150D03*
X-690000D03*
X-707000Y-1479550D03*
X-690000D03*
X-707000Y-1377950D03*
X-690000D03*
X-707000Y-1276350D03*
X-690000D03*
X-707000Y-1174750D03*
X-690000D03*
X-707000Y-1073150D03*
X-690000D03*
X-707000Y-711200D03*
X-690000D03*
X-707000Y-609600D03*
X-690000D03*
X-707000Y-508000D03*
X-690000D03*
X-707000Y-406400D03*
X-690000D03*
X-707000Y-304800D03*
X-690000D03*
X-707000Y-203200D03*
X-690000D03*
X-707000Y-101600D03*
X-690000D03*
X-707000Y0D03*
X-690000D03*
G54D27*
X0Y-1835150D03*
Y-1733550D03*
Y-1784350D03*
Y-1682750D03*
Y-1581150D03*
Y-1631950D03*
Y-1530350D03*
Y-1428750D03*
Y-1479550D03*
Y-1377950D03*
Y-1276350D03*
Y-1327150D03*
Y-1225550D03*
Y-1123950D03*
Y-1174750D03*
Y-762000D03*
Y-711200D03*
Y-609600D03*
Y-660400D03*
Y-558800D03*
Y-457200D03*
Y-508000D03*
Y-406400D03*
Y-304800D03*
Y-355600D03*
Y-254000D03*
Y-152400D03*
Y-203200D03*
Y-101600D03*
Y-50800D03*
G54D28*
Y-1073150D03*
Y0D03*
G54D19*
X-596900Y-1829100D03*
Y-1803100D03*
Y-1727500D03*
Y-1701500D03*
Y-1625900D03*
Y-1599900D03*
Y-1524300D03*
Y-1498300D03*
Y-1422700D03*
Y-1396700D03*
Y-1321100D03*
Y-1295100D03*
Y-1219500D03*
Y-1193500D03*
Y-1117900D03*
Y-1091900D03*
Y-755950D03*
Y-729950D03*
Y-654350D03*
Y-628350D03*
Y-552750D03*
Y-526750D03*
Y-451150D03*
Y-425150D03*
Y-349550D03*
Y-323550D03*
Y-247950D03*
Y-221950D03*
Y-146350D03*
Y-120350D03*
Y-44750D03*
Y-18750D03*
G54D29*
X82550Y-2029460D03*
Y193040D03*
M02*
