G04 ================== begin FILE IDENTIFICATION RECORD ==================*
G04 Layout Name:  D:/Project/Circuit/ORCAD/KPRD/03v1/pcb/kprd_03v1.brd*
G04 Film Name:    MASK_TOP*
G04 File Format:  Gerber RS274X*
G04 File Origin:  Cadence Allegro 16.6-S012*
G04 Origin Date:  Mon Jul 29 12:29:18 2013*
G04 *
G04 Layer:  VIA CLASS/SOLDERMASK_TOP*
G04 Layer:  PIN/SOLDERMASK_TOP*
G04 Layer:  PACKAGE GEOMETRY/SOLDERMASK_TOP*
G04 *
G04 Offset:    (0.000 0.000)*
G04 Mirror:    No*
G04 Mode:      Positive*
G04 Rotation:  0*
G04 FullContactRelief:  No*
G04 UndefLineWidth:     0.000*
G04 ================== end FILE IDENTIFICATION RECORD ====================*
%FSLAX34Y34*MOMM*%
%IR0*IPPOS*OFA0.00000B0.00000*MIA0B0*SFA1.00000B1.00000*%
%ADD21R,.8X1.2*%
%ADD24R,1.2X.8*%
%ADD12C,3.*%
%ADD16C,2.2*%
%ADD26C,2.15*%
%ADD10C,4.4*%
%ADD29C,5.4*%
%ADD27C,2.7*%
%ADD19C,1.8*%
%ADD13C,1.75*%
%ADD25R,2.15X2.15*%
%ADD14R,2.25X2.25*%
%ADD11R,1.75X1.75*%
%ADD18R,1.6X1.3*%
%ADD20R,2.X1.45*%
%ADD15R,1.3X2.9*%
%ADD17R,1.2X1.95*%
%ADD28R,2.7X2.7*%
%ADD23R,1.95X1.2*%
%ADD22R,2.4X1.75*%
%LPD*%
G75*
G54D10*
X-882650Y-2028190D03*
Y-1139190D03*
G54D20*
X-755650Y52860D03*
Y22860D03*
X-787400Y52860D03*
Y22860D03*
G54D11*
X-831850Y-1977390D03*
X-857250D03*
X-831850Y-1748790D03*
X-857250D03*
X-831850Y-1494790D03*
X-857250D03*
X-831850Y-1240790D03*
X-857250D03*
X-806450Y-1977390D03*
Y-1748790D03*
Y-1494790D03*
Y-1240790D03*
X-740000Y-936700D03*
G54D12*
X-812800Y-2032000D03*
X-863600Y127000D03*
X0Y-2032000D03*
Y127000D03*
G54D21*
X-669900Y-1988890D03*
X-704850Y-1965890D03*
X-695350Y-1988890D03*
X-714350D03*
X-660400Y-1965890D03*
X-650900Y-1988890D03*
G54D22*
X-665300Y-2021840D03*
X-706300D03*
G54D13*
X-831850Y-1901190D03*
Y-1926590D03*
Y-1951990D03*
X-857250Y-1901190D03*
Y-1926590D03*
Y-1951990D03*
X-831850Y-1824990D03*
Y-1850390D03*
Y-1875790D03*
X-857250Y-1824990D03*
Y-1850390D03*
Y-1875790D03*
X-831850Y-1774190D03*
Y-1799590D03*
X-857250Y-1774190D03*
Y-1799590D03*
X-831850Y-1672590D03*
Y-1697990D03*
Y-1723390D03*
X-857250Y-1672590D03*
Y-1697990D03*
Y-1723390D03*
X-831850Y-1596390D03*
Y-1621790D03*
Y-1647190D03*
X-857250Y-1596390D03*
Y-1621790D03*
Y-1647190D03*
X-831850Y-1520190D03*
Y-1545590D03*
Y-1570990D03*
X-857250Y-1520190D03*
Y-1545590D03*
Y-1570990D03*
X-831850Y-1443990D03*
Y-1469390D03*
X-857250Y-1443990D03*
Y-1469390D03*
X-831850Y-1367790D03*
Y-1393190D03*
Y-1418590D03*
X-857250Y-1367790D03*
Y-1393190D03*
Y-1418590D03*
X-831850Y-1291590D03*
Y-1316990D03*
Y-1342390D03*
X-857250Y-1291590D03*
Y-1316990D03*
Y-1342390D03*
X-831850Y-1215390D03*
Y-1266190D03*
X-857250Y-1215390D03*
Y-1266190D03*
X-831850Y-1189990D03*
X-857250D03*
X-806450Y-1901190D03*
Y-1926590D03*
Y-1951990D03*
Y-1824990D03*
Y-1850390D03*
Y-1875790D03*
Y-1774190D03*
Y-1799590D03*
Y-1672590D03*
Y-1697990D03*
Y-1723390D03*
Y-1596390D03*
Y-1621790D03*
Y-1647190D03*
Y-1520190D03*
Y-1545590D03*
Y-1570990D03*
Y-1443990D03*
Y-1469390D03*
Y-1367790D03*
Y-1393190D03*
Y-1418590D03*
Y-1291590D03*
Y-1316990D03*
Y-1342390D03*
Y-1215390D03*
Y-1266190D03*
Y-1189990D03*
G54D23*
X-717900Y-1835150D03*
Y-1809750D03*
Y-1784350D03*
Y-1733550D03*
Y-1708150D03*
Y-1682750D03*
Y-1631950D03*
Y-1606550D03*
Y-1530350D03*
Y-1581150D03*
Y-1504950D03*
Y-1479550D03*
Y-1428750D03*
Y-1403350D03*
Y-1377950D03*
Y-1327150D03*
Y-1301750D03*
Y-1225550D03*
Y-1276350D03*
Y-1200150D03*
Y-1174750D03*
Y-1123950D03*
Y-1098550D03*
Y-1073150D03*
Y-762000D03*
Y-736600D03*
Y-711200D03*
Y-660400D03*
Y-635000D03*
Y-609600D03*
Y-558800D03*
Y-533400D03*
Y-457200D03*
Y-508000D03*
Y-431800D03*
Y-406400D03*
Y-355600D03*
Y-330200D03*
Y-304800D03*
Y-254000D03*
Y-228600D03*
Y-152400D03*
Y-203200D03*
Y-127000D03*
Y-101600D03*
Y-50800D03*
Y-25400D03*
Y0D03*
X-602900Y-1835150D03*
Y-1809750D03*
Y-1784350D03*
Y-1733550D03*
Y-1708150D03*
Y-1682750D03*
Y-1631950D03*
Y-1606550D03*
Y-1530350D03*
Y-1581150D03*
Y-1504950D03*
Y-1479550D03*
Y-1428750D03*
Y-1403350D03*
Y-1377950D03*
Y-1327150D03*
Y-1301750D03*
Y-1225550D03*
Y-1276350D03*
Y-1200150D03*
Y-1174750D03*
Y-1123950D03*
Y-1098550D03*
Y-1073150D03*
Y-762000D03*
Y-736600D03*
Y-711200D03*
Y-660400D03*
Y-635000D03*
Y-609600D03*
Y-558800D03*
Y-533400D03*
Y-457200D03*
Y-508000D03*
Y-431800D03*
Y-406400D03*
Y-355600D03*
Y-330200D03*
Y-304800D03*
Y-254000D03*
Y-228600D03*
Y-152400D03*
Y-203200D03*
Y-127000D03*
Y-101600D03*
Y-50800D03*
Y-25400D03*
Y0D03*
G54D14*
X-866050Y-1050290D03*
X-823050D03*
X-615950Y-2011590D03*
Y-1968590D03*
G54D15*
X-866400Y-1012190D03*
X-835400D03*
X-703450Y-1939290D03*
Y-1901190D03*
X-655450Y-1939290D03*
Y-1901190D03*
G54D24*
X-560000Y-1828800D03*
X-583000Y-1838300D03*
Y-1819300D03*
X-560000Y-1727200D03*
X-583000Y-1736700D03*
Y-1717700D03*
X-560000Y-1625600D03*
X-583000Y-1635100D03*
Y-1616100D03*
X-560000Y-1524000D03*
X-583000Y-1533500D03*
Y-1514500D03*
X-560000Y-1422400D03*
X-583000Y-1431900D03*
Y-1412900D03*
X-560000Y-1320800D03*
X-583000Y-1330300D03*
Y-1311300D03*
X-560000Y-1219200D03*
X-583000Y-1228700D03*
Y-1209700D03*
X-560000Y-1117600D03*
X-583000Y-1127100D03*
Y-1108100D03*
X-560000Y-755650D03*
X-583000Y-765150D03*
Y-746150D03*
X-560000Y-654050D03*
X-583000Y-663550D03*
Y-644550D03*
X-560000Y-552450D03*
X-583000Y-561950D03*
Y-542950D03*
X-560000Y-450850D03*
X-583000Y-460350D03*
Y-441350D03*
X-560000Y-349250D03*
X-583000Y-358750D03*
Y-339750D03*
X-560000Y-247650D03*
X-583000Y-257150D03*
Y-238150D03*
X-560000Y-146050D03*
X-583000Y-155550D03*
Y-136550D03*
X-560000Y-44450D03*
X-583000Y-53950D03*
Y-34950D03*
G54D25*
X-495300Y-1834750D03*
Y-1631550D03*
Y-1428350D03*
Y-1225150D03*
Y-761600D03*
Y-558400D03*
Y-355200D03*
Y-152000D03*
X-368300Y-1733150D03*
Y-1529950D03*
Y-1326750D03*
Y-1123550D03*
Y-660000D03*
Y-456800D03*
Y-253600D03*
Y-50400D03*
X-241300Y-1834750D03*
Y-1631550D03*
Y-1428350D03*
Y-1225150D03*
Y-761600D03*
Y-558400D03*
Y-355200D03*
Y-152000D03*
X-114300Y-1733150D03*
Y-1529950D03*
Y-1326750D03*
Y-1123550D03*
Y-660000D03*
Y-456800D03*
Y-253600D03*
Y-50400D03*
G54D16*
X-876300Y-939800D03*
G54D17*
X-770650Y-1990090D03*
Y-2015490D03*
X-740650Y-1990090D03*
Y-2015490D03*
G54D26*
X-495300Y-1784750D03*
Y-1581550D03*
Y-1378350D03*
Y-1175150D03*
Y-711600D03*
Y-508400D03*
Y-305200D03*
Y-102000D03*
X-368300Y-1683150D03*
Y-1479950D03*
Y-1276750D03*
Y-1073550D03*
Y-610000D03*
Y-406800D03*
Y-203600D03*
Y-400D03*
X-241300Y-1784750D03*
Y-1581550D03*
Y-1378350D03*
Y-1175150D03*
Y-711600D03*
Y-508400D03*
Y-305200D03*
Y-102000D03*
X-114300Y-1683150D03*
Y-1479950D03*
Y-1276750D03*
Y-1073550D03*
Y-610000D03*
Y-406800D03*
Y-203600D03*
Y-400D03*
G54D18*
X-742950Y-1799200D03*
Y-1782200D03*
Y-1697600D03*
Y-1680600D03*
Y-1596000D03*
Y-1579000D03*
Y-1494400D03*
Y-1477400D03*
Y-1392800D03*
Y-1375800D03*
Y-1291200D03*
Y-1274200D03*
Y-1189600D03*
Y-1172600D03*
Y-1088000D03*
Y-1071000D03*
Y-726050D03*
Y-709050D03*
Y-624450D03*
Y-607450D03*
Y-522850D03*
Y-505850D03*
Y-421250D03*
Y-404250D03*
Y-319650D03*
Y-302650D03*
Y-218050D03*
Y-201050D03*
Y-116450D03*
Y-99450D03*
Y-14850D03*
Y2150D03*
G54D27*
X0Y-1835150D03*
Y-1733550D03*
Y-1784350D03*
Y-1682750D03*
Y-1581150D03*
Y-1631950D03*
Y-1530350D03*
Y-1428750D03*
Y-1479550D03*
Y-1377950D03*
Y-1276350D03*
Y-1327150D03*
Y-1225550D03*
Y-1123950D03*
Y-1174750D03*
Y-762000D03*
Y-711200D03*
Y-609600D03*
Y-660400D03*
Y-558800D03*
Y-457200D03*
Y-508000D03*
Y-406400D03*
Y-304800D03*
Y-355600D03*
Y-254000D03*
Y-152400D03*
Y-203200D03*
Y-101600D03*
Y-50800D03*
G54D28*
Y-1073150D03*
Y0D03*
G54D19*
X-740000Y-911300D03*
G54D29*
X82550Y-2029460D03*
Y193040D03*
M02*
