G04 ================== begin FILE IDENTIFICATION RECORD ==================*
G04 Layout Name:  D:/Project/Circuit/ORCAD/KPRD/03v1/pcb/kprd_03v1.brd*
G04 Film Name:    SILK_TOP*
G04 File Format:  Gerber RS274X*
G04 File Origin:  Cadence Allegro 16.6-S012*
G04 Origin Date:  Mon Jul 29 17:33:44 2013*
G04 *
G04 Layer:  MANUFACTURING/AUTOSILK_TOP*
G04 *
G04 Offset:    (0.000 0.000)*
G04 Mirror:    No*
G04 Mode:      Positive*
G04 Rotation:  0*
G04 FullContactRelief:  No*
G04 UndefLineWidth:     0.200*
G04 ================== end FILE IDENTIFICATION RECORD ====================*
%FSLAX34Y34*MOMM*%
%IR0*IPPOS*OFA0.00000B0.00000*MIA0B0*SFA1.00000B1.00000*%
%ADD10C,.2*%
%ADD11C,.3*%
%ADD12C,.15*%
%ADD13C,.25*%
G75*
%LPD*%
G75*
G54D10*
G01X-45400Y868200D02*
X4600D01*
Y828200D01*
X-15400Y808200D01*
Y-21800D01*
X4600Y-41800D01*
Y-81800D01*
X-45400D01*
G01X38700Y913100D02*
Y909100D01*
X-13300D01*
Y913100D01*
G01X38700Y941100D02*
Y945100D01*
X-13300D01*
Y941100D01*
G01X12850Y977700D02*
X-150D01*
G01X12850Y952700D02*
X-150D01*
G01X95100Y-20700D02*
X108100D01*
G01X95100Y-4700D02*
X108100D01*
G01X95100Y-52450D02*
X108100D01*
G01X95100Y-36450D02*
X108100D01*
G01X109600Y2010250D02*
Y2020250D01*
G01X93600Y2010250D02*
Y2020250D01*
G01X77850Y2010250D02*
Y2020250D01*
G01X61850Y2010250D02*
Y2020250D01*
G01X211350Y-3250D02*
X182350D01*
Y3250D01*
X211350D01*
Y-3250D01*
G01X180600Y-14000D02*
G03X179350Y-12750I-1250J0D01*
G01D02*
G03X178100Y-14000I0J-1250D01*
G01D02*
G03X179350Y-15250I1250J0D01*
G01D02*
G03X180600Y-14000I0J1250D01*
G01X166900Y-3250D02*
X137900D01*
Y3250D01*
X166900D01*
Y-3250D01*
G01X136150Y-14000D02*
G03X134900Y-12750I-1250J0D01*
G01D02*
G03X133650Y-14000I0J-1250D01*
G01D02*
G03X134900Y-15250I1250J0D01*
G01D02*
G03X136150Y-14000I0J1250D01*
G01X146450Y-57450D02*
X196450D01*
G01X146450Y-31450D02*
X196450D01*
G01X192800Y50600D02*
X162800D01*
G01X192800Y25600D02*
X162800D01*
G01X192800Y63700D02*
X162800D01*
G01X192800Y88700D02*
X162800D01*
G01X151850Y212640D02*
Y122640D01*
X241850D01*
Y212640D01*
X151850D01*
G01Y314240D02*
Y224240D01*
X241850D01*
Y314240D01*
X151850D01*
G01Y415840D02*
Y325840D01*
X241850D01*
Y415840D01*
X151850D01*
G01Y517440D02*
Y427440D01*
X241850D01*
Y517440D01*
X151850D01*
G01Y619040D02*
Y529040D01*
X241850D01*
Y619040D01*
X151850D01*
G01Y720640D02*
Y630640D01*
X241850D01*
Y720640D01*
X151850D01*
G01Y822240D02*
Y732240D01*
X241850D01*
Y822240D01*
X151850D01*
G01Y923840D02*
Y833840D01*
X241850D01*
Y923840D01*
X151850D01*
G01Y1285790D02*
Y1195790D01*
X241850D01*
Y1285790D01*
X151850D01*
G01Y1387390D02*
Y1297390D01*
X241850D01*
Y1387390D01*
X151850D01*
G01Y1488990D02*
Y1398990D01*
X241850D01*
Y1488990D01*
X151850D01*
G01Y1590590D02*
Y1500590D01*
X241850D01*
Y1590590D01*
X151850D01*
G01Y1692190D02*
Y1602190D01*
X241850D01*
Y1692190D01*
X151850D01*
G01Y1793790D02*
Y1703790D01*
X241850D01*
Y1793790D01*
X151850D01*
G01Y1895390D02*
Y1805390D01*
X241850D01*
Y1895390D01*
X151850D01*
G01Y1996990D02*
Y1906990D01*
X241850D01*
Y1996990D01*
X151850D01*
G01X261650Y13300D02*
X265650D01*
Y-38700D01*
X261650D01*
G01X233650Y13300D02*
X229650D01*
Y-38700D01*
X233650D01*
G01X197450Y-28450D02*
X205450D01*
G01X201450Y-24450D02*
Y-32450D01*
G01X209250Y10240D02*
X217250Y20240D01*
G01X311950Y167640D02*
Y237640D01*
X411950D01*
Y97640D01*
X311950D01*
Y167640D01*
G01X282500Y134090D02*
Y163090D01*
X289000D01*
Y134090D01*
X282500D01*
G01X311950Y370840D02*
Y440840D01*
X411950D01*
Y300840D01*
X311950D01*
Y370840D01*
G01X282500Y235690D02*
Y264690D01*
X289000D01*
Y235690D01*
X282500D01*
G01Y337290D02*
Y366290D01*
X289000D01*
Y337290D01*
X282500D01*
G01Y438890D02*
Y467890D01*
X289000D01*
Y438890D01*
X282500D01*
G01X311950Y574040D02*
Y644040D01*
X411950D01*
Y504040D01*
X311950D01*
Y574040D01*
G01X282500Y540490D02*
Y569490D01*
X289000D01*
Y540490D01*
X282500D01*
G01Y642090D02*
Y671090D01*
X289000D01*
Y642090D01*
X282500D01*
G01X311950Y777240D02*
Y847240D01*
X411950D01*
Y707240D01*
X311950D01*
Y777240D01*
G01X282500Y743690D02*
Y772690D01*
X289000D01*
Y743690D01*
X282500D01*
G01Y845290D02*
Y874290D01*
X289000D01*
Y845290D01*
X282500D01*
G01X311950Y1240790D02*
Y1310790D01*
X411950D01*
Y1170790D01*
X311950D01*
Y1240790D01*
G01X282500Y1207240D02*
Y1236240D01*
X289000D01*
Y1207240D01*
X282500D01*
G01X311950Y1443990D02*
Y1513990D01*
X411950D01*
Y1373990D01*
X311950D01*
Y1443990D01*
G01X282500Y1308840D02*
Y1337840D01*
X289000D01*
Y1308840D01*
X282500D01*
G01Y1410440D02*
Y1439440D01*
X289000D01*
Y1410440D01*
X282500D01*
G01Y1512040D02*
Y1541040D01*
X289000D01*
Y1512040D01*
X282500D01*
G01X311950Y1647190D02*
Y1717190D01*
X411950D01*
Y1577190D01*
X311950D01*
Y1647190D01*
G01X282500Y1613640D02*
Y1642640D01*
X289000D01*
Y1613640D01*
X282500D01*
G01Y1715240D02*
Y1744240D01*
X289000D01*
Y1715240D01*
X282500D01*
G01X311950Y1850390D02*
Y1920390D01*
X411950D01*
Y1780390D01*
X311950D01*
Y1850390D01*
G01X282500Y1816840D02*
Y1845840D01*
X289000D01*
Y1816840D01*
X282500D01*
G01Y1918440D02*
Y1947440D01*
X289000D01*
Y1918440D01*
X282500D01*
G01X438950Y269240D02*
Y339240D01*
X538950D01*
Y199240D01*
X438950D01*
Y269240D01*
G01Y472440D02*
Y542440D01*
X538950D01*
Y402440D01*
X438950D01*
Y472440D01*
G01Y675640D02*
Y745640D01*
X538950D01*
Y605640D01*
X438950D01*
Y675640D01*
G01Y878840D02*
Y948840D01*
X538950D01*
Y808840D01*
X438950D01*
Y878840D01*
G01Y1342390D02*
Y1412390D01*
X538950D01*
Y1272390D01*
X438950D01*
Y1342390D01*
G01Y1545590D02*
Y1615590D01*
X538950D01*
Y1475590D01*
X438950D01*
Y1545590D01*
G01Y1748790D02*
Y1818790D01*
X538950D01*
Y1678790D01*
X438950D01*
Y1748790D01*
G01Y1951990D02*
Y2021990D01*
X538950D01*
Y1881990D01*
X438950D01*
Y1951990D01*
G01X565950Y167640D02*
Y237640D01*
X665950D01*
Y97640D01*
X565950D01*
Y167640D01*
G01Y370840D02*
Y440840D01*
X665950D01*
Y300840D01*
X565950D01*
Y370840D01*
G01Y574040D02*
Y644040D01*
X665950D01*
Y504040D01*
X565950D01*
Y574040D01*
G01Y777240D02*
Y847240D01*
X665950D01*
Y707240D01*
X565950D01*
Y777240D01*
G01Y1240790D02*
Y1310790D01*
X665950D01*
Y1170790D01*
X565950D01*
Y1240790D01*
G01Y1443990D02*
Y1513990D01*
X665950D01*
Y1373990D01*
X565950D01*
Y1443990D01*
G01Y1647190D02*
Y1717190D01*
X665950D01*
Y1577190D01*
X565950D01*
Y1647190D01*
G01Y1850390D02*
Y1920390D01*
X665950D01*
Y1780390D01*
X565950D01*
Y1850390D01*
G01X692950Y269240D02*
Y339240D01*
X792950D01*
Y199240D01*
X692950D01*
Y269240D01*
G01Y472440D02*
Y542440D01*
X792950D01*
Y402440D01*
X692950D01*
Y472440D01*
G01Y675640D02*
Y745640D01*
X792950D01*
Y605640D01*
X692950D01*
Y675640D01*
G01Y878840D02*
Y948840D01*
X792950D01*
Y808840D01*
X692950D01*
Y878840D01*
G01Y1342390D02*
Y1412390D01*
X792950D01*
Y1272390D01*
X692950D01*
Y1342390D01*
G01Y1545590D02*
Y1615590D01*
X792950D01*
Y1475590D01*
X692950D01*
Y1545590D01*
G01Y1748790D02*
Y1818790D01*
X792950D01*
Y1678790D01*
X692950D01*
Y1748790D01*
G01Y1951990D02*
Y2021990D01*
X792950D01*
Y1881990D01*
X692950D01*
Y1951990D01*
G01X831850Y97790D02*
Y948690D01*
G01Y97790D02*
X958850D01*
Y948690D01*
X831850D01*
G01D02*
Y97790D01*
G01Y1170940D02*
Y2021840D01*
G01Y1170940D02*
X958850D01*
Y2021840D01*
X831850D01*
G01D02*
Y1170940D01*
G54D11*
G01X139850Y205140D02*
G03I-1500J0D01*
G01Y306740D02*
G03I-1500J0D01*
G01Y408340D02*
G03I-1500J0D01*
G01Y509940D02*
G03I-1500J0D01*
G01Y611540D02*
G03I-1500J0D01*
G01Y713140D02*
G03I-1500J0D01*
G01Y814740D02*
G03I-1500J0D01*
G01Y916340D02*
G03I-1500J0D01*
G01Y1278290D02*
G03X138350Y1279790I-1500J0D01*
G01D02*
G03X136850Y1278290I0J-1500D01*
G01D02*
G03X138350Y1276790I1500J0D01*
G01D02*
G03X139850Y1278290I0J1500D01*
G01Y1379890D02*
G03I-1500J0D01*
G01Y1481490D02*
G03X138350Y1482990I-1500J0D01*
G01D02*
G03X136850Y1481490I0J-1500D01*
G01D02*
G03X138350Y1479990I1500J0D01*
G01D02*
G03X139850Y1481490I0J1500D01*
G01Y1583090D02*
G03I-1500J0D01*
G01Y1684690D02*
G03I-1500J0D01*
G01Y1786290D02*
G03I-1500J0D01*
G01Y1887890D02*
G03I-1500J0D01*
G01Y1989490D02*
G03I-1500J0D01*
G54D12*
G01X4420Y-26530D02*
X-3450Y-24100D01*
X4420Y-21670D01*
G01X1670Y-22540D02*
Y-25660D01*
G01X4420Y-16230D02*
X-3450D01*
X-1880Y-17400D01*
G01X4420D02*
Y-15060D01*
G01X-22600Y875150D02*
X-15850Y887850D01*
G01X-22600D02*
X-15850Y875150D01*
G01X-6280D02*
Y887850D01*
X-8210Y885310D01*
G01Y875150D02*
X-4350D01*
G01X40310Y976800D02*
X39350Y977440D01*
X38220Y977860D01*
X36940D01*
X35490Y977220D01*
X34360Y976170D01*
X33560Y974900D01*
X32910Y972780D01*
X32750Y970870D01*
X33080Y968970D01*
X33560Y967700D01*
X34520Y966430D01*
X35650Y965580D01*
X36770Y965160D01*
X37900D01*
X39030Y965580D01*
X39990Y966220D01*
X40800Y967060D01*
G01X46190Y967700D02*
X47150Y966220D01*
X48440Y965370D01*
X49890Y965160D01*
X51170Y965370D01*
X52460Y966430D01*
X53260Y967700D01*
X53420Y968970D01*
X53100Y970450D01*
X51980Y971510D01*
X50850Y971930D01*
X49400D01*
G01X50850D02*
X51820Y972570D01*
X52620Y973630D01*
X52940Y974900D01*
X52620Y976170D01*
X51820Y977220D01*
X50370Y977860D01*
X48920Y977650D01*
X47470Y976800D01*
G01X-27670Y1012180D02*
X-23810D01*
G01X-25910Y1014940D02*
Y1009430D01*
G01X-16010Y1018530D02*
X-15050Y1019800D01*
X-13920Y1020440D01*
X-12630Y1020650D01*
X-11020Y1020230D01*
X-9900Y1019170D01*
X-9580Y1017900D01*
X-9740Y1016630D01*
X-10380Y1015570D01*
X-13600Y1013450D01*
X-15050Y1011970D01*
X-16010Y1009850D01*
X-16330Y1007950D01*
X-9580D01*
G01X1930D02*
Y1020650D01*
X-4030Y1011550D01*
X4020D01*
G01X14230Y1014720D02*
X14880Y1015360D01*
X15360Y1016420D01*
X15680Y1017900D01*
X15360Y1019170D01*
X14710Y1020010D01*
X13590Y1020650D01*
X9250D01*
Y1007950D01*
X14550D01*
X15680Y1008800D01*
X16320Y1010070D01*
X16640Y1011550D01*
X16320Y1013030D01*
X15360Y1014300D01*
X14230Y1014720D01*
X9250D01*
G01X29110Y1007950D02*
X22680D01*
Y1020650D01*
X29110D01*
G01X26540Y1014510D02*
X22680D01*
G01X91560Y-71200D02*
Y-58500D01*
X95580D01*
X96870Y-59140D01*
X97670Y-59980D01*
X97990Y-61680D01*
X97670Y-63370D01*
X96710Y-64430D01*
X95580Y-65060D01*
X91560D01*
G01X95580D02*
X97990Y-71200D01*
G01X109660D02*
Y-58500D01*
X103700Y-67600D01*
X111750D01*
G01X47210Y-21960D02*
X46810Y-22540D01*
X46550Y-23220D01*
Y-24000D01*
X46940Y-24880D01*
X47600Y-25560D01*
X48390Y-26050D01*
X49700Y-26440D01*
X50880Y-26530D01*
X52060Y-26340D01*
X52850Y-26050D01*
X53630Y-25460D01*
X54160Y-24780D01*
X54420Y-24100D01*
Y-23420D01*
X54160Y-22740D01*
X53760Y-22150D01*
X53240Y-21670D01*
G01X54420Y-16230D02*
X46550D01*
X48120Y-17400D01*
G01X54420D02*
Y-15060D01*
G01X85910Y-1200D02*
Y11500D01*
X89930D01*
X91220Y10860D01*
X92020Y10020D01*
X92340Y8320D01*
X92020Y6630D01*
X91060Y5570D01*
X89930Y4940D01*
X85910D01*
G01X89930D02*
X92340Y-1200D01*
G01X98540Y1340D02*
X99500Y-140D01*
X100790Y-990D01*
X102240Y-1200D01*
X103520Y-990D01*
X104810Y70D01*
X105610Y1340D01*
X105770Y2610D01*
X105450Y4090D01*
X104330Y5150D01*
X103200Y5570D01*
X101750D01*
G01X103200D02*
X104170Y6210D01*
X104970Y7270D01*
X105290Y8540D01*
X104970Y9810D01*
X104170Y10860D01*
X102720Y11500D01*
X101270Y11290D01*
X99820Y10440D01*
G01X111020Y23790D02*
X115040Y11090D01*
X119070Y23790D01*
G01X124460Y11090D02*
Y23790D01*
X127670D01*
X128960Y23150D01*
X129930Y22310D01*
X130730Y21040D01*
X131370Y19560D01*
X131530Y17440D01*
X131370Y15320D01*
X130730Y13840D01*
X129930Y12570D01*
X128960Y11720D01*
X127670Y11090D01*
X124460D01*
G01X137890Y21670D02*
X138850Y22940D01*
X139980Y23580D01*
X141270Y23790D01*
X142880Y23370D01*
X144000Y22310D01*
X144320Y21040D01*
X144160Y19770D01*
X143520Y18710D01*
X140300Y16590D01*
X138850Y15110D01*
X137890Y12990D01*
X137570Y11090D01*
X144320D01*
G01X73490Y162340D02*
X73980Y161560D01*
X74560Y161030D01*
X75250Y160770D01*
X76020Y161030D01*
X76610Y161560D01*
X77190Y162340D01*
X77390Y163390D01*
Y168640D01*
G01X81360Y160770D02*
Y168640D01*
X83700D01*
X84480Y168250D01*
X85060Y167330D01*
X85260Y166280D01*
X85060Y165230D01*
X84580Y164440D01*
X83700Y164050D01*
X81360D01*
G01X91180Y160770D02*
Y168640D01*
X90010Y167070D01*
G01Y160770D02*
X92350D01*
G01X97200Y164050D02*
X97880Y164970D01*
X98470Y165490D01*
X99240Y165750D01*
X99930Y165490D01*
X100410Y164970D01*
X100800Y164180D01*
X100900Y163260D01*
X100800Y162480D01*
X100410Y161690D01*
X99830Y161030D01*
X99150Y160770D01*
X98370Y161030D01*
X97690Y161820D01*
X97300Y163000D01*
X97200Y164310D01*
X97400Y166020D01*
X97690Y166930D01*
X98170Y167850D01*
X98860Y168510D01*
X99540Y168640D01*
X100220Y168380D01*
X100700Y167720D01*
G01X77830Y200790D02*
X76870Y201430D01*
X75740Y201850D01*
X74460D01*
X73010Y201210D01*
X71880Y200160D01*
X71080Y198890D01*
X70430Y196770D01*
X70270Y194860D01*
X70600Y192960D01*
X71080Y191690D01*
X72040Y190420D01*
X73170Y189570D01*
X74290Y189150D01*
X75420D01*
X76550Y189570D01*
X77510Y190210D01*
X78320Y191050D01*
G01X83710D02*
X84670Y190000D01*
X85800Y189360D01*
X87240Y189150D01*
X88690Y189570D01*
X89820Y190420D01*
X90620Y191900D01*
X90780Y193590D01*
X90460Y195290D01*
X89660Y196350D01*
X88530Y197190D01*
X87410Y197400D01*
X86280Y197190D01*
X84830Y196350D01*
X85310Y201850D01*
X89660D01*
G01X100190Y189150D02*
Y201850D01*
X98260Y199310D01*
G01Y189150D02*
X102120D01*
G01X110300Y186690D02*
X118300D01*
G01X75830Y302790D02*
X74870Y303430D01*
X73740Y303850D01*
X72460D01*
X71010Y303210D01*
X69880Y302160D01*
X69080Y300890D01*
X68430Y298770D01*
X68270Y296860D01*
X68600Y294960D01*
X69080Y293690D01*
X70040Y292420D01*
X71170Y291570D01*
X72290Y291150D01*
X73420D01*
X74550Y291570D01*
X75510Y292210D01*
X76320Y293050D01*
G01X87180Y291150D02*
Y303850D01*
X81220Y294750D01*
X89270D01*
G01X98190Y291150D02*
X99320Y291360D01*
X100610Y292000D01*
X101410Y293050D01*
X101730Y294540D01*
X101410Y296020D01*
X100450Y297290D01*
X99000Y297920D01*
X97390D01*
X96430Y298350D01*
X95620Y299400D01*
X95300Y300890D01*
X95780Y302370D01*
X96910Y303430D01*
X98190Y303850D01*
X99480Y303430D01*
X100610Y302370D01*
X101090Y300890D01*
X100770Y299400D01*
X99960Y298350D01*
X99000Y297920D01*
X97390D01*
X95940Y297290D01*
X94980Y296020D01*
X94660Y294540D01*
X94980Y293050D01*
X95780Y292000D01*
X97070Y291360D01*
X98190Y291150D01*
G01X110300Y288290D02*
X118300D01*
G01X73490Y264340D02*
X73980Y263560D01*
X74560Y263030D01*
X75250Y262770D01*
X76020Y263030D01*
X76610Y263560D01*
X77190Y264340D01*
X77390Y265390D01*
Y270640D01*
G01X81360Y262770D02*
Y270640D01*
X83700D01*
X84480Y270250D01*
X85060Y269330D01*
X85260Y268280D01*
X85060Y267230D01*
X84580Y266440D01*
X83700Y266050D01*
X81360D01*
G01X91180Y262770D02*
Y270640D01*
X90010Y269070D01*
G01Y262770D02*
X92350D01*
G01X96910Y263950D02*
X97490Y263290D01*
X98170Y262900D01*
X99050Y262770D01*
X99930Y263030D01*
X100610Y263560D01*
X101090Y264480D01*
X101190Y265520D01*
X101000Y266570D01*
X100510Y267230D01*
X99830Y267750D01*
X99150Y267890D01*
X98470Y267750D01*
X97590Y267230D01*
X97880Y270640D01*
X100510D01*
G01X73490Y366340D02*
X73980Y365560D01*
X74560Y365030D01*
X75250Y364770D01*
X76020Y365030D01*
X76610Y365560D01*
X77190Y366340D01*
X77390Y367390D01*
Y372640D01*
G01X81360Y364770D02*
Y372640D01*
X83700D01*
X84480Y372250D01*
X85060Y371330D01*
X85260Y370280D01*
X85060Y369230D01*
X84580Y368440D01*
X83700Y368050D01*
X81360D01*
G01X91180Y364770D02*
Y372640D01*
X90010Y371070D01*
G01Y364770D02*
X92350D01*
G01X100220D02*
Y372640D01*
X96620Y367000D01*
X101480D01*
G01X77830Y404790D02*
X76870Y405430D01*
X75740Y405850D01*
X74460D01*
X73010Y405210D01*
X71880Y404160D01*
X71080Y402890D01*
X70430Y400770D01*
X70270Y398860D01*
X70600Y396960D01*
X71080Y395690D01*
X72040Y394420D01*
X73170Y393570D01*
X74290Y393150D01*
X75420D01*
X76550Y393570D01*
X77510Y394210D01*
X78320Y395050D01*
G01X89180Y393150D02*
Y405850D01*
X83220Y396750D01*
X91270D01*
G01X96660Y395050D02*
X97620Y394000D01*
X98750Y393360D01*
X100190Y393150D01*
X101640Y393570D01*
X102770Y394420D01*
X103570Y395900D01*
X103730Y397590D01*
X103410Y399290D01*
X102610Y400350D01*
X101480Y401190D01*
X100360Y401400D01*
X99230Y401190D01*
X97780Y400350D01*
X98260Y405850D01*
X102610D01*
G01X110300Y389890D02*
X118300D01*
G01X77830Y510790D02*
X76870Y511430D01*
X75740Y511850D01*
X74460D01*
X73010Y511210D01*
X71880Y510160D01*
X71080Y508890D01*
X70430Y506770D01*
X70270Y504860D01*
X70600Y502960D01*
X71080Y501690D01*
X72040Y500420D01*
X73170Y499570D01*
X74290Y499150D01*
X75420D01*
X76550Y499570D01*
X77510Y500210D01*
X78320Y501050D01*
G01X89180Y499150D02*
Y511850D01*
X83220Y502750D01*
X91270D01*
G01X97140Y509730D02*
X98100Y511000D01*
X99230Y511640D01*
X100520Y511850D01*
X102130Y511430D01*
X103250Y510370D01*
X103570Y509100D01*
X103410Y507830D01*
X102770Y506770D01*
X99550Y504650D01*
X98100Y503170D01*
X97140Y501050D01*
X96820Y499150D01*
X103570D01*
G01X110300Y491490D02*
X118300D01*
G01X73490Y468330D02*
X73980Y467550D01*
X74560Y467020D01*
X75250Y466760D01*
X76020Y467020D01*
X76610Y467550D01*
X77190Y468330D01*
X77390Y469380D01*
Y474630D01*
G01X81360Y466760D02*
Y474630D01*
X83700D01*
X84480Y474240D01*
X85060Y473320D01*
X85260Y472270D01*
X85060Y471220D01*
X84580Y470430D01*
X83700Y470040D01*
X81360D01*
G01X91180Y466760D02*
Y474630D01*
X90010Y473060D01*
G01Y466760D02*
X92350D01*
G01X96910Y468330D02*
X97490Y467420D01*
X98270Y466890D01*
X99150Y466760D01*
X99930Y466890D01*
X100700Y467550D01*
X101190Y468330D01*
X101290Y469120D01*
X101090Y470040D01*
X100410Y470690D01*
X99730Y470960D01*
X98860D01*
G01X99730D02*
X100320Y471350D01*
X100800Y472010D01*
X101000Y472790D01*
X100800Y473580D01*
X100320Y474240D01*
X99440Y474630D01*
X98560Y474500D01*
X97690Y473970D01*
G01X77830Y608790D02*
X76870Y609430D01*
X75740Y609850D01*
X74460D01*
X73010Y609210D01*
X71880Y608160D01*
X71080Y606890D01*
X70430Y604770D01*
X70270Y602860D01*
X70600Y600960D01*
X71080Y599690D01*
X72040Y598420D01*
X73170Y597570D01*
X74290Y597150D01*
X75420D01*
X76550Y597570D01*
X77510Y598210D01*
X78320Y599050D01*
G01X83710Y599690D02*
X84670Y598210D01*
X85960Y597360D01*
X87410Y597150D01*
X88690Y597360D01*
X89980Y598420D01*
X90780Y599690D01*
X90940Y600960D01*
X90620Y602440D01*
X89500Y603500D01*
X88370Y603920D01*
X86920D01*
G01X88370D02*
X89340Y604560D01*
X90140Y605620D01*
X90460Y606890D01*
X90140Y608160D01*
X89340Y609210D01*
X87890Y609850D01*
X86440Y609640D01*
X84990Y608790D01*
G01X97460Y598630D02*
X98590Y597570D01*
X99870Y597150D01*
X101160Y597570D01*
X102290Y598840D01*
X103090Y600750D01*
X103410Y602650D01*
Y604980D01*
X103090Y606890D01*
X102290Y608580D01*
X101320Y609430D01*
X100190Y609850D01*
X98910Y609430D01*
X97940Y608580D01*
X97300Y607310D01*
X96980Y605620D01*
X97300Y604140D01*
X98100Y602650D01*
X99070Y601810D01*
X100190Y601590D01*
X101480Y602020D01*
X102450Y603080D01*
X103410Y604980D01*
G01X110300Y593090D02*
X118300D01*
G01X73490Y568340D02*
X73980Y567560D01*
X74560Y567030D01*
X75250Y566770D01*
X76020Y567030D01*
X76610Y567560D01*
X77190Y568340D01*
X77390Y569390D01*
Y574640D01*
G01X81360Y566770D02*
Y574640D01*
X83700D01*
X84480Y574250D01*
X85060Y573330D01*
X85260Y572280D01*
X85060Y571230D01*
X84580Y570440D01*
X83700Y570050D01*
X81360D01*
G01X91180Y566770D02*
Y574640D01*
X90010Y573070D01*
G01Y566770D02*
X92350D01*
G01X97200Y573330D02*
X97780Y574120D01*
X98470Y574510D01*
X99240Y574640D01*
X100220Y574380D01*
X100900Y573720D01*
X101090Y572930D01*
X101000Y572150D01*
X100610Y571490D01*
X98660Y570180D01*
X97780Y569260D01*
X97200Y567950D01*
X97010Y566770D01*
X101090D01*
G01X75490Y672340D02*
X75980Y671560D01*
X76560Y671030D01*
X77250Y670770D01*
X78020Y671030D01*
X78610Y671560D01*
X79190Y672340D01*
X79390Y673390D01*
Y678640D01*
G01X83360Y670770D02*
Y678640D01*
X85700D01*
X86480Y678250D01*
X87060Y677330D01*
X87260Y676280D01*
X87060Y675230D01*
X86580Y674440D01*
X85700Y674050D01*
X83360D01*
G01X93180Y670770D02*
Y678640D01*
X92010Y677070D01*
G01Y670770D02*
X94350D01*
G01X101050D02*
Y678640D01*
X99880Y677070D01*
G01Y670770D02*
X102220D01*
G01X77830Y708790D02*
X76870Y709430D01*
X75740Y709850D01*
X74460D01*
X73010Y709210D01*
X71880Y708160D01*
X71080Y706890D01*
X70430Y704770D01*
X70270Y702860D01*
X70600Y700960D01*
X71080Y699690D01*
X72040Y698420D01*
X73170Y697570D01*
X74290Y697150D01*
X75420D01*
X76550Y697570D01*
X77510Y698210D01*
X78320Y699050D01*
G01X83710Y699690D02*
X84670Y698210D01*
X85960Y697360D01*
X87410Y697150D01*
X88690Y697360D01*
X89980Y698420D01*
X90780Y699690D01*
X90940Y700960D01*
X90620Y702440D01*
X89500Y703500D01*
X88370Y703920D01*
X86920D01*
G01X88370D02*
X89340Y704560D01*
X90140Y705620D01*
X90460Y706890D01*
X90140Y708160D01*
X89340Y709210D01*
X87890Y709850D01*
X86440Y709640D01*
X84990Y708790D01*
G01X97140Y702440D02*
X98260Y703920D01*
X99230Y704770D01*
X100520Y705190D01*
X101640Y704770D01*
X102450Y703920D01*
X103090Y702650D01*
X103250Y701170D01*
X103090Y699900D01*
X102450Y698630D01*
X101480Y697570D01*
X100360Y697150D01*
X99070Y697570D01*
X97940Y698840D01*
X97300Y700750D01*
X97140Y702860D01*
X97460Y705620D01*
X97940Y707100D01*
X98750Y708580D01*
X99870Y709640D01*
X101000Y709850D01*
X102130Y709430D01*
X102930Y708370D01*
G01X110300Y694690D02*
X118300D01*
G01X73490Y772340D02*
X73980Y771560D01*
X74560Y771030D01*
X75250Y770770D01*
X76020Y771030D01*
X76610Y771560D01*
X77190Y772340D01*
X77390Y773390D01*
Y778640D01*
G01X81360Y770770D02*
Y778640D01*
X83700D01*
X84480Y778250D01*
X85060Y777330D01*
X85260Y776280D01*
X85060Y775230D01*
X84580Y774440D01*
X83700Y774050D01*
X81360D01*
G01X91180Y770770D02*
Y778640D01*
X90010Y777070D01*
G01Y770770D02*
X92350D01*
G01X99050Y778640D02*
X98270Y778380D01*
X97690Y777720D01*
X97300Y776930D01*
X97010Y775890D01*
X96910Y774700D01*
X97010Y773520D01*
X97300Y772480D01*
X97690Y771690D01*
X98270Y771030D01*
X99050Y770770D01*
X99830Y771030D01*
X100410Y771690D01*
X100800Y772480D01*
X101090Y773520D01*
X101190Y774700D01*
X101090Y775890D01*
X100800Y776930D01*
X100410Y777720D01*
X99830Y778380D01*
X99050Y778640D01*
G01X77830Y812790D02*
X76870Y813430D01*
X75740Y813850D01*
X74460D01*
X73010Y813210D01*
X71880Y812160D01*
X71080Y810890D01*
X70430Y808770D01*
X70270Y806860D01*
X70600Y804960D01*
X71080Y803690D01*
X72040Y802420D01*
X73170Y801570D01*
X74290Y801150D01*
X75420D01*
X76550Y801570D01*
X77510Y802210D01*
X78320Y803050D01*
G01X83710Y803690D02*
X84670Y802210D01*
X85960Y801360D01*
X87410Y801150D01*
X88690Y801360D01*
X89980Y802420D01*
X90780Y803690D01*
X90940Y804960D01*
X90620Y806440D01*
X89500Y807500D01*
X88370Y807920D01*
X86920D01*
G01X88370D02*
X89340Y808560D01*
X90140Y809620D01*
X90460Y810890D01*
X90140Y812160D01*
X89340Y813210D01*
X87890Y813850D01*
X86440Y813640D01*
X84990Y812790D01*
G01X96660Y803690D02*
X97620Y802210D01*
X98910Y801360D01*
X100360Y801150D01*
X101640Y801360D01*
X102930Y802420D01*
X103730Y803690D01*
X103890Y804960D01*
X103570Y806440D01*
X102450Y807500D01*
X101320Y807920D01*
X99870D01*
G01X101320D02*
X102290Y808560D01*
X103090Y809620D01*
X103410Y810890D01*
X103090Y812160D01*
X102290Y813210D01*
X100840Y813850D01*
X99390Y813640D01*
X97940Y812790D01*
G01X110300Y796290D02*
X118300D01*
G01X48270Y935860D02*
X52290Y923160D01*
X56320Y935860D01*
G01X61710Y923160D02*
Y935860D01*
X64920D01*
X66210Y935220D01*
X67180Y934380D01*
X67980Y933110D01*
X68620Y931630D01*
X68780Y929510D01*
X68620Y927390D01*
X67980Y925910D01*
X67180Y924640D01*
X66210Y923790D01*
X64920Y923160D01*
X61710D01*
G01X78190D02*
Y935860D01*
X76260Y933320D01*
G01Y923160D02*
X80120D01*
G01X90310Y914790D02*
X89350Y915430D01*
X88220Y915850D01*
X86940D01*
X85490Y915210D01*
X84360Y914160D01*
X83560Y912890D01*
X82910Y910770D01*
X82750Y908860D01*
X83080Y906960D01*
X83560Y905690D01*
X84520Y904420D01*
X85650Y903570D01*
X86770Y903150D01*
X87900D01*
X89030Y903570D01*
X89990Y904210D01*
X90800Y905050D01*
G01X96990Y904630D02*
X98120Y903570D01*
X99400Y903150D01*
X100690Y903570D01*
X101820Y904840D01*
X102620Y906750D01*
X102940Y908650D01*
Y910980D01*
X102620Y912890D01*
X101820Y914580D01*
X100850Y915430D01*
X99720Y915850D01*
X98440Y915430D01*
X97470Y914580D01*
X96830Y913310D01*
X96510Y911620D01*
X96830Y910140D01*
X97630Y908650D01*
X98600Y907810D01*
X99720Y907590D01*
X101010Y908020D01*
X101980Y909080D01*
X102940Y910980D01*
G01X110300Y897890D02*
X118300D01*
G01X81430Y874340D02*
X81920Y873560D01*
X82500Y873030D01*
X83190Y872770D01*
X83960Y873030D01*
X84550Y873560D01*
X85130Y874340D01*
X85330Y875390D01*
Y880640D01*
G01X89300Y872770D02*
Y880640D01*
X91640D01*
X92420Y880250D01*
X93000Y879330D01*
X93200Y878280D01*
X93000Y877230D01*
X92520Y876440D01*
X91640Y876050D01*
X89300D01*
G01X97270Y879330D02*
X97850Y880120D01*
X98540Y880510D01*
X99310Y880640D01*
X100290Y880380D01*
X100970Y879720D01*
X101160Y878930D01*
X101070Y878150D01*
X100680Y877490D01*
X98730Y876180D01*
X97850Y875260D01*
X97270Y873950D01*
X97080Y872770D01*
X101160D01*
G01X77820Y1272790D02*
X76860Y1273430D01*
X75730Y1273850D01*
X74450D01*
X73000Y1273210D01*
X71870Y1272160D01*
X71070Y1270890D01*
X70420Y1268770D01*
X70260Y1266860D01*
X70590Y1264960D01*
X71070Y1263690D01*
X72030Y1262420D01*
X73160Y1261570D01*
X74280Y1261150D01*
X75410D01*
X76540Y1261570D01*
X77500Y1262210D01*
X78310Y1263050D01*
G01X83700Y1263690D02*
X84660Y1262210D01*
X85950Y1261360D01*
X87400Y1261150D01*
X88680Y1261360D01*
X89970Y1262420D01*
X90770Y1263690D01*
X90930Y1264960D01*
X90610Y1266440D01*
X89490Y1267500D01*
X88360Y1267920D01*
X86910D01*
G01X88360D02*
X89330Y1268560D01*
X90130Y1269620D01*
X90450Y1270890D01*
X90130Y1272160D01*
X89330Y1273210D01*
X87880Y1273850D01*
X86430Y1273640D01*
X84980Y1272790D01*
G01X100180Y1273850D02*
X98900Y1273430D01*
X97930Y1272370D01*
X97290Y1271100D01*
X96810Y1269400D01*
X96650Y1267500D01*
X96810Y1265590D01*
X97290Y1263900D01*
X97930Y1262630D01*
X98900Y1261570D01*
X100180Y1261150D01*
X101470Y1261570D01*
X102440Y1262630D01*
X103080Y1263900D01*
X103560Y1265590D01*
X103720Y1267500D01*
X103560Y1269400D01*
X103080Y1271100D01*
X102440Y1272370D01*
X101470Y1273430D01*
X100180Y1273850D01*
G01X110300Y1259840D02*
X118300D01*
G01X81430Y1236340D02*
X81920Y1235560D01*
X82500Y1235030D01*
X83190Y1234770D01*
X83960Y1235030D01*
X84550Y1235560D01*
X85130Y1236340D01*
X85330Y1237390D01*
Y1242640D01*
G01X89300Y1234770D02*
Y1242640D01*
X91640D01*
X92420Y1242250D01*
X93000Y1241330D01*
X93200Y1240280D01*
X93000Y1239230D01*
X92520Y1238440D01*
X91640Y1238050D01*
X89300D01*
G01X97470Y1235690D02*
X98150Y1235030D01*
X98930Y1234770D01*
X99700Y1235030D01*
X100390Y1235820D01*
X100870Y1237000D01*
X101070Y1238180D01*
Y1239620D01*
X100870Y1240800D01*
X100390Y1241850D01*
X99800Y1242380D01*
X99120Y1242640D01*
X98340Y1242380D01*
X97760Y1241850D01*
X97370Y1241070D01*
X97170Y1240020D01*
X97370Y1239100D01*
X97850Y1238180D01*
X98440Y1237660D01*
X99120Y1237520D01*
X99900Y1237790D01*
X100480Y1238440D01*
X101070Y1239620D01*
G01X79820Y1382790D02*
X78860Y1383430D01*
X77730Y1383850D01*
X76450D01*
X75000Y1383210D01*
X73870Y1382160D01*
X73070Y1380890D01*
X72420Y1378770D01*
X72260Y1376860D01*
X72590Y1374960D01*
X73070Y1373690D01*
X74030Y1372420D01*
X75160Y1371570D01*
X76280Y1371150D01*
X77410D01*
X78540Y1371570D01*
X79500Y1372210D01*
X80310Y1373050D01*
G01X86180Y1381730D02*
X87140Y1383000D01*
X88270Y1383640D01*
X89560Y1383850D01*
X91170Y1383430D01*
X92290Y1382370D01*
X92610Y1381100D01*
X92450Y1379830D01*
X91810Y1378770D01*
X88590Y1376650D01*
X87140Y1375170D01*
X86180Y1373050D01*
X85860Y1371150D01*
X92610D01*
G01X101860D02*
X102180Y1373900D01*
X102670Y1376230D01*
X103310Y1378350D01*
X104120Y1380670D01*
X105400Y1383850D01*
X98970D01*
G01X110300Y1361440D02*
X118300D01*
G01X81430Y1334340D02*
X81920Y1333560D01*
X82500Y1333030D01*
X83190Y1332770D01*
X83960Y1333030D01*
X84550Y1333560D01*
X85130Y1334340D01*
X85330Y1335390D01*
Y1340640D01*
G01X89300Y1332770D02*
Y1340640D01*
X91640D01*
X92420Y1340250D01*
X93000Y1339330D01*
X93200Y1338280D01*
X93000Y1337230D01*
X92520Y1336440D01*
X91640Y1336050D01*
X89300D01*
G01X99120Y1332770D02*
X99800Y1332900D01*
X100580Y1333290D01*
X101070Y1333950D01*
X101260Y1334870D01*
X101070Y1335790D01*
X100480Y1336570D01*
X99610Y1336970D01*
X98630D01*
X98050Y1337230D01*
X97560Y1337890D01*
X97370Y1338800D01*
X97660Y1339720D01*
X98340Y1340380D01*
X99120Y1340640D01*
X99900Y1340380D01*
X100580Y1339720D01*
X100870Y1338800D01*
X100680Y1337890D01*
X100190Y1337230D01*
X99610Y1336970D01*
X98630D01*
X97760Y1336570D01*
X97170Y1335790D01*
X96980Y1334870D01*
X97170Y1333950D01*
X97660Y1333290D01*
X98440Y1332900D01*
X99120Y1332770D01*
G01X81430Y1438340D02*
X81920Y1437560D01*
X82500Y1437030D01*
X83190Y1436770D01*
X83960Y1437030D01*
X84550Y1437560D01*
X85130Y1438340D01*
X85330Y1439390D01*
Y1444640D01*
G01X89300Y1436770D02*
Y1444640D01*
X91640D01*
X92420Y1444250D01*
X93000Y1443330D01*
X93200Y1442280D01*
X93000Y1441230D01*
X92520Y1440440D01*
X91640Y1440050D01*
X89300D01*
G01X98930Y1436770D02*
X99120Y1438480D01*
X99410Y1439920D01*
X99800Y1441230D01*
X100290Y1442670D01*
X101070Y1444640D01*
X97170D01*
G01X77820Y1478790D02*
X76860Y1479430D01*
X75730Y1479850D01*
X74450D01*
X73000Y1479210D01*
X71870Y1478160D01*
X71070Y1476890D01*
X70420Y1474770D01*
X70260Y1472860D01*
X70590Y1470960D01*
X71070Y1469690D01*
X72030Y1468420D01*
X73160Y1467570D01*
X74280Y1467150D01*
X75410D01*
X76540Y1467570D01*
X77500Y1468210D01*
X78310Y1469050D01*
G01X84180Y1477730D02*
X85140Y1479000D01*
X86270Y1479640D01*
X87560Y1479850D01*
X89170Y1479430D01*
X90290Y1478370D01*
X90610Y1477100D01*
X90450Y1475830D01*
X89810Y1474770D01*
X86590Y1472650D01*
X85140Y1471170D01*
X84180Y1469050D01*
X83860Y1467150D01*
X90610D01*
G01X102120D02*
Y1479850D01*
X96160Y1470750D01*
X104210D01*
G01X110300Y1463040D02*
X118300D01*
G01X79820Y1582790D02*
X78860Y1583430D01*
X77730Y1583850D01*
X76450D01*
X75000Y1583210D01*
X73870Y1582160D01*
X73070Y1580890D01*
X72420Y1578770D01*
X72260Y1576860D01*
X72590Y1574960D01*
X73070Y1573690D01*
X74030Y1572420D01*
X75160Y1571570D01*
X76280Y1571150D01*
X77410D01*
X78540Y1571570D01*
X79500Y1572210D01*
X80310Y1573050D01*
G01X86180Y1581730D02*
X87140Y1583000D01*
X88270Y1583640D01*
X89560Y1583850D01*
X91170Y1583430D01*
X92290Y1582370D01*
X92610Y1581100D01*
X92450Y1579830D01*
X91810Y1578770D01*
X88590Y1576650D01*
X87140Y1575170D01*
X86180Y1573050D01*
X85860Y1571150D01*
X92610D01*
G01X102180D02*
Y1583850D01*
X100250Y1581310D01*
G01Y1571150D02*
X104110D01*
G01X110300Y1564640D02*
X118300D01*
G01X81430Y1542340D02*
X81920Y1541560D01*
X82500Y1541030D01*
X83190Y1540770D01*
X83960Y1541030D01*
X84550Y1541560D01*
X85130Y1542340D01*
X85330Y1543390D01*
Y1548640D01*
G01X89300Y1540770D02*
Y1548640D01*
X91640D01*
X92420Y1548250D01*
X93000Y1547330D01*
X93200Y1546280D01*
X93000Y1545230D01*
X92520Y1544440D01*
X91640Y1544050D01*
X89300D01*
G01X97270D02*
X97950Y1544970D01*
X98540Y1545490D01*
X99310Y1545750D01*
X100000Y1545490D01*
X100480Y1544970D01*
X100870Y1544180D01*
X100970Y1543260D01*
X100870Y1542480D01*
X100480Y1541690D01*
X99900Y1541030D01*
X99220Y1540770D01*
X98440Y1541030D01*
X97760Y1541820D01*
X97370Y1543000D01*
X97270Y1544310D01*
X97470Y1546020D01*
X97760Y1546930D01*
X98240Y1547850D01*
X98930Y1548510D01*
X99610Y1548640D01*
X100290Y1548380D01*
X100770Y1547720D01*
G01X77820Y1682790D02*
X76860Y1683430D01*
X75730Y1683850D01*
X74450D01*
X73000Y1683210D01*
X71870Y1682160D01*
X71070Y1680890D01*
X70420Y1678770D01*
X70260Y1676860D01*
X70590Y1674960D01*
X71070Y1673690D01*
X72030Y1672420D01*
X73160Y1671570D01*
X74280Y1671150D01*
X75410D01*
X76540Y1671570D01*
X77500Y1672210D01*
X78310Y1673050D01*
G01X87230Y1671150D02*
Y1683850D01*
X85300Y1681310D01*
G01Y1671150D02*
X89160D01*
G01X100180D02*
X101310Y1671360D01*
X102600Y1672000D01*
X103400Y1673050D01*
X103720Y1674540D01*
X103400Y1676020D01*
X102440Y1677290D01*
X100990Y1677920D01*
X99380D01*
X98420Y1678350D01*
X97610Y1679400D01*
X97290Y1680890D01*
X97770Y1682370D01*
X98900Y1683430D01*
X100180Y1683850D01*
X101470Y1683430D01*
X102600Y1682370D01*
X103080Y1680890D01*
X102760Y1679400D01*
X101950Y1678350D01*
X100990Y1677920D01*
X99380D01*
X97930Y1677290D01*
X96970Y1676020D01*
X96650Y1674540D01*
X96970Y1673050D01*
X97770Y1672000D01*
X99060Y1671360D01*
X100180Y1671150D01*
G01X110300Y1666240D02*
X118300D01*
G01X81430Y1644340D02*
X81920Y1643560D01*
X82500Y1643030D01*
X83190Y1642770D01*
X83960Y1643030D01*
X84550Y1643560D01*
X85130Y1644340D01*
X85330Y1645390D01*
Y1650640D01*
G01X89300Y1642770D02*
Y1650640D01*
X91640D01*
X92420Y1650250D01*
X93000Y1649330D01*
X93200Y1648280D01*
X93000Y1647230D01*
X92520Y1646440D01*
X91640Y1646050D01*
X89300D01*
G01X96980Y1643950D02*
X97560Y1643290D01*
X98240Y1642900D01*
X99120Y1642770D01*
X100000Y1643030D01*
X100680Y1643560D01*
X101160Y1644480D01*
X101260Y1645520D01*
X101070Y1646570D01*
X100580Y1647230D01*
X99900Y1647750D01*
X99220Y1647890D01*
X98540Y1647750D01*
X97660Y1647230D01*
X97950Y1650640D01*
X100580D01*
G01X81430Y1744340D02*
X81920Y1743560D01*
X82500Y1743030D01*
X83190Y1742770D01*
X83960Y1743030D01*
X84550Y1743560D01*
X85130Y1744340D01*
X85330Y1745390D01*
Y1750640D01*
G01X89300Y1742770D02*
Y1750640D01*
X91640D01*
X92420Y1750250D01*
X93000Y1749330D01*
X93200Y1748280D01*
X93000Y1747230D01*
X92520Y1746440D01*
X91640Y1746050D01*
X89300D01*
G01X100290Y1742770D02*
Y1750640D01*
X96690Y1745000D01*
X101550D01*
G01X77820Y1782790D02*
X76860Y1783430D01*
X75730Y1783850D01*
X74450D01*
X73000Y1783210D01*
X71870Y1782160D01*
X71070Y1780890D01*
X70420Y1778770D01*
X70260Y1776860D01*
X70590Y1774960D01*
X71070Y1773690D01*
X72030Y1772420D01*
X73160Y1771570D01*
X74280Y1771150D01*
X75410D01*
X76540Y1771570D01*
X77500Y1772210D01*
X78310Y1773050D01*
G01X87230Y1771150D02*
Y1783850D01*
X85300Y1781310D01*
G01Y1771150D02*
X89160D01*
G01X96650Y1773050D02*
X97610Y1772000D01*
X98740Y1771360D01*
X100180Y1771150D01*
X101630Y1771570D01*
X102760Y1772420D01*
X103560Y1773900D01*
X103720Y1775590D01*
X103400Y1777290D01*
X102600Y1778350D01*
X101470Y1779190D01*
X100350Y1779400D01*
X99220Y1779190D01*
X97770Y1778350D01*
X98250Y1783850D01*
X102600D01*
G01X110300Y1767840D02*
X118300D01*
G01X77820Y1882800D02*
X76860Y1883440D01*
X75730Y1883860D01*
X74450D01*
X73000Y1883220D01*
X71870Y1882170D01*
X71070Y1880900D01*
X70420Y1878780D01*
X70260Y1876870D01*
X70590Y1874970D01*
X71070Y1873700D01*
X72030Y1872430D01*
X73160Y1871580D01*
X74280Y1871160D01*
X75410D01*
X76540Y1871580D01*
X77500Y1872220D01*
X78310Y1873060D01*
G01X87230Y1871160D02*
Y1883860D01*
X85300Y1881320D01*
G01Y1871160D02*
X89160D01*
G01X97130Y1881740D02*
X98090Y1883010D01*
X99220Y1883650D01*
X100510Y1883860D01*
X102120Y1883440D01*
X103240Y1882380D01*
X103560Y1881110D01*
X103400Y1879840D01*
X102760Y1878780D01*
X99540Y1876660D01*
X98090Y1875180D01*
X97130Y1873060D01*
X96810Y1871160D01*
X103560D01*
G01X110300Y1869440D02*
X118300D01*
G01X82430Y1849340D02*
X82920Y1848560D01*
X83500Y1848030D01*
X84190Y1847770D01*
X84960Y1848030D01*
X85550Y1848560D01*
X86130Y1849340D01*
X86330Y1850390D01*
Y1855640D01*
G01X90300Y1847770D02*
Y1855640D01*
X92640D01*
X93420Y1855250D01*
X94000Y1854330D01*
X94200Y1853280D01*
X94000Y1852230D01*
X93520Y1851440D01*
X92640Y1851050D01*
X90300D01*
G01X97980Y1849340D02*
X98560Y1848430D01*
X99340Y1847900D01*
X100220Y1847770D01*
X101000Y1847900D01*
X101770Y1848560D01*
X102260Y1849340D01*
X102360Y1850130D01*
X102160Y1851050D01*
X101480Y1851700D01*
X100800Y1851970D01*
X99930D01*
G01X100800D02*
X101390Y1852360D01*
X101870Y1853020D01*
X102070Y1853800D01*
X101870Y1854590D01*
X101390Y1855250D01*
X100510Y1855640D01*
X99630Y1855510D01*
X98760Y1854980D01*
G01X89310Y1982800D02*
X88350Y1983440D01*
X87220Y1983860D01*
X85940D01*
X84490Y1983220D01*
X83360Y1982170D01*
X82560Y1980900D01*
X81910Y1978780D01*
X81750Y1976870D01*
X82080Y1974970D01*
X82560Y1973700D01*
X83520Y1972430D01*
X84650Y1971580D01*
X85770Y1971160D01*
X86900D01*
X88030Y1971580D01*
X88990Y1972220D01*
X89800Y1973060D01*
G01X95670Y1976450D02*
X96790Y1977930D01*
X97760Y1978780D01*
X99050Y1979200D01*
X100170Y1978780D01*
X100980Y1977930D01*
X101620Y1976660D01*
X101780Y1975180D01*
X101620Y1973910D01*
X100980Y1972640D01*
X100010Y1971580D01*
X98890Y1971160D01*
X97600Y1971580D01*
X96470Y1972850D01*
X95830Y1974760D01*
X95670Y1976870D01*
X95990Y1979630D01*
X96470Y1981110D01*
X97280Y1982590D01*
X98400Y1983650D01*
X99530Y1983860D01*
X100660Y1983440D01*
X101460Y1982380D01*
G01X110300Y1971040D02*
X118300D01*
G01X82430Y1949340D02*
X82920Y1948560D01*
X83500Y1948030D01*
X84190Y1947770D01*
X84960Y1948030D01*
X85550Y1948560D01*
X86130Y1949340D01*
X86330Y1950390D01*
Y1955640D01*
G01X90300Y1947770D02*
Y1955640D01*
X92640D01*
X93420Y1955250D01*
X94000Y1954330D01*
X94200Y1953280D01*
X94000Y1952230D01*
X93520Y1951440D01*
X92640Y1951050D01*
X90300D01*
G01X100120Y1947770D02*
Y1955640D01*
X98950Y1954070D01*
G01Y1947770D02*
X101290D01*
G01X43060Y2035410D02*
X42100Y2036050D01*
X40970Y2036470D01*
X39690D01*
X38240Y2035830D01*
X37110Y2034780D01*
X36310Y2033510D01*
X35660Y2031390D01*
X35500Y2029480D01*
X35830Y2027580D01*
X36310Y2026310D01*
X37270Y2025040D01*
X38400Y2024190D01*
X39520Y2023770D01*
X40650D01*
X41780Y2024190D01*
X42740Y2024830D01*
X43550Y2025670D01*
G01X49420Y2034350D02*
X50380Y2035620D01*
X51510Y2036260D01*
X52800Y2036470D01*
X54410Y2036050D01*
X55530Y2034990D01*
X55850Y2033720D01*
X55690Y2032450D01*
X55050Y2031390D01*
X51830Y2029270D01*
X50380Y2027790D01*
X49420Y2025670D01*
X49100Y2023770D01*
X55850D01*
G01X142260Y-62150D02*
X146280Y-74850D01*
X150310Y-62150D01*
G01X155700Y-74850D02*
Y-62150D01*
X158910D01*
X160200Y-62790D01*
X161170Y-63630D01*
X161970Y-64900D01*
X162610Y-66380D01*
X162770Y-68500D01*
X162610Y-70620D01*
X161970Y-72100D01*
X161170Y-73370D01*
X160200Y-74220D01*
X158910Y-74850D01*
X155700D01*
G01X174120D02*
Y-62150D01*
X168160Y-71250D01*
X176210D01*
G01X125010Y34380D02*
Y47080D01*
X129030D01*
X130320Y46440D01*
X131120Y45600D01*
X131440Y43900D01*
X131120Y42210D01*
X130160Y41150D01*
X129030Y40520D01*
X125010D01*
G01X129030D02*
X131440Y34380D01*
G01X141170D02*
Y47080D01*
X139240Y44540D01*
G01Y34380D02*
X143100D01*
G01X123660Y69880D02*
Y82580D01*
X127680D01*
X128970Y81940D01*
X129770Y81100D01*
X130090Y79400D01*
X129770Y77710D01*
X128810Y76650D01*
X127680Y76020D01*
X123660D01*
G01X127680D02*
X130090Y69880D01*
G01X136770Y80460D02*
X137730Y81730D01*
X138860Y82370D01*
X140150Y82580D01*
X141760Y82160D01*
X142880Y81100D01*
X143200Y79830D01*
X143040Y78560D01*
X142400Y77500D01*
X139180Y75380D01*
X137730Y73900D01*
X136770Y71780D01*
X136450Y69880D01*
X143200D01*
G01X123060Y2035410D02*
X122100Y2036050D01*
X120970Y2036470D01*
X119690D01*
X118240Y2035830D01*
X117110Y2034780D01*
X116310Y2033510D01*
X115660Y2031390D01*
X115500Y2029480D01*
X115830Y2027580D01*
X116310Y2026310D01*
X117270Y2025040D01*
X118400Y2024190D01*
X119520Y2023770D01*
X120650D01*
X121780Y2024190D01*
X122740Y2024830D01*
X123550Y2025670D01*
G01X132470Y2023770D02*
Y2036470D01*
X130540Y2033930D01*
G01Y2023770D02*
X134400D01*
G01X215020Y37340D02*
X219040Y24640D01*
X223070Y37340D01*
G01X231990D02*
Y24640D01*
G01X228300Y37340D02*
X235690D01*
G01X244940Y24640D02*
Y37340D01*
X243010Y34800D01*
G01Y24640D02*
X246870D01*
G01X261800Y129850D02*
X265820Y117150D01*
X269850Y129850D01*
G01X275240Y117150D02*
Y129850D01*
X278450D01*
X279740Y129210D01*
X280710Y128370D01*
X281510Y127100D01*
X282150Y125620D01*
X282310Y123500D01*
X282150Y121380D01*
X281510Y119900D01*
X280710Y118630D01*
X279740Y117780D01*
X278450Y117150D01*
X275240D01*
G01X291720D02*
X292850Y117360D01*
X294140Y118000D01*
X294940Y119050D01*
X295260Y120540D01*
X294940Y122020D01*
X293980Y123290D01*
X292530Y123920D01*
X290920D01*
X289960Y124350D01*
X289150Y125400D01*
X288830Y126890D01*
X289310Y128370D01*
X290440Y129430D01*
X291720Y129850D01*
X293010Y129430D01*
X294140Y128370D01*
X294620Y126890D01*
X294300Y125400D01*
X293490Y124350D01*
X292530Y123920D01*
X290920D01*
X289470Y123290D01*
X288510Y122020D01*
X288190Y120540D01*
X288510Y119050D01*
X289310Y118000D01*
X290600Y117360D01*
X291720Y117150D01*
G01X306610D02*
Y129850D01*
X300650Y120750D01*
X308700D01*
G01X249820Y215850D02*
Y203150D01*
G01X246130Y215850D02*
X253520D01*
G01X258750D02*
X262770Y203150D01*
X266800Y215850D01*
G01X275720Y203150D02*
Y215850D01*
X273790Y213310D01*
G01Y203150D02*
X277650D01*
G01X285620Y208440D02*
X286740Y209920D01*
X287710Y210770D01*
X289000Y211190D01*
X290120Y210770D01*
X290930Y209920D01*
X291570Y208650D01*
X291730Y207170D01*
X291570Y205900D01*
X290930Y204630D01*
X289960Y203570D01*
X288840Y203150D01*
X287550Y203570D01*
X286420Y204840D01*
X285780Y206750D01*
X285620Y208860D01*
X285940Y211620D01*
X286420Y213100D01*
X287230Y214580D01*
X288350Y215640D01*
X289480Y215850D01*
X290610Y215430D01*
X291410Y214370D01*
G01X249820Y317850D02*
Y305150D01*
G01X246130Y317850D02*
X253520D01*
G01X258750D02*
X262770Y305150D01*
X266800Y317850D01*
G01X275720Y305150D02*
Y317850D01*
X273790Y315310D01*
G01Y305150D02*
X277650D01*
G01X285140Y307050D02*
X286100Y306000D01*
X287230Y305360D01*
X288670Y305150D01*
X290120Y305570D01*
X291250Y306420D01*
X292050Y307900D01*
X292210Y309590D01*
X291890Y311290D01*
X291090Y312350D01*
X289960Y313190D01*
X288840Y313400D01*
X287710Y313190D01*
X286260Y312350D01*
X286740Y317850D01*
X291090D01*
G01X261800Y333850D02*
X265820Y321150D01*
X269850Y333850D01*
G01X275240Y321150D02*
Y333850D01*
X278450D01*
X279740Y333210D01*
X280710Y332370D01*
X281510Y331100D01*
X282150Y329620D01*
X282310Y327500D01*
X282150Y325380D01*
X281510Y323900D01*
X280710Y322630D01*
X279740Y321780D01*
X278450Y321150D01*
X275240D01*
G01X291400D02*
X291720Y323900D01*
X292210Y326230D01*
X292850Y328350D01*
X293660Y330670D01*
X294940Y333850D01*
X288510D01*
G01X306610Y321150D02*
Y333850D01*
X300650Y324750D01*
X308700D01*
G01X249820Y419850D02*
Y407150D01*
G01X246130Y419850D02*
X253520D01*
G01X258750D02*
X262770Y407150D01*
X266800Y419850D01*
G01X275720Y407150D02*
Y419850D01*
X273790Y417310D01*
G01Y407150D02*
X277650D01*
G01X290610D02*
Y419850D01*
X284650Y410750D01*
X292700D01*
G01X261800Y435850D02*
X265820Y423150D01*
X269850Y435850D01*
G01X275240Y423150D02*
Y435850D01*
X278450D01*
X279740Y435210D01*
X280710Y434370D01*
X281510Y433100D01*
X282150Y431620D01*
X282310Y429500D01*
X282150Y427380D01*
X281510Y425900D01*
X280710Y424630D01*
X279740Y423780D01*
X278450Y423150D01*
X275240D01*
G01X288670Y428440D02*
X289790Y429920D01*
X290760Y430770D01*
X292050Y431190D01*
X293170Y430770D01*
X293980Y429920D01*
X294620Y428650D01*
X294780Y427170D01*
X294620Y425900D01*
X293980Y424630D01*
X293010Y423570D01*
X291890Y423150D01*
X290600Y423570D01*
X289470Y424840D01*
X288830Y426750D01*
X288670Y428860D01*
X288990Y431620D01*
X289470Y433100D01*
X290280Y434580D01*
X291400Y435640D01*
X292530Y435850D01*
X293660Y435430D01*
X294460Y434370D01*
G01X301940Y424630D02*
X303070Y423570D01*
X304350Y423150D01*
X305640Y423570D01*
X306770Y424840D01*
X307570Y426750D01*
X307890Y428650D01*
Y430980D01*
X307570Y432890D01*
X306770Y434580D01*
X305800Y435430D01*
X304670Y435850D01*
X303390Y435430D01*
X302420Y434580D01*
X301780Y433310D01*
X301460Y431620D01*
X301780Y430140D01*
X302580Y428650D01*
X303550Y427810D01*
X304670Y427590D01*
X305960Y428020D01*
X306930Y429080D01*
X307890Y430980D01*
G01X249820Y521850D02*
Y509150D01*
G01X246130Y521850D02*
X253520D01*
G01X258750D02*
X262770Y509150D01*
X266800Y521850D01*
G01X275720Y509150D02*
Y521850D01*
X273790Y519310D01*
G01Y509150D02*
X277650D01*
G01X285140Y511690D02*
X286100Y510210D01*
X287390Y509360D01*
X288840Y509150D01*
X290120Y509360D01*
X291410Y510420D01*
X292210Y511690D01*
X292370Y512960D01*
X292050Y514440D01*
X290930Y515500D01*
X289800Y515920D01*
X288350D01*
G01X289800D02*
X290770Y516560D01*
X291570Y517620D01*
X291890Y518890D01*
X291570Y520160D01*
X290770Y521210D01*
X289320Y521850D01*
X287870Y521640D01*
X286420Y520790D01*
G01X261800Y537850D02*
X265820Y525150D01*
X269850Y537850D01*
G01X275240Y525150D02*
Y537850D01*
X278450D01*
X279740Y537210D01*
X280710Y536370D01*
X281510Y535100D01*
X282150Y533620D01*
X282310Y531500D01*
X282150Y529380D01*
X281510Y527900D01*
X280710Y526630D01*
X279740Y525780D01*
X278450Y525150D01*
X275240D01*
G01X288670Y530440D02*
X289790Y531920D01*
X290760Y532770D01*
X292050Y533190D01*
X293170Y532770D01*
X293980Y531920D01*
X294620Y530650D01*
X294780Y529170D01*
X294620Y527900D01*
X293980Y526630D01*
X293010Y525570D01*
X291890Y525150D01*
X290600Y525570D01*
X289470Y526840D01*
X288830Y528750D01*
X288670Y530860D01*
X288990Y533620D01*
X289470Y535100D01*
X290280Y536580D01*
X291400Y537640D01*
X292530Y537850D01*
X293660Y537430D01*
X294460Y536370D01*
G01X306610Y525150D02*
Y537850D01*
X300650Y528750D01*
X308700D01*
G01X249820Y621850D02*
Y609150D01*
G01X246130Y621850D02*
X253520D01*
G01X258750D02*
X262770Y609150D01*
X266800Y621850D01*
G01X275720Y609150D02*
Y621850D01*
X273790Y619310D01*
G01Y609150D02*
X277650D01*
G01X285620Y619730D02*
X286580Y621000D01*
X287710Y621640D01*
X289000Y621850D01*
X290610Y621430D01*
X291730Y620370D01*
X292050Y619100D01*
X291890Y617830D01*
X291250Y616770D01*
X288030Y614650D01*
X286580Y613170D01*
X285620Y611050D01*
X285300Y609150D01*
X292050D01*
G01X261800Y637850D02*
X265820Y625150D01*
X269850Y637850D01*
G01X275240Y625150D02*
Y637850D01*
X278450D01*
X279740Y637210D01*
X280710Y636370D01*
X281510Y635100D01*
X282150Y633620D01*
X282310Y631500D01*
X282150Y629380D01*
X281510Y627900D01*
X280710Y626630D01*
X279740Y625780D01*
X278450Y625150D01*
X275240D01*
G01X288190Y627050D02*
X289150Y626000D01*
X290280Y625360D01*
X291720Y625150D01*
X293170Y625570D01*
X294300Y626420D01*
X295100Y627900D01*
X295260Y629590D01*
X294940Y631290D01*
X294140Y632350D01*
X293010Y633190D01*
X291890Y633400D01*
X290760Y633190D01*
X289310Y632350D01*
X289790Y637850D01*
X294140D01*
G01X301940Y626630D02*
X303070Y625570D01*
X304350Y625150D01*
X305640Y625570D01*
X306770Y626840D01*
X307570Y628750D01*
X307890Y630650D01*
Y632980D01*
X307570Y634890D01*
X306770Y636580D01*
X305800Y637430D01*
X304670Y637850D01*
X303390Y637430D01*
X302420Y636580D01*
X301780Y635310D01*
X301460Y633620D01*
X301780Y632140D01*
X302580Y630650D01*
X303550Y629810D01*
X304670Y629590D01*
X305960Y630020D01*
X306930Y631080D01*
X307890Y632980D01*
G01X249820Y723850D02*
Y711150D01*
G01X246130Y723850D02*
X253520D01*
G01X258750D02*
X262770Y711150D01*
X266800Y723850D01*
G01X275720Y711150D02*
Y723850D01*
X273790Y721310D01*
G01Y711150D02*
X277650D01*
G01X288670D02*
Y723850D01*
X286740Y721310D01*
G01Y711150D02*
X290600D01*
G01X261800Y739850D02*
X265820Y727150D01*
X269850Y739850D01*
G01X275240Y727150D02*
Y739850D01*
X278450D01*
X279740Y739210D01*
X280710Y738370D01*
X281510Y737100D01*
X282150Y735620D01*
X282310Y733500D01*
X282150Y731380D01*
X281510Y729900D01*
X280710Y728630D01*
X279740Y727780D01*
X278450Y727150D01*
X275240D01*
G01X288190Y729050D02*
X289150Y728000D01*
X290280Y727360D01*
X291720Y727150D01*
X293170Y727570D01*
X294300Y728420D01*
X295100Y729900D01*
X295260Y731590D01*
X294940Y733290D01*
X294140Y734350D01*
X293010Y735190D01*
X291890Y735400D01*
X290760Y735190D01*
X289310Y734350D01*
X289790Y739850D01*
X294140D01*
G01X306610Y727150D02*
Y739850D01*
X300650Y730750D01*
X308700D01*
G01X249820Y825850D02*
Y813150D01*
G01X246130Y825850D02*
X253520D01*
G01X258750D02*
X262770Y813150D01*
X266800Y825850D01*
G01X275720Y813150D02*
Y825850D01*
X273790Y823310D01*
G01Y813150D02*
X277650D01*
G01X288670Y825850D02*
X287390Y825430D01*
X286420Y824370D01*
X285780Y823100D01*
X285300Y821400D01*
X285140Y819500D01*
X285300Y817590D01*
X285780Y815900D01*
X286420Y814630D01*
X287390Y813570D01*
X288670Y813150D01*
X289960Y813570D01*
X290930Y814630D01*
X291570Y815900D01*
X292050Y817590D01*
X292210Y819500D01*
X292050Y821400D01*
X291570Y823100D01*
X290930Y824370D01*
X289960Y825430D01*
X288670Y825850D01*
G01X261800Y841850D02*
X265820Y829150D01*
X269850Y841850D01*
G01X275240Y829150D02*
Y841850D01*
X278450D01*
X279740Y841210D01*
X280710Y840370D01*
X281510Y839100D01*
X282150Y837620D01*
X282310Y835500D01*
X282150Y833380D01*
X281510Y831900D01*
X280710Y830630D01*
X279740Y829780D01*
X278450Y829150D01*
X275240D01*
G01X291720D02*
Y841850D01*
X289790Y839310D01*
G01Y829150D02*
X293650D01*
G01X306610D02*
Y841850D01*
X300650Y832750D01*
X308700D01*
G01X250280Y927850D02*
Y915150D01*
G01X246590Y927850D02*
X253980D01*
G01X259210D02*
X263230Y915150D01*
X267260Y927850D01*
G01X273130Y925730D02*
X274090Y927000D01*
X275220Y927640D01*
X276510Y927850D01*
X278120Y927430D01*
X279240Y926370D01*
X279560Y925100D01*
X279400Y923830D01*
X278760Y922770D01*
X275540Y920650D01*
X274090Y919170D01*
X273130Y917050D01*
X272810Y915150D01*
X279560D01*
G01X261800Y1203860D02*
X265820Y1191160D01*
X269850Y1203860D01*
G01X275240Y1191160D02*
Y1203860D01*
X278450D01*
X279740Y1203220D01*
X280710Y1202380D01*
X281510Y1201110D01*
X282150Y1199630D01*
X282310Y1197510D01*
X282150Y1195390D01*
X281510Y1193910D01*
X280710Y1192640D01*
X279740Y1191790D01*
X278450Y1191160D01*
X275240D01*
G01X293660D02*
Y1203860D01*
X287700Y1194760D01*
X295750D01*
G01X301940Y1192640D02*
X303070Y1191580D01*
X304350Y1191160D01*
X305640Y1191580D01*
X306770Y1192850D01*
X307570Y1194760D01*
X307890Y1196660D01*
Y1198990D01*
X307570Y1200900D01*
X306770Y1202590D01*
X305800Y1203440D01*
X304670Y1203860D01*
X303390Y1203440D01*
X302420Y1202590D01*
X301780Y1201320D01*
X301460Y1199630D01*
X301780Y1198150D01*
X302580Y1196660D01*
X303550Y1195820D01*
X304670Y1195600D01*
X305960Y1196030D01*
X306930Y1197090D01*
X307890Y1198990D01*
G01X250280Y1289860D02*
Y1277160D01*
G01X246590Y1289860D02*
X253980D01*
G01X259210D02*
X263230Y1277160D01*
X267260Y1289860D01*
G01X273450Y1278640D02*
X274580Y1277580D01*
X275860Y1277160D01*
X277150Y1277580D01*
X278280Y1278850D01*
X279080Y1280760D01*
X279400Y1282660D01*
Y1284990D01*
X279080Y1286900D01*
X278280Y1288590D01*
X277310Y1289440D01*
X276180Y1289860D01*
X274900Y1289440D01*
X273930Y1288590D01*
X273290Y1287320D01*
X272970Y1285630D01*
X273290Y1284150D01*
X274090Y1282660D01*
X275060Y1281820D01*
X276180Y1281600D01*
X277470Y1282030D01*
X278440Y1283090D01*
X279400Y1284990D01*
G01X261800Y1305860D02*
X265820Y1293160D01*
X269850Y1305860D01*
G01X275240Y1293160D02*
Y1305860D01*
X278450D01*
X279740Y1305220D01*
X280710Y1304380D01*
X281510Y1303110D01*
X282150Y1301630D01*
X282310Y1299510D01*
X282150Y1297390D01*
X281510Y1295910D01*
X280710Y1294640D01*
X279740Y1293790D01*
X278450Y1293160D01*
X275240D01*
G01X293660D02*
Y1305860D01*
X287700Y1296760D01*
X295750D01*
G01X306610Y1293160D02*
Y1305860D01*
X300650Y1296760D01*
X308700D01*
G01X250280Y1389860D02*
Y1377160D01*
G01X246590Y1389860D02*
X253980D01*
G01X259210D02*
X263230Y1377160D01*
X267260Y1389860D01*
G01X276180Y1377160D02*
X277310Y1377370D01*
X278600Y1378010D01*
X279400Y1379060D01*
X279720Y1380550D01*
X279400Y1382030D01*
X278440Y1383300D01*
X276990Y1383930D01*
X275380D01*
X274420Y1384360D01*
X273610Y1385410D01*
X273290Y1386900D01*
X273770Y1388380D01*
X274900Y1389440D01*
X276180Y1389860D01*
X277470Y1389440D01*
X278600Y1388380D01*
X279080Y1386900D01*
X278760Y1385410D01*
X277950Y1384360D01*
X276990Y1383930D01*
X275380D01*
X273930Y1383300D01*
X272970Y1382030D01*
X272650Y1380550D01*
X272970Y1379060D01*
X273770Y1378010D01*
X275060Y1377370D01*
X276180Y1377160D01*
G01X259800Y1405860D02*
X263820Y1393160D01*
X267850Y1405860D01*
G01X273240Y1393160D02*
Y1405860D01*
X276450D01*
X277740Y1405220D01*
X278710Y1404380D01*
X279510Y1403110D01*
X280150Y1401630D01*
X280310Y1399510D01*
X280150Y1397390D01*
X279510Y1395910D01*
X278710Y1394640D01*
X277740Y1393790D01*
X276450Y1393160D01*
X273240D01*
G01X286190Y1395700D02*
X287150Y1394220D01*
X288440Y1393370D01*
X289890Y1393160D01*
X291170Y1393370D01*
X292460Y1394430D01*
X293260Y1395700D01*
X293420Y1396970D01*
X293100Y1398450D01*
X291980Y1399510D01*
X290850Y1399930D01*
X289400D01*
G01X290850D02*
X291820Y1400570D01*
X292620Y1401630D01*
X292940Y1402900D01*
X292620Y1404170D01*
X291820Y1405220D01*
X290370Y1405860D01*
X288920Y1405650D01*
X287470Y1404800D01*
G01X299940Y1394640D02*
X301070Y1393580D01*
X302350Y1393160D01*
X303640Y1393580D01*
X304770Y1394850D01*
X305570Y1396760D01*
X305890Y1398660D01*
Y1400990D01*
X305570Y1402900D01*
X304770Y1404590D01*
X303800Y1405440D01*
X302670Y1405860D01*
X301390Y1405440D01*
X300420Y1404590D01*
X299780Y1403320D01*
X299460Y1401630D01*
X299780Y1400150D01*
X300580Y1398660D01*
X301550Y1397820D01*
X302670Y1397600D01*
X303960Y1398030D01*
X304930Y1399090D01*
X305890Y1400990D01*
G01X250280Y1491860D02*
Y1479160D01*
G01X246590Y1491860D02*
X253980D01*
G01X259210D02*
X263230Y1479160D01*
X267260Y1491860D01*
G01X275860Y1479160D02*
X276180Y1481910D01*
X276670Y1484240D01*
X277310Y1486360D01*
X278120Y1488680D01*
X279400Y1491860D01*
X272970D01*
G01X259800Y1507860D02*
X263820Y1495160D01*
X267850Y1507860D01*
G01X273240Y1495160D02*
Y1507860D01*
X276450D01*
X277740Y1507220D01*
X278710Y1506380D01*
X279510Y1505110D01*
X280150Y1503630D01*
X280310Y1501510D01*
X280150Y1499390D01*
X279510Y1497910D01*
X278710Y1496640D01*
X277740Y1495790D01*
X276450Y1495160D01*
X273240D01*
G01X286190Y1497700D02*
X287150Y1496220D01*
X288440Y1495370D01*
X289890Y1495160D01*
X291170Y1495370D01*
X292460Y1496430D01*
X293260Y1497700D01*
X293420Y1498970D01*
X293100Y1500450D01*
X291980Y1501510D01*
X290850Y1501930D01*
X289400D01*
G01X290850D02*
X291820Y1502570D01*
X292620Y1503630D01*
X292940Y1504900D01*
X292620Y1506170D01*
X291820Y1507220D01*
X290370Y1507860D01*
X288920Y1507650D01*
X287470Y1506800D01*
G01X304610Y1495160D02*
Y1507860D01*
X298650Y1498760D01*
X306700D01*
G01X250280Y1593860D02*
Y1581160D01*
G01X246590Y1593860D02*
X253980D01*
G01X259210D02*
X263230Y1581160D01*
X267260Y1593860D01*
G01X273130Y1586450D02*
X274250Y1587930D01*
X275220Y1588780D01*
X276510Y1589200D01*
X277630Y1588780D01*
X278440Y1587930D01*
X279080Y1586660D01*
X279240Y1585180D01*
X279080Y1583910D01*
X278440Y1582640D01*
X277470Y1581580D01*
X276350Y1581160D01*
X275060Y1581580D01*
X273930Y1582850D01*
X273290Y1584760D01*
X273130Y1586870D01*
X273450Y1589630D01*
X273930Y1591110D01*
X274740Y1592590D01*
X275860Y1593650D01*
X276990Y1593860D01*
X278120Y1593440D01*
X278920Y1592380D01*
G01X261800Y1609860D02*
X265820Y1597160D01*
X269850Y1609860D01*
G01X275240Y1597160D02*
Y1609860D01*
X278450D01*
X279740Y1609220D01*
X280710Y1608380D01*
X281510Y1607110D01*
X282150Y1605630D01*
X282310Y1603510D01*
X282150Y1601390D01*
X281510Y1599910D01*
X280710Y1598640D01*
X279740Y1597790D01*
X278450Y1597160D01*
X275240D01*
G01X288670Y1607740D02*
X289630Y1609010D01*
X290760Y1609650D01*
X292050Y1609860D01*
X293660Y1609440D01*
X294780Y1608380D01*
X295100Y1607110D01*
X294940Y1605840D01*
X294300Y1604780D01*
X291080Y1602660D01*
X289630Y1601180D01*
X288670Y1599060D01*
X288350Y1597160D01*
X295100D01*
G01X301940Y1598640D02*
X303070Y1597580D01*
X304350Y1597160D01*
X305640Y1597580D01*
X306770Y1598850D01*
X307570Y1600760D01*
X307890Y1602660D01*
Y1604990D01*
X307570Y1606900D01*
X306770Y1608590D01*
X305800Y1609440D01*
X304670Y1609860D01*
X303390Y1609440D01*
X302420Y1608590D01*
X301780Y1607320D01*
X301460Y1605630D01*
X301780Y1604150D01*
X302580Y1602660D01*
X303550Y1601820D01*
X304670Y1601600D01*
X305960Y1602030D01*
X306930Y1603090D01*
X307890Y1604990D01*
G01X250280Y1695860D02*
Y1683160D01*
G01X246590Y1695860D02*
X253980D01*
G01X259210D02*
X263230Y1683160D01*
X267260Y1695860D01*
G01X272650Y1685060D02*
X273610Y1684010D01*
X274740Y1683370D01*
X276180Y1683160D01*
X277630Y1683580D01*
X278760Y1684430D01*
X279560Y1685910D01*
X279720Y1687600D01*
X279400Y1689300D01*
X278600Y1690360D01*
X277470Y1691200D01*
X276350Y1691410D01*
X275220Y1691200D01*
X273770Y1690360D01*
X274250Y1695860D01*
X278600D01*
G01X261800Y1711860D02*
X265820Y1699160D01*
X269850Y1711860D01*
G01X275240Y1699160D02*
Y1711860D01*
X278450D01*
X279740Y1711220D01*
X280710Y1710380D01*
X281510Y1709110D01*
X282150Y1707630D01*
X282310Y1705510D01*
X282150Y1703390D01*
X281510Y1701910D01*
X280710Y1700640D01*
X279740Y1699790D01*
X278450Y1699160D01*
X275240D01*
G01X288670Y1709740D02*
X289630Y1711010D01*
X290760Y1711650D01*
X292050Y1711860D01*
X293660Y1711440D01*
X294780Y1710380D01*
X295100Y1709110D01*
X294940Y1707840D01*
X294300Y1706780D01*
X291080Y1704660D01*
X289630Y1703180D01*
X288670Y1701060D01*
X288350Y1699160D01*
X295100D01*
G01X306610D02*
Y1711860D01*
X300650Y1702760D01*
X308700D01*
G01X250280Y1797860D02*
Y1785160D01*
G01X246590Y1797860D02*
X253980D01*
G01X259210D02*
X263230Y1785160D01*
X267260Y1797860D01*
G01X278120Y1785160D02*
Y1797860D01*
X272160Y1788760D01*
X280210D01*
G01X250280Y1897860D02*
Y1885160D01*
G01X246590Y1897860D02*
X253980D01*
G01X259210D02*
X263230Y1885160D01*
X267260Y1897860D01*
G01X272650Y1887700D02*
X273610Y1886220D01*
X274900Y1885370D01*
X276350Y1885160D01*
X277630Y1885370D01*
X278920Y1886430D01*
X279720Y1887700D01*
X279880Y1888970D01*
X279560Y1890450D01*
X278440Y1891510D01*
X277310Y1891930D01*
X275860D01*
G01X277310D02*
X278280Y1892570D01*
X279080Y1893630D01*
X279400Y1894900D01*
X279080Y1896170D01*
X278280Y1897220D01*
X276830Y1897860D01*
X275380Y1897650D01*
X273930Y1896800D01*
G01X250280Y2001860D02*
Y1989160D01*
G01X246590Y2001860D02*
X253980D01*
G01X259210D02*
X263230Y1989160D01*
X267260Y2001860D01*
G01X276180Y1989160D02*
Y2001860D01*
X274250Y1999320D01*
G01Y1989160D02*
X278110D01*
G01X270610Y-4140D02*
X274630Y-16840D01*
X278660Y-4140D01*
G01X284050Y-16840D02*
Y-4140D01*
X287260D01*
X288550Y-4780D01*
X289520Y-5620D01*
X290320Y-6890D01*
X290960Y-8370D01*
X291120Y-10490D01*
X290960Y-12610D01*
X290320Y-14090D01*
X289520Y-15360D01*
X288550Y-16210D01*
X287260Y-16840D01*
X284050D01*
G01X297000Y-14300D02*
X297960Y-15780D01*
X299250Y-16630D01*
X300700Y-16840D01*
X301980Y-16630D01*
X303270Y-15570D01*
X304070Y-14300D01*
X304230Y-13030D01*
X303910Y-11550D01*
X302790Y-10490D01*
X301660Y-10070D01*
X300210D01*
G01X301660D02*
X302630Y-9430D01*
X303430Y-8370D01*
X303750Y-7100D01*
X303430Y-5830D01*
X302630Y-4780D01*
X301180Y-4140D01*
X299730Y-4350D01*
X298280Y-5200D01*
G01X263800Y231850D02*
X267820Y219150D01*
X271850Y231850D01*
G01X277240Y219150D02*
Y231850D01*
X280450D01*
X281740Y231210D01*
X282710Y230370D01*
X283510Y229100D01*
X284150Y227620D01*
X284310Y225500D01*
X284150Y223380D01*
X283510Y221900D01*
X282710Y220630D01*
X281740Y219780D01*
X280450Y219150D01*
X277240D01*
G01X293400D02*
X293720Y221900D01*
X294210Y224230D01*
X294850Y226350D01*
X295660Y228670D01*
X296940Y231850D01*
X290510D01*
G01X303940Y220630D02*
X305070Y219570D01*
X306350Y219150D01*
X307640Y219570D01*
X308770Y220840D01*
X309570Y222750D01*
X309890Y224650D01*
Y226980D01*
X309570Y228890D01*
X308770Y230580D01*
X307800Y231430D01*
X306670Y231850D01*
X305390Y231430D01*
X304420Y230580D01*
X303780Y229310D01*
X303460Y227620D01*
X303780Y226140D01*
X304580Y224650D01*
X305550Y223810D01*
X306670Y223590D01*
X307960Y224020D01*
X308930Y225080D01*
X309890Y226980D01*
G01X263800Y1813860D02*
X267820Y1801160D01*
X271850Y1813860D01*
G01X277240Y1801160D02*
Y1813860D01*
X280450D01*
X281740Y1813220D01*
X282710Y1812380D01*
X283510Y1811110D01*
X284150Y1809630D01*
X284310Y1807510D01*
X284150Y1805390D01*
X283510Y1803910D01*
X282710Y1802640D01*
X281740Y1801790D01*
X280450Y1801160D01*
X277240D01*
G01X293720D02*
Y1813860D01*
X291790Y1811320D01*
G01Y1801160D02*
X295650D01*
G01X303940Y1802640D02*
X305070Y1801580D01*
X306350Y1801160D01*
X307640Y1801580D01*
X308770Y1802850D01*
X309570Y1804760D01*
X309890Y1806660D01*
Y1808990D01*
X309570Y1810900D01*
X308770Y1812590D01*
X307800Y1813440D01*
X306670Y1813860D01*
X305390Y1813440D01*
X304420Y1812590D01*
X303780Y1811320D01*
X303460Y1809630D01*
X303780Y1808150D01*
X304580Y1806660D01*
X305550Y1805820D01*
X306670Y1805600D01*
X307960Y1806030D01*
X308930Y1807090D01*
X309890Y1808990D01*
G01X274260Y1913860D02*
X278280Y1901160D01*
X282310Y1913860D01*
G01X287700Y1901160D02*
Y1913860D01*
X290910D01*
X292200Y1913220D01*
X293170Y1912380D01*
X293970Y1911110D01*
X294610Y1909630D01*
X294770Y1907510D01*
X294610Y1905390D01*
X293970Y1903910D01*
X293170Y1902640D01*
X292200Y1901790D01*
X290910Y1901160D01*
X287700D01*
G01X301450Y1902640D02*
X302580Y1901580D01*
X303860Y1901160D01*
X305150Y1901580D01*
X306280Y1902850D01*
X307080Y1904760D01*
X307400Y1906660D01*
Y1908990D01*
X307080Y1910900D01*
X306280Y1912590D01*
X305310Y1913440D01*
X304180Y1913860D01*
X302900Y1913440D01*
X301930Y1912590D01*
X301290Y1911320D01*
X300970Y1909630D01*
X301290Y1908150D01*
X302090Y1906660D01*
X303060Y1905820D01*
X304180Y1905600D01*
X305470Y1906030D01*
X306440Y1907090D01*
X307400Y1908990D01*
G01X320990Y2130310D02*
X321790Y2129040D01*
X322760Y2128190D01*
X323880Y2127770D01*
X325170Y2128190D01*
X326140Y2129040D01*
X327100Y2130310D01*
X327420Y2132000D01*
Y2140470D01*
G01X334420Y2136240D02*
Y2130310D01*
X335060Y2128830D01*
X336030Y2127980D01*
X337150Y2127770D01*
X338280Y2127980D01*
X339250Y2128830D01*
X339890Y2130310D01*
G01Y2127770D02*
Y2136240D01*
G01X350100Y2127770D02*
Y2140470D01*
G01X359680Y2123960D02*
X360640Y2123540D01*
X361930Y2123960D01*
X362730Y2124810D01*
X363380Y2125870D01*
X364340Y2129250D01*
X366430Y2136240D01*
G01X361290D02*
X364340Y2129250D01*
G01X385900Y2138350D02*
X386860Y2139620D01*
X387990Y2140260D01*
X389280Y2140470D01*
X390890Y2140050D01*
X392010Y2138990D01*
X392330Y2137720D01*
X392170Y2136450D01*
X391530Y2135390D01*
X388310Y2133270D01*
X386860Y2131790D01*
X385900Y2129670D01*
X385580Y2127770D01*
X392330D01*
G01X401900Y2140470D02*
X400620Y2140050D01*
X399650Y2138990D01*
X399010Y2137720D01*
X398530Y2136020D01*
X398370Y2134120D01*
X398530Y2132210D01*
X399010Y2130520D01*
X399650Y2129250D01*
X400620Y2128190D01*
X401900Y2127770D01*
X403190Y2128190D01*
X404160Y2129250D01*
X404800Y2130520D01*
X405280Y2132210D01*
X405440Y2134120D01*
X405280Y2136020D01*
X404800Y2137720D01*
X404160Y2138990D01*
X403190Y2140050D01*
X401900Y2140470D01*
G01X414850Y2127770D02*
Y2140470D01*
X412920Y2137930D01*
G01Y2127770D02*
X416780D01*
G01X424270Y2130310D02*
X425230Y2128830D01*
X426520Y2127980D01*
X427970Y2127770D01*
X429250Y2127980D01*
X430540Y2129040D01*
X431340Y2130310D01*
X431500Y2131580D01*
X431180Y2133060D01*
X430060Y2134120D01*
X428930Y2134540D01*
X427480D01*
G01X428930D02*
X429900Y2135180D01*
X430700Y2136240D01*
X431020Y2137510D01*
X430700Y2138780D01*
X429900Y2139830D01*
X428450Y2140470D01*
X427000Y2140260D01*
X425550Y2139410D01*
G01X324090Y2150330D02*
Y2163030D01*
G01X330200D02*
X324090Y2155200D01*
G01X331160Y2150330D02*
X326820Y2158800D01*
G01X337360Y2150330D02*
Y2163030D01*
X341220D01*
X342510Y2162390D01*
X343470Y2160910D01*
X343790Y2159220D01*
X343470Y2157530D01*
X342670Y2156260D01*
X341220Y2155620D01*
X337360D01*
G01X350310Y2150330D02*
Y2163030D01*
X354330D01*
X355620Y2162390D01*
X356420Y2161550D01*
X356740Y2159850D01*
X356420Y2158160D01*
X355460Y2157100D01*
X354330Y2156470D01*
X350310D01*
G01X354330D02*
X356740Y2150330D01*
G01X362940D02*
Y2163030D01*
X366150D01*
X367440Y2162390D01*
X368410Y2161550D01*
X369210Y2160280D01*
X369850Y2158800D01*
X370010Y2156680D01*
X369850Y2154560D01*
X369210Y2153080D01*
X368410Y2151810D01*
X367440Y2150960D01*
X366150Y2150330D01*
X362940D01*
G01X374600Y2146100D02*
X384250D01*
G01X392370Y2163030D02*
X391090Y2162610D01*
X390120Y2161550D01*
X389480Y2160280D01*
X389000Y2158580D01*
X388840Y2156680D01*
X389000Y2154770D01*
X389480Y2153080D01*
X390120Y2151810D01*
X391090Y2150750D01*
X392370Y2150330D01*
X393660Y2150750D01*
X394630Y2151810D01*
X395270Y2153080D01*
X395750Y2154770D01*
X395910Y2156680D01*
X395750Y2158580D01*
X395270Y2160280D01*
X394630Y2161550D01*
X393660Y2162610D01*
X392370Y2163030D01*
G01X401790Y2152870D02*
X402750Y2151390D01*
X404040Y2150540D01*
X405490Y2150330D01*
X406770Y2150540D01*
X408060Y2151600D01*
X408860Y2152870D01*
X409020Y2154140D01*
X408700Y2155620D01*
X407580Y2156680D01*
X406450Y2157100D01*
X405000D01*
G01X406450D02*
X407420Y2157740D01*
X408220Y2158800D01*
X408540Y2160070D01*
X408220Y2161340D01*
X407420Y2162390D01*
X405970Y2163030D01*
X404520Y2162820D01*
X403070Y2161970D01*
G01X415380Y2158800D02*
X418270Y2150330D01*
X421170Y2158800D01*
G01X431220Y2150330D02*
Y2163030D01*
X429290Y2160490D01*
G01Y2150330D02*
X433150D01*
G01X342610Y243160D02*
Y255860D01*
X346630D01*
X347920Y255220D01*
X348720Y254380D01*
X349040Y252680D01*
X348720Y250990D01*
X347760Y249930D01*
X346630Y249300D01*
X342610D01*
G01X346630D02*
X349040Y243160D01*
G01X358770D02*
Y255860D01*
X356840Y253320D01*
G01Y243160D02*
X360700D01*
G01X371720Y255860D02*
X370440Y255440D01*
X369470Y254380D01*
X368830Y253110D01*
X368350Y251410D01*
X368190Y249510D01*
X368350Y247600D01*
X368830Y245910D01*
X369470Y244640D01*
X370440Y243580D01*
X371720Y243160D01*
X373010Y243580D01*
X373980Y244640D01*
X374620Y245910D01*
X375100Y247600D01*
X375260Y249510D01*
X375100Y251410D01*
X374620Y253110D01*
X373980Y254380D01*
X373010Y255440D01*
X371720Y255860D01*
G01X384670D02*
X383390Y255440D01*
X382420Y254380D01*
X381780Y253110D01*
X381300Y251410D01*
X381140Y249510D01*
X381300Y247600D01*
X381780Y245910D01*
X382420Y244640D01*
X383390Y243580D01*
X384670Y243160D01*
X385960Y243580D01*
X386930Y244640D01*
X387570Y245910D01*
X388050Y247600D01*
X388210Y249510D01*
X388050Y251410D01*
X387570Y253110D01*
X386930Y254380D01*
X385960Y255440D01*
X384670Y255860D01*
G01X347080Y445160D02*
Y457860D01*
X351100D01*
X352390Y457220D01*
X353190Y456380D01*
X353510Y454680D01*
X353190Y452990D01*
X352230Y451930D01*
X351100Y451300D01*
X347080D01*
G01X351100D02*
X353510Y445160D01*
G01X363240D02*
X364370Y445370D01*
X365660Y446010D01*
X366460Y447060D01*
X366780Y448550D01*
X366460Y450030D01*
X365500Y451300D01*
X364050Y451930D01*
X362440D01*
X361480Y452360D01*
X360670Y453410D01*
X360350Y454900D01*
X360830Y456380D01*
X361960Y457440D01*
X363240Y457860D01*
X364530Y457440D01*
X365660Y456380D01*
X366140Y454900D01*
X365820Y453410D01*
X365010Y452360D01*
X364050Y451930D01*
X362440D01*
X360990Y451300D01*
X360030Y450030D01*
X359710Y448550D01*
X360030Y447060D01*
X360830Y446010D01*
X362120Y445370D01*
X363240Y445160D01*
G01X376190D02*
X377320Y445370D01*
X378610Y446010D01*
X379410Y447060D01*
X379730Y448550D01*
X379410Y450030D01*
X378450Y451300D01*
X377000Y451930D01*
X375390D01*
X374430Y452360D01*
X373620Y453410D01*
X373300Y454900D01*
X373780Y456380D01*
X374910Y457440D01*
X376190Y457860D01*
X377480Y457440D01*
X378610Y456380D01*
X379090Y454900D01*
X378770Y453410D01*
X377960Y452360D01*
X377000Y451930D01*
X375390D01*
X373940Y451300D01*
X372980Y450030D01*
X372660Y448550D01*
X372980Y447060D01*
X373780Y446010D01*
X375070Y445370D01*
X376190Y445160D01*
G01X355080Y649160D02*
Y661860D01*
X359100D01*
X360390Y661220D01*
X361190Y660380D01*
X361510Y658680D01*
X361190Y656990D01*
X360230Y655930D01*
X359100Y655300D01*
X355080D01*
G01X359100D02*
X361510Y649160D01*
G01X370920D02*
X371240Y651910D01*
X371730Y654240D01*
X372370Y656360D01*
X373180Y658680D01*
X374460Y661860D01*
X368030D01*
G01X381140Y654450D02*
X382260Y655930D01*
X383230Y656780D01*
X384520Y657200D01*
X385640Y656780D01*
X386450Y655930D01*
X387090Y654660D01*
X387250Y653180D01*
X387090Y651910D01*
X386450Y650640D01*
X385480Y649580D01*
X384360Y649160D01*
X383070Y649580D01*
X381940Y650850D01*
X381300Y652760D01*
X381140Y654870D01*
X381460Y657630D01*
X381940Y659110D01*
X382750Y660590D01*
X383870Y661650D01*
X385000Y661860D01*
X386130Y661440D01*
X386930Y660380D01*
G01X349080Y851160D02*
Y863860D01*
X353100D01*
X354390Y863220D01*
X355190Y862380D01*
X355510Y860680D01*
X355190Y858990D01*
X354230Y857930D01*
X353100Y857300D01*
X349080D01*
G01X353100D02*
X355510Y851160D01*
G01X362190Y856450D02*
X363310Y857930D01*
X364280Y858780D01*
X365570Y859200D01*
X366690Y858780D01*
X367500Y857930D01*
X368140Y856660D01*
X368300Y855180D01*
X368140Y853910D01*
X367500Y852640D01*
X366530Y851580D01*
X365410Y851160D01*
X364120Y851580D01*
X362990Y852850D01*
X362350Y854760D01*
X362190Y856870D01*
X362510Y859630D01*
X362990Y861110D01*
X363800Y862590D01*
X364920Y863650D01*
X366050Y863860D01*
X367180Y863440D01*
X367980Y862380D01*
G01X380130Y851160D02*
Y863860D01*
X374170Y854760D01*
X382220D01*
G01X347090Y1315160D02*
Y1327860D01*
X351110D01*
X352400Y1327220D01*
X353200Y1326380D01*
X353520Y1324680D01*
X353200Y1322990D01*
X352240Y1321930D01*
X351110Y1321300D01*
X347090D01*
G01X351110D02*
X353520Y1315160D01*
G01X359720Y1317060D02*
X360680Y1316010D01*
X361810Y1315370D01*
X363250Y1315160D01*
X364700Y1315580D01*
X365830Y1316430D01*
X366630Y1317910D01*
X366790Y1319600D01*
X366470Y1321300D01*
X365670Y1322360D01*
X364540Y1323200D01*
X363420Y1323410D01*
X362290Y1323200D01*
X360840Y1322360D01*
X361320Y1327860D01*
X365670D01*
G01X376200Y1315160D02*
X377330Y1315370D01*
X378620Y1316010D01*
X379420Y1317060D01*
X379740Y1318550D01*
X379420Y1320030D01*
X378460Y1321300D01*
X377010Y1321930D01*
X375400D01*
X374440Y1322360D01*
X373630Y1323410D01*
X373310Y1324900D01*
X373790Y1326380D01*
X374920Y1327440D01*
X376200Y1327860D01*
X377490Y1327440D01*
X378620Y1326380D01*
X379100Y1324900D01*
X378780Y1323410D01*
X377970Y1322360D01*
X377010Y1321930D01*
X375400D01*
X373950Y1321300D01*
X372990Y1320030D01*
X372670Y1318550D01*
X372990Y1317060D01*
X373790Y1316010D01*
X375080Y1315370D01*
X376200Y1315160D01*
G01X345090Y1517160D02*
Y1529860D01*
X349110D01*
X350400Y1529220D01*
X351200Y1528380D01*
X351520Y1526680D01*
X351200Y1524990D01*
X350240Y1523930D01*
X349110Y1523300D01*
X345090D01*
G01X349110D02*
X351520Y1517160D01*
G01X363190D02*
Y1529860D01*
X357230Y1520760D01*
X365280D01*
G01X371150Y1522450D02*
X372270Y1523930D01*
X373240Y1524780D01*
X374530Y1525200D01*
X375650Y1524780D01*
X376460Y1523930D01*
X377100Y1522660D01*
X377260Y1521180D01*
X377100Y1519910D01*
X376460Y1518640D01*
X375490Y1517580D01*
X374370Y1517160D01*
X373080Y1517580D01*
X371950Y1518850D01*
X371310Y1520760D01*
X371150Y1522870D01*
X371470Y1525630D01*
X371950Y1527110D01*
X372760Y1528590D01*
X373880Y1529650D01*
X375010Y1529860D01*
X376140Y1529440D01*
X376940Y1528380D01*
G01X345090Y1721160D02*
Y1733860D01*
X349110D01*
X350400Y1733220D01*
X351200Y1732380D01*
X351520Y1730680D01*
X351200Y1728990D01*
X350240Y1727930D01*
X349110Y1727300D01*
X345090D01*
G01X349110D02*
X351520Y1721160D01*
G01X357720Y1723700D02*
X358680Y1722220D01*
X359970Y1721370D01*
X361420Y1721160D01*
X362700Y1721370D01*
X363990Y1722430D01*
X364790Y1723700D01*
X364950Y1724970D01*
X364630Y1726450D01*
X363510Y1727510D01*
X362380Y1727930D01*
X360930D01*
G01X362380D02*
X363350Y1728570D01*
X364150Y1729630D01*
X364470Y1730900D01*
X364150Y1732170D01*
X363350Y1733220D01*
X361900Y1733860D01*
X360450Y1733650D01*
X359000Y1732800D01*
G01X376140Y1721160D02*
Y1733860D01*
X370180Y1724760D01*
X378230D01*
G01X346090Y1926160D02*
Y1938860D01*
X350110D01*
X351400Y1938220D01*
X352200Y1937380D01*
X352520Y1935680D01*
X352200Y1933990D01*
X351240Y1932930D01*
X350110Y1932300D01*
X346090D01*
G01X350110D02*
X352520Y1926160D01*
G01X359200Y1936740D02*
X360160Y1938010D01*
X361290Y1938650D01*
X362580Y1938860D01*
X364190Y1938440D01*
X365310Y1937380D01*
X365630Y1936110D01*
X365470Y1934840D01*
X364830Y1933780D01*
X361610Y1931660D01*
X360160Y1930180D01*
X359200Y1928060D01*
X358880Y1926160D01*
X365630D01*
G01X372150Y1936740D02*
X373110Y1938010D01*
X374240Y1938650D01*
X375530Y1938860D01*
X377140Y1938440D01*
X378260Y1937380D01*
X378580Y1936110D01*
X378420Y1934840D01*
X377780Y1933780D01*
X374560Y1931660D01*
X373110Y1930180D01*
X372150Y1928060D01*
X371830Y1926160D01*
X378580D01*
G01X473080Y343160D02*
Y355860D01*
X477100D01*
X478390Y355220D01*
X479190Y354380D01*
X479510Y352680D01*
X479190Y350990D01*
X478230Y349930D01*
X477100Y349300D01*
X473080D01*
G01X477100D02*
X479510Y343160D01*
G01X486510Y344640D02*
X487640Y343580D01*
X488920Y343160D01*
X490210Y343580D01*
X491340Y344850D01*
X492140Y346760D01*
X492460Y348660D01*
Y350990D01*
X492140Y352900D01*
X491340Y354590D01*
X490370Y355440D01*
X489240Y355860D01*
X487960Y355440D01*
X486990Y354590D01*
X486350Y353320D01*
X486030Y351630D01*
X486350Y350150D01*
X487150Y348660D01*
X488120Y347820D01*
X489240Y347600D01*
X490530Y348030D01*
X491500Y349090D01*
X492460Y350990D01*
G01X504130Y343160D02*
Y355860D01*
X498170Y346760D01*
X506220D01*
G01X477080Y547160D02*
Y559860D01*
X481100D01*
X482390Y559220D01*
X483190Y558380D01*
X483510Y556680D01*
X483190Y554990D01*
X482230Y553930D01*
X481100Y553300D01*
X477080D01*
G01X481100D02*
X483510Y547160D01*
G01X493240D02*
X494370Y547370D01*
X495660Y548010D01*
X496460Y549060D01*
X496780Y550550D01*
X496460Y552030D01*
X495500Y553300D01*
X494050Y553930D01*
X492440D01*
X491480Y554360D01*
X490670Y555410D01*
X490350Y556900D01*
X490830Y558380D01*
X491960Y559440D01*
X493240Y559860D01*
X494530Y559440D01*
X495660Y558380D01*
X496140Y556900D01*
X495820Y555410D01*
X495010Y554360D01*
X494050Y553930D01*
X492440D01*
X490990Y553300D01*
X490030Y552030D01*
X489710Y550550D01*
X490030Y549060D01*
X490830Y548010D01*
X492120Y547370D01*
X493240Y547160D01*
G01X503140Y557740D02*
X504100Y559010D01*
X505230Y559650D01*
X506520Y559860D01*
X508130Y559440D01*
X509250Y558380D01*
X509570Y557110D01*
X509410Y555840D01*
X508770Y554780D01*
X505550Y552660D01*
X504100Y551180D01*
X503140Y549060D01*
X502820Y547160D01*
X509570D01*
G01X477080Y749160D02*
Y761860D01*
X481100D01*
X482390Y761220D01*
X483190Y760380D01*
X483510Y758680D01*
X483190Y756990D01*
X482230Y755930D01*
X481100Y755300D01*
X477080D01*
G01X481100D02*
X483510Y749160D01*
G01X492920D02*
X493240Y751910D01*
X493730Y754240D01*
X494370Y756360D01*
X495180Y758680D01*
X496460Y761860D01*
X490030D01*
G01X506190D02*
X504910Y761440D01*
X503940Y760380D01*
X503300Y759110D01*
X502820Y757410D01*
X502660Y755510D01*
X502820Y753600D01*
X503300Y751910D01*
X503940Y750640D01*
X504910Y749580D01*
X506190Y749160D01*
X507480Y749580D01*
X508450Y750640D01*
X509090Y751910D01*
X509570Y753600D01*
X509730Y755510D01*
X509570Y757410D01*
X509090Y759110D01*
X508450Y760380D01*
X507480Y761440D01*
X506190Y761860D01*
G01X475080Y953160D02*
Y965860D01*
X479100D01*
X480390Y965220D01*
X481190Y964380D01*
X481510Y962680D01*
X481190Y960990D01*
X480230Y959930D01*
X479100Y959300D01*
X475080D01*
G01X479100D02*
X481510Y953160D01*
G01X491240D02*
Y965860D01*
X489310Y963320D01*
G01Y953160D02*
X493170D01*
G01X501140Y958450D02*
X502260Y959930D01*
X503230Y960780D01*
X504520Y961200D01*
X505640Y960780D01*
X506450Y959930D01*
X507090Y958660D01*
X507250Y957180D01*
X507090Y955910D01*
X506450Y954640D01*
X505480Y953580D01*
X504360Y953160D01*
X503070Y953580D01*
X501940Y954850D01*
X501300Y956760D01*
X501140Y958870D01*
X501460Y961630D01*
X501940Y963110D01*
X502750Y964590D01*
X503870Y965650D01*
X505000Y965860D01*
X506130Y965440D01*
X506930Y964380D01*
G01X471090Y1417160D02*
Y1429860D01*
X475110D01*
X476400Y1429220D01*
X477200Y1428380D01*
X477520Y1426680D01*
X477200Y1424990D01*
X476240Y1423930D01*
X475110Y1423300D01*
X471090D01*
G01X475110D02*
X477520Y1417160D01*
G01X483720Y1419060D02*
X484680Y1418010D01*
X485810Y1417370D01*
X487250Y1417160D01*
X488700Y1417580D01*
X489830Y1418430D01*
X490630Y1419910D01*
X490790Y1421600D01*
X490470Y1423300D01*
X489670Y1424360D01*
X488540Y1425200D01*
X487420Y1425410D01*
X486290Y1425200D01*
X484840Y1424360D01*
X485320Y1429860D01*
X489670D01*
G01X497150Y1427740D02*
X498110Y1429010D01*
X499240Y1429650D01*
X500530Y1429860D01*
X502140Y1429440D01*
X503260Y1428380D01*
X503580Y1427110D01*
X503420Y1425840D01*
X502780Y1424780D01*
X499560Y1422660D01*
X498110Y1421180D01*
X497150Y1419060D01*
X496830Y1417160D01*
X503580D01*
G01X473090Y1619160D02*
Y1631860D01*
X477110D01*
X478400Y1631220D01*
X479200Y1630380D01*
X479520Y1628680D01*
X479200Y1626990D01*
X478240Y1625930D01*
X477110Y1625300D01*
X473090D01*
G01X477110D02*
X479520Y1619160D01*
G01X491190D02*
Y1631860D01*
X485230Y1622760D01*
X493280D01*
G01X502200Y1631860D02*
X500920Y1631440D01*
X499950Y1630380D01*
X499310Y1629110D01*
X498830Y1627410D01*
X498670Y1625510D01*
X498830Y1623600D01*
X499310Y1621910D01*
X499950Y1620640D01*
X500920Y1619580D01*
X502200Y1619160D01*
X503490Y1619580D01*
X504460Y1620640D01*
X505100Y1621910D01*
X505580Y1623600D01*
X505740Y1625510D01*
X505580Y1627410D01*
X505100Y1629110D01*
X504460Y1630380D01*
X503490Y1631440D01*
X502200Y1631860D01*
G01X471090Y1823160D02*
Y1835860D01*
X475110D01*
X476400Y1835220D01*
X477200Y1834380D01*
X477520Y1832680D01*
X477200Y1830990D01*
X476240Y1829930D01*
X475110Y1829300D01*
X471090D01*
G01X475110D02*
X477520Y1823160D01*
G01X484200Y1833740D02*
X485160Y1835010D01*
X486290Y1835650D01*
X487580Y1835860D01*
X489190Y1835440D01*
X490310Y1834380D01*
X490630Y1833110D01*
X490470Y1831840D01*
X489830Y1830780D01*
X486610Y1828660D01*
X485160Y1827180D01*
X484200Y1825060D01*
X483880Y1823160D01*
X490630D01*
G01X500200D02*
X501330Y1823370D01*
X502620Y1824010D01*
X503420Y1825060D01*
X503740Y1826550D01*
X503420Y1828030D01*
X502460Y1829300D01*
X501010Y1829930D01*
X499400D01*
X498440Y1830360D01*
X497630Y1831410D01*
X497310Y1832900D01*
X497790Y1834380D01*
X498920Y1835440D01*
X500200Y1835860D01*
X501490Y1835440D01*
X502620Y1834380D01*
X503100Y1832900D01*
X502780Y1831410D01*
X501970Y1830360D01*
X501010Y1829930D01*
X499400D01*
X497950Y1829300D01*
X496990Y1828030D01*
X496670Y1826550D01*
X496990Y1825060D01*
X497790Y1824010D01*
X499080Y1823370D01*
X500200Y1823160D01*
G01X479080Y2027160D02*
Y2039860D01*
X483100D01*
X484390Y2039220D01*
X485190Y2038380D01*
X485510Y2036680D01*
X485190Y2034990D01*
X484230Y2033930D01*
X483100Y2033300D01*
X479080D01*
G01X483100D02*
X485510Y2027160D01*
G01X495240D02*
Y2039860D01*
X493310Y2037320D01*
G01Y2027160D02*
X497170D01*
G01X508190Y2039860D02*
X506910Y2039440D01*
X505940Y2038380D01*
X505300Y2037110D01*
X504820Y2035410D01*
X504660Y2033510D01*
X504820Y2031600D01*
X505300Y2029910D01*
X505940Y2028640D01*
X506910Y2027580D01*
X508190Y2027160D01*
X509480Y2027580D01*
X510450Y2028640D01*
X511090Y2029910D01*
X511570Y2031600D01*
X511730Y2033510D01*
X511570Y2035410D01*
X511090Y2037110D01*
X510450Y2038380D01*
X509480Y2039440D01*
X508190Y2039860D01*
G01X601080Y243160D02*
Y255860D01*
X605100D01*
X606390Y255220D01*
X607190Y254380D01*
X607510Y252680D01*
X607190Y250990D01*
X606230Y249930D01*
X605100Y249300D01*
X601080D01*
G01X605100D02*
X607510Y243160D01*
G01X614510Y244640D02*
X615640Y243580D01*
X616920Y243160D01*
X618210Y243580D01*
X619340Y244850D01*
X620140Y246760D01*
X620460Y248660D01*
Y250990D01*
X620140Y252900D01*
X619340Y254590D01*
X618370Y255440D01*
X617240Y255860D01*
X615960Y255440D01*
X614990Y254590D01*
X614350Y253320D01*
X614030Y251630D01*
X614350Y250150D01*
X615150Y248660D01*
X616120Y247820D01*
X617240Y247600D01*
X618530Y248030D01*
X619500Y249090D01*
X620460Y250990D01*
G01X626660Y245060D02*
X627620Y244010D01*
X628750Y243370D01*
X630190Y243160D01*
X631640Y243580D01*
X632770Y244430D01*
X633570Y245910D01*
X633730Y247600D01*
X633410Y249300D01*
X632610Y250360D01*
X631480Y251200D01*
X630360Y251410D01*
X629230Y251200D01*
X627780Y250360D01*
X628260Y255860D01*
X632610D01*
G01X603080Y445160D02*
Y457860D01*
X607100D01*
X608390Y457220D01*
X609190Y456380D01*
X609510Y454680D01*
X609190Y452990D01*
X608230Y451930D01*
X607100Y451300D01*
X603080D01*
G01X607100D02*
X609510Y445160D01*
G01X619240D02*
X620370Y445370D01*
X621660Y446010D01*
X622460Y447060D01*
X622780Y448550D01*
X622460Y450030D01*
X621500Y451300D01*
X620050Y451930D01*
X618440D01*
X617480Y452360D01*
X616670Y453410D01*
X616350Y454900D01*
X616830Y456380D01*
X617960Y457440D01*
X619240Y457860D01*
X620530Y457440D01*
X621660Y456380D01*
X622140Y454900D01*
X621820Y453410D01*
X621010Y452360D01*
X620050Y451930D01*
X618440D01*
X616990Y451300D01*
X616030Y450030D01*
X615710Y448550D01*
X616030Y447060D01*
X616830Y446010D01*
X618120Y445370D01*
X619240Y445160D01*
G01X628660Y447700D02*
X629620Y446220D01*
X630910Y445370D01*
X632360Y445160D01*
X633640Y445370D01*
X634930Y446430D01*
X635730Y447700D01*
X635890Y448970D01*
X635570Y450450D01*
X634450Y451510D01*
X633320Y451930D01*
X631870D01*
G01X633320D02*
X634290Y452570D01*
X635090Y453630D01*
X635410Y454900D01*
X635090Y456170D01*
X634290Y457220D01*
X632840Y457860D01*
X631390Y457650D01*
X629940Y456800D01*
G01X605080Y649160D02*
Y661860D01*
X609100D01*
X610390Y661220D01*
X611190Y660380D01*
X611510Y658680D01*
X611190Y656990D01*
X610230Y655930D01*
X609100Y655300D01*
X605080D01*
G01X609100D02*
X611510Y649160D01*
G01X620920D02*
X621240Y651910D01*
X621730Y654240D01*
X622370Y656360D01*
X623180Y658680D01*
X624460Y661860D01*
X618030D01*
G01X634190Y649160D02*
Y661860D01*
X632260Y659320D01*
G01Y649160D02*
X636120D01*
G01X601080Y851160D02*
Y863860D01*
X605100D01*
X606390Y863220D01*
X607190Y862380D01*
X607510Y860680D01*
X607190Y858990D01*
X606230Y857930D01*
X605100Y857300D01*
X601080D01*
G01X605100D02*
X607510Y851160D01*
G01X613710Y853060D02*
X614670Y852010D01*
X615800Y851370D01*
X617240Y851160D01*
X618690Y851580D01*
X619820Y852430D01*
X620620Y853910D01*
X620780Y855600D01*
X620460Y857300D01*
X619660Y858360D01*
X618530Y859200D01*
X617410Y859410D01*
X616280Y859200D01*
X614830Y858360D01*
X615310Y863860D01*
X619660D01*
G01X627460Y852640D02*
X628590Y851580D01*
X629870Y851160D01*
X631160Y851580D01*
X632290Y852850D01*
X633090Y854760D01*
X633410Y856660D01*
Y858990D01*
X633090Y860900D01*
X632290Y862590D01*
X631320Y863440D01*
X630190Y863860D01*
X628910Y863440D01*
X627940Y862590D01*
X627300Y861320D01*
X626980Y859630D01*
X627300Y858150D01*
X628100Y856660D01*
X629070Y855820D01*
X630190Y855600D01*
X631480Y856030D01*
X632450Y857090D01*
X633410Y858990D01*
G01X601090Y1315160D02*
Y1327860D01*
X605110D01*
X606400Y1327220D01*
X607200Y1326380D01*
X607520Y1324680D01*
X607200Y1322990D01*
X606240Y1321930D01*
X605110Y1321300D01*
X601090D01*
G01X605110D02*
X607520Y1315160D01*
G01X613720Y1317060D02*
X614680Y1316010D01*
X615810Y1315370D01*
X617250Y1315160D01*
X618700Y1315580D01*
X619830Y1316430D01*
X620630Y1317910D01*
X620790Y1319600D01*
X620470Y1321300D01*
X619670Y1322360D01*
X618540Y1323200D01*
X617420Y1323410D01*
X616290Y1323200D01*
X614840Y1322360D01*
X615320Y1327860D01*
X619670D01*
G01X626670Y1317700D02*
X627630Y1316220D01*
X628920Y1315370D01*
X630370Y1315160D01*
X631650Y1315370D01*
X632940Y1316430D01*
X633740Y1317700D01*
X633900Y1318970D01*
X633580Y1320450D01*
X632460Y1321510D01*
X631330Y1321930D01*
X629880D01*
G01X631330D02*
X632300Y1322570D01*
X633100Y1323630D01*
X633420Y1324900D01*
X633100Y1326170D01*
X632300Y1327220D01*
X630850Y1327860D01*
X629400Y1327650D01*
X627950Y1326800D01*
G01X601090Y1519160D02*
Y1531860D01*
X605110D01*
X606400Y1531220D01*
X607200Y1530380D01*
X607520Y1528680D01*
X607200Y1526990D01*
X606240Y1525930D01*
X605110Y1525300D01*
X601090D01*
G01X605110D02*
X607520Y1519160D01*
G01X619190D02*
Y1531860D01*
X613230Y1522760D01*
X621280D01*
G01X630200Y1519160D02*
Y1531860D01*
X628270Y1529320D01*
G01Y1519160D02*
X632130D01*
G01X601090Y1723160D02*
Y1735860D01*
X605110D01*
X606400Y1735220D01*
X607200Y1734380D01*
X607520Y1732680D01*
X607200Y1730990D01*
X606240Y1729930D01*
X605110Y1729300D01*
X601090D01*
G01X605110D02*
X607520Y1723160D01*
G01X614200Y1733740D02*
X615160Y1735010D01*
X616290Y1735650D01*
X617580Y1735860D01*
X619190Y1735440D01*
X620310Y1734380D01*
X620630Y1733110D01*
X620470Y1731840D01*
X619830Y1730780D01*
X616610Y1728660D01*
X615160Y1727180D01*
X614200Y1725060D01*
X613880Y1723160D01*
X620630D01*
G01X627470Y1724640D02*
X628600Y1723580D01*
X629880Y1723160D01*
X631170Y1723580D01*
X632300Y1724850D01*
X633100Y1726760D01*
X633420Y1728660D01*
Y1730990D01*
X633100Y1732900D01*
X632300Y1734590D01*
X631330Y1735440D01*
X630200Y1735860D01*
X628920Y1735440D01*
X627950Y1734590D01*
X627310Y1733320D01*
X626990Y1731630D01*
X627310Y1730150D01*
X628110Y1728660D01*
X629080Y1727820D01*
X630200Y1727600D01*
X631490Y1728030D01*
X632460Y1729090D01*
X633420Y1730990D01*
G01X603090Y1925160D02*
Y1937860D01*
X607110D01*
X608400Y1937220D01*
X609200Y1936380D01*
X609520Y1934680D01*
X609200Y1932990D01*
X608240Y1931930D01*
X607110Y1931300D01*
X603090D01*
G01X607110D02*
X609520Y1925160D01*
G01X619250D02*
Y1937860D01*
X617320Y1935320D01*
G01Y1925160D02*
X621180D01*
G01X631880D02*
X632200Y1927910D01*
X632690Y1930240D01*
X633330Y1932360D01*
X634140Y1934680D01*
X635420Y1937860D01*
X628990D01*
G01X727080Y343160D02*
Y355860D01*
X731100D01*
X732390Y355220D01*
X733190Y354380D01*
X733510Y352680D01*
X733190Y350990D01*
X732230Y349930D01*
X731100Y349300D01*
X727080D01*
G01X731100D02*
X733510Y343160D01*
G01X743240D02*
X744370Y343370D01*
X745660Y344010D01*
X746460Y345060D01*
X746780Y346550D01*
X746460Y348030D01*
X745500Y349300D01*
X744050Y349930D01*
X742440D01*
X741480Y350360D01*
X740670Y351410D01*
X740350Y352900D01*
X740830Y354380D01*
X741960Y355440D01*
X743240Y355860D01*
X744530Y355440D01*
X745660Y354380D01*
X746140Y352900D01*
X745820Y351410D01*
X745010Y350360D01*
X744050Y349930D01*
X742440D01*
X740990Y349300D01*
X740030Y348030D01*
X739710Y346550D01*
X740030Y345060D01*
X740830Y344010D01*
X742120Y343370D01*
X743240Y343160D01*
G01X753460Y344640D02*
X754590Y343580D01*
X755870Y343160D01*
X757160Y343580D01*
X758290Y344850D01*
X759090Y346760D01*
X759410Y348660D01*
Y350990D01*
X759090Y352900D01*
X758290Y354590D01*
X757320Y355440D01*
X756190Y355860D01*
X754910Y355440D01*
X753940Y354590D01*
X753300Y353320D01*
X752980Y351630D01*
X753300Y350150D01*
X754100Y348660D01*
X755070Y347820D01*
X756190Y347600D01*
X757480Y348030D01*
X758450Y349090D01*
X759410Y350990D01*
G01X731080Y547160D02*
Y559860D01*
X735100D01*
X736390Y559220D01*
X737190Y558380D01*
X737510Y556680D01*
X737190Y554990D01*
X736230Y553930D01*
X735100Y553300D01*
X731080D01*
G01X735100D02*
X737510Y547160D01*
G01X746920D02*
X747240Y549910D01*
X747730Y552240D01*
X748370Y554360D01*
X749180Y556680D01*
X750460Y559860D01*
X744030D01*
G01X759870Y547160D02*
X760190Y549910D01*
X760680Y552240D01*
X761320Y554360D01*
X762130Y556680D01*
X763410Y559860D01*
X756980D01*
G01X729080Y749160D02*
Y761860D01*
X733100D01*
X734390Y761220D01*
X735190Y760380D01*
X735510Y758680D01*
X735190Y756990D01*
X734230Y755930D01*
X733100Y755300D01*
X729080D01*
G01X733100D02*
X735510Y749160D01*
G01X742190Y754450D02*
X743310Y755930D01*
X744280Y756780D01*
X745570Y757200D01*
X746690Y756780D01*
X747500Y755930D01*
X748140Y754660D01*
X748300Y753180D01*
X748140Y751910D01*
X747500Y750640D01*
X746530Y749580D01*
X745410Y749160D01*
X744120Y749580D01*
X742990Y750850D01*
X742350Y752760D01*
X742190Y754870D01*
X742510Y757630D01*
X742990Y759110D01*
X743800Y760590D01*
X744920Y761650D01*
X746050Y761860D01*
X747180Y761440D01*
X747980Y760380D01*
G01X754660Y751060D02*
X755620Y750010D01*
X756750Y749370D01*
X758190Y749160D01*
X759640Y749580D01*
X760770Y750430D01*
X761570Y751910D01*
X761730Y753600D01*
X761410Y755300D01*
X760610Y756360D01*
X759480Y757200D01*
X758360Y757410D01*
X757230Y757200D01*
X755780Y756360D01*
X756260Y761860D01*
X760610D01*
G01X731080Y953160D02*
Y965860D01*
X735100D01*
X736390Y965220D01*
X737190Y964380D01*
X737510Y962680D01*
X737190Y960990D01*
X736230Y959930D01*
X735100Y959300D01*
X731080D01*
G01X735100D02*
X737510Y953160D01*
G01X747240D02*
Y965860D01*
X745310Y963320D01*
G01Y953160D02*
X749170D01*
G01X760190D02*
Y965860D01*
X758260Y963320D01*
G01Y953160D02*
X762120D01*
G01X731090Y1417160D02*
Y1429860D01*
X735110D01*
X736400Y1429220D01*
X737200Y1428380D01*
X737520Y1426680D01*
X737200Y1424990D01*
X736240Y1423930D01*
X735110Y1423300D01*
X731090D01*
G01X735110D02*
X737520Y1417160D01*
G01X749190D02*
Y1429860D01*
X743230Y1420760D01*
X751280D01*
G01X759880Y1417160D02*
X760200Y1419910D01*
X760690Y1422240D01*
X761330Y1424360D01*
X762140Y1426680D01*
X763420Y1429860D01*
X756990D01*
G01X729080Y1621160D02*
Y1633860D01*
X733100D01*
X734390Y1633220D01*
X735190Y1632380D01*
X735510Y1630680D01*
X735190Y1628990D01*
X734230Y1627930D01*
X733100Y1627300D01*
X729080D01*
G01X733100D02*
X735510Y1621160D01*
G01X741710Y1623700D02*
X742670Y1622220D01*
X743960Y1621370D01*
X745410Y1621160D01*
X746690Y1621370D01*
X747980Y1622430D01*
X748780Y1623700D01*
X748940Y1624970D01*
X748620Y1626450D01*
X747500Y1627510D01*
X746370Y1627930D01*
X744920D01*
G01X746370D02*
X747340Y1628570D01*
X748140Y1629630D01*
X748460Y1630900D01*
X748140Y1632170D01*
X747340Y1633220D01*
X745890Y1633860D01*
X744440Y1633650D01*
X742990Y1632800D01*
G01X754660Y1623060D02*
X755620Y1622010D01*
X756750Y1621370D01*
X758190Y1621160D01*
X759640Y1621580D01*
X760770Y1622430D01*
X761570Y1623910D01*
X761730Y1625600D01*
X761410Y1627300D01*
X760610Y1628360D01*
X759480Y1629200D01*
X758360Y1629410D01*
X757230Y1629200D01*
X755780Y1628360D01*
X756260Y1633860D01*
X760610D01*
G01X727090Y1823160D02*
Y1835860D01*
X731110D01*
X732400Y1835220D01*
X733200Y1834380D01*
X733520Y1832680D01*
X733200Y1830990D01*
X732240Y1829930D01*
X731110Y1829300D01*
X727090D01*
G01X731110D02*
X733520Y1823160D01*
G01X740200Y1833740D02*
X741160Y1835010D01*
X742290Y1835650D01*
X743580Y1835860D01*
X745190Y1835440D01*
X746310Y1834380D01*
X746630Y1833110D01*
X746470Y1831840D01*
X745830Y1830780D01*
X742610Y1828660D01*
X741160Y1827180D01*
X740200Y1825060D01*
X739880Y1823160D01*
X746630D01*
G01X752670Y1825700D02*
X753630Y1824220D01*
X754920Y1823370D01*
X756370Y1823160D01*
X757650Y1823370D01*
X758940Y1824430D01*
X759740Y1825700D01*
X759900Y1826970D01*
X759580Y1828450D01*
X758460Y1829510D01*
X757330Y1829930D01*
X755880D01*
G01X757330D02*
X758300Y1830570D01*
X759100Y1831630D01*
X759420Y1832900D01*
X759100Y1834170D01*
X758300Y1835220D01*
X756850Y1835860D01*
X755400Y1835650D01*
X753950Y1834800D01*
G01X735560Y2027160D02*
Y2039860D01*
X739580D01*
X740870Y2039220D01*
X741670Y2038380D01*
X741990Y2036680D01*
X741670Y2034990D01*
X740710Y2033930D01*
X739580Y2033300D01*
X735560D01*
G01X739580D02*
X741990Y2027160D01*
G01X748190Y2029060D02*
X749150Y2028010D01*
X750280Y2027370D01*
X751720Y2027160D01*
X753170Y2027580D01*
X754300Y2028430D01*
X755100Y2029910D01*
X755260Y2031600D01*
X754940Y2033300D01*
X754140Y2034360D01*
X753010Y2035200D01*
X751890Y2035410D01*
X750760Y2035200D01*
X749310Y2034360D01*
X749790Y2039860D01*
X754140D01*
G01X890150Y955000D02*
X896900Y967700D01*
G01X890150D02*
X896900Y955000D01*
G01X902940Y957540D02*
X903900Y956060D01*
X905190Y955210D01*
X906640Y955000D01*
X907920Y955210D01*
X909210Y956270D01*
X910010Y957540D01*
X910170Y958810D01*
X909850Y960290D01*
X908730Y961350D01*
X907600Y961770D01*
X906150D01*
G01X907600D02*
X908570Y962410D01*
X909370Y963470D01*
X909690Y964740D01*
X909370Y966010D01*
X908570Y967060D01*
X907120Y967700D01*
X905670Y967490D01*
X904220Y966640D01*
G01X885500Y2034540D02*
X892250Y2047240D01*
G01X885500D02*
X892250Y2034540D01*
G01X898770Y2045120D02*
X899730Y2046390D01*
X900860Y2047030D01*
X902150Y2047240D01*
X903760Y2046820D01*
X904880Y2045760D01*
X905200Y2044490D01*
X905040Y2043220D01*
X904400Y2042160D01*
X901180Y2040040D01*
X899730Y2038560D01*
X898770Y2036440D01*
X898450Y2034540D01*
X905200D01*
G54D13*
G01X-31300Y919100D02*
Y935100D01*
G01X-39300Y927100D02*
X-23300D01*
G01X102250Y1083390D02*
X132250D01*
Y1023390D01*
X102250D01*
Y1083390D01*
G01X273000Y166090D02*
G03X271750Y167340I-1250J0D01*
G01D02*
G03X270500Y166090I0J-1250D01*
G01D02*
G03X271750Y164840I1250J0D01*
G01D02*
G03X273000Y166090I0J1250D01*
G01Y267690D02*
G03X271750Y268940I-1250J0D01*
G01D02*
G03X270500Y267690I0J-1250D01*
G01D02*
G03X271750Y266440I1250J0D01*
G01D02*
G03X273000Y267690I0J1250D01*
G01Y369290D02*
G03X271750Y370540I-1250J0D01*
G01D02*
G03X270500Y369290I0J-1250D01*
G01D02*
G03X271750Y368040I1250J0D01*
G01D02*
G03X273000Y369290I0J1250D01*
G01Y470890D02*
G03X271750Y472140I-1250J0D01*
G01D02*
G03X270500Y470890I0J-1250D01*
G01D02*
G03X271750Y469640I1250J0D01*
G01D02*
G03X273000Y470890I0J1250D01*
G01Y572490D02*
G03X271750Y573740I-1250J0D01*
G01D02*
G03X270500Y572490I0J-1250D01*
G01D02*
G03X271750Y571240I1250J0D01*
G01D02*
G03X273000Y572490I0J1250D01*
G01Y674090D02*
G03X271750Y675340I-1250J0D01*
G01D02*
G03X270500Y674090I0J-1250D01*
G01D02*
G03X271750Y672840I1250J0D01*
G01D02*
G03X273000Y674090I0J1250D01*
G01Y775690D02*
G03X271750Y776940I-1250J0D01*
G01D02*
G03X270500Y775690I0J-1250D01*
G01D02*
G03X271750Y774440I1250J0D01*
G01D02*
G03X273000Y775690I0J1250D01*
G01Y877290D02*
G03X271750Y878540I-1250J0D01*
G01D02*
G03X270500Y877290I0J-1250D01*
G01D02*
G03X271750Y876040I1250J0D01*
G01D02*
G03X273000Y877290I0J1250D01*
G01Y1239240D02*
G03X271750Y1240490I-1250J0D01*
G01D02*
G03X270500Y1239240I0J-1250D01*
G01D02*
G03X271750Y1237990I1250J0D01*
G01D02*
G03X273000Y1239240I0J1250D01*
G01Y1340840D02*
G03X271750Y1342090I-1250J0D01*
G01D02*
G03X270500Y1340840I0J-1250D01*
G01D02*
G03X271750Y1339590I1250J0D01*
G01D02*
G03X273000Y1340840I0J1250D01*
G01Y1442440D02*
G03X271750Y1443690I-1250J0D01*
G01D02*
G03X270500Y1442440I0J-1250D01*
G01D02*
G03X271750Y1441190I1250J0D01*
G01D02*
G03X273000Y1442440I0J1250D01*
G01Y1544040D02*
G03X271750Y1545290I-1250J0D01*
G01D02*
G03X270500Y1544040I0J-1250D01*
G01D02*
G03X271750Y1542790I1250J0D01*
G01D02*
G03X273000Y1544040I0J1250D01*
G01Y1645640D02*
G03X271750Y1646890I-1250J0D01*
G01D02*
G03X270500Y1645640I0J-1250D01*
G01D02*
G03X271750Y1644390I1250J0D01*
G01D02*
G03X273000Y1645640I0J1250D01*
G01Y1747240D02*
G03X271750Y1748490I-1250J0D01*
G01D02*
G03X270500Y1747240I0J-1250D01*
G01D02*
G03X271750Y1745990I1250J0D01*
G01D02*
G03X273000Y1747240I0J1250D01*
G01Y1848840D02*
G03X271750Y1850090I-1250J0D01*
G01D02*
G03X270500Y1848840I0J-1250D01*
G01D02*
G03X271750Y1847590I1250J0D01*
G01D02*
G03X273000Y1848840I0J1250D01*
G01Y1950440D02*
G03X271750Y1951690I-1250J0D01*
G01D02*
G03X270500Y1950440I0J-1250D01*
G01D02*
G03X271750Y1949190I1250J0D01*
G01D02*
G03X273000Y1950440I0J1250D01*
G01X858500Y929640D02*
G03I-1250J0D01*
G01Y2002790D02*
G03I-1250J0D01*
M02*
