G04 ================== begin FILE IDENTIFICATION RECORD ==================*
G04 Layout Name:  D:/Project/Circuit/ORCAD/KPRD/03v1/pcb/kprd_03v1.brd*
G04 Film Name:    SILK_BOT*
G04 File Format:  Gerber RS274X*
G04 File Origin:  Cadence Allegro 16.6-S012*
G04 Origin Date:  Mon Jul 29 12:29:18 2013*
G04 *
G04 Layer:  MANUFACTURING/AUTOSILK_BOTTOM*
G04 *
G04 Offset:    (0.000 0.000)*
G04 Mirror:    No*
G04 Mode:      Positive*
G04 Rotation:  0*
G04 FullContactRelief:  No*
G04 UndefLineWidth:     0.200*
G04 ================== end FILE IDENTIFICATION RECORD ====================*
%FSLAX34Y34*MOMM*%
%IR0*IPPOS*OFA0.00000B0.00000*MIA0B0*SFA1.00000B1.00000*%
%ADD10C,.2*%
%ADD11C,.5*%
%ADD12C,.15*%
%ADD13C,.25*%
G75*
%LPD*%
G75*
G54D10*
G01X-635000Y-1838320D02*
X-673100D01*
Y-1793880D01*
X-635000D01*
Y-1838320D01*
G01X-719200Y-1835300D02*
Y-1822300D01*
G01X-703200Y-1835300D02*
Y-1822300D01*
G01X-635000Y-1736720D02*
X-673100D01*
Y-1692280D01*
X-635000D01*
Y-1736720D01*
G01X-719200Y-1733700D02*
Y-1720700D01*
G01X-703200Y-1733700D02*
Y-1720700D01*
G01X-635000Y-1635120D02*
X-673100D01*
Y-1590680D01*
X-635000D01*
Y-1635120D01*
G01X-719200Y-1632100D02*
Y-1619100D01*
G01X-703200Y-1632100D02*
Y-1619100D01*
G01X-635000Y-1533520D02*
X-673100D01*
Y-1489080D01*
X-635000D01*
Y-1533520D01*
G01X-719200Y-1530500D02*
Y-1517500D01*
G01X-703200Y-1530500D02*
Y-1517500D01*
G01X-635000Y-1431920D02*
X-673100D01*
Y-1387480D01*
X-635000D01*
Y-1431920D01*
G01X-719200Y-1428900D02*
Y-1415900D01*
G01X-703200Y-1428900D02*
Y-1415900D01*
G01X-635000Y-1330320D02*
X-673100D01*
Y-1285880D01*
X-635000D01*
Y-1330320D01*
G01X-719200Y-1327300D02*
Y-1314300D01*
G01X-703200Y-1327300D02*
Y-1314300D01*
G01X-635000Y-1228720D02*
X-673100D01*
Y-1184280D01*
X-635000D01*
Y-1228720D01*
G01X-719200Y-1225700D02*
Y-1212700D01*
G01X-703200Y-1225700D02*
Y-1212700D01*
G01X-635000Y-1127120D02*
X-673100D01*
Y-1082680D01*
X-635000D01*
Y-1127120D01*
G01X-719200Y-1124100D02*
Y-1111100D01*
G01X-703200Y-1124100D02*
Y-1111100D01*
G01X-635000Y-765170D02*
X-673100D01*
Y-720730D01*
X-635000D01*
Y-765170D01*
G01X-719200Y-762150D02*
Y-749150D01*
G01X-703200Y-762150D02*
Y-749150D01*
G01X-635000Y-663570D02*
X-673100D01*
Y-619130D01*
X-635000D01*
Y-663570D01*
G01X-719200Y-660550D02*
Y-647550D01*
G01X-703200Y-660550D02*
Y-647550D01*
G01X-635000Y-561970D02*
X-673100D01*
Y-517530D01*
X-635000D01*
Y-561970D01*
G01X-719200Y-558950D02*
Y-545950D01*
G01X-703200Y-558950D02*
Y-545950D01*
G01X-635000Y-460370D02*
X-673100D01*
Y-415930D01*
X-635000D01*
Y-460370D01*
G01X-719200Y-457350D02*
Y-444350D01*
G01X-703200Y-457350D02*
Y-444350D01*
G01X-635000Y-358770D02*
X-673100D01*
Y-314330D01*
X-635000D01*
Y-358770D01*
G01X-719200Y-355750D02*
Y-342750D01*
G01X-703200Y-355750D02*
Y-342750D01*
G01X-635000Y-257170D02*
X-673100D01*
Y-212730D01*
X-635000D01*
Y-257170D01*
G01X-719200Y-254150D02*
Y-241150D01*
G01X-703200Y-254150D02*
Y-241150D01*
G01X-635000Y-155570D02*
X-673100D01*
Y-111130D01*
X-635000D01*
Y-155570D01*
G01X-719200Y-152550D02*
Y-139550D01*
G01X-703200Y-152550D02*
Y-139550D01*
G01X-635000Y-53970D02*
X-673100D01*
Y-9530D01*
X-635000D01*
Y-53970D01*
G01X-719200Y-50950D02*
Y-37950D01*
G01X-703200Y-50950D02*
Y-37950D01*
G01X-603400Y-1807600D02*
Y-1824600D01*
G01X-610300Y-1830100D02*
X-602900D01*
G01X-606900Y-1834100D02*
Y-1826100D01*
G01X-590400Y-1811100D02*
X-603400D01*
G01X-590400Y-1813100D02*
X-603400D01*
G01X-590400Y-1815100D02*
X-603400D01*
G01Y-1706000D02*
Y-1723000D01*
G01X-590400Y-1709500D02*
X-603400D01*
G01X-590400Y-1711500D02*
X-603400D01*
G01X-590400Y-1713500D02*
X-603400D01*
G01X-610300Y-1728500D02*
X-602900D01*
G01X-606900Y-1732500D02*
Y-1724500D01*
G01X-603400Y-1604400D02*
Y-1621400D01*
G01X-590400Y-1607900D02*
X-603400D01*
G01X-590400Y-1609900D02*
X-603400D01*
G01X-590400Y-1611900D02*
X-603400D01*
G01X-610300Y-1626900D02*
X-602900D01*
G01X-606900Y-1630900D02*
Y-1622900D01*
G01X-603400Y-1502800D02*
Y-1519800D01*
G01X-610300Y-1525300D02*
X-602900D01*
G01X-606900Y-1529300D02*
Y-1521300D01*
G01X-590400Y-1506300D02*
X-603400D01*
G01X-590400Y-1508300D02*
X-603400D01*
G01X-590400Y-1510300D02*
X-603400D01*
G01Y-1401200D02*
Y-1418200D01*
G01X-590400Y-1404700D02*
X-603400D01*
G01X-590400Y-1406700D02*
X-603400D01*
G01X-590400Y-1408700D02*
X-603400D01*
G01X-610300Y-1423700D02*
X-602900D01*
G01X-606900Y-1427700D02*
Y-1419700D01*
G01X-603400Y-1299600D02*
Y-1316600D01*
G01X-590400Y-1303100D02*
X-603400D01*
G01X-590400Y-1305100D02*
X-603400D01*
G01X-590400Y-1307100D02*
X-603400D01*
G01X-610300Y-1322100D02*
X-602900D01*
G01X-606900Y-1326100D02*
Y-1318100D01*
G01X-603400Y-1198000D02*
Y-1215000D01*
G01X-610300Y-1220500D02*
X-602900D01*
G01X-606900Y-1224500D02*
Y-1216500D01*
G01X-590400Y-1201500D02*
X-603400D01*
G01X-590400Y-1203500D02*
X-603400D01*
G01X-590400Y-1205500D02*
X-603400D01*
G01Y-1096400D02*
Y-1113400D01*
G01X-590400Y-1099900D02*
X-603400D01*
G01X-590400Y-1101900D02*
X-603400D01*
G01X-590400Y-1103900D02*
X-603400D01*
G01X-610300Y-1118900D02*
X-602900D01*
G01X-606900Y-1122900D02*
Y-1114900D01*
G01X-603400Y-734450D02*
Y-751450D01*
G01X-610300Y-756950D02*
X-602900D01*
G01X-606900Y-760950D02*
Y-752950D01*
G01X-590400Y-737950D02*
X-603400D01*
G01X-590400Y-739950D02*
X-603400D01*
G01X-590400Y-741950D02*
X-603400D01*
G01Y-632850D02*
Y-649850D01*
G01X-590400Y-636350D02*
X-603400D01*
G01X-590400Y-638350D02*
X-603400D01*
G01X-590400Y-640350D02*
X-603400D01*
G01X-610300Y-655350D02*
X-602900D01*
G01X-606900Y-659350D02*
Y-651350D01*
G01X-603400Y-531250D02*
Y-548250D01*
G01X-590400Y-534750D02*
X-603400D01*
G01X-590400Y-536750D02*
X-603400D01*
G01X-590400Y-538750D02*
X-603400D01*
G01X-610300Y-553750D02*
X-602900D01*
G01X-606900Y-557750D02*
Y-549750D01*
G01X-603400Y-429650D02*
Y-446650D01*
G01X-610300Y-452150D02*
X-602900D01*
G01X-606900Y-456150D02*
Y-448150D01*
G01X-590400Y-433150D02*
X-603400D01*
G01X-590400Y-435150D02*
X-603400D01*
G01X-590400Y-437150D02*
X-603400D01*
G01Y-328050D02*
Y-345050D01*
G01X-590400Y-331550D02*
X-603400D01*
G01X-590400Y-333550D02*
X-603400D01*
G01X-590400Y-335550D02*
X-603400D01*
G01X-610300Y-350550D02*
X-602900D01*
G01X-606900Y-354550D02*
Y-346550D01*
G01X-603400Y-226450D02*
Y-243450D01*
G01X-590400Y-229950D02*
X-603400D01*
G01X-590400Y-231950D02*
X-603400D01*
G01X-590400Y-233950D02*
X-603400D01*
G01X-610300Y-248950D02*
X-602900D01*
G01X-606900Y-252950D02*
Y-244950D01*
G01X-603400Y-124850D02*
Y-141850D01*
G01X-610300Y-147350D02*
X-602900D01*
G01X-606900Y-151350D02*
Y-143350D01*
G01X-590400Y-128350D02*
X-603400D01*
G01X-590400Y-130350D02*
X-603400D01*
G01X-590400Y-132350D02*
X-603400D01*
G01Y-23250D02*
Y-40250D01*
G01X-590400Y-26750D02*
X-603400D01*
G01X-590400Y-28750D02*
X-603400D01*
G01X-590400Y-30750D02*
X-603400D01*
G01X-610300Y-45750D02*
X-602900D01*
G01X-606900Y-49750D02*
Y-41750D01*
G01X-567450Y-1841300D02*
X-537450D01*
G01X-590400Y-1807600D02*
Y-1824600D01*
G01X-567450Y-1816300D02*
X-537450D01*
G01X-526450Y-1770350D02*
Y-1766350D01*
X-578450D01*
Y-1770350D01*
G01X-526450Y-1798350D02*
Y-1802350D01*
X-578450D01*
Y-1798350D01*
G01X-567450Y-1714700D02*
X-537450D01*
G01X-567450Y-1739700D02*
X-537450D01*
G01X-526450Y-1668750D02*
Y-1664750D01*
X-578450D01*
Y-1668750D01*
G01X-526450Y-1696750D02*
Y-1700750D01*
X-578450D01*
Y-1696750D01*
G01X-590400Y-1706000D02*
Y-1723000D01*
G01X-567450Y-1613100D02*
X-537450D01*
G01X-567450Y-1638100D02*
X-537450D01*
G01X-526450Y-1595150D02*
Y-1599150D01*
X-578450D01*
Y-1595150D01*
G01X-590400Y-1604400D02*
Y-1621400D01*
G01X-567450Y-1536500D02*
X-537450D01*
G01X-526450Y-1567150D02*
Y-1563150D01*
X-578450D01*
Y-1567150D01*
G01X-590400Y-1502800D02*
Y-1519800D01*
G01X-567450Y-1511500D02*
X-537450D01*
G01X-526450Y-1465550D02*
Y-1461550D01*
X-578450D01*
Y-1465550D01*
G01X-526450Y-1493550D02*
Y-1497550D01*
X-578450D01*
Y-1493550D01*
G01X-567450Y-1409900D02*
X-537450D01*
G01X-567450Y-1434900D02*
X-537450D01*
G01X-526450Y-1363950D02*
Y-1359950D01*
X-578450D01*
Y-1363950D01*
G01X-526450Y-1391950D02*
Y-1395950D01*
X-578450D01*
Y-1391950D01*
G01X-590400Y-1401200D02*
Y-1418200D01*
G01X-567450Y-1308300D02*
X-537450D01*
G01X-567450Y-1333300D02*
X-537450D01*
G01X-526450Y-1290350D02*
Y-1294350D01*
X-578450D01*
Y-1290350D01*
G01X-590400Y-1299600D02*
Y-1316600D01*
G01X-567450Y-1231700D02*
X-537450D01*
G01X-526450Y-1262350D02*
Y-1258350D01*
X-578450D01*
Y-1262350D01*
G01X-590400Y-1198000D02*
Y-1215000D01*
G01X-567450Y-1206700D02*
X-537450D01*
G01X-526450Y-1160750D02*
Y-1156750D01*
X-578450D01*
Y-1160750D01*
G01X-526450Y-1188750D02*
Y-1192750D01*
X-578450D01*
Y-1188750D01*
G01X-567450Y-1105100D02*
X-537450D01*
G01X-567450Y-1130100D02*
X-537450D01*
G01X-526450Y-1059150D02*
Y-1055150D01*
X-578450D01*
Y-1059150D01*
G01X-526450Y-1087150D02*
Y-1091150D01*
X-578450D01*
Y-1087150D01*
G01X-590400Y-1096400D02*
Y-1113400D01*
G01X-567450Y-768150D02*
X-537450D01*
G01X-590400Y-734450D02*
Y-751450D01*
G01X-567450Y-743150D02*
X-537450D01*
G01X-526450Y-697200D02*
Y-693200D01*
X-578450D01*
Y-697200D01*
G01X-526450Y-725200D02*
Y-729200D01*
X-578450D01*
Y-725200D01*
G01X-567450Y-641550D02*
X-537450D01*
G01X-567450Y-666550D02*
X-537450D01*
G01X-526450Y-623600D02*
Y-627600D01*
X-578450D01*
Y-623600D01*
G01X-590400Y-632850D02*
Y-649850D01*
G01X-567450Y-539950D02*
X-537450D01*
G01X-567450Y-564950D02*
X-537450D01*
G01X-526450Y-522000D02*
Y-526000D01*
X-578450D01*
Y-522000D01*
G01X-526450Y-595600D02*
Y-591600D01*
X-578450D01*
Y-595600D01*
G01X-590400Y-531250D02*
Y-548250D01*
G01X-567450Y-463350D02*
X-537450D01*
G01X-526450Y-494000D02*
Y-490000D01*
X-578450D01*
Y-494000D01*
G01X-590400Y-429650D02*
Y-446650D01*
G01X-567450Y-438350D02*
X-537450D01*
G01X-526450Y-392400D02*
Y-388400D01*
X-578450D01*
Y-392400D01*
G01X-526450Y-420400D02*
Y-424400D01*
X-578450D01*
Y-420400D01*
G01X-567450Y-336750D02*
X-537450D01*
G01X-567450Y-361750D02*
X-537450D01*
G01X-526450Y-318800D02*
Y-322800D01*
X-578450D01*
Y-318800D01*
G01X-590400Y-328050D02*
Y-345050D01*
G01X-567450Y-235150D02*
X-537450D01*
G01X-567450Y-260150D02*
X-537450D01*
G01X-526450Y-217200D02*
Y-221200D01*
X-578450D01*
Y-217200D01*
G01X-526450Y-290800D02*
Y-286800D01*
X-578450D01*
Y-290800D01*
G01X-590400Y-226450D02*
Y-243450D01*
G01X-567450Y-158550D02*
X-537450D01*
G01X-526450Y-189200D02*
Y-185200D01*
X-578450D01*
Y-189200D01*
G01X-590400Y-124850D02*
Y-141850D01*
G01X-567450Y-133550D02*
X-537450D01*
G01X-526450Y-87600D02*
Y-83600D01*
X-578450D01*
Y-87600D01*
G01X-526450Y-115600D02*
Y-119600D01*
X-578450D01*
Y-115600D01*
G01X-567450Y-31950D02*
X-537450D01*
G01X-567450Y-56950D02*
X-537450D01*
G01X-526450Y-14000D02*
Y-18000D01*
X-578450D01*
Y-14000D01*
G01X-590400Y-23250D02*
Y-40250D01*
G01X-526450Y14000D02*
Y18000D01*
X-578450D01*
Y14000D01*
G01X-452150Y-1790100D02*
X-456150D01*
Y-1842100D01*
X-452150D01*
G01X-476050Y-1729500D02*
Y-1699500D01*
G01X-451050Y-1729500D02*
Y-1699500D01*
G01X-514150Y-1729500D02*
Y-1699500D01*
G01X-489150Y-1729500D02*
Y-1699500D01*
G01X-439450Y-1688500D02*
X-443450D01*
Y-1740500D01*
X-439450D01*
G01X-452150Y-1586900D02*
X-456150D01*
Y-1638900D01*
X-452150D01*
G01X-476050Y-1526300D02*
Y-1496300D01*
G01X-451050Y-1526300D02*
Y-1496300D01*
G01X-514150Y-1526300D02*
Y-1496300D01*
G01X-489150Y-1526300D02*
Y-1496300D01*
G01X-439450Y-1485300D02*
X-443450D01*
Y-1537300D01*
X-439450D01*
G01X-452150Y-1383700D02*
X-456150D01*
Y-1435700D01*
X-452150D01*
G01X-476050Y-1323100D02*
Y-1293100D01*
G01X-451050Y-1323100D02*
Y-1293100D01*
G01X-514150Y-1323100D02*
Y-1293100D01*
G01X-489150Y-1323100D02*
Y-1293100D01*
G01X-439450Y-1282100D02*
X-443450D01*
Y-1334100D01*
X-439450D01*
G01X-452150Y-1180500D02*
X-456150D01*
Y-1232500D01*
X-452150D01*
G01X-476050Y-1119900D02*
Y-1089900D01*
G01X-451050Y-1119900D02*
Y-1089900D01*
G01X-514150Y-1119900D02*
Y-1089900D01*
G01X-489150Y-1119900D02*
Y-1089900D01*
G01X-439450Y-1078900D02*
X-443450D01*
Y-1130900D01*
X-439450D01*
G01X-452150Y-716950D02*
X-456150D01*
Y-768950D01*
X-452150D01*
G01X-476050Y-656350D02*
Y-626350D01*
G01X-451050Y-656350D02*
Y-626350D01*
G01X-514150Y-656350D02*
Y-626350D01*
G01X-489150Y-656350D02*
Y-626350D01*
G01X-439450Y-615350D02*
X-443450D01*
Y-667350D01*
X-439450D01*
G01X-452150Y-513750D02*
X-456150D01*
Y-565750D01*
X-452150D01*
G01X-476050Y-453150D02*
Y-423150D01*
G01X-451050Y-453150D02*
Y-423150D01*
G01X-514150Y-453150D02*
Y-423150D01*
G01X-489150Y-453150D02*
Y-423150D01*
G01X-439450Y-412150D02*
X-443450D01*
Y-464150D01*
X-439450D01*
G01X-452150Y-310550D02*
X-456150D01*
Y-362550D01*
X-452150D01*
G01X-476050Y-249950D02*
Y-219950D01*
G01X-451050Y-249950D02*
Y-219950D01*
G01X-514150Y-249950D02*
Y-219950D01*
G01X-489150Y-249950D02*
Y-219950D01*
G01X-439450Y-208950D02*
X-443450D01*
Y-260950D01*
X-439450D01*
G01X-452150Y-107350D02*
X-456150D01*
Y-159350D01*
X-452150D01*
G01X-476050Y-46750D02*
Y-16750D01*
G01X-451050Y-46750D02*
Y-16750D01*
G01X-514150Y-46750D02*
Y-16750D01*
G01X-489150Y-46750D02*
Y-16750D01*
G01X-439450Y-5750D02*
X-443450D01*
Y-57750D01*
X-439450D01*
G01X-412550Y-1831100D02*
Y-1801100D01*
G01X-387550Y-1831100D02*
Y-1801100D01*
G01X-374450Y-1831100D02*
Y-1801100D01*
G01X-424150Y-1790100D02*
X-420150D01*
Y-1842100D01*
X-424150D01*
G01X-411450Y-1688500D02*
X-407450D01*
Y-1740500D01*
X-411450D01*
G01X-412550Y-1627900D02*
Y-1597900D01*
G01X-387550Y-1627900D02*
Y-1597900D01*
G01X-374450Y-1627900D02*
Y-1597900D01*
G01X-424150Y-1586900D02*
X-420150D01*
Y-1638900D01*
X-424150D01*
G01X-411450Y-1485300D02*
X-407450D01*
Y-1537300D01*
X-411450D01*
G01X-412550Y-1424700D02*
Y-1394700D01*
G01X-387550Y-1424700D02*
Y-1394700D01*
G01X-374450Y-1424700D02*
Y-1394700D01*
G01X-424150Y-1383700D02*
X-420150D01*
Y-1435700D01*
X-424150D01*
G01X-411450Y-1282100D02*
X-407450D01*
Y-1334100D01*
X-411450D01*
G01X-412550Y-1221500D02*
Y-1191500D01*
G01X-387550Y-1221500D02*
Y-1191500D01*
G01X-374450Y-1221500D02*
Y-1191500D01*
G01X-424150Y-1180500D02*
X-420150D01*
Y-1232500D01*
X-424150D01*
G01X-411450Y-1078900D02*
X-407450D01*
Y-1130900D01*
X-411450D01*
G01X-412550Y-757950D02*
Y-727950D01*
G01X-387550Y-757950D02*
Y-727950D01*
G01X-374450Y-757950D02*
Y-727950D01*
G01X-424150Y-716950D02*
X-420150D01*
Y-768950D01*
X-424150D01*
G01X-411450Y-615350D02*
X-407450D01*
Y-667350D01*
X-411450D01*
G01X-412550Y-554750D02*
Y-524750D01*
G01X-387550Y-554750D02*
Y-524750D01*
G01X-374450Y-554750D02*
Y-524750D01*
G01X-424150Y-513750D02*
X-420150D01*
Y-565750D01*
X-424150D01*
G01X-411450Y-412150D02*
X-407450D01*
Y-464150D01*
X-411450D01*
G01X-412550Y-351550D02*
Y-321550D01*
G01X-387550Y-351550D02*
Y-321550D01*
G01X-374450Y-351550D02*
Y-321550D01*
G01X-424150Y-310550D02*
X-420150D01*
Y-362550D01*
X-424150D01*
G01X-411450Y-208950D02*
X-407450D01*
Y-260950D01*
X-411450D01*
G01X-412550Y-148350D02*
Y-118350D01*
G01X-387550Y-148350D02*
Y-118350D01*
G01X-374450Y-148350D02*
Y-118350D01*
G01X-424150Y-107350D02*
X-420150D01*
Y-159350D01*
X-424150D01*
G01X-411450Y-5750D02*
X-407450D01*
Y-57750D01*
X-411450D01*
G01X-349450Y-1831100D02*
Y-1801100D01*
G01X-322200Y-1811100D02*
Y-1821100D01*
G01X-338200Y-1811100D02*
Y-1821100D01*
G01X-322200Y-1709500D02*
Y-1719500D01*
G01X-338200Y-1709500D02*
Y-1719500D01*
G01X-349450Y-1627900D02*
Y-1597900D01*
G01X-322200Y-1607900D02*
Y-1617900D01*
G01X-338200Y-1607900D02*
Y-1617900D01*
G01X-322200Y-1506300D02*
Y-1516300D01*
G01X-338200Y-1506300D02*
Y-1516300D01*
G01X-349450Y-1424700D02*
Y-1394700D01*
G01X-322200Y-1404700D02*
Y-1414700D01*
G01X-338200Y-1404700D02*
Y-1414700D01*
G01X-322200Y-1303100D02*
Y-1313100D01*
G01X-338200Y-1303100D02*
Y-1313100D01*
G01X-349450Y-1221500D02*
Y-1191500D01*
G01X-322200Y-1201500D02*
Y-1211500D01*
G01X-338200Y-1201500D02*
Y-1211500D01*
G01X-322200Y-1099900D02*
Y-1109900D01*
G01X-338200Y-1099900D02*
Y-1109900D01*
G01X-349450Y-757950D02*
Y-727950D01*
G01X-322200Y-737950D02*
Y-747950D01*
G01X-338200Y-737950D02*
Y-747950D01*
G01X-322200Y-636350D02*
Y-646350D01*
G01X-338200Y-636350D02*
Y-646350D01*
G01X-349450Y-554750D02*
Y-524750D01*
G01X-322200Y-534750D02*
Y-544750D01*
G01X-338200Y-534750D02*
Y-544750D01*
G01X-322200Y-433150D02*
Y-443150D01*
G01X-338200Y-433150D02*
Y-443150D01*
G01X-349450Y-351550D02*
Y-321550D01*
G01X-322200Y-331550D02*
Y-341550D01*
G01X-338200Y-331550D02*
Y-341550D01*
G01X-322200Y-229950D02*
Y-239950D01*
G01X-338200Y-229950D02*
Y-239950D01*
G01X-349450Y-148350D02*
Y-118350D01*
G01X-322200Y-128350D02*
Y-138350D01*
G01X-338200Y-128350D02*
Y-138350D01*
G01X-322200Y-26750D02*
Y-36750D01*
G01X-338200Y-26750D02*
Y-36750D01*
G01X-76650Y-1760650D02*
X-86650D01*
Y-1839650D01*
X-76650D01*
G01Y-1557450D02*
X-86650D01*
Y-1636450D01*
X-76650D01*
G01Y-1354250D02*
X-86650D01*
Y-1433250D01*
X-76650D01*
G01Y-1151050D02*
X-86650D01*
Y-1230050D01*
X-76650D01*
G01Y-687500D02*
X-86650D01*
Y-766500D01*
X-76650D01*
G01Y-484300D02*
X-86650D01*
Y-563300D01*
X-76650D01*
G01Y-281100D02*
X-86650D01*
Y-360100D01*
X-76650D01*
G01Y-77900D02*
X-86650D01*
Y-156900D01*
X-76650D01*
G01X-37650Y-1760650D02*
X-27650D01*
Y-1839650D01*
X-37650D01*
G01Y-1557450D02*
X-27650D01*
Y-1636450D01*
X-37650D01*
G01Y-1354250D02*
X-27650D01*
Y-1433250D01*
X-37650D01*
G01Y-1151050D02*
X-27650D01*
Y-1230050D01*
X-37650D01*
G01Y-687500D02*
X-27650D01*
Y-766500D01*
X-37650D01*
G01Y-484300D02*
X-27650D01*
Y-563300D01*
X-37650D01*
G01Y-281100D02*
X-27650D01*
Y-360100D01*
X-37650D01*
G01Y-77900D02*
X-27650D01*
Y-156900D01*
X-37650D01*
G01X37650Y-1668650D02*
X27650D01*
Y-1747650D01*
X37650D01*
G01X76650Y-1668650D02*
X86650D01*
Y-1747650D01*
X76650D01*
G01X37650Y-1465450D02*
X27650D01*
Y-1544450D01*
X37650D01*
G01X76650Y-1465450D02*
X86650D01*
Y-1544450D01*
X76650D01*
G01X37650Y-1262250D02*
X27650D01*
Y-1341250D01*
X37650D01*
G01X76650Y-1262250D02*
X86650D01*
Y-1341250D01*
X76650D01*
G01X37650Y-1059050D02*
X27650D01*
Y-1138050D01*
X37650D01*
G01X76650Y-1059050D02*
X86650D01*
Y-1138050D01*
X76650D01*
G01X37650Y-595500D02*
X27650D01*
Y-674500D01*
X37650D01*
G01X76650Y-595500D02*
X86650D01*
Y-674500D01*
X76650D01*
G01X37650Y-392300D02*
X27650D01*
Y-471300D01*
X37650D01*
G01X76650Y-392300D02*
X86650D01*
Y-471300D01*
X76650D01*
G01X37650Y-189100D02*
X27650D01*
Y-268100D01*
X37650D01*
G01X76650Y-189100D02*
X86650D01*
Y-268100D01*
X76650D01*
G01X37650Y14100D02*
X27650D01*
Y-64900D01*
X37650D01*
G01X76650Y14100D02*
X86650D01*
Y-64900D01*
X76650D01*
G54D11*
G01X-641480Y-1801400D02*
G03I-2495J0D01*
G01Y-1699800D02*
G03I-2495J0D01*
G01Y-1598200D02*
G03I-2495J0D01*
G01Y-1496600D02*
G03I-2495J0D01*
G01Y-1395000D02*
G03I-2495J0D01*
G01Y-1293400D02*
G03I-2495J0D01*
G01Y-1191800D02*
G03I-2495J0D01*
G01Y-1090200D02*
G03I-2495J0D01*
G01Y-728250D02*
G03I-2495J0D01*
G01Y-626650D02*
G03I-2495J0D01*
G01Y-525050D02*
G03I-2495J0D01*
G01Y-423450D02*
G03I-2495J0D01*
G01Y-321850D02*
G03I-2495J0D01*
G01Y-220250D02*
G03I-2495J0D01*
G01Y-118650D02*
G03I-2495J0D01*
G01Y-17050D02*
G03I-2495J0D01*
G54D12*
G01X-727830Y-1834240D02*
Y-1821540D01*
X-731850D01*
X-733140Y-1822180D01*
X-733940Y-1823020D01*
X-734260Y-1824720D01*
X-733940Y-1826410D01*
X-732980Y-1827470D01*
X-731850Y-1828100D01*
X-727830D01*
G01X-731850D02*
X-734260Y-1834240D01*
G01X-741260Y-1832760D02*
X-742390Y-1833820D01*
X-743670Y-1834240D01*
X-744960Y-1833820D01*
X-746090Y-1832550D01*
X-746890Y-1830640D01*
X-747210Y-1828740D01*
Y-1826410D01*
X-746890Y-1824500D01*
X-746090Y-1822810D01*
X-745120Y-1821960D01*
X-743990Y-1821540D01*
X-742710Y-1821960D01*
X-741740Y-1822810D01*
X-741100Y-1824080D01*
X-740780Y-1825770D01*
X-741100Y-1827250D01*
X-741900Y-1828740D01*
X-742870Y-1829580D01*
X-743990Y-1829800D01*
X-745280Y-1829370D01*
X-746250Y-1828310D01*
X-747210Y-1826410D01*
G01X-756940Y-1834240D02*
X-758070Y-1834030D01*
X-759360Y-1833390D01*
X-760160Y-1832340D01*
X-760480Y-1830850D01*
X-760160Y-1829370D01*
X-759200Y-1828100D01*
X-757750Y-1827470D01*
X-756140D01*
X-755180Y-1827040D01*
X-754370Y-1825990D01*
X-754050Y-1824500D01*
X-754530Y-1823020D01*
X-755660Y-1821960D01*
X-756940Y-1821540D01*
X-758230Y-1821960D01*
X-759360Y-1823020D01*
X-759840Y-1824500D01*
X-759520Y-1825990D01*
X-758710Y-1827040D01*
X-757750Y-1827470D01*
X-756140D01*
X-754690Y-1828100D01*
X-753730Y-1829370D01*
X-753410Y-1830850D01*
X-753730Y-1832340D01*
X-754530Y-1833390D01*
X-755820Y-1834030D01*
X-756940Y-1834240D01*
G01X-724590Y-1778600D02*
X-723630Y-1777960D01*
X-722500Y-1777540D01*
X-721220D01*
X-719770Y-1778180D01*
X-718640Y-1779230D01*
X-717840Y-1780500D01*
X-717190Y-1782620D01*
X-717030Y-1784530D01*
X-717360Y-1786430D01*
X-717840Y-1787700D01*
X-718800Y-1788970D01*
X-719930Y-1789820D01*
X-721050Y-1790240D01*
X-722180D01*
X-723310Y-1789820D01*
X-724270Y-1789180D01*
X-725080Y-1788340D01*
G01X-735940Y-1790240D02*
Y-1777540D01*
X-729980Y-1786640D01*
X-738030D01*
G01X-744220Y-1788760D02*
X-745350Y-1789820D01*
X-746630Y-1790240D01*
X-747920Y-1789820D01*
X-749050Y-1788550D01*
X-749850Y-1786640D01*
X-750170Y-1784740D01*
Y-1782410D01*
X-749850Y-1780500D01*
X-749050Y-1778810D01*
X-748080Y-1777960D01*
X-746950Y-1777540D01*
X-745670Y-1777960D01*
X-744700Y-1778810D01*
X-744060Y-1780080D01*
X-743740Y-1781770D01*
X-744060Y-1783250D01*
X-744860Y-1784740D01*
X-745830Y-1785580D01*
X-746950Y-1785800D01*
X-748240Y-1785370D01*
X-749210Y-1784310D01*
X-750170Y-1782410D01*
G01X-724590Y-1676600D02*
X-723630Y-1675960D01*
X-722500Y-1675540D01*
X-721220D01*
X-719770Y-1676180D01*
X-718640Y-1677230D01*
X-717840Y-1678500D01*
X-717190Y-1680620D01*
X-717030Y-1682530D01*
X-717360Y-1684430D01*
X-717840Y-1685700D01*
X-718800Y-1686970D01*
X-719930Y-1687820D01*
X-721050Y-1688240D01*
X-722180D01*
X-723310Y-1687820D01*
X-724270Y-1687180D01*
X-725080Y-1686340D01*
G01X-735940Y-1688240D02*
Y-1675540D01*
X-729980Y-1684640D01*
X-738030D01*
G01X-743900Y-1682950D02*
X-745020Y-1681470D01*
X-745990Y-1680620D01*
X-747280Y-1680200D01*
X-748400Y-1680620D01*
X-749210Y-1681470D01*
X-749850Y-1682740D01*
X-750010Y-1684220D01*
X-749850Y-1685490D01*
X-749210Y-1686760D01*
X-748240Y-1687820D01*
X-747120Y-1688240D01*
X-745830Y-1687820D01*
X-744700Y-1686550D01*
X-744060Y-1684640D01*
X-743900Y-1682530D01*
X-744220Y-1679770D01*
X-744700Y-1678290D01*
X-745510Y-1676810D01*
X-746630Y-1675750D01*
X-747760Y-1675540D01*
X-748890Y-1675960D01*
X-749690Y-1677020D01*
G01X-725830Y-1732240D02*
Y-1719540D01*
X-729850D01*
X-731140Y-1720180D01*
X-731940Y-1721020D01*
X-732260Y-1722720D01*
X-731940Y-1724410D01*
X-730980Y-1725470D01*
X-729850Y-1726100D01*
X-725830D01*
G01X-729850D02*
X-732260Y-1732240D01*
G01X-739260Y-1730760D02*
X-740390Y-1731820D01*
X-741670Y-1732240D01*
X-742960Y-1731820D01*
X-744090Y-1730550D01*
X-744890Y-1728640D01*
X-745210Y-1726740D01*
Y-1724410D01*
X-744890Y-1722500D01*
X-744090Y-1720810D01*
X-743120Y-1719960D01*
X-741990Y-1719540D01*
X-740710Y-1719960D01*
X-739740Y-1720810D01*
X-739100Y-1722080D01*
X-738780Y-1723770D01*
X-739100Y-1725250D01*
X-739900Y-1726740D01*
X-740870Y-1727580D01*
X-741990Y-1727800D01*
X-743280Y-1727370D01*
X-744250Y-1726310D01*
X-745210Y-1724410D01*
G01X-751890Y-1721660D02*
X-752850Y-1720390D01*
X-753980Y-1719750D01*
X-755270Y-1719540D01*
X-756880Y-1719960D01*
X-758000Y-1721020D01*
X-758320Y-1722290D01*
X-758160Y-1723560D01*
X-757520Y-1724620D01*
X-754300Y-1726740D01*
X-752850Y-1728220D01*
X-751890Y-1730340D01*
X-751570Y-1732240D01*
X-758320D01*
G01X-724590Y-1576600D02*
X-723630Y-1575960D01*
X-722500Y-1575540D01*
X-721220D01*
X-719770Y-1576180D01*
X-718640Y-1577230D01*
X-717840Y-1578500D01*
X-717190Y-1580620D01*
X-717030Y-1582530D01*
X-717360Y-1584430D01*
X-717840Y-1585700D01*
X-718800Y-1586970D01*
X-719930Y-1587820D01*
X-721050Y-1588240D01*
X-722180D01*
X-723310Y-1587820D01*
X-724270Y-1587180D01*
X-725080Y-1586340D01*
G01X-735940Y-1588240D02*
Y-1575540D01*
X-729980Y-1584640D01*
X-738030D01*
G01X-743420Y-1585700D02*
X-744380Y-1587180D01*
X-745670Y-1588030D01*
X-747120Y-1588240D01*
X-748400Y-1588030D01*
X-749690Y-1586970D01*
X-750490Y-1585700D01*
X-750650Y-1584430D01*
X-750330Y-1582950D01*
X-749210Y-1581890D01*
X-748080Y-1581470D01*
X-746630D01*
G01X-748080D02*
X-749050Y-1580830D01*
X-749850Y-1579770D01*
X-750170Y-1578500D01*
X-749850Y-1577230D01*
X-749050Y-1576180D01*
X-747600Y-1575540D01*
X-746150Y-1575750D01*
X-744700Y-1576600D01*
G01X-725830Y-1632240D02*
Y-1619540D01*
X-729850D01*
X-731140Y-1620180D01*
X-731940Y-1621020D01*
X-732260Y-1622720D01*
X-731940Y-1624410D01*
X-730980Y-1625470D01*
X-729850Y-1626100D01*
X-725830D01*
G01X-729850D02*
X-732260Y-1632240D01*
G01X-741990D02*
X-743120Y-1632030D01*
X-744410Y-1631390D01*
X-745210Y-1630340D01*
X-745530Y-1628850D01*
X-745210Y-1627370D01*
X-744250Y-1626100D01*
X-742800Y-1625470D01*
X-741190D01*
X-740230Y-1625040D01*
X-739420Y-1623990D01*
X-739100Y-1622500D01*
X-739580Y-1621020D01*
X-740710Y-1619960D01*
X-741990Y-1619540D01*
X-743280Y-1619960D01*
X-744410Y-1621020D01*
X-744890Y-1622500D01*
X-744570Y-1623990D01*
X-743760Y-1625040D01*
X-742800Y-1625470D01*
X-741190D01*
X-739740Y-1626100D01*
X-738780Y-1627370D01*
X-738460Y-1628850D01*
X-738780Y-1630340D01*
X-739580Y-1631390D01*
X-740870Y-1632030D01*
X-741990Y-1632240D01*
G01X-751890Y-1626950D02*
X-753010Y-1625470D01*
X-753980Y-1624620D01*
X-755270Y-1624200D01*
X-756390Y-1624620D01*
X-757200Y-1625470D01*
X-757840Y-1626740D01*
X-758000Y-1628220D01*
X-757840Y-1629490D01*
X-757200Y-1630760D01*
X-756230Y-1631820D01*
X-755110Y-1632240D01*
X-753820Y-1631820D01*
X-752690Y-1630550D01*
X-752050Y-1628640D01*
X-751890Y-1626530D01*
X-752210Y-1623770D01*
X-752690Y-1622290D01*
X-753500Y-1620810D01*
X-754620Y-1619750D01*
X-755750Y-1619540D01*
X-756880Y-1619960D01*
X-757680Y-1621020D01*
G01X-725830Y-1530240D02*
Y-1517540D01*
X-729850D01*
X-731140Y-1518180D01*
X-731940Y-1519020D01*
X-732260Y-1520720D01*
X-731940Y-1522410D01*
X-730980Y-1523470D01*
X-729850Y-1524100D01*
X-725830D01*
G01X-729850D02*
X-732260Y-1530240D01*
G01X-741990D02*
X-743120Y-1530030D01*
X-744410Y-1529390D01*
X-745210Y-1528340D01*
X-745530Y-1526850D01*
X-745210Y-1525370D01*
X-744250Y-1524100D01*
X-742800Y-1523470D01*
X-741190D01*
X-740230Y-1523040D01*
X-739420Y-1521990D01*
X-739100Y-1520500D01*
X-739580Y-1519020D01*
X-740710Y-1517960D01*
X-741990Y-1517540D01*
X-743280Y-1517960D01*
X-744410Y-1519020D01*
X-744890Y-1520500D01*
X-744570Y-1521990D01*
X-743760Y-1523040D01*
X-742800Y-1523470D01*
X-741190D01*
X-739740Y-1524100D01*
X-738780Y-1525370D01*
X-738460Y-1526850D01*
X-738780Y-1528340D01*
X-739580Y-1529390D01*
X-740870Y-1530030D01*
X-741990Y-1530240D01*
G01X-754940Y-1517540D02*
X-753660Y-1517960D01*
X-752690Y-1519020D01*
X-752050Y-1520290D01*
X-751570Y-1521990D01*
X-751410Y-1523890D01*
X-751570Y-1525800D01*
X-752050Y-1527490D01*
X-752690Y-1528760D01*
X-753660Y-1529820D01*
X-754940Y-1530240D01*
X-756230Y-1529820D01*
X-757200Y-1528760D01*
X-757840Y-1527490D01*
X-758320Y-1525800D01*
X-758480Y-1523890D01*
X-758320Y-1521990D01*
X-757840Y-1520290D01*
X-757200Y-1519020D01*
X-756230Y-1517960D01*
X-754940Y-1517540D01*
G01X-724590Y-1472600D02*
X-723630Y-1471960D01*
X-722500Y-1471540D01*
X-721220D01*
X-719770Y-1472180D01*
X-718640Y-1473230D01*
X-717840Y-1474500D01*
X-717190Y-1476620D01*
X-717030Y-1478530D01*
X-717360Y-1480430D01*
X-717840Y-1481700D01*
X-718800Y-1482970D01*
X-719930Y-1483820D01*
X-721050Y-1484240D01*
X-722180D01*
X-723310Y-1483820D01*
X-724270Y-1483180D01*
X-725080Y-1482340D01*
G01X-735940Y-1484240D02*
Y-1471540D01*
X-729980Y-1480640D01*
X-738030D01*
G01X-746950Y-1471540D02*
X-745670Y-1471960D01*
X-744700Y-1473020D01*
X-744060Y-1474290D01*
X-743580Y-1475990D01*
X-743420Y-1477890D01*
X-743580Y-1479800D01*
X-744060Y-1481490D01*
X-744700Y-1482760D01*
X-745670Y-1483820D01*
X-746950Y-1484240D01*
X-748240Y-1483820D01*
X-749210Y-1482760D01*
X-749850Y-1481490D01*
X-750330Y-1479800D01*
X-750490Y-1477890D01*
X-750330Y-1475990D01*
X-749850Y-1474290D01*
X-749210Y-1473020D01*
X-748240Y-1471960D01*
X-746950Y-1471540D01*
G01X-724590Y-1372600D02*
X-723630Y-1371960D01*
X-722500Y-1371540D01*
X-721220D01*
X-719770Y-1372180D01*
X-718640Y-1373230D01*
X-717840Y-1374500D01*
X-717190Y-1376620D01*
X-717030Y-1378530D01*
X-717360Y-1380430D01*
X-717840Y-1381700D01*
X-718800Y-1382970D01*
X-719930Y-1383820D01*
X-721050Y-1384240D01*
X-722180D01*
X-723310Y-1383820D01*
X-724270Y-1383180D01*
X-725080Y-1382340D01*
G01X-730470Y-1381700D02*
X-731430Y-1383180D01*
X-732720Y-1384030D01*
X-734170Y-1384240D01*
X-735450Y-1384030D01*
X-736740Y-1382970D01*
X-737540Y-1381700D01*
X-737700Y-1380430D01*
X-737380Y-1378950D01*
X-736260Y-1377890D01*
X-735130Y-1377470D01*
X-733680D01*
G01X-735130D02*
X-736100Y-1376830D01*
X-736900Y-1375770D01*
X-737220Y-1374500D01*
X-736900Y-1373230D01*
X-736100Y-1372180D01*
X-734650Y-1371540D01*
X-733200Y-1371750D01*
X-731750Y-1372600D01*
G01X-746630Y-1384240D02*
X-746950Y-1381490D01*
X-747440Y-1379160D01*
X-748080Y-1377040D01*
X-748890Y-1374720D01*
X-750170Y-1371540D01*
X-743740D01*
G01X-725830Y-1428240D02*
Y-1415540D01*
X-729850D01*
X-731140Y-1416180D01*
X-731940Y-1417020D01*
X-732260Y-1418720D01*
X-731940Y-1420410D01*
X-730980Y-1421470D01*
X-729850Y-1422100D01*
X-725830D01*
G01X-729850D02*
X-732260Y-1428240D01*
G01X-741670D02*
X-741990Y-1425490D01*
X-742480Y-1423160D01*
X-743120Y-1421040D01*
X-743930Y-1418720D01*
X-745210Y-1415540D01*
X-738780D01*
G01X-756880Y-1428240D02*
Y-1415540D01*
X-750920Y-1424640D01*
X-758970D01*
G01X-724590Y-1270600D02*
X-723630Y-1269960D01*
X-722500Y-1269540D01*
X-721220D01*
X-719770Y-1270180D01*
X-718640Y-1271230D01*
X-717840Y-1272500D01*
X-717190Y-1274620D01*
X-717030Y-1276530D01*
X-717360Y-1278430D01*
X-717840Y-1279700D01*
X-718800Y-1280970D01*
X-719930Y-1281820D01*
X-721050Y-1282240D01*
X-722180D01*
X-723310Y-1281820D01*
X-724270Y-1281180D01*
X-725080Y-1280340D01*
G01X-730470Y-1279700D02*
X-731430Y-1281180D01*
X-732720Y-1282030D01*
X-734170Y-1282240D01*
X-735450Y-1282030D01*
X-736740Y-1280970D01*
X-737540Y-1279700D01*
X-737700Y-1278430D01*
X-737380Y-1276950D01*
X-736260Y-1275890D01*
X-735130Y-1275470D01*
X-733680D01*
G01X-735130D02*
X-736100Y-1274830D01*
X-736900Y-1273770D01*
X-737220Y-1272500D01*
X-736900Y-1271230D01*
X-736100Y-1270180D01*
X-734650Y-1269540D01*
X-733200Y-1269750D01*
X-731750Y-1270600D01*
G01X-748890Y-1282240D02*
Y-1269540D01*
X-742930Y-1278640D01*
X-750980D01*
G01X-725830Y-1326240D02*
Y-1313540D01*
X-729850D01*
X-731140Y-1314180D01*
X-731940Y-1315020D01*
X-732260Y-1316720D01*
X-731940Y-1318410D01*
X-730980Y-1319470D01*
X-729850Y-1320100D01*
X-725830D01*
G01X-729850D02*
X-732260Y-1326240D01*
G01X-738940Y-1320950D02*
X-740060Y-1319470D01*
X-741030Y-1318620D01*
X-742320Y-1318200D01*
X-743440Y-1318620D01*
X-744250Y-1319470D01*
X-744890Y-1320740D01*
X-745050Y-1322220D01*
X-744890Y-1323490D01*
X-744250Y-1324760D01*
X-743280Y-1325820D01*
X-742160Y-1326240D01*
X-740870Y-1325820D01*
X-739740Y-1324550D01*
X-739100Y-1322640D01*
X-738940Y-1320530D01*
X-739260Y-1317770D01*
X-739740Y-1316290D01*
X-740550Y-1314810D01*
X-741670Y-1313750D01*
X-742800Y-1313540D01*
X-743930Y-1313960D01*
X-744730Y-1315020D01*
G01X-754940Y-1326240D02*
X-756070Y-1326030D01*
X-757360Y-1325390D01*
X-758160Y-1324340D01*
X-758480Y-1322850D01*
X-758160Y-1321370D01*
X-757200Y-1320100D01*
X-755750Y-1319470D01*
X-754140D01*
X-753180Y-1319040D01*
X-752370Y-1317990D01*
X-752050Y-1316500D01*
X-752530Y-1315020D01*
X-753660Y-1313960D01*
X-754940Y-1313540D01*
X-756230Y-1313960D01*
X-757360Y-1315020D01*
X-757840Y-1316500D01*
X-757520Y-1317990D01*
X-756710Y-1319040D01*
X-755750Y-1319470D01*
X-754140D01*
X-752690Y-1320100D01*
X-751730Y-1321370D01*
X-751410Y-1322850D01*
X-751730Y-1324340D01*
X-752530Y-1325390D01*
X-753820Y-1326030D01*
X-754940Y-1326240D01*
G01X-725830Y-1224240D02*
Y-1211540D01*
X-729850D01*
X-731140Y-1212180D01*
X-731940Y-1213020D01*
X-732260Y-1214720D01*
X-731940Y-1216410D01*
X-730980Y-1217470D01*
X-729850Y-1218100D01*
X-725830D01*
G01X-729850D02*
X-732260Y-1224240D01*
G01X-738940Y-1218950D02*
X-740060Y-1217470D01*
X-741030Y-1216620D01*
X-742320Y-1216200D01*
X-743440Y-1216620D01*
X-744250Y-1217470D01*
X-744890Y-1218740D01*
X-745050Y-1220220D01*
X-744890Y-1221490D01*
X-744250Y-1222760D01*
X-743280Y-1223820D01*
X-742160Y-1224240D01*
X-740870Y-1223820D01*
X-739740Y-1222550D01*
X-739100Y-1220640D01*
X-738940Y-1218530D01*
X-739260Y-1215770D01*
X-739740Y-1214290D01*
X-740550Y-1212810D01*
X-741670Y-1211750D01*
X-742800Y-1211540D01*
X-743930Y-1211960D01*
X-744730Y-1213020D01*
G01X-751890Y-1213660D02*
X-752850Y-1212390D01*
X-753980Y-1211750D01*
X-755270Y-1211540D01*
X-756880Y-1211960D01*
X-758000Y-1213020D01*
X-758320Y-1214290D01*
X-758160Y-1215560D01*
X-757520Y-1216620D01*
X-754300Y-1218740D01*
X-752850Y-1220220D01*
X-751890Y-1222340D01*
X-751570Y-1224240D01*
X-758320D01*
G01X-724590Y-1168600D02*
X-723630Y-1167960D01*
X-722500Y-1167540D01*
X-721220D01*
X-719770Y-1168180D01*
X-718640Y-1169230D01*
X-717840Y-1170500D01*
X-717190Y-1172620D01*
X-717030Y-1174530D01*
X-717360Y-1176430D01*
X-717840Y-1177700D01*
X-718800Y-1178970D01*
X-719930Y-1179820D01*
X-721050Y-1180240D01*
X-722180D01*
X-723310Y-1179820D01*
X-724270Y-1179180D01*
X-725080Y-1178340D01*
G01X-730470Y-1177700D02*
X-731430Y-1179180D01*
X-732720Y-1180030D01*
X-734170Y-1180240D01*
X-735450Y-1180030D01*
X-736740Y-1178970D01*
X-737540Y-1177700D01*
X-737700Y-1176430D01*
X-737380Y-1174950D01*
X-736260Y-1173890D01*
X-735130Y-1173470D01*
X-733680D01*
G01X-735130D02*
X-736100Y-1172830D01*
X-736900Y-1171770D01*
X-737220Y-1170500D01*
X-736900Y-1169230D01*
X-736100Y-1168180D01*
X-734650Y-1167540D01*
X-733200Y-1167750D01*
X-731750Y-1168600D01*
G01X-746950Y-1180240D02*
Y-1167540D01*
X-745020Y-1170080D01*
G01Y-1180240D02*
X-748880D01*
G01X-725830Y-1122240D02*
Y-1109540D01*
X-729850D01*
X-731140Y-1110180D01*
X-731940Y-1111020D01*
X-732260Y-1112720D01*
X-731940Y-1114410D01*
X-730980Y-1115470D01*
X-729850Y-1116100D01*
X-725830D01*
G01X-729850D02*
X-732260Y-1122240D01*
G01X-741990D02*
Y-1109540D01*
X-740060Y-1112080D01*
G01Y-1122240D02*
X-743920D01*
G01X-751410Y-1119700D02*
X-752370Y-1121180D01*
X-753660Y-1122030D01*
X-755110Y-1122240D01*
X-756390Y-1122030D01*
X-757680Y-1120970D01*
X-758480Y-1119700D01*
X-758640Y-1118430D01*
X-758320Y-1116950D01*
X-757200Y-1115890D01*
X-756070Y-1115470D01*
X-754620D01*
G01X-756070D02*
X-757040Y-1114830D01*
X-757840Y-1113770D01*
X-758160Y-1112500D01*
X-757840Y-1111230D01*
X-757040Y-1110180D01*
X-755590Y-1109540D01*
X-754140Y-1109750D01*
X-752690Y-1110600D01*
G01X-725840Y-760240D02*
Y-747540D01*
X-729860D01*
X-731150Y-748180D01*
X-731950Y-749020D01*
X-732270Y-750720D01*
X-731950Y-752410D01*
X-730990Y-753470D01*
X-729860Y-754100D01*
X-725840D01*
G01X-729860D02*
X-732270Y-760240D01*
G01X-738470Y-758340D02*
X-739430Y-759390D01*
X-740560Y-760030D01*
X-742000Y-760240D01*
X-743450Y-759820D01*
X-744580Y-758970D01*
X-745380Y-757490D01*
X-745540Y-755800D01*
X-745220Y-754100D01*
X-744420Y-753040D01*
X-743290Y-752200D01*
X-742170Y-751990D01*
X-741040Y-752200D01*
X-739590Y-753040D01*
X-740070Y-747540D01*
X-744420D01*
G01X-751900Y-754950D02*
X-753020Y-753470D01*
X-753990Y-752620D01*
X-755280Y-752200D01*
X-756400Y-752620D01*
X-757210Y-753470D01*
X-757850Y-754740D01*
X-758010Y-756220D01*
X-757850Y-757490D01*
X-757210Y-758760D01*
X-756240Y-759820D01*
X-755120Y-760240D01*
X-753830Y-759820D01*
X-752700Y-758550D01*
X-752060Y-756640D01*
X-751900Y-754530D01*
X-752220Y-751770D01*
X-752700Y-750290D01*
X-753510Y-748810D01*
X-754630Y-747750D01*
X-755760Y-747540D01*
X-756890Y-747960D01*
X-757690Y-749020D01*
G01X-724590Y-706590D02*
X-723630Y-705950D01*
X-722500Y-705530D01*
X-721220D01*
X-719770Y-706170D01*
X-718640Y-707220D01*
X-717840Y-708490D01*
X-717190Y-710610D01*
X-717030Y-712520D01*
X-717360Y-714420D01*
X-717840Y-715690D01*
X-718800Y-716960D01*
X-719930Y-717810D01*
X-721050Y-718230D01*
X-722180D01*
X-723310Y-717810D01*
X-724270Y-717170D01*
X-725080Y-716330D01*
G01X-730950Y-707650D02*
X-731910Y-706380D01*
X-733040Y-705740D01*
X-734330Y-705530D01*
X-735940Y-705950D01*
X-737060Y-707010D01*
X-737380Y-708280D01*
X-737220Y-709550D01*
X-736580Y-710610D01*
X-733360Y-712730D01*
X-731910Y-714210D01*
X-730950Y-716330D01*
X-730630Y-718230D01*
X-737380D01*
G01X-743420Y-716330D02*
X-744380Y-717380D01*
X-745510Y-718020D01*
X-746950Y-718230D01*
X-748400Y-717810D01*
X-749530Y-716960D01*
X-750330Y-715480D01*
X-750490Y-713790D01*
X-750170Y-712090D01*
X-749370Y-711030D01*
X-748240Y-710190D01*
X-747120Y-709980D01*
X-745990Y-710190D01*
X-744540Y-711030D01*
X-745020Y-705530D01*
X-749370D01*
G01X-724590Y-604590D02*
X-723630Y-603950D01*
X-722500Y-603530D01*
X-721220D01*
X-719770Y-604170D01*
X-718640Y-605220D01*
X-717840Y-606490D01*
X-717190Y-608610D01*
X-717030Y-610520D01*
X-717360Y-612420D01*
X-717840Y-613690D01*
X-718800Y-614960D01*
X-719930Y-615810D01*
X-721050Y-616230D01*
X-722180D01*
X-723310Y-615810D01*
X-724270Y-615170D01*
X-725080Y-614330D01*
G01X-730950Y-605650D02*
X-731910Y-604380D01*
X-733040Y-603740D01*
X-734330Y-603530D01*
X-735940Y-603950D01*
X-737060Y-605010D01*
X-737380Y-606280D01*
X-737220Y-607550D01*
X-736580Y-608610D01*
X-733360Y-610730D01*
X-731910Y-612210D01*
X-730950Y-614330D01*
X-730630Y-616230D01*
X-737380D01*
G01X-746950D02*
X-748080Y-616020D01*
X-749370Y-615380D01*
X-750170Y-614330D01*
X-750490Y-612840D01*
X-750170Y-611360D01*
X-749210Y-610090D01*
X-747760Y-609460D01*
X-746150D01*
X-745190Y-609030D01*
X-744380Y-607980D01*
X-744060Y-606490D01*
X-744540Y-605010D01*
X-745670Y-603950D01*
X-746950Y-603530D01*
X-748240Y-603950D01*
X-749370Y-605010D01*
X-749850Y-606490D01*
X-749530Y-607980D01*
X-748720Y-609030D01*
X-747760Y-609460D01*
X-746150D01*
X-744700Y-610090D01*
X-743740Y-611360D01*
X-743420Y-612840D01*
X-743740Y-614330D01*
X-744540Y-615380D01*
X-745830Y-616020D01*
X-746950Y-616230D01*
G01X-725840Y-660240D02*
Y-647540D01*
X-729860D01*
X-731150Y-648180D01*
X-731950Y-649020D01*
X-732270Y-650720D01*
X-731950Y-652410D01*
X-730990Y-653470D01*
X-729860Y-654100D01*
X-725840D01*
G01X-729860D02*
X-732270Y-660240D01*
G01X-738470Y-658340D02*
X-739430Y-659390D01*
X-740560Y-660030D01*
X-742000Y-660240D01*
X-743450Y-659820D01*
X-744580Y-658970D01*
X-745380Y-657490D01*
X-745540Y-655800D01*
X-745220Y-654100D01*
X-744420Y-653040D01*
X-743290Y-652200D01*
X-742170Y-651990D01*
X-741040Y-652200D01*
X-739590Y-653040D01*
X-740070Y-647540D01*
X-744420D01*
G01X-754950D02*
X-753670Y-647960D01*
X-752700Y-649020D01*
X-752060Y-650290D01*
X-751580Y-651990D01*
X-751420Y-653890D01*
X-751580Y-655800D01*
X-752060Y-657490D01*
X-752700Y-658760D01*
X-753670Y-659820D01*
X-754950Y-660240D01*
X-756240Y-659820D01*
X-757210Y-658760D01*
X-757850Y-657490D01*
X-758330Y-655800D01*
X-758490Y-653890D01*
X-758330Y-651990D01*
X-757850Y-650290D01*
X-757210Y-649020D01*
X-756240Y-647960D01*
X-754950Y-647540D01*
G01X-725840Y-558240D02*
Y-545540D01*
X-729860D01*
X-731150Y-546180D01*
X-731950Y-547020D01*
X-732270Y-548720D01*
X-731950Y-550410D01*
X-730990Y-551470D01*
X-729860Y-552100D01*
X-725840D01*
G01X-729860D02*
X-732270Y-558240D01*
G01X-743940D02*
Y-545540D01*
X-737980Y-554640D01*
X-746030D01*
G01X-756890Y-558240D02*
Y-545540D01*
X-750930Y-554640D01*
X-758980D01*
G01X-724590Y-502590D02*
X-723630Y-501950D01*
X-722500Y-501530D01*
X-721220D01*
X-719770Y-502170D01*
X-718640Y-503220D01*
X-717840Y-504490D01*
X-717190Y-506610D01*
X-717030Y-508520D01*
X-717360Y-510420D01*
X-717840Y-511690D01*
X-718800Y-512960D01*
X-719930Y-513810D01*
X-721050Y-514230D01*
X-722180D01*
X-723310Y-513810D01*
X-724270Y-513170D01*
X-725080Y-512330D01*
G01X-730950Y-503650D02*
X-731910Y-502380D01*
X-733040Y-501740D01*
X-734330Y-501530D01*
X-735940Y-501950D01*
X-737060Y-503010D01*
X-737380Y-504280D01*
X-737220Y-505550D01*
X-736580Y-506610D01*
X-733360Y-508730D01*
X-731910Y-510210D01*
X-730950Y-512330D01*
X-730630Y-514230D01*
X-737380D01*
G01X-743900Y-503650D02*
X-744860Y-502380D01*
X-745990Y-501740D01*
X-747280Y-501530D01*
X-748890Y-501950D01*
X-750010Y-503010D01*
X-750330Y-504280D01*
X-750170Y-505550D01*
X-749530Y-506610D01*
X-746310Y-508730D01*
X-744860Y-510210D01*
X-743900Y-512330D01*
X-743580Y-514230D01*
X-750330D01*
G01X-725840Y-456240D02*
Y-443540D01*
X-729860D01*
X-731150Y-444180D01*
X-731950Y-445020D01*
X-732270Y-446720D01*
X-731950Y-448410D01*
X-730990Y-449470D01*
X-729860Y-450100D01*
X-725840D01*
G01X-729860D02*
X-732270Y-456240D01*
G01X-738470Y-453700D02*
X-739430Y-455180D01*
X-740720Y-456030D01*
X-742170Y-456240D01*
X-743450Y-456030D01*
X-744740Y-454970D01*
X-745540Y-453700D01*
X-745700Y-452430D01*
X-745380Y-450950D01*
X-744260Y-449890D01*
X-743130Y-449470D01*
X-741680D01*
G01X-743130D02*
X-744100Y-448830D01*
X-744900Y-447770D01*
X-745220Y-446500D01*
X-744900Y-445230D01*
X-744100Y-444180D01*
X-742650Y-443540D01*
X-741200Y-443750D01*
X-739750Y-444600D01*
G01X-754950Y-456240D02*
X-756080Y-456030D01*
X-757370Y-455390D01*
X-758170Y-454340D01*
X-758490Y-452850D01*
X-758170Y-451370D01*
X-757210Y-450100D01*
X-755760Y-449470D01*
X-754150D01*
X-753190Y-449040D01*
X-752380Y-447990D01*
X-752060Y-446500D01*
X-752540Y-445020D01*
X-753670Y-443960D01*
X-754950Y-443540D01*
X-756240Y-443960D01*
X-757370Y-445020D01*
X-757850Y-446500D01*
X-757530Y-447990D01*
X-756720Y-449040D01*
X-755760Y-449470D01*
X-754150D01*
X-752700Y-450100D01*
X-751740Y-451370D01*
X-751420Y-452850D01*
X-751740Y-454340D01*
X-752540Y-455390D01*
X-753830Y-456030D01*
X-754950Y-456240D01*
G01X-724590Y-400590D02*
X-723630Y-399950D01*
X-722500Y-399530D01*
X-721220D01*
X-719770Y-400170D01*
X-718640Y-401220D01*
X-717840Y-402490D01*
X-717190Y-404610D01*
X-717030Y-406520D01*
X-717360Y-408420D01*
X-717840Y-409690D01*
X-718800Y-410960D01*
X-719930Y-411810D01*
X-721050Y-412230D01*
X-722180D01*
X-723310Y-411810D01*
X-724270Y-411170D01*
X-725080Y-410330D01*
G01X-734000Y-412230D02*
Y-399530D01*
X-732070Y-402070D01*
G01Y-412230D02*
X-735930D01*
G01X-744220Y-410750D02*
X-745350Y-411810D01*
X-746630Y-412230D01*
X-747920Y-411810D01*
X-749050Y-410540D01*
X-749850Y-408630D01*
X-750170Y-406730D01*
Y-404400D01*
X-749850Y-402490D01*
X-749050Y-400800D01*
X-748080Y-399950D01*
X-746950Y-399530D01*
X-745670Y-399950D01*
X-744700Y-400800D01*
X-744060Y-402070D01*
X-743740Y-403760D01*
X-744060Y-405240D01*
X-744860Y-406730D01*
X-745830Y-407570D01*
X-746950Y-407790D01*
X-748240Y-407360D01*
X-749210Y-406300D01*
X-750170Y-404400D01*
G01X-724590Y-298590D02*
X-723630Y-297950D01*
X-722500Y-297530D01*
X-721220D01*
X-719770Y-298170D01*
X-718640Y-299220D01*
X-717840Y-300490D01*
X-717190Y-302610D01*
X-717030Y-304520D01*
X-717360Y-306420D01*
X-717840Y-307690D01*
X-718800Y-308960D01*
X-719930Y-309810D01*
X-721050Y-310230D01*
X-722180D01*
X-723310Y-309810D01*
X-724270Y-309170D01*
X-725080Y-308330D01*
G01X-734000Y-310230D02*
Y-297530D01*
X-732070Y-300070D01*
G01Y-310230D02*
X-735930D01*
G01X-743900Y-304940D02*
X-745020Y-303460D01*
X-745990Y-302610D01*
X-747280Y-302190D01*
X-748400Y-302610D01*
X-749210Y-303460D01*
X-749850Y-304730D01*
X-750010Y-306210D01*
X-749850Y-307480D01*
X-749210Y-308750D01*
X-748240Y-309810D01*
X-747120Y-310230D01*
X-745830Y-309810D01*
X-744700Y-308540D01*
X-744060Y-306630D01*
X-743900Y-304520D01*
X-744220Y-301760D01*
X-744700Y-300280D01*
X-745510Y-298800D01*
X-746630Y-297740D01*
X-747760Y-297530D01*
X-748890Y-297950D01*
X-749690Y-299010D01*
G01X-725840Y-354240D02*
Y-341540D01*
X-729860D01*
X-731150Y-342180D01*
X-731950Y-343020D01*
X-732270Y-344720D01*
X-731950Y-346410D01*
X-730990Y-347470D01*
X-729860Y-348100D01*
X-725840D01*
G01X-729860D02*
X-732270Y-354240D01*
G01X-738470Y-351700D02*
X-739430Y-353180D01*
X-740720Y-354030D01*
X-742170Y-354240D01*
X-743450Y-354030D01*
X-744740Y-352970D01*
X-745540Y-351700D01*
X-745700Y-350430D01*
X-745380Y-348950D01*
X-744260Y-347890D01*
X-743130Y-347470D01*
X-741680D01*
G01X-743130D02*
X-744100Y-346830D01*
X-744900Y-345770D01*
X-745220Y-344500D01*
X-744900Y-343230D01*
X-744100Y-342180D01*
X-742650Y-341540D01*
X-741200Y-341750D01*
X-739750Y-342600D01*
G01X-751900Y-343660D02*
X-752860Y-342390D01*
X-753990Y-341750D01*
X-755280Y-341540D01*
X-756890Y-341960D01*
X-758010Y-343020D01*
X-758330Y-344290D01*
X-758170Y-345560D01*
X-757530Y-346620D01*
X-754310Y-348740D01*
X-752860Y-350220D01*
X-751900Y-352340D01*
X-751580Y-354240D01*
X-758330D01*
G01X-725840Y-252240D02*
Y-239540D01*
X-729860D01*
X-731150Y-240180D01*
X-731950Y-241020D01*
X-732270Y-242720D01*
X-731950Y-244410D01*
X-730990Y-245470D01*
X-729860Y-246100D01*
X-725840D01*
G01X-729860D02*
X-732270Y-252240D01*
G01X-738950Y-241660D02*
X-739910Y-240390D01*
X-741040Y-239750D01*
X-742330Y-239540D01*
X-743940Y-239960D01*
X-745060Y-241020D01*
X-745380Y-242290D01*
X-745220Y-243560D01*
X-744580Y-244620D01*
X-741360Y-246740D01*
X-739910Y-248220D01*
X-738950Y-250340D01*
X-738630Y-252240D01*
X-745380D01*
G01X-751900Y-246950D02*
X-753020Y-245470D01*
X-753990Y-244620D01*
X-755280Y-244200D01*
X-756400Y-244620D01*
X-757210Y-245470D01*
X-757850Y-246740D01*
X-758010Y-248220D01*
X-757850Y-249490D01*
X-757210Y-250760D01*
X-756240Y-251820D01*
X-755120Y-252240D01*
X-753830Y-251820D01*
X-752700Y-250550D01*
X-752060Y-248640D01*
X-751900Y-246530D01*
X-752220Y-243770D01*
X-752700Y-242290D01*
X-753510Y-240810D01*
X-754630Y-239750D01*
X-755760Y-239540D01*
X-756890Y-239960D01*
X-757690Y-241020D01*
G01X-724590Y-196590D02*
X-723630Y-195950D01*
X-722500Y-195530D01*
X-721220D01*
X-719770Y-196170D01*
X-718640Y-197220D01*
X-717840Y-198490D01*
X-717190Y-200610D01*
X-717030Y-202520D01*
X-717360Y-204420D01*
X-717840Y-205690D01*
X-718800Y-206960D01*
X-719930Y-207810D01*
X-721050Y-208230D01*
X-722180D01*
X-723310Y-207810D01*
X-724270Y-207170D01*
X-725080Y-206330D01*
G01X-734000Y-208230D02*
Y-195530D01*
X-732070Y-198070D01*
G01Y-208230D02*
X-735930D01*
G01X-743420Y-205690D02*
X-744380Y-207170D01*
X-745670Y-208020D01*
X-747120Y-208230D01*
X-748400Y-208020D01*
X-749690Y-206960D01*
X-750490Y-205690D01*
X-750650Y-204420D01*
X-750330Y-202940D01*
X-749210Y-201880D01*
X-748080Y-201460D01*
X-746630D01*
G01X-748080D02*
X-749050Y-200820D01*
X-749850Y-199760D01*
X-750170Y-198490D01*
X-749850Y-197220D01*
X-749050Y-196170D01*
X-747600Y-195530D01*
X-746150Y-195740D01*
X-744700Y-196590D01*
G01X-725840Y-150240D02*
Y-137540D01*
X-729860D01*
X-731150Y-138180D01*
X-731950Y-139020D01*
X-732270Y-140720D01*
X-731950Y-142410D01*
X-730990Y-143470D01*
X-729860Y-144100D01*
X-725840D01*
G01X-729860D02*
X-732270Y-150240D01*
G01X-738950Y-139660D02*
X-739910Y-138390D01*
X-741040Y-137750D01*
X-742330Y-137540D01*
X-743940Y-137960D01*
X-745060Y-139020D01*
X-745380Y-140290D01*
X-745220Y-141560D01*
X-744580Y-142620D01*
X-741360Y-144740D01*
X-739910Y-146220D01*
X-738950Y-148340D01*
X-738630Y-150240D01*
X-745380D01*
G01X-754950Y-137540D02*
X-753670Y-137960D01*
X-752700Y-139020D01*
X-752060Y-140290D01*
X-751580Y-141990D01*
X-751420Y-143890D01*
X-751580Y-145800D01*
X-752060Y-147490D01*
X-752700Y-148760D01*
X-753670Y-149820D01*
X-754950Y-150240D01*
X-756240Y-149820D01*
X-757210Y-148760D01*
X-757850Y-147490D01*
X-758330Y-145800D01*
X-758490Y-143890D01*
X-758330Y-141990D01*
X-757850Y-140290D01*
X-757210Y-139020D01*
X-756240Y-137960D01*
X-754950Y-137540D01*
G01X-724590Y-94590D02*
X-723630Y-93950D01*
X-722500Y-93530D01*
X-721220D01*
X-719770Y-94170D01*
X-718640Y-95220D01*
X-717840Y-96490D01*
X-717190Y-98610D01*
X-717030Y-100520D01*
X-717360Y-102420D01*
X-717840Y-103690D01*
X-718800Y-104960D01*
X-719930Y-105810D01*
X-721050Y-106230D01*
X-722180D01*
X-723310Y-105810D01*
X-724270Y-105170D01*
X-725080Y-104330D01*
G01X-734000Y-106230D02*
Y-93530D01*
X-732070Y-96070D01*
G01Y-106230D02*
X-735930D01*
G01X-746950Y-93530D02*
X-745670Y-93950D01*
X-744700Y-95010D01*
X-744060Y-96280D01*
X-743580Y-97980D01*
X-743420Y-99880D01*
X-743580Y-101790D01*
X-744060Y-103480D01*
X-744700Y-104750D01*
X-745670Y-105810D01*
X-746950Y-106230D01*
X-748240Y-105810D01*
X-749210Y-104750D01*
X-749850Y-103480D01*
X-750330Y-101790D01*
X-750490Y-99880D01*
X-750330Y-97980D01*
X-749850Y-96280D01*
X-749210Y-95010D01*
X-748240Y-93950D01*
X-746950Y-93530D01*
G01X-726310Y-50240D02*
Y-37540D01*
X-730330D01*
X-731620Y-38180D01*
X-732420Y-39020D01*
X-732740Y-40720D01*
X-732420Y-42410D01*
X-731460Y-43470D01*
X-730330Y-44100D01*
X-726310D01*
G01X-730330D02*
X-732740Y-50240D01*
G01X-742150D02*
X-742470Y-47490D01*
X-742960Y-45160D01*
X-743600Y-43040D01*
X-744410Y-40720D01*
X-745690Y-37540D01*
X-739260D01*
G01X-630550Y-1782240D02*
X-634570Y-1769540D01*
X-638600Y-1782240D01*
G01X-637150Y-1777800D02*
X-632000D01*
G01X-643500Y-1769540D02*
X-647520Y-1782240D01*
X-651550Y-1769540D01*
G01X-660470Y-1782240D02*
Y-1769540D01*
X-658540Y-1772080D01*
G01Y-1782240D02*
X-662400D01*
G01X-670370Y-1776950D02*
X-671490Y-1775470D01*
X-672460Y-1774620D01*
X-673750Y-1774200D01*
X-674870Y-1774620D01*
X-675680Y-1775470D01*
X-676320Y-1776740D01*
X-676480Y-1778220D01*
X-676320Y-1779490D01*
X-675680Y-1780760D01*
X-674710Y-1781820D01*
X-673590Y-1782240D01*
X-672300Y-1781820D01*
X-671170Y-1780550D01*
X-670530Y-1778640D01*
X-670370Y-1776530D01*
X-670690Y-1773770D01*
X-671170Y-1772290D01*
X-671980Y-1770810D01*
X-673100Y-1769750D01*
X-674230Y-1769540D01*
X-675360Y-1769960D01*
X-676160Y-1771020D01*
G01X-698500Y-1788350D02*
Y-1780350D01*
G01X-630550Y-1682240D02*
X-634570Y-1669540D01*
X-638600Y-1682240D01*
G01X-637150Y-1677800D02*
X-632000D01*
G01X-643500Y-1669540D02*
X-647520Y-1682240D01*
X-651550Y-1669540D01*
G01X-660470Y-1682240D02*
Y-1669540D01*
X-658540Y-1672080D01*
G01Y-1682240D02*
X-662400D01*
G01X-669890Y-1680340D02*
X-670850Y-1681390D01*
X-671980Y-1682030D01*
X-673420Y-1682240D01*
X-674870Y-1681820D01*
X-676000Y-1680970D01*
X-676800Y-1679490D01*
X-676960Y-1677800D01*
X-676640Y-1676100D01*
X-675840Y-1675040D01*
X-674710Y-1674200D01*
X-673590Y-1673990D01*
X-672460Y-1674200D01*
X-671010Y-1675040D01*
X-671490Y-1669540D01*
X-675840D01*
G01X-698500Y-1686750D02*
Y-1678750D01*
G01X-630550Y-1582240D02*
X-634570Y-1569540D01*
X-638600Y-1582240D01*
G01X-637150Y-1577800D02*
X-632000D01*
G01X-643500Y-1569540D02*
X-647520Y-1582240D01*
X-651550Y-1569540D01*
G01X-660470Y-1582240D02*
Y-1569540D01*
X-658540Y-1572080D01*
G01Y-1582240D02*
X-662400D01*
G01X-675360D02*
Y-1569540D01*
X-669400Y-1578640D01*
X-677450D01*
G01X-698500Y-1585150D02*
Y-1577150D01*
G01X-630550Y-1480240D02*
X-634570Y-1467540D01*
X-638600Y-1480240D01*
G01X-637150Y-1475800D02*
X-632000D01*
G01X-643500Y-1467540D02*
X-647520Y-1480240D01*
X-651550Y-1467540D01*
G01X-660470Y-1480240D02*
Y-1467540D01*
X-658540Y-1470080D01*
G01Y-1480240D02*
X-662400D01*
G01X-669890Y-1477700D02*
X-670850Y-1479180D01*
X-672140Y-1480030D01*
X-673590Y-1480240D01*
X-674870Y-1480030D01*
X-676160Y-1478970D01*
X-676960Y-1477700D01*
X-677120Y-1476430D01*
X-676800Y-1474950D01*
X-675680Y-1473890D01*
X-674550Y-1473470D01*
X-673100D01*
G01X-674550D02*
X-675520Y-1472830D01*
X-676320Y-1471770D01*
X-676640Y-1470500D01*
X-676320Y-1469230D01*
X-675520Y-1468180D01*
X-674070Y-1467540D01*
X-672620Y-1467750D01*
X-671170Y-1468600D01*
G01X-698500Y-1483550D02*
Y-1475550D01*
G01X-628550Y-1378240D02*
X-632570Y-1365540D01*
X-636600Y-1378240D01*
G01X-635150Y-1373800D02*
X-630000D01*
G01X-641500Y-1365540D02*
X-645520Y-1378240D01*
X-649550Y-1365540D01*
G01X-658470Y-1378240D02*
Y-1365540D01*
X-656540Y-1368080D01*
G01Y-1378240D02*
X-660400D01*
G01X-668370Y-1367660D02*
X-669330Y-1366390D01*
X-670460Y-1365750D01*
X-671750Y-1365540D01*
X-673360Y-1365960D01*
X-674480Y-1367020D01*
X-674800Y-1368290D01*
X-674640Y-1369560D01*
X-674000Y-1370620D01*
X-670780Y-1372740D01*
X-669330Y-1374220D01*
X-668370Y-1376340D01*
X-668050Y-1378240D01*
X-674800D01*
G01X-698500Y-1381950D02*
Y-1373950D01*
G01X-630550Y-1276240D02*
X-634570Y-1263540D01*
X-638600Y-1276240D01*
G01X-637150Y-1271800D02*
X-632000D01*
G01X-643500Y-1263540D02*
X-647520Y-1276240D01*
X-651550Y-1263540D01*
G01X-660470Y-1276240D02*
Y-1263540D01*
X-658540Y-1266080D01*
G01Y-1276240D02*
X-662400D01*
G01X-673420D02*
Y-1263540D01*
X-671490Y-1266080D01*
G01Y-1276240D02*
X-675350D01*
G01X-698500Y-1280350D02*
Y-1272350D01*
G01X-630550Y-1176240D02*
X-634570Y-1163540D01*
X-638600Y-1176240D01*
G01X-637150Y-1171800D02*
X-632000D01*
G01X-643500Y-1163540D02*
X-647520Y-1176240D01*
X-651550Y-1163540D01*
G01X-660470Y-1176240D02*
Y-1163540D01*
X-658540Y-1166080D01*
G01Y-1176240D02*
X-662400D01*
G01X-673420Y-1163540D02*
X-672140Y-1163960D01*
X-671170Y-1165020D01*
X-670530Y-1166290D01*
X-670050Y-1167990D01*
X-669890Y-1169890D01*
X-670050Y-1171800D01*
X-670530Y-1173490D01*
X-671170Y-1174760D01*
X-672140Y-1175820D01*
X-673420Y-1176240D01*
X-674710Y-1175820D01*
X-675680Y-1174760D01*
X-676320Y-1173490D01*
X-676800Y-1171800D01*
X-676960Y-1169890D01*
X-676800Y-1167990D01*
X-676320Y-1166290D01*
X-675680Y-1165020D01*
X-674710Y-1163960D01*
X-673420Y-1163540D01*
G01X-698500Y-1178750D02*
Y-1170750D01*
G01X-637030Y-1076240D02*
X-641050Y-1063540D01*
X-645080Y-1076240D01*
G01X-643630Y-1071800D02*
X-638480D01*
G01X-649980Y-1063540D02*
X-654000Y-1076240D01*
X-658030Y-1063540D01*
G01X-663900Y-1065660D02*
X-664860Y-1064390D01*
X-665990Y-1063750D01*
X-667280Y-1063540D01*
X-668890Y-1063960D01*
X-670010Y-1065020D01*
X-670330Y-1066290D01*
X-670170Y-1067560D01*
X-669530Y-1068620D01*
X-666310Y-1070740D01*
X-664860Y-1072220D01*
X-663900Y-1074340D01*
X-663580Y-1076240D01*
X-670330D01*
G01X-725060Y-1066600D02*
X-724100Y-1065960D01*
X-722970Y-1065540D01*
X-721690D01*
X-720240Y-1066180D01*
X-719110Y-1067230D01*
X-718310Y-1068500D01*
X-717660Y-1070620D01*
X-717500Y-1072530D01*
X-717830Y-1074430D01*
X-718310Y-1075700D01*
X-719270Y-1076970D01*
X-720400Y-1077820D01*
X-721520Y-1078240D01*
X-722650D01*
X-723780Y-1077820D01*
X-724740Y-1077180D01*
X-725550Y-1076340D01*
G01X-734150Y-1078240D02*
X-734470Y-1075490D01*
X-734960Y-1073160D01*
X-735600Y-1071040D01*
X-736410Y-1068720D01*
X-737690Y-1065540D01*
X-731260D01*
G01X-698500Y-1077150D02*
Y-1069150D01*
G01X-637030Y-712230D02*
X-641050Y-699530D01*
X-645080Y-712230D01*
G01X-643630Y-707790D02*
X-638480D01*
G01X-649980Y-699530D02*
X-654000Y-712230D01*
X-658030Y-699530D01*
G01X-664220Y-710750D02*
X-665350Y-711810D01*
X-666630Y-712230D01*
X-667920Y-711810D01*
X-669050Y-710540D01*
X-669850Y-708630D01*
X-670170Y-706730D01*
Y-704400D01*
X-669850Y-702490D01*
X-669050Y-700800D01*
X-668080Y-699950D01*
X-666950Y-699530D01*
X-665670Y-699950D01*
X-664700Y-700800D01*
X-664060Y-702070D01*
X-663740Y-703760D01*
X-664060Y-705240D01*
X-664860Y-706730D01*
X-665830Y-707570D01*
X-666950Y-707790D01*
X-668240Y-707360D01*
X-669210Y-706300D01*
X-670170Y-704400D01*
G01X-698500Y-715200D02*
Y-707200D01*
G01X-637030Y-610230D02*
X-641050Y-597530D01*
X-645080Y-610230D01*
G01X-643630Y-605790D02*
X-638480D01*
G01X-649980Y-597530D02*
X-654000Y-610230D01*
X-658030Y-597530D01*
G01X-666950Y-610230D02*
X-668080Y-610020D01*
X-669370Y-609380D01*
X-670170Y-608330D01*
X-670490Y-606840D01*
X-670170Y-605360D01*
X-669210Y-604090D01*
X-667760Y-603460D01*
X-666150D01*
X-665190Y-603030D01*
X-664380Y-601980D01*
X-664060Y-600490D01*
X-664540Y-599010D01*
X-665670Y-597950D01*
X-666950Y-597530D01*
X-668240Y-597950D01*
X-669370Y-599010D01*
X-669850Y-600490D01*
X-669530Y-601980D01*
X-668720Y-603030D01*
X-667760Y-603460D01*
X-666150D01*
X-664700Y-604090D01*
X-663740Y-605360D01*
X-663420Y-606840D01*
X-663740Y-608330D01*
X-664540Y-609380D01*
X-665830Y-610020D01*
X-666950Y-610230D01*
G01X-698500Y-613600D02*
Y-605600D01*
G01X-637030Y-508230D02*
X-641050Y-495530D01*
X-645080Y-508230D01*
G01X-643630Y-503790D02*
X-638480D01*
G01X-649980Y-495530D02*
X-654000Y-508230D01*
X-658030Y-495530D01*
G01X-666630Y-508230D02*
X-666950Y-505480D01*
X-667440Y-503150D01*
X-668080Y-501030D01*
X-668890Y-498710D01*
X-670170Y-495530D01*
X-663740D01*
G01X-698500Y-512000D02*
Y-504000D01*
G01X-637030Y-406230D02*
X-641050Y-393530D01*
X-645080Y-406230D01*
G01X-643630Y-401790D02*
X-638480D01*
G01X-649980Y-393530D02*
X-654000Y-406230D01*
X-658030Y-393530D01*
G01X-663900Y-400940D02*
X-665020Y-399460D01*
X-665990Y-398610D01*
X-667280Y-398190D01*
X-668400Y-398610D01*
X-669210Y-399460D01*
X-669850Y-400730D01*
X-670010Y-402210D01*
X-669850Y-403480D01*
X-669210Y-404750D01*
X-668240Y-405810D01*
X-667120Y-406230D01*
X-665830Y-405810D01*
X-664700Y-404540D01*
X-664060Y-402630D01*
X-663900Y-400520D01*
X-664220Y-397760D01*
X-664700Y-396280D01*
X-665510Y-394800D01*
X-666630Y-393740D01*
X-667760Y-393530D01*
X-668890Y-393950D01*
X-669690Y-395010D01*
G01X-698500Y-410400D02*
Y-402400D01*
G01X-637030Y-304230D02*
X-641050Y-291530D01*
X-645080Y-304230D01*
G01X-643630Y-299790D02*
X-638480D01*
G01X-649980Y-291530D02*
X-654000Y-304230D01*
X-658030Y-291530D01*
G01X-663420Y-302330D02*
X-664380Y-303380D01*
X-665510Y-304020D01*
X-666950Y-304230D01*
X-668400Y-303810D01*
X-669530Y-302960D01*
X-670330Y-301480D01*
X-670490Y-299790D01*
X-670170Y-298090D01*
X-669370Y-297030D01*
X-668240Y-296190D01*
X-667120Y-295980D01*
X-665990Y-296190D01*
X-664540Y-297030D01*
X-665020Y-291530D01*
X-669370D01*
G01X-698500Y-308800D02*
Y-300800D01*
G01X-637030Y-204230D02*
X-641050Y-191530D01*
X-645080Y-204230D01*
G01X-643630Y-199790D02*
X-638480D01*
G01X-649980Y-191530D02*
X-654000Y-204230D01*
X-658030Y-191530D01*
G01X-668890Y-204230D02*
Y-191530D01*
X-662930Y-200630D01*
X-670980D01*
G01X-698500Y-207200D02*
Y-199200D01*
G01X-637030Y-102230D02*
X-641050Y-89530D01*
X-645080Y-102230D01*
G01X-643630Y-97790D02*
X-638480D01*
G01X-649980Y-89530D02*
X-654000Y-102230D01*
X-658030Y-89530D01*
G01X-663420Y-99690D02*
X-664380Y-101170D01*
X-665670Y-102020D01*
X-667120Y-102230D01*
X-668400Y-102020D01*
X-669690Y-100960D01*
X-670490Y-99690D01*
X-670650Y-98420D01*
X-670330Y-96940D01*
X-669210Y-95880D01*
X-668080Y-95460D01*
X-666630D01*
G01X-668080D02*
X-669050Y-94820D01*
X-669850Y-93760D01*
X-670170Y-92490D01*
X-669850Y-91220D01*
X-669050Y-90170D01*
X-667600Y-89530D01*
X-666150Y-89740D01*
X-664700Y-90590D01*
G01X-698500Y-105600D02*
Y-97600D01*
G01X-637030Y-230D02*
X-641050Y12470D01*
X-645080Y-230D01*
G01X-643630Y4210D02*
X-638480D01*
G01X-649980Y12470D02*
X-654000Y-230D01*
X-658030Y12470D01*
G01X-666950Y-230D02*
Y12470D01*
X-665020Y9930D01*
G01Y-230D02*
X-668880D01*
G01X-725060Y7410D02*
X-724100Y8050D01*
X-722970Y8470D01*
X-721690D01*
X-720240Y7830D01*
X-719110Y6780D01*
X-718310Y5510D01*
X-717660Y3390D01*
X-717500Y1480D01*
X-717830Y-420D01*
X-718310Y-1690D01*
X-719270Y-2960D01*
X-720400Y-3810D01*
X-721520Y-4230D01*
X-722650D01*
X-723780Y-3810D01*
X-724740Y-3170D01*
X-725550Y-2330D01*
G01X-736410Y-4230D02*
Y8470D01*
X-730450Y-630D01*
X-738500D01*
G01X-698500Y-4000D02*
Y4000D01*
G01X-586550Y-1841540D02*
X-590570Y-1854240D01*
X-594600Y-1841540D01*
G01X-599990Y-1854240D02*
Y-1841540D01*
X-603200D01*
X-604490Y-1842180D01*
X-605460Y-1843020D01*
X-606260Y-1844290D01*
X-606900Y-1845770D01*
X-607060Y-1847890D01*
X-606900Y-1850010D01*
X-606260Y-1851490D01*
X-605460Y-1852760D01*
X-604490Y-1853610D01*
X-603200Y-1854240D01*
X-599990D01*
G01X-616470D02*
X-617600Y-1854030D01*
X-618890Y-1853390D01*
X-619690Y-1852340D01*
X-620010Y-1850850D01*
X-619690Y-1849370D01*
X-618730Y-1848100D01*
X-617280Y-1847470D01*
X-615670D01*
X-614710Y-1847040D01*
X-613900Y-1845990D01*
X-613580Y-1844500D01*
X-614060Y-1843020D01*
X-615190Y-1841960D01*
X-616470Y-1841540D01*
X-617760Y-1841960D01*
X-618890Y-1843020D01*
X-619370Y-1844500D01*
X-619050Y-1845990D01*
X-618240Y-1847040D01*
X-617280Y-1847470D01*
X-615670D01*
X-614220Y-1848100D01*
X-613260Y-1849370D01*
X-612940Y-1850850D01*
X-613260Y-1852340D01*
X-614060Y-1853390D01*
X-615350Y-1854030D01*
X-616470Y-1854240D01*
G01X-626370Y-1843660D02*
X-627330Y-1842390D01*
X-628460Y-1841750D01*
X-629750Y-1841540D01*
X-631360Y-1841960D01*
X-632480Y-1843020D01*
X-632800Y-1844290D01*
X-632640Y-1845560D01*
X-632000Y-1846620D01*
X-628780Y-1848740D01*
X-627330Y-1850220D01*
X-626370Y-1852340D01*
X-626050Y-1854240D01*
X-632800D01*
G01X-583550Y-1756540D02*
X-587570Y-1769240D01*
X-591600Y-1756540D01*
G01X-596990Y-1769240D02*
Y-1756540D01*
X-600200D01*
X-601490Y-1757180D01*
X-602460Y-1758020D01*
X-603260Y-1759290D01*
X-603900Y-1760770D01*
X-604060Y-1762890D01*
X-603900Y-1765010D01*
X-603260Y-1766490D01*
X-602460Y-1767760D01*
X-601490Y-1768610D01*
X-600200Y-1769240D01*
X-596990D01*
G01X-613470D02*
X-614600Y-1769030D01*
X-615890Y-1768390D01*
X-616690Y-1767340D01*
X-617010Y-1765850D01*
X-616690Y-1764370D01*
X-615730Y-1763100D01*
X-614280Y-1762470D01*
X-612670D01*
X-611710Y-1762040D01*
X-610900Y-1760990D01*
X-610580Y-1759500D01*
X-611060Y-1758020D01*
X-612190Y-1756960D01*
X-613470Y-1756540D01*
X-614760Y-1756960D01*
X-615890Y-1758020D01*
X-616370Y-1759500D01*
X-616050Y-1760990D01*
X-615240Y-1762040D01*
X-614280Y-1762470D01*
X-612670D01*
X-611220Y-1763100D01*
X-610260Y-1764370D01*
X-609940Y-1765850D01*
X-610260Y-1767340D01*
X-611060Y-1768390D01*
X-612350Y-1769030D01*
X-613470Y-1769240D01*
G01X-626420Y-1756540D02*
X-625140Y-1756960D01*
X-624170Y-1758020D01*
X-623530Y-1759290D01*
X-623050Y-1760990D01*
X-622890Y-1762890D01*
X-623050Y-1764800D01*
X-623530Y-1766490D01*
X-624170Y-1767760D01*
X-625140Y-1768820D01*
X-626420Y-1769240D01*
X-627710Y-1768820D01*
X-628680Y-1767760D01*
X-629320Y-1766490D01*
X-629800Y-1764800D01*
X-629960Y-1762890D01*
X-629800Y-1760990D01*
X-629320Y-1759290D01*
X-628680Y-1758020D01*
X-627710Y-1756960D01*
X-626420Y-1756540D01*
G01X-586550Y-1739530D02*
X-590570Y-1752230D01*
X-594600Y-1739530D01*
G01X-599990Y-1752230D02*
Y-1739530D01*
X-603200D01*
X-604490Y-1740170D01*
X-605460Y-1741010D01*
X-606260Y-1742280D01*
X-606900Y-1743760D01*
X-607060Y-1745880D01*
X-606900Y-1748000D01*
X-606260Y-1749480D01*
X-605460Y-1750750D01*
X-604490Y-1751600D01*
X-603200Y-1752230D01*
X-599990D01*
G01X-616150D02*
X-616470Y-1749480D01*
X-616960Y-1747150D01*
X-617600Y-1745030D01*
X-618410Y-1742710D01*
X-619690Y-1739530D01*
X-613260D01*
G01X-629100Y-1752230D02*
X-629420Y-1749480D01*
X-629910Y-1747150D01*
X-630550Y-1745030D01*
X-631360Y-1742710D01*
X-632640Y-1739530D01*
X-626210D01*
G01X-584550Y-1655540D02*
X-588570Y-1668240D01*
X-592600Y-1655540D01*
G01X-597990Y-1668240D02*
Y-1655540D01*
X-601200D01*
X-602490Y-1656180D01*
X-603460Y-1657020D01*
X-604260Y-1658290D01*
X-604900Y-1659770D01*
X-605060Y-1661890D01*
X-604900Y-1664010D01*
X-604260Y-1665490D01*
X-603460Y-1666760D01*
X-602490Y-1667610D01*
X-601200Y-1668240D01*
X-597990D01*
G01X-614150D02*
X-614470Y-1665490D01*
X-614960Y-1663160D01*
X-615600Y-1661040D01*
X-616410Y-1658720D01*
X-617690Y-1655540D01*
X-611260D01*
G01X-623890Y-1666340D02*
X-624850Y-1667390D01*
X-625980Y-1668030D01*
X-627420Y-1668240D01*
X-628870Y-1667820D01*
X-630000Y-1666970D01*
X-630800Y-1665490D01*
X-630960Y-1663800D01*
X-630640Y-1662100D01*
X-629840Y-1661040D01*
X-628710Y-1660200D01*
X-627590Y-1659990D01*
X-626460Y-1660200D01*
X-625010Y-1661040D01*
X-625490Y-1655540D01*
X-629840D01*
G01X-588550Y-1637530D02*
X-592570Y-1650230D01*
X-596600Y-1637530D01*
G01X-601990Y-1650230D02*
Y-1637530D01*
X-605200D01*
X-606490Y-1638170D01*
X-607460Y-1639010D01*
X-608260Y-1640280D01*
X-608900Y-1641760D01*
X-609060Y-1643880D01*
X-608900Y-1646000D01*
X-608260Y-1647480D01*
X-607460Y-1648750D01*
X-606490Y-1649600D01*
X-605200Y-1650230D01*
X-601990D01*
G01X-618150D02*
X-618470Y-1647480D01*
X-618960Y-1645150D01*
X-619600Y-1643030D01*
X-620410Y-1640710D01*
X-621690Y-1637530D01*
X-615260D01*
G01X-628370Y-1639650D02*
X-629330Y-1638380D01*
X-630460Y-1637740D01*
X-631750Y-1637530D01*
X-633360Y-1637950D01*
X-634480Y-1639010D01*
X-634800Y-1640280D01*
X-634640Y-1641550D01*
X-634000Y-1642610D01*
X-630780Y-1644730D01*
X-629330Y-1646210D01*
X-628370Y-1648330D01*
X-628050Y-1650230D01*
X-634800D01*
G01X-584550Y-1555540D02*
X-588570Y-1568240D01*
X-592600Y-1555540D01*
G01X-597990Y-1568240D02*
Y-1555540D01*
X-601200D01*
X-602490Y-1556180D01*
X-603460Y-1557020D01*
X-604260Y-1558290D01*
X-604900Y-1559770D01*
X-605060Y-1561890D01*
X-604900Y-1564010D01*
X-604260Y-1565490D01*
X-603460Y-1566760D01*
X-602490Y-1567610D01*
X-601200Y-1568240D01*
X-597990D01*
G01X-614150D02*
X-614470Y-1565490D01*
X-614960Y-1563160D01*
X-615600Y-1561040D01*
X-616410Y-1558720D01*
X-617690Y-1555540D01*
X-611260D01*
G01X-627420D02*
X-626140Y-1555960D01*
X-625170Y-1557020D01*
X-624530Y-1558290D01*
X-624050Y-1559990D01*
X-623890Y-1561890D01*
X-624050Y-1563800D01*
X-624530Y-1565490D01*
X-625170Y-1566760D01*
X-626140Y-1567820D01*
X-627420Y-1568240D01*
X-628710Y-1567820D01*
X-629680Y-1566760D01*
X-630320Y-1565490D01*
X-630800Y-1563800D01*
X-630960Y-1561890D01*
X-630800Y-1559990D01*
X-630320Y-1558290D01*
X-629680Y-1557020D01*
X-628710Y-1555960D01*
X-627420Y-1555540D01*
G01X-586550Y-1535530D02*
X-590570Y-1548230D01*
X-594600Y-1535530D01*
G01X-599990Y-1548230D02*
Y-1535530D01*
X-603200D01*
X-604490Y-1536170D01*
X-605460Y-1537010D01*
X-606260Y-1538280D01*
X-606900Y-1539760D01*
X-607060Y-1541880D01*
X-606900Y-1544000D01*
X-606260Y-1545480D01*
X-605460Y-1546750D01*
X-604490Y-1547600D01*
X-603200Y-1548230D01*
X-599990D01*
G01X-613420Y-1542940D02*
X-614540Y-1541460D01*
X-615510Y-1540610D01*
X-616800Y-1540190D01*
X-617920Y-1540610D01*
X-618730Y-1541460D01*
X-619370Y-1542730D01*
X-619530Y-1544210D01*
X-619370Y-1545480D01*
X-618730Y-1546750D01*
X-617760Y-1547810D01*
X-616640Y-1548230D01*
X-615350Y-1547810D01*
X-614220Y-1546540D01*
X-613580Y-1544630D01*
X-613420Y-1542520D01*
X-613740Y-1539760D01*
X-614220Y-1538280D01*
X-615030Y-1536800D01*
X-616150Y-1535740D01*
X-617280Y-1535530D01*
X-618410Y-1535950D01*
X-619210Y-1537010D01*
G01X-629100Y-1548230D02*
X-629420Y-1545480D01*
X-629910Y-1543150D01*
X-630550Y-1541030D01*
X-631360Y-1538710D01*
X-632640Y-1535530D01*
X-626210D01*
G01X-585550Y-1452540D02*
X-589570Y-1465240D01*
X-593600Y-1452540D01*
G01X-598990Y-1465240D02*
Y-1452540D01*
X-602200D01*
X-603490Y-1453180D01*
X-604460Y-1454020D01*
X-605260Y-1455290D01*
X-605900Y-1456770D01*
X-606060Y-1458890D01*
X-605900Y-1461010D01*
X-605260Y-1462490D01*
X-604460Y-1463760D01*
X-603490Y-1464610D01*
X-602200Y-1465240D01*
X-598990D01*
G01X-612420Y-1459950D02*
X-613540Y-1458470D01*
X-614510Y-1457620D01*
X-615800Y-1457200D01*
X-616920Y-1457620D01*
X-617730Y-1458470D01*
X-618370Y-1459740D01*
X-618530Y-1461220D01*
X-618370Y-1462490D01*
X-617730Y-1463760D01*
X-616760Y-1464820D01*
X-615640Y-1465240D01*
X-614350Y-1464820D01*
X-613220Y-1463550D01*
X-612580Y-1461640D01*
X-612420Y-1459530D01*
X-612740Y-1456770D01*
X-613220Y-1455290D01*
X-614030Y-1453810D01*
X-615150Y-1452750D01*
X-616280Y-1452540D01*
X-617410Y-1452960D01*
X-618210Y-1454020D01*
G01X-624890Y-1463340D02*
X-625850Y-1464390D01*
X-626980Y-1465030D01*
X-628420Y-1465240D01*
X-629870Y-1464820D01*
X-631000Y-1463970D01*
X-631800Y-1462490D01*
X-631960Y-1460800D01*
X-631640Y-1459100D01*
X-630840Y-1458040D01*
X-629710Y-1457200D01*
X-628590Y-1456990D01*
X-627460Y-1457200D01*
X-626010Y-1458040D01*
X-626490Y-1452540D01*
X-630840D01*
G01X-588550Y-1433530D02*
X-592570Y-1446230D01*
X-596600Y-1433530D01*
G01X-601990Y-1446230D02*
Y-1433530D01*
X-605200D01*
X-606490Y-1434170D01*
X-607460Y-1435010D01*
X-608260Y-1436280D01*
X-608900Y-1437760D01*
X-609060Y-1439880D01*
X-608900Y-1442000D01*
X-608260Y-1443480D01*
X-607460Y-1444750D01*
X-606490Y-1445600D01*
X-605200Y-1446230D01*
X-601990D01*
G01X-615420Y-1440940D02*
X-616540Y-1439460D01*
X-617510Y-1438610D01*
X-618800Y-1438190D01*
X-619920Y-1438610D01*
X-620730Y-1439460D01*
X-621370Y-1440730D01*
X-621530Y-1442210D01*
X-621370Y-1443480D01*
X-620730Y-1444750D01*
X-619760Y-1445810D01*
X-618640Y-1446230D01*
X-617350Y-1445810D01*
X-616220Y-1444540D01*
X-615580Y-1442630D01*
X-615420Y-1440520D01*
X-615740Y-1437760D01*
X-616220Y-1436280D01*
X-617030Y-1434800D01*
X-618150Y-1433740D01*
X-619280Y-1433530D01*
X-620410Y-1433950D01*
X-621210Y-1435010D01*
G01X-628370Y-1435650D02*
X-629330Y-1434380D01*
X-630460Y-1433740D01*
X-631750Y-1433530D01*
X-633360Y-1433950D01*
X-634480Y-1435010D01*
X-634800Y-1436280D01*
X-634640Y-1437550D01*
X-634000Y-1438610D01*
X-630780Y-1440730D01*
X-629330Y-1442210D01*
X-628370Y-1444330D01*
X-628050Y-1446230D01*
X-634800D01*
G01X-584550Y-1349540D02*
X-588570Y-1362240D01*
X-592600Y-1349540D01*
G01X-597990Y-1362240D02*
Y-1349540D01*
X-601200D01*
X-602490Y-1350180D01*
X-603460Y-1351020D01*
X-604260Y-1352290D01*
X-604900Y-1353770D01*
X-605060Y-1355890D01*
X-604900Y-1358010D01*
X-604260Y-1359490D01*
X-603460Y-1360760D01*
X-602490Y-1361610D01*
X-601200Y-1362240D01*
X-597990D01*
G01X-611420Y-1356950D02*
X-612540Y-1355470D01*
X-613510Y-1354620D01*
X-614800Y-1354200D01*
X-615920Y-1354620D01*
X-616730Y-1355470D01*
X-617370Y-1356740D01*
X-617530Y-1358220D01*
X-617370Y-1359490D01*
X-616730Y-1360760D01*
X-615760Y-1361820D01*
X-614640Y-1362240D01*
X-613350Y-1361820D01*
X-612220Y-1360550D01*
X-611580Y-1358640D01*
X-611420Y-1356530D01*
X-611740Y-1353770D01*
X-612220Y-1352290D01*
X-613030Y-1350810D01*
X-614150Y-1349750D01*
X-615280Y-1349540D01*
X-616410Y-1349960D01*
X-617210Y-1351020D01*
G01X-627420Y-1349540D02*
X-626140Y-1349960D01*
X-625170Y-1351020D01*
X-624530Y-1352290D01*
X-624050Y-1353990D01*
X-623890Y-1355890D01*
X-624050Y-1357800D01*
X-624530Y-1359490D01*
X-625170Y-1360760D01*
X-626140Y-1361820D01*
X-627420Y-1362240D01*
X-628710Y-1361820D01*
X-629680Y-1360760D01*
X-630320Y-1359490D01*
X-630800Y-1357800D01*
X-630960Y-1355890D01*
X-630800Y-1353990D01*
X-630320Y-1352290D01*
X-629680Y-1351020D01*
X-628710Y-1349960D01*
X-627420Y-1349540D01*
G01X-586550Y-1331530D02*
X-590570Y-1344230D01*
X-594600Y-1331530D01*
G01X-599990Y-1344230D02*
Y-1331530D01*
X-603200D01*
X-604490Y-1332170D01*
X-605460Y-1333010D01*
X-606260Y-1334280D01*
X-606900Y-1335760D01*
X-607060Y-1337880D01*
X-606900Y-1340000D01*
X-606260Y-1341480D01*
X-605460Y-1342750D01*
X-604490Y-1343600D01*
X-603200Y-1344230D01*
X-599990D01*
G01X-612940Y-1342330D02*
X-613900Y-1343380D01*
X-615030Y-1344020D01*
X-616470Y-1344230D01*
X-617920Y-1343810D01*
X-619050Y-1342960D01*
X-619850Y-1341480D01*
X-620010Y-1339790D01*
X-619690Y-1338090D01*
X-618890Y-1337030D01*
X-617760Y-1336190D01*
X-616640Y-1335980D01*
X-615510Y-1336190D01*
X-614060Y-1337030D01*
X-614540Y-1331530D01*
X-618890D01*
G01X-629100Y-1344230D02*
X-629420Y-1341480D01*
X-629910Y-1339150D01*
X-630550Y-1337030D01*
X-631360Y-1334710D01*
X-632640Y-1331530D01*
X-626210D01*
G01X-585550Y-1248540D02*
X-589570Y-1261240D01*
X-593600Y-1248540D01*
G01X-598990Y-1261240D02*
Y-1248540D01*
X-602200D01*
X-603490Y-1249180D01*
X-604460Y-1250020D01*
X-605260Y-1251290D01*
X-605900Y-1252770D01*
X-606060Y-1254890D01*
X-605900Y-1257010D01*
X-605260Y-1258490D01*
X-604460Y-1259760D01*
X-603490Y-1260610D01*
X-602200Y-1261240D01*
X-598990D01*
G01X-611940Y-1259340D02*
X-612900Y-1260390D01*
X-614030Y-1261030D01*
X-615470Y-1261240D01*
X-616920Y-1260820D01*
X-618050Y-1259970D01*
X-618850Y-1258490D01*
X-619010Y-1256800D01*
X-618690Y-1255100D01*
X-617890Y-1254040D01*
X-616760Y-1253200D01*
X-615640Y-1252990D01*
X-614510Y-1253200D01*
X-613060Y-1254040D01*
X-613540Y-1248540D01*
X-617890D01*
G01X-624890Y-1259340D02*
X-625850Y-1260390D01*
X-626980Y-1261030D01*
X-628420Y-1261240D01*
X-629870Y-1260820D01*
X-631000Y-1259970D01*
X-631800Y-1258490D01*
X-631960Y-1256800D01*
X-631640Y-1255100D01*
X-630840Y-1254040D01*
X-629710Y-1253200D01*
X-628590Y-1252990D01*
X-627460Y-1253200D01*
X-626010Y-1254040D01*
X-626490Y-1248540D01*
X-630840D01*
G01X-586550Y-1229530D02*
X-590570Y-1242230D01*
X-594600Y-1229530D01*
G01X-599990Y-1242230D02*
Y-1229530D01*
X-603200D01*
X-604490Y-1230170D01*
X-605460Y-1231010D01*
X-606260Y-1232280D01*
X-606900Y-1233760D01*
X-607060Y-1235880D01*
X-606900Y-1238000D01*
X-606260Y-1239480D01*
X-605460Y-1240750D01*
X-604490Y-1241600D01*
X-603200Y-1242230D01*
X-599990D01*
G01X-612940Y-1240330D02*
X-613900Y-1241380D01*
X-615030Y-1242020D01*
X-616470Y-1242230D01*
X-617920Y-1241810D01*
X-619050Y-1240960D01*
X-619850Y-1239480D01*
X-620010Y-1237790D01*
X-619690Y-1236090D01*
X-618890Y-1235030D01*
X-617760Y-1234190D01*
X-616640Y-1233980D01*
X-615510Y-1234190D01*
X-614060Y-1235030D01*
X-614540Y-1229530D01*
X-618890D01*
G01X-626370Y-1231650D02*
X-627330Y-1230380D01*
X-628460Y-1229740D01*
X-629750Y-1229530D01*
X-631360Y-1229950D01*
X-632480Y-1231010D01*
X-632800Y-1232280D01*
X-632640Y-1233550D01*
X-632000Y-1234610D01*
X-628780Y-1236730D01*
X-627330Y-1238210D01*
X-626370Y-1240330D01*
X-626050Y-1242230D01*
X-632800D01*
G01X-585550Y-1148540D02*
X-589570Y-1161240D01*
X-593600Y-1148540D01*
G01X-598990Y-1161240D02*
Y-1148540D01*
X-602200D01*
X-603490Y-1149180D01*
X-604460Y-1150020D01*
X-605260Y-1151290D01*
X-605900Y-1152770D01*
X-606060Y-1154890D01*
X-605900Y-1157010D01*
X-605260Y-1158490D01*
X-604460Y-1159760D01*
X-603490Y-1160610D01*
X-602200Y-1161240D01*
X-598990D01*
G01X-611940Y-1159340D02*
X-612900Y-1160390D01*
X-614030Y-1161030D01*
X-615470Y-1161240D01*
X-616920Y-1160820D01*
X-618050Y-1159970D01*
X-618850Y-1158490D01*
X-619010Y-1156800D01*
X-618690Y-1155100D01*
X-617890Y-1154040D01*
X-616760Y-1153200D01*
X-615640Y-1152990D01*
X-614510Y-1153200D01*
X-613060Y-1154040D01*
X-613540Y-1148540D01*
X-617890D01*
G01X-628420D02*
X-627140Y-1148960D01*
X-626170Y-1150020D01*
X-625530Y-1151290D01*
X-625050Y-1152990D01*
X-624890Y-1154890D01*
X-625050Y-1156800D01*
X-625530Y-1158490D01*
X-626170Y-1159760D01*
X-627140Y-1160820D01*
X-628420Y-1161240D01*
X-629710Y-1160820D01*
X-630680Y-1159760D01*
X-631320Y-1158490D01*
X-631800Y-1156800D01*
X-631960Y-1154890D01*
X-631800Y-1152990D01*
X-631320Y-1151290D01*
X-630680Y-1150020D01*
X-629710Y-1148960D01*
X-628420Y-1148540D01*
G01X-586550Y-1127530D02*
X-590570Y-1140230D01*
X-594600Y-1127530D01*
G01X-599990Y-1140230D02*
Y-1127530D01*
X-603200D01*
X-604490Y-1128170D01*
X-605460Y-1129010D01*
X-606260Y-1130280D01*
X-606900Y-1131760D01*
X-607060Y-1133880D01*
X-606900Y-1136000D01*
X-606260Y-1137480D01*
X-605460Y-1138750D01*
X-604490Y-1139600D01*
X-603200Y-1140230D01*
X-599990D01*
G01X-616470D02*
Y-1127530D01*
X-614540Y-1130070D01*
G01Y-1140230D02*
X-618400D01*
G01X-625890Y-1137690D02*
X-626850Y-1139170D01*
X-628140Y-1140020D01*
X-629590Y-1140230D01*
X-630870Y-1140020D01*
X-632160Y-1138960D01*
X-632960Y-1137690D01*
X-633120Y-1136420D01*
X-632800Y-1134940D01*
X-631680Y-1133880D01*
X-630550Y-1133460D01*
X-629100D01*
G01X-630550D02*
X-631520Y-1132820D01*
X-632320Y-1131760D01*
X-632640Y-1130490D01*
X-632320Y-1129220D01*
X-631520Y-1128170D01*
X-630070Y-1127530D01*
X-628620Y-1127740D01*
X-627170Y-1128590D01*
G01X-586550Y-765530D02*
X-590570Y-778230D01*
X-594600Y-765530D01*
G01X-599990Y-778230D02*
Y-765530D01*
X-603200D01*
X-604490Y-766170D01*
X-605460Y-767010D01*
X-606260Y-768280D01*
X-606900Y-769760D01*
X-607060Y-771880D01*
X-606900Y-774000D01*
X-606260Y-775480D01*
X-605460Y-776750D01*
X-604490Y-777600D01*
X-603200Y-778230D01*
X-599990D01*
G01X-618410D02*
Y-765530D01*
X-612450Y-774630D01*
X-620500D01*
G01X-629100Y-778230D02*
X-629420Y-775480D01*
X-629910Y-773150D01*
X-630550Y-771030D01*
X-631360Y-768710D01*
X-632640Y-765530D01*
X-626210D01*
G01X-586550Y-685530D02*
X-590570Y-698230D01*
X-594600Y-685530D01*
G01X-599990Y-698230D02*
Y-685530D01*
X-603200D01*
X-604490Y-686170D01*
X-605460Y-687010D01*
X-606260Y-688280D01*
X-606900Y-689760D01*
X-607060Y-691880D01*
X-606900Y-694000D01*
X-606260Y-695480D01*
X-605460Y-696750D01*
X-604490Y-697600D01*
X-603200Y-698230D01*
X-599990D01*
G01X-618410D02*
Y-685530D01*
X-612450Y-694630D01*
X-620500D01*
G01X-625890Y-696330D02*
X-626850Y-697380D01*
X-627980Y-698020D01*
X-629420Y-698230D01*
X-630870Y-697810D01*
X-632000Y-696960D01*
X-632800Y-695480D01*
X-632960Y-693790D01*
X-632640Y-692090D01*
X-631840Y-691030D01*
X-630710Y-690190D01*
X-629590Y-689980D01*
X-628460Y-690190D01*
X-627010Y-691030D01*
X-627490Y-685530D01*
X-631840D01*
G01X-586550Y-665530D02*
X-590570Y-678230D01*
X-594600Y-665530D01*
G01X-599990Y-678230D02*
Y-665530D01*
X-603200D01*
X-604490Y-666170D01*
X-605460Y-667010D01*
X-606260Y-668280D01*
X-606900Y-669760D01*
X-607060Y-671880D01*
X-606900Y-674000D01*
X-606260Y-675480D01*
X-605460Y-676750D01*
X-604490Y-677600D01*
X-603200Y-678230D01*
X-599990D01*
G01X-618410D02*
Y-665530D01*
X-612450Y-674630D01*
X-620500D01*
G01X-626370Y-667650D02*
X-627330Y-666380D01*
X-628460Y-665740D01*
X-629750Y-665530D01*
X-631360Y-665950D01*
X-632480Y-667010D01*
X-632800Y-668280D01*
X-632640Y-669550D01*
X-632000Y-670610D01*
X-628780Y-672730D01*
X-627330Y-674210D01*
X-626370Y-676330D01*
X-626050Y-678230D01*
X-632800D01*
G01X-586550Y-583530D02*
X-590570Y-596230D01*
X-594600Y-583530D01*
G01X-599990Y-596230D02*
Y-583530D01*
X-603200D01*
X-604490Y-584170D01*
X-605460Y-585010D01*
X-606260Y-586280D01*
X-606900Y-587760D01*
X-607060Y-589880D01*
X-606900Y-592000D01*
X-606260Y-593480D01*
X-605460Y-594750D01*
X-604490Y-595600D01*
X-603200Y-596230D01*
X-599990D01*
G01X-618410D02*
Y-583530D01*
X-612450Y-592630D01*
X-620500D01*
G01X-629420Y-583530D02*
X-628140Y-583950D01*
X-627170Y-585010D01*
X-626530Y-586280D01*
X-626050Y-587980D01*
X-625890Y-589880D01*
X-626050Y-591790D01*
X-626530Y-593480D01*
X-627170Y-594750D01*
X-628140Y-595810D01*
X-629420Y-596230D01*
X-630710Y-595810D01*
X-631680Y-594750D01*
X-632320Y-593480D01*
X-632800Y-591790D01*
X-632960Y-589880D01*
X-632800Y-587980D01*
X-632320Y-586280D01*
X-631680Y-585010D01*
X-630710Y-583950D01*
X-629420Y-583530D01*
G01X-586550Y-563530D02*
X-590570Y-576230D01*
X-594600Y-563530D01*
G01X-599990Y-576230D02*
Y-563530D01*
X-603200D01*
X-604490Y-564170D01*
X-605460Y-565010D01*
X-606260Y-566280D01*
X-606900Y-567760D01*
X-607060Y-569880D01*
X-606900Y-572000D01*
X-606260Y-573480D01*
X-605460Y-574750D01*
X-604490Y-575600D01*
X-603200Y-576230D01*
X-599990D01*
G01X-612940Y-573690D02*
X-613900Y-575170D01*
X-615190Y-576020D01*
X-616640Y-576230D01*
X-617920Y-576020D01*
X-619210Y-574960D01*
X-620010Y-573690D01*
X-620170Y-572420D01*
X-619850Y-570940D01*
X-618730Y-569880D01*
X-617600Y-569460D01*
X-616150D01*
G01X-617600D02*
X-618570Y-568820D01*
X-619370Y-567760D01*
X-619690Y-566490D01*
X-619370Y-565220D01*
X-618570Y-564170D01*
X-617120Y-563530D01*
X-615670Y-563740D01*
X-614220Y-564590D01*
G01X-629100Y-576230D02*
X-629420Y-573480D01*
X-629910Y-571150D01*
X-630550Y-569030D01*
X-631360Y-566710D01*
X-632640Y-563530D01*
X-626210D01*
G01X-586550Y-481530D02*
X-590570Y-494230D01*
X-594600Y-481530D01*
G01X-599990Y-494230D02*
Y-481530D01*
X-603200D01*
X-604490Y-482170D01*
X-605460Y-483010D01*
X-606260Y-484280D01*
X-606900Y-485760D01*
X-607060Y-487880D01*
X-606900Y-490000D01*
X-606260Y-491480D01*
X-605460Y-492750D01*
X-604490Y-493600D01*
X-603200Y-494230D01*
X-599990D01*
G01X-612940Y-491690D02*
X-613900Y-493170D01*
X-615190Y-494020D01*
X-616640Y-494230D01*
X-617920Y-494020D01*
X-619210Y-492960D01*
X-620010Y-491690D01*
X-620170Y-490420D01*
X-619850Y-488940D01*
X-618730Y-487880D01*
X-617600Y-487460D01*
X-616150D01*
G01X-617600D02*
X-618570Y-486820D01*
X-619370Y-485760D01*
X-619690Y-484490D01*
X-619370Y-483220D01*
X-618570Y-482170D01*
X-617120Y-481530D01*
X-615670Y-481740D01*
X-614220Y-482590D01*
G01X-625890Y-492330D02*
X-626850Y-493380D01*
X-627980Y-494020D01*
X-629420Y-494230D01*
X-630870Y-493810D01*
X-632000Y-492960D01*
X-632800Y-491480D01*
X-632960Y-489790D01*
X-632640Y-488090D01*
X-631840Y-487030D01*
X-630710Y-486190D01*
X-629590Y-485980D01*
X-628460Y-486190D01*
X-627010Y-487030D01*
X-627490Y-481530D01*
X-631840D01*
G01X-586550Y-461530D02*
X-590570Y-474230D01*
X-594600Y-461530D01*
G01X-599990Y-474230D02*
Y-461530D01*
X-603200D01*
X-604490Y-462170D01*
X-605460Y-463010D01*
X-606260Y-464280D01*
X-606900Y-465760D01*
X-607060Y-467880D01*
X-606900Y-470000D01*
X-606260Y-471480D01*
X-605460Y-472750D01*
X-604490Y-473600D01*
X-603200Y-474230D01*
X-599990D01*
G01X-612940Y-471690D02*
X-613900Y-473170D01*
X-615190Y-474020D01*
X-616640Y-474230D01*
X-617920Y-474020D01*
X-619210Y-472960D01*
X-620010Y-471690D01*
X-620170Y-470420D01*
X-619850Y-468940D01*
X-618730Y-467880D01*
X-617600Y-467460D01*
X-616150D01*
G01X-617600D02*
X-618570Y-466820D01*
X-619370Y-465760D01*
X-619690Y-464490D01*
X-619370Y-463220D01*
X-618570Y-462170D01*
X-617120Y-461530D01*
X-615670Y-461740D01*
X-614220Y-462590D01*
G01X-626370Y-463650D02*
X-627330Y-462380D01*
X-628460Y-461740D01*
X-629750Y-461530D01*
X-631360Y-461950D01*
X-632480Y-463010D01*
X-632800Y-464280D01*
X-632640Y-465550D01*
X-632000Y-466610D01*
X-628780Y-468730D01*
X-627330Y-470210D01*
X-626370Y-472330D01*
X-626050Y-474230D01*
X-632800D01*
G01X-586550Y-381530D02*
X-590570Y-394230D01*
X-594600Y-381530D01*
G01X-599990Y-394230D02*
Y-381530D01*
X-603200D01*
X-604490Y-382170D01*
X-605460Y-383010D01*
X-606260Y-384280D01*
X-606900Y-385760D01*
X-607060Y-387880D01*
X-606900Y-390000D01*
X-606260Y-391480D01*
X-605460Y-392750D01*
X-604490Y-393600D01*
X-603200Y-394230D01*
X-599990D01*
G01X-612940Y-391690D02*
X-613900Y-393170D01*
X-615190Y-394020D01*
X-616640Y-394230D01*
X-617920Y-394020D01*
X-619210Y-392960D01*
X-620010Y-391690D01*
X-620170Y-390420D01*
X-619850Y-388940D01*
X-618730Y-387880D01*
X-617600Y-387460D01*
X-616150D01*
G01X-617600D02*
X-618570Y-386820D01*
X-619370Y-385760D01*
X-619690Y-384490D01*
X-619370Y-383220D01*
X-618570Y-382170D01*
X-617120Y-381530D01*
X-615670Y-381740D01*
X-614220Y-382590D01*
G01X-629420Y-381530D02*
X-628140Y-381950D01*
X-627170Y-383010D01*
X-626530Y-384280D01*
X-626050Y-385980D01*
X-625890Y-387880D01*
X-626050Y-389790D01*
X-626530Y-391480D01*
X-627170Y-392750D01*
X-628140Y-393810D01*
X-629420Y-394230D01*
X-630710Y-393810D01*
X-631680Y-392750D01*
X-632320Y-391480D01*
X-632800Y-389790D01*
X-632960Y-387880D01*
X-632800Y-385980D01*
X-632320Y-384280D01*
X-631680Y-383010D01*
X-630710Y-381950D01*
X-629420Y-381530D01*
G01X-586550Y-359530D02*
X-590570Y-372230D01*
X-594600Y-359530D01*
G01X-599990Y-372230D02*
Y-359530D01*
X-603200D01*
X-604490Y-360170D01*
X-605460Y-361010D01*
X-606260Y-362280D01*
X-606900Y-363760D01*
X-607060Y-365880D01*
X-606900Y-368000D01*
X-606260Y-369480D01*
X-605460Y-370750D01*
X-604490Y-371600D01*
X-603200Y-372230D01*
X-599990D01*
G01X-613420Y-361650D02*
X-614380Y-360380D01*
X-615510Y-359740D01*
X-616800Y-359530D01*
X-618410Y-359950D01*
X-619530Y-361010D01*
X-619850Y-362280D01*
X-619690Y-363550D01*
X-619050Y-364610D01*
X-615830Y-366730D01*
X-614380Y-368210D01*
X-613420Y-370330D01*
X-613100Y-372230D01*
X-619850D01*
G01X-629100D02*
X-629420Y-369480D01*
X-629910Y-367150D01*
X-630550Y-365030D01*
X-631360Y-362710D01*
X-632640Y-359530D01*
X-626210D01*
G01X-584550Y-279530D02*
X-588570Y-292230D01*
X-592600Y-279530D01*
G01X-597990Y-292230D02*
Y-279530D01*
X-601200D01*
X-602490Y-280170D01*
X-603460Y-281010D01*
X-604260Y-282280D01*
X-604900Y-283760D01*
X-605060Y-285880D01*
X-604900Y-288000D01*
X-604260Y-289480D01*
X-603460Y-290750D01*
X-602490Y-291600D01*
X-601200Y-292230D01*
X-597990D01*
G01X-611420Y-281650D02*
X-612380Y-280380D01*
X-613510Y-279740D01*
X-614800Y-279530D01*
X-616410Y-279950D01*
X-617530Y-281010D01*
X-617850Y-282280D01*
X-617690Y-283550D01*
X-617050Y-284610D01*
X-613830Y-286730D01*
X-612380Y-288210D01*
X-611420Y-290330D01*
X-611100Y-292230D01*
X-617850D01*
G01X-623890Y-290330D02*
X-624850Y-291380D01*
X-625980Y-292020D01*
X-627420Y-292230D01*
X-628870Y-291810D01*
X-630000Y-290960D01*
X-630800Y-289480D01*
X-630960Y-287790D01*
X-630640Y-286090D01*
X-629840Y-285030D01*
X-628710Y-284190D01*
X-627590Y-283980D01*
X-626460Y-284190D01*
X-625010Y-285030D01*
X-625490Y-279530D01*
X-629840D01*
G01X-586550Y-257530D02*
X-590570Y-270230D01*
X-594600Y-257530D01*
G01X-599990Y-270230D02*
Y-257530D01*
X-603200D01*
X-604490Y-258170D01*
X-605460Y-259010D01*
X-606260Y-260280D01*
X-606900Y-261760D01*
X-607060Y-263880D01*
X-606900Y-266000D01*
X-606260Y-267480D01*
X-605460Y-268750D01*
X-604490Y-269600D01*
X-603200Y-270230D01*
X-599990D01*
G01X-613420Y-259650D02*
X-614380Y-258380D01*
X-615510Y-257740D01*
X-616800Y-257530D01*
X-618410Y-257950D01*
X-619530Y-259010D01*
X-619850Y-260280D01*
X-619690Y-261550D01*
X-619050Y-262610D01*
X-615830Y-264730D01*
X-614380Y-266210D01*
X-613420Y-268330D01*
X-613100Y-270230D01*
X-619850D01*
G01X-626370Y-259650D02*
X-627330Y-258380D01*
X-628460Y-257740D01*
X-629750Y-257530D01*
X-631360Y-257950D01*
X-632480Y-259010D01*
X-632800Y-260280D01*
X-632640Y-261550D01*
X-632000Y-262610D01*
X-628780Y-264730D01*
X-627330Y-266210D01*
X-626370Y-268330D01*
X-626050Y-270230D01*
X-632800D01*
G01X-584550Y-177530D02*
X-588570Y-190230D01*
X-592600Y-177530D01*
G01X-597990Y-190230D02*
Y-177530D01*
X-601200D01*
X-602490Y-178170D01*
X-603460Y-179010D01*
X-604260Y-180280D01*
X-604900Y-181760D01*
X-605060Y-183880D01*
X-604900Y-186000D01*
X-604260Y-187480D01*
X-603460Y-188750D01*
X-602490Y-189600D01*
X-601200Y-190230D01*
X-597990D01*
G01X-611420Y-179650D02*
X-612380Y-178380D01*
X-613510Y-177740D01*
X-614800Y-177530D01*
X-616410Y-177950D01*
X-617530Y-179010D01*
X-617850Y-180280D01*
X-617690Y-181550D01*
X-617050Y-182610D01*
X-613830Y-184730D01*
X-612380Y-186210D01*
X-611420Y-188330D01*
X-611100Y-190230D01*
X-617850D01*
G01X-627420Y-177530D02*
X-626140Y-177950D01*
X-625170Y-179010D01*
X-624530Y-180280D01*
X-624050Y-181980D01*
X-623890Y-183880D01*
X-624050Y-185790D01*
X-624530Y-187480D01*
X-625170Y-188750D01*
X-626140Y-189810D01*
X-627420Y-190230D01*
X-628710Y-189810D01*
X-629680Y-188750D01*
X-630320Y-187480D01*
X-630800Y-185790D01*
X-630960Y-183880D01*
X-630800Y-181980D01*
X-630320Y-180280D01*
X-629680Y-179010D01*
X-628710Y-177950D01*
X-627420Y-177530D01*
G01X-586550Y-155530D02*
X-590570Y-168230D01*
X-594600Y-155530D01*
G01X-599990Y-168230D02*
Y-155530D01*
X-603200D01*
X-604490Y-156170D01*
X-605460Y-157010D01*
X-606260Y-158280D01*
X-606900Y-159760D01*
X-607060Y-161880D01*
X-606900Y-164000D01*
X-606260Y-165480D01*
X-605460Y-166750D01*
X-604490Y-167600D01*
X-603200Y-168230D01*
X-599990D01*
G01X-616470D02*
Y-155530D01*
X-614540Y-158070D01*
G01Y-168230D02*
X-618400D01*
G01X-629100D02*
X-629420Y-165480D01*
X-629910Y-163150D01*
X-630550Y-161030D01*
X-631360Y-158710D01*
X-632640Y-155530D01*
X-626210D01*
G01X-586550Y-73530D02*
X-590570Y-86230D01*
X-594600Y-73530D01*
G01X-599990Y-86230D02*
Y-73530D01*
X-603200D01*
X-604490Y-74170D01*
X-605460Y-75010D01*
X-606260Y-76280D01*
X-606900Y-77760D01*
X-607060Y-79880D01*
X-606900Y-82000D01*
X-606260Y-83480D01*
X-605460Y-84750D01*
X-604490Y-85600D01*
X-603200Y-86230D01*
X-599990D01*
G01X-616470D02*
Y-73530D01*
X-614540Y-76070D01*
G01Y-86230D02*
X-618400D01*
G01X-625890Y-84330D02*
X-626850Y-85380D01*
X-627980Y-86020D01*
X-629420Y-86230D01*
X-630870Y-85810D01*
X-632000Y-84960D01*
X-632800Y-83480D01*
X-632960Y-81790D01*
X-632640Y-80090D01*
X-631840Y-79030D01*
X-630710Y-78190D01*
X-629590Y-77980D01*
X-628460Y-78190D01*
X-627010Y-79030D01*
X-627490Y-73530D01*
X-631840D01*
G01X-589030Y-53530D02*
X-593050Y-66230D01*
X-597080Y-53530D01*
G01X-602470Y-66230D02*
Y-53530D01*
X-605680D01*
X-606970Y-54170D01*
X-607940Y-55010D01*
X-608740Y-56280D01*
X-609380Y-57760D01*
X-609540Y-59880D01*
X-609380Y-62000D01*
X-608740Y-63480D01*
X-607940Y-64750D01*
X-606970Y-65600D01*
X-605680Y-66230D01*
X-602470D01*
G01X-618950D02*
X-620080Y-66020D01*
X-621370Y-65380D01*
X-622170Y-64330D01*
X-622490Y-62840D01*
X-622170Y-61360D01*
X-621210Y-60090D01*
X-619760Y-59460D01*
X-618150D01*
X-617190Y-59030D01*
X-616380Y-57980D01*
X-616060Y-56490D01*
X-616540Y-55010D01*
X-617670Y-53950D01*
X-618950Y-53530D01*
X-620240Y-53950D01*
X-621370Y-55010D01*
X-621850Y-56490D01*
X-621530Y-57980D01*
X-620720Y-59030D01*
X-619760Y-59460D01*
X-618150D01*
X-616700Y-60090D01*
X-615740Y-61360D01*
X-615420Y-62840D01*
X-615740Y-64330D01*
X-616540Y-65380D01*
X-617830Y-66020D01*
X-618950Y-66230D01*
G01X-537830Y-1860230D02*
Y-1847530D01*
X-541850D01*
X-543140Y-1848170D01*
X-543940Y-1849010D01*
X-544260Y-1850710D01*
X-543940Y-1852400D01*
X-542980Y-1853460D01*
X-541850Y-1854090D01*
X-537830D01*
G01X-541850D02*
X-544260Y-1860230D01*
G01X-551260Y-1858750D02*
X-552390Y-1859810D01*
X-553670Y-1860230D01*
X-554960Y-1859810D01*
X-556090Y-1858540D01*
X-556890Y-1856630D01*
X-557210Y-1854730D01*
Y-1852400D01*
X-556890Y-1850490D01*
X-556090Y-1848800D01*
X-555120Y-1847950D01*
X-553990Y-1847530D01*
X-552710Y-1847950D01*
X-551740Y-1848800D01*
X-551100Y-1850070D01*
X-550780Y-1851760D01*
X-551100Y-1853240D01*
X-551900Y-1854730D01*
X-552870Y-1855570D01*
X-553990Y-1855790D01*
X-555280Y-1855360D01*
X-556250Y-1854300D01*
X-557210Y-1852400D01*
G01X-564210Y-1858750D02*
X-565340Y-1859810D01*
X-566620Y-1860230D01*
X-567910Y-1859810D01*
X-569040Y-1858540D01*
X-569840Y-1856630D01*
X-570160Y-1854730D01*
Y-1852400D01*
X-569840Y-1850490D01*
X-569040Y-1848800D01*
X-568070Y-1847950D01*
X-566940Y-1847530D01*
X-565660Y-1847950D01*
X-564690Y-1848800D01*
X-564050Y-1850070D01*
X-563730Y-1851760D01*
X-564050Y-1853240D01*
X-564850Y-1854730D01*
X-565820Y-1855570D01*
X-566940Y-1855790D01*
X-568230Y-1855360D01*
X-569200Y-1854300D01*
X-570160Y-1852400D01*
G01X-537830Y-1758230D02*
Y-1745530D01*
X-541850D01*
X-543140Y-1746170D01*
X-543940Y-1747010D01*
X-544260Y-1748710D01*
X-543940Y-1750400D01*
X-542980Y-1751460D01*
X-541850Y-1752090D01*
X-537830D01*
G01X-541850D02*
X-544260Y-1758230D01*
G01X-551260Y-1756750D02*
X-552390Y-1757810D01*
X-553670Y-1758230D01*
X-554960Y-1757810D01*
X-556090Y-1756540D01*
X-556890Y-1754630D01*
X-557210Y-1752730D01*
Y-1750400D01*
X-556890Y-1748490D01*
X-556090Y-1746800D01*
X-555120Y-1745950D01*
X-553990Y-1745530D01*
X-552710Y-1745950D01*
X-551740Y-1746800D01*
X-551100Y-1748070D01*
X-550780Y-1749760D01*
X-551100Y-1751240D01*
X-551900Y-1752730D01*
X-552870Y-1753570D01*
X-553990Y-1753790D01*
X-555280Y-1753360D01*
X-556250Y-1752300D01*
X-557210Y-1750400D01*
G01X-563410Y-1755690D02*
X-564370Y-1757170D01*
X-565660Y-1758020D01*
X-567110Y-1758230D01*
X-568390Y-1758020D01*
X-569680Y-1756960D01*
X-570480Y-1755690D01*
X-570640Y-1754420D01*
X-570320Y-1752940D01*
X-569200Y-1751880D01*
X-568070Y-1751460D01*
X-566620D01*
G01X-568070D02*
X-569040Y-1750820D01*
X-569840Y-1749760D01*
X-570160Y-1748490D01*
X-569840Y-1747220D01*
X-569040Y-1746170D01*
X-567590Y-1745530D01*
X-566140Y-1745740D01*
X-564690Y-1746590D01*
G01X-537830Y-1656230D02*
Y-1643530D01*
X-541850D01*
X-543140Y-1644170D01*
X-543940Y-1645010D01*
X-544260Y-1646710D01*
X-543940Y-1648400D01*
X-542980Y-1649460D01*
X-541850Y-1650090D01*
X-537830D01*
G01X-541850D02*
X-544260Y-1656230D01*
G01X-553990D02*
X-555120Y-1656020D01*
X-556410Y-1655380D01*
X-557210Y-1654330D01*
X-557530Y-1652840D01*
X-557210Y-1651360D01*
X-556250Y-1650090D01*
X-554800Y-1649460D01*
X-553190D01*
X-552230Y-1649030D01*
X-551420Y-1647980D01*
X-551100Y-1646490D01*
X-551580Y-1645010D01*
X-552710Y-1643950D01*
X-553990Y-1643530D01*
X-555280Y-1643950D01*
X-556410Y-1645010D01*
X-556890Y-1646490D01*
X-556570Y-1647980D01*
X-555760Y-1649030D01*
X-554800Y-1649460D01*
X-553190D01*
X-551740Y-1650090D01*
X-550780Y-1651360D01*
X-550460Y-1652840D01*
X-550780Y-1654330D01*
X-551580Y-1655380D01*
X-552870Y-1656020D01*
X-553990Y-1656230D01*
G01X-566620D02*
X-566940Y-1653480D01*
X-567430Y-1651150D01*
X-568070Y-1649030D01*
X-568880Y-1646710D01*
X-570160Y-1643530D01*
X-563730D01*
G01X-537830Y-1554230D02*
Y-1541530D01*
X-541850D01*
X-543140Y-1542170D01*
X-543940Y-1543010D01*
X-544260Y-1544710D01*
X-543940Y-1546400D01*
X-542980Y-1547460D01*
X-541850Y-1548090D01*
X-537830D01*
G01X-541850D02*
X-544260Y-1554230D01*
G01X-553990D02*
X-555120Y-1554020D01*
X-556410Y-1553380D01*
X-557210Y-1552330D01*
X-557530Y-1550840D01*
X-557210Y-1549360D01*
X-556250Y-1548090D01*
X-554800Y-1547460D01*
X-553190D01*
X-552230Y-1547030D01*
X-551420Y-1545980D01*
X-551100Y-1544490D01*
X-551580Y-1543010D01*
X-552710Y-1541950D01*
X-553990Y-1541530D01*
X-555280Y-1541950D01*
X-556410Y-1543010D01*
X-556890Y-1544490D01*
X-556570Y-1545980D01*
X-555760Y-1547030D01*
X-554800Y-1547460D01*
X-553190D01*
X-551740Y-1548090D01*
X-550780Y-1549360D01*
X-550460Y-1550840D01*
X-550780Y-1552330D01*
X-551580Y-1553380D01*
X-552870Y-1554020D01*
X-553990Y-1554230D01*
G01X-566940D02*
Y-1541530D01*
X-565010Y-1544070D01*
G01Y-1554230D02*
X-568870D01*
G01X-537830Y-1454230D02*
Y-1441530D01*
X-541850D01*
X-543140Y-1442170D01*
X-543940Y-1443010D01*
X-544260Y-1444710D01*
X-543940Y-1446400D01*
X-542980Y-1447460D01*
X-541850Y-1448090D01*
X-537830D01*
G01X-541850D02*
X-544260Y-1454230D01*
G01X-553670D02*
X-553990Y-1451480D01*
X-554480Y-1449150D01*
X-555120Y-1447030D01*
X-555930Y-1444710D01*
X-557210Y-1441530D01*
X-550780D01*
G01X-563410Y-1452330D02*
X-564370Y-1453380D01*
X-565500Y-1454020D01*
X-566940Y-1454230D01*
X-568390Y-1453810D01*
X-569520Y-1452960D01*
X-570320Y-1451480D01*
X-570480Y-1449790D01*
X-570160Y-1448090D01*
X-569360Y-1447030D01*
X-568230Y-1446190D01*
X-567110Y-1445980D01*
X-565980Y-1446190D01*
X-564530Y-1447030D01*
X-565010Y-1441530D01*
X-569360D01*
G01X-537830Y-1352230D02*
Y-1339530D01*
X-541850D01*
X-543140Y-1340170D01*
X-543940Y-1341010D01*
X-544260Y-1342710D01*
X-543940Y-1344400D01*
X-542980Y-1345460D01*
X-541850Y-1346090D01*
X-537830D01*
G01X-541850D02*
X-544260Y-1352230D01*
G01X-550940Y-1346940D02*
X-552060Y-1345460D01*
X-553030Y-1344610D01*
X-554320Y-1344190D01*
X-555440Y-1344610D01*
X-556250Y-1345460D01*
X-556890Y-1346730D01*
X-557050Y-1348210D01*
X-556890Y-1349480D01*
X-556250Y-1350750D01*
X-555280Y-1351810D01*
X-554160Y-1352230D01*
X-552870Y-1351810D01*
X-551740Y-1350540D01*
X-551100Y-1348630D01*
X-550940Y-1346520D01*
X-551260Y-1343760D01*
X-551740Y-1342280D01*
X-552550Y-1340800D01*
X-553670Y-1339740D01*
X-554800Y-1339530D01*
X-555930Y-1339950D01*
X-556730Y-1341010D01*
G01X-564210Y-1350750D02*
X-565340Y-1351810D01*
X-566620Y-1352230D01*
X-567910Y-1351810D01*
X-569040Y-1350540D01*
X-569840Y-1348630D01*
X-570160Y-1346730D01*
Y-1344400D01*
X-569840Y-1342490D01*
X-569040Y-1340800D01*
X-568070Y-1339950D01*
X-566940Y-1339530D01*
X-565660Y-1339950D01*
X-564690Y-1340800D01*
X-564050Y-1342070D01*
X-563730Y-1343760D01*
X-564050Y-1345240D01*
X-564850Y-1346730D01*
X-565820Y-1347570D01*
X-566940Y-1347790D01*
X-568230Y-1347360D01*
X-569200Y-1346300D01*
X-570160Y-1344400D01*
G01X-537830Y-1250230D02*
Y-1237530D01*
X-541850D01*
X-543140Y-1238170D01*
X-543940Y-1239010D01*
X-544260Y-1240710D01*
X-543940Y-1242400D01*
X-542980Y-1243460D01*
X-541850Y-1244090D01*
X-537830D01*
G01X-541850D02*
X-544260Y-1250230D01*
G01X-550940Y-1244940D02*
X-552060Y-1243460D01*
X-553030Y-1242610D01*
X-554320Y-1242190D01*
X-555440Y-1242610D01*
X-556250Y-1243460D01*
X-556890Y-1244730D01*
X-557050Y-1246210D01*
X-556890Y-1247480D01*
X-556250Y-1248750D01*
X-555280Y-1249810D01*
X-554160Y-1250230D01*
X-552870Y-1249810D01*
X-551740Y-1248540D01*
X-551100Y-1246630D01*
X-550940Y-1244520D01*
X-551260Y-1241760D01*
X-551740Y-1240280D01*
X-552550Y-1238800D01*
X-553670Y-1237740D01*
X-554800Y-1237530D01*
X-555930Y-1237950D01*
X-556730Y-1239010D01*
G01X-563410Y-1247690D02*
X-564370Y-1249170D01*
X-565660Y-1250020D01*
X-567110Y-1250230D01*
X-568390Y-1250020D01*
X-569680Y-1248960D01*
X-570480Y-1247690D01*
X-570640Y-1246420D01*
X-570320Y-1244940D01*
X-569200Y-1243880D01*
X-568070Y-1243460D01*
X-566620D01*
G01X-568070D02*
X-569040Y-1242820D01*
X-569840Y-1241760D01*
X-570160Y-1240490D01*
X-569840Y-1239220D01*
X-569040Y-1238170D01*
X-567590Y-1237530D01*
X-566140Y-1237740D01*
X-564690Y-1238590D01*
G01X-537830Y-1148230D02*
Y-1135530D01*
X-541850D01*
X-543140Y-1136170D01*
X-543940Y-1137010D01*
X-544260Y-1138710D01*
X-543940Y-1140400D01*
X-542980Y-1141460D01*
X-541850Y-1142090D01*
X-537830D01*
G01X-541850D02*
X-544260Y-1148230D01*
G01X-553990D02*
Y-1135530D01*
X-552060Y-1138070D01*
G01Y-1148230D02*
X-555920D01*
G01X-563410Y-1146330D02*
X-564370Y-1147380D01*
X-565500Y-1148020D01*
X-566940Y-1148230D01*
X-568390Y-1147810D01*
X-569520Y-1146960D01*
X-570320Y-1145480D01*
X-570480Y-1143790D01*
X-570160Y-1142090D01*
X-569360Y-1141030D01*
X-568230Y-1140190D01*
X-567110Y-1139980D01*
X-565980Y-1140190D01*
X-564530Y-1141030D01*
X-565010Y-1135530D01*
X-569360D01*
G01X-530550Y-1037540D02*
X-534570Y-1050240D01*
X-538600Y-1037540D01*
G01X-543990Y-1050240D02*
Y-1037540D01*
X-547200D01*
X-548490Y-1038180D01*
X-549460Y-1039020D01*
X-550260Y-1040290D01*
X-550900Y-1041770D01*
X-551060Y-1043890D01*
X-550900Y-1046010D01*
X-550260Y-1047490D01*
X-549460Y-1048760D01*
X-548490Y-1049610D01*
X-547200Y-1050240D01*
X-543990D01*
G01X-560470D02*
Y-1037540D01*
X-558540Y-1040080D01*
G01Y-1050240D02*
X-562400D01*
G01X-573420Y-1037540D02*
X-572140Y-1037960D01*
X-571170Y-1039020D01*
X-570530Y-1040290D01*
X-570050Y-1041990D01*
X-569890Y-1043890D01*
X-570050Y-1045800D01*
X-570530Y-1047490D01*
X-571170Y-1048760D01*
X-572140Y-1049820D01*
X-573420Y-1050240D01*
X-574710Y-1049820D01*
X-575680Y-1048760D01*
X-576320Y-1047490D01*
X-576800Y-1045800D01*
X-576960Y-1043890D01*
X-576800Y-1041990D01*
X-576320Y-1040290D01*
X-575680Y-1039020D01*
X-574710Y-1037960D01*
X-573420Y-1037540D01*
G01X-537830Y-786230D02*
Y-773530D01*
X-541850D01*
X-543140Y-774170D01*
X-543940Y-775010D01*
X-544260Y-776710D01*
X-543940Y-778400D01*
X-542980Y-779460D01*
X-541850Y-780090D01*
X-537830D01*
G01X-541850D02*
X-544260Y-786230D01*
G01X-550460Y-784330D02*
X-551420Y-785380D01*
X-552550Y-786020D01*
X-553990Y-786230D01*
X-555440Y-785810D01*
X-556570Y-784960D01*
X-557370Y-783480D01*
X-557530Y-781790D01*
X-557210Y-780090D01*
X-556410Y-779030D01*
X-555280Y-778190D01*
X-554160Y-777980D01*
X-553030Y-778190D01*
X-551580Y-779030D01*
X-552060Y-773530D01*
X-556410D01*
G01X-566620Y-786230D02*
X-566940Y-783480D01*
X-567430Y-781150D01*
X-568070Y-779030D01*
X-568880Y-776710D01*
X-570160Y-773530D01*
X-563730D01*
G01X-537830Y-684240D02*
Y-671540D01*
X-541850D01*
X-543140Y-672180D01*
X-543940Y-673020D01*
X-544260Y-674720D01*
X-543940Y-676410D01*
X-542980Y-677470D01*
X-541850Y-678100D01*
X-537830D01*
G01X-541850D02*
X-544260Y-684240D01*
G01X-550460Y-682340D02*
X-551420Y-683390D01*
X-552550Y-684030D01*
X-553990Y-684240D01*
X-555440Y-683820D01*
X-556570Y-682970D01*
X-557370Y-681490D01*
X-557530Y-679800D01*
X-557210Y-678100D01*
X-556410Y-677040D01*
X-555280Y-676200D01*
X-554160Y-675990D01*
X-553030Y-676200D01*
X-551580Y-677040D01*
X-552060Y-671540D01*
X-556410D01*
G01X-566940Y-684240D02*
Y-671540D01*
X-565010Y-674080D01*
G01Y-684240D02*
X-568870D01*
G01X-535840Y-582230D02*
Y-569530D01*
X-539860D01*
X-541150Y-570170D01*
X-541950Y-571010D01*
X-542270Y-572710D01*
X-541950Y-574400D01*
X-540990Y-575460D01*
X-539860Y-576090D01*
X-535840D01*
G01X-539860D02*
X-542270Y-582230D01*
G01X-553940D02*
Y-569530D01*
X-547980Y-578630D01*
X-556030D01*
G01X-561420Y-580330D02*
X-562380Y-581380D01*
X-563510Y-582020D01*
X-564950Y-582230D01*
X-566400Y-581810D01*
X-567530Y-580960D01*
X-568330Y-579480D01*
X-568490Y-577790D01*
X-568170Y-576090D01*
X-567370Y-575030D01*
X-566240Y-574190D01*
X-565120Y-573980D01*
X-563990Y-574190D01*
X-562540Y-575030D01*
X-563020Y-569530D01*
X-567370D01*
G01X-535840Y-482230D02*
Y-469530D01*
X-539860D01*
X-541150Y-470170D01*
X-541950Y-471010D01*
X-542270Y-472710D01*
X-541950Y-474400D01*
X-540990Y-475460D01*
X-539860Y-476090D01*
X-535840D01*
G01X-539860D02*
X-542270Y-482230D01*
G01X-548470Y-479690D02*
X-549430Y-481170D01*
X-550720Y-482020D01*
X-552170Y-482230D01*
X-553450Y-482020D01*
X-554740Y-480960D01*
X-555540Y-479690D01*
X-555700Y-478420D01*
X-555380Y-476940D01*
X-554260Y-475880D01*
X-553130Y-475460D01*
X-551680D01*
G01X-553130D02*
X-554100Y-474820D01*
X-554900Y-473760D01*
X-555220Y-472490D01*
X-554900Y-471220D01*
X-554100Y-470170D01*
X-552650Y-469530D01*
X-551200Y-469740D01*
X-549750Y-470590D01*
G01X-562220Y-480750D02*
X-563350Y-481810D01*
X-564630Y-482230D01*
X-565920Y-481810D01*
X-567050Y-480540D01*
X-567850Y-478630D01*
X-568170Y-476730D01*
Y-474400D01*
X-567850Y-472490D01*
X-567050Y-470800D01*
X-566080Y-469950D01*
X-564950Y-469530D01*
X-563670Y-469950D01*
X-562700Y-470800D01*
X-562060Y-472070D01*
X-561740Y-473760D01*
X-562060Y-475240D01*
X-562860Y-476730D01*
X-563830Y-477570D01*
X-564950Y-477790D01*
X-566240Y-477360D01*
X-567210Y-476300D01*
X-568170Y-474400D01*
G01X-537840Y-380230D02*
Y-367530D01*
X-541860D01*
X-543150Y-368170D01*
X-543950Y-369010D01*
X-544270Y-370710D01*
X-543950Y-372400D01*
X-542990Y-373460D01*
X-541860Y-374090D01*
X-537840D01*
G01X-541860D02*
X-544270Y-380230D01*
G01X-550470Y-377690D02*
X-551430Y-379170D01*
X-552720Y-380020D01*
X-554170Y-380230D01*
X-555450Y-380020D01*
X-556740Y-378960D01*
X-557540Y-377690D01*
X-557700Y-376420D01*
X-557380Y-374940D01*
X-556260Y-373880D01*
X-555130Y-373460D01*
X-553680D01*
G01X-555130D02*
X-556100Y-372820D01*
X-556900Y-371760D01*
X-557220Y-370490D01*
X-556900Y-369220D01*
X-556100Y-368170D01*
X-554650Y-367530D01*
X-553200Y-367740D01*
X-551750Y-368590D01*
G01X-563420Y-377690D02*
X-564380Y-379170D01*
X-565670Y-380020D01*
X-567120Y-380230D01*
X-568400Y-380020D01*
X-569690Y-378960D01*
X-570490Y-377690D01*
X-570650Y-376420D01*
X-570330Y-374940D01*
X-569210Y-373880D01*
X-568080Y-373460D01*
X-566630D01*
G01X-568080D02*
X-569050Y-372820D01*
X-569850Y-371760D01*
X-570170Y-370490D01*
X-569850Y-369220D01*
X-569050Y-368170D01*
X-567600Y-367530D01*
X-566150Y-367740D01*
X-564700Y-368590D01*
G01X-485840Y-404240D02*
Y-391540D01*
X-489860D01*
X-491150Y-392180D01*
X-491950Y-393020D01*
X-492270Y-394720D01*
X-491950Y-396410D01*
X-490990Y-397470D01*
X-489860Y-398100D01*
X-485840D01*
G01X-489860D02*
X-492270Y-404240D01*
G01X-498470Y-401700D02*
X-499430Y-403180D01*
X-500720Y-404030D01*
X-502170Y-404240D01*
X-503450Y-404030D01*
X-504740Y-402970D01*
X-505540Y-401700D01*
X-505700Y-400430D01*
X-505380Y-398950D01*
X-504260Y-397890D01*
X-503130Y-397470D01*
X-501680D01*
G01X-503130D02*
X-504100Y-396830D01*
X-504900Y-395770D01*
X-505220Y-394500D01*
X-504900Y-393230D01*
X-504100Y-392180D01*
X-502650Y-391540D01*
X-501200Y-391750D01*
X-499750Y-392600D01*
G01X-514630Y-404240D02*
X-514950Y-401490D01*
X-515440Y-399160D01*
X-516080Y-397040D01*
X-516890Y-394720D01*
X-518170Y-391540D01*
X-511740D01*
G01X-537840Y-278230D02*
Y-265530D01*
X-541860D01*
X-543150Y-266170D01*
X-543950Y-267010D01*
X-544270Y-268710D01*
X-543950Y-270400D01*
X-542990Y-271460D01*
X-541860Y-272090D01*
X-537840D01*
G01X-541860D02*
X-544270Y-278230D01*
G01X-550950Y-267650D02*
X-551910Y-266380D01*
X-553040Y-265740D01*
X-554330Y-265530D01*
X-555940Y-265950D01*
X-557060Y-267010D01*
X-557380Y-268280D01*
X-557220Y-269550D01*
X-556580Y-270610D01*
X-553360Y-272730D01*
X-551910Y-274210D01*
X-550950Y-276330D01*
X-550630Y-278230D01*
X-557380D01*
G01X-566630D02*
X-566950Y-275480D01*
X-567440Y-273150D01*
X-568080Y-271030D01*
X-568890Y-268710D01*
X-570170Y-265530D01*
X-563740D01*
G01X-537840Y-176230D02*
Y-163530D01*
X-541860D01*
X-543150Y-164170D01*
X-543950Y-165010D01*
X-544270Y-166710D01*
X-543950Y-168400D01*
X-542990Y-169460D01*
X-541860Y-170090D01*
X-537840D01*
G01X-541860D02*
X-544270Y-176230D01*
G01X-550950Y-165650D02*
X-551910Y-164380D01*
X-553040Y-163740D01*
X-554330Y-163530D01*
X-555940Y-163950D01*
X-557060Y-165010D01*
X-557380Y-166280D01*
X-557220Y-167550D01*
X-556580Y-168610D01*
X-553360Y-170730D01*
X-551910Y-172210D01*
X-550950Y-174330D01*
X-550630Y-176230D01*
X-557380D01*
G01X-566950D02*
Y-163530D01*
X-565020Y-166070D01*
G01Y-176230D02*
X-568880D01*
G01X-546310Y-74230D02*
Y-61530D01*
X-550330D01*
X-551620Y-62170D01*
X-552420Y-63010D01*
X-552740Y-64710D01*
X-552420Y-66400D01*
X-551460Y-67460D01*
X-550330Y-68090D01*
X-546310D01*
G01X-550330D02*
X-552740Y-74230D01*
G01X-559740Y-72750D02*
X-560870Y-73810D01*
X-562150Y-74230D01*
X-563440Y-73810D01*
X-564570Y-72540D01*
X-565370Y-70630D01*
X-565690Y-68730D01*
Y-66400D01*
X-565370Y-64490D01*
X-564570Y-62800D01*
X-563600Y-61950D01*
X-562470Y-61530D01*
X-561190Y-61950D01*
X-560220Y-62800D01*
X-559580Y-64070D01*
X-559260Y-65760D01*
X-559580Y-67240D01*
X-560380Y-68730D01*
X-561350Y-69570D01*
X-562470Y-69790D01*
X-563760Y-69360D01*
X-564730Y-68300D01*
X-565690Y-66400D01*
G01X-535030Y34470D02*
X-539050Y21770D01*
X-543080Y34470D01*
G01X-548470Y21770D02*
Y34470D01*
X-551680D01*
X-552970Y33830D01*
X-553940Y32990D01*
X-554740Y31720D01*
X-555380Y30240D01*
X-555540Y28120D01*
X-555380Y26000D01*
X-554740Y24520D01*
X-553940Y23250D01*
X-552970Y22400D01*
X-551680Y21770D01*
X-548470D01*
G01X-561420Y23670D02*
X-562380Y22620D01*
X-563510Y21980D01*
X-564950Y21770D01*
X-566400Y22190D01*
X-567530Y23040D01*
X-568330Y24520D01*
X-568490Y26210D01*
X-568170Y27910D01*
X-567370Y28970D01*
X-566240Y29810D01*
X-565120Y30020D01*
X-563990Y29810D01*
X-562540Y28970D01*
X-563020Y34470D01*
X-567370D01*
G01X-432550Y-1763530D02*
X-436570Y-1776230D01*
X-440600Y-1763530D01*
G01X-445990Y-1776230D02*
Y-1763530D01*
X-449200D01*
X-450490Y-1764170D01*
X-451460Y-1765010D01*
X-452260Y-1766280D01*
X-452900Y-1767760D01*
X-453060Y-1769880D01*
X-452900Y-1772000D01*
X-452260Y-1773480D01*
X-451460Y-1774750D01*
X-450490Y-1775600D01*
X-449200Y-1776230D01*
X-445990D01*
G01X-462470D02*
X-463600Y-1776020D01*
X-464890Y-1775380D01*
X-465690Y-1774330D01*
X-466010Y-1772840D01*
X-465690Y-1771360D01*
X-464730Y-1770090D01*
X-463280Y-1769460D01*
X-461670D01*
X-460710Y-1769030D01*
X-459900Y-1767980D01*
X-459580Y-1766490D01*
X-460060Y-1765010D01*
X-461190Y-1763950D01*
X-462470Y-1763530D01*
X-463760Y-1763950D01*
X-464890Y-1765010D01*
X-465370Y-1766490D01*
X-465050Y-1767980D01*
X-464240Y-1769030D01*
X-463280Y-1769460D01*
X-461670D01*
X-460220Y-1770090D01*
X-459260Y-1771360D01*
X-458940Y-1772840D01*
X-459260Y-1774330D01*
X-460060Y-1775380D01*
X-461350Y-1776020D01*
X-462470Y-1776230D01*
G01X-471890Y-1773690D02*
X-472850Y-1775170D01*
X-474140Y-1776020D01*
X-475590Y-1776230D01*
X-476870Y-1776020D01*
X-478160Y-1774960D01*
X-478960Y-1773690D01*
X-479120Y-1772420D01*
X-478800Y-1770940D01*
X-477680Y-1769880D01*
X-476550Y-1769460D01*
X-475100D01*
G01X-476550D02*
X-477520Y-1768820D01*
X-478320Y-1767760D01*
X-478640Y-1766490D01*
X-478320Y-1765220D01*
X-477520Y-1764170D01*
X-476070Y-1763530D01*
X-474620Y-1763740D01*
X-473170Y-1764590D01*
G01X-443830Y-1678240D02*
Y-1665540D01*
X-447850D01*
X-449140Y-1666180D01*
X-449940Y-1667020D01*
X-450260Y-1668720D01*
X-449940Y-1670410D01*
X-448980Y-1671470D01*
X-447850Y-1672100D01*
X-443830D01*
G01X-447850D02*
X-450260Y-1678240D01*
G01X-457260Y-1676760D02*
X-458390Y-1677820D01*
X-459670Y-1678240D01*
X-460960Y-1677820D01*
X-462090Y-1676550D01*
X-462890Y-1674640D01*
X-463210Y-1672740D01*
Y-1670410D01*
X-462890Y-1668500D01*
X-462090Y-1666810D01*
X-461120Y-1665960D01*
X-459990Y-1665540D01*
X-458710Y-1665960D01*
X-457740Y-1666810D01*
X-457100Y-1668080D01*
X-456780Y-1669770D01*
X-457100Y-1671250D01*
X-457900Y-1672740D01*
X-458870Y-1673580D01*
X-459990Y-1673800D01*
X-461280Y-1673370D01*
X-462250Y-1672310D01*
X-463210Y-1670410D01*
G01X-472940Y-1665540D02*
X-471660Y-1665960D01*
X-470690Y-1667020D01*
X-470050Y-1668290D01*
X-469570Y-1669990D01*
X-469410Y-1671890D01*
X-469570Y-1673800D01*
X-470050Y-1675490D01*
X-470690Y-1676760D01*
X-471660Y-1677820D01*
X-472940Y-1678240D01*
X-474230Y-1677820D01*
X-475200Y-1676760D01*
X-475840Y-1675490D01*
X-476320Y-1673800D01*
X-476480Y-1671890D01*
X-476320Y-1669990D01*
X-475840Y-1668290D01*
X-475200Y-1667020D01*
X-474230Y-1665960D01*
X-472940Y-1665540D01*
G01X-483830Y-1678240D02*
Y-1665540D01*
X-487850D01*
X-489140Y-1666180D01*
X-489940Y-1667020D01*
X-490260Y-1668720D01*
X-489940Y-1670410D01*
X-488980Y-1671470D01*
X-487850Y-1672100D01*
X-483830D01*
G01X-487850D02*
X-490260Y-1678240D01*
G01X-497260Y-1676760D02*
X-498390Y-1677820D01*
X-499670Y-1678240D01*
X-500960Y-1677820D01*
X-502090Y-1676550D01*
X-502890Y-1674640D01*
X-503210Y-1672740D01*
Y-1670410D01*
X-502890Y-1668500D01*
X-502090Y-1666810D01*
X-501120Y-1665960D01*
X-499990Y-1665540D01*
X-498710Y-1665960D01*
X-497740Y-1666810D01*
X-497100Y-1668080D01*
X-496780Y-1669770D01*
X-497100Y-1671250D01*
X-497900Y-1672740D01*
X-498870Y-1673580D01*
X-499990Y-1673800D01*
X-501280Y-1673370D01*
X-502250Y-1672310D01*
X-503210Y-1670410D01*
G01X-512940Y-1678240D02*
Y-1665540D01*
X-511010Y-1668080D01*
G01Y-1678240D02*
X-514870D01*
G01X-432550Y-1561530D02*
X-436570Y-1574230D01*
X-440600Y-1561530D01*
G01X-445990Y-1574230D02*
Y-1561530D01*
X-449200D01*
X-450490Y-1562170D01*
X-451460Y-1563010D01*
X-452260Y-1564280D01*
X-452900Y-1565760D01*
X-453060Y-1567880D01*
X-452900Y-1570000D01*
X-452260Y-1571480D01*
X-451460Y-1572750D01*
X-450490Y-1573600D01*
X-449200Y-1574230D01*
X-445990D01*
G01X-462150D02*
X-462470Y-1571480D01*
X-462960Y-1569150D01*
X-463600Y-1567030D01*
X-464410Y-1564710D01*
X-465690Y-1561530D01*
X-459260D01*
G01X-471890Y-1571690D02*
X-472850Y-1573170D01*
X-474140Y-1574020D01*
X-475590Y-1574230D01*
X-476870Y-1574020D01*
X-478160Y-1572960D01*
X-478960Y-1571690D01*
X-479120Y-1570420D01*
X-478800Y-1568940D01*
X-477680Y-1567880D01*
X-476550Y-1567460D01*
X-475100D01*
G01X-476550D02*
X-477520Y-1566820D01*
X-478320Y-1565760D01*
X-478640Y-1564490D01*
X-478320Y-1563220D01*
X-477520Y-1562170D01*
X-476070Y-1561530D01*
X-474620Y-1561740D01*
X-473170Y-1562590D01*
G01X-443830Y-1474240D02*
Y-1461540D01*
X-447850D01*
X-449140Y-1462180D01*
X-449940Y-1463020D01*
X-450260Y-1464720D01*
X-449940Y-1466410D01*
X-448980Y-1467470D01*
X-447850Y-1468100D01*
X-443830D01*
G01X-447850D02*
X-450260Y-1474240D01*
G01X-459670D02*
X-459990Y-1471490D01*
X-460480Y-1469160D01*
X-461120Y-1467040D01*
X-461930Y-1464720D01*
X-463210Y-1461540D01*
X-456780D01*
G01X-472940Y-1474240D02*
X-474070Y-1474030D01*
X-475360Y-1473390D01*
X-476160Y-1472340D01*
X-476480Y-1470850D01*
X-476160Y-1469370D01*
X-475200Y-1468100D01*
X-473750Y-1467470D01*
X-472140D01*
X-471180Y-1467040D01*
X-470370Y-1465990D01*
X-470050Y-1464500D01*
X-470530Y-1463020D01*
X-471660Y-1461960D01*
X-472940Y-1461540D01*
X-474230Y-1461960D01*
X-475360Y-1463020D01*
X-475840Y-1464500D01*
X-475520Y-1465990D01*
X-474710Y-1467040D01*
X-473750Y-1467470D01*
X-472140D01*
X-470690Y-1468100D01*
X-469730Y-1469370D01*
X-469410Y-1470850D01*
X-469730Y-1472340D01*
X-470530Y-1473390D01*
X-471820Y-1474030D01*
X-472940Y-1474240D01*
G01X-483840Y-1472240D02*
Y-1459540D01*
X-487860D01*
X-489150Y-1460180D01*
X-489950Y-1461020D01*
X-490270Y-1462720D01*
X-489950Y-1464410D01*
X-488990Y-1465470D01*
X-487860Y-1466100D01*
X-483840D01*
G01X-487860D02*
X-490270Y-1472240D01*
G01X-499680D02*
X-500000Y-1469490D01*
X-500490Y-1467160D01*
X-501130Y-1465040D01*
X-501940Y-1462720D01*
X-503220Y-1459540D01*
X-496790D01*
G01X-510220Y-1470760D02*
X-511350Y-1471820D01*
X-512630Y-1472240D01*
X-513920Y-1471820D01*
X-515050Y-1470550D01*
X-515850Y-1468640D01*
X-516170Y-1466740D01*
Y-1464410D01*
X-515850Y-1462500D01*
X-515050Y-1460810D01*
X-514080Y-1459960D01*
X-512950Y-1459540D01*
X-511670Y-1459960D01*
X-510700Y-1460810D01*
X-510060Y-1462080D01*
X-509740Y-1463770D01*
X-510060Y-1465250D01*
X-510860Y-1466740D01*
X-511830Y-1467580D01*
X-512950Y-1467800D01*
X-514240Y-1467370D01*
X-515210Y-1466310D01*
X-516170Y-1464410D01*
G01X-432550Y-1357530D02*
X-436570Y-1370230D01*
X-440600Y-1357530D01*
G01X-445990Y-1370230D02*
Y-1357530D01*
X-449200D01*
X-450490Y-1358170D01*
X-451460Y-1359010D01*
X-452260Y-1360280D01*
X-452900Y-1361760D01*
X-453060Y-1363880D01*
X-452900Y-1366000D01*
X-452260Y-1367480D01*
X-451460Y-1368750D01*
X-450490Y-1369600D01*
X-449200Y-1370230D01*
X-445990D01*
G01X-459420Y-1364940D02*
X-460540Y-1363460D01*
X-461510Y-1362610D01*
X-462800Y-1362190D01*
X-463920Y-1362610D01*
X-464730Y-1363460D01*
X-465370Y-1364730D01*
X-465530Y-1366210D01*
X-465370Y-1367480D01*
X-464730Y-1368750D01*
X-463760Y-1369810D01*
X-462640Y-1370230D01*
X-461350Y-1369810D01*
X-460220Y-1368540D01*
X-459580Y-1366630D01*
X-459420Y-1364520D01*
X-459740Y-1361760D01*
X-460220Y-1360280D01*
X-461030Y-1358800D01*
X-462150Y-1357740D01*
X-463280Y-1357530D01*
X-464410Y-1357950D01*
X-465210Y-1359010D01*
G01X-471890Y-1367690D02*
X-472850Y-1369170D01*
X-474140Y-1370020D01*
X-475590Y-1370230D01*
X-476870Y-1370020D01*
X-478160Y-1368960D01*
X-478960Y-1367690D01*
X-479120Y-1366420D01*
X-478800Y-1364940D01*
X-477680Y-1363880D01*
X-476550Y-1363460D01*
X-475100D01*
G01X-476550D02*
X-477520Y-1362820D01*
X-478320Y-1361760D01*
X-478640Y-1360490D01*
X-478320Y-1359220D01*
X-477520Y-1358170D01*
X-476070Y-1357530D01*
X-474620Y-1357740D01*
X-473170Y-1358590D01*
G01X-443830Y-1272240D02*
Y-1259540D01*
X-447850D01*
X-449140Y-1260180D01*
X-449940Y-1261020D01*
X-450260Y-1262720D01*
X-449940Y-1264410D01*
X-448980Y-1265470D01*
X-447850Y-1266100D01*
X-443830D01*
G01X-447850D02*
X-450260Y-1272240D01*
G01X-456940Y-1266950D02*
X-458060Y-1265470D01*
X-459030Y-1264620D01*
X-460320Y-1264200D01*
X-461440Y-1264620D01*
X-462250Y-1265470D01*
X-462890Y-1266740D01*
X-463050Y-1268220D01*
X-462890Y-1269490D01*
X-462250Y-1270760D01*
X-461280Y-1271820D01*
X-460160Y-1272240D01*
X-458870Y-1271820D01*
X-457740Y-1270550D01*
X-457100Y-1268640D01*
X-456940Y-1266530D01*
X-457260Y-1263770D01*
X-457740Y-1262290D01*
X-458550Y-1260810D01*
X-459670Y-1259750D01*
X-460800Y-1259540D01*
X-461930Y-1259960D01*
X-462730Y-1261020D01*
G01X-469890Y-1266950D02*
X-471010Y-1265470D01*
X-471980Y-1264620D01*
X-473270Y-1264200D01*
X-474390Y-1264620D01*
X-475200Y-1265470D01*
X-475840Y-1266740D01*
X-476000Y-1268220D01*
X-475840Y-1269490D01*
X-475200Y-1270760D01*
X-474230Y-1271820D01*
X-473110Y-1272240D01*
X-471820Y-1271820D01*
X-470690Y-1270550D01*
X-470050Y-1268640D01*
X-469890Y-1266530D01*
X-470210Y-1263770D01*
X-470690Y-1262290D01*
X-471500Y-1260810D01*
X-472620Y-1259750D01*
X-473750Y-1259540D01*
X-474880Y-1259960D01*
X-475680Y-1261020D01*
G01X-483830Y-1272240D02*
Y-1259540D01*
X-487850D01*
X-489140Y-1260180D01*
X-489940Y-1261020D01*
X-490260Y-1262720D01*
X-489940Y-1264410D01*
X-488980Y-1265470D01*
X-487850Y-1266100D01*
X-483830D01*
G01X-487850D02*
X-490260Y-1272240D01*
G01X-496940Y-1266950D02*
X-498060Y-1265470D01*
X-499030Y-1264620D01*
X-500320Y-1264200D01*
X-501440Y-1264620D01*
X-502250Y-1265470D01*
X-502890Y-1266740D01*
X-503050Y-1268220D01*
X-502890Y-1269490D01*
X-502250Y-1270760D01*
X-501280Y-1271820D01*
X-500160Y-1272240D01*
X-498870Y-1271820D01*
X-497740Y-1270550D01*
X-497100Y-1268640D01*
X-496940Y-1266530D01*
X-497260Y-1263770D01*
X-497740Y-1262290D01*
X-498550Y-1260810D01*
X-499670Y-1259750D01*
X-500800Y-1259540D01*
X-501930Y-1259960D01*
X-502730Y-1261020D01*
G01X-512620Y-1272240D02*
X-512940Y-1269490D01*
X-513430Y-1267160D01*
X-514070Y-1265040D01*
X-514880Y-1262720D01*
X-516160Y-1259540D01*
X-509730D01*
G01X-434550Y-1155530D02*
X-438570Y-1168230D01*
X-442600Y-1155530D01*
G01X-447990Y-1168230D02*
Y-1155530D01*
X-451200D01*
X-452490Y-1156170D01*
X-453460Y-1157010D01*
X-454260Y-1158280D01*
X-454900Y-1159760D01*
X-455060Y-1161880D01*
X-454900Y-1164000D01*
X-454260Y-1165480D01*
X-453460Y-1166750D01*
X-452490Y-1167600D01*
X-451200Y-1168230D01*
X-447990D01*
G01X-460940Y-1166330D02*
X-461900Y-1167380D01*
X-463030Y-1168020D01*
X-464470Y-1168230D01*
X-465920Y-1167810D01*
X-467050Y-1166960D01*
X-467850Y-1165480D01*
X-468010Y-1163790D01*
X-467690Y-1162090D01*
X-466890Y-1161030D01*
X-465760Y-1160190D01*
X-464640Y-1159980D01*
X-463510Y-1160190D01*
X-462060Y-1161030D01*
X-462540Y-1155530D01*
X-466890D01*
G01X-473890Y-1165690D02*
X-474850Y-1167170D01*
X-476140Y-1168020D01*
X-477590Y-1168230D01*
X-478870Y-1168020D01*
X-480160Y-1166960D01*
X-480960Y-1165690D01*
X-481120Y-1164420D01*
X-480800Y-1162940D01*
X-479680Y-1161880D01*
X-478550Y-1161460D01*
X-477100D01*
G01X-478550D02*
X-479520Y-1160820D01*
X-480320Y-1159760D01*
X-480640Y-1158490D01*
X-480320Y-1157220D01*
X-479520Y-1156170D01*
X-478070Y-1155530D01*
X-476620Y-1155740D01*
X-475170Y-1156590D01*
G01X-443830Y-1070240D02*
Y-1057540D01*
X-447850D01*
X-449140Y-1058180D01*
X-449940Y-1059020D01*
X-450260Y-1060720D01*
X-449940Y-1062410D01*
X-448980Y-1063470D01*
X-447850Y-1064100D01*
X-443830D01*
G01X-447850D02*
X-450260Y-1070240D01*
G01X-459990D02*
Y-1057540D01*
X-458060Y-1060080D01*
G01Y-1070240D02*
X-461920D01*
G01X-469890Y-1059660D02*
X-470850Y-1058390D01*
X-471980Y-1057750D01*
X-473270Y-1057540D01*
X-474880Y-1057960D01*
X-476000Y-1059020D01*
X-476320Y-1060290D01*
X-476160Y-1061560D01*
X-475520Y-1062620D01*
X-472300Y-1064740D01*
X-470850Y-1066220D01*
X-469890Y-1068340D01*
X-469570Y-1070240D01*
X-476320D01*
G01X-483830D02*
Y-1057540D01*
X-487850D01*
X-489140Y-1058180D01*
X-489940Y-1059020D01*
X-490260Y-1060720D01*
X-489940Y-1062410D01*
X-488980Y-1063470D01*
X-487850Y-1064100D01*
X-483830D01*
G01X-487850D02*
X-490260Y-1070240D01*
G01X-499990D02*
Y-1057540D01*
X-498060Y-1060080D01*
G01Y-1070240D02*
X-501920D01*
G01X-514880D02*
Y-1057540D01*
X-508920Y-1066640D01*
X-516970D01*
G01X-432550Y-691530D02*
X-436570Y-704230D01*
X-440600Y-691530D01*
G01X-445990Y-704230D02*
Y-691530D01*
X-449200D01*
X-450490Y-692170D01*
X-451460Y-693010D01*
X-452260Y-694280D01*
X-452900Y-695760D01*
X-453060Y-697880D01*
X-452900Y-700000D01*
X-452260Y-701480D01*
X-451460Y-702750D01*
X-450490Y-703600D01*
X-449200Y-704230D01*
X-445990D01*
G01X-464410D02*
Y-691530D01*
X-458450Y-700630D01*
X-466500D01*
G01X-475420Y-704230D02*
X-476550Y-704020D01*
X-477840Y-703380D01*
X-478640Y-702330D01*
X-478960Y-700840D01*
X-478640Y-699360D01*
X-477680Y-698090D01*
X-476230Y-697460D01*
X-474620D01*
X-473660Y-697030D01*
X-472850Y-695980D01*
X-472530Y-694490D01*
X-473010Y-693010D01*
X-474140Y-691950D01*
X-475420Y-691530D01*
X-476710Y-691950D01*
X-477840Y-693010D01*
X-478320Y-694490D01*
X-478000Y-695980D01*
X-477190Y-697030D01*
X-476230Y-697460D01*
X-474620D01*
X-473170Y-698090D01*
X-472210Y-699360D01*
X-471890Y-700840D01*
X-472210Y-702330D01*
X-473010Y-703380D01*
X-474300Y-704020D01*
X-475420Y-704230D01*
G01X-443840Y-606240D02*
Y-593540D01*
X-447860D01*
X-449150Y-594180D01*
X-449950Y-595020D01*
X-450270Y-596720D01*
X-449950Y-598410D01*
X-448990Y-599470D01*
X-447860Y-600100D01*
X-443840D01*
G01X-447860D02*
X-450270Y-606240D01*
G01X-461940D02*
Y-593540D01*
X-455980Y-602640D01*
X-464030D01*
G01X-472950Y-606240D02*
X-474080Y-606030D01*
X-475370Y-605390D01*
X-476170Y-604340D01*
X-476490Y-602850D01*
X-476170Y-601370D01*
X-475210Y-600100D01*
X-473760Y-599470D01*
X-472150D01*
X-471190Y-599040D01*
X-470380Y-597990D01*
X-470060Y-596500D01*
X-470540Y-595020D01*
X-471670Y-593960D01*
X-472950Y-593540D01*
X-474240Y-593960D01*
X-475370Y-595020D01*
X-475850Y-596500D01*
X-475530Y-597990D01*
X-474720Y-599040D01*
X-473760Y-599470D01*
X-472150D01*
X-470700Y-600100D01*
X-469740Y-601370D01*
X-469420Y-602850D01*
X-469740Y-604340D01*
X-470540Y-605390D01*
X-471830Y-606030D01*
X-472950Y-606240D01*
G01X-483840Y-606230D02*
Y-593530D01*
X-487860D01*
X-489150Y-594170D01*
X-489950Y-595010D01*
X-490270Y-596710D01*
X-489950Y-598400D01*
X-488990Y-599460D01*
X-487860Y-600090D01*
X-483840D01*
G01X-487860D02*
X-490270Y-606230D01*
G01X-501940D02*
Y-593530D01*
X-495980Y-602630D01*
X-504030D01*
G01X-510220Y-604750D02*
X-511350Y-605810D01*
X-512630Y-606230D01*
X-513920Y-605810D01*
X-515050Y-604540D01*
X-515850Y-602630D01*
X-516170Y-600730D01*
Y-598400D01*
X-515850Y-596490D01*
X-515050Y-594800D01*
X-514080Y-593950D01*
X-512950Y-593530D01*
X-511670Y-593950D01*
X-510700Y-594800D01*
X-510060Y-596070D01*
X-509740Y-597760D01*
X-510060Y-599240D01*
X-510860Y-600730D01*
X-511830Y-601570D01*
X-512950Y-601790D01*
X-514240Y-601360D01*
X-515210Y-600300D01*
X-516170Y-598400D01*
G01X-432550Y-489530D02*
X-436570Y-502230D01*
X-440600Y-489530D01*
G01X-445990Y-502230D02*
Y-489530D01*
X-449200D01*
X-450490Y-490170D01*
X-451460Y-491010D01*
X-452260Y-492280D01*
X-452900Y-493760D01*
X-453060Y-495880D01*
X-452900Y-498000D01*
X-452260Y-499480D01*
X-451460Y-500750D01*
X-450490Y-501600D01*
X-449200Y-502230D01*
X-445990D01*
G01X-458940Y-499690D02*
X-459900Y-501170D01*
X-461190Y-502020D01*
X-462640Y-502230D01*
X-463920Y-502020D01*
X-465210Y-500960D01*
X-466010Y-499690D01*
X-466170Y-498420D01*
X-465850Y-496940D01*
X-464730Y-495880D01*
X-463600Y-495460D01*
X-462150D01*
G01X-463600D02*
X-464570Y-494820D01*
X-465370Y-493760D01*
X-465690Y-492490D01*
X-465370Y-491220D01*
X-464570Y-490170D01*
X-463120Y-489530D01*
X-461670Y-489740D01*
X-460220Y-490590D01*
G01X-475420Y-502230D02*
X-476550Y-502020D01*
X-477840Y-501380D01*
X-478640Y-500330D01*
X-478960Y-498840D01*
X-478640Y-497360D01*
X-477680Y-496090D01*
X-476230Y-495460D01*
X-474620D01*
X-473660Y-495030D01*
X-472850Y-493980D01*
X-472530Y-492490D01*
X-473010Y-491010D01*
X-474140Y-489950D01*
X-475420Y-489530D01*
X-476710Y-489950D01*
X-477840Y-491010D01*
X-478320Y-492490D01*
X-478000Y-493980D01*
X-477190Y-495030D01*
X-476230Y-495460D01*
X-474620D01*
X-473170Y-496090D01*
X-472210Y-497360D01*
X-471890Y-498840D01*
X-472210Y-500330D01*
X-473010Y-501380D01*
X-474300Y-502020D01*
X-475420Y-502230D01*
G01X-445840Y-404240D02*
Y-391540D01*
X-449860D01*
X-451150Y-392180D01*
X-451950Y-393020D01*
X-452270Y-394720D01*
X-451950Y-396410D01*
X-450990Y-397470D01*
X-449860Y-398100D01*
X-445840D01*
G01X-449860D02*
X-452270Y-404240D01*
G01X-458470Y-401700D02*
X-459430Y-403180D01*
X-460720Y-404030D01*
X-462170Y-404240D01*
X-463450Y-404030D01*
X-464740Y-402970D01*
X-465540Y-401700D01*
X-465700Y-400430D01*
X-465380Y-398950D01*
X-464260Y-397890D01*
X-463130Y-397470D01*
X-461680D01*
G01X-463130D02*
X-464100Y-396830D01*
X-464900Y-395770D01*
X-465220Y-394500D01*
X-464900Y-393230D01*
X-464100Y-392180D01*
X-462650Y-391540D01*
X-461200Y-391750D01*
X-459750Y-392600D01*
G01X-471900Y-398950D02*
X-473020Y-397470D01*
X-473990Y-396620D01*
X-475280Y-396200D01*
X-476400Y-396620D01*
X-477210Y-397470D01*
X-477850Y-398740D01*
X-478010Y-400220D01*
X-477850Y-401490D01*
X-477210Y-402760D01*
X-476240Y-403820D01*
X-475120Y-404240D01*
X-473830Y-403820D01*
X-472700Y-402550D01*
X-472060Y-400640D01*
X-471900Y-398530D01*
X-472220Y-395770D01*
X-472700Y-394290D01*
X-473510Y-392810D01*
X-474630Y-391750D01*
X-475760Y-391540D01*
X-476890Y-391960D01*
X-477690Y-393020D01*
G01X-432550Y-287530D02*
X-436570Y-300230D01*
X-440600Y-287530D01*
G01X-445990Y-300230D02*
Y-287530D01*
X-449200D01*
X-450490Y-288170D01*
X-451460Y-289010D01*
X-452260Y-290280D01*
X-452900Y-291760D01*
X-453060Y-293880D01*
X-452900Y-296000D01*
X-452260Y-297480D01*
X-451460Y-298750D01*
X-450490Y-299600D01*
X-449200Y-300230D01*
X-445990D01*
G01X-459420Y-289650D02*
X-460380Y-288380D01*
X-461510Y-287740D01*
X-462800Y-287530D01*
X-464410Y-287950D01*
X-465530Y-289010D01*
X-465850Y-290280D01*
X-465690Y-291550D01*
X-465050Y-292610D01*
X-461830Y-294730D01*
X-460380Y-296210D01*
X-459420Y-298330D01*
X-459100Y-300230D01*
X-465850D01*
G01X-475420D02*
X-476550Y-300020D01*
X-477840Y-299380D01*
X-478640Y-298330D01*
X-478960Y-296840D01*
X-478640Y-295360D01*
X-477680Y-294090D01*
X-476230Y-293460D01*
X-474620D01*
X-473660Y-293030D01*
X-472850Y-291980D01*
X-472530Y-290490D01*
X-473010Y-289010D01*
X-474140Y-287950D01*
X-475420Y-287530D01*
X-476710Y-287950D01*
X-477840Y-289010D01*
X-478320Y-290490D01*
X-478000Y-291980D01*
X-477190Y-293030D01*
X-476230Y-293460D01*
X-474620D01*
X-473170Y-294090D01*
X-472210Y-295360D01*
X-471890Y-296840D01*
X-472210Y-298330D01*
X-473010Y-299380D01*
X-474300Y-300020D01*
X-475420Y-300230D01*
G01X-443840Y-200230D02*
Y-187530D01*
X-447860D01*
X-449150Y-188170D01*
X-449950Y-189010D01*
X-450270Y-190710D01*
X-449950Y-192400D01*
X-448990Y-193460D01*
X-447860Y-194090D01*
X-443840D01*
G01X-447860D02*
X-450270Y-200230D01*
G01X-456950Y-189650D02*
X-457910Y-188380D01*
X-459040Y-187740D01*
X-460330Y-187530D01*
X-461940Y-187950D01*
X-463060Y-189010D01*
X-463380Y-190280D01*
X-463220Y-191550D01*
X-462580Y-192610D01*
X-459360Y-194730D01*
X-457910Y-196210D01*
X-456950Y-198330D01*
X-456630Y-200230D01*
X-463380D01*
G01X-474890D02*
Y-187530D01*
X-468930Y-196630D01*
X-476980D01*
G01X-483840Y-200230D02*
Y-187530D01*
X-487860D01*
X-489150Y-188170D01*
X-489950Y-189010D01*
X-490270Y-190710D01*
X-489950Y-192400D01*
X-488990Y-193460D01*
X-487860Y-194090D01*
X-483840D01*
G01X-487860D02*
X-490270Y-200230D01*
G01X-496950Y-189650D02*
X-497910Y-188380D01*
X-499040Y-187740D01*
X-500330Y-187530D01*
X-501940Y-187950D01*
X-503060Y-189010D01*
X-503380Y-190280D01*
X-503220Y-191550D01*
X-502580Y-192610D01*
X-499360Y-194730D01*
X-497910Y-196210D01*
X-496950Y-198330D01*
X-496630Y-200230D01*
X-503380D01*
G01X-509420Y-198330D02*
X-510380Y-199380D01*
X-511510Y-200020D01*
X-512950Y-200230D01*
X-514400Y-199810D01*
X-515530Y-198960D01*
X-516330Y-197480D01*
X-516490Y-195790D01*
X-516170Y-194090D01*
X-515370Y-193030D01*
X-514240Y-192190D01*
X-513120Y-191980D01*
X-511990Y-192190D01*
X-510540Y-193030D01*
X-511020Y-187530D01*
X-515370D01*
G01X-434550Y-81530D02*
X-438570Y-94230D01*
X-442600Y-81530D01*
G01X-447990Y-94230D02*
Y-81530D01*
X-451200D01*
X-452490Y-82170D01*
X-453460Y-83010D01*
X-454260Y-84280D01*
X-454900Y-85760D01*
X-455060Y-87880D01*
X-454900Y-90000D01*
X-454260Y-91480D01*
X-453460Y-92750D01*
X-452490Y-93600D01*
X-451200Y-94230D01*
X-447990D01*
G01X-464470D02*
Y-81530D01*
X-462540Y-84070D01*
G01Y-94230D02*
X-466400D01*
G01X-477420D02*
X-478550Y-94020D01*
X-479840Y-93380D01*
X-480640Y-92330D01*
X-480960Y-90840D01*
X-480640Y-89360D01*
X-479680Y-88090D01*
X-478230Y-87460D01*
X-476620D01*
X-475660Y-87030D01*
X-474850Y-85980D01*
X-474530Y-84490D01*
X-475010Y-83010D01*
X-476140Y-81950D01*
X-477420Y-81530D01*
X-478710Y-81950D01*
X-479840Y-83010D01*
X-480320Y-84490D01*
X-480000Y-85980D01*
X-479190Y-87030D01*
X-478230Y-87460D01*
X-476620D01*
X-475170Y-88090D01*
X-474210Y-89360D01*
X-473890Y-90840D01*
X-474210Y-92330D01*
X-475010Y-93380D01*
X-476300Y-94020D01*
X-477420Y-94230D01*
G01X-456310Y1760D02*
Y14460D01*
X-460330D01*
X-461620Y13820D01*
X-462420Y12980D01*
X-462740Y11280D01*
X-462420Y9590D01*
X-461460Y8530D01*
X-460330Y7900D01*
X-456310D01*
G01X-460330D02*
X-462740Y1760D01*
G01X-469420Y7050D02*
X-470540Y8530D01*
X-471510Y9380D01*
X-472800Y9800D01*
X-473920Y9380D01*
X-474730Y8530D01*
X-475370Y7260D01*
X-475530Y5780D01*
X-475370Y4510D01*
X-474730Y3240D01*
X-473760Y2180D01*
X-472640Y1760D01*
X-471350Y2180D01*
X-470220Y3450D01*
X-469580Y5360D01*
X-469420Y7470D01*
X-469740Y10230D01*
X-470220Y11710D01*
X-471030Y13190D01*
X-472150Y14250D01*
X-473280Y14460D01*
X-474410Y14040D01*
X-475210Y12980D01*
G01X-492310Y1760D02*
Y14460D01*
X-496330D01*
X-497620Y13820D01*
X-498420Y12980D01*
X-498740Y11280D01*
X-498420Y9590D01*
X-497460Y8530D01*
X-496330Y7900D01*
X-492310D01*
G01X-496330D02*
X-498740Y1760D01*
G01X-508470D02*
X-509600Y1970D01*
X-510890Y2610D01*
X-511690Y3660D01*
X-512010Y5150D01*
X-511690Y6630D01*
X-510730Y7900D01*
X-509280Y8530D01*
X-507670D01*
X-506710Y8960D01*
X-505900Y10010D01*
X-505580Y11500D01*
X-506060Y12980D01*
X-507190Y14040D01*
X-508470Y14460D01*
X-509760Y14040D01*
X-510890Y12980D01*
X-511370Y11500D01*
X-511050Y10010D01*
X-510240Y8960D01*
X-509280Y8530D01*
X-507670D01*
X-506220Y7900D01*
X-505260Y6630D01*
X-504940Y5150D01*
X-505260Y3660D01*
X-506060Y2610D01*
X-507350Y1970D01*
X-508470Y1760D01*
G01X-409020Y18470D02*
X-413040Y5770D01*
X-417070Y18470D01*
G01X-422460Y5770D02*
Y18470D01*
X-425670D01*
X-426960Y17830D01*
X-427930Y16990D01*
X-428730Y15720D01*
X-429370Y14240D01*
X-429530Y12120D01*
X-429370Y10000D01*
X-428730Y8520D01*
X-427930Y7250D01*
X-426960Y6400D01*
X-425670Y5770D01*
X-422460D01*
G01X-435890Y11060D02*
X-437010Y12540D01*
X-437980Y13390D01*
X-439270Y13810D01*
X-440390Y13390D01*
X-441200Y12540D01*
X-441840Y11270D01*
X-442000Y9790D01*
X-441840Y8520D01*
X-441200Y7250D01*
X-440230Y6190D01*
X-439110Y5770D01*
X-437820Y6190D01*
X-436690Y7460D01*
X-436050Y9370D01*
X-435890Y11480D01*
X-436210Y14240D01*
X-436690Y15720D01*
X-437500Y17200D01*
X-438620Y18260D01*
X-439750Y18470D01*
X-440880Y18050D01*
X-441680Y16990D01*
G01X-383830Y-1778240D02*
Y-1765540D01*
X-387850D01*
X-389140Y-1766180D01*
X-389940Y-1767020D01*
X-390260Y-1768720D01*
X-389940Y-1770410D01*
X-388980Y-1771470D01*
X-387850Y-1772100D01*
X-383830D01*
G01X-387850D02*
X-390260Y-1778240D01*
G01X-397260Y-1776760D02*
X-398390Y-1777820D01*
X-399670Y-1778240D01*
X-400960Y-1777820D01*
X-402090Y-1776550D01*
X-402890Y-1774640D01*
X-403210Y-1772740D01*
Y-1770410D01*
X-402890Y-1768500D01*
X-402090Y-1766810D01*
X-401120Y-1765960D01*
X-399990Y-1765540D01*
X-398710Y-1765960D01*
X-397740Y-1766810D01*
X-397100Y-1768080D01*
X-396780Y-1769770D01*
X-397100Y-1771250D01*
X-397900Y-1772740D01*
X-398870Y-1773580D01*
X-399990Y-1773800D01*
X-401280Y-1773370D01*
X-402250Y-1772310D01*
X-403210Y-1770410D01*
G01X-409890Y-1772950D02*
X-411010Y-1771470D01*
X-411980Y-1770620D01*
X-413270Y-1770200D01*
X-414390Y-1770620D01*
X-415200Y-1771470D01*
X-415840Y-1772740D01*
X-416000Y-1774220D01*
X-415840Y-1775490D01*
X-415200Y-1776760D01*
X-414230Y-1777820D01*
X-413110Y-1778240D01*
X-411820Y-1777820D01*
X-410690Y-1776550D01*
X-410050Y-1774640D01*
X-409890Y-1772530D01*
X-410210Y-1769770D01*
X-410690Y-1768290D01*
X-411500Y-1766810D01*
X-412620Y-1765750D01*
X-413750Y-1765540D01*
X-414880Y-1765960D01*
X-415680Y-1767020D01*
G01X-341830Y-1778240D02*
Y-1765540D01*
X-345850D01*
X-347140Y-1766180D01*
X-347940Y-1767020D01*
X-348260Y-1768720D01*
X-347940Y-1770410D01*
X-346980Y-1771470D01*
X-345850Y-1772100D01*
X-341830D01*
G01X-345850D02*
X-348260Y-1778240D01*
G01X-355260Y-1776760D02*
X-356390Y-1777820D01*
X-357670Y-1778240D01*
X-358960Y-1777820D01*
X-360090Y-1776550D01*
X-360890Y-1774640D01*
X-361210Y-1772740D01*
Y-1770410D01*
X-360890Y-1768500D01*
X-360090Y-1766810D01*
X-359120Y-1765960D01*
X-357990Y-1765540D01*
X-356710Y-1765960D01*
X-355740Y-1766810D01*
X-355100Y-1768080D01*
X-354780Y-1769770D01*
X-355100Y-1771250D01*
X-355900Y-1772740D01*
X-356870Y-1773580D01*
X-357990Y-1773800D01*
X-359280Y-1773370D01*
X-360250Y-1772310D01*
X-361210Y-1770410D01*
G01X-370620Y-1778240D02*
X-370940Y-1775490D01*
X-371430Y-1773160D01*
X-372070Y-1771040D01*
X-372880Y-1768720D01*
X-374160Y-1765540D01*
X-367730D01*
G01X-384550Y-1663530D02*
X-388570Y-1676230D01*
X-392600Y-1663530D01*
G01X-397990Y-1676230D02*
Y-1663530D01*
X-401200D01*
X-402490Y-1664170D01*
X-403460Y-1665010D01*
X-404260Y-1666280D01*
X-404900Y-1667760D01*
X-405060Y-1669880D01*
X-404900Y-1672000D01*
X-404260Y-1673480D01*
X-403460Y-1674750D01*
X-402490Y-1675600D01*
X-401200Y-1676230D01*
X-397990D01*
G01X-414150D02*
X-414470Y-1673480D01*
X-414960Y-1671150D01*
X-415600Y-1669030D01*
X-416410Y-1666710D01*
X-417690Y-1663530D01*
X-411260D01*
G01X-427420Y-1676230D02*
X-428550Y-1676020D01*
X-429840Y-1675380D01*
X-430640Y-1674330D01*
X-430960Y-1672840D01*
X-430640Y-1671360D01*
X-429680Y-1670090D01*
X-428230Y-1669460D01*
X-426620D01*
X-425660Y-1669030D01*
X-424850Y-1667980D01*
X-424530Y-1666490D01*
X-425010Y-1665010D01*
X-426140Y-1663950D01*
X-427420Y-1663530D01*
X-428710Y-1663950D01*
X-429840Y-1665010D01*
X-430320Y-1666490D01*
X-430000Y-1667980D01*
X-429190Y-1669030D01*
X-428230Y-1669460D01*
X-426620D01*
X-425170Y-1670090D01*
X-424210Y-1671360D01*
X-423890Y-1672840D01*
X-424210Y-1674330D01*
X-425010Y-1675380D01*
X-426300Y-1676020D01*
X-427420Y-1676230D01*
G01X-387830Y-1576240D02*
Y-1563540D01*
X-391850D01*
X-393140Y-1564180D01*
X-393940Y-1565020D01*
X-394260Y-1566720D01*
X-393940Y-1568410D01*
X-392980Y-1569470D01*
X-391850Y-1570100D01*
X-387830D01*
G01X-391850D02*
X-394260Y-1576240D01*
G01X-403990D02*
X-405120Y-1576030D01*
X-406410Y-1575390D01*
X-407210Y-1574340D01*
X-407530Y-1572850D01*
X-407210Y-1571370D01*
X-406250Y-1570100D01*
X-404800Y-1569470D01*
X-403190D01*
X-402230Y-1569040D01*
X-401420Y-1567990D01*
X-401100Y-1566500D01*
X-401580Y-1565020D01*
X-402710Y-1563960D01*
X-403990Y-1563540D01*
X-405280Y-1563960D01*
X-406410Y-1565020D01*
X-406890Y-1566500D01*
X-406570Y-1567990D01*
X-405760Y-1569040D01*
X-404800Y-1569470D01*
X-403190D01*
X-401740Y-1570100D01*
X-400780Y-1571370D01*
X-400460Y-1572850D01*
X-400780Y-1574340D01*
X-401580Y-1575390D01*
X-402870Y-1576030D01*
X-403990Y-1576240D01*
G01X-418880D02*
Y-1563540D01*
X-412920Y-1572640D01*
X-420970D01*
G01X-343830Y-1576240D02*
Y-1563540D01*
X-347850D01*
X-349140Y-1564180D01*
X-349940Y-1565020D01*
X-350260Y-1566720D01*
X-349940Y-1568410D01*
X-348980Y-1569470D01*
X-347850Y-1570100D01*
X-343830D01*
G01X-347850D02*
X-350260Y-1576240D01*
G01X-359990D02*
X-361120Y-1576030D01*
X-362410Y-1575390D01*
X-363210Y-1574340D01*
X-363530Y-1572850D01*
X-363210Y-1571370D01*
X-362250Y-1570100D01*
X-360800Y-1569470D01*
X-359190D01*
X-358230Y-1569040D01*
X-357420Y-1567990D01*
X-357100Y-1566500D01*
X-357580Y-1565020D01*
X-358710Y-1563960D01*
X-359990Y-1563540D01*
X-361280Y-1563960D01*
X-362410Y-1565020D01*
X-362890Y-1566500D01*
X-362570Y-1567990D01*
X-361760Y-1569040D01*
X-360800Y-1569470D01*
X-359190D01*
X-357740Y-1570100D01*
X-356780Y-1571370D01*
X-356460Y-1572850D01*
X-356780Y-1574340D01*
X-357580Y-1575390D01*
X-358870Y-1576030D01*
X-359990Y-1576240D01*
G01X-369410Y-1574340D02*
X-370370Y-1575390D01*
X-371500Y-1576030D01*
X-372940Y-1576240D01*
X-374390Y-1575820D01*
X-375520Y-1574970D01*
X-376320Y-1573490D01*
X-376480Y-1571800D01*
X-376160Y-1570100D01*
X-375360Y-1569040D01*
X-374230Y-1568200D01*
X-373110Y-1567990D01*
X-371980Y-1568200D01*
X-370530Y-1569040D01*
X-371010Y-1563540D01*
X-375360D01*
G01X-382550Y-1459530D02*
X-386570Y-1472230D01*
X-390600Y-1459530D01*
G01X-395990Y-1472230D02*
Y-1459530D01*
X-399200D01*
X-400490Y-1460170D01*
X-401460Y-1461010D01*
X-402260Y-1462280D01*
X-402900Y-1463760D01*
X-403060Y-1465880D01*
X-402900Y-1468000D01*
X-402260Y-1469480D01*
X-401460Y-1470750D01*
X-400490Y-1471600D01*
X-399200Y-1472230D01*
X-395990D01*
G01X-409420Y-1466940D02*
X-410540Y-1465460D01*
X-411510Y-1464610D01*
X-412800Y-1464190D01*
X-413920Y-1464610D01*
X-414730Y-1465460D01*
X-415370Y-1466730D01*
X-415530Y-1468210D01*
X-415370Y-1469480D01*
X-414730Y-1470750D01*
X-413760Y-1471810D01*
X-412640Y-1472230D01*
X-411350Y-1471810D01*
X-410220Y-1470540D01*
X-409580Y-1468630D01*
X-409420Y-1466520D01*
X-409740Y-1463760D01*
X-410220Y-1462280D01*
X-411030Y-1460800D01*
X-412150Y-1459740D01*
X-413280Y-1459530D01*
X-414410Y-1459950D01*
X-415210Y-1461010D01*
G01X-425420Y-1472230D02*
X-426550Y-1472020D01*
X-427840Y-1471380D01*
X-428640Y-1470330D01*
X-428960Y-1468840D01*
X-428640Y-1467360D01*
X-427680Y-1466090D01*
X-426230Y-1465460D01*
X-424620D01*
X-423660Y-1465030D01*
X-422850Y-1463980D01*
X-422530Y-1462490D01*
X-423010Y-1461010D01*
X-424140Y-1459950D01*
X-425420Y-1459530D01*
X-426710Y-1459950D01*
X-427840Y-1461010D01*
X-428320Y-1462490D01*
X-428000Y-1463980D01*
X-427190Y-1465030D01*
X-426230Y-1465460D01*
X-424620D01*
X-423170Y-1466090D01*
X-422210Y-1467360D01*
X-421890Y-1468840D01*
X-422210Y-1470330D01*
X-423010Y-1471380D01*
X-424300Y-1472020D01*
X-425420Y-1472230D01*
G01X-385830Y-1372240D02*
Y-1359540D01*
X-389850D01*
X-391140Y-1360180D01*
X-391940Y-1361020D01*
X-392260Y-1362720D01*
X-391940Y-1364410D01*
X-390980Y-1365470D01*
X-389850Y-1366100D01*
X-385830D01*
G01X-389850D02*
X-392260Y-1372240D01*
G01X-401670D02*
X-401990Y-1369490D01*
X-402480Y-1367160D01*
X-403120Y-1365040D01*
X-403930Y-1362720D01*
X-405210Y-1359540D01*
X-398780D01*
G01X-411890Y-1361660D02*
X-412850Y-1360390D01*
X-413980Y-1359750D01*
X-415270Y-1359540D01*
X-416880Y-1359960D01*
X-418000Y-1361020D01*
X-418320Y-1362290D01*
X-418160Y-1363560D01*
X-417520Y-1364620D01*
X-414300Y-1366740D01*
X-412850Y-1368220D01*
X-411890Y-1370340D01*
X-411570Y-1372240D01*
X-418320D01*
G01X-341830D02*
Y-1359540D01*
X-345850D01*
X-347140Y-1360180D01*
X-347940Y-1361020D01*
X-348260Y-1362720D01*
X-347940Y-1364410D01*
X-346980Y-1365470D01*
X-345850Y-1366100D01*
X-341830D01*
G01X-345850D02*
X-348260Y-1372240D01*
G01X-357670D02*
X-357990Y-1369490D01*
X-358480Y-1367160D01*
X-359120Y-1365040D01*
X-359930Y-1362720D01*
X-361210Y-1359540D01*
X-354780D01*
G01X-367410Y-1369700D02*
X-368370Y-1371180D01*
X-369660Y-1372030D01*
X-371110Y-1372240D01*
X-372390Y-1372030D01*
X-373680Y-1370970D01*
X-374480Y-1369700D01*
X-374640Y-1368430D01*
X-374320Y-1366950D01*
X-373200Y-1365890D01*
X-372070Y-1365470D01*
X-370620D01*
G01X-372070D02*
X-373040Y-1364830D01*
X-373840Y-1363770D01*
X-374160Y-1362500D01*
X-373840Y-1361230D01*
X-373040Y-1360180D01*
X-371590Y-1359540D01*
X-370140Y-1359750D01*
X-368690Y-1360600D01*
G01X-384550Y-1257530D02*
X-388570Y-1270230D01*
X-392600Y-1257530D01*
G01X-397990Y-1270230D02*
Y-1257530D01*
X-401200D01*
X-402490Y-1258170D01*
X-403460Y-1259010D01*
X-404260Y-1260280D01*
X-404900Y-1261760D01*
X-405060Y-1263880D01*
X-404900Y-1266000D01*
X-404260Y-1267480D01*
X-403460Y-1268750D01*
X-402490Y-1269600D01*
X-401200Y-1270230D01*
X-397990D01*
G01X-410940Y-1268330D02*
X-411900Y-1269380D01*
X-413030Y-1270020D01*
X-414470Y-1270230D01*
X-415920Y-1269810D01*
X-417050Y-1268960D01*
X-417850Y-1267480D01*
X-418010Y-1265790D01*
X-417690Y-1264090D01*
X-416890Y-1263030D01*
X-415760Y-1262190D01*
X-414640Y-1261980D01*
X-413510Y-1262190D01*
X-412060Y-1263030D01*
X-412540Y-1257530D01*
X-416890D01*
G01X-427420Y-1270230D02*
X-428550Y-1270020D01*
X-429840Y-1269380D01*
X-430640Y-1268330D01*
X-430960Y-1266840D01*
X-430640Y-1265360D01*
X-429680Y-1264090D01*
X-428230Y-1263460D01*
X-426620D01*
X-425660Y-1263030D01*
X-424850Y-1261980D01*
X-424530Y-1260490D01*
X-425010Y-1259010D01*
X-426140Y-1257950D01*
X-427420Y-1257530D01*
X-428710Y-1257950D01*
X-429840Y-1259010D01*
X-430320Y-1260490D01*
X-430000Y-1261980D01*
X-429190Y-1263030D01*
X-428230Y-1263460D01*
X-426620D01*
X-425170Y-1264090D01*
X-424210Y-1265360D01*
X-423890Y-1266840D01*
X-424210Y-1268330D01*
X-425010Y-1269380D01*
X-426300Y-1270020D01*
X-427420Y-1270230D01*
G01X-385830Y-1170240D02*
Y-1157540D01*
X-389850D01*
X-391140Y-1158180D01*
X-391940Y-1159020D01*
X-392260Y-1160720D01*
X-391940Y-1162410D01*
X-390980Y-1163470D01*
X-389850Y-1164100D01*
X-385830D01*
G01X-389850D02*
X-392260Y-1170240D01*
G01X-398940Y-1164950D02*
X-400060Y-1163470D01*
X-401030Y-1162620D01*
X-402320Y-1162200D01*
X-403440Y-1162620D01*
X-404250Y-1163470D01*
X-404890Y-1164740D01*
X-405050Y-1166220D01*
X-404890Y-1167490D01*
X-404250Y-1168760D01*
X-403280Y-1169820D01*
X-402160Y-1170240D01*
X-400870Y-1169820D01*
X-399740Y-1168550D01*
X-399100Y-1166640D01*
X-398940Y-1164530D01*
X-399260Y-1161770D01*
X-399740Y-1160290D01*
X-400550Y-1158810D01*
X-401670Y-1157750D01*
X-402800Y-1157540D01*
X-403930Y-1157960D01*
X-404730Y-1159020D01*
G01X-414940Y-1157540D02*
X-413660Y-1157960D01*
X-412690Y-1159020D01*
X-412050Y-1160290D01*
X-411570Y-1161990D01*
X-411410Y-1163890D01*
X-411570Y-1165800D01*
X-412050Y-1167490D01*
X-412690Y-1168760D01*
X-413660Y-1169820D01*
X-414940Y-1170240D01*
X-416230Y-1169820D01*
X-417200Y-1168760D01*
X-417840Y-1167490D01*
X-418320Y-1165800D01*
X-418480Y-1163890D01*
X-418320Y-1161990D01*
X-417840Y-1160290D01*
X-417200Y-1159020D01*
X-416230Y-1157960D01*
X-414940Y-1157540D01*
G01X-343830Y-1170240D02*
Y-1157540D01*
X-347850D01*
X-349140Y-1158180D01*
X-349940Y-1159020D01*
X-350260Y-1160720D01*
X-349940Y-1162410D01*
X-348980Y-1163470D01*
X-347850Y-1164100D01*
X-343830D01*
G01X-347850D02*
X-350260Y-1170240D01*
G01X-356940Y-1164950D02*
X-358060Y-1163470D01*
X-359030Y-1162620D01*
X-360320Y-1162200D01*
X-361440Y-1162620D01*
X-362250Y-1163470D01*
X-362890Y-1164740D01*
X-363050Y-1166220D01*
X-362890Y-1167490D01*
X-362250Y-1168760D01*
X-361280Y-1169820D01*
X-360160Y-1170240D01*
X-358870Y-1169820D01*
X-357740Y-1168550D01*
X-357100Y-1166640D01*
X-356940Y-1164530D01*
X-357260Y-1161770D01*
X-357740Y-1160290D01*
X-358550Y-1158810D01*
X-359670Y-1157750D01*
X-360800Y-1157540D01*
X-361930Y-1157960D01*
X-362730Y-1159020D01*
G01X-372940Y-1170240D02*
Y-1157540D01*
X-371010Y-1160080D01*
G01Y-1170240D02*
X-374870D01*
G01X-384550Y-1053530D02*
X-388570Y-1066230D01*
X-392600Y-1053530D01*
G01X-397990Y-1066230D02*
Y-1053530D01*
X-401200D01*
X-402490Y-1054170D01*
X-403460Y-1055010D01*
X-404260Y-1056280D01*
X-404900Y-1057760D01*
X-405060Y-1059880D01*
X-404900Y-1062000D01*
X-404260Y-1063480D01*
X-403460Y-1064750D01*
X-402490Y-1065600D01*
X-401200Y-1066230D01*
X-397990D01*
G01X-414470D02*
Y-1053530D01*
X-412540Y-1056070D01*
G01Y-1066230D02*
X-416400D01*
G01X-427420D02*
Y-1053530D01*
X-425490Y-1056070D01*
G01Y-1066230D02*
X-429350D01*
G01X-387840Y-706230D02*
Y-693530D01*
X-391860D01*
X-393150Y-694170D01*
X-393950Y-695010D01*
X-394270Y-696710D01*
X-393950Y-698400D01*
X-392990Y-699460D01*
X-391860Y-700090D01*
X-387840D01*
G01X-391860D02*
X-394270Y-706230D01*
G01X-400470Y-704330D02*
X-401430Y-705380D01*
X-402560Y-706020D01*
X-404000Y-706230D01*
X-405450Y-705810D01*
X-406580Y-704960D01*
X-407380Y-703480D01*
X-407540Y-701790D01*
X-407220Y-700090D01*
X-406420Y-699030D01*
X-405290Y-698190D01*
X-404170Y-697980D01*
X-403040Y-698190D01*
X-401590Y-699030D01*
X-402070Y-693530D01*
X-406420D01*
G01X-418890Y-706230D02*
Y-693530D01*
X-412930Y-702630D01*
X-420980D01*
G01X-345840Y-706240D02*
Y-693540D01*
X-349860D01*
X-351150Y-694180D01*
X-351950Y-695020D01*
X-352270Y-696720D01*
X-351950Y-698410D01*
X-350990Y-699470D01*
X-349860Y-700100D01*
X-345840D01*
G01X-349860D02*
X-352270Y-706240D01*
G01X-358470Y-704340D02*
X-359430Y-705390D01*
X-360560Y-706030D01*
X-362000Y-706240D01*
X-363450Y-705820D01*
X-364580Y-704970D01*
X-365380Y-703490D01*
X-365540Y-701800D01*
X-365220Y-700100D01*
X-364420Y-699040D01*
X-363290Y-698200D01*
X-362170Y-697990D01*
X-361040Y-698200D01*
X-359590Y-699040D01*
X-360070Y-693540D01*
X-364420D01*
G01X-371420Y-704340D02*
X-372380Y-705390D01*
X-373510Y-706030D01*
X-374950Y-706240D01*
X-376400Y-705820D01*
X-377530Y-704970D01*
X-378330Y-703490D01*
X-378490Y-701800D01*
X-378170Y-700100D01*
X-377370Y-699040D01*
X-376240Y-698200D01*
X-375120Y-697990D01*
X-373990Y-698200D01*
X-372540Y-699040D01*
X-373020Y-693540D01*
X-377370D01*
G01X-384550Y-591530D02*
X-388570Y-604230D01*
X-392600Y-591530D01*
G01X-397990Y-604230D02*
Y-591530D01*
X-401200D01*
X-402490Y-592170D01*
X-403460Y-593010D01*
X-404260Y-594280D01*
X-404900Y-595760D01*
X-405060Y-597880D01*
X-404900Y-600000D01*
X-404260Y-601480D01*
X-403460Y-602750D01*
X-402490Y-603600D01*
X-401200Y-604230D01*
X-397990D01*
G01X-416410D02*
Y-591530D01*
X-410450Y-600630D01*
X-418500D01*
G01X-423890Y-601690D02*
X-424850Y-603170D01*
X-426140Y-604020D01*
X-427590Y-604230D01*
X-428870Y-604020D01*
X-430160Y-602960D01*
X-430960Y-601690D01*
X-431120Y-600420D01*
X-430800Y-598940D01*
X-429680Y-597880D01*
X-428550Y-597460D01*
X-427100D01*
G01X-428550D02*
X-429520Y-596820D01*
X-430320Y-595760D01*
X-430640Y-594490D01*
X-430320Y-593220D01*
X-429520Y-592170D01*
X-428070Y-591530D01*
X-426620Y-591740D01*
X-425170Y-592590D01*
G01X-387840Y-504230D02*
Y-491530D01*
X-391860D01*
X-393150Y-492170D01*
X-393950Y-493010D01*
X-394270Y-494710D01*
X-393950Y-496400D01*
X-392990Y-497460D01*
X-391860Y-498090D01*
X-387840D01*
G01X-391860D02*
X-394270Y-504230D01*
G01X-405940D02*
Y-491530D01*
X-399980Y-500630D01*
X-408030D01*
G01X-413900Y-493650D02*
X-414860Y-492380D01*
X-415990Y-491740D01*
X-417280Y-491530D01*
X-418890Y-491950D01*
X-420010Y-493010D01*
X-420330Y-494280D01*
X-420170Y-495550D01*
X-419530Y-496610D01*
X-416310Y-498730D01*
X-414860Y-500210D01*
X-413900Y-502330D01*
X-413580Y-504230D01*
X-420330D01*
G01X-341840D02*
Y-491530D01*
X-345860D01*
X-347150Y-492170D01*
X-347950Y-493010D01*
X-348270Y-494710D01*
X-347950Y-496400D01*
X-346990Y-497460D01*
X-345860Y-498090D01*
X-341840D01*
G01X-345860D02*
X-348270Y-504230D01*
G01X-359940D02*
Y-491530D01*
X-353980Y-500630D01*
X-362030D01*
G01X-367420Y-501690D02*
X-368380Y-503170D01*
X-369670Y-504020D01*
X-371120Y-504230D01*
X-372400Y-504020D01*
X-373690Y-502960D01*
X-374490Y-501690D01*
X-374650Y-500420D01*
X-374330Y-498940D01*
X-373210Y-497880D01*
X-372080Y-497460D01*
X-370630D01*
G01X-372080D02*
X-373050Y-496820D01*
X-373850Y-495760D01*
X-374170Y-494490D01*
X-373850Y-493220D01*
X-373050Y-492170D01*
X-371600Y-491530D01*
X-370150Y-491740D01*
X-368700Y-492590D01*
G01X-388550Y-389530D02*
X-392570Y-402230D01*
X-396600Y-389530D01*
G01X-401990Y-402230D02*
Y-389530D01*
X-405200D01*
X-406490Y-390170D01*
X-407460Y-391010D01*
X-408260Y-392280D01*
X-408900Y-393760D01*
X-409060Y-395880D01*
X-408900Y-398000D01*
X-408260Y-399480D01*
X-407460Y-400750D01*
X-406490Y-401600D01*
X-405200Y-402230D01*
X-401990D01*
G01X-414940Y-399690D02*
X-415900Y-401170D01*
X-417190Y-402020D01*
X-418640Y-402230D01*
X-419920Y-402020D01*
X-421210Y-400960D01*
X-422010Y-399690D01*
X-422170Y-398420D01*
X-421850Y-396940D01*
X-420730Y-395880D01*
X-419600Y-395460D01*
X-418150D01*
G01X-419600D02*
X-420570Y-394820D01*
X-421370Y-393760D01*
X-421690Y-392490D01*
X-421370Y-391220D01*
X-420570Y-390170D01*
X-419120Y-389530D01*
X-417670Y-389740D01*
X-416220Y-390590D01*
G01X-427890Y-399690D02*
X-428850Y-401170D01*
X-430140Y-402020D01*
X-431590Y-402230D01*
X-432870Y-402020D01*
X-434160Y-400960D01*
X-434960Y-399690D01*
X-435120Y-398420D01*
X-434800Y-396940D01*
X-433680Y-395880D01*
X-432550Y-395460D01*
X-431100D01*
G01X-432550D02*
X-433520Y-394820D01*
X-434320Y-393760D01*
X-434640Y-392490D01*
X-434320Y-391220D01*
X-433520Y-390170D01*
X-432070Y-389530D01*
X-430620Y-389740D01*
X-429170Y-390590D01*
G01X-389840Y-300230D02*
Y-287530D01*
X-393860D01*
X-395150Y-288170D01*
X-395950Y-289010D01*
X-396270Y-290710D01*
X-395950Y-292400D01*
X-394990Y-293460D01*
X-393860Y-294090D01*
X-389840D01*
G01X-393860D02*
X-396270Y-300230D01*
G01X-402470Y-297690D02*
X-403430Y-299170D01*
X-404720Y-300020D01*
X-406170Y-300230D01*
X-407450Y-300020D01*
X-408740Y-298960D01*
X-409540Y-297690D01*
X-409700Y-296420D01*
X-409380Y-294940D01*
X-408260Y-293880D01*
X-407130Y-293460D01*
X-405680D01*
G01X-407130D02*
X-408100Y-292820D01*
X-408900Y-291760D01*
X-409220Y-290490D01*
X-408900Y-289220D01*
X-408100Y-288170D01*
X-406650Y-287530D01*
X-405200Y-287740D01*
X-403750Y-288590D01*
G01X-418950Y-287530D02*
X-417670Y-287950D01*
X-416700Y-289010D01*
X-416060Y-290280D01*
X-415580Y-291980D01*
X-415420Y-293880D01*
X-415580Y-295790D01*
X-416060Y-297480D01*
X-416700Y-298750D01*
X-417670Y-299810D01*
X-418950Y-300230D01*
X-420240Y-299810D01*
X-421210Y-298750D01*
X-421850Y-297480D01*
X-422330Y-295790D01*
X-422490Y-293880D01*
X-422330Y-291980D01*
X-421850Y-290280D01*
X-421210Y-289010D01*
X-420240Y-287950D01*
X-418950Y-287530D01*
G01X-345840Y-300230D02*
Y-287530D01*
X-349860D01*
X-351150Y-288170D01*
X-351950Y-289010D01*
X-352270Y-290710D01*
X-351950Y-292400D01*
X-350990Y-293460D01*
X-349860Y-294090D01*
X-345840D01*
G01X-349860D02*
X-352270Y-300230D01*
G01X-358470Y-297690D02*
X-359430Y-299170D01*
X-360720Y-300020D01*
X-362170Y-300230D01*
X-363450Y-300020D01*
X-364740Y-298960D01*
X-365540Y-297690D01*
X-365700Y-296420D01*
X-365380Y-294940D01*
X-364260Y-293880D01*
X-363130Y-293460D01*
X-361680D01*
G01X-363130D02*
X-364100Y-292820D01*
X-364900Y-291760D01*
X-365220Y-290490D01*
X-364900Y-289220D01*
X-364100Y-288170D01*
X-362650Y-287530D01*
X-361200Y-287740D01*
X-359750Y-288590D01*
G01X-374950Y-300230D02*
Y-287530D01*
X-373020Y-290070D01*
G01Y-300230D02*
X-376880D01*
G01X-386550Y-185530D02*
X-390570Y-198230D01*
X-394600Y-185530D01*
G01X-399990Y-198230D02*
Y-185530D01*
X-403200D01*
X-404490Y-186170D01*
X-405460Y-187010D01*
X-406260Y-188280D01*
X-406900Y-189760D01*
X-407060Y-191880D01*
X-406900Y-194000D01*
X-406260Y-195480D01*
X-405460Y-196750D01*
X-404490Y-197600D01*
X-403200Y-198230D01*
X-399990D01*
G01X-413420Y-187650D02*
X-414380Y-186380D01*
X-415510Y-185740D01*
X-416800Y-185530D01*
X-418410Y-185950D01*
X-419530Y-187010D01*
X-419850Y-188280D01*
X-419690Y-189550D01*
X-419050Y-190610D01*
X-415830Y-192730D01*
X-414380Y-194210D01*
X-413420Y-196330D01*
X-413100Y-198230D01*
X-419850D01*
G01X-425890Y-195690D02*
X-426850Y-197170D01*
X-428140Y-198020D01*
X-429590Y-198230D01*
X-430870Y-198020D01*
X-432160Y-196960D01*
X-432960Y-195690D01*
X-433120Y-194420D01*
X-432800Y-192940D01*
X-431680Y-191880D01*
X-430550Y-191460D01*
X-429100D01*
G01X-430550D02*
X-431520Y-190820D01*
X-432320Y-189760D01*
X-432640Y-188490D01*
X-432320Y-187220D01*
X-431520Y-186170D01*
X-430070Y-185530D01*
X-428620Y-185740D01*
X-427170Y-186590D01*
G01X-387840Y-98230D02*
Y-85530D01*
X-391860D01*
X-393150Y-86170D01*
X-393950Y-87010D01*
X-394270Y-88710D01*
X-393950Y-90400D01*
X-392990Y-91460D01*
X-391860Y-92090D01*
X-387840D01*
G01X-391860D02*
X-394270Y-98230D01*
G01X-404000D02*
Y-85530D01*
X-402070Y-88070D01*
G01Y-98230D02*
X-405930D01*
G01X-416950D02*
X-418080Y-98020D01*
X-419370Y-97380D01*
X-420170Y-96330D01*
X-420490Y-94840D01*
X-420170Y-93360D01*
X-419210Y-92090D01*
X-417760Y-91460D01*
X-416150D01*
X-415190Y-91030D01*
X-414380Y-89980D01*
X-414060Y-88490D01*
X-414540Y-87010D01*
X-415670Y-85950D01*
X-416950Y-85530D01*
X-418240Y-85950D01*
X-419370Y-87010D01*
X-419850Y-88490D01*
X-419530Y-89980D01*
X-418720Y-91030D01*
X-417760Y-91460D01*
X-416150D01*
X-414700Y-92090D01*
X-413740Y-93360D01*
X-413420Y-94840D01*
X-413740Y-96330D01*
X-414540Y-97380D01*
X-415830Y-98020D01*
X-416950Y-98230D01*
G01X-343840D02*
Y-85530D01*
X-347860D01*
X-349150Y-86170D01*
X-349950Y-87010D01*
X-350270Y-88710D01*
X-349950Y-90400D01*
X-348990Y-91460D01*
X-347860Y-92090D01*
X-343840D01*
G01X-347860D02*
X-350270Y-98230D01*
G01X-360000D02*
Y-85530D01*
X-358070Y-88070D01*
G01Y-98230D02*
X-361930D01*
G01X-370220Y-96750D02*
X-371350Y-97810D01*
X-372630Y-98230D01*
X-373920Y-97810D01*
X-375050Y-96540D01*
X-375850Y-94630D01*
X-376170Y-92730D01*
Y-90400D01*
X-375850Y-88490D01*
X-375050Y-86800D01*
X-374080Y-85950D01*
X-372950Y-85530D01*
X-371670Y-85950D01*
X-370700Y-86800D01*
X-370060Y-88070D01*
X-369740Y-89760D01*
X-370060Y-91240D01*
X-370860Y-92730D01*
X-371830Y-93570D01*
X-372950Y-93790D01*
X-374240Y-93360D01*
X-375210Y-92300D01*
X-376170Y-90400D01*
G01X-306590Y-1776590D02*
X-305630Y-1775950D01*
X-304500Y-1775530D01*
X-303220D01*
X-301770Y-1776170D01*
X-300640Y-1777220D01*
X-299840Y-1778490D01*
X-299190Y-1780610D01*
X-299030Y-1782520D01*
X-299360Y-1784420D01*
X-299840Y-1785690D01*
X-300800Y-1786960D01*
X-301930Y-1787810D01*
X-303050Y-1788230D01*
X-304180D01*
X-305310Y-1787810D01*
X-306270Y-1787170D01*
X-307080Y-1786330D01*
G01X-312470D02*
X-313430Y-1787380D01*
X-314560Y-1788020D01*
X-316000Y-1788230D01*
X-317450Y-1787810D01*
X-318580Y-1786960D01*
X-319380Y-1785480D01*
X-319540Y-1783790D01*
X-319220Y-1782090D01*
X-318420Y-1781030D01*
X-317290Y-1780190D01*
X-316170Y-1779980D01*
X-315040Y-1780190D01*
X-313590Y-1781030D01*
X-314070Y-1775530D01*
X-318420D01*
G01X-328950D02*
X-327670Y-1775950D01*
X-326700Y-1777010D01*
X-326060Y-1778280D01*
X-325580Y-1779980D01*
X-325420Y-1781880D01*
X-325580Y-1783790D01*
X-326060Y-1785480D01*
X-326700Y-1786750D01*
X-327670Y-1787810D01*
X-328950Y-1788230D01*
X-330240Y-1787810D01*
X-331210Y-1786750D01*
X-331850Y-1785480D01*
X-332330Y-1783790D01*
X-332490Y-1781880D01*
X-332330Y-1779980D01*
X-331850Y-1778280D01*
X-331210Y-1777010D01*
X-330240Y-1775950D01*
X-328950Y-1775530D01*
G01X-318590Y-1674590D02*
X-317630Y-1673950D01*
X-316500Y-1673530D01*
X-315220D01*
X-313770Y-1674170D01*
X-312640Y-1675220D01*
X-311840Y-1676490D01*
X-311190Y-1678610D01*
X-311030Y-1680520D01*
X-311360Y-1682420D01*
X-311840Y-1683690D01*
X-312800Y-1684960D01*
X-313930Y-1685810D01*
X-315050Y-1686230D01*
X-316180D01*
X-317310Y-1685810D01*
X-318270Y-1685170D01*
X-319080Y-1684330D01*
G01X-329940Y-1686230D02*
Y-1673530D01*
X-323980Y-1682630D01*
X-332030D01*
G01X-340630Y-1686230D02*
X-340950Y-1683480D01*
X-341440Y-1681150D01*
X-342080Y-1679030D01*
X-342890Y-1676710D01*
X-344170Y-1673530D01*
X-337740D01*
G01X-308590Y-1572590D02*
X-307630Y-1571950D01*
X-306500Y-1571530D01*
X-305220D01*
X-303770Y-1572170D01*
X-302640Y-1573220D01*
X-301840Y-1574490D01*
X-301190Y-1576610D01*
X-301030Y-1578520D01*
X-301360Y-1580420D01*
X-301840Y-1581690D01*
X-302800Y-1582960D01*
X-303930Y-1583810D01*
X-305050Y-1584230D01*
X-306180D01*
X-307310Y-1583810D01*
X-308270Y-1583170D01*
X-309080Y-1582330D01*
G01X-319940Y-1584230D02*
Y-1571530D01*
X-313980Y-1580630D01*
X-322030D01*
G01X-332890Y-1584230D02*
Y-1571530D01*
X-326930Y-1580630D01*
X-334980D01*
G01X-320590Y-1472590D02*
X-319630Y-1471950D01*
X-318500Y-1471530D01*
X-317220D01*
X-315770Y-1472170D01*
X-314640Y-1473220D01*
X-313840Y-1474490D01*
X-313190Y-1476610D01*
X-313030Y-1478520D01*
X-313360Y-1480420D01*
X-313840Y-1481690D01*
X-314800Y-1482960D01*
X-315930Y-1483810D01*
X-317050Y-1484230D01*
X-318180D01*
X-319310Y-1483810D01*
X-320270Y-1483170D01*
X-321080Y-1482330D01*
G01X-331940Y-1484230D02*
Y-1471530D01*
X-325980Y-1480630D01*
X-334030D01*
G01X-342950Y-1484230D02*
Y-1471530D01*
X-341020Y-1474070D01*
G01Y-1484230D02*
X-344880D01*
G01X-306590Y-1370590D02*
X-305630Y-1369950D01*
X-304500Y-1369530D01*
X-303220D01*
X-301770Y-1370170D01*
X-300640Y-1371220D01*
X-299840Y-1372490D01*
X-299190Y-1374610D01*
X-299030Y-1376520D01*
X-299360Y-1378420D01*
X-299840Y-1379690D01*
X-300800Y-1380960D01*
X-301930Y-1381810D01*
X-303050Y-1382230D01*
X-304180D01*
X-305310Y-1381810D01*
X-306270Y-1381170D01*
X-307080Y-1380330D01*
G01X-312470Y-1379690D02*
X-313430Y-1381170D01*
X-314720Y-1382020D01*
X-316170Y-1382230D01*
X-317450Y-1382020D01*
X-318740Y-1380960D01*
X-319540Y-1379690D01*
X-319700Y-1378420D01*
X-319380Y-1376940D01*
X-318260Y-1375880D01*
X-317130Y-1375460D01*
X-315680D01*
G01X-317130D02*
X-318100Y-1374820D01*
X-318900Y-1373760D01*
X-319220Y-1372490D01*
X-318900Y-1371220D01*
X-318100Y-1370170D01*
X-316650Y-1369530D01*
X-315200Y-1369740D01*
X-313750Y-1370590D01*
G01X-328950Y-1382230D02*
X-330080Y-1382020D01*
X-331370Y-1381380D01*
X-332170Y-1380330D01*
X-332490Y-1378840D01*
X-332170Y-1377360D01*
X-331210Y-1376090D01*
X-329760Y-1375460D01*
X-328150D01*
X-327190Y-1375030D01*
X-326380Y-1373980D01*
X-326060Y-1372490D01*
X-326540Y-1371010D01*
X-327670Y-1369950D01*
X-328950Y-1369530D01*
X-330240Y-1369950D01*
X-331370Y-1371010D01*
X-331850Y-1372490D01*
X-331530Y-1373980D01*
X-330720Y-1375030D01*
X-329760Y-1375460D01*
X-328150D01*
X-326700Y-1376090D01*
X-325740Y-1377360D01*
X-325420Y-1378840D01*
X-325740Y-1380330D01*
X-326540Y-1381380D01*
X-327830Y-1382020D01*
X-328950Y-1382230D01*
G01X-320590Y-1268590D02*
X-319630Y-1267950D01*
X-318500Y-1267530D01*
X-317220D01*
X-315770Y-1268170D01*
X-314640Y-1269220D01*
X-313840Y-1270490D01*
X-313190Y-1272610D01*
X-313030Y-1274520D01*
X-313360Y-1276420D01*
X-313840Y-1277690D01*
X-314800Y-1278960D01*
X-315930Y-1279810D01*
X-317050Y-1280230D01*
X-318180D01*
X-319310Y-1279810D01*
X-320270Y-1279170D01*
X-321080Y-1278330D01*
G01X-326470Y-1277690D02*
X-327430Y-1279170D01*
X-328720Y-1280020D01*
X-330170Y-1280230D01*
X-331450Y-1280020D01*
X-332740Y-1278960D01*
X-333540Y-1277690D01*
X-333700Y-1276420D01*
X-333380Y-1274940D01*
X-332260Y-1273880D01*
X-331130Y-1273460D01*
X-329680D01*
G01X-331130D02*
X-332100Y-1272820D01*
X-332900Y-1271760D01*
X-333220Y-1270490D01*
X-332900Y-1269220D01*
X-332100Y-1268170D01*
X-330650Y-1267530D01*
X-329200Y-1267740D01*
X-327750Y-1268590D01*
G01X-339420Y-1278330D02*
X-340380Y-1279380D01*
X-341510Y-1280020D01*
X-342950Y-1280230D01*
X-344400Y-1279810D01*
X-345530Y-1278960D01*
X-346330Y-1277480D01*
X-346490Y-1275790D01*
X-346170Y-1274090D01*
X-345370Y-1273030D01*
X-344240Y-1272190D01*
X-343120Y-1271980D01*
X-341990Y-1272190D01*
X-340540Y-1273030D01*
X-341020Y-1267530D01*
X-345370D01*
G01X-306590Y-1166590D02*
X-305630Y-1165950D01*
X-304500Y-1165530D01*
X-303220D01*
X-301770Y-1166170D01*
X-300640Y-1167220D01*
X-299840Y-1168490D01*
X-299190Y-1170610D01*
X-299030Y-1172520D01*
X-299360Y-1174420D01*
X-299840Y-1175690D01*
X-300800Y-1176960D01*
X-301930Y-1177810D01*
X-303050Y-1178230D01*
X-304180D01*
X-305310Y-1177810D01*
X-306270Y-1177170D01*
X-307080Y-1176330D01*
G01X-312470Y-1175690D02*
X-313430Y-1177170D01*
X-314720Y-1178020D01*
X-316170Y-1178230D01*
X-317450Y-1178020D01*
X-318740Y-1176960D01*
X-319540Y-1175690D01*
X-319700Y-1174420D01*
X-319380Y-1172940D01*
X-318260Y-1171880D01*
X-317130Y-1171460D01*
X-315680D01*
G01X-317130D02*
X-318100Y-1170820D01*
X-318900Y-1169760D01*
X-319220Y-1168490D01*
X-318900Y-1167220D01*
X-318100Y-1166170D01*
X-316650Y-1165530D01*
X-315200Y-1165740D01*
X-313750Y-1166590D01*
G01X-325900Y-1167650D02*
X-326860Y-1166380D01*
X-327990Y-1165740D01*
X-329280Y-1165530D01*
X-330890Y-1165950D01*
X-332010Y-1167010D01*
X-332330Y-1168280D01*
X-332170Y-1169550D01*
X-331530Y-1170610D01*
X-328310Y-1172730D01*
X-326860Y-1174210D01*
X-325900Y-1176330D01*
X-325580Y-1178230D01*
X-332330D01*
G01X-327060Y-1066590D02*
X-326100Y-1065950D01*
X-324970Y-1065530D01*
X-323690D01*
X-322240Y-1066170D01*
X-321110Y-1067220D01*
X-320310Y-1068490D01*
X-319660Y-1070610D01*
X-319500Y-1072520D01*
X-319830Y-1074420D01*
X-320310Y-1075690D01*
X-321270Y-1076960D01*
X-322400Y-1077810D01*
X-323520Y-1078230D01*
X-324650D01*
X-325780Y-1077810D01*
X-326740Y-1077170D01*
X-327550Y-1076330D01*
G01X-336470Y-1078230D02*
X-337600Y-1078020D01*
X-338890Y-1077380D01*
X-339690Y-1076330D01*
X-340010Y-1074840D01*
X-339690Y-1073360D01*
X-338730Y-1072090D01*
X-337280Y-1071460D01*
X-335670D01*
X-334710Y-1071030D01*
X-333900Y-1069980D01*
X-333580Y-1068490D01*
X-334060Y-1067010D01*
X-335190Y-1065950D01*
X-336470Y-1065530D01*
X-337760Y-1065950D01*
X-338890Y-1067010D01*
X-339370Y-1068490D01*
X-339050Y-1069980D01*
X-338240Y-1071030D01*
X-337280Y-1071460D01*
X-335670D01*
X-334220Y-1072090D01*
X-333260Y-1073360D01*
X-332940Y-1074840D01*
X-333260Y-1076330D01*
X-334060Y-1077380D01*
X-335350Y-1078020D01*
X-336470Y-1078230D01*
G01X-306580Y-702590D02*
X-305620Y-701950D01*
X-304490Y-701530D01*
X-303210D01*
X-301760Y-702170D01*
X-300630Y-703220D01*
X-299830Y-704490D01*
X-299180Y-706610D01*
X-299020Y-708520D01*
X-299350Y-710420D01*
X-299830Y-711690D01*
X-300790Y-712960D01*
X-301920Y-713810D01*
X-303040Y-714230D01*
X-304170D01*
X-305300Y-713810D01*
X-306260Y-713170D01*
X-307070Y-712330D01*
G01X-312940Y-703650D02*
X-313900Y-702380D01*
X-315030Y-701740D01*
X-316320Y-701530D01*
X-317930Y-701950D01*
X-319050Y-703010D01*
X-319370Y-704280D01*
X-319210Y-705550D01*
X-318570Y-706610D01*
X-315350Y-708730D01*
X-313900Y-710210D01*
X-312940Y-712330D01*
X-312620Y-714230D01*
X-319370D01*
G01X-326210Y-712750D02*
X-327340Y-713810D01*
X-328620Y-714230D01*
X-329910Y-713810D01*
X-331040Y-712540D01*
X-331840Y-710630D01*
X-332160Y-708730D01*
Y-706400D01*
X-331840Y-704490D01*
X-331040Y-702800D01*
X-330070Y-701950D01*
X-328940Y-701530D01*
X-327660Y-701950D01*
X-326690Y-702800D01*
X-326050Y-704070D01*
X-325730Y-705760D01*
X-326050Y-707240D01*
X-326850Y-708730D01*
X-327820Y-709570D01*
X-328940Y-709790D01*
X-330230Y-709360D01*
X-331200Y-708300D01*
X-332160Y-706400D01*
G01X-320580Y-602590D02*
X-319620Y-601950D01*
X-318490Y-601530D01*
X-317210D01*
X-315760Y-602170D01*
X-314630Y-603220D01*
X-313830Y-604490D01*
X-313180Y-606610D01*
X-313020Y-608520D01*
X-313350Y-610420D01*
X-313830Y-611690D01*
X-314790Y-612960D01*
X-315920Y-613810D01*
X-317040Y-614230D01*
X-318170D01*
X-319300Y-613810D01*
X-320260Y-613170D01*
X-321070Y-612330D01*
G01X-326940Y-603650D02*
X-327900Y-602380D01*
X-329030Y-601740D01*
X-330320Y-601530D01*
X-331930Y-601950D01*
X-333050Y-603010D01*
X-333370Y-604280D01*
X-333210Y-605550D01*
X-332570Y-606610D01*
X-329350Y-608730D01*
X-327900Y-610210D01*
X-326940Y-612330D01*
X-326620Y-614230D01*
X-333370D01*
G01X-339890Y-608940D02*
X-341010Y-607460D01*
X-341980Y-606610D01*
X-343270Y-606190D01*
X-344390Y-606610D01*
X-345200Y-607460D01*
X-345840Y-608730D01*
X-346000Y-610210D01*
X-345840Y-611480D01*
X-345200Y-612750D01*
X-344230Y-613810D01*
X-343110Y-614230D01*
X-341820Y-613810D01*
X-340690Y-612540D01*
X-340050Y-610630D01*
X-339890Y-608520D01*
X-340210Y-605760D01*
X-340690Y-604280D01*
X-341500Y-602800D01*
X-342620Y-601740D01*
X-343750Y-601530D01*
X-344880Y-601950D01*
X-345680Y-603010D01*
G01X-306590Y-500590D02*
X-305630Y-499950D01*
X-304500Y-499530D01*
X-303220D01*
X-301770Y-500170D01*
X-300640Y-501220D01*
X-299840Y-502490D01*
X-299190Y-504610D01*
X-299030Y-506520D01*
X-299360Y-508420D01*
X-299840Y-509690D01*
X-300800Y-510960D01*
X-301930Y-511810D01*
X-303050Y-512230D01*
X-304180D01*
X-305310Y-511810D01*
X-306270Y-511170D01*
X-307080Y-510330D01*
G01X-312950Y-501650D02*
X-313910Y-500380D01*
X-315040Y-499740D01*
X-316330Y-499530D01*
X-317940Y-499950D01*
X-319060Y-501010D01*
X-319380Y-502280D01*
X-319220Y-503550D01*
X-318580Y-504610D01*
X-315360Y-506730D01*
X-313910Y-508210D01*
X-312950Y-510330D01*
X-312630Y-512230D01*
X-319380D01*
G01X-325420Y-509690D02*
X-326380Y-511170D01*
X-327670Y-512020D01*
X-329120Y-512230D01*
X-330400Y-512020D01*
X-331690Y-510960D01*
X-332490Y-509690D01*
X-332650Y-508420D01*
X-332330Y-506940D01*
X-331210Y-505880D01*
X-330080Y-505460D01*
X-328630D01*
G01X-330080D02*
X-331050Y-504820D01*
X-331850Y-503760D01*
X-332170Y-502490D01*
X-331850Y-501220D01*
X-331050Y-500170D01*
X-329600Y-499530D01*
X-328150Y-499740D01*
X-326700Y-500590D01*
G01X-320590Y-400590D02*
X-319630Y-399950D01*
X-318500Y-399530D01*
X-317220D01*
X-315770Y-400170D01*
X-314640Y-401220D01*
X-313840Y-402490D01*
X-313190Y-404610D01*
X-313030Y-406520D01*
X-313360Y-408420D01*
X-313840Y-409690D01*
X-314800Y-410960D01*
X-315930Y-411810D01*
X-317050Y-412230D01*
X-318180D01*
X-319310Y-411810D01*
X-320270Y-411170D01*
X-321080Y-410330D01*
G01X-326950Y-401650D02*
X-327910Y-400380D01*
X-329040Y-399740D01*
X-330330Y-399530D01*
X-331940Y-399950D01*
X-333060Y-401010D01*
X-333380Y-402280D01*
X-333220Y-403550D01*
X-332580Y-404610D01*
X-329360Y-406730D01*
X-327910Y-408210D01*
X-326950Y-410330D01*
X-326630Y-412230D01*
X-333380D01*
G01X-342950Y-399530D02*
X-341670Y-399950D01*
X-340700Y-401010D01*
X-340060Y-402280D01*
X-339580Y-403980D01*
X-339420Y-405880D01*
X-339580Y-407790D01*
X-340060Y-409480D01*
X-340700Y-410750D01*
X-341670Y-411810D01*
X-342950Y-412230D01*
X-344240Y-411810D01*
X-345210Y-410750D01*
X-345850Y-409480D01*
X-346330Y-407790D01*
X-346490Y-405880D01*
X-346330Y-403980D01*
X-345850Y-402280D01*
X-345210Y-401010D01*
X-344240Y-399950D01*
X-342950Y-399530D01*
G01X-312590Y-296590D02*
X-311630Y-295950D01*
X-310500Y-295530D01*
X-309220D01*
X-307770Y-296170D01*
X-306640Y-297220D01*
X-305840Y-298490D01*
X-305190Y-300610D01*
X-305030Y-302520D01*
X-305360Y-304420D01*
X-305840Y-305690D01*
X-306800Y-306960D01*
X-307930Y-307810D01*
X-309050Y-308230D01*
X-310180D01*
X-311310Y-307810D01*
X-312270Y-307170D01*
X-313080Y-306330D01*
G01X-322000Y-308230D02*
Y-295530D01*
X-320070Y-298070D01*
G01Y-308230D02*
X-323930D01*
G01X-334630D02*
X-334950Y-305480D01*
X-335440Y-303150D01*
X-336080Y-301030D01*
X-336890Y-298710D01*
X-338170Y-295530D01*
X-331740D01*
G01X-320580Y-196590D02*
X-319620Y-195950D01*
X-318490Y-195530D01*
X-317210D01*
X-315760Y-196170D01*
X-314630Y-197220D01*
X-313830Y-198490D01*
X-313180Y-200610D01*
X-313020Y-202520D01*
X-313350Y-204420D01*
X-313830Y-205690D01*
X-314790Y-206960D01*
X-315920Y-207810D01*
X-317040Y-208230D01*
X-318170D01*
X-319300Y-207810D01*
X-320260Y-207170D01*
X-321070Y-206330D01*
G01X-329990Y-208230D02*
Y-195530D01*
X-328060Y-198070D01*
G01Y-208230D02*
X-331920D01*
G01X-344880D02*
Y-195530D01*
X-338920Y-204630D01*
X-346970D01*
G01X-312590Y-94590D02*
X-311630Y-93950D01*
X-310500Y-93530D01*
X-309220D01*
X-307770Y-94170D01*
X-306640Y-95220D01*
X-305840Y-96490D01*
X-305190Y-98610D01*
X-305030Y-100520D01*
X-305360Y-102420D01*
X-305840Y-103690D01*
X-306800Y-104960D01*
X-307930Y-105810D01*
X-309050Y-106230D01*
X-310180D01*
X-311310Y-105810D01*
X-312270Y-105170D01*
X-313080Y-104330D01*
G01X-322000Y-106230D02*
Y-93530D01*
X-320070Y-96070D01*
G01Y-106230D02*
X-323930D01*
G01X-334950D02*
Y-93530D01*
X-333020Y-96070D01*
G01Y-106230D02*
X-336880D01*
G01X-327060Y7410D02*
X-326100Y8050D01*
X-324970Y8470D01*
X-323690D01*
X-322240Y7830D01*
X-321110Y6780D01*
X-320310Y5510D01*
X-319660Y3390D01*
X-319500Y1480D01*
X-319830Y-420D01*
X-320310Y-1690D01*
X-321270Y-2960D01*
X-322400Y-3810D01*
X-323520Y-4230D01*
X-324650D01*
X-325780Y-3810D01*
X-326740Y-3170D01*
X-327550Y-2330D01*
G01X-332940D02*
X-333900Y-3380D01*
X-335030Y-4020D01*
X-336470Y-4230D01*
X-337920Y-3810D01*
X-339050Y-2960D01*
X-339850Y-1480D01*
X-340010Y210D01*
X-339690Y1910D01*
X-338890Y2970D01*
X-337760Y3810D01*
X-336640Y4020D01*
X-335510Y3810D01*
X-334060Y2970D01*
X-334540Y8470D01*
X-338890D01*
G01X-34550Y-1735530D02*
X-38570Y-1748230D01*
X-42600Y-1735530D01*
G01X-47990Y-1748230D02*
Y-1735530D01*
X-51200D01*
X-52490Y-1736170D01*
X-53460Y-1737010D01*
X-54260Y-1738280D01*
X-54900Y-1739760D01*
X-55060Y-1741880D01*
X-54900Y-1744000D01*
X-54260Y-1745480D01*
X-53460Y-1746750D01*
X-52490Y-1747600D01*
X-51200Y-1748230D01*
X-47990D01*
G01X-64470D02*
X-65600Y-1748020D01*
X-66890Y-1747380D01*
X-67690Y-1746330D01*
X-68010Y-1744840D01*
X-67690Y-1743360D01*
X-66730Y-1742090D01*
X-65280Y-1741460D01*
X-63670D01*
X-62710Y-1741030D01*
X-61900Y-1739980D01*
X-61580Y-1738490D01*
X-62060Y-1737010D01*
X-63190Y-1735950D01*
X-64470Y-1735530D01*
X-65760Y-1735950D01*
X-66890Y-1737010D01*
X-67370Y-1738490D01*
X-67050Y-1739980D01*
X-66240Y-1741030D01*
X-65280Y-1741460D01*
X-63670D01*
X-62220Y-1742090D01*
X-61260Y-1743360D01*
X-60940Y-1744840D01*
X-61260Y-1746330D01*
X-62060Y-1747380D01*
X-63350Y-1748020D01*
X-64470Y-1748230D01*
G01X-77420D02*
Y-1735530D01*
X-75490Y-1738070D01*
G01Y-1748230D02*
X-79350D01*
G01X-34550Y-1531530D02*
X-38570Y-1544230D01*
X-42600Y-1531530D01*
G01X-47990Y-1544230D02*
Y-1531530D01*
X-51200D01*
X-52490Y-1532170D01*
X-53460Y-1533010D01*
X-54260Y-1534280D01*
X-54900Y-1535760D01*
X-55060Y-1537880D01*
X-54900Y-1540000D01*
X-54260Y-1541480D01*
X-53460Y-1542750D01*
X-52490Y-1543600D01*
X-51200Y-1544230D01*
X-47990D01*
G01X-64150D02*
X-64470Y-1541480D01*
X-64960Y-1539150D01*
X-65600Y-1537030D01*
X-66410Y-1534710D01*
X-67690Y-1531530D01*
X-61260D01*
G01X-77420Y-1544230D02*
Y-1531530D01*
X-75490Y-1534070D01*
G01Y-1544230D02*
X-79350D01*
G01X-34550Y-1329530D02*
X-38570Y-1342230D01*
X-42600Y-1329530D01*
G01X-47990Y-1342230D02*
Y-1329530D01*
X-51200D01*
X-52490Y-1330170D01*
X-53460Y-1331010D01*
X-54260Y-1332280D01*
X-54900Y-1333760D01*
X-55060Y-1335880D01*
X-54900Y-1338000D01*
X-54260Y-1339480D01*
X-53460Y-1340750D01*
X-52490Y-1341600D01*
X-51200Y-1342230D01*
X-47990D01*
G01X-61420Y-1336940D02*
X-62540Y-1335460D01*
X-63510Y-1334610D01*
X-64800Y-1334190D01*
X-65920Y-1334610D01*
X-66730Y-1335460D01*
X-67370Y-1336730D01*
X-67530Y-1338210D01*
X-67370Y-1339480D01*
X-66730Y-1340750D01*
X-65760Y-1341810D01*
X-64640Y-1342230D01*
X-63350Y-1341810D01*
X-62220Y-1340540D01*
X-61580Y-1338630D01*
X-61420Y-1336520D01*
X-61740Y-1333760D01*
X-62220Y-1332280D01*
X-63030Y-1330800D01*
X-64150Y-1329740D01*
X-65280Y-1329530D01*
X-66410Y-1329950D01*
X-67210Y-1331010D01*
G01X-77420Y-1342230D02*
Y-1329530D01*
X-75490Y-1332070D01*
G01Y-1342230D02*
X-79350D01*
G01X-34550Y-1125530D02*
X-38570Y-1138230D01*
X-42600Y-1125530D01*
G01X-47990Y-1138230D02*
Y-1125530D01*
X-51200D01*
X-52490Y-1126170D01*
X-53460Y-1127010D01*
X-54260Y-1128280D01*
X-54900Y-1129760D01*
X-55060Y-1131880D01*
X-54900Y-1134000D01*
X-54260Y-1135480D01*
X-53460Y-1136750D01*
X-52490Y-1137600D01*
X-51200Y-1138230D01*
X-47990D01*
G01X-60940Y-1136330D02*
X-61900Y-1137380D01*
X-63030Y-1138020D01*
X-64470Y-1138230D01*
X-65920Y-1137810D01*
X-67050Y-1136960D01*
X-67850Y-1135480D01*
X-68010Y-1133790D01*
X-67690Y-1132090D01*
X-66890Y-1131030D01*
X-65760Y-1130190D01*
X-64640Y-1129980D01*
X-63510Y-1130190D01*
X-62060Y-1131030D01*
X-62540Y-1125530D01*
X-66890D01*
G01X-77420Y-1138230D02*
Y-1125530D01*
X-75490Y-1128070D01*
G01Y-1138230D02*
X-79350D01*
G01X-34550Y-661530D02*
X-38570Y-674230D01*
X-42600Y-661530D01*
G01X-47990Y-674230D02*
Y-661530D01*
X-51200D01*
X-52490Y-662170D01*
X-53460Y-663010D01*
X-54260Y-664280D01*
X-54900Y-665760D01*
X-55060Y-667880D01*
X-54900Y-670000D01*
X-54260Y-671480D01*
X-53460Y-672750D01*
X-52490Y-673600D01*
X-51200Y-674230D01*
X-47990D01*
G01X-66410D02*
Y-661530D01*
X-60450Y-670630D01*
X-68500D01*
G01X-74370Y-668940D02*
X-75490Y-667460D01*
X-76460Y-666610D01*
X-77750Y-666190D01*
X-78870Y-666610D01*
X-79680Y-667460D01*
X-80320Y-668730D01*
X-80480Y-670210D01*
X-80320Y-671480D01*
X-79680Y-672750D01*
X-78710Y-673810D01*
X-77590Y-674230D01*
X-76300Y-673810D01*
X-75170Y-672540D01*
X-74530Y-670630D01*
X-74370Y-668520D01*
X-74690Y-665760D01*
X-75170Y-664280D01*
X-75980Y-662800D01*
X-77100Y-661740D01*
X-78230Y-661530D01*
X-79360Y-661950D01*
X-80160Y-663010D01*
G01X-32550Y-459530D02*
X-36570Y-472230D01*
X-40600Y-459530D01*
G01X-45990Y-472230D02*
Y-459530D01*
X-49200D01*
X-50490Y-460170D01*
X-51460Y-461010D01*
X-52260Y-462280D01*
X-52900Y-463760D01*
X-53060Y-465880D01*
X-52900Y-468000D01*
X-52260Y-469480D01*
X-51460Y-470750D01*
X-50490Y-471600D01*
X-49200Y-472230D01*
X-45990D01*
G01X-58940Y-469690D02*
X-59900Y-471170D01*
X-61190Y-472020D01*
X-62640Y-472230D01*
X-63920Y-472020D01*
X-65210Y-470960D01*
X-66010Y-469690D01*
X-66170Y-468420D01*
X-65850Y-466940D01*
X-64730Y-465880D01*
X-63600Y-465460D01*
X-62150D01*
G01X-63600D02*
X-64570Y-464820D01*
X-65370Y-463760D01*
X-65690Y-462490D01*
X-65370Y-461220D01*
X-64570Y-460170D01*
X-63120Y-459530D01*
X-61670Y-459740D01*
X-60220Y-460590D01*
G01X-72370Y-466940D02*
X-73490Y-465460D01*
X-74460Y-464610D01*
X-75750Y-464190D01*
X-76870Y-464610D01*
X-77680Y-465460D01*
X-78320Y-466730D01*
X-78480Y-468210D01*
X-78320Y-469480D01*
X-77680Y-470750D01*
X-76710Y-471810D01*
X-75590Y-472230D01*
X-74300Y-471810D01*
X-73170Y-470540D01*
X-72530Y-468630D01*
X-72370Y-466520D01*
X-72690Y-463760D01*
X-73170Y-462280D01*
X-73980Y-460800D01*
X-75100Y-459740D01*
X-76230Y-459530D01*
X-77360Y-459950D01*
X-78160Y-461010D01*
G01X-34550Y-255530D02*
X-38570Y-268230D01*
X-42600Y-255530D01*
G01X-47990Y-268230D02*
Y-255530D01*
X-51200D01*
X-52490Y-256170D01*
X-53460Y-257010D01*
X-54260Y-258280D01*
X-54900Y-259760D01*
X-55060Y-261880D01*
X-54900Y-264000D01*
X-54260Y-265480D01*
X-53460Y-266750D01*
X-52490Y-267600D01*
X-51200Y-268230D01*
X-47990D01*
G01X-61420Y-257650D02*
X-62380Y-256380D01*
X-63510Y-255740D01*
X-64800Y-255530D01*
X-66410Y-255950D01*
X-67530Y-257010D01*
X-67850Y-258280D01*
X-67690Y-259550D01*
X-67050Y-260610D01*
X-63830Y-262730D01*
X-62380Y-264210D01*
X-61420Y-266330D01*
X-61100Y-268230D01*
X-67850D01*
G01X-74370Y-262940D02*
X-75490Y-261460D01*
X-76460Y-260610D01*
X-77750Y-260190D01*
X-78870Y-260610D01*
X-79680Y-261460D01*
X-80320Y-262730D01*
X-80480Y-264210D01*
X-80320Y-265480D01*
X-79680Y-266750D01*
X-78710Y-267810D01*
X-77590Y-268230D01*
X-76300Y-267810D01*
X-75170Y-266540D01*
X-74530Y-264630D01*
X-74370Y-262520D01*
X-74690Y-259760D01*
X-75170Y-258280D01*
X-75980Y-256800D01*
X-77100Y-255740D01*
X-78230Y-255530D01*
X-79360Y-255950D01*
X-80160Y-257010D01*
G01X-32550Y-53530D02*
X-36570Y-66230D01*
X-40600Y-53530D01*
G01X-45990Y-66230D02*
Y-53530D01*
X-49200D01*
X-50490Y-54170D01*
X-51460Y-55010D01*
X-52260Y-56280D01*
X-52900Y-57760D01*
X-53060Y-59880D01*
X-52900Y-62000D01*
X-52260Y-63480D01*
X-51460Y-64750D01*
X-50490Y-65600D01*
X-49200Y-66230D01*
X-45990D01*
G01X-62470D02*
Y-53530D01*
X-60540Y-56070D01*
G01Y-66230D02*
X-64400D01*
G01X-72370Y-60940D02*
X-73490Y-59460D01*
X-74460Y-58610D01*
X-75750Y-58190D01*
X-76870Y-58610D01*
X-77680Y-59460D01*
X-78320Y-60730D01*
X-78480Y-62210D01*
X-78320Y-63480D01*
X-77680Y-64750D01*
X-76710Y-65810D01*
X-75590Y-66230D01*
X-74300Y-65810D01*
X-73170Y-64540D01*
X-72530Y-62630D01*
X-72370Y-60520D01*
X-72690Y-57760D01*
X-73170Y-56280D01*
X-73980Y-54800D01*
X-75100Y-53740D01*
X-76230Y-53530D01*
X-77360Y-53950D01*
X-78160Y-55010D01*
G01X79450Y-1643540D02*
X75430Y-1656240D01*
X71400Y-1643540D01*
G01X66010Y-1656240D02*
Y-1643540D01*
X62800D01*
X61510Y-1644180D01*
X60540Y-1645020D01*
X59740Y-1646290D01*
X59100Y-1647770D01*
X58940Y-1649890D01*
X59100Y-1652010D01*
X59740Y-1653490D01*
X60540Y-1654760D01*
X61510Y-1655610D01*
X62800Y-1656240D01*
X66010D01*
G01X49850D02*
X49530Y-1653490D01*
X49040Y-1651160D01*
X48400Y-1649040D01*
X47590Y-1646720D01*
X46310Y-1643540D01*
X52740D01*
G01X39630Y-1650950D02*
X38510Y-1649470D01*
X37540Y-1648620D01*
X36250Y-1648200D01*
X35130Y-1648620D01*
X34320Y-1649470D01*
X33680Y-1650740D01*
X33520Y-1652220D01*
X33680Y-1653490D01*
X34320Y-1654760D01*
X35290Y-1655820D01*
X36410Y-1656240D01*
X37700Y-1655820D01*
X38830Y-1654550D01*
X39470Y-1652640D01*
X39630Y-1650530D01*
X39310Y-1647770D01*
X38830Y-1646290D01*
X38020Y-1644810D01*
X36900Y-1643750D01*
X35770Y-1643540D01*
X34640Y-1643960D01*
X33840Y-1645020D01*
G01X79450Y-1439540D02*
X75430Y-1452240D01*
X71400Y-1439540D01*
G01X66010Y-1452240D02*
Y-1439540D01*
X62800D01*
X61510Y-1440180D01*
X60540Y-1441020D01*
X59740Y-1442290D01*
X59100Y-1443770D01*
X58940Y-1445890D01*
X59100Y-1448010D01*
X59740Y-1449490D01*
X60540Y-1450760D01*
X61510Y-1451610D01*
X62800Y-1452240D01*
X66010D01*
G01X52580Y-1446950D02*
X51460Y-1445470D01*
X50490Y-1444620D01*
X49200Y-1444200D01*
X48080Y-1444620D01*
X47270Y-1445470D01*
X46630Y-1446740D01*
X46470Y-1448220D01*
X46630Y-1449490D01*
X47270Y-1450760D01*
X48240Y-1451820D01*
X49360Y-1452240D01*
X50650Y-1451820D01*
X51780Y-1450550D01*
X52420Y-1448640D01*
X52580Y-1446530D01*
X52260Y-1443770D01*
X51780Y-1442290D01*
X50970Y-1440810D01*
X49850Y-1439750D01*
X48720Y-1439540D01*
X47590Y-1439960D01*
X46790Y-1441020D01*
G01X39630Y-1446950D02*
X38510Y-1445470D01*
X37540Y-1444620D01*
X36250Y-1444200D01*
X35130Y-1444620D01*
X34320Y-1445470D01*
X33680Y-1446740D01*
X33520Y-1448220D01*
X33680Y-1449490D01*
X34320Y-1450760D01*
X35290Y-1451820D01*
X36410Y-1452240D01*
X37700Y-1451820D01*
X38830Y-1450550D01*
X39470Y-1448640D01*
X39630Y-1446530D01*
X39310Y-1443770D01*
X38830Y-1442290D01*
X38020Y-1440810D01*
X36900Y-1439750D01*
X35770Y-1439540D01*
X34640Y-1439960D01*
X33840Y-1441020D01*
G01X79450Y-1237540D02*
X75430Y-1250240D01*
X71400Y-1237540D01*
G01X66010Y-1250240D02*
Y-1237540D01*
X62800D01*
X61510Y-1238180D01*
X60540Y-1239020D01*
X59740Y-1240290D01*
X59100Y-1241770D01*
X58940Y-1243890D01*
X59100Y-1246010D01*
X59740Y-1247490D01*
X60540Y-1248760D01*
X61510Y-1249610D01*
X62800Y-1250240D01*
X66010D01*
G01X53060Y-1248340D02*
X52100Y-1249390D01*
X50970Y-1250030D01*
X49530Y-1250240D01*
X48080Y-1249820D01*
X46950Y-1248970D01*
X46150Y-1247490D01*
X45990Y-1245800D01*
X46310Y-1244100D01*
X47110Y-1243040D01*
X48240Y-1242200D01*
X49360Y-1241990D01*
X50490Y-1242200D01*
X51940Y-1243040D01*
X51460Y-1237540D01*
X47110D01*
G01X39630Y-1244950D02*
X38510Y-1243470D01*
X37540Y-1242620D01*
X36250Y-1242200D01*
X35130Y-1242620D01*
X34320Y-1243470D01*
X33680Y-1244740D01*
X33520Y-1246220D01*
X33680Y-1247490D01*
X34320Y-1248760D01*
X35290Y-1249820D01*
X36410Y-1250240D01*
X37700Y-1249820D01*
X38830Y-1248550D01*
X39470Y-1246640D01*
X39630Y-1244530D01*
X39310Y-1241770D01*
X38830Y-1240290D01*
X38020Y-1238810D01*
X36900Y-1237750D01*
X35770Y-1237540D01*
X34640Y-1237960D01*
X33840Y-1239020D01*
G01X79450Y-1033540D02*
X75430Y-1046240D01*
X71400Y-1033540D01*
G01X66010Y-1046240D02*
Y-1033540D01*
X62800D01*
X61510Y-1034180D01*
X60540Y-1035020D01*
X59740Y-1036290D01*
X59100Y-1037770D01*
X58940Y-1039890D01*
X59100Y-1042010D01*
X59740Y-1043490D01*
X60540Y-1044760D01*
X61510Y-1045610D01*
X62800Y-1046240D01*
X66010D01*
G01X49530D02*
Y-1033540D01*
X51460Y-1036080D01*
G01Y-1046240D02*
X47600D01*
G01X39630Y-1035660D02*
X38670Y-1034390D01*
X37540Y-1033750D01*
X36250Y-1033540D01*
X34640Y-1033960D01*
X33520Y-1035020D01*
X33200Y-1036290D01*
X33360Y-1037560D01*
X34000Y-1038620D01*
X37220Y-1040740D01*
X38670Y-1042220D01*
X39630Y-1044340D01*
X39950Y-1046240D01*
X33200D01*
G01X77450Y-569540D02*
X73430Y-582240D01*
X69400Y-569540D01*
G01X64010Y-582240D02*
Y-569540D01*
X60800D01*
X59510Y-570180D01*
X58540Y-571020D01*
X57740Y-572290D01*
X57100Y-573770D01*
X56940Y-575890D01*
X57100Y-578010D01*
X57740Y-579490D01*
X58540Y-580760D01*
X59510Y-581610D01*
X60800Y-582240D01*
X64010D01*
G01X45590D02*
Y-569540D01*
X51550Y-578640D01*
X43500D01*
G01X34580Y-582240D02*
Y-569540D01*
X36510Y-572080D01*
G01Y-582240D02*
X32650D01*
G01X77450Y-367540D02*
X73430Y-380240D01*
X69400Y-367540D01*
G01X64010Y-380240D02*
Y-367540D01*
X60800D01*
X59510Y-368180D01*
X58540Y-369020D01*
X57740Y-370290D01*
X57100Y-371770D01*
X56940Y-373890D01*
X57100Y-376010D01*
X57740Y-377490D01*
X58540Y-378760D01*
X59510Y-379610D01*
X60800Y-380240D01*
X64010D01*
G01X51060Y-377700D02*
X50100Y-379180D01*
X48810Y-380030D01*
X47360Y-380240D01*
X46080Y-380030D01*
X44790Y-378970D01*
X43990Y-377700D01*
X43830Y-376430D01*
X44150Y-374950D01*
X45270Y-373890D01*
X46400Y-373470D01*
X47850D01*
G01X46400D02*
X45430Y-372830D01*
X44630Y-371770D01*
X44310Y-370500D01*
X44630Y-369230D01*
X45430Y-368180D01*
X46880Y-367540D01*
X48330Y-367750D01*
X49780Y-368600D01*
G01X34580Y-380240D02*
Y-367540D01*
X36510Y-370080D01*
G01Y-380240D02*
X32650D01*
G01X79450Y-163540D02*
X75430Y-176240D01*
X71400Y-163540D01*
G01X66010Y-176240D02*
Y-163540D01*
X62800D01*
X61510Y-164180D01*
X60540Y-165020D01*
X59740Y-166290D01*
X59100Y-167770D01*
X58940Y-169890D01*
X59100Y-172010D01*
X59740Y-173490D01*
X60540Y-174760D01*
X61510Y-175610D01*
X62800Y-176240D01*
X66010D01*
G01X52580Y-165660D02*
X51620Y-164390D01*
X50490Y-163750D01*
X49200Y-163540D01*
X47590Y-163960D01*
X46470Y-165020D01*
X46150Y-166290D01*
X46310Y-167560D01*
X46950Y-168620D01*
X50170Y-170740D01*
X51620Y-172220D01*
X52580Y-174340D01*
X52900Y-176240D01*
X46150D01*
G01X36580D02*
Y-163540D01*
X38510Y-166080D01*
G01Y-176240D02*
X34650D01*
G01X70980Y40460D02*
X66960Y27760D01*
X62930Y40460D01*
G01X57540Y27760D02*
Y40460D01*
X54330D01*
X53040Y39820D01*
X52070Y38980D01*
X51270Y37710D01*
X50630Y36230D01*
X50470Y34110D01*
X50630Y31990D01*
X51270Y30510D01*
X52070Y29240D01*
X53040Y28390D01*
X54330Y27760D01*
X57540D01*
G01X41380D02*
X41060Y30510D01*
X40570Y32840D01*
X39930Y34960D01*
X39120Y37280D01*
X37840Y40460D01*
X44270D01*
G54D13*
G01X-613800Y-1793900D02*
G03X-615050Y-1792650I-1250J0D01*
G01D02*
G03X-616300Y-1793900I0J-1250D01*
G01D02*
G03X-615050Y-1795150I1250J0D01*
G01D02*
G03X-613800Y-1793900I0J1250D01*
G01Y-1692300D02*
G03X-615050Y-1691050I-1250J0D01*
G01D02*
G03X-616300Y-1692300I0J-1250D01*
G01D02*
G03X-615050Y-1693550I1250J0D01*
G01D02*
G03X-613800Y-1692300I0J1250D01*
G01Y-1590700D02*
G03X-615050Y-1589450I-1250J0D01*
G01D02*
G03X-616300Y-1590700I0J-1250D01*
G01D02*
G03X-615050Y-1591950I1250J0D01*
G01D02*
G03X-613800Y-1590700I0J1250D01*
G01Y-1489100D02*
G03X-615050Y-1487850I-1250J0D01*
G01D02*
G03X-616300Y-1489100I0J-1250D01*
G01D02*
G03X-615050Y-1490350I1250J0D01*
G01D02*
G03X-613800Y-1489100I0J1250D01*
G01Y-1387500D02*
G03X-615050Y-1386250I-1250J0D01*
G01D02*
G03X-616300Y-1387500I0J-1250D01*
G01D02*
G03X-615050Y-1388750I1250J0D01*
G01D02*
G03X-613800Y-1387500I0J1250D01*
G01Y-1285900D02*
G03X-615050Y-1284650I-1250J0D01*
G01D02*
G03X-616300Y-1285900I0J-1250D01*
G01D02*
G03X-615050Y-1287150I1250J0D01*
G01D02*
G03X-613800Y-1285900I0J1250D01*
G01Y-1184300D02*
G03X-615050Y-1183050I-1250J0D01*
G01D02*
G03X-616300Y-1184300I0J-1250D01*
G01D02*
G03X-615050Y-1185550I1250J0D01*
G01D02*
G03X-613800Y-1184300I0J1250D01*
G01Y-1082700D02*
G03X-615050Y-1081450I-1250J0D01*
G01D02*
G03X-616300Y-1082700I0J-1250D01*
G01D02*
G03X-615050Y-1083950I1250J0D01*
G01D02*
G03X-613800Y-1082700I0J1250D01*
G01Y-720750D02*
G03X-615050Y-719500I-1250J0D01*
G01D02*
G03X-616300Y-720750I0J-1250D01*
G01D02*
G03X-615050Y-722000I1250J0D01*
G01D02*
G03X-613800Y-720750I0J1250D01*
G01Y-619150D02*
G03X-615050Y-617900I-1250J0D01*
G01D02*
G03X-616300Y-619150I0J-1250D01*
G01D02*
G03X-615050Y-620400I1250J0D01*
G01D02*
G03X-613800Y-619150I0J1250D01*
G01Y-517550D02*
G03X-615050Y-516300I-1250J0D01*
G01D02*
G03X-616300Y-517550I0J-1250D01*
G01D02*
G03X-615050Y-518800I1250J0D01*
G01D02*
G03X-613800Y-517550I0J1250D01*
G01Y-415950D02*
G03X-615050Y-414700I-1250J0D01*
G01D02*
G03X-616300Y-415950I0J-1250D01*
G01D02*
G03X-615050Y-417200I1250J0D01*
G01D02*
G03X-613800Y-415950I0J1250D01*
G01Y-314350D02*
G03X-615050Y-313100I-1250J0D01*
G01D02*
G03X-616300Y-314350I0J-1250D01*
G01D02*
G03X-615050Y-315600I1250J0D01*
G01D02*
G03X-613800Y-314350I0J1250D01*
G01Y-212750D02*
G03X-615050Y-211500I-1250J0D01*
G01D02*
G03X-616300Y-212750I0J-1250D01*
G01D02*
G03X-615050Y-214000I1250J0D01*
G01D02*
G03X-613800Y-212750I0J1250D01*
G01Y-111150D02*
G03X-615050Y-109900I-1250J0D01*
G01D02*
G03X-616300Y-111150I0J-1250D01*
G01D02*
G03X-615050Y-112400I1250J0D01*
G01D02*
G03X-613800Y-111150I0J1250D01*
G01Y-9550D02*
G03X-615050Y-8300I-1250J0D01*
G01D02*
G03X-616300Y-9550I0J-1250D01*
G01D02*
G03X-615050Y-10800I1250J0D01*
G01D02*
G03X-613800Y-9550I0J1250D01*
G01X-463550Y-1855400D02*
Y-1839400D01*
G01X-471550Y-1847400D02*
X-455550D01*
G01X-463550Y-1652200D02*
Y-1636200D01*
G01X-471550Y-1644200D02*
X-455550D01*
G01X-463550Y-1449000D02*
Y-1433000D01*
G01X-471550Y-1441000D02*
X-455550D01*
G01X-463550Y-1245800D02*
Y-1229800D01*
G01X-471550Y-1237800D02*
X-455550D01*
G01X-463550Y-782250D02*
Y-766250D01*
G01X-471550Y-774250D02*
X-455550D01*
G01X-463550Y-579050D02*
Y-563050D01*
G01X-471550Y-571050D02*
X-455550D01*
G01X-463550Y-375850D02*
Y-359850D01*
G01X-471550Y-367850D02*
X-455550D01*
G01X-463550Y-172650D02*
Y-156650D01*
G01X-471550Y-164650D02*
X-455550D01*
G01X-400050Y-1753800D02*
Y-1737800D01*
G01X-408050Y-1745800D02*
X-392050D01*
G01X-400050Y-1550600D02*
Y-1534600D01*
G01X-408050Y-1542600D02*
X-392050D01*
G01X-400050Y-1347400D02*
Y-1331400D01*
G01X-408050Y-1339400D02*
X-392050D01*
G01X-400050Y-1144200D02*
Y-1128200D01*
G01X-408050Y-1136200D02*
X-392050D01*
G01X-400050Y-680650D02*
Y-664650D01*
G01X-408050Y-672650D02*
X-392050D01*
G01X-400050Y-477450D02*
Y-461450D01*
G01X-408050Y-469450D02*
X-392050D01*
G01X-400050Y-274250D02*
Y-258250D01*
G01X-408050Y-266250D02*
X-392050D01*
G01X-400050Y-71050D02*
Y-55050D01*
G01X-408050Y-63050D02*
X-392050D01*
M02*
