G04 ================== begin FILE IDENTIFICATION RECORD ==================*
G04 Layout Name:  D:/Project/Circuit/ORCAD/KPRD/03v1/pcb/kprd_03v1.brd*
G04 Film Name:    SILK_TOP*
G04 File Format:  Gerber RS274X*
G04 File Origin:  Cadence Allegro 16.6-S012*
G04 Origin Date:  Mon Jul 29 12:29:18 2013*
G04 *
G04 Layer:  MANUFACTURING/AUTOSILK_TOP*
G04 *
G04 Offset:    (0.000 0.000)*
G04 Mirror:    No*
G04 Mode:      Positive*
G04 Rotation:  0*
G04 FullContactRelief:  No*
G04 UndefLineWidth:     0.200*
G04 ================== end FILE IDENTIFICATION RECORD ====================*
%FSLAX34Y34*MOMM*%
%IR0*IPPOS*OFA0.00000B0.00000*MIA0B0*SFA1.00000B1.00000*%
%ADD10C,.2*%
%ADD11C,.3*%
%ADD12C,.15*%
%ADD13C,.25*%
G75*
%LPD*%
G75*
G54D10*
G01X-902650Y-1109190D02*
X-852650D01*
Y-1149190D01*
X-872650Y-1169190D01*
Y-1999190D01*
X-852650Y-2019190D01*
Y-2059190D01*
X-902650D01*
G01X-818550Y-1064290D02*
Y-1068290D01*
X-870550D01*
Y-1064290D01*
G01X-818550Y-1036290D02*
Y-1032290D01*
X-870550D01*
Y-1036290D01*
G01X-844400Y-999690D02*
X-857400D01*
G01X-844400Y-1024690D02*
X-857400D01*
G01X-762150Y-1998090D02*
X-749150D01*
G01X-762150Y-1982090D02*
X-749150D01*
G01X-762150Y-2023490D02*
X-749150D01*
G01X-762150Y-2007490D02*
X-749150D01*
G01X-747650Y32860D02*
Y42860D01*
G01X-763650Y32860D02*
Y42860D01*
G01X-779400Y32860D02*
Y42860D01*
G01X-795400Y32860D02*
Y42860D01*
G01X-645900Y-1980640D02*
X-674900D01*
Y-1974140D01*
X-645900D01*
Y-1980640D01*
G01X-676650Y-1991390D02*
G03X-677900Y-1990140I-1250J0D01*
G01D02*
G03X-679150Y-1991390I0J-1250D01*
G01D02*
G03X-677900Y-1992640I1250J0D01*
G01D02*
G03X-676650Y-1991390I0J1250D01*
G01X-690350Y-1980640D02*
X-719350D01*
Y-1974140D01*
X-690350D01*
Y-1980640D01*
G01X-721100Y-1991390D02*
G03X-722350Y-1990140I-1250J0D01*
G01D02*
G03X-723600Y-1991390I0J-1250D01*
G01D02*
G03X-722350Y-1992640I1250J0D01*
G01D02*
G03X-721100Y-1991390I0J1250D01*
G01X-710800Y-2034840D02*
X-660800D01*
G01X-710800Y-2008840D02*
X-660800D01*
G01X-664450Y-1926790D02*
X-694450D01*
G01X-664450Y-1951790D02*
X-694450D01*
G01X-664450Y-1913690D02*
X-694450D01*
G01X-664450Y-1888690D02*
X-694450D01*
G01X-705400Y-1764750D02*
Y-1854750D01*
X-615400D01*
Y-1764750D01*
X-705400D01*
G01Y-1663150D02*
Y-1753150D01*
X-615400D01*
Y-1663150D01*
X-705400D01*
G01Y-1561550D02*
Y-1651550D01*
X-615400D01*
Y-1561550D01*
X-705400D01*
G01Y-1459950D02*
Y-1549950D01*
X-615400D01*
Y-1459950D01*
X-705400D01*
G01Y-1358350D02*
Y-1448350D01*
X-615400D01*
Y-1358350D01*
X-705400D01*
G01Y-1256750D02*
Y-1346750D01*
X-615400D01*
Y-1256750D01*
X-705400D01*
G01Y-1155150D02*
Y-1245150D01*
X-615400D01*
Y-1155150D01*
X-705400D01*
G01Y-1053550D02*
Y-1143550D01*
X-615400D01*
Y-1053550D01*
X-705400D01*
G01Y-691600D02*
Y-781600D01*
X-615400D01*
Y-691600D01*
X-705400D01*
G01Y-590000D02*
Y-680000D01*
X-615400D01*
Y-590000D01*
X-705400D01*
G01Y-488400D02*
Y-578400D01*
X-615400D01*
Y-488400D01*
X-705400D01*
G01Y-386800D02*
Y-476800D01*
X-615400D01*
Y-386800D01*
X-705400D01*
G01Y-285200D02*
Y-375200D01*
X-615400D01*
Y-285200D01*
X-705400D01*
G01Y-183600D02*
Y-273600D01*
X-615400D01*
Y-183600D01*
X-705400D01*
G01Y-82000D02*
Y-172000D01*
X-615400D01*
Y-82000D01*
X-705400D01*
G01Y19600D02*
Y-70400D01*
X-615400D01*
Y19600D01*
X-705400D01*
G01X-601950Y-1964090D02*
X-597950D01*
Y-2016090D01*
X-601950D01*
G01X-629950Y-1964090D02*
X-633950D01*
Y-2016090D01*
X-629950D01*
G01X-659800Y-2005840D02*
X-651800D01*
G01X-655800Y-2001840D02*
Y-2009840D01*
G01X-648000Y-1967150D02*
X-640000Y-1957150D01*
G01X-545300Y-1809750D02*
Y-1739750D01*
X-445300D01*
Y-1879750D01*
X-545300D01*
Y-1809750D01*
G01X-574750Y-1843300D02*
Y-1814300D01*
X-568250D01*
Y-1843300D01*
X-574750D01*
G01X-545300Y-1606550D02*
Y-1536550D01*
X-445300D01*
Y-1676550D01*
X-545300D01*
Y-1606550D01*
G01X-574750Y-1741700D02*
Y-1712700D01*
X-568250D01*
Y-1741700D01*
X-574750D01*
G01Y-1640100D02*
Y-1611100D01*
X-568250D01*
Y-1640100D01*
X-574750D01*
G01Y-1538500D02*
Y-1509500D01*
X-568250D01*
Y-1538500D01*
X-574750D01*
G01X-545300Y-1403350D02*
Y-1333350D01*
X-445300D01*
Y-1473350D01*
X-545300D01*
Y-1403350D01*
G01X-574750Y-1436900D02*
Y-1407900D01*
X-568250D01*
Y-1436900D01*
X-574750D01*
G01Y-1335300D02*
Y-1306300D01*
X-568250D01*
Y-1335300D01*
X-574750D01*
G01X-545300Y-1200150D02*
Y-1130150D01*
X-445300D01*
Y-1270150D01*
X-545300D01*
Y-1200150D01*
G01X-574750Y-1233700D02*
Y-1204700D01*
X-568250D01*
Y-1233700D01*
X-574750D01*
G01Y-1132100D02*
Y-1103100D01*
X-568250D01*
Y-1132100D01*
X-574750D01*
G01X-545300Y-736600D02*
Y-666600D01*
X-445300D01*
Y-806600D01*
X-545300D01*
Y-736600D01*
G01X-574750Y-770150D02*
Y-741150D01*
X-568250D01*
Y-770150D01*
X-574750D01*
G01X-545300Y-533400D02*
Y-463400D01*
X-445300D01*
Y-603400D01*
X-545300D01*
Y-533400D01*
G01X-574750Y-668550D02*
Y-639550D01*
X-568250D01*
Y-668550D01*
X-574750D01*
G01Y-566950D02*
Y-537950D01*
X-568250D01*
Y-566950D01*
X-574750D01*
G01Y-465350D02*
Y-436350D01*
X-568250D01*
Y-465350D01*
X-574750D01*
G01X-545300Y-330200D02*
Y-260200D01*
X-445300D01*
Y-400200D01*
X-545300D01*
Y-330200D01*
G01X-574750Y-363750D02*
Y-334750D01*
X-568250D01*
Y-363750D01*
X-574750D01*
G01Y-262150D02*
Y-233150D01*
X-568250D01*
Y-262150D01*
X-574750D01*
G01X-545300Y-127000D02*
Y-57000D01*
X-445300D01*
Y-197000D01*
X-545300D01*
Y-127000D01*
G01X-574750Y-160550D02*
Y-131550D01*
X-568250D01*
Y-160550D01*
X-574750D01*
G01Y-58950D02*
Y-29950D01*
X-568250D01*
Y-58950D01*
X-574750D01*
G01X-418300Y-1708150D02*
Y-1638150D01*
X-318300D01*
Y-1778150D01*
X-418300D01*
Y-1708150D01*
G01Y-1504950D02*
Y-1434950D01*
X-318300D01*
Y-1574950D01*
X-418300D01*
Y-1504950D01*
G01Y-1301750D02*
Y-1231750D01*
X-318300D01*
Y-1371750D01*
X-418300D01*
Y-1301750D01*
G01Y-1098550D02*
Y-1028550D01*
X-318300D01*
Y-1168550D01*
X-418300D01*
Y-1098550D01*
G01Y-635000D02*
Y-565000D01*
X-318300D01*
Y-705000D01*
X-418300D01*
Y-635000D01*
G01Y-431800D02*
Y-361800D01*
X-318300D01*
Y-501800D01*
X-418300D01*
Y-431800D01*
G01Y-228600D02*
Y-158600D01*
X-318300D01*
Y-298600D01*
X-418300D01*
Y-228600D01*
G01Y-25400D02*
Y44600D01*
X-318300D01*
Y-95400D01*
X-418300D01*
Y-25400D01*
G01X-291300Y-1809750D02*
Y-1739750D01*
X-191300D01*
Y-1879750D01*
X-291300D01*
Y-1809750D01*
G01Y-1606550D02*
Y-1536550D01*
X-191300D01*
Y-1676550D01*
X-291300D01*
Y-1606550D01*
G01Y-1403350D02*
Y-1333350D01*
X-191300D01*
Y-1473350D01*
X-291300D01*
Y-1403350D01*
G01Y-1200150D02*
Y-1130150D01*
X-191300D01*
Y-1270150D01*
X-291300D01*
Y-1200150D01*
G01Y-736600D02*
Y-666600D01*
X-191300D01*
Y-806600D01*
X-291300D01*
Y-736600D01*
G01Y-533400D02*
Y-463400D01*
X-191300D01*
Y-603400D01*
X-291300D01*
Y-533400D01*
G01Y-330200D02*
Y-260200D01*
X-191300D01*
Y-400200D01*
X-291300D01*
Y-330200D01*
G01Y-127000D02*
Y-57000D01*
X-191300D01*
Y-197000D01*
X-291300D01*
Y-127000D01*
G01X-164300Y-1708150D02*
Y-1638150D01*
X-64300D01*
Y-1778150D01*
X-164300D01*
Y-1708150D01*
G01Y-1504950D02*
Y-1434950D01*
X-64300D01*
Y-1574950D01*
X-164300D01*
Y-1504950D01*
G01Y-1301750D02*
Y-1231750D01*
X-64300D01*
Y-1371750D01*
X-164300D01*
Y-1301750D01*
G01Y-1098550D02*
Y-1028550D01*
X-64300D01*
Y-1168550D01*
X-164300D01*
Y-1098550D01*
G01Y-635000D02*
Y-565000D01*
X-64300D01*
Y-705000D01*
X-164300D01*
Y-635000D01*
G01Y-431800D02*
Y-361800D01*
X-64300D01*
Y-501800D01*
X-164300D01*
Y-431800D01*
G01Y-228600D02*
Y-158600D01*
X-64300D01*
Y-298600D01*
X-164300D01*
Y-228600D01*
G01Y-25400D02*
Y44600D01*
X-64300D01*
Y-95400D01*
X-164300D01*
Y-25400D01*
G01X-25400Y-1879600D02*
Y-1028700D01*
G01Y-1879600D02*
X101600D01*
Y-1028700D01*
X-25400D01*
G01D02*
Y-1879600D01*
G01Y-806450D02*
Y44450D01*
G01Y-806450D02*
X101600D01*
Y44450D01*
X-25400D01*
G01D02*
Y-806450D01*
G54D11*
G01X-717400Y-1772250D02*
G03I-1500J0D01*
G01Y-1670650D02*
G03I-1500J0D01*
G01Y-1569050D02*
G03I-1500J0D01*
G01Y-1467450D02*
G03I-1500J0D01*
G01Y-1365850D02*
G03I-1500J0D01*
G01Y-1264250D02*
G03I-1500J0D01*
G01Y-1162650D02*
G03I-1500J0D01*
G01Y-1061050D02*
G03I-1500J0D01*
G01Y-699100D02*
G03X-718900Y-697600I-1500J0D01*
G01D02*
G03X-720400Y-699100I0J-1500D01*
G01D02*
G03X-718900Y-700600I1500J0D01*
G01D02*
G03X-717400Y-699100I0J1500D01*
G01Y-597500D02*
G03I-1500J0D01*
G01Y-495900D02*
G03X-718900Y-494400I-1500J0D01*
G01D02*
G03X-720400Y-495900I0J-1500D01*
G01D02*
G03X-718900Y-497400I1500J0D01*
G01D02*
G03X-717400Y-495900I0J1500D01*
G01Y-394300D02*
G03I-1500J0D01*
G01Y-292700D02*
G03I-1500J0D01*
G01Y-191100D02*
G03I-1500J0D01*
G01Y-89500D02*
G03I-1500J0D01*
G01Y12100D02*
G03I-1500J0D01*
G54D12*
G01X-852830Y-2003920D02*
X-860700Y-2001490D01*
X-852830Y-1999060D01*
G01X-855580Y-1999930D02*
Y-2003050D01*
G01X-852830Y-1993620D02*
X-860700D01*
X-859130Y-1994790D01*
G01X-852830D02*
Y-1992450D01*
G01X-879850Y-1102240D02*
X-873100Y-1089540D01*
G01X-879850D02*
X-873100Y-1102240D01*
G01X-863530D02*
Y-1089540D01*
X-865460Y-1092080D01*
G01Y-1102240D02*
X-861600D01*
G01X-816940Y-1000590D02*
X-817900Y-999950D01*
X-819030Y-999530D01*
X-820310D01*
X-821760Y-1000170D01*
X-822890Y-1001220D01*
X-823690Y-1002490D01*
X-824340Y-1004610D01*
X-824500Y-1006520D01*
X-824170Y-1008420D01*
X-823690Y-1009690D01*
X-822730Y-1010960D01*
X-821600Y-1011810D01*
X-820480Y-1012230D01*
X-819350D01*
X-818220Y-1011810D01*
X-817260Y-1011170D01*
X-816450Y-1010330D01*
G01X-811060Y-1009690D02*
X-810100Y-1011170D01*
X-808810Y-1012020D01*
X-807360Y-1012230D01*
X-806080Y-1012020D01*
X-804790Y-1010960D01*
X-803990Y-1009690D01*
X-803830Y-1008420D01*
X-804150Y-1006940D01*
X-805270Y-1005880D01*
X-806400Y-1005460D01*
X-807850D01*
G01X-806400D02*
X-805430Y-1004820D01*
X-804630Y-1003760D01*
X-804310Y-1002490D01*
X-804630Y-1001220D01*
X-805430Y-1000170D01*
X-806880Y-999530D01*
X-808330Y-999740D01*
X-809780Y-1000590D01*
G01X-884920Y-965210D02*
X-881060D01*
G01X-883160Y-962450D02*
Y-967960D01*
G01X-873260Y-958860D02*
X-872300Y-957590D01*
X-871170Y-956950D01*
X-869880Y-956740D01*
X-868270Y-957160D01*
X-867150Y-958220D01*
X-866830Y-959490D01*
X-866990Y-960760D01*
X-867630Y-961820D01*
X-870850Y-963940D01*
X-872300Y-965420D01*
X-873260Y-967540D01*
X-873580Y-969440D01*
X-866830D01*
G01X-855320D02*
Y-956740D01*
X-861280Y-965840D01*
X-853230D01*
G01X-843020Y-962670D02*
X-842370Y-962030D01*
X-841890Y-960970D01*
X-841570Y-959490D01*
X-841890Y-958220D01*
X-842540Y-957380D01*
X-843660Y-956740D01*
X-848000D01*
Y-969440D01*
X-842700D01*
X-841570Y-968590D01*
X-840930Y-967320D01*
X-840610Y-965840D01*
X-840930Y-964360D01*
X-841890Y-963090D01*
X-843020Y-962670D01*
X-848000D01*
G01X-828140Y-969440D02*
X-834570D01*
Y-956740D01*
X-828140D01*
G01X-830710Y-962880D02*
X-834570D01*
G01X-810040Y-1999350D02*
X-810440Y-1999930D01*
X-810700Y-2000610D01*
Y-2001390D01*
X-810310Y-2002270D01*
X-809650Y-2002950D01*
X-808860Y-2003440D01*
X-807550Y-2003830D01*
X-806370Y-2003920D01*
X-805190Y-2003730D01*
X-804400Y-2003440D01*
X-803620Y-2002850D01*
X-803090Y-2002170D01*
X-802830Y-2001490D01*
Y-2000810D01*
X-803090Y-2000130D01*
X-803490Y-1999540D01*
X-804010Y-1999060D01*
G01X-802830Y-1993620D02*
X-810700D01*
X-809130Y-1994790D01*
G01X-802830D02*
Y-1992450D01*
G01X-771340Y-1978590D02*
Y-1965890D01*
X-767320D01*
X-766030Y-1966530D01*
X-765230Y-1967370D01*
X-764910Y-1969070D01*
X-765230Y-1970760D01*
X-766190Y-1971820D01*
X-767320Y-1972450D01*
X-771340D01*
G01X-767320D02*
X-764910Y-1978590D01*
G01X-758710Y-1976050D02*
X-757750Y-1977530D01*
X-756460Y-1978380D01*
X-755010Y-1978590D01*
X-753730Y-1978380D01*
X-752440Y-1977320D01*
X-751640Y-1976050D01*
X-751480Y-1974780D01*
X-751800Y-1973300D01*
X-752920Y-1972240D01*
X-754050Y-1971820D01*
X-755500D01*
G01X-754050D02*
X-753080Y-1971180D01*
X-752280Y-1970120D01*
X-751960Y-1968850D01*
X-752280Y-1967580D01*
X-753080Y-1966530D01*
X-754530Y-1965890D01*
X-755980Y-1966100D01*
X-757430Y-1966950D01*
G01X-765690Y-2042240D02*
Y-2029540D01*
X-761670D01*
X-760380Y-2030180D01*
X-759580Y-2031020D01*
X-759260Y-2032720D01*
X-759580Y-2034410D01*
X-760540Y-2035470D01*
X-761670Y-2036100D01*
X-765690D01*
G01X-761670D02*
X-759260Y-2042240D01*
G01X-747590D02*
Y-2029540D01*
X-753550Y-2038640D01*
X-745500D01*
G01X-746230Y-1953600D02*
X-742210Y-1966300D01*
X-738180Y-1953600D01*
G01X-732790Y-1966300D02*
Y-1953600D01*
X-729580D01*
X-728290Y-1954240D01*
X-727320Y-1955080D01*
X-726520Y-1956350D01*
X-725880Y-1957830D01*
X-725720Y-1959950D01*
X-725880Y-1962070D01*
X-726520Y-1963550D01*
X-727320Y-1964820D01*
X-728290Y-1965670D01*
X-729580Y-1966300D01*
X-732790D01*
G01X-719360Y-1955720D02*
X-718400Y-1954450D01*
X-717270Y-1953810D01*
X-715980Y-1953600D01*
X-714370Y-1954020D01*
X-713250Y-1955080D01*
X-712930Y-1956350D01*
X-713090Y-1957620D01*
X-713730Y-1958680D01*
X-716950Y-1960800D01*
X-718400Y-1962280D01*
X-719360Y-1964400D01*
X-719680Y-1966300D01*
X-712930D01*
G01X-783760Y-1815050D02*
X-783270Y-1815830D01*
X-782690Y-1816360D01*
X-782000Y-1816620D01*
X-781230Y-1816360D01*
X-780640Y-1815830D01*
X-780060Y-1815050D01*
X-779860Y-1814000D01*
Y-1808750D01*
G01X-775890Y-1816620D02*
Y-1808750D01*
X-773550D01*
X-772770Y-1809140D01*
X-772190Y-1810060D01*
X-771990Y-1811110D01*
X-772190Y-1812160D01*
X-772670Y-1812950D01*
X-773550Y-1813340D01*
X-775890D01*
G01X-766070Y-1816620D02*
Y-1808750D01*
X-767240Y-1810320D01*
G01Y-1816620D02*
X-764900D01*
G01X-760050Y-1813340D02*
X-759370Y-1812420D01*
X-758780Y-1811900D01*
X-758010Y-1811640D01*
X-757320Y-1811900D01*
X-756840Y-1812420D01*
X-756450Y-1813210D01*
X-756350Y-1814130D01*
X-756450Y-1814910D01*
X-756840Y-1815700D01*
X-757420Y-1816360D01*
X-758100Y-1816620D01*
X-758880Y-1816360D01*
X-759560Y-1815570D01*
X-759950Y-1814390D01*
X-760050Y-1813080D01*
X-759850Y-1811370D01*
X-759560Y-1810460D01*
X-759080Y-1809540D01*
X-758390Y-1808880D01*
X-757710Y-1808750D01*
X-757030Y-1809010D01*
X-756550Y-1809670D01*
G01X-779420Y-1776600D02*
X-780380Y-1775960D01*
X-781510Y-1775540D01*
X-782790D01*
X-784240Y-1776180D01*
X-785370Y-1777230D01*
X-786170Y-1778500D01*
X-786820Y-1780620D01*
X-786980Y-1782530D01*
X-786650Y-1784430D01*
X-786170Y-1785700D01*
X-785210Y-1786970D01*
X-784080Y-1787820D01*
X-782960Y-1788240D01*
X-781830D01*
X-780700Y-1787820D01*
X-779740Y-1787180D01*
X-778930Y-1786340D01*
G01X-773540D02*
X-772580Y-1787390D01*
X-771450Y-1788030D01*
X-770010Y-1788240D01*
X-768560Y-1787820D01*
X-767430Y-1786970D01*
X-766630Y-1785490D01*
X-766470Y-1783800D01*
X-766790Y-1782100D01*
X-767590Y-1781040D01*
X-768720Y-1780200D01*
X-769840Y-1779990D01*
X-770970Y-1780200D01*
X-772420Y-1781040D01*
X-771940Y-1775540D01*
X-767590D01*
G01X-757060Y-1788240D02*
Y-1775540D01*
X-758990Y-1778080D01*
G01Y-1788240D02*
X-755130D01*
G01X-746950Y-1790700D02*
X-738950D01*
G01X-781420Y-1674600D02*
X-782380Y-1673960D01*
X-783510Y-1673540D01*
X-784790D01*
X-786240Y-1674180D01*
X-787370Y-1675230D01*
X-788170Y-1676500D01*
X-788820Y-1678620D01*
X-788980Y-1680530D01*
X-788650Y-1682430D01*
X-788170Y-1683700D01*
X-787210Y-1684970D01*
X-786080Y-1685820D01*
X-784960Y-1686240D01*
X-783830D01*
X-782700Y-1685820D01*
X-781740Y-1685180D01*
X-780930Y-1684340D01*
G01X-770070Y-1686240D02*
Y-1673540D01*
X-776030Y-1682640D01*
X-767980D01*
G01X-759060Y-1686240D02*
X-757930Y-1686030D01*
X-756640Y-1685390D01*
X-755840Y-1684340D01*
X-755520Y-1682850D01*
X-755840Y-1681370D01*
X-756800Y-1680100D01*
X-758250Y-1679470D01*
X-759860D01*
X-760820Y-1679040D01*
X-761630Y-1677990D01*
X-761950Y-1676500D01*
X-761470Y-1675020D01*
X-760340Y-1673960D01*
X-759060Y-1673540D01*
X-757770Y-1673960D01*
X-756640Y-1675020D01*
X-756160Y-1676500D01*
X-756480Y-1677990D01*
X-757290Y-1679040D01*
X-758250Y-1679470D01*
X-759860D01*
X-761310Y-1680100D01*
X-762270Y-1681370D01*
X-762590Y-1682850D01*
X-762270Y-1684340D01*
X-761470Y-1685390D01*
X-760180Y-1686030D01*
X-759060Y-1686240D01*
G01X-746950Y-1689100D02*
X-738950D01*
G01X-783760Y-1713050D02*
X-783270Y-1713830D01*
X-782690Y-1714360D01*
X-782000Y-1714620D01*
X-781230Y-1714360D01*
X-780640Y-1713830D01*
X-780060Y-1713050D01*
X-779860Y-1712000D01*
Y-1706750D01*
G01X-775890Y-1714620D02*
Y-1706750D01*
X-773550D01*
X-772770Y-1707140D01*
X-772190Y-1708060D01*
X-771990Y-1709110D01*
X-772190Y-1710160D01*
X-772670Y-1710950D01*
X-773550Y-1711340D01*
X-775890D01*
G01X-766070Y-1714620D02*
Y-1706750D01*
X-767240Y-1708320D01*
G01Y-1714620D02*
X-764900D01*
G01X-760340Y-1713440D02*
X-759760Y-1714100D01*
X-759080Y-1714490D01*
X-758200Y-1714620D01*
X-757320Y-1714360D01*
X-756640Y-1713830D01*
X-756160Y-1712910D01*
X-756060Y-1711870D01*
X-756250Y-1710820D01*
X-756740Y-1710160D01*
X-757420Y-1709640D01*
X-758100Y-1709500D01*
X-758780Y-1709640D01*
X-759660Y-1710160D01*
X-759370Y-1706750D01*
X-756740D01*
G01X-783760Y-1611050D02*
X-783270Y-1611830D01*
X-782690Y-1612360D01*
X-782000Y-1612620D01*
X-781230Y-1612360D01*
X-780640Y-1611830D01*
X-780060Y-1611050D01*
X-779860Y-1610000D01*
Y-1604750D01*
G01X-775890Y-1612620D02*
Y-1604750D01*
X-773550D01*
X-772770Y-1605140D01*
X-772190Y-1606060D01*
X-771990Y-1607110D01*
X-772190Y-1608160D01*
X-772670Y-1608950D01*
X-773550Y-1609340D01*
X-775890D01*
G01X-766070Y-1612620D02*
Y-1604750D01*
X-767240Y-1606320D01*
G01Y-1612620D02*
X-764900D01*
G01X-757030D02*
Y-1604750D01*
X-760630Y-1610390D01*
X-755770D01*
G01X-779420Y-1572600D02*
X-780380Y-1571960D01*
X-781510Y-1571540D01*
X-782790D01*
X-784240Y-1572180D01*
X-785370Y-1573230D01*
X-786170Y-1574500D01*
X-786820Y-1576620D01*
X-786980Y-1578530D01*
X-786650Y-1580430D01*
X-786170Y-1581700D01*
X-785210Y-1582970D01*
X-784080Y-1583820D01*
X-782960Y-1584240D01*
X-781830D01*
X-780700Y-1583820D01*
X-779740Y-1583180D01*
X-778930Y-1582340D01*
G01X-768070Y-1584240D02*
Y-1571540D01*
X-774030Y-1580640D01*
X-765980D01*
G01X-760590Y-1582340D02*
X-759630Y-1583390D01*
X-758500Y-1584030D01*
X-757060Y-1584240D01*
X-755610Y-1583820D01*
X-754480Y-1582970D01*
X-753680Y-1581490D01*
X-753520Y-1579800D01*
X-753840Y-1578100D01*
X-754640Y-1577040D01*
X-755770Y-1576200D01*
X-756890Y-1575990D01*
X-758020Y-1576200D01*
X-759470Y-1577040D01*
X-758990Y-1571540D01*
X-754640D01*
G01X-746950Y-1587500D02*
X-738950D01*
G01X-779420Y-1466600D02*
X-780380Y-1465960D01*
X-781510Y-1465540D01*
X-782790D01*
X-784240Y-1466180D01*
X-785370Y-1467230D01*
X-786170Y-1468500D01*
X-786820Y-1470620D01*
X-786980Y-1472530D01*
X-786650Y-1474430D01*
X-786170Y-1475700D01*
X-785210Y-1476970D01*
X-784080Y-1477820D01*
X-782960Y-1478240D01*
X-781830D01*
X-780700Y-1477820D01*
X-779740Y-1477180D01*
X-778930Y-1476340D01*
G01X-768070Y-1478240D02*
Y-1465540D01*
X-774030Y-1474640D01*
X-765980D01*
G01X-760110Y-1467660D02*
X-759150Y-1466390D01*
X-758020Y-1465750D01*
X-756730Y-1465540D01*
X-755120Y-1465960D01*
X-754000Y-1467020D01*
X-753680Y-1468290D01*
X-753840Y-1469560D01*
X-754480Y-1470620D01*
X-757700Y-1472740D01*
X-759150Y-1474220D01*
X-760110Y-1476340D01*
X-760430Y-1478240D01*
X-753680D01*
G01X-746950Y-1485900D02*
X-738950D01*
G01X-783760Y-1509060D02*
X-783270Y-1509840D01*
X-782690Y-1510370D01*
X-782000Y-1510630D01*
X-781230Y-1510370D01*
X-780640Y-1509840D01*
X-780060Y-1509060D01*
X-779860Y-1508010D01*
Y-1502760D01*
G01X-775890Y-1510630D02*
Y-1502760D01*
X-773550D01*
X-772770Y-1503150D01*
X-772190Y-1504070D01*
X-771990Y-1505120D01*
X-772190Y-1506170D01*
X-772670Y-1506960D01*
X-773550Y-1507350D01*
X-775890D01*
G01X-766070Y-1510630D02*
Y-1502760D01*
X-767240Y-1504330D01*
G01Y-1510630D02*
X-764900D01*
G01X-760340Y-1509060D02*
X-759760Y-1509970D01*
X-758980Y-1510500D01*
X-758100Y-1510630D01*
X-757320Y-1510500D01*
X-756550Y-1509840D01*
X-756060Y-1509060D01*
X-755960Y-1508270D01*
X-756160Y-1507350D01*
X-756840Y-1506700D01*
X-757520Y-1506430D01*
X-758390D01*
G01X-757520D02*
X-756930Y-1506040D01*
X-756450Y-1505380D01*
X-756250Y-1504600D01*
X-756450Y-1503810D01*
X-756930Y-1503150D01*
X-757810Y-1502760D01*
X-758690Y-1502890D01*
X-759560Y-1503420D01*
G01X-779420Y-1368600D02*
X-780380Y-1367960D01*
X-781510Y-1367540D01*
X-782790D01*
X-784240Y-1368180D01*
X-785370Y-1369230D01*
X-786170Y-1370500D01*
X-786820Y-1372620D01*
X-786980Y-1374530D01*
X-786650Y-1376430D01*
X-786170Y-1377700D01*
X-785210Y-1378970D01*
X-784080Y-1379820D01*
X-782960Y-1380240D01*
X-781830D01*
X-780700Y-1379820D01*
X-779740Y-1379180D01*
X-778930Y-1378340D01*
G01X-773540Y-1377700D02*
X-772580Y-1379180D01*
X-771290Y-1380030D01*
X-769840Y-1380240D01*
X-768560Y-1380030D01*
X-767270Y-1378970D01*
X-766470Y-1377700D01*
X-766310Y-1376430D01*
X-766630Y-1374950D01*
X-767750Y-1373890D01*
X-768880Y-1373470D01*
X-770330D01*
G01X-768880D02*
X-767910Y-1372830D01*
X-767110Y-1371770D01*
X-766790Y-1370500D01*
X-767110Y-1369230D01*
X-767910Y-1368180D01*
X-769360Y-1367540D01*
X-770810Y-1367750D01*
X-772260Y-1368600D01*
G01X-759790Y-1378760D02*
X-758660Y-1379820D01*
X-757380Y-1380240D01*
X-756090Y-1379820D01*
X-754960Y-1378550D01*
X-754160Y-1376640D01*
X-753840Y-1374740D01*
Y-1372410D01*
X-754160Y-1370500D01*
X-754960Y-1368810D01*
X-755930Y-1367960D01*
X-757060Y-1367540D01*
X-758340Y-1367960D01*
X-759310Y-1368810D01*
X-759950Y-1370080D01*
X-760270Y-1371770D01*
X-759950Y-1373250D01*
X-759150Y-1374740D01*
X-758180Y-1375580D01*
X-757060Y-1375800D01*
X-755770Y-1375370D01*
X-754800Y-1374310D01*
X-753840Y-1372410D01*
G01X-746950Y-1384300D02*
X-738950D01*
G01X-783760Y-1409050D02*
X-783270Y-1409830D01*
X-782690Y-1410360D01*
X-782000Y-1410620D01*
X-781230Y-1410360D01*
X-780640Y-1409830D01*
X-780060Y-1409050D01*
X-779860Y-1408000D01*
Y-1402750D01*
G01X-775890Y-1410620D02*
Y-1402750D01*
X-773550D01*
X-772770Y-1403140D01*
X-772190Y-1404060D01*
X-771990Y-1405110D01*
X-772190Y-1406160D01*
X-772670Y-1406950D01*
X-773550Y-1407340D01*
X-775890D01*
G01X-766070Y-1410620D02*
Y-1402750D01*
X-767240Y-1404320D01*
G01Y-1410620D02*
X-764900D01*
G01X-760050Y-1404060D02*
X-759470Y-1403270D01*
X-758780Y-1402880D01*
X-758010Y-1402750D01*
X-757030Y-1403010D01*
X-756350Y-1403670D01*
X-756160Y-1404460D01*
X-756250Y-1405240D01*
X-756640Y-1405900D01*
X-758590Y-1407210D01*
X-759470Y-1408130D01*
X-760050Y-1409440D01*
X-760240Y-1410620D01*
X-756160D01*
G01X-781760Y-1305050D02*
X-781270Y-1305830D01*
X-780690Y-1306360D01*
X-780000Y-1306620D01*
X-779230Y-1306360D01*
X-778640Y-1305830D01*
X-778060Y-1305050D01*
X-777860Y-1304000D01*
Y-1298750D01*
G01X-773890Y-1306620D02*
Y-1298750D01*
X-771550D01*
X-770770Y-1299140D01*
X-770190Y-1300060D01*
X-769990Y-1301110D01*
X-770190Y-1302160D01*
X-770670Y-1302950D01*
X-771550Y-1303340D01*
X-773890D01*
G01X-764070Y-1306620D02*
Y-1298750D01*
X-765240Y-1300320D01*
G01Y-1306620D02*
X-762900D01*
G01X-756200D02*
Y-1298750D01*
X-757370Y-1300320D01*
G01Y-1306620D02*
X-755030D01*
G01X-779420Y-1268600D02*
X-780380Y-1267960D01*
X-781510Y-1267540D01*
X-782790D01*
X-784240Y-1268180D01*
X-785370Y-1269230D01*
X-786170Y-1270500D01*
X-786820Y-1272620D01*
X-786980Y-1274530D01*
X-786650Y-1276430D01*
X-786170Y-1277700D01*
X-785210Y-1278970D01*
X-784080Y-1279820D01*
X-782960Y-1280240D01*
X-781830D01*
X-780700Y-1279820D01*
X-779740Y-1279180D01*
X-778930Y-1278340D01*
G01X-773540Y-1277700D02*
X-772580Y-1279180D01*
X-771290Y-1280030D01*
X-769840Y-1280240D01*
X-768560Y-1280030D01*
X-767270Y-1278970D01*
X-766470Y-1277700D01*
X-766310Y-1276430D01*
X-766630Y-1274950D01*
X-767750Y-1273890D01*
X-768880Y-1273470D01*
X-770330D01*
G01X-768880D02*
X-767910Y-1272830D01*
X-767110Y-1271770D01*
X-766790Y-1270500D01*
X-767110Y-1269230D01*
X-767910Y-1268180D01*
X-769360Y-1267540D01*
X-770810Y-1267750D01*
X-772260Y-1268600D01*
G01X-760110Y-1274950D02*
X-758990Y-1273470D01*
X-758020Y-1272620D01*
X-756730Y-1272200D01*
X-755610Y-1272620D01*
X-754800Y-1273470D01*
X-754160Y-1274740D01*
X-754000Y-1276220D01*
X-754160Y-1277490D01*
X-754800Y-1278760D01*
X-755770Y-1279820D01*
X-756890Y-1280240D01*
X-758180Y-1279820D01*
X-759310Y-1278550D01*
X-759950Y-1276640D01*
X-760110Y-1274530D01*
X-759790Y-1271770D01*
X-759310Y-1270290D01*
X-758500Y-1268810D01*
X-757380Y-1267750D01*
X-756250Y-1267540D01*
X-755120Y-1267960D01*
X-754320Y-1269020D01*
G01X-746950Y-1282700D02*
X-738950D01*
G01X-783760Y-1205050D02*
X-783270Y-1205830D01*
X-782690Y-1206360D01*
X-782000Y-1206620D01*
X-781230Y-1206360D01*
X-780640Y-1205830D01*
X-780060Y-1205050D01*
X-779860Y-1204000D01*
Y-1198750D01*
G01X-775890Y-1206620D02*
Y-1198750D01*
X-773550D01*
X-772770Y-1199140D01*
X-772190Y-1200060D01*
X-771990Y-1201110D01*
X-772190Y-1202160D01*
X-772670Y-1202950D01*
X-773550Y-1203340D01*
X-775890D01*
G01X-766070Y-1206620D02*
Y-1198750D01*
X-767240Y-1200320D01*
G01Y-1206620D02*
X-764900D01*
G01X-758200Y-1198750D02*
X-758980Y-1199010D01*
X-759560Y-1199670D01*
X-759950Y-1200460D01*
X-760240Y-1201500D01*
X-760340Y-1202690D01*
X-760240Y-1203870D01*
X-759950Y-1204910D01*
X-759560Y-1205700D01*
X-758980Y-1206360D01*
X-758200Y-1206620D01*
X-757420Y-1206360D01*
X-756840Y-1205700D01*
X-756450Y-1204910D01*
X-756160Y-1203870D01*
X-756060Y-1202690D01*
X-756160Y-1201500D01*
X-756450Y-1200460D01*
X-756840Y-1199670D01*
X-757420Y-1199010D01*
X-758200Y-1198750D01*
G01X-779420Y-1164600D02*
X-780380Y-1163960D01*
X-781510Y-1163540D01*
X-782790D01*
X-784240Y-1164180D01*
X-785370Y-1165230D01*
X-786170Y-1166500D01*
X-786820Y-1168620D01*
X-786980Y-1170530D01*
X-786650Y-1172430D01*
X-786170Y-1173700D01*
X-785210Y-1174970D01*
X-784080Y-1175820D01*
X-782960Y-1176240D01*
X-781830D01*
X-780700Y-1175820D01*
X-779740Y-1175180D01*
X-778930Y-1174340D01*
G01X-773540Y-1173700D02*
X-772580Y-1175180D01*
X-771290Y-1176030D01*
X-769840Y-1176240D01*
X-768560Y-1176030D01*
X-767270Y-1174970D01*
X-766470Y-1173700D01*
X-766310Y-1172430D01*
X-766630Y-1170950D01*
X-767750Y-1169890D01*
X-768880Y-1169470D01*
X-770330D01*
G01X-768880D02*
X-767910Y-1168830D01*
X-767110Y-1167770D01*
X-766790Y-1166500D01*
X-767110Y-1165230D01*
X-767910Y-1164180D01*
X-769360Y-1163540D01*
X-770810Y-1163750D01*
X-772260Y-1164600D01*
G01X-760590Y-1173700D02*
X-759630Y-1175180D01*
X-758340Y-1176030D01*
X-756890Y-1176240D01*
X-755610Y-1176030D01*
X-754320Y-1174970D01*
X-753520Y-1173700D01*
X-753360Y-1172430D01*
X-753680Y-1170950D01*
X-754800Y-1169890D01*
X-755930Y-1169470D01*
X-757380D01*
G01X-755930D02*
X-754960Y-1168830D01*
X-754160Y-1167770D01*
X-753840Y-1166500D01*
X-754160Y-1165230D01*
X-754960Y-1164180D01*
X-756410Y-1163540D01*
X-757860Y-1163750D01*
X-759310Y-1164600D01*
G01X-746950Y-1181100D02*
X-738950D01*
G01X-808980Y-1041530D02*
X-804960Y-1054230D01*
X-800930Y-1041530D01*
G01X-795540Y-1054230D02*
Y-1041530D01*
X-792330D01*
X-791040Y-1042170D01*
X-790070Y-1043010D01*
X-789270Y-1044280D01*
X-788630Y-1045760D01*
X-788470Y-1047880D01*
X-788630Y-1050000D01*
X-789270Y-1051480D01*
X-790070Y-1052750D01*
X-791040Y-1053600D01*
X-792330Y-1054230D01*
X-795540D01*
G01X-779060D02*
Y-1041530D01*
X-780990Y-1044070D01*
G01Y-1054230D02*
X-777130D01*
G01X-766940Y-1062600D02*
X-767900Y-1061960D01*
X-769030Y-1061540D01*
X-770310D01*
X-771760Y-1062180D01*
X-772890Y-1063230D01*
X-773690Y-1064500D01*
X-774340Y-1066620D01*
X-774500Y-1068530D01*
X-774170Y-1070430D01*
X-773690Y-1071700D01*
X-772730Y-1072970D01*
X-771600Y-1073820D01*
X-770480Y-1074240D01*
X-769350D01*
X-768220Y-1073820D01*
X-767260Y-1073180D01*
X-766450Y-1072340D01*
G01X-760260Y-1072760D02*
X-759130Y-1073820D01*
X-757850Y-1074240D01*
X-756560Y-1073820D01*
X-755430Y-1072550D01*
X-754630Y-1070640D01*
X-754310Y-1068740D01*
Y-1066410D01*
X-754630Y-1064500D01*
X-755430Y-1062810D01*
X-756400Y-1061960D01*
X-757530Y-1061540D01*
X-758810Y-1061960D01*
X-759780Y-1062810D01*
X-760420Y-1064080D01*
X-760740Y-1065770D01*
X-760420Y-1067250D01*
X-759620Y-1068740D01*
X-758650Y-1069580D01*
X-757530Y-1069800D01*
X-756240Y-1069370D01*
X-755270Y-1068310D01*
X-754310Y-1066410D01*
G01X-746950Y-1079500D02*
X-738950D01*
G01X-775820Y-1103050D02*
X-775330Y-1103830D01*
X-774750Y-1104360D01*
X-774060Y-1104620D01*
X-773290Y-1104360D01*
X-772700Y-1103830D01*
X-772120Y-1103050D01*
X-771920Y-1102000D01*
Y-1096750D01*
G01X-767950Y-1104620D02*
Y-1096750D01*
X-765610D01*
X-764830Y-1097140D01*
X-764250Y-1098060D01*
X-764050Y-1099110D01*
X-764250Y-1100160D01*
X-764730Y-1100950D01*
X-765610Y-1101340D01*
X-767950D01*
G01X-759980Y-1098060D02*
X-759400Y-1097270D01*
X-758710Y-1096880D01*
X-757940Y-1096750D01*
X-756960Y-1097010D01*
X-756280Y-1097670D01*
X-756090Y-1098460D01*
X-756180Y-1099240D01*
X-756570Y-1099900D01*
X-758520Y-1101210D01*
X-759400Y-1102130D01*
X-759980Y-1103440D01*
X-760170Y-1104620D01*
X-756090D01*
G01X-779430Y-704600D02*
X-780390Y-703960D01*
X-781520Y-703540D01*
X-782800D01*
X-784250Y-704180D01*
X-785380Y-705230D01*
X-786180Y-706500D01*
X-786830Y-708620D01*
X-786990Y-710530D01*
X-786660Y-712430D01*
X-786180Y-713700D01*
X-785220Y-714970D01*
X-784090Y-715820D01*
X-782970Y-716240D01*
X-781840D01*
X-780710Y-715820D01*
X-779750Y-715180D01*
X-778940Y-714340D01*
G01X-773550Y-713700D02*
X-772590Y-715180D01*
X-771300Y-716030D01*
X-769850Y-716240D01*
X-768570Y-716030D01*
X-767280Y-714970D01*
X-766480Y-713700D01*
X-766320Y-712430D01*
X-766640Y-710950D01*
X-767760Y-709890D01*
X-768890Y-709470D01*
X-770340D01*
G01X-768890D02*
X-767920Y-708830D01*
X-767120Y-707770D01*
X-766800Y-706500D01*
X-767120Y-705230D01*
X-767920Y-704180D01*
X-769370Y-703540D01*
X-770820Y-703750D01*
X-772270Y-704600D01*
G01X-757070Y-703540D02*
X-758350Y-703960D01*
X-759320Y-705020D01*
X-759960Y-706290D01*
X-760440Y-707990D01*
X-760600Y-709890D01*
X-760440Y-711800D01*
X-759960Y-713490D01*
X-759320Y-714760D01*
X-758350Y-715820D01*
X-757070Y-716240D01*
X-755780Y-715820D01*
X-754810Y-714760D01*
X-754170Y-713490D01*
X-753690Y-711800D01*
X-753530Y-709890D01*
X-753690Y-707990D01*
X-754170Y-706290D01*
X-754810Y-705020D01*
X-755780Y-703960D01*
X-757070Y-703540D01*
G01X-746950Y-717550D02*
X-738950D01*
G01X-775820Y-741050D02*
X-775330Y-741830D01*
X-774750Y-742360D01*
X-774060Y-742620D01*
X-773290Y-742360D01*
X-772700Y-741830D01*
X-772120Y-741050D01*
X-771920Y-740000D01*
Y-734750D01*
G01X-767950Y-742620D02*
Y-734750D01*
X-765610D01*
X-764830Y-735140D01*
X-764250Y-736060D01*
X-764050Y-737110D01*
X-764250Y-738160D01*
X-764730Y-738950D01*
X-765610Y-739340D01*
X-767950D01*
G01X-759780Y-741700D02*
X-759100Y-742360D01*
X-758320Y-742620D01*
X-757550Y-742360D01*
X-756860Y-741570D01*
X-756380Y-740390D01*
X-756180Y-739210D01*
Y-737770D01*
X-756380Y-736590D01*
X-756860Y-735540D01*
X-757450Y-735010D01*
X-758130Y-734750D01*
X-758910Y-735010D01*
X-759490Y-735540D01*
X-759880Y-736320D01*
X-760080Y-737370D01*
X-759880Y-738290D01*
X-759400Y-739210D01*
X-758810Y-739730D01*
X-758130Y-739870D01*
X-757350Y-739600D01*
X-756770Y-738950D01*
X-756180Y-737770D01*
G01X-777430Y-594600D02*
X-778390Y-593960D01*
X-779520Y-593540D01*
X-780800D01*
X-782250Y-594180D01*
X-783380Y-595230D01*
X-784180Y-596500D01*
X-784830Y-598620D01*
X-784990Y-600530D01*
X-784660Y-602430D01*
X-784180Y-603700D01*
X-783220Y-604970D01*
X-782090Y-605820D01*
X-780970Y-606240D01*
X-779840D01*
X-778710Y-605820D01*
X-777750Y-605180D01*
X-776940Y-604340D01*
G01X-771070Y-595660D02*
X-770110Y-594390D01*
X-768980Y-593750D01*
X-767690Y-593540D01*
X-766080Y-593960D01*
X-764960Y-595020D01*
X-764640Y-596290D01*
X-764800Y-597560D01*
X-765440Y-598620D01*
X-768660Y-600740D01*
X-770110Y-602220D01*
X-771070Y-604340D01*
X-771390Y-606240D01*
X-764640D01*
G01X-755390D02*
X-755070Y-603490D01*
X-754580Y-601160D01*
X-753940Y-599040D01*
X-753130Y-596720D01*
X-751850Y-593540D01*
X-758280D01*
G01X-746950Y-615950D02*
X-738950D01*
G01X-775820Y-643050D02*
X-775330Y-643830D01*
X-774750Y-644360D01*
X-774060Y-644620D01*
X-773290Y-644360D01*
X-772700Y-643830D01*
X-772120Y-643050D01*
X-771920Y-642000D01*
Y-636750D01*
G01X-767950Y-644620D02*
Y-636750D01*
X-765610D01*
X-764830Y-637140D01*
X-764250Y-638060D01*
X-764050Y-639110D01*
X-764250Y-640160D01*
X-764730Y-640950D01*
X-765610Y-641340D01*
X-767950D01*
G01X-758130Y-644620D02*
X-757450Y-644490D01*
X-756670Y-644100D01*
X-756180Y-643440D01*
X-755990Y-642520D01*
X-756180Y-641600D01*
X-756770Y-640820D01*
X-757640Y-640420D01*
X-758620D01*
X-759200Y-640160D01*
X-759690Y-639500D01*
X-759880Y-638590D01*
X-759590Y-637670D01*
X-758910Y-637010D01*
X-758130Y-636750D01*
X-757350Y-637010D01*
X-756670Y-637670D01*
X-756380Y-638590D01*
X-756570Y-639500D01*
X-757060Y-640160D01*
X-757640Y-640420D01*
X-758620D01*
X-759490Y-640820D01*
X-760080Y-641600D01*
X-760270Y-642520D01*
X-760080Y-643440D01*
X-759590Y-644100D01*
X-758810Y-644490D01*
X-758130Y-644620D01*
G01X-775820Y-539050D02*
X-775330Y-539830D01*
X-774750Y-540360D01*
X-774060Y-540620D01*
X-773290Y-540360D01*
X-772700Y-539830D01*
X-772120Y-539050D01*
X-771920Y-538000D01*
Y-532750D01*
G01X-767950Y-540620D02*
Y-532750D01*
X-765610D01*
X-764830Y-533140D01*
X-764250Y-534060D01*
X-764050Y-535110D01*
X-764250Y-536160D01*
X-764730Y-536950D01*
X-765610Y-537340D01*
X-767950D01*
G01X-758320Y-540620D02*
X-758130Y-538910D01*
X-757840Y-537470D01*
X-757450Y-536160D01*
X-756960Y-534720D01*
X-756180Y-532750D01*
X-760080D01*
G01X-779430Y-498600D02*
X-780390Y-497960D01*
X-781520Y-497540D01*
X-782800D01*
X-784250Y-498180D01*
X-785380Y-499230D01*
X-786180Y-500500D01*
X-786830Y-502620D01*
X-786990Y-504530D01*
X-786660Y-506430D01*
X-786180Y-507700D01*
X-785220Y-508970D01*
X-784090Y-509820D01*
X-782970Y-510240D01*
X-781840D01*
X-780710Y-509820D01*
X-779750Y-509180D01*
X-778940Y-508340D01*
G01X-773070Y-499660D02*
X-772110Y-498390D01*
X-770980Y-497750D01*
X-769690Y-497540D01*
X-768080Y-497960D01*
X-766960Y-499020D01*
X-766640Y-500290D01*
X-766800Y-501560D01*
X-767440Y-502620D01*
X-770660Y-504740D01*
X-772110Y-506220D01*
X-773070Y-508340D01*
X-773390Y-510240D01*
X-766640D01*
G01X-755130D02*
Y-497540D01*
X-761090Y-506640D01*
X-753040D01*
G01X-746950Y-514350D02*
X-738950D01*
G01X-777430Y-394600D02*
X-778390Y-393960D01*
X-779520Y-393540D01*
X-780800D01*
X-782250Y-394180D01*
X-783380Y-395230D01*
X-784180Y-396500D01*
X-784830Y-398620D01*
X-784990Y-400530D01*
X-784660Y-402430D01*
X-784180Y-403700D01*
X-783220Y-404970D01*
X-782090Y-405820D01*
X-780970Y-406240D01*
X-779840D01*
X-778710Y-405820D01*
X-777750Y-405180D01*
X-776940Y-404340D01*
G01X-771070Y-395660D02*
X-770110Y-394390D01*
X-768980Y-393750D01*
X-767690Y-393540D01*
X-766080Y-393960D01*
X-764960Y-395020D01*
X-764640Y-396290D01*
X-764800Y-397560D01*
X-765440Y-398620D01*
X-768660Y-400740D01*
X-770110Y-402220D01*
X-771070Y-404340D01*
X-771390Y-406240D01*
X-764640D01*
G01X-755070D02*
Y-393540D01*
X-757000Y-396080D01*
G01Y-406240D02*
X-753140D01*
G01X-746950Y-412750D02*
X-738950D01*
G01X-778170Y-439210D02*
X-777680Y-439990D01*
X-777100Y-440520D01*
X-776410Y-440780D01*
X-775640Y-440520D01*
X-775050Y-439990D01*
X-774470Y-439210D01*
X-774270Y-438160D01*
Y-432910D01*
G01X-770300Y-440780D02*
Y-432910D01*
X-767960D01*
X-767180Y-433300D01*
X-766600Y-434220D01*
X-766400Y-435270D01*
X-766600Y-436320D01*
X-767080Y-437110D01*
X-767960Y-437500D01*
X-770300D01*
G01X-762330D02*
X-761650Y-436580D01*
X-761060Y-436060D01*
X-760290Y-435800D01*
X-759600Y-436060D01*
X-759120Y-436580D01*
X-758730Y-437370D01*
X-758630Y-438290D01*
X-758730Y-439070D01*
X-759120Y-439860D01*
X-759700Y-440520D01*
X-760380Y-440780D01*
X-761160Y-440520D01*
X-761840Y-439730D01*
X-762230Y-438550D01*
X-762330Y-437240D01*
X-762130Y-435530D01*
X-761840Y-434620D01*
X-761360Y-433700D01*
X-760670Y-433040D01*
X-759990Y-432910D01*
X-759310Y-433170D01*
X-758830Y-433830D01*
G01X-779430Y-294600D02*
X-780390Y-293960D01*
X-781520Y-293540D01*
X-782800D01*
X-784250Y-294180D01*
X-785380Y-295230D01*
X-786180Y-296500D01*
X-786830Y-298620D01*
X-786990Y-300530D01*
X-786660Y-302430D01*
X-786180Y-303700D01*
X-785220Y-304970D01*
X-784090Y-305820D01*
X-782970Y-306240D01*
X-781840D01*
X-780710Y-305820D01*
X-779750Y-305180D01*
X-778940Y-304340D01*
G01X-770020Y-306240D02*
Y-293540D01*
X-771950Y-296080D01*
G01Y-306240D02*
X-768090D01*
G01X-757070D02*
X-755940Y-306030D01*
X-754650Y-305390D01*
X-753850Y-304340D01*
X-753530Y-302850D01*
X-753850Y-301370D01*
X-754810Y-300100D01*
X-756260Y-299470D01*
X-757870D01*
X-758830Y-299040D01*
X-759640Y-297990D01*
X-759960Y-296500D01*
X-759480Y-295020D01*
X-758350Y-293960D01*
X-757070Y-293540D01*
X-755780Y-293960D01*
X-754650Y-295020D01*
X-754170Y-296500D01*
X-754490Y-297990D01*
X-755300Y-299040D01*
X-756260Y-299470D01*
X-757870D01*
X-759320Y-300100D01*
X-760280Y-301370D01*
X-760600Y-302850D01*
X-760280Y-304340D01*
X-759480Y-305390D01*
X-758190Y-306030D01*
X-757070Y-306240D01*
G01X-746950Y-311150D02*
X-738950D01*
G01X-775820Y-333050D02*
X-775330Y-333830D01*
X-774750Y-334360D01*
X-774060Y-334620D01*
X-773290Y-334360D01*
X-772700Y-333830D01*
X-772120Y-333050D01*
X-771920Y-332000D01*
Y-326750D01*
G01X-767950Y-334620D02*
Y-326750D01*
X-765610D01*
X-764830Y-327140D01*
X-764250Y-328060D01*
X-764050Y-329110D01*
X-764250Y-330160D01*
X-764730Y-330950D01*
X-765610Y-331340D01*
X-767950D01*
G01X-760270Y-333440D02*
X-759690Y-334100D01*
X-759010Y-334490D01*
X-758130Y-334620D01*
X-757250Y-334360D01*
X-756570Y-333830D01*
X-756090Y-332910D01*
X-755990Y-331870D01*
X-756180Y-330820D01*
X-756670Y-330160D01*
X-757350Y-329640D01*
X-758030Y-329500D01*
X-758710Y-329640D01*
X-759590Y-330160D01*
X-759300Y-326750D01*
X-756670D01*
G01X-775820Y-233050D02*
X-775330Y-233830D01*
X-774750Y-234360D01*
X-774060Y-234620D01*
X-773290Y-234360D01*
X-772700Y-233830D01*
X-772120Y-233050D01*
X-771920Y-232000D01*
Y-226750D01*
G01X-767950Y-234620D02*
Y-226750D01*
X-765610D01*
X-764830Y-227140D01*
X-764250Y-228060D01*
X-764050Y-229110D01*
X-764250Y-230160D01*
X-764730Y-230950D01*
X-765610Y-231340D01*
X-767950D01*
G01X-756960Y-234620D02*
Y-226750D01*
X-760560Y-232390D01*
X-755700D01*
G01X-779430Y-194600D02*
X-780390Y-193960D01*
X-781520Y-193540D01*
X-782800D01*
X-784250Y-194180D01*
X-785380Y-195230D01*
X-786180Y-196500D01*
X-786830Y-198620D01*
X-786990Y-200530D01*
X-786660Y-202430D01*
X-786180Y-203700D01*
X-785220Y-204970D01*
X-784090Y-205820D01*
X-782970Y-206240D01*
X-781840D01*
X-780710Y-205820D01*
X-779750Y-205180D01*
X-778940Y-204340D01*
G01X-770020Y-206240D02*
Y-193540D01*
X-771950Y-196080D01*
G01Y-206240D02*
X-768090D01*
G01X-760600Y-204340D02*
X-759640Y-205390D01*
X-758510Y-206030D01*
X-757070Y-206240D01*
X-755620Y-205820D01*
X-754490Y-204970D01*
X-753690Y-203490D01*
X-753530Y-201800D01*
X-753850Y-200100D01*
X-754650Y-199040D01*
X-755780Y-198200D01*
X-756900Y-197990D01*
X-758030Y-198200D01*
X-759480Y-199040D01*
X-759000Y-193540D01*
X-754650D01*
G01X-746950Y-209550D02*
X-738950D01*
G01X-779430Y-94590D02*
X-780390Y-93950D01*
X-781520Y-93530D01*
X-782800D01*
X-784250Y-94170D01*
X-785380Y-95220D01*
X-786180Y-96490D01*
X-786830Y-98610D01*
X-786990Y-100520D01*
X-786660Y-102420D01*
X-786180Y-103690D01*
X-785220Y-104960D01*
X-784090Y-105810D01*
X-782970Y-106230D01*
X-781840D01*
X-780710Y-105810D01*
X-779750Y-105170D01*
X-778940Y-104330D01*
G01X-770020Y-106230D02*
Y-93530D01*
X-771950Y-96070D01*
G01Y-106230D02*
X-768090D01*
G01X-760120Y-95650D02*
X-759160Y-94380D01*
X-758030Y-93740D01*
X-756740Y-93530D01*
X-755130Y-93950D01*
X-754010Y-95010D01*
X-753690Y-96280D01*
X-753850Y-97550D01*
X-754490Y-98610D01*
X-757710Y-100730D01*
X-759160Y-102210D01*
X-760120Y-104330D01*
X-760440Y-106230D01*
X-753690D01*
G01X-746950Y-107950D02*
X-738950D01*
G01X-774820Y-128050D02*
X-774330Y-128830D01*
X-773750Y-129360D01*
X-773060Y-129620D01*
X-772290Y-129360D01*
X-771700Y-128830D01*
X-771120Y-128050D01*
X-770920Y-127000D01*
Y-121750D01*
G01X-766950Y-129620D02*
Y-121750D01*
X-764610D01*
X-763830Y-122140D01*
X-763250Y-123060D01*
X-763050Y-124110D01*
X-763250Y-125160D01*
X-763730Y-125950D01*
X-764610Y-126340D01*
X-766950D01*
G01X-759270Y-128050D02*
X-758690Y-128960D01*
X-757910Y-129490D01*
X-757030Y-129620D01*
X-756250Y-129490D01*
X-755480Y-128830D01*
X-754990Y-128050D01*
X-754890Y-127260D01*
X-755090Y-126340D01*
X-755770Y-125690D01*
X-756450Y-125420D01*
X-757320D01*
G01X-756450D02*
X-755860Y-125030D01*
X-755380Y-124370D01*
X-755180Y-123590D01*
X-755380Y-122800D01*
X-755860Y-122140D01*
X-756740Y-121750D01*
X-757620Y-121880D01*
X-758490Y-122410D01*
G01X-767940Y5410D02*
X-768900Y6050D01*
X-770030Y6470D01*
X-771310D01*
X-772760Y5830D01*
X-773890Y4780D01*
X-774690Y3510D01*
X-775340Y1390D01*
X-775500Y-520D01*
X-775170Y-2420D01*
X-774690Y-3690D01*
X-773730Y-4960D01*
X-772600Y-5810D01*
X-771480Y-6230D01*
X-770350D01*
X-769220Y-5810D01*
X-768260Y-5170D01*
X-767450Y-4330D01*
G01X-761580Y-940D02*
X-760460Y540D01*
X-759490Y1390D01*
X-758200Y1810D01*
X-757080Y1390D01*
X-756270Y540D01*
X-755630Y-730D01*
X-755470Y-2210D01*
X-755630Y-3480D01*
X-756270Y-4750D01*
X-757240Y-5810D01*
X-758360Y-6230D01*
X-759650Y-5810D01*
X-760780Y-4540D01*
X-761420Y-2630D01*
X-761580Y-520D01*
X-761260Y2240D01*
X-760780Y3720D01*
X-759970Y5200D01*
X-758850Y6260D01*
X-757720Y6470D01*
X-756590Y6050D01*
X-755790Y4990D01*
G01X-746950Y-6350D02*
X-738950D01*
G01X-774820Y-28050D02*
X-774330Y-28830D01*
X-773750Y-29360D01*
X-773060Y-29620D01*
X-772290Y-29360D01*
X-771700Y-28830D01*
X-771120Y-28050D01*
X-770920Y-27000D01*
Y-21750D01*
G01X-766950Y-29620D02*
Y-21750D01*
X-764610D01*
X-763830Y-22140D01*
X-763250Y-23060D01*
X-763050Y-24110D01*
X-763250Y-25160D01*
X-763730Y-25950D01*
X-764610Y-26340D01*
X-766950D01*
G01X-757130Y-29620D02*
Y-21750D01*
X-758300Y-23320D01*
G01Y-29620D02*
X-755960D01*
G01X-814190Y58020D02*
X-815150Y58660D01*
X-816280Y59080D01*
X-817560D01*
X-819010Y58440D01*
X-820140Y57390D01*
X-820940Y56120D01*
X-821590Y54000D01*
X-821750Y52090D01*
X-821420Y50190D01*
X-820940Y48920D01*
X-819980Y47650D01*
X-818850Y46800D01*
X-817730Y46380D01*
X-816600D01*
X-815470Y46800D01*
X-814510Y47440D01*
X-813700Y48280D01*
G01X-807830Y56960D02*
X-806870Y58230D01*
X-805740Y58870D01*
X-804450Y59080D01*
X-802840Y58660D01*
X-801720Y57600D01*
X-801400Y56330D01*
X-801560Y55060D01*
X-802200Y54000D01*
X-805420Y51880D01*
X-806870Y50400D01*
X-807830Y48280D01*
X-808150Y46380D01*
X-801400D01*
G01X-698990Y-2039540D02*
X-694970Y-2052240D01*
X-690940Y-2039540D01*
G01X-685550Y-2052240D02*
Y-2039540D01*
X-682340D01*
X-681050Y-2040180D01*
X-680080Y-2041020D01*
X-679280Y-2042290D01*
X-678640Y-2043770D01*
X-678480Y-2045890D01*
X-678640Y-2048010D01*
X-679280Y-2049490D01*
X-680080Y-2050760D01*
X-681050Y-2051610D01*
X-682340Y-2052240D01*
X-685550D01*
G01X-667130D02*
Y-2039540D01*
X-673090Y-2048640D01*
X-665040D01*
G01X-732240Y-1943010D02*
Y-1930310D01*
X-728220D01*
X-726930Y-1930950D01*
X-726130Y-1931790D01*
X-725810Y-1933490D01*
X-726130Y-1935180D01*
X-727090Y-1936240D01*
X-728220Y-1936870D01*
X-732240D01*
G01X-728220D02*
X-725810Y-1943010D01*
G01X-716080D02*
Y-1930310D01*
X-718010Y-1932850D01*
G01Y-1943010D02*
X-714150D01*
G01X-733590Y-1907510D02*
Y-1894810D01*
X-729570D01*
X-728280Y-1895450D01*
X-727480Y-1896290D01*
X-727160Y-1897990D01*
X-727480Y-1899680D01*
X-728440Y-1900740D01*
X-729570Y-1901370D01*
X-733590D01*
G01X-729570D02*
X-727160Y-1907510D01*
G01X-720480Y-1896930D02*
X-719520Y-1895660D01*
X-718390Y-1895020D01*
X-717100Y-1894810D01*
X-715490Y-1895230D01*
X-714370Y-1896290D01*
X-714050Y-1897560D01*
X-714210Y-1898830D01*
X-714850Y-1899890D01*
X-718070Y-1902010D01*
X-719520Y-1903490D01*
X-720480Y-1905610D01*
X-720800Y-1907510D01*
X-714050D01*
G01X-734190Y58020D02*
X-735150Y58660D01*
X-736280Y59080D01*
X-737560D01*
X-739010Y58440D01*
X-740140Y57390D01*
X-740940Y56120D01*
X-741590Y54000D01*
X-741750Y52090D01*
X-741420Y50190D01*
X-740940Y48920D01*
X-739980Y47650D01*
X-738850Y46800D01*
X-737730Y46380D01*
X-736600D01*
X-735470Y46800D01*
X-734510Y47440D01*
X-733700Y48280D01*
G01X-724780Y46380D02*
Y59080D01*
X-726710Y56540D01*
G01Y46380D02*
X-722850D01*
G01X-642230Y-1940050D02*
X-638210Y-1952750D01*
X-634180Y-1940050D01*
G01X-625260D02*
Y-1952750D01*
G01X-628950Y-1940050D02*
X-621560D01*
G01X-612310Y-1952750D02*
Y-1940050D01*
X-614240Y-1942590D01*
G01Y-1952750D02*
X-610380D01*
G01X-595450Y-1847540D02*
X-591430Y-1860240D01*
X-587400Y-1847540D01*
G01X-582010Y-1860240D02*
Y-1847540D01*
X-578800D01*
X-577510Y-1848180D01*
X-576540Y-1849020D01*
X-575740Y-1850290D01*
X-575100Y-1851770D01*
X-574940Y-1853890D01*
X-575100Y-1856010D01*
X-575740Y-1857490D01*
X-576540Y-1858760D01*
X-577510Y-1859610D01*
X-578800Y-1860240D01*
X-582010D01*
G01X-565530D02*
X-564400Y-1860030D01*
X-563110Y-1859390D01*
X-562310Y-1858340D01*
X-561990Y-1856850D01*
X-562310Y-1855370D01*
X-563270Y-1854100D01*
X-564720Y-1853470D01*
X-566330D01*
X-567290Y-1853040D01*
X-568100Y-1851990D01*
X-568420Y-1850500D01*
X-567940Y-1849020D01*
X-566810Y-1847960D01*
X-565530Y-1847540D01*
X-564240Y-1847960D01*
X-563110Y-1849020D01*
X-562630Y-1850500D01*
X-562950Y-1851990D01*
X-563760Y-1853040D01*
X-564720Y-1853470D01*
X-566330D01*
X-567780Y-1854100D01*
X-568740Y-1855370D01*
X-569060Y-1856850D01*
X-568740Y-1858340D01*
X-567940Y-1859390D01*
X-566650Y-1860030D01*
X-565530Y-1860240D01*
G01X-550640D02*
Y-1847540D01*
X-556600Y-1856640D01*
X-548550D01*
G01X-607430Y-1761540D02*
Y-1774240D01*
G01X-611120Y-1761540D02*
X-603730D01*
G01X-598500D02*
X-594480Y-1774240D01*
X-590450Y-1761540D01*
G01X-581530Y-1774240D02*
Y-1761540D01*
X-583460Y-1764080D01*
G01Y-1774240D02*
X-579600D01*
G01X-571630Y-1768950D02*
X-570510Y-1767470D01*
X-569540Y-1766620D01*
X-568250Y-1766200D01*
X-567130Y-1766620D01*
X-566320Y-1767470D01*
X-565680Y-1768740D01*
X-565520Y-1770220D01*
X-565680Y-1771490D01*
X-566320Y-1772760D01*
X-567290Y-1773820D01*
X-568410Y-1774240D01*
X-569700Y-1773820D01*
X-570830Y-1772550D01*
X-571470Y-1770640D01*
X-571630Y-1768530D01*
X-571310Y-1765770D01*
X-570830Y-1764290D01*
X-570020Y-1762810D01*
X-568900Y-1761750D01*
X-567770Y-1761540D01*
X-566640Y-1761960D01*
X-565840Y-1763020D01*
G01X-607430Y-1659540D02*
Y-1672240D01*
G01X-611120Y-1659540D02*
X-603730D01*
G01X-598500D02*
X-594480Y-1672240D01*
X-590450Y-1659540D01*
G01X-581530Y-1672240D02*
Y-1659540D01*
X-583460Y-1662080D01*
G01Y-1672240D02*
X-579600D01*
G01X-572110Y-1670340D02*
X-571150Y-1671390D01*
X-570020Y-1672030D01*
X-568580Y-1672240D01*
X-567130Y-1671820D01*
X-566000Y-1670970D01*
X-565200Y-1669490D01*
X-565040Y-1667800D01*
X-565360Y-1666100D01*
X-566160Y-1665040D01*
X-567290Y-1664200D01*
X-568410Y-1663990D01*
X-569540Y-1664200D01*
X-570990Y-1665040D01*
X-570510Y-1659540D01*
X-566160D01*
G01X-595450Y-1643540D02*
X-591430Y-1656240D01*
X-587400Y-1643540D01*
G01X-582010Y-1656240D02*
Y-1643540D01*
X-578800D01*
X-577510Y-1644180D01*
X-576540Y-1645020D01*
X-575740Y-1646290D01*
X-575100Y-1647770D01*
X-574940Y-1649890D01*
X-575100Y-1652010D01*
X-575740Y-1653490D01*
X-576540Y-1654760D01*
X-577510Y-1655610D01*
X-578800Y-1656240D01*
X-582010D01*
G01X-565850D02*
X-565530Y-1653490D01*
X-565040Y-1651160D01*
X-564400Y-1649040D01*
X-563590Y-1646720D01*
X-562310Y-1643540D01*
X-568740D01*
G01X-550640Y-1656240D02*
Y-1643540D01*
X-556600Y-1652640D01*
X-548550D01*
G01X-607430Y-1557540D02*
Y-1570240D01*
G01X-611120Y-1557540D02*
X-603730D01*
G01X-598500D02*
X-594480Y-1570240D01*
X-590450Y-1557540D01*
G01X-581530Y-1570240D02*
Y-1557540D01*
X-583460Y-1560080D01*
G01Y-1570240D02*
X-579600D01*
G01X-566640D02*
Y-1557540D01*
X-572600Y-1566640D01*
X-564550D01*
G01X-595450Y-1541540D02*
X-591430Y-1554240D01*
X-587400Y-1541540D01*
G01X-582010Y-1554240D02*
Y-1541540D01*
X-578800D01*
X-577510Y-1542180D01*
X-576540Y-1543020D01*
X-575740Y-1544290D01*
X-575100Y-1545770D01*
X-574940Y-1547890D01*
X-575100Y-1550010D01*
X-575740Y-1551490D01*
X-576540Y-1552760D01*
X-577510Y-1553610D01*
X-578800Y-1554240D01*
X-582010D01*
G01X-568580Y-1548950D02*
X-567460Y-1547470D01*
X-566490Y-1546620D01*
X-565200Y-1546200D01*
X-564080Y-1546620D01*
X-563270Y-1547470D01*
X-562630Y-1548740D01*
X-562470Y-1550220D01*
X-562630Y-1551490D01*
X-563270Y-1552760D01*
X-564240Y-1553820D01*
X-565360Y-1554240D01*
X-566650Y-1553820D01*
X-567780Y-1552550D01*
X-568420Y-1550640D01*
X-568580Y-1548530D01*
X-568260Y-1545770D01*
X-567780Y-1544290D01*
X-566970Y-1542810D01*
X-565850Y-1541750D01*
X-564720Y-1541540D01*
X-563590Y-1541960D01*
X-562790Y-1543020D01*
G01X-555310Y-1552760D02*
X-554180Y-1553820D01*
X-552900Y-1554240D01*
X-551610Y-1553820D01*
X-550480Y-1552550D01*
X-549680Y-1550640D01*
X-549360Y-1548740D01*
Y-1546410D01*
X-549680Y-1544500D01*
X-550480Y-1542810D01*
X-551450Y-1541960D01*
X-552580Y-1541540D01*
X-553860Y-1541960D01*
X-554830Y-1542810D01*
X-555470Y-1544080D01*
X-555790Y-1545770D01*
X-555470Y-1547250D01*
X-554670Y-1548740D01*
X-553700Y-1549580D01*
X-552580Y-1549800D01*
X-551290Y-1549370D01*
X-550320Y-1548310D01*
X-549360Y-1546410D01*
G01X-607430Y-1455540D02*
Y-1468240D01*
G01X-611120Y-1455540D02*
X-603730D01*
G01X-598500D02*
X-594480Y-1468240D01*
X-590450Y-1455540D01*
G01X-581530Y-1468240D02*
Y-1455540D01*
X-583460Y-1458080D01*
G01Y-1468240D02*
X-579600D01*
G01X-572110Y-1465700D02*
X-571150Y-1467180D01*
X-569860Y-1468030D01*
X-568410Y-1468240D01*
X-567130Y-1468030D01*
X-565840Y-1466970D01*
X-565040Y-1465700D01*
X-564880Y-1464430D01*
X-565200Y-1462950D01*
X-566320Y-1461890D01*
X-567450Y-1461470D01*
X-568900D01*
G01X-567450D02*
X-566480Y-1460830D01*
X-565680Y-1459770D01*
X-565360Y-1458500D01*
X-565680Y-1457230D01*
X-566480Y-1456180D01*
X-567930Y-1455540D01*
X-569380Y-1455750D01*
X-570830Y-1456600D01*
G01X-595450Y-1439540D02*
X-591430Y-1452240D01*
X-587400Y-1439540D01*
G01X-582010Y-1452240D02*
Y-1439540D01*
X-578800D01*
X-577510Y-1440180D01*
X-576540Y-1441020D01*
X-575740Y-1442290D01*
X-575100Y-1443770D01*
X-574940Y-1445890D01*
X-575100Y-1448010D01*
X-575740Y-1449490D01*
X-576540Y-1450760D01*
X-577510Y-1451610D01*
X-578800Y-1452240D01*
X-582010D01*
G01X-568580Y-1446950D02*
X-567460Y-1445470D01*
X-566490Y-1444620D01*
X-565200Y-1444200D01*
X-564080Y-1444620D01*
X-563270Y-1445470D01*
X-562630Y-1446740D01*
X-562470Y-1448220D01*
X-562630Y-1449490D01*
X-563270Y-1450760D01*
X-564240Y-1451820D01*
X-565360Y-1452240D01*
X-566650Y-1451820D01*
X-567780Y-1450550D01*
X-568420Y-1448640D01*
X-568580Y-1446530D01*
X-568260Y-1443770D01*
X-567780Y-1442290D01*
X-566970Y-1440810D01*
X-565850Y-1439750D01*
X-564720Y-1439540D01*
X-563590Y-1439960D01*
X-562790Y-1441020D01*
G01X-550640Y-1452240D02*
Y-1439540D01*
X-556600Y-1448640D01*
X-548550D01*
G01X-607430Y-1355540D02*
Y-1368240D01*
G01X-611120Y-1355540D02*
X-603730D01*
G01X-598500D02*
X-594480Y-1368240D01*
X-590450Y-1355540D01*
G01X-581530Y-1368240D02*
Y-1355540D01*
X-583460Y-1358080D01*
G01Y-1368240D02*
X-579600D01*
G01X-571630Y-1357660D02*
X-570670Y-1356390D01*
X-569540Y-1355750D01*
X-568250Y-1355540D01*
X-566640Y-1355960D01*
X-565520Y-1357020D01*
X-565200Y-1358290D01*
X-565360Y-1359560D01*
X-566000Y-1360620D01*
X-569220Y-1362740D01*
X-570670Y-1364220D01*
X-571630Y-1366340D01*
X-571950Y-1368240D01*
X-565200D01*
G01X-595450Y-1339540D02*
X-591430Y-1352240D01*
X-587400Y-1339540D01*
G01X-582010Y-1352240D02*
Y-1339540D01*
X-578800D01*
X-577510Y-1340180D01*
X-576540Y-1341020D01*
X-575740Y-1342290D01*
X-575100Y-1343770D01*
X-574940Y-1345890D01*
X-575100Y-1348010D01*
X-575740Y-1349490D01*
X-576540Y-1350760D01*
X-577510Y-1351610D01*
X-578800Y-1352240D01*
X-582010D01*
G01X-569060Y-1350340D02*
X-568100Y-1351390D01*
X-566970Y-1352030D01*
X-565530Y-1352240D01*
X-564080Y-1351820D01*
X-562950Y-1350970D01*
X-562150Y-1349490D01*
X-561990Y-1347800D01*
X-562310Y-1346100D01*
X-563110Y-1345040D01*
X-564240Y-1344200D01*
X-565360Y-1343990D01*
X-566490Y-1344200D01*
X-567940Y-1345040D01*
X-567460Y-1339540D01*
X-563110D01*
G01X-555310Y-1350760D02*
X-554180Y-1351820D01*
X-552900Y-1352240D01*
X-551610Y-1351820D01*
X-550480Y-1350550D01*
X-549680Y-1348640D01*
X-549360Y-1346740D01*
Y-1344410D01*
X-549680Y-1342500D01*
X-550480Y-1340810D01*
X-551450Y-1339960D01*
X-552580Y-1339540D01*
X-553860Y-1339960D01*
X-554830Y-1340810D01*
X-555470Y-1342080D01*
X-555790Y-1343770D01*
X-555470Y-1345250D01*
X-554670Y-1346740D01*
X-553700Y-1347580D01*
X-552580Y-1347800D01*
X-551290Y-1347370D01*
X-550320Y-1346310D01*
X-549360Y-1344410D01*
G01X-607430Y-1253540D02*
Y-1266240D01*
G01X-611120Y-1253540D02*
X-603730D01*
G01X-598500D02*
X-594480Y-1266240D01*
X-590450Y-1253540D01*
G01X-581530Y-1266240D02*
Y-1253540D01*
X-583460Y-1256080D01*
G01Y-1266240D02*
X-579600D01*
G01X-568580D02*
Y-1253540D01*
X-570510Y-1256080D01*
G01Y-1266240D02*
X-566650D01*
G01X-595450Y-1237540D02*
X-591430Y-1250240D01*
X-587400Y-1237540D01*
G01X-582010Y-1250240D02*
Y-1237540D01*
X-578800D01*
X-577510Y-1238180D01*
X-576540Y-1239020D01*
X-575740Y-1240290D01*
X-575100Y-1241770D01*
X-574940Y-1243890D01*
X-575100Y-1246010D01*
X-575740Y-1247490D01*
X-576540Y-1248760D01*
X-577510Y-1249610D01*
X-578800Y-1250240D01*
X-582010D01*
G01X-569060Y-1248340D02*
X-568100Y-1249390D01*
X-566970Y-1250030D01*
X-565530Y-1250240D01*
X-564080Y-1249820D01*
X-562950Y-1248970D01*
X-562150Y-1247490D01*
X-561990Y-1245800D01*
X-562310Y-1244100D01*
X-563110Y-1243040D01*
X-564240Y-1242200D01*
X-565360Y-1241990D01*
X-566490Y-1242200D01*
X-567940Y-1243040D01*
X-567460Y-1237540D01*
X-563110D01*
G01X-550640Y-1250240D02*
Y-1237540D01*
X-556600Y-1246640D01*
X-548550D01*
G01X-607430Y-1151540D02*
Y-1164240D01*
G01X-611120Y-1151540D02*
X-603730D01*
G01X-598500D02*
X-594480Y-1164240D01*
X-590450Y-1151540D01*
G01X-581530Y-1164240D02*
Y-1151540D01*
X-583460Y-1154080D01*
G01Y-1164240D02*
X-579600D01*
G01X-568580Y-1151540D02*
X-569860Y-1151960D01*
X-570830Y-1153020D01*
X-571470Y-1154290D01*
X-571950Y-1155990D01*
X-572110Y-1157890D01*
X-571950Y-1159800D01*
X-571470Y-1161490D01*
X-570830Y-1162760D01*
X-569860Y-1163820D01*
X-568580Y-1164240D01*
X-567290Y-1163820D01*
X-566320Y-1162760D01*
X-565680Y-1161490D01*
X-565200Y-1159800D01*
X-565040Y-1157890D01*
X-565200Y-1155990D01*
X-565680Y-1154290D01*
X-566320Y-1153020D01*
X-567290Y-1151960D01*
X-568580Y-1151540D01*
G01X-595450Y-1135540D02*
X-591430Y-1148240D01*
X-587400Y-1135540D01*
G01X-582010Y-1148240D02*
Y-1135540D01*
X-578800D01*
X-577510Y-1136180D01*
X-576540Y-1137020D01*
X-575740Y-1138290D01*
X-575100Y-1139770D01*
X-574940Y-1141890D01*
X-575100Y-1144010D01*
X-575740Y-1145490D01*
X-576540Y-1146760D01*
X-577510Y-1147610D01*
X-578800Y-1148240D01*
X-582010D01*
G01X-565530D02*
Y-1135540D01*
X-567460Y-1138080D01*
G01Y-1148240D02*
X-563600D01*
G01X-550640D02*
Y-1135540D01*
X-556600Y-1144640D01*
X-548550D01*
G01X-606970Y-1049540D02*
Y-1062240D01*
G01X-610660Y-1049540D02*
X-603270D01*
G01X-598040D02*
X-594020Y-1062240D01*
X-589990Y-1049540D01*
G01X-584120Y-1051660D02*
X-583160Y-1050390D01*
X-582030Y-1049750D01*
X-580740Y-1049540D01*
X-579130Y-1049960D01*
X-578010Y-1051020D01*
X-577690Y-1052290D01*
X-577850Y-1053560D01*
X-578490Y-1054620D01*
X-581710Y-1056740D01*
X-583160Y-1058220D01*
X-584120Y-1060340D01*
X-584440Y-1062240D01*
X-577690D01*
G01X-595450Y-773530D02*
X-591430Y-786230D01*
X-587400Y-773530D01*
G01X-582010Y-786230D02*
Y-773530D01*
X-578800D01*
X-577510Y-774170D01*
X-576540Y-775010D01*
X-575740Y-776280D01*
X-575100Y-777760D01*
X-574940Y-779880D01*
X-575100Y-782000D01*
X-575740Y-783480D01*
X-576540Y-784750D01*
X-577510Y-785600D01*
X-578800Y-786230D01*
X-582010D01*
G01X-563590D02*
Y-773530D01*
X-569550Y-782630D01*
X-561500D01*
G01X-555310Y-784750D02*
X-554180Y-785810D01*
X-552900Y-786230D01*
X-551610Y-785810D01*
X-550480Y-784540D01*
X-549680Y-782630D01*
X-549360Y-780730D01*
Y-778400D01*
X-549680Y-776490D01*
X-550480Y-774800D01*
X-551450Y-773950D01*
X-552580Y-773530D01*
X-553860Y-773950D01*
X-554830Y-774800D01*
X-555470Y-776070D01*
X-555790Y-777760D01*
X-555470Y-779240D01*
X-554670Y-780730D01*
X-553700Y-781570D01*
X-552580Y-781790D01*
X-551290Y-781360D01*
X-550320Y-780300D01*
X-549360Y-778400D01*
G01X-606970Y-687530D02*
Y-700230D01*
G01X-610660Y-687530D02*
X-603270D01*
G01X-598040D02*
X-594020Y-700230D01*
X-589990Y-687530D01*
G01X-583800Y-698750D02*
X-582670Y-699810D01*
X-581390Y-700230D01*
X-580100Y-699810D01*
X-578970Y-698540D01*
X-578170Y-696630D01*
X-577850Y-694730D01*
Y-692400D01*
X-578170Y-690490D01*
X-578970Y-688800D01*
X-579940Y-687950D01*
X-581070Y-687530D01*
X-582350Y-687950D01*
X-583320Y-688800D01*
X-583960Y-690070D01*
X-584280Y-691760D01*
X-583960Y-693240D01*
X-583160Y-694730D01*
X-582190Y-695570D01*
X-581070Y-695790D01*
X-579780Y-695360D01*
X-578810Y-694300D01*
X-577850Y-692400D01*
G01X-595450Y-671530D02*
X-591430Y-684230D01*
X-587400Y-671530D01*
G01X-582010Y-684230D02*
Y-671530D01*
X-578800D01*
X-577510Y-672170D01*
X-576540Y-673010D01*
X-575740Y-674280D01*
X-575100Y-675760D01*
X-574940Y-677880D01*
X-575100Y-680000D01*
X-575740Y-681480D01*
X-576540Y-682750D01*
X-577510Y-683600D01*
X-578800Y-684230D01*
X-582010D01*
G01X-563590D02*
Y-671530D01*
X-569550Y-680630D01*
X-561500D01*
G01X-550640Y-684230D02*
Y-671530D01*
X-556600Y-680630D01*
X-548550D01*
G01X-606970Y-587530D02*
Y-600230D01*
G01X-610660Y-587530D02*
X-603270D01*
G01X-598040D02*
X-594020Y-600230D01*
X-589990Y-587530D01*
G01X-581070Y-600230D02*
X-579940Y-600020D01*
X-578650Y-599380D01*
X-577850Y-598330D01*
X-577530Y-596840D01*
X-577850Y-595360D01*
X-578810Y-594090D01*
X-580260Y-593460D01*
X-581870D01*
X-582830Y-593030D01*
X-583640Y-591980D01*
X-583960Y-590490D01*
X-583480Y-589010D01*
X-582350Y-587950D01*
X-581070Y-587530D01*
X-579780Y-587950D01*
X-578650Y-589010D01*
X-578170Y-590490D01*
X-578490Y-591980D01*
X-579300Y-593030D01*
X-580260Y-593460D01*
X-581870D01*
X-583320Y-594090D01*
X-584280Y-595360D01*
X-584600Y-596840D01*
X-584280Y-598330D01*
X-583480Y-599380D01*
X-582190Y-600020D01*
X-581070Y-600230D01*
G01X-597450Y-571530D02*
X-593430Y-584230D01*
X-589400Y-571530D01*
G01X-584010Y-584230D02*
Y-571530D01*
X-580800D01*
X-579510Y-572170D01*
X-578540Y-573010D01*
X-577740Y-574280D01*
X-577100Y-575760D01*
X-576940Y-577880D01*
X-577100Y-580000D01*
X-577740Y-581480D01*
X-578540Y-582750D01*
X-579510Y-583600D01*
X-580800Y-584230D01*
X-584010D01*
G01X-571060Y-581690D02*
X-570100Y-583170D01*
X-568810Y-584020D01*
X-567360Y-584230D01*
X-566080Y-584020D01*
X-564790Y-582960D01*
X-563990Y-581690D01*
X-563830Y-580420D01*
X-564150Y-578940D01*
X-565270Y-577880D01*
X-566400Y-577460D01*
X-567850D01*
G01X-566400D02*
X-565430Y-576820D01*
X-564630Y-575760D01*
X-564310Y-574490D01*
X-564630Y-573220D01*
X-565430Y-572170D01*
X-566880Y-571530D01*
X-568330Y-571740D01*
X-569780Y-572590D01*
G01X-557310Y-582750D02*
X-556180Y-583810D01*
X-554900Y-584230D01*
X-553610Y-583810D01*
X-552480Y-582540D01*
X-551680Y-580630D01*
X-551360Y-578730D01*
Y-576400D01*
X-551680Y-574490D01*
X-552480Y-572800D01*
X-553450Y-571950D01*
X-554580Y-571530D01*
X-555860Y-571950D01*
X-556830Y-572800D01*
X-557470Y-574070D01*
X-557790Y-575760D01*
X-557470Y-577240D01*
X-556670Y-578730D01*
X-555700Y-579570D01*
X-554580Y-579790D01*
X-553290Y-579360D01*
X-552320Y-578300D01*
X-551360Y-576400D01*
G01X-606970Y-485530D02*
Y-498230D01*
G01X-610660Y-485530D02*
X-603270D01*
G01X-598040D02*
X-594020Y-498230D01*
X-589990Y-485530D01*
G01X-581390Y-498230D02*
X-581070Y-495480D01*
X-580580Y-493150D01*
X-579940Y-491030D01*
X-579130Y-488710D01*
X-577850Y-485530D01*
X-584280D01*
G01X-597450Y-469530D02*
X-593430Y-482230D01*
X-589400Y-469530D01*
G01X-584010Y-482230D02*
Y-469530D01*
X-580800D01*
X-579510Y-470170D01*
X-578540Y-471010D01*
X-577740Y-472280D01*
X-577100Y-473760D01*
X-576940Y-475880D01*
X-577100Y-478000D01*
X-577740Y-479480D01*
X-578540Y-480750D01*
X-579510Y-481600D01*
X-580800Y-482230D01*
X-584010D01*
G01X-571060Y-479690D02*
X-570100Y-481170D01*
X-568810Y-482020D01*
X-567360Y-482230D01*
X-566080Y-482020D01*
X-564790Y-480960D01*
X-563990Y-479690D01*
X-563830Y-478420D01*
X-564150Y-476940D01*
X-565270Y-475880D01*
X-566400Y-475460D01*
X-567850D01*
G01X-566400D02*
X-565430Y-474820D01*
X-564630Y-473760D01*
X-564310Y-472490D01*
X-564630Y-471220D01*
X-565430Y-470170D01*
X-566880Y-469530D01*
X-568330Y-469740D01*
X-569780Y-470590D01*
G01X-552640Y-482230D02*
Y-469530D01*
X-558600Y-478630D01*
X-550550D01*
G01X-606970Y-383530D02*
Y-396230D01*
G01X-610660Y-383530D02*
X-603270D01*
G01X-598040D02*
X-594020Y-396230D01*
X-589990Y-383530D01*
G01X-584120Y-390940D02*
X-583000Y-389460D01*
X-582030Y-388610D01*
X-580740Y-388190D01*
X-579620Y-388610D01*
X-578810Y-389460D01*
X-578170Y-390730D01*
X-578010Y-392210D01*
X-578170Y-393480D01*
X-578810Y-394750D01*
X-579780Y-395810D01*
X-580900Y-396230D01*
X-582190Y-395810D01*
X-583320Y-394540D01*
X-583960Y-392630D01*
X-584120Y-390520D01*
X-583800Y-387760D01*
X-583320Y-386280D01*
X-582510Y-384800D01*
X-581390Y-383740D01*
X-580260Y-383530D01*
X-579130Y-383950D01*
X-578330Y-385010D01*
G01X-595450Y-367530D02*
X-591430Y-380230D01*
X-587400Y-367530D01*
G01X-582010Y-380230D02*
Y-367530D01*
X-578800D01*
X-577510Y-368170D01*
X-576540Y-369010D01*
X-575740Y-370280D01*
X-575100Y-371760D01*
X-574940Y-373880D01*
X-575100Y-376000D01*
X-575740Y-377480D01*
X-576540Y-378750D01*
X-577510Y-379600D01*
X-578800Y-380230D01*
X-582010D01*
G01X-568580Y-369650D02*
X-567620Y-368380D01*
X-566490Y-367740D01*
X-565200Y-367530D01*
X-563590Y-367950D01*
X-562470Y-369010D01*
X-562150Y-370280D01*
X-562310Y-371550D01*
X-562950Y-372610D01*
X-566170Y-374730D01*
X-567620Y-376210D01*
X-568580Y-378330D01*
X-568900Y-380230D01*
X-562150D01*
G01X-555310Y-378750D02*
X-554180Y-379810D01*
X-552900Y-380230D01*
X-551610Y-379810D01*
X-550480Y-378540D01*
X-549680Y-376630D01*
X-549360Y-374730D01*
Y-372400D01*
X-549680Y-370490D01*
X-550480Y-368800D01*
X-551450Y-367950D01*
X-552580Y-367530D01*
X-553860Y-367950D01*
X-554830Y-368800D01*
X-555470Y-370070D01*
X-555790Y-371760D01*
X-555470Y-373240D01*
X-554670Y-374730D01*
X-553700Y-375570D01*
X-552580Y-375790D01*
X-551290Y-375360D01*
X-550320Y-374300D01*
X-549360Y-372400D01*
G01X-606970Y-281530D02*
Y-294230D01*
G01X-610660Y-281530D02*
X-603270D01*
G01X-598040D02*
X-594020Y-294230D01*
X-589990Y-281530D01*
G01X-584600Y-292330D02*
X-583640Y-293380D01*
X-582510Y-294020D01*
X-581070Y-294230D01*
X-579620Y-293810D01*
X-578490Y-292960D01*
X-577690Y-291480D01*
X-577530Y-289790D01*
X-577850Y-288090D01*
X-578650Y-287030D01*
X-579780Y-286190D01*
X-580900Y-285980D01*
X-582030Y-286190D01*
X-583480Y-287030D01*
X-583000Y-281530D01*
X-578650D01*
G01X-595450Y-265530D02*
X-591430Y-278230D01*
X-587400Y-265530D01*
G01X-582010Y-278230D02*
Y-265530D01*
X-578800D01*
X-577510Y-266170D01*
X-576540Y-267010D01*
X-575740Y-268280D01*
X-575100Y-269760D01*
X-574940Y-271880D01*
X-575100Y-274000D01*
X-575740Y-275480D01*
X-576540Y-276750D01*
X-577510Y-277600D01*
X-578800Y-278230D01*
X-582010D01*
G01X-568580Y-267650D02*
X-567620Y-266380D01*
X-566490Y-265740D01*
X-565200Y-265530D01*
X-563590Y-265950D01*
X-562470Y-267010D01*
X-562150Y-268280D01*
X-562310Y-269550D01*
X-562950Y-270610D01*
X-566170Y-272730D01*
X-567620Y-274210D01*
X-568580Y-276330D01*
X-568900Y-278230D01*
X-562150D01*
G01X-550640D02*
Y-265530D01*
X-556600Y-274630D01*
X-548550D01*
G01X-606970Y-179530D02*
Y-192230D01*
G01X-610660Y-179530D02*
X-603270D01*
G01X-598040D02*
X-594020Y-192230D01*
X-589990Y-179530D01*
G01X-579130Y-192230D02*
Y-179530D01*
X-585090Y-188630D01*
X-577040D01*
G01X-606970Y-79530D02*
Y-92230D01*
G01X-610660Y-79530D02*
X-603270D01*
G01X-598040D02*
X-594020Y-92230D01*
X-589990Y-79530D01*
G01X-584600Y-89690D02*
X-583640Y-91170D01*
X-582350Y-92020D01*
X-580900Y-92230D01*
X-579620Y-92020D01*
X-578330Y-90960D01*
X-577530Y-89690D01*
X-577370Y-88420D01*
X-577690Y-86940D01*
X-578810Y-85880D01*
X-579940Y-85460D01*
X-581390D01*
G01X-579940D02*
X-578970Y-84820D01*
X-578170Y-83760D01*
X-577850Y-82490D01*
X-578170Y-81220D01*
X-578970Y-80170D01*
X-580420Y-79530D01*
X-581870Y-79740D01*
X-583320Y-80590D01*
G01X-606970Y24470D02*
Y11770D01*
G01X-610660Y24470D02*
X-603270D01*
G01X-598040D02*
X-594020Y11770D01*
X-589990Y24470D01*
G01X-581070Y11770D02*
Y24470D01*
X-583000Y21930D01*
G01Y11770D02*
X-579140D01*
G01X-592990Y-1981530D02*
X-588970Y-1994230D01*
X-584940Y-1981530D01*
G01X-579550Y-1994230D02*
Y-1981530D01*
X-576340D01*
X-575050Y-1982170D01*
X-574080Y-1983010D01*
X-573280Y-1984280D01*
X-572640Y-1985760D01*
X-572480Y-1987880D01*
X-572640Y-1990000D01*
X-573280Y-1991480D01*
X-574080Y-1992750D01*
X-575050Y-1993600D01*
X-576340Y-1994230D01*
X-579550D01*
G01X-566600Y-1991690D02*
X-565640Y-1993170D01*
X-564350Y-1994020D01*
X-562900Y-1994230D01*
X-561620Y-1994020D01*
X-560330Y-1992960D01*
X-559530Y-1991690D01*
X-559370Y-1990420D01*
X-559690Y-1988940D01*
X-560810Y-1987880D01*
X-561940Y-1987460D01*
X-563390D01*
G01X-561940D02*
X-560970Y-1986820D01*
X-560170Y-1985760D01*
X-559850Y-1984490D01*
X-560170Y-1983220D01*
X-560970Y-1982170D01*
X-562420Y-1981530D01*
X-563870Y-1981740D01*
X-565320Y-1982590D01*
G01X-593450Y-1745540D02*
X-589430Y-1758240D01*
X-585400Y-1745540D01*
G01X-580010Y-1758240D02*
Y-1745540D01*
X-576800D01*
X-575510Y-1746180D01*
X-574540Y-1747020D01*
X-573740Y-1748290D01*
X-573100Y-1749770D01*
X-572940Y-1751890D01*
X-573100Y-1754010D01*
X-573740Y-1755490D01*
X-574540Y-1756760D01*
X-575510Y-1757610D01*
X-576800Y-1758240D01*
X-580010D01*
G01X-563850D02*
X-563530Y-1755490D01*
X-563040Y-1753160D01*
X-562400Y-1751040D01*
X-561590Y-1748720D01*
X-560310Y-1745540D01*
X-566740D01*
G01X-553310Y-1756760D02*
X-552180Y-1757820D01*
X-550900Y-1758240D01*
X-549610Y-1757820D01*
X-548480Y-1756550D01*
X-547680Y-1754640D01*
X-547360Y-1752740D01*
Y-1750410D01*
X-547680Y-1748500D01*
X-548480Y-1746810D01*
X-549450Y-1745960D01*
X-550580Y-1745540D01*
X-551860Y-1745960D01*
X-552830Y-1746810D01*
X-553470Y-1748080D01*
X-553790Y-1749770D01*
X-553470Y-1751250D01*
X-552670Y-1752740D01*
X-551700Y-1753580D01*
X-550580Y-1753800D01*
X-549290Y-1753370D01*
X-548320Y-1752310D01*
X-547360Y-1750410D01*
G01X-593450Y-163530D02*
X-589430Y-176230D01*
X-585400Y-163530D01*
G01X-580010Y-176230D02*
Y-163530D01*
X-576800D01*
X-575510Y-164170D01*
X-574540Y-165010D01*
X-573740Y-166280D01*
X-573100Y-167760D01*
X-572940Y-169880D01*
X-573100Y-172000D01*
X-573740Y-173480D01*
X-574540Y-174750D01*
X-575510Y-175600D01*
X-576800Y-176230D01*
X-580010D01*
G01X-563530D02*
Y-163530D01*
X-565460Y-166070D01*
G01Y-176230D02*
X-561600D01*
G01X-553310Y-174750D02*
X-552180Y-175810D01*
X-550900Y-176230D01*
X-549610Y-175810D01*
X-548480Y-174540D01*
X-547680Y-172630D01*
X-547360Y-170730D01*
Y-168400D01*
X-547680Y-166490D01*
X-548480Y-164800D01*
X-549450Y-163950D01*
X-550580Y-163530D01*
X-551860Y-163950D01*
X-552830Y-164800D01*
X-553470Y-166070D01*
X-553790Y-167760D01*
X-553470Y-169240D01*
X-552670Y-170730D01*
X-551700Y-171570D01*
X-550580Y-171790D01*
X-549290Y-171360D01*
X-548320Y-170300D01*
X-547360Y-168400D01*
G01X-582990Y-63530D02*
X-578970Y-76230D01*
X-574940Y-63530D01*
G01X-569550Y-76230D02*
Y-63530D01*
X-566340D01*
X-565050Y-64170D01*
X-564080Y-65010D01*
X-563280Y-66280D01*
X-562640Y-67760D01*
X-562480Y-69880D01*
X-562640Y-72000D01*
X-563280Y-73480D01*
X-564080Y-74750D01*
X-565050Y-75600D01*
X-566340Y-76230D01*
X-569550D01*
G01X-555800Y-74750D02*
X-554670Y-75810D01*
X-553390Y-76230D01*
X-552100Y-75810D01*
X-550970Y-74540D01*
X-550170Y-72630D01*
X-549850Y-70730D01*
Y-68400D01*
X-550170Y-66490D01*
X-550970Y-64800D01*
X-551940Y-63950D01*
X-553070Y-63530D01*
X-554350Y-63950D01*
X-555320Y-64800D01*
X-555960Y-66070D01*
X-556280Y-67760D01*
X-555960Y-69240D01*
X-555160Y-70730D01*
X-554190Y-71570D01*
X-553070Y-71790D01*
X-551780Y-71360D01*
X-550810Y-70300D01*
X-549850Y-68400D01*
G01X-536260Y152920D02*
X-535460Y151650D01*
X-534490Y150800D01*
X-533370Y150380D01*
X-532080Y150800D01*
X-531110Y151650D01*
X-530150Y152920D01*
X-529830Y154610D01*
Y163080D01*
G01X-522830Y158850D02*
Y152920D01*
X-522190Y151440D01*
X-521220Y150590D01*
X-520100Y150380D01*
X-518970Y150590D01*
X-518000Y151440D01*
X-517360Y152920D01*
G01Y150380D02*
Y158850D01*
G01X-507150Y150380D02*
Y163080D01*
G01X-497570Y146570D02*
X-496610Y146150D01*
X-495320Y146570D01*
X-494520Y147420D01*
X-493870Y148480D01*
X-492910Y151860D01*
X-490820Y158850D01*
G01X-495960D02*
X-492910Y151860D01*
G01X-471350Y160960D02*
X-470390Y162230D01*
X-469260Y162870D01*
X-467970Y163080D01*
X-466360Y162660D01*
X-465240Y161600D01*
X-464920Y160330D01*
X-465080Y159060D01*
X-465720Y158000D01*
X-468940Y155880D01*
X-470390Y154400D01*
X-471350Y152280D01*
X-471670Y150380D01*
X-464920D01*
G01X-455350Y163080D02*
X-456630Y162660D01*
X-457600Y161600D01*
X-458240Y160330D01*
X-458720Y158630D01*
X-458880Y156730D01*
X-458720Y154820D01*
X-458240Y153130D01*
X-457600Y151860D01*
X-456630Y150800D01*
X-455350Y150380D01*
X-454060Y150800D01*
X-453090Y151860D01*
X-452450Y153130D01*
X-451970Y154820D01*
X-451810Y156730D01*
X-451970Y158630D01*
X-452450Y160330D01*
X-453090Y161600D01*
X-454060Y162660D01*
X-455350Y163080D01*
G01X-442400Y150380D02*
Y163080D01*
X-444330Y160540D01*
G01Y150380D02*
X-440470D01*
G01X-432980Y152920D02*
X-432020Y151440D01*
X-430730Y150590D01*
X-429280Y150380D01*
X-428000Y150590D01*
X-426710Y151650D01*
X-425910Y152920D01*
X-425750Y154190D01*
X-426070Y155670D01*
X-427190Y156730D01*
X-428320Y157150D01*
X-429770D01*
G01X-428320D02*
X-427350Y157790D01*
X-426550Y158850D01*
X-426230Y160120D01*
X-426550Y161390D01*
X-427350Y162440D01*
X-428800Y163080D01*
X-430250Y162870D01*
X-431700Y162020D01*
G01X-533160Y172940D02*
Y185640D01*
G01X-527050D02*
X-533160Y177810D01*
G01X-526090Y172940D02*
X-530430Y181410D01*
G01X-519890Y172940D02*
Y185640D01*
X-516030D01*
X-514740Y185000D01*
X-513780Y183520D01*
X-513460Y181830D01*
X-513780Y180140D01*
X-514580Y178870D01*
X-516030Y178230D01*
X-519890D01*
G01X-506940Y172940D02*
Y185640D01*
X-502920D01*
X-501630Y185000D01*
X-500830Y184160D01*
X-500510Y182460D01*
X-500830Y180770D01*
X-501790Y179710D01*
X-502920Y179080D01*
X-506940D01*
G01X-502920D02*
X-500510Y172940D01*
G01X-494310D02*
Y185640D01*
X-491100D01*
X-489810Y185000D01*
X-488840Y184160D01*
X-488040Y182890D01*
X-487400Y181410D01*
X-487240Y179290D01*
X-487400Y177170D01*
X-488040Y175690D01*
X-488840Y174420D01*
X-489810Y173570D01*
X-491100Y172940D01*
X-494310D01*
G01X-482650Y168710D02*
X-473000D01*
G01X-464880Y185640D02*
X-466160Y185220D01*
X-467130Y184160D01*
X-467770Y182890D01*
X-468250Y181190D01*
X-468410Y179290D01*
X-468250Y177380D01*
X-467770Y175690D01*
X-467130Y174420D01*
X-466160Y173360D01*
X-464880Y172940D01*
X-463590Y173360D01*
X-462620Y174420D01*
X-461980Y175690D01*
X-461500Y177380D01*
X-461340Y179290D01*
X-461500Y181190D01*
X-461980Y182890D01*
X-462620Y184160D01*
X-463590Y185220D01*
X-464880Y185640D01*
G01X-455460Y175480D02*
X-454500Y174000D01*
X-453210Y173150D01*
X-451760Y172940D01*
X-450480Y173150D01*
X-449190Y174210D01*
X-448390Y175480D01*
X-448230Y176750D01*
X-448550Y178230D01*
X-449670Y179290D01*
X-450800Y179710D01*
X-452250D01*
G01X-450800D02*
X-449830Y180350D01*
X-449030Y181410D01*
X-448710Y182680D01*
X-449030Y183950D01*
X-449830Y185000D01*
X-451280Y185640D01*
X-452730Y185430D01*
X-454180Y184580D01*
G01X-441870Y181410D02*
X-438980Y172940D01*
X-436080Y181410D01*
G01X-426030Y172940D02*
Y185640D01*
X-427960Y183100D01*
G01Y172940D02*
X-424100D01*
G01X-514640Y-1734230D02*
Y-1721530D01*
X-510620D01*
X-509330Y-1722170D01*
X-508530Y-1723010D01*
X-508210Y-1724710D01*
X-508530Y-1726400D01*
X-509490Y-1727460D01*
X-510620Y-1728090D01*
X-514640D01*
G01X-510620D02*
X-508210Y-1734230D01*
G01X-498480D02*
Y-1721530D01*
X-500410Y-1724070D01*
G01Y-1734230D02*
X-496550D01*
G01X-485530Y-1721530D02*
X-486810Y-1721950D01*
X-487780Y-1723010D01*
X-488420Y-1724280D01*
X-488900Y-1725980D01*
X-489060Y-1727880D01*
X-488900Y-1729790D01*
X-488420Y-1731480D01*
X-487780Y-1732750D01*
X-486810Y-1733810D01*
X-485530Y-1734230D01*
X-484240Y-1733810D01*
X-483270Y-1732750D01*
X-482630Y-1731480D01*
X-482150Y-1729790D01*
X-481990Y-1727880D01*
X-482150Y-1725980D01*
X-482630Y-1724280D01*
X-483270Y-1723010D01*
X-484240Y-1721950D01*
X-485530Y-1721530D01*
G01X-472580D02*
X-473860Y-1721950D01*
X-474830Y-1723010D01*
X-475470Y-1724280D01*
X-475950Y-1725980D01*
X-476110Y-1727880D01*
X-475950Y-1729790D01*
X-475470Y-1731480D01*
X-474830Y-1732750D01*
X-473860Y-1733810D01*
X-472580Y-1734230D01*
X-471290Y-1733810D01*
X-470320Y-1732750D01*
X-469680Y-1731480D01*
X-469200Y-1729790D01*
X-469040Y-1727880D01*
X-469200Y-1725980D01*
X-469680Y-1724280D01*
X-470320Y-1723010D01*
X-471290Y-1721950D01*
X-472580Y-1721530D01*
G01X-510170Y-1532230D02*
Y-1519530D01*
X-506150D01*
X-504860Y-1520170D01*
X-504060Y-1521010D01*
X-503740Y-1522710D01*
X-504060Y-1524400D01*
X-505020Y-1525460D01*
X-506150Y-1526090D01*
X-510170D01*
G01X-506150D02*
X-503740Y-1532230D01*
G01X-494010D02*
X-492880Y-1532020D01*
X-491590Y-1531380D01*
X-490790Y-1530330D01*
X-490470Y-1528840D01*
X-490790Y-1527360D01*
X-491750Y-1526090D01*
X-493200Y-1525460D01*
X-494810D01*
X-495770Y-1525030D01*
X-496580Y-1523980D01*
X-496900Y-1522490D01*
X-496420Y-1521010D01*
X-495290Y-1519950D01*
X-494010Y-1519530D01*
X-492720Y-1519950D01*
X-491590Y-1521010D01*
X-491110Y-1522490D01*
X-491430Y-1523980D01*
X-492240Y-1525030D01*
X-493200Y-1525460D01*
X-494810D01*
X-496260Y-1526090D01*
X-497220Y-1527360D01*
X-497540Y-1528840D01*
X-497220Y-1530330D01*
X-496420Y-1531380D01*
X-495130Y-1532020D01*
X-494010Y-1532230D01*
G01X-481060D02*
X-479930Y-1532020D01*
X-478640Y-1531380D01*
X-477840Y-1530330D01*
X-477520Y-1528840D01*
X-477840Y-1527360D01*
X-478800Y-1526090D01*
X-480250Y-1525460D01*
X-481860D01*
X-482820Y-1525030D01*
X-483630Y-1523980D01*
X-483950Y-1522490D01*
X-483470Y-1521010D01*
X-482340Y-1519950D01*
X-481060Y-1519530D01*
X-479770Y-1519950D01*
X-478640Y-1521010D01*
X-478160Y-1522490D01*
X-478480Y-1523980D01*
X-479290Y-1525030D01*
X-480250Y-1525460D01*
X-481860D01*
X-483310Y-1526090D01*
X-484270Y-1527360D01*
X-484590Y-1528840D01*
X-484270Y-1530330D01*
X-483470Y-1531380D01*
X-482180Y-1532020D01*
X-481060Y-1532230D01*
G01X-502170Y-1328230D02*
Y-1315530D01*
X-498150D01*
X-496860Y-1316170D01*
X-496060Y-1317010D01*
X-495740Y-1318710D01*
X-496060Y-1320400D01*
X-497020Y-1321460D01*
X-498150Y-1322090D01*
X-502170D01*
G01X-498150D02*
X-495740Y-1328230D01*
G01X-486330D02*
X-486010Y-1325480D01*
X-485520Y-1323150D01*
X-484880Y-1321030D01*
X-484070Y-1318710D01*
X-482790Y-1315530D01*
X-489220D01*
G01X-476110Y-1322940D02*
X-474990Y-1321460D01*
X-474020Y-1320610D01*
X-472730Y-1320190D01*
X-471610Y-1320610D01*
X-470800Y-1321460D01*
X-470160Y-1322730D01*
X-470000Y-1324210D01*
X-470160Y-1325480D01*
X-470800Y-1326750D01*
X-471770Y-1327810D01*
X-472890Y-1328230D01*
X-474180Y-1327810D01*
X-475310Y-1326540D01*
X-475950Y-1324630D01*
X-476110Y-1322520D01*
X-475790Y-1319760D01*
X-475310Y-1318280D01*
X-474500Y-1316800D01*
X-473380Y-1315740D01*
X-472250Y-1315530D01*
X-471120Y-1315950D01*
X-470320Y-1317010D01*
G01X-508170Y-1126230D02*
Y-1113530D01*
X-504150D01*
X-502860Y-1114170D01*
X-502060Y-1115010D01*
X-501740Y-1116710D01*
X-502060Y-1118400D01*
X-503020Y-1119460D01*
X-504150Y-1120090D01*
X-508170D01*
G01X-504150D02*
X-501740Y-1126230D01*
G01X-495060Y-1120940D02*
X-493940Y-1119460D01*
X-492970Y-1118610D01*
X-491680Y-1118190D01*
X-490560Y-1118610D01*
X-489750Y-1119460D01*
X-489110Y-1120730D01*
X-488950Y-1122210D01*
X-489110Y-1123480D01*
X-489750Y-1124750D01*
X-490720Y-1125810D01*
X-491840Y-1126230D01*
X-493130Y-1125810D01*
X-494260Y-1124540D01*
X-494900Y-1122630D01*
X-495060Y-1120520D01*
X-494740Y-1117760D01*
X-494260Y-1116280D01*
X-493450Y-1114800D01*
X-492330Y-1113740D01*
X-491200Y-1113530D01*
X-490070Y-1113950D01*
X-489270Y-1115010D01*
G01X-477120Y-1126230D02*
Y-1113530D01*
X-483080Y-1122630D01*
X-475030D01*
G01X-510160Y-662230D02*
Y-649530D01*
X-506140D01*
X-504850Y-650170D01*
X-504050Y-651010D01*
X-503730Y-652710D01*
X-504050Y-654400D01*
X-505010Y-655460D01*
X-506140Y-656090D01*
X-510160D01*
G01X-506140D02*
X-503730Y-662230D01*
G01X-497530Y-660330D02*
X-496570Y-661380D01*
X-495440Y-662020D01*
X-494000Y-662230D01*
X-492550Y-661810D01*
X-491420Y-660960D01*
X-490620Y-659480D01*
X-490460Y-657790D01*
X-490780Y-656090D01*
X-491580Y-655030D01*
X-492710Y-654190D01*
X-493830Y-653980D01*
X-494960Y-654190D01*
X-496410Y-655030D01*
X-495930Y-649530D01*
X-491580D01*
G01X-481050Y-662230D02*
X-479920Y-662020D01*
X-478630Y-661380D01*
X-477830Y-660330D01*
X-477510Y-658840D01*
X-477830Y-657360D01*
X-478790Y-656090D01*
X-480240Y-655460D01*
X-481850D01*
X-482810Y-655030D01*
X-483620Y-653980D01*
X-483940Y-652490D01*
X-483460Y-651010D01*
X-482330Y-649950D01*
X-481050Y-649530D01*
X-479760Y-649950D01*
X-478630Y-651010D01*
X-478150Y-652490D01*
X-478470Y-653980D01*
X-479280Y-655030D01*
X-480240Y-655460D01*
X-481850D01*
X-483300Y-656090D01*
X-484260Y-657360D01*
X-484580Y-658840D01*
X-484260Y-660330D01*
X-483460Y-661380D01*
X-482170Y-662020D01*
X-481050Y-662230D01*
G01X-512160Y-460230D02*
Y-447530D01*
X-508140D01*
X-506850Y-448170D01*
X-506050Y-449010D01*
X-505730Y-450710D01*
X-506050Y-452400D01*
X-507010Y-453460D01*
X-508140Y-454090D01*
X-512160D01*
G01X-508140D02*
X-505730Y-460230D01*
G01X-494060D02*
Y-447530D01*
X-500020Y-456630D01*
X-491970D01*
G01X-486100Y-454940D02*
X-484980Y-453460D01*
X-484010Y-452610D01*
X-482720Y-452190D01*
X-481600Y-452610D01*
X-480790Y-453460D01*
X-480150Y-454730D01*
X-479990Y-456210D01*
X-480150Y-457480D01*
X-480790Y-458750D01*
X-481760Y-459810D01*
X-482880Y-460230D01*
X-484170Y-459810D01*
X-485300Y-458540D01*
X-485940Y-456630D01*
X-486100Y-454520D01*
X-485780Y-451760D01*
X-485300Y-450280D01*
X-484490Y-448800D01*
X-483370Y-447740D01*
X-482240Y-447530D01*
X-481110Y-447950D01*
X-480310Y-449010D01*
G01X-512160Y-256230D02*
Y-243530D01*
X-508140D01*
X-506850Y-244170D01*
X-506050Y-245010D01*
X-505730Y-246710D01*
X-506050Y-248400D01*
X-507010Y-249460D01*
X-508140Y-250090D01*
X-512160D01*
G01X-508140D02*
X-505730Y-256230D01*
G01X-499530Y-253690D02*
X-498570Y-255170D01*
X-497280Y-256020D01*
X-495830Y-256230D01*
X-494550Y-256020D01*
X-493260Y-254960D01*
X-492460Y-253690D01*
X-492300Y-252420D01*
X-492620Y-250940D01*
X-493740Y-249880D01*
X-494870Y-249460D01*
X-496320D01*
G01X-494870D02*
X-493900Y-248820D01*
X-493100Y-247760D01*
X-492780Y-246490D01*
X-493100Y-245220D01*
X-493900Y-244170D01*
X-495350Y-243530D01*
X-496800Y-243740D01*
X-498250Y-244590D01*
G01X-481110Y-256230D02*
Y-243530D01*
X-487070Y-252630D01*
X-479020D01*
G01X-511160Y-51230D02*
Y-38530D01*
X-507140D01*
X-505850Y-39170D01*
X-505050Y-40010D01*
X-504730Y-41710D01*
X-505050Y-43400D01*
X-506010Y-44460D01*
X-507140Y-45090D01*
X-511160D01*
G01X-507140D02*
X-504730Y-51230D01*
G01X-498050Y-40650D02*
X-497090Y-39380D01*
X-495960Y-38740D01*
X-494670Y-38530D01*
X-493060Y-38950D01*
X-491940Y-40010D01*
X-491620Y-41280D01*
X-491780Y-42550D01*
X-492420Y-43610D01*
X-495640Y-45730D01*
X-497090Y-47210D01*
X-498050Y-49330D01*
X-498370Y-51230D01*
X-491620D01*
G01X-485100Y-40650D02*
X-484140Y-39380D01*
X-483010Y-38740D01*
X-481720Y-38530D01*
X-480110Y-38950D01*
X-478990Y-40010D01*
X-478670Y-41280D01*
X-478830Y-42550D01*
X-479470Y-43610D01*
X-482690Y-45730D01*
X-484140Y-47210D01*
X-485100Y-49330D01*
X-485420Y-51230D01*
X-478670D01*
G01X-384170Y-1634230D02*
Y-1621530D01*
X-380150D01*
X-378860Y-1622170D01*
X-378060Y-1623010D01*
X-377740Y-1624710D01*
X-378060Y-1626400D01*
X-379020Y-1627460D01*
X-380150Y-1628090D01*
X-384170D01*
G01X-380150D02*
X-377740Y-1634230D01*
G01X-370740Y-1632750D02*
X-369610Y-1633810D01*
X-368330Y-1634230D01*
X-367040Y-1633810D01*
X-365910Y-1632540D01*
X-365110Y-1630630D01*
X-364790Y-1628730D01*
Y-1626400D01*
X-365110Y-1624490D01*
X-365910Y-1622800D01*
X-366880Y-1621950D01*
X-368010Y-1621530D01*
X-369290Y-1621950D01*
X-370260Y-1622800D01*
X-370900Y-1624070D01*
X-371220Y-1625760D01*
X-370900Y-1627240D01*
X-370100Y-1628730D01*
X-369130Y-1629570D01*
X-368010Y-1629790D01*
X-366720Y-1629360D01*
X-365750Y-1628300D01*
X-364790Y-1626400D01*
G01X-353120Y-1634230D02*
Y-1621530D01*
X-359080Y-1630630D01*
X-351030D01*
G01X-380170Y-1430230D02*
Y-1417530D01*
X-376150D01*
X-374860Y-1418170D01*
X-374060Y-1419010D01*
X-373740Y-1420710D01*
X-374060Y-1422400D01*
X-375020Y-1423460D01*
X-376150Y-1424090D01*
X-380170D01*
G01X-376150D02*
X-373740Y-1430230D01*
G01X-364010D02*
X-362880Y-1430020D01*
X-361590Y-1429380D01*
X-360790Y-1428330D01*
X-360470Y-1426840D01*
X-360790Y-1425360D01*
X-361750Y-1424090D01*
X-363200Y-1423460D01*
X-364810D01*
X-365770Y-1423030D01*
X-366580Y-1421980D01*
X-366900Y-1420490D01*
X-366420Y-1419010D01*
X-365290Y-1417950D01*
X-364010Y-1417530D01*
X-362720Y-1417950D01*
X-361590Y-1419010D01*
X-361110Y-1420490D01*
X-361430Y-1421980D01*
X-362240Y-1423030D01*
X-363200Y-1423460D01*
X-364810D01*
X-366260Y-1424090D01*
X-367220Y-1425360D01*
X-367540Y-1426840D01*
X-367220Y-1428330D01*
X-366420Y-1429380D01*
X-365130Y-1430020D01*
X-364010Y-1430230D01*
G01X-354110Y-1419650D02*
X-353150Y-1418380D01*
X-352020Y-1417740D01*
X-350730Y-1417530D01*
X-349120Y-1417950D01*
X-348000Y-1419010D01*
X-347680Y-1420280D01*
X-347840Y-1421550D01*
X-348480Y-1422610D01*
X-351700Y-1424730D01*
X-353150Y-1426210D01*
X-354110Y-1428330D01*
X-354430Y-1430230D01*
X-347680D01*
G01X-380170Y-1228230D02*
Y-1215530D01*
X-376150D01*
X-374860Y-1216170D01*
X-374060Y-1217010D01*
X-373740Y-1218710D01*
X-374060Y-1220400D01*
X-375020Y-1221460D01*
X-376150Y-1222090D01*
X-380170D01*
G01X-376150D02*
X-373740Y-1228230D01*
G01X-364330D02*
X-364010Y-1225480D01*
X-363520Y-1223150D01*
X-362880Y-1221030D01*
X-362070Y-1218710D01*
X-360790Y-1215530D01*
X-367220D01*
G01X-351060D02*
X-352340Y-1215950D01*
X-353310Y-1217010D01*
X-353950Y-1218280D01*
X-354430Y-1219980D01*
X-354590Y-1221880D01*
X-354430Y-1223790D01*
X-353950Y-1225480D01*
X-353310Y-1226750D01*
X-352340Y-1227810D01*
X-351060Y-1228230D01*
X-349770Y-1227810D01*
X-348800Y-1226750D01*
X-348160Y-1225480D01*
X-347680Y-1223790D01*
X-347520Y-1221880D01*
X-347680Y-1219980D01*
X-348160Y-1218280D01*
X-348800Y-1217010D01*
X-349770Y-1215950D01*
X-351060Y-1215530D01*
G01X-382170Y-1024230D02*
Y-1011530D01*
X-378150D01*
X-376860Y-1012170D01*
X-376060Y-1013010D01*
X-375740Y-1014710D01*
X-376060Y-1016400D01*
X-377020Y-1017460D01*
X-378150Y-1018090D01*
X-382170D01*
G01X-378150D02*
X-375740Y-1024230D01*
G01X-366010D02*
Y-1011530D01*
X-367940Y-1014070D01*
G01Y-1024230D02*
X-364080D01*
G01X-356110Y-1018940D02*
X-354990Y-1017460D01*
X-354020Y-1016610D01*
X-352730Y-1016190D01*
X-351610Y-1016610D01*
X-350800Y-1017460D01*
X-350160Y-1018730D01*
X-350000Y-1020210D01*
X-350160Y-1021480D01*
X-350800Y-1022750D01*
X-351770Y-1023810D01*
X-352890Y-1024230D01*
X-354180Y-1023810D01*
X-355310Y-1022540D01*
X-355950Y-1020630D01*
X-356110Y-1018520D01*
X-355790Y-1015760D01*
X-355310Y-1014280D01*
X-354500Y-1012800D01*
X-353380Y-1011740D01*
X-352250Y-1011530D01*
X-351120Y-1011950D01*
X-350320Y-1013010D01*
G01X-386160Y-560230D02*
Y-547530D01*
X-382140D01*
X-380850Y-548170D01*
X-380050Y-549010D01*
X-379730Y-550710D01*
X-380050Y-552400D01*
X-381010Y-553460D01*
X-382140Y-554090D01*
X-386160D01*
G01X-382140D02*
X-379730Y-560230D01*
G01X-373530Y-558330D02*
X-372570Y-559380D01*
X-371440Y-560020D01*
X-370000Y-560230D01*
X-368550Y-559810D01*
X-367420Y-558960D01*
X-366620Y-557480D01*
X-366460Y-555790D01*
X-366780Y-554090D01*
X-367580Y-553030D01*
X-368710Y-552190D01*
X-369830Y-551980D01*
X-370960Y-552190D01*
X-372410Y-553030D01*
X-371930Y-547530D01*
X-367580D01*
G01X-360100Y-549650D02*
X-359140Y-548380D01*
X-358010Y-547740D01*
X-356720Y-547530D01*
X-355110Y-547950D01*
X-353990Y-549010D01*
X-353670Y-550280D01*
X-353830Y-551550D01*
X-354470Y-552610D01*
X-357690Y-554730D01*
X-359140Y-556210D01*
X-360100Y-558330D01*
X-360420Y-560230D01*
X-353670D01*
G01X-384160Y-358230D02*
Y-345530D01*
X-380140D01*
X-378850Y-346170D01*
X-378050Y-347010D01*
X-377730Y-348710D01*
X-378050Y-350400D01*
X-379010Y-351460D01*
X-380140Y-352090D01*
X-384160D01*
G01X-380140D02*
X-377730Y-358230D01*
G01X-366060D02*
Y-345530D01*
X-372020Y-354630D01*
X-363970D01*
G01X-355050Y-345530D02*
X-356330Y-345950D01*
X-357300Y-347010D01*
X-357940Y-348280D01*
X-358420Y-349980D01*
X-358580Y-351880D01*
X-358420Y-353790D01*
X-357940Y-355480D01*
X-357300Y-356750D01*
X-356330Y-357810D01*
X-355050Y-358230D01*
X-353760Y-357810D01*
X-352790Y-356750D01*
X-352150Y-355480D01*
X-351670Y-353790D01*
X-351510Y-351880D01*
X-351670Y-349980D01*
X-352150Y-348280D01*
X-352790Y-347010D01*
X-353760Y-345950D01*
X-355050Y-345530D01*
G01X-386160Y-154230D02*
Y-141530D01*
X-382140D01*
X-380850Y-142170D01*
X-380050Y-143010D01*
X-379730Y-144710D01*
X-380050Y-146400D01*
X-381010Y-147460D01*
X-382140Y-148090D01*
X-386160D01*
G01X-382140D02*
X-379730Y-154230D01*
G01X-373050Y-143650D02*
X-372090Y-142380D01*
X-370960Y-141740D01*
X-369670Y-141530D01*
X-368060Y-141950D01*
X-366940Y-143010D01*
X-366620Y-144280D01*
X-366780Y-145550D01*
X-367420Y-146610D01*
X-370640Y-148730D01*
X-372090Y-150210D01*
X-373050Y-152330D01*
X-373370Y-154230D01*
X-366620D01*
G01X-357050D02*
X-355920Y-154020D01*
X-354630Y-153380D01*
X-353830Y-152330D01*
X-353510Y-150840D01*
X-353830Y-149360D01*
X-354790Y-148090D01*
X-356240Y-147460D01*
X-357850D01*
X-358810Y-147030D01*
X-359620Y-145980D01*
X-359940Y-144490D01*
X-359460Y-143010D01*
X-358330Y-141950D01*
X-357050Y-141530D01*
X-355760Y-141950D01*
X-354630Y-143010D01*
X-354150Y-144490D01*
X-354470Y-145980D01*
X-355280Y-147030D01*
X-356240Y-147460D01*
X-357850D01*
X-359300Y-148090D01*
X-360260Y-149360D01*
X-360580Y-150840D01*
X-360260Y-152330D01*
X-359460Y-153380D01*
X-358170Y-154020D01*
X-357050Y-154230D01*
G01X-378170Y49770D02*
Y62470D01*
X-374150D01*
X-372860Y61830D01*
X-372060Y60990D01*
X-371740Y59290D01*
X-372060Y57600D01*
X-373020Y56540D01*
X-374150Y55910D01*
X-378170D01*
G01X-374150D02*
X-371740Y49770D01*
G01X-362010D02*
Y62470D01*
X-363940Y59930D01*
G01Y49770D02*
X-360080D01*
G01X-349060Y62470D02*
X-350340Y62050D01*
X-351310Y60990D01*
X-351950Y59720D01*
X-352430Y58020D01*
X-352590Y56120D01*
X-352430Y54210D01*
X-351950Y52520D01*
X-351310Y51250D01*
X-350340Y50190D01*
X-349060Y49770D01*
X-347770Y50190D01*
X-346800Y51250D01*
X-346160Y52520D01*
X-345680Y54210D01*
X-345520Y56120D01*
X-345680Y58020D01*
X-346160Y59720D01*
X-346800Y60990D01*
X-347770Y62050D01*
X-349060Y62470D01*
G01X-256170Y-1734230D02*
Y-1721530D01*
X-252150D01*
X-250860Y-1722170D01*
X-250060Y-1723010D01*
X-249740Y-1724710D01*
X-250060Y-1726400D01*
X-251020Y-1727460D01*
X-252150Y-1728090D01*
X-256170D01*
G01X-252150D02*
X-249740Y-1734230D01*
G01X-242740Y-1732750D02*
X-241610Y-1733810D01*
X-240330Y-1734230D01*
X-239040Y-1733810D01*
X-237910Y-1732540D01*
X-237110Y-1730630D01*
X-236790Y-1728730D01*
Y-1726400D01*
X-237110Y-1724490D01*
X-237910Y-1722800D01*
X-238880Y-1721950D01*
X-240010Y-1721530D01*
X-241290Y-1721950D01*
X-242260Y-1722800D01*
X-242900Y-1724070D01*
X-243220Y-1725760D01*
X-242900Y-1727240D01*
X-242100Y-1728730D01*
X-241130Y-1729570D01*
X-240010Y-1729790D01*
X-238720Y-1729360D01*
X-237750Y-1728300D01*
X-236790Y-1726400D01*
G01X-230590Y-1732330D02*
X-229630Y-1733380D01*
X-228500Y-1734020D01*
X-227060Y-1734230D01*
X-225610Y-1733810D01*
X-224480Y-1732960D01*
X-223680Y-1731480D01*
X-223520Y-1729790D01*
X-223840Y-1728090D01*
X-224640Y-1727030D01*
X-225770Y-1726190D01*
X-226890Y-1725980D01*
X-228020Y-1726190D01*
X-229470Y-1727030D01*
X-228990Y-1721530D01*
X-224640D01*
G01X-254170Y-1532230D02*
Y-1519530D01*
X-250150D01*
X-248860Y-1520170D01*
X-248060Y-1521010D01*
X-247740Y-1522710D01*
X-248060Y-1524400D01*
X-249020Y-1525460D01*
X-250150Y-1526090D01*
X-254170D01*
G01X-250150D02*
X-247740Y-1532230D01*
G01X-238010D02*
X-236880Y-1532020D01*
X-235590Y-1531380D01*
X-234790Y-1530330D01*
X-234470Y-1528840D01*
X-234790Y-1527360D01*
X-235750Y-1526090D01*
X-237200Y-1525460D01*
X-238810D01*
X-239770Y-1525030D01*
X-240580Y-1523980D01*
X-240900Y-1522490D01*
X-240420Y-1521010D01*
X-239290Y-1519950D01*
X-238010Y-1519530D01*
X-236720Y-1519950D01*
X-235590Y-1521010D01*
X-235110Y-1522490D01*
X-235430Y-1523980D01*
X-236240Y-1525030D01*
X-237200Y-1525460D01*
X-238810D01*
X-240260Y-1526090D01*
X-241220Y-1527360D01*
X-241540Y-1528840D01*
X-241220Y-1530330D01*
X-240420Y-1531380D01*
X-239130Y-1532020D01*
X-238010Y-1532230D01*
G01X-228590Y-1529690D02*
X-227630Y-1531170D01*
X-226340Y-1532020D01*
X-224890Y-1532230D01*
X-223610Y-1532020D01*
X-222320Y-1530960D01*
X-221520Y-1529690D01*
X-221360Y-1528420D01*
X-221680Y-1526940D01*
X-222800Y-1525880D01*
X-223930Y-1525460D01*
X-225380D01*
G01X-223930D02*
X-222960Y-1524820D01*
X-222160Y-1523760D01*
X-221840Y-1522490D01*
X-222160Y-1521220D01*
X-222960Y-1520170D01*
X-224410Y-1519530D01*
X-225860Y-1519740D01*
X-227310Y-1520590D01*
G01X-252170Y-1328230D02*
Y-1315530D01*
X-248150D01*
X-246860Y-1316170D01*
X-246060Y-1317010D01*
X-245740Y-1318710D01*
X-246060Y-1320400D01*
X-247020Y-1321460D01*
X-248150Y-1322090D01*
X-252170D01*
G01X-248150D02*
X-245740Y-1328230D01*
G01X-236330D02*
X-236010Y-1325480D01*
X-235520Y-1323150D01*
X-234880Y-1321030D01*
X-234070Y-1318710D01*
X-232790Y-1315530D01*
X-239220D01*
G01X-223060Y-1328230D02*
Y-1315530D01*
X-224990Y-1318070D01*
G01Y-1328230D02*
X-221130D01*
G01X-256170Y-1126230D02*
Y-1113530D01*
X-252150D01*
X-250860Y-1114170D01*
X-250060Y-1115010D01*
X-249740Y-1116710D01*
X-250060Y-1118400D01*
X-251020Y-1119460D01*
X-252150Y-1120090D01*
X-256170D01*
G01X-252150D02*
X-249740Y-1126230D01*
G01X-243540Y-1124330D02*
X-242580Y-1125380D01*
X-241450Y-1126020D01*
X-240010Y-1126230D01*
X-238560Y-1125810D01*
X-237430Y-1124960D01*
X-236630Y-1123480D01*
X-236470Y-1121790D01*
X-236790Y-1120090D01*
X-237590Y-1119030D01*
X-238720Y-1118190D01*
X-239840Y-1117980D01*
X-240970Y-1118190D01*
X-242420Y-1119030D01*
X-241940Y-1113530D01*
X-237590D01*
G01X-229790Y-1124750D02*
X-228660Y-1125810D01*
X-227380Y-1126230D01*
X-226090Y-1125810D01*
X-224960Y-1124540D01*
X-224160Y-1122630D01*
X-223840Y-1120730D01*
Y-1118400D01*
X-224160Y-1116490D01*
X-224960Y-1114800D01*
X-225930Y-1113950D01*
X-227060Y-1113530D01*
X-228340Y-1113950D01*
X-229310Y-1114800D01*
X-229950Y-1116070D01*
X-230270Y-1117760D01*
X-229950Y-1119240D01*
X-229150Y-1120730D01*
X-228180Y-1121570D01*
X-227060Y-1121790D01*
X-225770Y-1121360D01*
X-224800Y-1120300D01*
X-223840Y-1118400D01*
G01X-256160Y-662230D02*
Y-649530D01*
X-252140D01*
X-250850Y-650170D01*
X-250050Y-651010D01*
X-249730Y-652710D01*
X-250050Y-654400D01*
X-251010Y-655460D01*
X-252140Y-656090D01*
X-256160D01*
G01X-252140D02*
X-249730Y-662230D01*
G01X-243530Y-660330D02*
X-242570Y-661380D01*
X-241440Y-662020D01*
X-240000Y-662230D01*
X-238550Y-661810D01*
X-237420Y-660960D01*
X-236620Y-659480D01*
X-236460Y-657790D01*
X-236780Y-656090D01*
X-237580Y-655030D01*
X-238710Y-654190D01*
X-239830Y-653980D01*
X-240960Y-654190D01*
X-242410Y-655030D01*
X-241930Y-649530D01*
X-237580D01*
G01X-230580Y-659690D02*
X-229620Y-661170D01*
X-228330Y-662020D01*
X-226880Y-662230D01*
X-225600Y-662020D01*
X-224310Y-660960D01*
X-223510Y-659690D01*
X-223350Y-658420D01*
X-223670Y-656940D01*
X-224790Y-655880D01*
X-225920Y-655460D01*
X-227370D01*
G01X-225920D02*
X-224950Y-654820D01*
X-224150Y-653760D01*
X-223830Y-652490D01*
X-224150Y-651220D01*
X-224950Y-650170D01*
X-226400Y-649530D01*
X-227850Y-649740D01*
X-229300Y-650590D01*
G01X-256160Y-458230D02*
Y-445530D01*
X-252140D01*
X-250850Y-446170D01*
X-250050Y-447010D01*
X-249730Y-448710D01*
X-250050Y-450400D01*
X-251010Y-451460D01*
X-252140Y-452090D01*
X-256160D01*
G01X-252140D02*
X-249730Y-458230D01*
G01X-238060D02*
Y-445530D01*
X-244020Y-454630D01*
X-235970D01*
G01X-227050Y-458230D02*
Y-445530D01*
X-228980Y-448070D01*
G01Y-458230D02*
X-225120D01*
G01X-256160Y-254230D02*
Y-241530D01*
X-252140D01*
X-250850Y-242170D01*
X-250050Y-243010D01*
X-249730Y-244710D01*
X-250050Y-246400D01*
X-251010Y-247460D01*
X-252140Y-248090D01*
X-256160D01*
G01X-252140D02*
X-249730Y-254230D01*
G01X-243050Y-243650D02*
X-242090Y-242380D01*
X-240960Y-241740D01*
X-239670Y-241530D01*
X-238060Y-241950D01*
X-236940Y-243010D01*
X-236620Y-244280D01*
X-236780Y-245550D01*
X-237420Y-246610D01*
X-240640Y-248730D01*
X-242090Y-250210D01*
X-243050Y-252330D01*
X-243370Y-254230D01*
X-236620D01*
G01X-229780Y-252750D02*
X-228650Y-253810D01*
X-227370Y-254230D01*
X-226080Y-253810D01*
X-224950Y-252540D01*
X-224150Y-250630D01*
X-223830Y-248730D01*
Y-246400D01*
X-224150Y-244490D01*
X-224950Y-242800D01*
X-225920Y-241950D01*
X-227050Y-241530D01*
X-228330Y-241950D01*
X-229300Y-242800D01*
X-229940Y-244070D01*
X-230260Y-245760D01*
X-229940Y-247240D01*
X-229140Y-248730D01*
X-228170Y-249570D01*
X-227050Y-249790D01*
X-225760Y-249360D01*
X-224790Y-248300D01*
X-223830Y-246400D01*
G01X-254160Y-52230D02*
Y-39530D01*
X-250140D01*
X-248850Y-40170D01*
X-248050Y-41010D01*
X-247730Y-42710D01*
X-248050Y-44400D01*
X-249010Y-45460D01*
X-250140Y-46090D01*
X-254160D01*
G01X-250140D02*
X-247730Y-52230D01*
G01X-238000D02*
Y-39530D01*
X-239930Y-42070D01*
G01Y-52230D02*
X-236070D01*
G01X-225370D02*
X-225050Y-49480D01*
X-224560Y-47150D01*
X-223920Y-45030D01*
X-223110Y-42710D01*
X-221830Y-39530D01*
X-228260D01*
G01X-130170Y-1634230D02*
Y-1621530D01*
X-126150D01*
X-124860Y-1622170D01*
X-124060Y-1623010D01*
X-123740Y-1624710D01*
X-124060Y-1626400D01*
X-125020Y-1627460D01*
X-126150Y-1628090D01*
X-130170D01*
G01X-126150D02*
X-123740Y-1634230D01*
G01X-114010D02*
X-112880Y-1634020D01*
X-111590Y-1633380D01*
X-110790Y-1632330D01*
X-110470Y-1630840D01*
X-110790Y-1629360D01*
X-111750Y-1628090D01*
X-113200Y-1627460D01*
X-114810D01*
X-115770Y-1627030D01*
X-116580Y-1625980D01*
X-116900Y-1624490D01*
X-116420Y-1623010D01*
X-115290Y-1621950D01*
X-114010Y-1621530D01*
X-112720Y-1621950D01*
X-111590Y-1623010D01*
X-111110Y-1624490D01*
X-111430Y-1625980D01*
X-112240Y-1627030D01*
X-113200Y-1627460D01*
X-114810D01*
X-116260Y-1628090D01*
X-117220Y-1629360D01*
X-117540Y-1630840D01*
X-117220Y-1632330D01*
X-116420Y-1633380D01*
X-115130Y-1634020D01*
X-114010Y-1634230D01*
G01X-103790Y-1632750D02*
X-102660Y-1633810D01*
X-101380Y-1634230D01*
X-100090Y-1633810D01*
X-98960Y-1632540D01*
X-98160Y-1630630D01*
X-97840Y-1628730D01*
Y-1626400D01*
X-98160Y-1624490D01*
X-98960Y-1622800D01*
X-99930Y-1621950D01*
X-101060Y-1621530D01*
X-102340Y-1621950D01*
X-103310Y-1622800D01*
X-103950Y-1624070D01*
X-104270Y-1625760D01*
X-103950Y-1627240D01*
X-103150Y-1628730D01*
X-102180Y-1629570D01*
X-101060Y-1629790D01*
X-99770Y-1629360D01*
X-98800Y-1628300D01*
X-97840Y-1626400D01*
G01X-126170Y-1430230D02*
Y-1417530D01*
X-122150D01*
X-120860Y-1418170D01*
X-120060Y-1419010D01*
X-119740Y-1420710D01*
X-120060Y-1422400D01*
X-121020Y-1423460D01*
X-122150Y-1424090D01*
X-126170D01*
G01X-122150D02*
X-119740Y-1430230D01*
G01X-110330D02*
X-110010Y-1427480D01*
X-109520Y-1425150D01*
X-108880Y-1423030D01*
X-108070Y-1420710D01*
X-106790Y-1417530D01*
X-113220D01*
G01X-97380Y-1430230D02*
X-97060Y-1427480D01*
X-96570Y-1425150D01*
X-95930Y-1423030D01*
X-95120Y-1420710D01*
X-93840Y-1417530D01*
X-100270D01*
G01X-128170Y-1228230D02*
Y-1215530D01*
X-124150D01*
X-122860Y-1216170D01*
X-122060Y-1217010D01*
X-121740Y-1218710D01*
X-122060Y-1220400D01*
X-123020Y-1221460D01*
X-124150Y-1222090D01*
X-128170D01*
G01X-124150D02*
X-121740Y-1228230D01*
G01X-115060Y-1222940D02*
X-113940Y-1221460D01*
X-112970Y-1220610D01*
X-111680Y-1220190D01*
X-110560Y-1220610D01*
X-109750Y-1221460D01*
X-109110Y-1222730D01*
X-108950Y-1224210D01*
X-109110Y-1225480D01*
X-109750Y-1226750D01*
X-110720Y-1227810D01*
X-111840Y-1228230D01*
X-113130Y-1227810D01*
X-114260Y-1226540D01*
X-114900Y-1224630D01*
X-115060Y-1222520D01*
X-114740Y-1219760D01*
X-114260Y-1218280D01*
X-113450Y-1216800D01*
X-112330Y-1215740D01*
X-111200Y-1215530D01*
X-110070Y-1215950D01*
X-109270Y-1217010D01*
G01X-102590Y-1226330D02*
X-101630Y-1227380D01*
X-100500Y-1228020D01*
X-99060Y-1228230D01*
X-97610Y-1227810D01*
X-96480Y-1226960D01*
X-95680Y-1225480D01*
X-95520Y-1223790D01*
X-95840Y-1222090D01*
X-96640Y-1221030D01*
X-97770Y-1220190D01*
X-98890Y-1219980D01*
X-100020Y-1220190D01*
X-101470Y-1221030D01*
X-100990Y-1215530D01*
X-96640D01*
G01X-126170Y-1024230D02*
Y-1011530D01*
X-122150D01*
X-120860Y-1012170D01*
X-120060Y-1013010D01*
X-119740Y-1014710D01*
X-120060Y-1016400D01*
X-121020Y-1017460D01*
X-122150Y-1018090D01*
X-126170D01*
G01X-122150D02*
X-119740Y-1024230D01*
G01X-110010D02*
Y-1011530D01*
X-111940Y-1014070D01*
G01Y-1024230D02*
X-108080D01*
G01X-97060D02*
Y-1011530D01*
X-98990Y-1014070D01*
G01Y-1024230D02*
X-95130D01*
G01X-126160Y-560230D02*
Y-547530D01*
X-122140D01*
X-120850Y-548170D01*
X-120050Y-549010D01*
X-119730Y-550710D01*
X-120050Y-552400D01*
X-121010Y-553460D01*
X-122140Y-554090D01*
X-126160D01*
G01X-122140D02*
X-119730Y-560230D01*
G01X-108060D02*
Y-547530D01*
X-114020Y-556630D01*
X-105970D01*
G01X-97370Y-560230D02*
X-97050Y-557480D01*
X-96560Y-555150D01*
X-95920Y-553030D01*
X-95110Y-550710D01*
X-93830Y-547530D01*
X-100260D01*
G01X-128170Y-356230D02*
Y-343530D01*
X-124150D01*
X-122860Y-344170D01*
X-122060Y-345010D01*
X-121740Y-346710D01*
X-122060Y-348400D01*
X-123020Y-349460D01*
X-124150Y-350090D01*
X-128170D01*
G01X-124150D02*
X-121740Y-356230D01*
G01X-115540Y-353690D02*
X-114580Y-355170D01*
X-113290Y-356020D01*
X-111840Y-356230D01*
X-110560Y-356020D01*
X-109270Y-354960D01*
X-108470Y-353690D01*
X-108310Y-352420D01*
X-108630Y-350940D01*
X-109750Y-349880D01*
X-110880Y-349460D01*
X-112330D01*
G01X-110880D02*
X-109910Y-348820D01*
X-109110Y-347760D01*
X-108790Y-346490D01*
X-109110Y-345220D01*
X-109910Y-344170D01*
X-111360Y-343530D01*
X-112810Y-343740D01*
X-114260Y-344590D01*
G01X-102590Y-354330D02*
X-101630Y-355380D01*
X-100500Y-356020D01*
X-99060Y-356230D01*
X-97610Y-355810D01*
X-96480Y-354960D01*
X-95680Y-353480D01*
X-95520Y-351790D01*
X-95840Y-350090D01*
X-96640Y-349030D01*
X-97770Y-348190D01*
X-98890Y-347980D01*
X-100020Y-348190D01*
X-101470Y-349030D01*
X-100990Y-343530D01*
X-96640D01*
G01X-130160Y-154230D02*
Y-141530D01*
X-126140D01*
X-124850Y-142170D01*
X-124050Y-143010D01*
X-123730Y-144710D01*
X-124050Y-146400D01*
X-125010Y-147460D01*
X-126140Y-148090D01*
X-130160D01*
G01X-126140D02*
X-123730Y-154230D01*
G01X-117050Y-143650D02*
X-116090Y-142380D01*
X-114960Y-141740D01*
X-113670Y-141530D01*
X-112060Y-141950D01*
X-110940Y-143010D01*
X-110620Y-144280D01*
X-110780Y-145550D01*
X-111420Y-146610D01*
X-114640Y-148730D01*
X-116090Y-150210D01*
X-117050Y-152330D01*
X-117370Y-154230D01*
X-110620D01*
G01X-104580Y-151690D02*
X-103620Y-153170D01*
X-102330Y-154020D01*
X-100880Y-154230D01*
X-99600Y-154020D01*
X-98310Y-152960D01*
X-97510Y-151690D01*
X-97350Y-150420D01*
X-97670Y-148940D01*
X-98790Y-147880D01*
X-99920Y-147460D01*
X-101370D01*
G01X-99920D02*
X-98950Y-146820D01*
X-98150Y-145760D01*
X-97830Y-144490D01*
X-98150Y-143220D01*
X-98950Y-142170D01*
X-100400Y-141530D01*
X-101850Y-141740D01*
X-103300Y-142590D01*
G01X-121690Y49770D02*
Y62470D01*
X-117670D01*
X-116380Y61830D01*
X-115580Y60990D01*
X-115260Y59290D01*
X-115580Y57600D01*
X-116540Y56540D01*
X-117670Y55910D01*
X-121690D01*
G01X-117670D02*
X-115260Y49770D01*
G01X-109060Y51670D02*
X-108100Y50620D01*
X-106970Y49980D01*
X-105530Y49770D01*
X-104080Y50190D01*
X-102950Y51040D01*
X-102150Y52520D01*
X-101990Y54210D01*
X-102310Y55910D01*
X-103110Y56970D01*
X-104240Y57810D01*
X-105360Y58020D01*
X-106490Y57810D01*
X-107940Y56970D01*
X-107460Y62470D01*
X-103110D01*
G01X32900Y-1022390D02*
X39650Y-1009690D01*
G01X32900D02*
X39650Y-1022390D01*
G01X45690Y-1019850D02*
X46650Y-1021330D01*
X47940Y-1022180D01*
X49390Y-1022390D01*
X50670Y-1022180D01*
X51960Y-1021120D01*
X52760Y-1019850D01*
X52920Y-1018580D01*
X52600Y-1017100D01*
X51480Y-1016040D01*
X50350Y-1015620D01*
X48900D01*
G01X50350D02*
X51320Y-1014980D01*
X52120Y-1013920D01*
X52440Y-1012650D01*
X52120Y-1011380D01*
X51320Y-1010330D01*
X49870Y-1009690D01*
X48420Y-1009900D01*
X46970Y-1010750D01*
G01X28250Y57150D02*
X35000Y69850D01*
G01X28250D02*
X35000Y57150D01*
G01X41520Y67730D02*
X42480Y69000D01*
X43610Y69640D01*
X44900Y69850D01*
X46510Y69430D01*
X47630Y68370D01*
X47950Y67100D01*
X47790Y65830D01*
X47150Y64770D01*
X43930Y62650D01*
X42480Y61170D01*
X41520Y59050D01*
X41200Y57150D01*
X47950D01*
G54D13*
G01X-888550Y-1058290D02*
Y-1042290D01*
G01X-896550Y-1050290D02*
X-880550D01*
G01X-755000Y-894000D02*
X-725000D01*
Y-954000D01*
X-755000D01*
Y-894000D01*
G01X-584250Y-1811300D02*
G03X-585500Y-1810050I-1250J0D01*
G01D02*
G03X-586750Y-1811300I0J-1250D01*
G01D02*
G03X-585500Y-1812550I1250J0D01*
G01D02*
G03X-584250Y-1811300I0J1250D01*
G01Y-1709700D02*
G03X-585500Y-1708450I-1250J0D01*
G01D02*
G03X-586750Y-1709700I0J-1250D01*
G01D02*
G03X-585500Y-1710950I1250J0D01*
G01D02*
G03X-584250Y-1709700I0J1250D01*
G01Y-1608100D02*
G03X-585500Y-1606850I-1250J0D01*
G01D02*
G03X-586750Y-1608100I0J-1250D01*
G01D02*
G03X-585500Y-1609350I1250J0D01*
G01D02*
G03X-584250Y-1608100I0J1250D01*
G01Y-1506500D02*
G03X-585500Y-1505250I-1250J0D01*
G01D02*
G03X-586750Y-1506500I0J-1250D01*
G01D02*
G03X-585500Y-1507750I1250J0D01*
G01D02*
G03X-584250Y-1506500I0J1250D01*
G01Y-1404900D02*
G03X-585500Y-1403650I-1250J0D01*
G01D02*
G03X-586750Y-1404900I0J-1250D01*
G01D02*
G03X-585500Y-1406150I1250J0D01*
G01D02*
G03X-584250Y-1404900I0J1250D01*
G01Y-1303300D02*
G03X-585500Y-1302050I-1250J0D01*
G01D02*
G03X-586750Y-1303300I0J-1250D01*
G01D02*
G03X-585500Y-1304550I1250J0D01*
G01D02*
G03X-584250Y-1303300I0J1250D01*
G01Y-1201700D02*
G03X-585500Y-1200450I-1250J0D01*
G01D02*
G03X-586750Y-1201700I0J-1250D01*
G01D02*
G03X-585500Y-1202950I1250J0D01*
G01D02*
G03X-584250Y-1201700I0J1250D01*
G01Y-1100100D02*
G03X-585500Y-1098850I-1250J0D01*
G01D02*
G03X-586750Y-1100100I0J-1250D01*
G01D02*
G03X-585500Y-1101350I1250J0D01*
G01D02*
G03X-584250Y-1100100I0J1250D01*
G01Y-738150D02*
G03X-585500Y-736900I-1250J0D01*
G01D02*
G03X-586750Y-738150I0J-1250D01*
G01D02*
G03X-585500Y-739400I1250J0D01*
G01D02*
G03X-584250Y-738150I0J1250D01*
G01Y-636550D02*
G03X-585500Y-635300I-1250J0D01*
G01D02*
G03X-586750Y-636550I0J-1250D01*
G01D02*
G03X-585500Y-637800I1250J0D01*
G01D02*
G03X-584250Y-636550I0J1250D01*
G01Y-534950D02*
G03X-585500Y-533700I-1250J0D01*
G01D02*
G03X-586750Y-534950I0J-1250D01*
G01D02*
G03X-585500Y-536200I1250J0D01*
G01D02*
G03X-584250Y-534950I0J1250D01*
G01Y-433350D02*
G03X-585500Y-432100I-1250J0D01*
G01D02*
G03X-586750Y-433350I0J-1250D01*
G01D02*
G03X-585500Y-434600I1250J0D01*
G01D02*
G03X-584250Y-433350I0J1250D01*
G01Y-331750D02*
G03X-585500Y-330500I-1250J0D01*
G01D02*
G03X-586750Y-331750I0J-1250D01*
G01D02*
G03X-585500Y-333000I1250J0D01*
G01D02*
G03X-584250Y-331750I0J1250D01*
G01Y-230150D02*
G03X-585500Y-228900I-1250J0D01*
G01D02*
G03X-586750Y-230150I0J-1250D01*
G01D02*
G03X-585500Y-231400I1250J0D01*
G01D02*
G03X-584250Y-230150I0J1250D01*
G01Y-128550D02*
G03X-585500Y-127300I-1250J0D01*
G01D02*
G03X-586750Y-128550I0J-1250D01*
G01D02*
G03X-585500Y-129800I1250J0D01*
G01D02*
G03X-584250Y-128550I0J1250D01*
G01Y-26950D02*
G03X-585500Y-25700I-1250J0D01*
G01D02*
G03X-586750Y-26950I0J-1250D01*
G01D02*
G03X-585500Y-28200I1250J0D01*
G01D02*
G03X-584250Y-26950I0J1250D01*
G01X1250Y-1047750D02*
G03I-1250J0D01*
G01Y25400D02*
G03I-1250J0D01*
M02*
