G04 ================== begin FILE IDENTIFICATION RECORD ==================*
G04 Layout Name:  D:/Project/Circuit/ORCAD/KPRD/03v1/pcb/kprd_03v1.brd*
G04 Film Name:    SILK_TOP*
G04 File Format:  Gerber RS274X*
G04 File Origin:  Cadence Allegro 16.6-S012*
G04 Origin Date:  Sun Jul 28 12:05:33 2013*
G04 *
G04 Layer:  MANUFACTURING/AUTOSILK_TOP*
G04 *
G04 Offset:    (0.000 0.000)*
G04 Mirror:    No*
G04 Mode:      Positive*
G04 Rotation:  0*
G04 FullContactRelief:  No*
G04 UndefLineWidth:     0.200*
G04 ================== end FILE IDENTIFICATION RECORD ====================*
%FSLAX34Y34*MOMM*%
%IR0*IPPOS*OFA0.00000B0.00000*MIA0B0*SFA1.00000B1.00000*%
%ADD10C,.2*%
%ADD11C,.3*%
%ADD12C,.15*%
%ADD13C,.25*%
G75*
%LPD*%
G75*
G54D10*
G01X-902650Y-347190D02*
X-852650D01*
Y-387190D01*
X-872650Y-407190D01*
Y-1237190D01*
X-852650Y-1257190D01*
Y-1297190D01*
X-902650D01*
G01X-818550Y-302290D02*
Y-306290D01*
X-870550D01*
Y-302290D01*
G01X-818550Y-274290D02*
Y-270290D01*
X-870550D01*
Y-274290D01*
G01X-844400Y-262690D02*
X-857400D01*
G01X-844400Y-237690D02*
X-857400D01*
G01X-762150Y-1261490D02*
X-749150D01*
G01X-762150Y-1236090D02*
X-749150D01*
G01X-762150Y-1220090D02*
X-749150D01*
G01X-762150Y-1245490D02*
X-749150D01*
G01X-747650Y794860D02*
Y804860D01*
G01X-763650Y794860D02*
Y804860D01*
G01X-779400Y794860D02*
Y804860D01*
G01X-795400Y794860D02*
Y804860D01*
G01X-710800Y-1272840D02*
X-660800D01*
G01X-664450Y-1189790D02*
X-694450D01*
G01X-645900Y-1218640D02*
X-674900D01*
Y-1212140D01*
X-645900D01*
Y-1218640D01*
G01X-676650Y-1229390D02*
G03X-677900Y-1228140I-1250J0D01*
G01D02*
G03X-679150Y-1229390I0J-1250D01*
G01D02*
G03X-677900Y-1230640I1250J0D01*
G01D02*
G03X-676650Y-1229390I0J1250D01*
G01X-690350Y-1218640D02*
X-719350D01*
Y-1212140D01*
X-690350D01*
Y-1218640D01*
G01X-721100Y-1229390D02*
G03X-722350Y-1228140I-1250J0D01*
G01D02*
G03X-723600Y-1229390I0J-1250D01*
G01D02*
G03X-722350Y-1230640I1250J0D01*
G01D02*
G03X-721100Y-1229390I0J1250D01*
G01X-710800Y-1246840D02*
X-660800D01*
G01X-659800Y-1243840D02*
X-651800D01*
G01X-655800Y-1239840D02*
Y-1247840D01*
G01X-664450Y-1164790D02*
X-694450D01*
G01X-664450Y-1126690D02*
X-694450D01*
G01X-664450Y-1151690D02*
X-694450D01*
G01X-705400Y-1002750D02*
Y-1092750D01*
X-615400D01*
Y-1002750D01*
X-705400D01*
G01Y-901150D02*
Y-991150D01*
X-615400D01*
Y-901150D01*
X-705400D01*
G01Y-799550D02*
Y-889550D01*
X-615400D01*
Y-799550D01*
X-705400D01*
G01Y-697950D02*
Y-787950D01*
X-615400D01*
Y-697950D01*
X-705400D01*
G01Y-596350D02*
Y-686350D01*
X-615400D01*
Y-596350D01*
X-705400D01*
G01Y-494750D02*
Y-584750D01*
X-615400D01*
Y-494750D01*
X-705400D01*
G01Y-393150D02*
Y-483150D01*
X-615400D01*
Y-393150D01*
X-705400D01*
G01Y-291550D02*
Y-381550D01*
X-615400D01*
Y-291550D01*
X-705400D01*
G01Y70400D02*
Y-19600D01*
X-615400D01*
Y70400D01*
X-705400D01*
G01Y172000D02*
Y82000D01*
X-615400D01*
Y172000D01*
X-705400D01*
G01Y273600D02*
Y183600D01*
X-615400D01*
Y273600D01*
X-705400D01*
G01Y375200D02*
Y285200D01*
X-615400D01*
Y375200D01*
X-705400D01*
G01Y476800D02*
Y386800D01*
X-615400D01*
Y476800D01*
X-705400D01*
G01Y578400D02*
Y488400D01*
X-615400D01*
Y578400D01*
X-705400D01*
G01Y680000D02*
Y590000D01*
X-615400D01*
Y680000D01*
X-705400D01*
G01Y781600D02*
Y691600D01*
X-615400D01*
Y781600D01*
X-705400D01*
G01X-601950Y-1202090D02*
X-597950D01*
Y-1254090D01*
X-601950D01*
G01X-629950Y-1202090D02*
X-633950D01*
Y-1254090D01*
X-629950D01*
G01X-648000Y-1205150D02*
X-640000Y-1195150D01*
G01X-545300Y-1047750D02*
Y-977750D01*
X-445300D01*
Y-1117750D01*
X-545300D01*
Y-1047750D01*
G01X-574750Y-1081300D02*
Y-1052300D01*
X-568250D01*
Y-1081300D01*
X-574750D01*
G01Y-979700D02*
Y-950700D01*
X-568250D01*
Y-979700D01*
X-574750D01*
G01X-545300Y-844550D02*
Y-774550D01*
X-445300D01*
Y-914550D01*
X-545300D01*
Y-844550D01*
G01X-574750Y-878100D02*
Y-849100D01*
X-568250D01*
Y-878100D01*
X-574750D01*
G01Y-776500D02*
Y-747500D01*
X-568250D01*
Y-776500D01*
X-574750D01*
G01X-545300Y-641350D02*
Y-571350D01*
X-445300D01*
Y-711350D01*
X-545300D01*
Y-641350D01*
G01X-574750Y-674900D02*
Y-645900D01*
X-568250D01*
Y-674900D01*
X-574750D01*
G01Y-573300D02*
Y-544300D01*
X-568250D01*
Y-573300D01*
X-574750D01*
G01X-545300Y-438150D02*
Y-368150D01*
X-445300D01*
Y-508150D01*
X-545300D01*
Y-438150D01*
G01X-574750Y-471700D02*
Y-442700D01*
X-568250D01*
Y-471700D01*
X-574750D01*
G01Y-370100D02*
Y-341100D01*
X-568250D01*
Y-370100D01*
X-574750D01*
G01X-545300Y25400D02*
Y95400D01*
X-445300D01*
Y-44600D01*
X-545300D01*
Y25400D01*
G01X-574750Y-8150D02*
Y20850D01*
X-568250D01*
Y-8150D01*
X-574750D01*
G01Y93450D02*
Y122450D01*
X-568250D01*
Y93450D01*
X-574750D01*
G01X-545300Y228600D02*
Y298600D01*
X-445300D01*
Y158600D01*
X-545300D01*
Y228600D01*
G01X-574750Y195050D02*
Y224050D01*
X-568250D01*
Y195050D01*
X-574750D01*
G01Y296650D02*
Y325650D01*
X-568250D01*
Y296650D01*
X-574750D01*
G01X-545300Y431800D02*
Y501800D01*
X-445300D01*
Y361800D01*
X-545300D01*
Y431800D01*
G01X-574750Y398250D02*
Y427250D01*
X-568250D01*
Y398250D01*
X-574750D01*
G01Y499850D02*
Y528850D01*
X-568250D01*
Y499850D01*
X-574750D01*
G01X-545300Y635000D02*
Y705000D01*
X-445300D01*
Y565000D01*
X-545300D01*
Y635000D01*
G01X-574750Y601450D02*
Y630450D01*
X-568250D01*
Y601450D01*
X-574750D01*
G01Y703050D02*
Y732050D01*
X-568250D01*
Y703050D01*
X-574750D01*
G01X-418300Y-946150D02*
Y-876150D01*
X-318300D01*
Y-1016150D01*
X-418300D01*
Y-946150D01*
G01Y-742950D02*
Y-672950D01*
X-318300D01*
Y-812950D01*
X-418300D01*
Y-742950D01*
G01Y-539750D02*
Y-469750D01*
X-318300D01*
Y-609750D01*
X-418300D01*
Y-539750D01*
G01Y-336550D02*
Y-266550D01*
X-318300D01*
Y-406550D01*
X-418300D01*
Y-336550D01*
G01Y127000D02*
Y197000D01*
X-318300D01*
Y57000D01*
X-418300D01*
Y127000D01*
G01Y330200D02*
Y400200D01*
X-318300D01*
Y260200D01*
X-418300D01*
Y330200D01*
G01Y533400D02*
Y603400D01*
X-318300D01*
Y463400D01*
X-418300D01*
Y533400D01*
G01Y736600D02*
Y806600D01*
X-318300D01*
Y666600D01*
X-418300D01*
Y736600D01*
G01X-291300Y-1047750D02*
Y-977750D01*
X-191300D01*
Y-1117750D01*
X-291300D01*
Y-1047750D01*
G01Y-844550D02*
Y-774550D01*
X-191300D01*
Y-914550D01*
X-291300D01*
Y-844550D01*
G01Y-641350D02*
Y-571350D01*
X-191300D01*
Y-711350D01*
X-291300D01*
Y-641350D01*
G01Y-438150D02*
Y-368150D01*
X-191300D01*
Y-508150D01*
X-291300D01*
Y-438150D01*
G01Y25400D02*
Y95400D01*
X-191300D01*
Y-44600D01*
X-291300D01*
Y25400D01*
G01Y228600D02*
Y298600D01*
X-191300D01*
Y158600D01*
X-291300D01*
Y228600D01*
G01Y431800D02*
Y501800D01*
X-191300D01*
Y361800D01*
X-291300D01*
Y431800D01*
G01Y635000D02*
Y705000D01*
X-191300D01*
Y565000D01*
X-291300D01*
Y635000D01*
G01X-164300Y-946150D02*
Y-876150D01*
X-64300D01*
Y-1016150D01*
X-164300D01*
Y-946150D01*
G01Y-742950D02*
Y-672950D01*
X-64300D01*
Y-812950D01*
X-164300D01*
Y-742950D01*
G01Y-539750D02*
Y-469750D01*
X-64300D01*
Y-609750D01*
X-164300D01*
Y-539750D01*
G01Y-336550D02*
Y-266550D01*
X-64300D01*
Y-406550D01*
X-164300D01*
Y-336550D01*
G01Y127000D02*
Y197000D01*
X-64300D01*
Y57000D01*
X-164300D01*
Y127000D01*
G01Y330200D02*
Y400200D01*
X-64300D01*
Y260200D01*
X-164300D01*
Y330200D01*
G01Y533400D02*
Y603400D01*
X-64300D01*
Y463400D01*
X-164300D01*
Y533400D01*
G01Y736600D02*
Y806600D01*
X-64300D01*
Y666600D01*
X-164300D01*
Y736600D01*
G01X-25400Y-1117600D02*
Y-266700D01*
G01Y-1117600D02*
X101600D01*
Y-266700D01*
X-25400D01*
G01D02*
Y-1117600D01*
G01Y-44450D02*
Y806450D01*
G01Y-44450D02*
X101600D01*
Y806450D01*
X-25400D01*
G01D02*
Y-44450D01*
G54D11*
G01X-717400Y-1010250D02*
G03I-1500J0D01*
G01Y-908650D02*
G03I-1500J0D01*
G01Y-807050D02*
G03I-1500J0D01*
G01Y-705450D02*
G03I-1500J0D01*
G01Y-603850D02*
G03I-1500J0D01*
G01Y-502250D02*
G03I-1500J0D01*
G01Y-400650D02*
G03I-1500J0D01*
G01Y-299050D02*
G03I-1500J0D01*
G01Y62900D02*
G03I-1500J0D01*
G01Y164500D02*
G03I-1500J0D01*
G01Y266100D02*
G03I-1500J0D01*
G01Y367700D02*
G03I-1500J0D01*
G01Y469300D02*
G03I-1500J0D01*
G01Y570900D02*
G03I-1500J0D01*
G01Y672500D02*
G03I-1500J0D01*
G01Y774100D02*
G03I-1500J0D01*
G54D12*
G01X-879850Y-340240D02*
X-873100Y-327540D01*
G01X-879850D02*
X-873100Y-340240D01*
G01X-863530D02*
Y-327540D01*
X-865460Y-330080D01*
G01Y-340240D02*
X-861600D01*
G01X-884920Y-203210D02*
X-881060D01*
G01X-883160Y-200450D02*
Y-205960D01*
G01X-873260Y-196860D02*
X-872300Y-195590D01*
X-871170Y-194950D01*
X-869880Y-194740D01*
X-868270Y-195160D01*
X-867150Y-196220D01*
X-866830Y-197490D01*
X-866990Y-198760D01*
X-867630Y-199820D01*
X-870850Y-201940D01*
X-872300Y-203420D01*
X-873260Y-205540D01*
X-873580Y-207440D01*
X-866830D01*
G01X-855320D02*
Y-194740D01*
X-861280Y-203840D01*
X-853230D01*
G01X-843020Y-200670D02*
X-842370Y-200030D01*
X-841890Y-198970D01*
X-841570Y-197490D01*
X-841890Y-196220D01*
X-842540Y-195380D01*
X-843660Y-194740D01*
X-848000D01*
Y-207440D01*
X-842700D01*
X-841570Y-206590D01*
X-840930Y-205320D01*
X-840610Y-203840D01*
X-840930Y-202360D01*
X-841890Y-201090D01*
X-843020Y-200670D01*
X-848000D01*
G01X-828140Y-207440D02*
X-834570D01*
Y-194740D01*
X-828140D01*
G01X-830710Y-200880D02*
X-834570D01*
G01X-810040Y-1237350D02*
X-810440Y-1237930D01*
X-810700Y-1238610D01*
Y-1239390D01*
X-810310Y-1240270D01*
X-809650Y-1240950D01*
X-808860Y-1241440D01*
X-807550Y-1241830D01*
X-806370Y-1241920D01*
X-805190Y-1241730D01*
X-804400Y-1241440D01*
X-803620Y-1240850D01*
X-803090Y-1240170D01*
X-802830Y-1239490D01*
Y-1238810D01*
X-803090Y-1238130D01*
X-803490Y-1237540D01*
X-804010Y-1237060D01*
G01X-802830Y-1231620D02*
X-810700D01*
X-809130Y-1232790D01*
G01X-802830D02*
Y-1230450D01*
G01X-852830Y-1241920D02*
X-860700Y-1239490D01*
X-852830Y-1237060D01*
G01X-855580Y-1237930D02*
Y-1241050D01*
G01X-852830Y-1231620D02*
X-860700D01*
X-859130Y-1232790D01*
G01X-852830D02*
Y-1230450D01*
G01X-808980Y-279530D02*
X-804960Y-292230D01*
X-800930Y-279530D01*
G01X-795540Y-292230D02*
Y-279530D01*
X-792330D01*
X-791040Y-280170D01*
X-790070Y-281010D01*
X-789270Y-282280D01*
X-788630Y-283760D01*
X-788470Y-285880D01*
X-788630Y-288000D01*
X-789270Y-289480D01*
X-790070Y-290750D01*
X-791040Y-291600D01*
X-792330Y-292230D01*
X-795540D01*
G01X-779060D02*
Y-279530D01*
X-780990Y-282070D01*
G01Y-292230D02*
X-777130D01*
G01X-816940Y-238590D02*
X-817900Y-237950D01*
X-819030Y-237530D01*
X-820310D01*
X-821760Y-238170D01*
X-822890Y-239220D01*
X-823690Y-240490D01*
X-824340Y-242610D01*
X-824500Y-244520D01*
X-824170Y-246420D01*
X-823690Y-247690D01*
X-822730Y-248960D01*
X-821600Y-249810D01*
X-820480Y-250230D01*
X-819350D01*
X-818220Y-249810D01*
X-817260Y-249170D01*
X-816450Y-248330D01*
G01X-811060Y-247690D02*
X-810100Y-249170D01*
X-808810Y-250020D01*
X-807360Y-250230D01*
X-806080Y-250020D01*
X-804790Y-248960D01*
X-803990Y-247690D01*
X-803830Y-246420D01*
X-804150Y-244940D01*
X-805270Y-243880D01*
X-806400Y-243460D01*
X-807850D01*
G01X-806400D02*
X-805430Y-242820D01*
X-804630Y-241760D01*
X-804310Y-240490D01*
X-804630Y-239220D01*
X-805430Y-238170D01*
X-806880Y-237530D01*
X-808330Y-237740D01*
X-809780Y-238590D01*
G01X-814190Y820020D02*
X-815150Y820660D01*
X-816280Y821080D01*
X-817560D01*
X-819010Y820440D01*
X-820140Y819390D01*
X-820940Y818120D01*
X-821590Y816000D01*
X-821750Y814090D01*
X-821420Y812190D01*
X-820940Y810920D01*
X-819980Y809650D01*
X-818850Y808800D01*
X-817730Y808380D01*
X-816600D01*
X-815470Y808800D01*
X-814510Y809440D01*
X-813700Y810280D01*
G01X-807830Y818960D02*
X-806870Y820230D01*
X-805740Y820870D01*
X-804450Y821080D01*
X-802840Y820660D01*
X-801720Y819600D01*
X-801400Y818330D01*
X-801560Y817060D01*
X-802200Y816000D01*
X-805420Y813880D01*
X-806870Y812400D01*
X-807830Y810280D01*
X-808150Y808380D01*
X-801400D01*
G01X-765690Y-1280240D02*
Y-1267540D01*
X-761670D01*
X-760380Y-1268180D01*
X-759580Y-1269020D01*
X-759260Y-1270720D01*
X-759580Y-1272410D01*
X-760540Y-1273470D01*
X-761670Y-1274100D01*
X-765690D01*
G01X-761670D02*
X-759260Y-1280240D01*
G01X-747590D02*
Y-1267540D01*
X-753550Y-1276640D01*
X-745500D01*
G01X-732240Y-1181010D02*
Y-1168310D01*
X-728220D01*
X-726930Y-1168950D01*
X-726130Y-1169790D01*
X-725810Y-1171490D01*
X-726130Y-1173180D01*
X-727090Y-1174240D01*
X-728220Y-1174870D01*
X-732240D01*
G01X-728220D02*
X-725810Y-1181010D01*
G01X-716080D02*
Y-1168310D01*
X-718010Y-1170850D01*
G01Y-1181010D02*
X-714150D01*
G01X-771340Y-1216590D02*
Y-1203890D01*
X-767320D01*
X-766030Y-1204530D01*
X-765230Y-1205370D01*
X-764910Y-1207070D01*
X-765230Y-1208760D01*
X-766190Y-1209820D01*
X-767320Y-1210450D01*
X-771340D01*
G01X-767320D02*
X-764910Y-1216590D01*
G01X-758710Y-1214050D02*
X-757750Y-1215530D01*
X-756460Y-1216380D01*
X-755010Y-1216590D01*
X-753730Y-1216380D01*
X-752440Y-1215320D01*
X-751640Y-1214050D01*
X-751480Y-1212780D01*
X-751800Y-1211300D01*
X-752920Y-1210240D01*
X-754050Y-1209820D01*
X-755500D01*
G01X-754050D02*
X-753080Y-1209180D01*
X-752280Y-1208120D01*
X-751960Y-1206850D01*
X-752280Y-1205580D01*
X-753080Y-1204530D01*
X-754530Y-1203890D01*
X-755980Y-1204100D01*
X-757430Y-1204950D01*
G01X-746230Y-1191600D02*
X-742210Y-1204300D01*
X-738180Y-1191600D01*
G01X-732790Y-1204300D02*
Y-1191600D01*
X-729580D01*
X-728290Y-1192240D01*
X-727320Y-1193080D01*
X-726520Y-1194350D01*
X-725880Y-1195830D01*
X-725720Y-1197950D01*
X-725880Y-1200070D01*
X-726520Y-1201550D01*
X-727320Y-1202820D01*
X-728290Y-1203670D01*
X-729580Y-1204300D01*
X-732790D01*
G01X-719360Y-1193720D02*
X-718400Y-1192450D01*
X-717270Y-1191810D01*
X-715980Y-1191600D01*
X-714370Y-1192020D01*
X-713250Y-1193080D01*
X-712930Y-1194350D01*
X-713090Y-1195620D01*
X-713730Y-1196680D01*
X-716950Y-1198800D01*
X-718400Y-1200280D01*
X-719360Y-1202400D01*
X-719680Y-1204300D01*
X-712930D01*
G01X-733590Y-1145510D02*
Y-1132810D01*
X-729570D01*
X-728280Y-1133450D01*
X-727480Y-1134290D01*
X-727160Y-1135990D01*
X-727480Y-1137680D01*
X-728440Y-1138740D01*
X-729570Y-1139370D01*
X-733590D01*
G01X-729570D02*
X-727160Y-1145510D01*
G01X-720480Y-1134930D02*
X-719520Y-1133660D01*
X-718390Y-1133020D01*
X-717100Y-1132810D01*
X-715490Y-1133230D01*
X-714370Y-1134290D01*
X-714050Y-1135560D01*
X-714210Y-1136830D01*
X-714850Y-1137890D01*
X-718070Y-1140010D01*
X-719520Y-1141490D01*
X-720480Y-1143610D01*
X-720800Y-1145510D01*
X-714050D01*
G01X-779420Y-1014600D02*
X-780380Y-1013960D01*
X-781510Y-1013540D01*
X-782790D01*
X-784240Y-1014180D01*
X-785370Y-1015230D01*
X-786170Y-1016500D01*
X-786820Y-1018620D01*
X-786980Y-1020530D01*
X-786650Y-1022430D01*
X-786170Y-1023700D01*
X-785210Y-1024970D01*
X-784080Y-1025820D01*
X-782960Y-1026240D01*
X-781830D01*
X-780700Y-1025820D01*
X-779740Y-1025180D01*
X-778930Y-1024340D01*
G01X-773540D02*
X-772580Y-1025390D01*
X-771450Y-1026030D01*
X-770010Y-1026240D01*
X-768560Y-1025820D01*
X-767430Y-1024970D01*
X-766630Y-1023490D01*
X-766470Y-1021800D01*
X-766790Y-1020100D01*
X-767590Y-1019040D01*
X-768720Y-1018200D01*
X-769840Y-1017990D01*
X-770970Y-1018200D01*
X-772420Y-1019040D01*
X-771940Y-1013540D01*
X-767590D01*
G01X-757060Y-1026240D02*
Y-1013540D01*
X-758990Y-1016080D01*
G01Y-1026240D02*
X-755130D01*
G01X-746950Y-1028700D02*
X-738950D01*
G01X-783760Y-1053050D02*
X-783270Y-1053830D01*
X-782690Y-1054360D01*
X-782000Y-1054620D01*
X-781230Y-1054360D01*
X-780640Y-1053830D01*
X-780060Y-1053050D01*
X-779860Y-1052000D01*
Y-1046750D01*
G01X-775890Y-1054620D02*
Y-1046750D01*
X-773550D01*
X-772770Y-1047140D01*
X-772190Y-1048060D01*
X-771990Y-1049110D01*
X-772190Y-1050160D01*
X-772670Y-1050950D01*
X-773550Y-1051340D01*
X-775890D01*
G01X-766070Y-1054620D02*
Y-1046750D01*
X-767240Y-1048320D01*
G01Y-1054620D02*
X-764900D01*
G01X-760050Y-1051340D02*
X-759370Y-1050420D01*
X-758780Y-1049900D01*
X-758010Y-1049640D01*
X-757320Y-1049900D01*
X-756840Y-1050420D01*
X-756450Y-1051210D01*
X-756350Y-1052130D01*
X-756450Y-1052910D01*
X-756840Y-1053700D01*
X-757420Y-1054360D01*
X-758100Y-1054620D01*
X-758880Y-1054360D01*
X-759560Y-1053570D01*
X-759950Y-1052390D01*
X-760050Y-1051080D01*
X-759850Y-1049370D01*
X-759560Y-1048460D01*
X-759080Y-1047540D01*
X-758390Y-1046880D01*
X-757710Y-1046750D01*
X-757030Y-1047010D01*
X-756550Y-1047670D01*
G01X-783760Y-951050D02*
X-783270Y-951830D01*
X-782690Y-952360D01*
X-782000Y-952620D01*
X-781230Y-952360D01*
X-780640Y-951830D01*
X-780060Y-951050D01*
X-779860Y-950000D01*
Y-944750D01*
G01X-775890Y-952620D02*
Y-944750D01*
X-773550D01*
X-772770Y-945140D01*
X-772190Y-946060D01*
X-771990Y-947110D01*
X-772190Y-948160D01*
X-772670Y-948950D01*
X-773550Y-949340D01*
X-775890D01*
G01X-766070Y-952620D02*
Y-944750D01*
X-767240Y-946320D01*
G01Y-952620D02*
X-764900D01*
G01X-760340Y-951440D02*
X-759760Y-952100D01*
X-759080Y-952490D01*
X-758200Y-952620D01*
X-757320Y-952360D01*
X-756640Y-951830D01*
X-756160Y-950910D01*
X-756060Y-949870D01*
X-756250Y-948820D01*
X-756740Y-948160D01*
X-757420Y-947640D01*
X-758100Y-947500D01*
X-758780Y-947640D01*
X-759660Y-948160D01*
X-759370Y-944750D01*
X-756740D01*
G01X-781420Y-912600D02*
X-782380Y-911960D01*
X-783510Y-911540D01*
X-784790D01*
X-786240Y-912180D01*
X-787370Y-913230D01*
X-788170Y-914500D01*
X-788820Y-916620D01*
X-788980Y-918530D01*
X-788650Y-920430D01*
X-788170Y-921700D01*
X-787210Y-922970D01*
X-786080Y-923820D01*
X-784960Y-924240D01*
X-783830D01*
X-782700Y-923820D01*
X-781740Y-923180D01*
X-780930Y-922340D01*
G01X-770070Y-924240D02*
Y-911540D01*
X-776030Y-920640D01*
X-767980D01*
G01X-759060Y-924240D02*
X-757930Y-924030D01*
X-756640Y-923390D01*
X-755840Y-922340D01*
X-755520Y-920850D01*
X-755840Y-919370D01*
X-756800Y-918100D01*
X-758250Y-917470D01*
X-759860D01*
X-760820Y-917040D01*
X-761630Y-915990D01*
X-761950Y-914500D01*
X-761470Y-913020D01*
X-760340Y-911960D01*
X-759060Y-911540D01*
X-757770Y-911960D01*
X-756640Y-913020D01*
X-756160Y-914500D01*
X-756480Y-915990D01*
X-757290Y-917040D01*
X-758250Y-917470D01*
X-759860D01*
X-761310Y-918100D01*
X-762270Y-919370D01*
X-762590Y-920850D01*
X-762270Y-922340D01*
X-761470Y-923390D01*
X-760180Y-924030D01*
X-759060Y-924240D01*
G01X-746950Y-927100D02*
X-738950D01*
G01X-779420Y-810600D02*
X-780380Y-809960D01*
X-781510Y-809540D01*
X-782790D01*
X-784240Y-810180D01*
X-785370Y-811230D01*
X-786170Y-812500D01*
X-786820Y-814620D01*
X-786980Y-816530D01*
X-786650Y-818430D01*
X-786170Y-819700D01*
X-785210Y-820970D01*
X-784080Y-821820D01*
X-782960Y-822240D01*
X-781830D01*
X-780700Y-821820D01*
X-779740Y-821180D01*
X-778930Y-820340D01*
G01X-768070Y-822240D02*
Y-809540D01*
X-774030Y-818640D01*
X-765980D01*
G01X-760590Y-820340D02*
X-759630Y-821390D01*
X-758500Y-822030D01*
X-757060Y-822240D01*
X-755610Y-821820D01*
X-754480Y-820970D01*
X-753680Y-819490D01*
X-753520Y-817800D01*
X-753840Y-816100D01*
X-754640Y-815040D01*
X-755770Y-814200D01*
X-756890Y-813990D01*
X-758020Y-814200D01*
X-759470Y-815040D01*
X-758990Y-809540D01*
X-754640D01*
G01X-746950Y-825500D02*
X-738950D01*
G01X-783760Y-849050D02*
X-783270Y-849830D01*
X-782690Y-850360D01*
X-782000Y-850620D01*
X-781230Y-850360D01*
X-780640Y-849830D01*
X-780060Y-849050D01*
X-779860Y-848000D01*
Y-842750D01*
G01X-775890Y-850620D02*
Y-842750D01*
X-773550D01*
X-772770Y-843140D01*
X-772190Y-844060D01*
X-771990Y-845110D01*
X-772190Y-846160D01*
X-772670Y-846950D01*
X-773550Y-847340D01*
X-775890D01*
G01X-766070Y-850620D02*
Y-842750D01*
X-767240Y-844320D01*
G01Y-850620D02*
X-764900D01*
G01X-757030D02*
Y-842750D01*
X-760630Y-848390D01*
X-755770D01*
G01X-779420Y-704600D02*
X-780380Y-703960D01*
X-781510Y-703540D01*
X-782790D01*
X-784240Y-704180D01*
X-785370Y-705230D01*
X-786170Y-706500D01*
X-786820Y-708620D01*
X-786980Y-710530D01*
X-786650Y-712430D01*
X-786170Y-713700D01*
X-785210Y-714970D01*
X-784080Y-715820D01*
X-782960Y-716240D01*
X-781830D01*
X-780700Y-715820D01*
X-779740Y-715180D01*
X-778930Y-714340D01*
G01X-768070Y-716240D02*
Y-703540D01*
X-774030Y-712640D01*
X-765980D01*
G01X-760110Y-705660D02*
X-759150Y-704390D01*
X-758020Y-703750D01*
X-756730Y-703540D01*
X-755120Y-703960D01*
X-754000Y-705020D01*
X-753680Y-706290D01*
X-753840Y-707560D01*
X-754480Y-708620D01*
X-757700Y-710740D01*
X-759150Y-712220D01*
X-760110Y-714340D01*
X-760430Y-716240D01*
X-753680D01*
G01X-746950Y-723900D02*
X-738950D01*
G01X-783760Y-747060D02*
X-783270Y-747840D01*
X-782690Y-748370D01*
X-782000Y-748630D01*
X-781230Y-748370D01*
X-780640Y-747840D01*
X-780060Y-747060D01*
X-779860Y-746010D01*
Y-740760D01*
G01X-775890Y-748630D02*
Y-740760D01*
X-773550D01*
X-772770Y-741150D01*
X-772190Y-742070D01*
X-771990Y-743120D01*
X-772190Y-744170D01*
X-772670Y-744960D01*
X-773550Y-745350D01*
X-775890D01*
G01X-766070Y-748630D02*
Y-740760D01*
X-767240Y-742330D01*
G01Y-748630D02*
X-764900D01*
G01X-760340Y-747060D02*
X-759760Y-747970D01*
X-758980Y-748500D01*
X-758100Y-748630D01*
X-757320Y-748500D01*
X-756550Y-747840D01*
X-756060Y-747060D01*
X-755960Y-746270D01*
X-756160Y-745350D01*
X-756840Y-744700D01*
X-757520Y-744430D01*
X-758390D01*
G01X-757520D02*
X-756930Y-744040D01*
X-756450Y-743380D01*
X-756250Y-742600D01*
X-756450Y-741810D01*
X-756930Y-741150D01*
X-757810Y-740760D01*
X-758690Y-740890D01*
X-759560Y-741420D01*
G01X-783760Y-647050D02*
X-783270Y-647830D01*
X-782690Y-648360D01*
X-782000Y-648620D01*
X-781230Y-648360D01*
X-780640Y-647830D01*
X-780060Y-647050D01*
X-779860Y-646000D01*
Y-640750D01*
G01X-775890Y-648620D02*
Y-640750D01*
X-773550D01*
X-772770Y-641140D01*
X-772190Y-642060D01*
X-771990Y-643110D01*
X-772190Y-644160D01*
X-772670Y-644950D01*
X-773550Y-645340D01*
X-775890D01*
G01X-766070Y-648620D02*
Y-640750D01*
X-767240Y-642320D01*
G01Y-648620D02*
X-764900D01*
G01X-760050Y-642060D02*
X-759470Y-641270D01*
X-758780Y-640880D01*
X-758010Y-640750D01*
X-757030Y-641010D01*
X-756350Y-641670D01*
X-756160Y-642460D01*
X-756250Y-643240D01*
X-756640Y-643900D01*
X-758590Y-645210D01*
X-759470Y-646130D01*
X-760050Y-647440D01*
X-760240Y-648620D01*
X-756160D01*
G01X-779420Y-606600D02*
X-780380Y-605960D01*
X-781510Y-605540D01*
X-782790D01*
X-784240Y-606180D01*
X-785370Y-607230D01*
X-786170Y-608500D01*
X-786820Y-610620D01*
X-786980Y-612530D01*
X-786650Y-614430D01*
X-786170Y-615700D01*
X-785210Y-616970D01*
X-784080Y-617820D01*
X-782960Y-618240D01*
X-781830D01*
X-780700Y-617820D01*
X-779740Y-617180D01*
X-778930Y-616340D01*
G01X-773540Y-615700D02*
X-772580Y-617180D01*
X-771290Y-618030D01*
X-769840Y-618240D01*
X-768560Y-618030D01*
X-767270Y-616970D01*
X-766470Y-615700D01*
X-766310Y-614430D01*
X-766630Y-612950D01*
X-767750Y-611890D01*
X-768880Y-611470D01*
X-770330D01*
G01X-768880D02*
X-767910Y-610830D01*
X-767110Y-609770D01*
X-766790Y-608500D01*
X-767110Y-607230D01*
X-767910Y-606180D01*
X-769360Y-605540D01*
X-770810Y-605750D01*
X-772260Y-606600D01*
G01X-759790Y-616760D02*
X-758660Y-617820D01*
X-757380Y-618240D01*
X-756090Y-617820D01*
X-754960Y-616550D01*
X-754160Y-614640D01*
X-753840Y-612740D01*
Y-610410D01*
X-754160Y-608500D01*
X-754960Y-606810D01*
X-755930Y-605960D01*
X-757060Y-605540D01*
X-758340Y-605960D01*
X-759310Y-606810D01*
X-759950Y-608080D01*
X-760270Y-609770D01*
X-759950Y-611250D01*
X-759150Y-612740D01*
X-758180Y-613580D01*
X-757060Y-613800D01*
X-755770Y-613370D01*
X-754800Y-612310D01*
X-753840Y-610410D01*
G01X-746950Y-622300D02*
X-738950D01*
G01X-779420Y-506600D02*
X-780380Y-505960D01*
X-781510Y-505540D01*
X-782790D01*
X-784240Y-506180D01*
X-785370Y-507230D01*
X-786170Y-508500D01*
X-786820Y-510620D01*
X-786980Y-512530D01*
X-786650Y-514430D01*
X-786170Y-515700D01*
X-785210Y-516970D01*
X-784080Y-517820D01*
X-782960Y-518240D01*
X-781830D01*
X-780700Y-517820D01*
X-779740Y-517180D01*
X-778930Y-516340D01*
G01X-773540Y-515700D02*
X-772580Y-517180D01*
X-771290Y-518030D01*
X-769840Y-518240D01*
X-768560Y-518030D01*
X-767270Y-516970D01*
X-766470Y-515700D01*
X-766310Y-514430D01*
X-766630Y-512950D01*
X-767750Y-511890D01*
X-768880Y-511470D01*
X-770330D01*
G01X-768880D02*
X-767910Y-510830D01*
X-767110Y-509770D01*
X-766790Y-508500D01*
X-767110Y-507230D01*
X-767910Y-506180D01*
X-769360Y-505540D01*
X-770810Y-505750D01*
X-772260Y-506600D01*
G01X-760110Y-512950D02*
X-758990Y-511470D01*
X-758020Y-510620D01*
X-756730Y-510200D01*
X-755610Y-510620D01*
X-754800Y-511470D01*
X-754160Y-512740D01*
X-754000Y-514220D01*
X-754160Y-515490D01*
X-754800Y-516760D01*
X-755770Y-517820D01*
X-756890Y-518240D01*
X-758180Y-517820D01*
X-759310Y-516550D01*
X-759950Y-514640D01*
X-760110Y-512530D01*
X-759790Y-509770D01*
X-759310Y-508290D01*
X-758500Y-506810D01*
X-757380Y-505750D01*
X-756250Y-505540D01*
X-755120Y-505960D01*
X-754320Y-507020D01*
G01X-746950Y-520700D02*
X-738950D01*
G01X-781760Y-543050D02*
X-781270Y-543830D01*
X-780690Y-544360D01*
X-780000Y-544620D01*
X-779230Y-544360D01*
X-778640Y-543830D01*
X-778060Y-543050D01*
X-777860Y-542000D01*
Y-536750D01*
G01X-773890Y-544620D02*
Y-536750D01*
X-771550D01*
X-770770Y-537140D01*
X-770190Y-538060D01*
X-769990Y-539110D01*
X-770190Y-540160D01*
X-770670Y-540950D01*
X-771550Y-541340D01*
X-773890D01*
G01X-764070Y-544620D02*
Y-536750D01*
X-765240Y-538320D01*
G01Y-544620D02*
X-762900D01*
G01X-756200D02*
Y-536750D01*
X-757370Y-538320D01*
G01Y-544620D02*
X-755030D01*
G01X-779420Y-402600D02*
X-780380Y-401960D01*
X-781510Y-401540D01*
X-782790D01*
X-784240Y-402180D01*
X-785370Y-403230D01*
X-786170Y-404500D01*
X-786820Y-406620D01*
X-786980Y-408530D01*
X-786650Y-410430D01*
X-786170Y-411700D01*
X-785210Y-412970D01*
X-784080Y-413820D01*
X-782960Y-414240D01*
X-781830D01*
X-780700Y-413820D01*
X-779740Y-413180D01*
X-778930Y-412340D01*
G01X-773540Y-411700D02*
X-772580Y-413180D01*
X-771290Y-414030D01*
X-769840Y-414240D01*
X-768560Y-414030D01*
X-767270Y-412970D01*
X-766470Y-411700D01*
X-766310Y-410430D01*
X-766630Y-408950D01*
X-767750Y-407890D01*
X-768880Y-407470D01*
X-770330D01*
G01X-768880D02*
X-767910Y-406830D01*
X-767110Y-405770D01*
X-766790Y-404500D01*
X-767110Y-403230D01*
X-767910Y-402180D01*
X-769360Y-401540D01*
X-770810Y-401750D01*
X-772260Y-402600D01*
G01X-760590Y-411700D02*
X-759630Y-413180D01*
X-758340Y-414030D01*
X-756890Y-414240D01*
X-755610Y-414030D01*
X-754320Y-412970D01*
X-753520Y-411700D01*
X-753360Y-410430D01*
X-753680Y-408950D01*
X-754800Y-407890D01*
X-755930Y-407470D01*
X-757380D01*
G01X-755930D02*
X-754960Y-406830D01*
X-754160Y-405770D01*
X-753840Y-404500D01*
X-754160Y-403230D01*
X-754960Y-402180D01*
X-756410Y-401540D01*
X-757860Y-401750D01*
X-759310Y-402600D01*
G01X-746950Y-419100D02*
X-738950D01*
G01X-783760Y-443050D02*
X-783270Y-443830D01*
X-782690Y-444360D01*
X-782000Y-444620D01*
X-781230Y-444360D01*
X-780640Y-443830D01*
X-780060Y-443050D01*
X-779860Y-442000D01*
Y-436750D01*
G01X-775890Y-444620D02*
Y-436750D01*
X-773550D01*
X-772770Y-437140D01*
X-772190Y-438060D01*
X-771990Y-439110D01*
X-772190Y-440160D01*
X-772670Y-440950D01*
X-773550Y-441340D01*
X-775890D01*
G01X-766070Y-444620D02*
Y-436750D01*
X-767240Y-438320D01*
G01Y-444620D02*
X-764900D01*
G01X-758200Y-436750D02*
X-758980Y-437010D01*
X-759560Y-437670D01*
X-759950Y-438460D01*
X-760240Y-439500D01*
X-760340Y-440690D01*
X-760240Y-441870D01*
X-759950Y-442910D01*
X-759560Y-443700D01*
X-758980Y-444360D01*
X-758200Y-444620D01*
X-757420Y-444360D01*
X-756840Y-443700D01*
X-756450Y-442910D01*
X-756160Y-441870D01*
X-756060Y-440690D01*
X-756160Y-439500D01*
X-756450Y-438460D01*
X-756840Y-437670D01*
X-757420Y-437010D01*
X-758200Y-436750D01*
G01X-775820Y-341050D02*
X-775330Y-341830D01*
X-774750Y-342360D01*
X-774060Y-342620D01*
X-773290Y-342360D01*
X-772700Y-341830D01*
X-772120Y-341050D01*
X-771920Y-340000D01*
Y-334750D01*
G01X-767950Y-342620D02*
Y-334750D01*
X-765610D01*
X-764830Y-335140D01*
X-764250Y-336060D01*
X-764050Y-337110D01*
X-764250Y-338160D01*
X-764730Y-338950D01*
X-765610Y-339340D01*
X-767950D01*
G01X-759980Y-336060D02*
X-759400Y-335270D01*
X-758710Y-334880D01*
X-757940Y-334750D01*
X-756960Y-335010D01*
X-756280Y-335670D01*
X-756090Y-336460D01*
X-756180Y-337240D01*
X-756570Y-337900D01*
X-758520Y-339210D01*
X-759400Y-340130D01*
X-759980Y-341440D01*
X-760170Y-342620D01*
X-756090D01*
G01X-766940Y-300600D02*
X-767900Y-299960D01*
X-769030Y-299540D01*
X-770310D01*
X-771760Y-300180D01*
X-772890Y-301230D01*
X-773690Y-302500D01*
X-774340Y-304620D01*
X-774500Y-306530D01*
X-774170Y-308430D01*
X-773690Y-309700D01*
X-772730Y-310970D01*
X-771600Y-311820D01*
X-770480Y-312240D01*
X-769350D01*
X-768220Y-311820D01*
X-767260Y-311180D01*
X-766450Y-310340D01*
G01X-760260Y-310760D02*
X-759130Y-311820D01*
X-757850Y-312240D01*
X-756560Y-311820D01*
X-755430Y-310550D01*
X-754630Y-308640D01*
X-754310Y-306740D01*
Y-304410D01*
X-754630Y-302500D01*
X-755430Y-300810D01*
X-756400Y-299960D01*
X-757530Y-299540D01*
X-758810Y-299960D01*
X-759780Y-300810D01*
X-760420Y-302080D01*
X-760740Y-303770D01*
X-760420Y-305250D01*
X-759620Y-306740D01*
X-758650Y-307580D01*
X-757530Y-307800D01*
X-756240Y-307370D01*
X-755270Y-306310D01*
X-754310Y-304410D01*
G01X-746950Y-317500D02*
X-738950D01*
G01X-779430Y57400D02*
X-780390Y58040D01*
X-781520Y58460D01*
X-782800D01*
X-784250Y57820D01*
X-785380Y56770D01*
X-786180Y55500D01*
X-786830Y53380D01*
X-786990Y51470D01*
X-786660Y49570D01*
X-786180Y48300D01*
X-785220Y47030D01*
X-784090Y46180D01*
X-782970Y45760D01*
X-781840D01*
X-780710Y46180D01*
X-779750Y46820D01*
X-778940Y47660D01*
G01X-773550Y48300D02*
X-772590Y46820D01*
X-771300Y45970D01*
X-769850Y45760D01*
X-768570Y45970D01*
X-767280Y47030D01*
X-766480Y48300D01*
X-766320Y49570D01*
X-766640Y51050D01*
X-767760Y52110D01*
X-768890Y52530D01*
X-770340D01*
G01X-768890D02*
X-767920Y53170D01*
X-767120Y54230D01*
X-766800Y55500D01*
X-767120Y56770D01*
X-767920Y57820D01*
X-769370Y58460D01*
X-770820Y58250D01*
X-772270Y57400D01*
G01X-757070Y58460D02*
X-758350Y58040D01*
X-759320Y56980D01*
X-759960Y55710D01*
X-760440Y54010D01*
X-760600Y52110D01*
X-760440Y50200D01*
X-759960Y48510D01*
X-759320Y47240D01*
X-758350Y46180D01*
X-757070Y45760D01*
X-755780Y46180D01*
X-754810Y47240D01*
X-754170Y48510D01*
X-753690Y50200D01*
X-753530Y52110D01*
X-753690Y54010D01*
X-754170Y55710D01*
X-754810Y56980D01*
X-755780Y58040D01*
X-757070Y58460D01*
G01X-746950Y44450D02*
X-738950D01*
G01X-775820Y20950D02*
X-775330Y20170D01*
X-774750Y19640D01*
X-774060Y19380D01*
X-773290Y19640D01*
X-772700Y20170D01*
X-772120Y20950D01*
X-771920Y22000D01*
Y27250D01*
G01X-767950Y19380D02*
Y27250D01*
X-765610D01*
X-764830Y26860D01*
X-764250Y25940D01*
X-764050Y24890D01*
X-764250Y23840D01*
X-764730Y23050D01*
X-765610Y22660D01*
X-767950D01*
G01X-759780Y20300D02*
X-759100Y19640D01*
X-758320Y19380D01*
X-757550Y19640D01*
X-756860Y20430D01*
X-756380Y21610D01*
X-756180Y22790D01*
Y24230D01*
X-756380Y25410D01*
X-756860Y26460D01*
X-757450Y26990D01*
X-758130Y27250D01*
X-758910Y26990D01*
X-759490Y26460D01*
X-759880Y25680D01*
X-760080Y24630D01*
X-759880Y23710D01*
X-759400Y22790D01*
X-758810Y22270D01*
X-758130Y22130D01*
X-757350Y22400D01*
X-756770Y23050D01*
X-756180Y24230D01*
G01X-775820Y118950D02*
X-775330Y118170D01*
X-774750Y117640D01*
X-774060Y117380D01*
X-773290Y117640D01*
X-772700Y118170D01*
X-772120Y118950D01*
X-771920Y120000D01*
Y125250D01*
G01X-767950Y117380D02*
Y125250D01*
X-765610D01*
X-764830Y124860D01*
X-764250Y123940D01*
X-764050Y122890D01*
X-764250Y121840D01*
X-764730Y121050D01*
X-765610Y120660D01*
X-767950D01*
G01X-758130Y117380D02*
X-757450Y117510D01*
X-756670Y117900D01*
X-756180Y118560D01*
X-755990Y119480D01*
X-756180Y120400D01*
X-756770Y121180D01*
X-757640Y121580D01*
X-758620D01*
X-759200Y121840D01*
X-759690Y122500D01*
X-759880Y123410D01*
X-759590Y124330D01*
X-758910Y124990D01*
X-758130Y125250D01*
X-757350Y124990D01*
X-756670Y124330D01*
X-756380Y123410D01*
X-756570Y122500D01*
X-757060Y121840D01*
X-757640Y121580D01*
X-758620D01*
X-759490Y121180D01*
X-760080Y120400D01*
X-760270Y119480D01*
X-760080Y118560D01*
X-759590Y117900D01*
X-758810Y117510D01*
X-758130Y117380D01*
G01X-777430Y167400D02*
X-778390Y168040D01*
X-779520Y168460D01*
X-780800D01*
X-782250Y167820D01*
X-783380Y166770D01*
X-784180Y165500D01*
X-784830Y163380D01*
X-784990Y161470D01*
X-784660Y159570D01*
X-784180Y158300D01*
X-783220Y157030D01*
X-782090Y156180D01*
X-780970Y155760D01*
X-779840D01*
X-778710Y156180D01*
X-777750Y156820D01*
X-776940Y157660D01*
G01X-771070Y166340D02*
X-770110Y167610D01*
X-768980Y168250D01*
X-767690Y168460D01*
X-766080Y168040D01*
X-764960Y166980D01*
X-764640Y165710D01*
X-764800Y164440D01*
X-765440Y163380D01*
X-768660Y161260D01*
X-770110Y159780D01*
X-771070Y157660D01*
X-771390Y155760D01*
X-764640D01*
G01X-755390D02*
X-755070Y158510D01*
X-754580Y160840D01*
X-753940Y162960D01*
X-753130Y165280D01*
X-751850Y168460D01*
X-758280D01*
G01X-746950Y146050D02*
X-738950D01*
G01X-779430Y263400D02*
X-780390Y264040D01*
X-781520Y264460D01*
X-782800D01*
X-784250Y263820D01*
X-785380Y262770D01*
X-786180Y261500D01*
X-786830Y259380D01*
X-786990Y257470D01*
X-786660Y255570D01*
X-786180Y254300D01*
X-785220Y253030D01*
X-784090Y252180D01*
X-782970Y251760D01*
X-781840D01*
X-780710Y252180D01*
X-779750Y252820D01*
X-778940Y253660D01*
G01X-773070Y262340D02*
X-772110Y263610D01*
X-770980Y264250D01*
X-769690Y264460D01*
X-768080Y264040D01*
X-766960Y262980D01*
X-766640Y261710D01*
X-766800Y260440D01*
X-767440Y259380D01*
X-770660Y257260D01*
X-772110Y255780D01*
X-773070Y253660D01*
X-773390Y251760D01*
X-766640D01*
G01X-755130D02*
Y264460D01*
X-761090Y255360D01*
X-753040D01*
G01X-746950Y247650D02*
X-738950D01*
G01X-775820Y222950D02*
X-775330Y222170D01*
X-774750Y221640D01*
X-774060Y221380D01*
X-773290Y221640D01*
X-772700Y222170D01*
X-772120Y222950D01*
X-771920Y224000D01*
Y229250D01*
G01X-767950Y221380D02*
Y229250D01*
X-765610D01*
X-764830Y228860D01*
X-764250Y227940D01*
X-764050Y226890D01*
X-764250Y225840D01*
X-764730Y225050D01*
X-765610Y224660D01*
X-767950D01*
G01X-758320Y221380D02*
X-758130Y223090D01*
X-757840Y224530D01*
X-757450Y225840D01*
X-756960Y227280D01*
X-756180Y229250D01*
X-760080D01*
G01X-746950Y349250D02*
X-738950D01*
G01X-775820Y326950D02*
X-775330Y326170D01*
X-774750Y325640D01*
X-774060Y325380D01*
X-773290Y325640D01*
X-772700Y326170D01*
X-772120Y326950D01*
X-771920Y328000D01*
Y333250D01*
G01X-767950Y325380D02*
Y333250D01*
X-765610D01*
X-764830Y332860D01*
X-764250Y331940D01*
X-764050Y330890D01*
X-764250Y329840D01*
X-764730Y329050D01*
X-765610Y328660D01*
X-767950D01*
G01X-759980D02*
X-759300Y329580D01*
X-758710Y330100D01*
X-757940Y330360D01*
X-757250Y330100D01*
X-756770Y329580D01*
X-756380Y328790D01*
X-756280Y327870D01*
X-756380Y327090D01*
X-756770Y326300D01*
X-757350Y325640D01*
X-758030Y325380D01*
X-758810Y325640D01*
X-759490Y326430D01*
X-759880Y327610D01*
X-759980Y328920D01*
X-759780Y330630D01*
X-759490Y331540D01*
X-759010Y332460D01*
X-758320Y333120D01*
X-757640Y333250D01*
X-756960Y332990D01*
X-756480Y332330D01*
G01X-777430Y367400D02*
X-778390Y368040D01*
X-779520Y368460D01*
X-780800D01*
X-782250Y367820D01*
X-783380Y366770D01*
X-784180Y365500D01*
X-784830Y363380D01*
X-784990Y361470D01*
X-784660Y359570D01*
X-784180Y358300D01*
X-783220Y357030D01*
X-782090Y356180D01*
X-780970Y355760D01*
X-779840D01*
X-778710Y356180D01*
X-777750Y356820D01*
X-776940Y357660D01*
G01X-771070Y366340D02*
X-770110Y367610D01*
X-768980Y368250D01*
X-767690Y368460D01*
X-766080Y368040D01*
X-764960Y366980D01*
X-764640Y365710D01*
X-764800Y364440D01*
X-765440Y363380D01*
X-768660Y361260D01*
X-770110Y359780D01*
X-771070Y357660D01*
X-771390Y355760D01*
X-764640D01*
G01X-755070D02*
Y368460D01*
X-757000Y365920D01*
G01Y355760D02*
X-753140D01*
G01X-775820Y428950D02*
X-775330Y428170D01*
X-774750Y427640D01*
X-774060Y427380D01*
X-773290Y427640D01*
X-772700Y428170D01*
X-772120Y428950D01*
X-771920Y430000D01*
Y435250D01*
G01X-767950Y427380D02*
Y435250D01*
X-765610D01*
X-764830Y434860D01*
X-764250Y433940D01*
X-764050Y432890D01*
X-764250Y431840D01*
X-764730Y431050D01*
X-765610Y430660D01*
X-767950D01*
G01X-760270Y428560D02*
X-759690Y427900D01*
X-759010Y427510D01*
X-758130Y427380D01*
X-757250Y427640D01*
X-756570Y428170D01*
X-756090Y429090D01*
X-755990Y430130D01*
X-756180Y431180D01*
X-756670Y431840D01*
X-757350Y432360D01*
X-758030Y432500D01*
X-758710Y432360D01*
X-759590Y431840D01*
X-759300Y435250D01*
X-756670D01*
G01X-779430Y467400D02*
X-780390Y468040D01*
X-781520Y468460D01*
X-782800D01*
X-784250Y467820D01*
X-785380Y466770D01*
X-786180Y465500D01*
X-786830Y463380D01*
X-786990Y461470D01*
X-786660Y459570D01*
X-786180Y458300D01*
X-785220Y457030D01*
X-784090Y456180D01*
X-782970Y455760D01*
X-781840D01*
X-780710Y456180D01*
X-779750Y456820D01*
X-778940Y457660D01*
G01X-770020Y455760D02*
Y468460D01*
X-771950Y465920D01*
G01Y455760D02*
X-768090D01*
G01X-757070D02*
X-755940Y455970D01*
X-754650Y456610D01*
X-753850Y457660D01*
X-753530Y459150D01*
X-753850Y460630D01*
X-754810Y461900D01*
X-756260Y462530D01*
X-757870D01*
X-758830Y462960D01*
X-759640Y464010D01*
X-759960Y465500D01*
X-759480Y466980D01*
X-758350Y468040D01*
X-757070Y468460D01*
X-755780Y468040D01*
X-754650Y466980D01*
X-754170Y465500D01*
X-754490Y464010D01*
X-755300Y462960D01*
X-756260Y462530D01*
X-757870D01*
X-759320Y461900D01*
X-760280Y460630D01*
X-760600Y459150D01*
X-760280Y457660D01*
X-759480Y456610D01*
X-758190Y455970D01*
X-757070Y455760D01*
G01X-746950Y450850D02*
X-738950D01*
G01X-779430Y567400D02*
X-780390Y568040D01*
X-781520Y568460D01*
X-782800D01*
X-784250Y567820D01*
X-785380Y566770D01*
X-786180Y565500D01*
X-786830Y563380D01*
X-786990Y561470D01*
X-786660Y559570D01*
X-786180Y558300D01*
X-785220Y557030D01*
X-784090Y556180D01*
X-782970Y555760D01*
X-781840D01*
X-780710Y556180D01*
X-779750Y556820D01*
X-778940Y557660D01*
G01X-770020Y555760D02*
Y568460D01*
X-771950Y565920D01*
G01Y555760D02*
X-768090D01*
G01X-760600Y557660D02*
X-759640Y556610D01*
X-758510Y555970D01*
X-757070Y555760D01*
X-755620Y556180D01*
X-754490Y557030D01*
X-753690Y558510D01*
X-753530Y560200D01*
X-753850Y561900D01*
X-754650Y562960D01*
X-755780Y563800D01*
X-756900Y564010D01*
X-758030Y563800D01*
X-759480Y562960D01*
X-759000Y568460D01*
X-754650D01*
G01X-746950Y552450D02*
X-738950D01*
G01X-775820Y528950D02*
X-775330Y528170D01*
X-774750Y527640D01*
X-774060Y527380D01*
X-773290Y527640D01*
X-772700Y528170D01*
X-772120Y528950D01*
X-771920Y530000D01*
Y535250D01*
G01X-767950Y527380D02*
Y535250D01*
X-765610D01*
X-764830Y534860D01*
X-764250Y533940D01*
X-764050Y532890D01*
X-764250Y531840D01*
X-764730Y531050D01*
X-765610Y530660D01*
X-767950D01*
G01X-756960Y527380D02*
Y535250D01*
X-760560Y529610D01*
X-755700D01*
G01X-779430Y667410D02*
X-780390Y668050D01*
X-781520Y668470D01*
X-782800D01*
X-784250Y667830D01*
X-785380Y666780D01*
X-786180Y665510D01*
X-786830Y663390D01*
X-786990Y661480D01*
X-786660Y659580D01*
X-786180Y658310D01*
X-785220Y657040D01*
X-784090Y656190D01*
X-782970Y655770D01*
X-781840D01*
X-780710Y656190D01*
X-779750Y656830D01*
X-778940Y657670D01*
G01X-770020Y655770D02*
Y668470D01*
X-771950Y665930D01*
G01Y655770D02*
X-768090D01*
G01X-760120Y666350D02*
X-759160Y667620D01*
X-758030Y668260D01*
X-756740Y668470D01*
X-755130Y668050D01*
X-754010Y666990D01*
X-753690Y665720D01*
X-753850Y664450D01*
X-754490Y663390D01*
X-757710Y661270D01*
X-759160Y659790D01*
X-760120Y657670D01*
X-760440Y655770D01*
X-753690D01*
G01X-746950Y654050D02*
X-738950D01*
G01X-774820Y633950D02*
X-774330Y633170D01*
X-773750Y632640D01*
X-773060Y632380D01*
X-772290Y632640D01*
X-771700Y633170D01*
X-771120Y633950D01*
X-770920Y635000D01*
Y640250D01*
G01X-766950Y632380D02*
Y640250D01*
X-764610D01*
X-763830Y639860D01*
X-763250Y638940D01*
X-763050Y637890D01*
X-763250Y636840D01*
X-763730Y636050D01*
X-764610Y635660D01*
X-766950D01*
G01X-759270Y633950D02*
X-758690Y633040D01*
X-757910Y632510D01*
X-757030Y632380D01*
X-756250Y632510D01*
X-755480Y633170D01*
X-754990Y633950D01*
X-754890Y634740D01*
X-755090Y635660D01*
X-755770Y636310D01*
X-756450Y636580D01*
X-757320D01*
G01X-756450D02*
X-755860Y636970D01*
X-755380Y637630D01*
X-755180Y638410D01*
X-755380Y639200D01*
X-755860Y639860D01*
X-756740Y640250D01*
X-757620Y640120D01*
X-758490Y639590D01*
G01X-774820Y733950D02*
X-774330Y733170D01*
X-773750Y732640D01*
X-773060Y732380D01*
X-772290Y732640D01*
X-771700Y733170D01*
X-771120Y733950D01*
X-770920Y735000D01*
Y740250D01*
G01X-766950Y732380D02*
Y740250D01*
X-764610D01*
X-763830Y739860D01*
X-763250Y738940D01*
X-763050Y737890D01*
X-763250Y736840D01*
X-763730Y736050D01*
X-764610Y735660D01*
X-766950D01*
G01X-757130Y732380D02*
Y740250D01*
X-758300Y738680D01*
G01Y732380D02*
X-755960D01*
G01X-767940Y767410D02*
X-768900Y768050D01*
X-770030Y768470D01*
X-771310D01*
X-772760Y767830D01*
X-773890Y766780D01*
X-774690Y765510D01*
X-775340Y763390D01*
X-775500Y761480D01*
X-775170Y759580D01*
X-774690Y758310D01*
X-773730Y757040D01*
X-772600Y756190D01*
X-771480Y755770D01*
X-770350D01*
X-769220Y756190D01*
X-768260Y756830D01*
X-767450Y757670D01*
G01X-761580Y761060D02*
X-760460Y762540D01*
X-759490Y763390D01*
X-758200Y763810D01*
X-757080Y763390D01*
X-756270Y762540D01*
X-755630Y761270D01*
X-755470Y759790D01*
X-755630Y758520D01*
X-756270Y757250D01*
X-757240Y756190D01*
X-758360Y755770D01*
X-759650Y756190D01*
X-760780Y757460D01*
X-761420Y759370D01*
X-761580Y761480D01*
X-761260Y764240D01*
X-760780Y765720D01*
X-759970Y767200D01*
X-758850Y768260D01*
X-757720Y768470D01*
X-756590Y768050D01*
X-755790Y766990D01*
G01X-746950Y755650D02*
X-738950D01*
G01X-734190Y820020D02*
X-735150Y820660D01*
X-736280Y821080D01*
X-737560D01*
X-739010Y820440D01*
X-740140Y819390D01*
X-740940Y818120D01*
X-741590Y816000D01*
X-741750Y814090D01*
X-741420Y812190D01*
X-740940Y810920D01*
X-739980Y809650D01*
X-738850Y808800D01*
X-737730Y808380D01*
X-736600D01*
X-735470Y808800D01*
X-734510Y809440D01*
X-733700Y810280D01*
G01X-724780Y808380D02*
Y821080D01*
X-726710Y818540D01*
G01Y808380D02*
X-722850D01*
G01X-714990Y-1277540D02*
X-710970Y-1290240D01*
X-706940Y-1277540D01*
G01X-701550Y-1290240D02*
Y-1277540D01*
X-698340D01*
X-697050Y-1278180D01*
X-696080Y-1279020D01*
X-695280Y-1280290D01*
X-694640Y-1281770D01*
X-694480Y-1283890D01*
X-694640Y-1286010D01*
X-695280Y-1287490D01*
X-696080Y-1288760D01*
X-697050Y-1289610D01*
X-698340Y-1290240D01*
X-701550D01*
G01X-683130D02*
Y-1277540D01*
X-689090Y-1286640D01*
X-681040D01*
G01X-592990Y-1219530D02*
X-588970Y-1232230D01*
X-584940Y-1219530D01*
G01X-579550Y-1232230D02*
Y-1219530D01*
X-576340D01*
X-575050Y-1220170D01*
X-574080Y-1221010D01*
X-573280Y-1222280D01*
X-572640Y-1223760D01*
X-572480Y-1225880D01*
X-572640Y-1228000D01*
X-573280Y-1229480D01*
X-574080Y-1230750D01*
X-575050Y-1231600D01*
X-576340Y-1232230D01*
X-579550D01*
G01X-566600Y-1229690D02*
X-565640Y-1231170D01*
X-564350Y-1232020D01*
X-562900Y-1232230D01*
X-561620Y-1232020D01*
X-560330Y-1230960D01*
X-559530Y-1229690D01*
X-559370Y-1228420D01*
X-559690Y-1226940D01*
X-560810Y-1225880D01*
X-561940Y-1225460D01*
X-563390D01*
G01X-561940D02*
X-560970Y-1224820D01*
X-560170Y-1223760D01*
X-559850Y-1222490D01*
X-560170Y-1221220D01*
X-560970Y-1220170D01*
X-562420Y-1219530D01*
X-563870Y-1219740D01*
X-565320Y-1220590D01*
G01X-642230Y-1178050D02*
X-638210Y-1190750D01*
X-634180Y-1178050D01*
G01X-625260D02*
Y-1190750D01*
G01X-628950Y-1178050D02*
X-621560D01*
G01X-612310Y-1190750D02*
Y-1178050D01*
X-614240Y-1180590D01*
G01Y-1190750D02*
X-610380D01*
G01X-595450Y-1085540D02*
X-591430Y-1098240D01*
X-587400Y-1085540D01*
G01X-582010Y-1098240D02*
Y-1085540D01*
X-578800D01*
X-577510Y-1086180D01*
X-576540Y-1087020D01*
X-575740Y-1088290D01*
X-575100Y-1089770D01*
X-574940Y-1091890D01*
X-575100Y-1094010D01*
X-575740Y-1095490D01*
X-576540Y-1096760D01*
X-577510Y-1097610D01*
X-578800Y-1098240D01*
X-582010D01*
G01X-565530D02*
X-564400Y-1098030D01*
X-563110Y-1097390D01*
X-562310Y-1096340D01*
X-561990Y-1094850D01*
X-562310Y-1093370D01*
X-563270Y-1092100D01*
X-564720Y-1091470D01*
X-566330D01*
X-567290Y-1091040D01*
X-568100Y-1089990D01*
X-568420Y-1088500D01*
X-567940Y-1087020D01*
X-566810Y-1085960D01*
X-565530Y-1085540D01*
X-564240Y-1085960D01*
X-563110Y-1087020D01*
X-562630Y-1088500D01*
X-562950Y-1089990D01*
X-563760Y-1091040D01*
X-564720Y-1091470D01*
X-566330D01*
X-567780Y-1092100D01*
X-568740Y-1093370D01*
X-569060Y-1094850D01*
X-568740Y-1096340D01*
X-567940Y-1097390D01*
X-566650Y-1098030D01*
X-565530Y-1098240D01*
G01X-550640D02*
Y-1085540D01*
X-556600Y-1094640D01*
X-548550D01*
G01X-607430Y-999540D02*
Y-1012240D01*
G01X-611120Y-999540D02*
X-603730D01*
G01X-598500D02*
X-594480Y-1012240D01*
X-590450Y-999540D01*
G01X-581530Y-1012240D02*
Y-999540D01*
X-583460Y-1002080D01*
G01Y-1012240D02*
X-579600D01*
G01X-571630Y-1006950D02*
X-570510Y-1005470D01*
X-569540Y-1004620D01*
X-568250Y-1004200D01*
X-567130Y-1004620D01*
X-566320Y-1005470D01*
X-565680Y-1006740D01*
X-565520Y-1008220D01*
X-565680Y-1009490D01*
X-566320Y-1010760D01*
X-567290Y-1011820D01*
X-568410Y-1012240D01*
X-569700Y-1011820D01*
X-570830Y-1010550D01*
X-571470Y-1008640D01*
X-571630Y-1006530D01*
X-571310Y-1003770D01*
X-570830Y-1002290D01*
X-570020Y-1000810D01*
X-568900Y-999750D01*
X-567770Y-999540D01*
X-566640Y-999960D01*
X-565840Y-1001020D01*
G01X-593450Y-983540D02*
X-589430Y-996240D01*
X-585400Y-983540D01*
G01X-580010Y-996240D02*
Y-983540D01*
X-576800D01*
X-575510Y-984180D01*
X-574540Y-985020D01*
X-573740Y-986290D01*
X-573100Y-987770D01*
X-572940Y-989890D01*
X-573100Y-992010D01*
X-573740Y-993490D01*
X-574540Y-994760D01*
X-575510Y-995610D01*
X-576800Y-996240D01*
X-580010D01*
G01X-563850D02*
X-563530Y-993490D01*
X-563040Y-991160D01*
X-562400Y-989040D01*
X-561590Y-986720D01*
X-560310Y-983540D01*
X-566740D01*
G01X-553310Y-994760D02*
X-552180Y-995820D01*
X-550900Y-996240D01*
X-549610Y-995820D01*
X-548480Y-994550D01*
X-547680Y-992640D01*
X-547360Y-990740D01*
Y-988410D01*
X-547680Y-986500D01*
X-548480Y-984810D01*
X-549450Y-983960D01*
X-550580Y-983540D01*
X-551860Y-983960D01*
X-552830Y-984810D01*
X-553470Y-986080D01*
X-553790Y-987770D01*
X-553470Y-989250D01*
X-552670Y-990740D01*
X-551700Y-991580D01*
X-550580Y-991800D01*
X-549290Y-991370D01*
X-548320Y-990310D01*
X-547360Y-988410D01*
G01X-607430Y-897540D02*
Y-910240D01*
G01X-611120Y-897540D02*
X-603730D01*
G01X-598500D02*
X-594480Y-910240D01*
X-590450Y-897540D01*
G01X-581530Y-910240D02*
Y-897540D01*
X-583460Y-900080D01*
G01Y-910240D02*
X-579600D01*
G01X-572110Y-908340D02*
X-571150Y-909390D01*
X-570020Y-910030D01*
X-568580Y-910240D01*
X-567130Y-909820D01*
X-566000Y-908970D01*
X-565200Y-907490D01*
X-565040Y-905800D01*
X-565360Y-904100D01*
X-566160Y-903040D01*
X-567290Y-902200D01*
X-568410Y-901990D01*
X-569540Y-902200D01*
X-570990Y-903040D01*
X-570510Y-897540D01*
X-566160D01*
G01X-595450Y-881540D02*
X-591430Y-894240D01*
X-587400Y-881540D01*
G01X-582010Y-894240D02*
Y-881540D01*
X-578800D01*
X-577510Y-882180D01*
X-576540Y-883020D01*
X-575740Y-884290D01*
X-575100Y-885770D01*
X-574940Y-887890D01*
X-575100Y-890010D01*
X-575740Y-891490D01*
X-576540Y-892760D01*
X-577510Y-893610D01*
X-578800Y-894240D01*
X-582010D01*
G01X-565850D02*
X-565530Y-891490D01*
X-565040Y-889160D01*
X-564400Y-887040D01*
X-563590Y-884720D01*
X-562310Y-881540D01*
X-568740D01*
G01X-550640Y-894240D02*
Y-881540D01*
X-556600Y-890640D01*
X-548550D01*
G01X-607430Y-795540D02*
Y-808240D01*
G01X-611120Y-795540D02*
X-603730D01*
G01X-598500D02*
X-594480Y-808240D01*
X-590450Y-795540D01*
G01X-581530Y-808240D02*
Y-795540D01*
X-583460Y-798080D01*
G01Y-808240D02*
X-579600D01*
G01X-566640D02*
Y-795540D01*
X-572600Y-804640D01*
X-564550D01*
G01X-595450Y-779540D02*
X-591430Y-792240D01*
X-587400Y-779540D01*
G01X-582010Y-792240D02*
Y-779540D01*
X-578800D01*
X-577510Y-780180D01*
X-576540Y-781020D01*
X-575740Y-782290D01*
X-575100Y-783770D01*
X-574940Y-785890D01*
X-575100Y-788010D01*
X-575740Y-789490D01*
X-576540Y-790760D01*
X-577510Y-791610D01*
X-578800Y-792240D01*
X-582010D01*
G01X-568580Y-786950D02*
X-567460Y-785470D01*
X-566490Y-784620D01*
X-565200Y-784200D01*
X-564080Y-784620D01*
X-563270Y-785470D01*
X-562630Y-786740D01*
X-562470Y-788220D01*
X-562630Y-789490D01*
X-563270Y-790760D01*
X-564240Y-791820D01*
X-565360Y-792240D01*
X-566650Y-791820D01*
X-567780Y-790550D01*
X-568420Y-788640D01*
X-568580Y-786530D01*
X-568260Y-783770D01*
X-567780Y-782290D01*
X-566970Y-780810D01*
X-565850Y-779750D01*
X-564720Y-779540D01*
X-563590Y-779960D01*
X-562790Y-781020D01*
G01X-555310Y-790760D02*
X-554180Y-791820D01*
X-552900Y-792240D01*
X-551610Y-791820D01*
X-550480Y-790550D01*
X-549680Y-788640D01*
X-549360Y-786740D01*
Y-784410D01*
X-549680Y-782500D01*
X-550480Y-780810D01*
X-551450Y-779960D01*
X-552580Y-779540D01*
X-553860Y-779960D01*
X-554830Y-780810D01*
X-555470Y-782080D01*
X-555790Y-783770D01*
X-555470Y-785250D01*
X-554670Y-786740D01*
X-553700Y-787580D01*
X-552580Y-787800D01*
X-551290Y-787370D01*
X-550320Y-786310D01*
X-549360Y-784410D01*
G01X-607430Y-693540D02*
Y-706240D01*
G01X-611120Y-693540D02*
X-603730D01*
G01X-598500D02*
X-594480Y-706240D01*
X-590450Y-693540D01*
G01X-581530Y-706240D02*
Y-693540D01*
X-583460Y-696080D01*
G01Y-706240D02*
X-579600D01*
G01X-572110Y-703700D02*
X-571150Y-705180D01*
X-569860Y-706030D01*
X-568410Y-706240D01*
X-567130Y-706030D01*
X-565840Y-704970D01*
X-565040Y-703700D01*
X-564880Y-702430D01*
X-565200Y-700950D01*
X-566320Y-699890D01*
X-567450Y-699470D01*
X-568900D01*
G01X-567450D02*
X-566480Y-698830D01*
X-565680Y-697770D01*
X-565360Y-696500D01*
X-565680Y-695230D01*
X-566480Y-694180D01*
X-567930Y-693540D01*
X-569380Y-693750D01*
X-570830Y-694600D01*
G01X-595450Y-677540D02*
X-591430Y-690240D01*
X-587400Y-677540D01*
G01X-582010Y-690240D02*
Y-677540D01*
X-578800D01*
X-577510Y-678180D01*
X-576540Y-679020D01*
X-575740Y-680290D01*
X-575100Y-681770D01*
X-574940Y-683890D01*
X-575100Y-686010D01*
X-575740Y-687490D01*
X-576540Y-688760D01*
X-577510Y-689610D01*
X-578800Y-690240D01*
X-582010D01*
G01X-568580Y-684950D02*
X-567460Y-683470D01*
X-566490Y-682620D01*
X-565200Y-682200D01*
X-564080Y-682620D01*
X-563270Y-683470D01*
X-562630Y-684740D01*
X-562470Y-686220D01*
X-562630Y-687490D01*
X-563270Y-688760D01*
X-564240Y-689820D01*
X-565360Y-690240D01*
X-566650Y-689820D01*
X-567780Y-688550D01*
X-568420Y-686640D01*
X-568580Y-684530D01*
X-568260Y-681770D01*
X-567780Y-680290D01*
X-566970Y-678810D01*
X-565850Y-677750D01*
X-564720Y-677540D01*
X-563590Y-677960D01*
X-562790Y-679020D01*
G01X-550640Y-690240D02*
Y-677540D01*
X-556600Y-686640D01*
X-548550D01*
G01X-607430Y-593540D02*
Y-606240D01*
G01X-611120Y-593540D02*
X-603730D01*
G01X-598500D02*
X-594480Y-606240D01*
X-590450Y-593540D01*
G01X-581530Y-606240D02*
Y-593540D01*
X-583460Y-596080D01*
G01Y-606240D02*
X-579600D01*
G01X-571630Y-595660D02*
X-570670Y-594390D01*
X-569540Y-593750D01*
X-568250Y-593540D01*
X-566640Y-593960D01*
X-565520Y-595020D01*
X-565200Y-596290D01*
X-565360Y-597560D01*
X-566000Y-598620D01*
X-569220Y-600740D01*
X-570670Y-602220D01*
X-571630Y-604340D01*
X-571950Y-606240D01*
X-565200D01*
G01X-595450Y-577540D02*
X-591430Y-590240D01*
X-587400Y-577540D01*
G01X-582010Y-590240D02*
Y-577540D01*
X-578800D01*
X-577510Y-578180D01*
X-576540Y-579020D01*
X-575740Y-580290D01*
X-575100Y-581770D01*
X-574940Y-583890D01*
X-575100Y-586010D01*
X-575740Y-587490D01*
X-576540Y-588760D01*
X-577510Y-589610D01*
X-578800Y-590240D01*
X-582010D01*
G01X-569060Y-588340D02*
X-568100Y-589390D01*
X-566970Y-590030D01*
X-565530Y-590240D01*
X-564080Y-589820D01*
X-562950Y-588970D01*
X-562150Y-587490D01*
X-561990Y-585800D01*
X-562310Y-584100D01*
X-563110Y-583040D01*
X-564240Y-582200D01*
X-565360Y-581990D01*
X-566490Y-582200D01*
X-567940Y-583040D01*
X-567460Y-577540D01*
X-563110D01*
G01X-555310Y-588760D02*
X-554180Y-589820D01*
X-552900Y-590240D01*
X-551610Y-589820D01*
X-550480Y-588550D01*
X-549680Y-586640D01*
X-549360Y-584740D01*
Y-582410D01*
X-549680Y-580500D01*
X-550480Y-578810D01*
X-551450Y-577960D01*
X-552580Y-577540D01*
X-553860Y-577960D01*
X-554830Y-578810D01*
X-555470Y-580080D01*
X-555790Y-581770D01*
X-555470Y-583250D01*
X-554670Y-584740D01*
X-553700Y-585580D01*
X-552580Y-585800D01*
X-551290Y-585370D01*
X-550320Y-584310D01*
X-549360Y-582410D01*
G01X-607430Y-491540D02*
Y-504240D01*
G01X-611120Y-491540D02*
X-603730D01*
G01X-598500D02*
X-594480Y-504240D01*
X-590450Y-491540D01*
G01X-581530Y-504240D02*
Y-491540D01*
X-583460Y-494080D01*
G01Y-504240D02*
X-579600D01*
G01X-568580D02*
Y-491540D01*
X-570510Y-494080D01*
G01Y-504240D02*
X-566650D01*
G01X-595450Y-475540D02*
X-591430Y-488240D01*
X-587400Y-475540D01*
G01X-582010Y-488240D02*
Y-475540D01*
X-578800D01*
X-577510Y-476180D01*
X-576540Y-477020D01*
X-575740Y-478290D01*
X-575100Y-479770D01*
X-574940Y-481890D01*
X-575100Y-484010D01*
X-575740Y-485490D01*
X-576540Y-486760D01*
X-577510Y-487610D01*
X-578800Y-488240D01*
X-582010D01*
G01X-569060Y-486340D02*
X-568100Y-487390D01*
X-566970Y-488030D01*
X-565530Y-488240D01*
X-564080Y-487820D01*
X-562950Y-486970D01*
X-562150Y-485490D01*
X-561990Y-483800D01*
X-562310Y-482100D01*
X-563110Y-481040D01*
X-564240Y-480200D01*
X-565360Y-479990D01*
X-566490Y-480200D01*
X-567940Y-481040D01*
X-567460Y-475540D01*
X-563110D01*
G01X-550640Y-488240D02*
Y-475540D01*
X-556600Y-484640D01*
X-548550D01*
G01X-607430Y-389540D02*
Y-402240D01*
G01X-611120Y-389540D02*
X-603730D01*
G01X-598500D02*
X-594480Y-402240D01*
X-590450Y-389540D01*
G01X-581530Y-402240D02*
Y-389540D01*
X-583460Y-392080D01*
G01Y-402240D02*
X-579600D01*
G01X-568580Y-389540D02*
X-569860Y-389960D01*
X-570830Y-391020D01*
X-571470Y-392290D01*
X-571950Y-393990D01*
X-572110Y-395890D01*
X-571950Y-397800D01*
X-571470Y-399490D01*
X-570830Y-400760D01*
X-569860Y-401820D01*
X-568580Y-402240D01*
X-567290Y-401820D01*
X-566320Y-400760D01*
X-565680Y-399490D01*
X-565200Y-397800D01*
X-565040Y-395890D01*
X-565200Y-393990D01*
X-565680Y-392290D01*
X-566320Y-391020D01*
X-567290Y-389960D01*
X-568580Y-389540D01*
G01X-595450Y-373540D02*
X-591430Y-386240D01*
X-587400Y-373540D01*
G01X-582010Y-386240D02*
Y-373540D01*
X-578800D01*
X-577510Y-374180D01*
X-576540Y-375020D01*
X-575740Y-376290D01*
X-575100Y-377770D01*
X-574940Y-379890D01*
X-575100Y-382010D01*
X-575740Y-383490D01*
X-576540Y-384760D01*
X-577510Y-385610D01*
X-578800Y-386240D01*
X-582010D01*
G01X-565530D02*
Y-373540D01*
X-567460Y-376080D01*
G01Y-386240D02*
X-563600D01*
G01X-550640D02*
Y-373540D01*
X-556600Y-382640D01*
X-548550D01*
G01X-606970Y-287540D02*
Y-300240D01*
G01X-610660Y-287540D02*
X-603270D01*
G01X-598040D02*
X-594020Y-300240D01*
X-589990Y-287540D01*
G01X-584120Y-289660D02*
X-583160Y-288390D01*
X-582030Y-287750D01*
X-580740Y-287540D01*
X-579130Y-287960D01*
X-578010Y-289020D01*
X-577690Y-290290D01*
X-577850Y-291560D01*
X-578490Y-292620D01*
X-581710Y-294740D01*
X-583160Y-296220D01*
X-584120Y-298340D01*
X-584440Y-300240D01*
X-577690D01*
G01X-595450Y-11530D02*
X-591430Y-24230D01*
X-587400Y-11530D01*
G01X-582010Y-24230D02*
Y-11530D01*
X-578800D01*
X-577510Y-12170D01*
X-576540Y-13010D01*
X-575740Y-14280D01*
X-575100Y-15760D01*
X-574940Y-17880D01*
X-575100Y-20000D01*
X-575740Y-21480D01*
X-576540Y-22750D01*
X-577510Y-23600D01*
X-578800Y-24230D01*
X-582010D01*
G01X-563590D02*
Y-11530D01*
X-569550Y-20630D01*
X-561500D01*
G01X-555310Y-22750D02*
X-554180Y-23810D01*
X-552900Y-24230D01*
X-551610Y-23810D01*
X-550480Y-22540D01*
X-549680Y-20630D01*
X-549360Y-18730D01*
Y-16400D01*
X-549680Y-14490D01*
X-550480Y-12800D01*
X-551450Y-11950D01*
X-552580Y-11530D01*
X-553860Y-11950D01*
X-554830Y-12800D01*
X-555470Y-14070D01*
X-555790Y-15760D01*
X-555470Y-17240D01*
X-554670Y-18730D01*
X-553700Y-19570D01*
X-552580Y-19790D01*
X-551290Y-19360D01*
X-550320Y-18300D01*
X-549360Y-16400D01*
G01X-606970Y74470D02*
Y61770D01*
G01X-610660Y74470D02*
X-603270D01*
G01X-598040D02*
X-594020Y61770D01*
X-589990Y74470D01*
G01X-583800Y63250D02*
X-582670Y62190D01*
X-581390Y61770D01*
X-580100Y62190D01*
X-578970Y63460D01*
X-578170Y65370D01*
X-577850Y67270D01*
Y69600D01*
X-578170Y71510D01*
X-578970Y73200D01*
X-579940Y74050D01*
X-581070Y74470D01*
X-582350Y74050D01*
X-583320Y73200D01*
X-583960Y71930D01*
X-584280Y70240D01*
X-583960Y68760D01*
X-583160Y67270D01*
X-582190Y66430D01*
X-581070Y66210D01*
X-579780Y66640D01*
X-578810Y67700D01*
X-577850Y69600D01*
G01X-595450Y90470D02*
X-591430Y77770D01*
X-587400Y90470D01*
G01X-582010Y77770D02*
Y90470D01*
X-578800D01*
X-577510Y89830D01*
X-576540Y88990D01*
X-575740Y87720D01*
X-575100Y86240D01*
X-574940Y84120D01*
X-575100Y82000D01*
X-575740Y80520D01*
X-576540Y79250D01*
X-577510Y78400D01*
X-578800Y77770D01*
X-582010D01*
G01X-563590D02*
Y90470D01*
X-569550Y81370D01*
X-561500D01*
G01X-550640Y77770D02*
Y90470D01*
X-556600Y81370D01*
X-548550D01*
G01X-606970Y174470D02*
Y161770D01*
G01X-610660Y174470D02*
X-603270D01*
G01X-598040D02*
X-594020Y161770D01*
X-589990Y174470D01*
G01X-581070Y161770D02*
X-579940Y161980D01*
X-578650Y162620D01*
X-577850Y163670D01*
X-577530Y165160D01*
X-577850Y166640D01*
X-578810Y167910D01*
X-580260Y168540D01*
X-581870D01*
X-582830Y168970D01*
X-583640Y170020D01*
X-583960Y171510D01*
X-583480Y172990D01*
X-582350Y174050D01*
X-581070Y174470D01*
X-579780Y174050D01*
X-578650Y172990D01*
X-578170Y171510D01*
X-578490Y170020D01*
X-579300Y168970D01*
X-580260Y168540D01*
X-581870D01*
X-583320Y167910D01*
X-584280Y166640D01*
X-584600Y165160D01*
X-584280Y163670D01*
X-583480Y162620D01*
X-582190Y161980D01*
X-581070Y161770D01*
G01X-597450Y190470D02*
X-593430Y177770D01*
X-589400Y190470D01*
G01X-584010Y177770D02*
Y190470D01*
X-580800D01*
X-579510Y189830D01*
X-578540Y188990D01*
X-577740Y187720D01*
X-577100Y186240D01*
X-576940Y184120D01*
X-577100Y182000D01*
X-577740Y180520D01*
X-578540Y179250D01*
X-579510Y178400D01*
X-580800Y177770D01*
X-584010D01*
G01X-571060Y180310D02*
X-570100Y178830D01*
X-568810Y177980D01*
X-567360Y177770D01*
X-566080Y177980D01*
X-564790Y179040D01*
X-563990Y180310D01*
X-563830Y181580D01*
X-564150Y183060D01*
X-565270Y184120D01*
X-566400Y184540D01*
X-567850D01*
G01X-566400D02*
X-565430Y185180D01*
X-564630Y186240D01*
X-564310Y187510D01*
X-564630Y188780D01*
X-565430Y189830D01*
X-566880Y190470D01*
X-568330Y190260D01*
X-569780Y189410D01*
G01X-557310Y179250D02*
X-556180Y178190D01*
X-554900Y177770D01*
X-553610Y178190D01*
X-552480Y179460D01*
X-551680Y181370D01*
X-551360Y183270D01*
Y185600D01*
X-551680Y187510D01*
X-552480Y189200D01*
X-553450Y190050D01*
X-554580Y190470D01*
X-555860Y190050D01*
X-556830Y189200D01*
X-557470Y187930D01*
X-557790Y186240D01*
X-557470Y184760D01*
X-556670Y183270D01*
X-555700Y182430D01*
X-554580Y182210D01*
X-553290Y182640D01*
X-552320Y183700D01*
X-551360Y185600D01*
G01X-606970Y276470D02*
Y263770D01*
G01X-610660Y276470D02*
X-603270D01*
G01X-598040D02*
X-594020Y263770D01*
X-589990Y276470D01*
G01X-581390Y263770D02*
X-581070Y266520D01*
X-580580Y268850D01*
X-579940Y270970D01*
X-579130Y273290D01*
X-577850Y276470D01*
X-584280D01*
G01X-597450Y292470D02*
X-593430Y279770D01*
X-589400Y292470D01*
G01X-584010Y279770D02*
Y292470D01*
X-580800D01*
X-579510Y291830D01*
X-578540Y290990D01*
X-577740Y289720D01*
X-577100Y288240D01*
X-576940Y286120D01*
X-577100Y284000D01*
X-577740Y282520D01*
X-578540Y281250D01*
X-579510Y280400D01*
X-580800Y279770D01*
X-584010D01*
G01X-571060Y282310D02*
X-570100Y280830D01*
X-568810Y279980D01*
X-567360Y279770D01*
X-566080Y279980D01*
X-564790Y281040D01*
X-563990Y282310D01*
X-563830Y283580D01*
X-564150Y285060D01*
X-565270Y286120D01*
X-566400Y286540D01*
X-567850D01*
G01X-566400D02*
X-565430Y287180D01*
X-564630Y288240D01*
X-564310Y289510D01*
X-564630Y290780D01*
X-565430Y291830D01*
X-566880Y292470D01*
X-568330Y292260D01*
X-569780Y291410D01*
G01X-552640Y279770D02*
Y292470D01*
X-558600Y283370D01*
X-550550D01*
G01X-606970Y378470D02*
Y365770D01*
G01X-610660Y378470D02*
X-603270D01*
G01X-598040D02*
X-594020Y365770D01*
X-589990Y378470D01*
G01X-584120Y371060D02*
X-583000Y372540D01*
X-582030Y373390D01*
X-580740Y373810D01*
X-579620Y373390D01*
X-578810Y372540D01*
X-578170Y371270D01*
X-578010Y369790D01*
X-578170Y368520D01*
X-578810Y367250D01*
X-579780Y366190D01*
X-580900Y365770D01*
X-582190Y366190D01*
X-583320Y367460D01*
X-583960Y369370D01*
X-584120Y371480D01*
X-583800Y374240D01*
X-583320Y375720D01*
X-582510Y377200D01*
X-581390Y378260D01*
X-580260Y378470D01*
X-579130Y378050D01*
X-578330Y376990D01*
G01X-595450Y394470D02*
X-591430Y381770D01*
X-587400Y394470D01*
G01X-582010Y381770D02*
Y394470D01*
X-578800D01*
X-577510Y393830D01*
X-576540Y392990D01*
X-575740Y391720D01*
X-575100Y390240D01*
X-574940Y388120D01*
X-575100Y386000D01*
X-575740Y384520D01*
X-576540Y383250D01*
X-577510Y382400D01*
X-578800Y381770D01*
X-582010D01*
G01X-568580Y392350D02*
X-567620Y393620D01*
X-566490Y394260D01*
X-565200Y394470D01*
X-563590Y394050D01*
X-562470Y392990D01*
X-562150Y391720D01*
X-562310Y390450D01*
X-562950Y389390D01*
X-566170Y387270D01*
X-567620Y385790D01*
X-568580Y383670D01*
X-568900Y381770D01*
X-562150D01*
G01X-555310Y383250D02*
X-554180Y382190D01*
X-552900Y381770D01*
X-551610Y382190D01*
X-550480Y383460D01*
X-549680Y385370D01*
X-549360Y387270D01*
Y389600D01*
X-549680Y391510D01*
X-550480Y393200D01*
X-551450Y394050D01*
X-552580Y394470D01*
X-553860Y394050D01*
X-554830Y393200D01*
X-555470Y391930D01*
X-555790Y390240D01*
X-555470Y388760D01*
X-554670Y387270D01*
X-553700Y386430D01*
X-552580Y386210D01*
X-551290Y386640D01*
X-550320Y387700D01*
X-549360Y389600D01*
G01X-606970Y480470D02*
Y467770D01*
G01X-610660Y480470D02*
X-603270D01*
G01X-598040D02*
X-594020Y467770D01*
X-589990Y480470D01*
G01X-584600Y469670D02*
X-583640Y468620D01*
X-582510Y467980D01*
X-581070Y467770D01*
X-579620Y468190D01*
X-578490Y469040D01*
X-577690Y470520D01*
X-577530Y472210D01*
X-577850Y473910D01*
X-578650Y474970D01*
X-579780Y475810D01*
X-580900Y476020D01*
X-582030Y475810D01*
X-583480Y474970D01*
X-583000Y480470D01*
X-578650D01*
G01X-595450Y496470D02*
X-591430Y483770D01*
X-587400Y496470D01*
G01X-582010Y483770D02*
Y496470D01*
X-578800D01*
X-577510Y495830D01*
X-576540Y494990D01*
X-575740Y493720D01*
X-575100Y492240D01*
X-574940Y490120D01*
X-575100Y488000D01*
X-575740Y486520D01*
X-576540Y485250D01*
X-577510Y484400D01*
X-578800Y483770D01*
X-582010D01*
G01X-568580Y494350D02*
X-567620Y495620D01*
X-566490Y496260D01*
X-565200Y496470D01*
X-563590Y496050D01*
X-562470Y494990D01*
X-562150Y493720D01*
X-562310Y492450D01*
X-562950Y491390D01*
X-566170Y489270D01*
X-567620Y487790D01*
X-568580Y485670D01*
X-568900Y483770D01*
X-562150D01*
G01X-550640D02*
Y496470D01*
X-556600Y487370D01*
X-548550D01*
G01X-606970Y582470D02*
Y569770D01*
G01X-610660Y582470D02*
X-603270D01*
G01X-598040D02*
X-594020Y569770D01*
X-589990Y582470D01*
G01X-579130Y569770D02*
Y582470D01*
X-585090Y573370D01*
X-577040D01*
G01X-593450Y598470D02*
X-589430Y585770D01*
X-585400Y598470D01*
G01X-580010Y585770D02*
Y598470D01*
X-576800D01*
X-575510Y597830D01*
X-574540Y596990D01*
X-573740Y595720D01*
X-573100Y594240D01*
X-572940Y592120D01*
X-573100Y590000D01*
X-573740Y588520D01*
X-574540Y587250D01*
X-575510Y586400D01*
X-576800Y585770D01*
X-580010D01*
G01X-563530D02*
Y598470D01*
X-565460Y595930D01*
G01Y585770D02*
X-561600D01*
G01X-553310Y587250D02*
X-552180Y586190D01*
X-550900Y585770D01*
X-549610Y586190D01*
X-548480Y587460D01*
X-547680Y589370D01*
X-547360Y591270D01*
Y593600D01*
X-547680Y595510D01*
X-548480Y597200D01*
X-549450Y598050D01*
X-550580Y598470D01*
X-551860Y598050D01*
X-552830Y597200D01*
X-553470Y595930D01*
X-553790Y594240D01*
X-553470Y592760D01*
X-552670Y591270D01*
X-551700Y590430D01*
X-550580Y590210D01*
X-549290Y590640D01*
X-548320Y591700D01*
X-547360Y593600D01*
G01X-606970Y682470D02*
Y669770D01*
G01X-610660Y682470D02*
X-603270D01*
G01X-598040D02*
X-594020Y669770D01*
X-589990Y682470D01*
G01X-584600Y672310D02*
X-583640Y670830D01*
X-582350Y669980D01*
X-580900Y669770D01*
X-579620Y669980D01*
X-578330Y671040D01*
X-577530Y672310D01*
X-577370Y673580D01*
X-577690Y675060D01*
X-578810Y676120D01*
X-579940Y676540D01*
X-581390D01*
G01X-579940D02*
X-578970Y677180D01*
X-578170Y678240D01*
X-577850Y679510D01*
X-578170Y680780D01*
X-578970Y681830D01*
X-580420Y682470D01*
X-581870Y682260D01*
X-583320Y681410D01*
G01X-582990Y698470D02*
X-578970Y685770D01*
X-574940Y698470D01*
G01X-569550Y685770D02*
Y698470D01*
X-566340D01*
X-565050Y697830D01*
X-564080Y696990D01*
X-563280Y695720D01*
X-562640Y694240D01*
X-562480Y692120D01*
X-562640Y690000D01*
X-563280Y688520D01*
X-564080Y687250D01*
X-565050Y686400D01*
X-566340Y685770D01*
X-569550D01*
G01X-555800Y687250D02*
X-554670Y686190D01*
X-553390Y685770D01*
X-552100Y686190D01*
X-550970Y687460D01*
X-550170Y689370D01*
X-549850Y691270D01*
Y693600D01*
X-550170Y695510D01*
X-550970Y697200D01*
X-551940Y698050D01*
X-553070Y698470D01*
X-554350Y698050D01*
X-555320Y697200D01*
X-555960Y695930D01*
X-556280Y694240D01*
X-555960Y692760D01*
X-555160Y691270D01*
X-554190Y690430D01*
X-553070Y690210D01*
X-551780Y690640D01*
X-550810Y691700D01*
X-549850Y693600D01*
G01X-606970Y786470D02*
Y773770D01*
G01X-610660Y786470D02*
X-603270D01*
G01X-598040D02*
X-594020Y773770D01*
X-589990Y786470D01*
G01X-581070Y773770D02*
Y786470D01*
X-583000Y783930D01*
G01Y773770D02*
X-579140D01*
G01X-514640Y-972230D02*
Y-959530D01*
X-510620D01*
X-509330Y-960170D01*
X-508530Y-961010D01*
X-508210Y-962710D01*
X-508530Y-964400D01*
X-509490Y-965460D01*
X-510620Y-966090D01*
X-514640D01*
G01X-510620D02*
X-508210Y-972230D01*
G01X-498480D02*
Y-959530D01*
X-500410Y-962070D01*
G01Y-972230D02*
X-496550D01*
G01X-485530Y-959530D02*
X-486810Y-959950D01*
X-487780Y-961010D01*
X-488420Y-962280D01*
X-488900Y-963980D01*
X-489060Y-965880D01*
X-488900Y-967790D01*
X-488420Y-969480D01*
X-487780Y-970750D01*
X-486810Y-971810D01*
X-485530Y-972230D01*
X-484240Y-971810D01*
X-483270Y-970750D01*
X-482630Y-969480D01*
X-482150Y-967790D01*
X-481990Y-965880D01*
X-482150Y-963980D01*
X-482630Y-962280D01*
X-483270Y-961010D01*
X-484240Y-959950D01*
X-485530Y-959530D01*
G01X-472580D02*
X-473860Y-959950D01*
X-474830Y-961010D01*
X-475470Y-962280D01*
X-475950Y-963980D01*
X-476110Y-965880D01*
X-475950Y-967790D01*
X-475470Y-969480D01*
X-474830Y-970750D01*
X-473860Y-971810D01*
X-472580Y-972230D01*
X-471290Y-971810D01*
X-470320Y-970750D01*
X-469680Y-969480D01*
X-469200Y-967790D01*
X-469040Y-965880D01*
X-469200Y-963980D01*
X-469680Y-962280D01*
X-470320Y-961010D01*
X-471290Y-959950D01*
X-472580Y-959530D01*
G01X-510170Y-770230D02*
Y-757530D01*
X-506150D01*
X-504860Y-758170D01*
X-504060Y-759010D01*
X-503740Y-760710D01*
X-504060Y-762400D01*
X-505020Y-763460D01*
X-506150Y-764090D01*
X-510170D01*
G01X-506150D02*
X-503740Y-770230D01*
G01X-494010D02*
X-492880Y-770020D01*
X-491590Y-769380D01*
X-490790Y-768330D01*
X-490470Y-766840D01*
X-490790Y-765360D01*
X-491750Y-764090D01*
X-493200Y-763460D01*
X-494810D01*
X-495770Y-763030D01*
X-496580Y-761980D01*
X-496900Y-760490D01*
X-496420Y-759010D01*
X-495290Y-757950D01*
X-494010Y-757530D01*
X-492720Y-757950D01*
X-491590Y-759010D01*
X-491110Y-760490D01*
X-491430Y-761980D01*
X-492240Y-763030D01*
X-493200Y-763460D01*
X-494810D01*
X-496260Y-764090D01*
X-497220Y-765360D01*
X-497540Y-766840D01*
X-497220Y-768330D01*
X-496420Y-769380D01*
X-495130Y-770020D01*
X-494010Y-770230D01*
G01X-481060D02*
X-479930Y-770020D01*
X-478640Y-769380D01*
X-477840Y-768330D01*
X-477520Y-766840D01*
X-477840Y-765360D01*
X-478800Y-764090D01*
X-480250Y-763460D01*
X-481860D01*
X-482820Y-763030D01*
X-483630Y-761980D01*
X-483950Y-760490D01*
X-483470Y-759010D01*
X-482340Y-757950D01*
X-481060Y-757530D01*
X-479770Y-757950D01*
X-478640Y-759010D01*
X-478160Y-760490D01*
X-478480Y-761980D01*
X-479290Y-763030D01*
X-480250Y-763460D01*
X-481860D01*
X-483310Y-764090D01*
X-484270Y-765360D01*
X-484590Y-766840D01*
X-484270Y-768330D01*
X-483470Y-769380D01*
X-482180Y-770020D01*
X-481060Y-770230D01*
G01X-502170Y-566230D02*
Y-553530D01*
X-498150D01*
X-496860Y-554170D01*
X-496060Y-555010D01*
X-495740Y-556710D01*
X-496060Y-558400D01*
X-497020Y-559460D01*
X-498150Y-560090D01*
X-502170D01*
G01X-498150D02*
X-495740Y-566230D01*
G01X-486330D02*
X-486010Y-563480D01*
X-485520Y-561150D01*
X-484880Y-559030D01*
X-484070Y-556710D01*
X-482790Y-553530D01*
X-489220D01*
G01X-476110Y-560940D02*
X-474990Y-559460D01*
X-474020Y-558610D01*
X-472730Y-558190D01*
X-471610Y-558610D01*
X-470800Y-559460D01*
X-470160Y-560730D01*
X-470000Y-562210D01*
X-470160Y-563480D01*
X-470800Y-564750D01*
X-471770Y-565810D01*
X-472890Y-566230D01*
X-474180Y-565810D01*
X-475310Y-564540D01*
X-475950Y-562630D01*
X-476110Y-560520D01*
X-475790Y-557760D01*
X-475310Y-556280D01*
X-474500Y-554800D01*
X-473380Y-553740D01*
X-472250Y-553530D01*
X-471120Y-553950D01*
X-470320Y-555010D01*
G01X-508170Y-364230D02*
Y-351530D01*
X-504150D01*
X-502860Y-352170D01*
X-502060Y-353010D01*
X-501740Y-354710D01*
X-502060Y-356400D01*
X-503020Y-357460D01*
X-504150Y-358090D01*
X-508170D01*
G01X-504150D02*
X-501740Y-364230D01*
G01X-495060Y-358940D02*
X-493940Y-357460D01*
X-492970Y-356610D01*
X-491680Y-356190D01*
X-490560Y-356610D01*
X-489750Y-357460D01*
X-489110Y-358730D01*
X-488950Y-360210D01*
X-489110Y-361480D01*
X-489750Y-362750D01*
X-490720Y-363810D01*
X-491840Y-364230D01*
X-493130Y-363810D01*
X-494260Y-362540D01*
X-494900Y-360630D01*
X-495060Y-358520D01*
X-494740Y-355760D01*
X-494260Y-354280D01*
X-493450Y-352800D01*
X-492330Y-351740D01*
X-491200Y-351530D01*
X-490070Y-351950D01*
X-489270Y-353010D01*
G01X-477120Y-364230D02*
Y-351530D01*
X-483080Y-360630D01*
X-475030D01*
G01X-510160Y99770D02*
Y112470D01*
X-506140D01*
X-504850Y111830D01*
X-504050Y110990D01*
X-503730Y109290D01*
X-504050Y107600D01*
X-505010Y106540D01*
X-506140Y105910D01*
X-510160D01*
G01X-506140D02*
X-503730Y99770D01*
G01X-497530Y101670D02*
X-496570Y100620D01*
X-495440Y99980D01*
X-494000Y99770D01*
X-492550Y100190D01*
X-491420Y101040D01*
X-490620Y102520D01*
X-490460Y104210D01*
X-490780Y105910D01*
X-491580Y106970D01*
X-492710Y107810D01*
X-493830Y108020D01*
X-494960Y107810D01*
X-496410Y106970D01*
X-495930Y112470D01*
X-491580D01*
G01X-481050Y99770D02*
X-479920Y99980D01*
X-478630Y100620D01*
X-477830Y101670D01*
X-477510Y103160D01*
X-477830Y104640D01*
X-478790Y105910D01*
X-480240Y106540D01*
X-481850D01*
X-482810Y106970D01*
X-483620Y108020D01*
X-483940Y109510D01*
X-483460Y110990D01*
X-482330Y112050D01*
X-481050Y112470D01*
X-479760Y112050D01*
X-478630Y110990D01*
X-478150Y109510D01*
X-478470Y108020D01*
X-479280Y106970D01*
X-480240Y106540D01*
X-481850D01*
X-483300Y105910D01*
X-484260Y104640D01*
X-484580Y103160D01*
X-484260Y101670D01*
X-483460Y100620D01*
X-482170Y99980D01*
X-481050Y99770D01*
G01X-512160Y301770D02*
Y314470D01*
X-508140D01*
X-506850Y313830D01*
X-506050Y312990D01*
X-505730Y311290D01*
X-506050Y309600D01*
X-507010Y308540D01*
X-508140Y307910D01*
X-512160D01*
G01X-508140D02*
X-505730Y301770D01*
G01X-494060D02*
Y314470D01*
X-500020Y305370D01*
X-491970D01*
G01X-486100Y307060D02*
X-484980Y308540D01*
X-484010Y309390D01*
X-482720Y309810D01*
X-481600Y309390D01*
X-480790Y308540D01*
X-480150Y307270D01*
X-479990Y305790D01*
X-480150Y304520D01*
X-480790Y303250D01*
X-481760Y302190D01*
X-482880Y301770D01*
X-484170Y302190D01*
X-485300Y303460D01*
X-485940Y305370D01*
X-486100Y307480D01*
X-485780Y310240D01*
X-485300Y311720D01*
X-484490Y313200D01*
X-483370Y314260D01*
X-482240Y314470D01*
X-481110Y314050D01*
X-480310Y312990D01*
G01X-512160Y505770D02*
Y518470D01*
X-508140D01*
X-506850Y517830D01*
X-506050Y516990D01*
X-505730Y515290D01*
X-506050Y513600D01*
X-507010Y512540D01*
X-508140Y511910D01*
X-512160D01*
G01X-508140D02*
X-505730Y505770D01*
G01X-499530Y508310D02*
X-498570Y506830D01*
X-497280Y505980D01*
X-495830Y505770D01*
X-494550Y505980D01*
X-493260Y507040D01*
X-492460Y508310D01*
X-492300Y509580D01*
X-492620Y511060D01*
X-493740Y512120D01*
X-494870Y512540D01*
X-496320D01*
G01X-494870D02*
X-493900Y513180D01*
X-493100Y514240D01*
X-492780Y515510D01*
X-493100Y516780D01*
X-493900Y517830D01*
X-495350Y518470D01*
X-496800Y518260D01*
X-498250Y517410D01*
G01X-481110Y505770D02*
Y518470D01*
X-487070Y509370D01*
X-479020D01*
G01X-511160Y710770D02*
Y723470D01*
X-507140D01*
X-505850Y722830D01*
X-505050Y721990D01*
X-504730Y720290D01*
X-505050Y718600D01*
X-506010Y717540D01*
X-507140Y716910D01*
X-511160D01*
G01X-507140D02*
X-504730Y710770D01*
G01X-498050Y721350D02*
X-497090Y722620D01*
X-495960Y723260D01*
X-494670Y723470D01*
X-493060Y723050D01*
X-491940Y721990D01*
X-491620Y720720D01*
X-491780Y719450D01*
X-492420Y718390D01*
X-495640Y716270D01*
X-497090Y714790D01*
X-498050Y712670D01*
X-498370Y710770D01*
X-491620D01*
G01X-485100Y721350D02*
X-484140Y722620D01*
X-483010Y723260D01*
X-481720Y723470D01*
X-480110Y723050D01*
X-478990Y721990D01*
X-478670Y720720D01*
X-478830Y719450D01*
X-479470Y718390D01*
X-482690Y716270D01*
X-484140Y714790D01*
X-485100Y712670D01*
X-485420Y710770D01*
X-478670D01*
G01X-536260Y914920D02*
X-535460Y913650D01*
X-534490Y912800D01*
X-533370Y912380D01*
X-532080Y912800D01*
X-531110Y913650D01*
X-530150Y914920D01*
X-529830Y916610D01*
Y925080D01*
G01X-522830Y920850D02*
Y914920D01*
X-522190Y913440D01*
X-521220Y912590D01*
X-520100Y912380D01*
X-518970Y912590D01*
X-518000Y913440D01*
X-517360Y914920D01*
G01Y912380D02*
Y920850D01*
G01X-507150Y912380D02*
Y925080D01*
G01X-497570Y908570D02*
X-496610Y908150D01*
X-495320Y908570D01*
X-494520Y909420D01*
X-493870Y910480D01*
X-492910Y913860D01*
X-490820Y920850D01*
G01X-495960D02*
X-492910Y913860D01*
G01X-471350Y922960D02*
X-470390Y924230D01*
X-469260Y924870D01*
X-467970Y925080D01*
X-466360Y924660D01*
X-465240Y923600D01*
X-464920Y922330D01*
X-465080Y921060D01*
X-465720Y920000D01*
X-468940Y917880D01*
X-470390Y916400D01*
X-471350Y914280D01*
X-471670Y912380D01*
X-464920D01*
G01X-455350Y925080D02*
X-456630Y924660D01*
X-457600Y923600D01*
X-458240Y922330D01*
X-458720Y920630D01*
X-458880Y918730D01*
X-458720Y916820D01*
X-458240Y915130D01*
X-457600Y913860D01*
X-456630Y912800D01*
X-455350Y912380D01*
X-454060Y912800D01*
X-453090Y913860D01*
X-452450Y915130D01*
X-451970Y916820D01*
X-451810Y918730D01*
X-451970Y920630D01*
X-452450Y922330D01*
X-453090Y923600D01*
X-454060Y924660D01*
X-455350Y925080D01*
G01X-442400Y912380D02*
Y925080D01*
X-444330Y922540D01*
G01Y912380D02*
X-440470D01*
G01X-432980Y914920D02*
X-432020Y913440D01*
X-430730Y912590D01*
X-429280Y912380D01*
X-428000Y912590D01*
X-426710Y913650D01*
X-425910Y914920D01*
X-425750Y916190D01*
X-426070Y917670D01*
X-427190Y918730D01*
X-428320Y919150D01*
X-429770D01*
G01X-428320D02*
X-427350Y919790D01*
X-426550Y920850D01*
X-426230Y922120D01*
X-426550Y923390D01*
X-427350Y924440D01*
X-428800Y925080D01*
X-430250Y924870D01*
X-431700Y924020D01*
G01X-533160Y934940D02*
Y947640D01*
G01X-527050D02*
X-533160Y939810D01*
G01X-526090Y934940D02*
X-530430Y943410D01*
G01X-519890Y934940D02*
Y947640D01*
X-516030D01*
X-514740Y947000D01*
X-513780Y945520D01*
X-513460Y943830D01*
X-513780Y942140D01*
X-514580Y940870D01*
X-516030Y940230D01*
X-519890D01*
G01X-506940Y934940D02*
Y947640D01*
X-502920D01*
X-501630Y947000D01*
X-500830Y946160D01*
X-500510Y944460D01*
X-500830Y942770D01*
X-501790Y941710D01*
X-502920Y941080D01*
X-506940D01*
G01X-502920D02*
X-500510Y934940D01*
G01X-494310D02*
Y947640D01*
X-491100D01*
X-489810Y947000D01*
X-488840Y946160D01*
X-488040Y944890D01*
X-487400Y943410D01*
X-487240Y941290D01*
X-487400Y939170D01*
X-488040Y937690D01*
X-488840Y936420D01*
X-489810Y935570D01*
X-491100Y934940D01*
X-494310D01*
G01X-482650Y930710D02*
X-473000D01*
G01X-464880Y947640D02*
X-466160Y947220D01*
X-467130Y946160D01*
X-467770Y944890D01*
X-468250Y943190D01*
X-468410Y941290D01*
X-468250Y939380D01*
X-467770Y937690D01*
X-467130Y936420D01*
X-466160Y935360D01*
X-464880Y934940D01*
X-463590Y935360D01*
X-462620Y936420D01*
X-461980Y937690D01*
X-461500Y939380D01*
X-461340Y941290D01*
X-461500Y943190D01*
X-461980Y944890D01*
X-462620Y946160D01*
X-463590Y947220D01*
X-464880Y947640D01*
G01X-455460Y937480D02*
X-454500Y936000D01*
X-453210Y935150D01*
X-451760Y934940D01*
X-450480Y935150D01*
X-449190Y936210D01*
X-448390Y937480D01*
X-448230Y938750D01*
X-448550Y940230D01*
X-449670Y941290D01*
X-450800Y941710D01*
X-452250D01*
G01X-450800D02*
X-449830Y942350D01*
X-449030Y943410D01*
X-448710Y944680D01*
X-449030Y945950D01*
X-449830Y947000D01*
X-451280Y947640D01*
X-452730Y947430D01*
X-454180Y946580D01*
G01X-441870Y943410D02*
X-438980Y934940D01*
X-436080Y943410D01*
G01X-426030Y934940D02*
Y947640D01*
X-427960Y945100D01*
G01Y934940D02*
X-424100D01*
G01X-384170Y-872230D02*
Y-859530D01*
X-380150D01*
X-378860Y-860170D01*
X-378060Y-861010D01*
X-377740Y-862710D01*
X-378060Y-864400D01*
X-379020Y-865460D01*
X-380150Y-866090D01*
X-384170D01*
G01X-380150D02*
X-377740Y-872230D01*
G01X-370740Y-870750D02*
X-369610Y-871810D01*
X-368330Y-872230D01*
X-367040Y-871810D01*
X-365910Y-870540D01*
X-365110Y-868630D01*
X-364790Y-866730D01*
Y-864400D01*
X-365110Y-862490D01*
X-365910Y-860800D01*
X-366880Y-859950D01*
X-368010Y-859530D01*
X-369290Y-859950D01*
X-370260Y-860800D01*
X-370900Y-862070D01*
X-371220Y-863760D01*
X-370900Y-865240D01*
X-370100Y-866730D01*
X-369130Y-867570D01*
X-368010Y-867790D01*
X-366720Y-867360D01*
X-365750Y-866300D01*
X-364790Y-864400D01*
G01X-353120Y-872230D02*
Y-859530D01*
X-359080Y-868630D01*
X-351030D01*
G01X-380170Y-668230D02*
Y-655530D01*
X-376150D01*
X-374860Y-656170D01*
X-374060Y-657010D01*
X-373740Y-658710D01*
X-374060Y-660400D01*
X-375020Y-661460D01*
X-376150Y-662090D01*
X-380170D01*
G01X-376150D02*
X-373740Y-668230D01*
G01X-364010D02*
X-362880Y-668020D01*
X-361590Y-667380D01*
X-360790Y-666330D01*
X-360470Y-664840D01*
X-360790Y-663360D01*
X-361750Y-662090D01*
X-363200Y-661460D01*
X-364810D01*
X-365770Y-661030D01*
X-366580Y-659980D01*
X-366900Y-658490D01*
X-366420Y-657010D01*
X-365290Y-655950D01*
X-364010Y-655530D01*
X-362720Y-655950D01*
X-361590Y-657010D01*
X-361110Y-658490D01*
X-361430Y-659980D01*
X-362240Y-661030D01*
X-363200Y-661460D01*
X-364810D01*
X-366260Y-662090D01*
X-367220Y-663360D01*
X-367540Y-664840D01*
X-367220Y-666330D01*
X-366420Y-667380D01*
X-365130Y-668020D01*
X-364010Y-668230D01*
G01X-354110Y-657650D02*
X-353150Y-656380D01*
X-352020Y-655740D01*
X-350730Y-655530D01*
X-349120Y-655950D01*
X-348000Y-657010D01*
X-347680Y-658280D01*
X-347840Y-659550D01*
X-348480Y-660610D01*
X-351700Y-662730D01*
X-353150Y-664210D01*
X-354110Y-666330D01*
X-354430Y-668230D01*
X-347680D01*
G01X-380170Y-466230D02*
Y-453530D01*
X-376150D01*
X-374860Y-454170D01*
X-374060Y-455010D01*
X-373740Y-456710D01*
X-374060Y-458400D01*
X-375020Y-459460D01*
X-376150Y-460090D01*
X-380170D01*
G01X-376150D02*
X-373740Y-466230D01*
G01X-364330D02*
X-364010Y-463480D01*
X-363520Y-461150D01*
X-362880Y-459030D01*
X-362070Y-456710D01*
X-360790Y-453530D01*
X-367220D01*
G01X-351060D02*
X-352340Y-453950D01*
X-353310Y-455010D01*
X-353950Y-456280D01*
X-354430Y-457980D01*
X-354590Y-459880D01*
X-354430Y-461790D01*
X-353950Y-463480D01*
X-353310Y-464750D01*
X-352340Y-465810D01*
X-351060Y-466230D01*
X-349770Y-465810D01*
X-348800Y-464750D01*
X-348160Y-463480D01*
X-347680Y-461790D01*
X-347520Y-459880D01*
X-347680Y-457980D01*
X-348160Y-456280D01*
X-348800Y-455010D01*
X-349770Y-453950D01*
X-351060Y-453530D01*
G01X-382170Y-262230D02*
Y-249530D01*
X-378150D01*
X-376860Y-250170D01*
X-376060Y-251010D01*
X-375740Y-252710D01*
X-376060Y-254400D01*
X-377020Y-255460D01*
X-378150Y-256090D01*
X-382170D01*
G01X-378150D02*
X-375740Y-262230D01*
G01X-366010D02*
Y-249530D01*
X-367940Y-252070D01*
G01Y-262230D02*
X-364080D01*
G01X-356110Y-256940D02*
X-354990Y-255460D01*
X-354020Y-254610D01*
X-352730Y-254190D01*
X-351610Y-254610D01*
X-350800Y-255460D01*
X-350160Y-256730D01*
X-350000Y-258210D01*
X-350160Y-259480D01*
X-350800Y-260750D01*
X-351770Y-261810D01*
X-352890Y-262230D01*
X-354180Y-261810D01*
X-355310Y-260540D01*
X-355950Y-258630D01*
X-356110Y-256520D01*
X-355790Y-253760D01*
X-355310Y-252280D01*
X-354500Y-250800D01*
X-353380Y-249740D01*
X-352250Y-249530D01*
X-351120Y-249950D01*
X-350320Y-251010D01*
G01X-386160Y201770D02*
Y214470D01*
X-382140D01*
X-380850Y213830D01*
X-380050Y212990D01*
X-379730Y211290D01*
X-380050Y209600D01*
X-381010Y208540D01*
X-382140Y207910D01*
X-386160D01*
G01X-382140D02*
X-379730Y201770D01*
G01X-373530Y203670D02*
X-372570Y202620D01*
X-371440Y201980D01*
X-370000Y201770D01*
X-368550Y202190D01*
X-367420Y203040D01*
X-366620Y204520D01*
X-366460Y206210D01*
X-366780Y207910D01*
X-367580Y208970D01*
X-368710Y209810D01*
X-369830Y210020D01*
X-370960Y209810D01*
X-372410Y208970D01*
X-371930Y214470D01*
X-367580D01*
G01X-360100Y212350D02*
X-359140Y213620D01*
X-358010Y214260D01*
X-356720Y214470D01*
X-355110Y214050D01*
X-353990Y212990D01*
X-353670Y211720D01*
X-353830Y210450D01*
X-354470Y209390D01*
X-357690Y207270D01*
X-359140Y205790D01*
X-360100Y203670D01*
X-360420Y201770D01*
X-353670D01*
G01X-384160Y403770D02*
Y416470D01*
X-380140D01*
X-378850Y415830D01*
X-378050Y414990D01*
X-377730Y413290D01*
X-378050Y411600D01*
X-379010Y410540D01*
X-380140Y409910D01*
X-384160D01*
G01X-380140D02*
X-377730Y403770D01*
G01X-366060D02*
Y416470D01*
X-372020Y407370D01*
X-363970D01*
G01X-355050Y416470D02*
X-356330Y416050D01*
X-357300Y414990D01*
X-357940Y413720D01*
X-358420Y412020D01*
X-358580Y410120D01*
X-358420Y408210D01*
X-357940Y406520D01*
X-357300Y405250D01*
X-356330Y404190D01*
X-355050Y403770D01*
X-353760Y404190D01*
X-352790Y405250D01*
X-352150Y406520D01*
X-351670Y408210D01*
X-351510Y410120D01*
X-351670Y412020D01*
X-352150Y413720D01*
X-352790Y414990D01*
X-353760Y416050D01*
X-355050Y416470D01*
G01X-386160Y607770D02*
Y620470D01*
X-382140D01*
X-380850Y619830D01*
X-380050Y618990D01*
X-379730Y617290D01*
X-380050Y615600D01*
X-381010Y614540D01*
X-382140Y613910D01*
X-386160D01*
G01X-382140D02*
X-379730Y607770D01*
G01X-373050Y618350D02*
X-372090Y619620D01*
X-370960Y620260D01*
X-369670Y620470D01*
X-368060Y620050D01*
X-366940Y618990D01*
X-366620Y617720D01*
X-366780Y616450D01*
X-367420Y615390D01*
X-370640Y613270D01*
X-372090Y611790D01*
X-373050Y609670D01*
X-373370Y607770D01*
X-366620D01*
G01X-357050D02*
X-355920Y607980D01*
X-354630Y608620D01*
X-353830Y609670D01*
X-353510Y611160D01*
X-353830Y612640D01*
X-354790Y613910D01*
X-356240Y614540D01*
X-357850D01*
X-358810Y614970D01*
X-359620Y616020D01*
X-359940Y617510D01*
X-359460Y618990D01*
X-358330Y620050D01*
X-357050Y620470D01*
X-355760Y620050D01*
X-354630Y618990D01*
X-354150Y617510D01*
X-354470Y616020D01*
X-355280Y614970D01*
X-356240Y614540D01*
X-357850D01*
X-359300Y613910D01*
X-360260Y612640D01*
X-360580Y611160D01*
X-360260Y609670D01*
X-359460Y608620D01*
X-358170Y607980D01*
X-357050Y607770D01*
G01X-378170Y811770D02*
Y824470D01*
X-374150D01*
X-372860Y823830D01*
X-372060Y822990D01*
X-371740Y821290D01*
X-372060Y819600D01*
X-373020Y818540D01*
X-374150Y817910D01*
X-378170D01*
G01X-374150D02*
X-371740Y811770D01*
G01X-362010D02*
Y824470D01*
X-363940Y821930D01*
G01Y811770D02*
X-360080D01*
G01X-349060Y824470D02*
X-350340Y824050D01*
X-351310Y822990D01*
X-351950Y821720D01*
X-352430Y820020D01*
X-352590Y818120D01*
X-352430Y816210D01*
X-351950Y814520D01*
X-351310Y813250D01*
X-350340Y812190D01*
X-349060Y811770D01*
X-347770Y812190D01*
X-346800Y813250D01*
X-346160Y814520D01*
X-345680Y816210D01*
X-345520Y818120D01*
X-345680Y820020D01*
X-346160Y821720D01*
X-346800Y822990D01*
X-347770Y824050D01*
X-349060Y824470D01*
G01X-256170Y-972230D02*
Y-959530D01*
X-252150D01*
X-250860Y-960170D01*
X-250060Y-961010D01*
X-249740Y-962710D01*
X-250060Y-964400D01*
X-251020Y-965460D01*
X-252150Y-966090D01*
X-256170D01*
G01X-252150D02*
X-249740Y-972230D01*
G01X-242740Y-970750D02*
X-241610Y-971810D01*
X-240330Y-972230D01*
X-239040Y-971810D01*
X-237910Y-970540D01*
X-237110Y-968630D01*
X-236790Y-966730D01*
Y-964400D01*
X-237110Y-962490D01*
X-237910Y-960800D01*
X-238880Y-959950D01*
X-240010Y-959530D01*
X-241290Y-959950D01*
X-242260Y-960800D01*
X-242900Y-962070D01*
X-243220Y-963760D01*
X-242900Y-965240D01*
X-242100Y-966730D01*
X-241130Y-967570D01*
X-240010Y-967790D01*
X-238720Y-967360D01*
X-237750Y-966300D01*
X-236790Y-964400D01*
G01X-230590Y-970330D02*
X-229630Y-971380D01*
X-228500Y-972020D01*
X-227060Y-972230D01*
X-225610Y-971810D01*
X-224480Y-970960D01*
X-223680Y-969480D01*
X-223520Y-967790D01*
X-223840Y-966090D01*
X-224640Y-965030D01*
X-225770Y-964190D01*
X-226890Y-963980D01*
X-228020Y-964190D01*
X-229470Y-965030D01*
X-228990Y-959530D01*
X-224640D01*
G01X-254170Y-770230D02*
Y-757530D01*
X-250150D01*
X-248860Y-758170D01*
X-248060Y-759010D01*
X-247740Y-760710D01*
X-248060Y-762400D01*
X-249020Y-763460D01*
X-250150Y-764090D01*
X-254170D01*
G01X-250150D02*
X-247740Y-770230D01*
G01X-238010D02*
X-236880Y-770020D01*
X-235590Y-769380D01*
X-234790Y-768330D01*
X-234470Y-766840D01*
X-234790Y-765360D01*
X-235750Y-764090D01*
X-237200Y-763460D01*
X-238810D01*
X-239770Y-763030D01*
X-240580Y-761980D01*
X-240900Y-760490D01*
X-240420Y-759010D01*
X-239290Y-757950D01*
X-238010Y-757530D01*
X-236720Y-757950D01*
X-235590Y-759010D01*
X-235110Y-760490D01*
X-235430Y-761980D01*
X-236240Y-763030D01*
X-237200Y-763460D01*
X-238810D01*
X-240260Y-764090D01*
X-241220Y-765360D01*
X-241540Y-766840D01*
X-241220Y-768330D01*
X-240420Y-769380D01*
X-239130Y-770020D01*
X-238010Y-770230D01*
G01X-228590Y-767690D02*
X-227630Y-769170D01*
X-226340Y-770020D01*
X-224890Y-770230D01*
X-223610Y-770020D01*
X-222320Y-768960D01*
X-221520Y-767690D01*
X-221360Y-766420D01*
X-221680Y-764940D01*
X-222800Y-763880D01*
X-223930Y-763460D01*
X-225380D01*
G01X-223930D02*
X-222960Y-762820D01*
X-222160Y-761760D01*
X-221840Y-760490D01*
X-222160Y-759220D01*
X-222960Y-758170D01*
X-224410Y-757530D01*
X-225860Y-757740D01*
X-227310Y-758590D01*
G01X-252170Y-566230D02*
Y-553530D01*
X-248150D01*
X-246860Y-554170D01*
X-246060Y-555010D01*
X-245740Y-556710D01*
X-246060Y-558400D01*
X-247020Y-559460D01*
X-248150Y-560090D01*
X-252170D01*
G01X-248150D02*
X-245740Y-566230D01*
G01X-236330D02*
X-236010Y-563480D01*
X-235520Y-561150D01*
X-234880Y-559030D01*
X-234070Y-556710D01*
X-232790Y-553530D01*
X-239220D01*
G01X-223060Y-566230D02*
Y-553530D01*
X-224990Y-556070D01*
G01Y-566230D02*
X-221130D01*
G01X-256170Y-364230D02*
Y-351530D01*
X-252150D01*
X-250860Y-352170D01*
X-250060Y-353010D01*
X-249740Y-354710D01*
X-250060Y-356400D01*
X-251020Y-357460D01*
X-252150Y-358090D01*
X-256170D01*
G01X-252150D02*
X-249740Y-364230D01*
G01X-243540Y-362330D02*
X-242580Y-363380D01*
X-241450Y-364020D01*
X-240010Y-364230D01*
X-238560Y-363810D01*
X-237430Y-362960D01*
X-236630Y-361480D01*
X-236470Y-359790D01*
X-236790Y-358090D01*
X-237590Y-357030D01*
X-238720Y-356190D01*
X-239840Y-355980D01*
X-240970Y-356190D01*
X-242420Y-357030D01*
X-241940Y-351530D01*
X-237590D01*
G01X-229790Y-362750D02*
X-228660Y-363810D01*
X-227380Y-364230D01*
X-226090Y-363810D01*
X-224960Y-362540D01*
X-224160Y-360630D01*
X-223840Y-358730D01*
Y-356400D01*
X-224160Y-354490D01*
X-224960Y-352800D01*
X-225930Y-351950D01*
X-227060Y-351530D01*
X-228340Y-351950D01*
X-229310Y-352800D01*
X-229950Y-354070D01*
X-230270Y-355760D01*
X-229950Y-357240D01*
X-229150Y-358730D01*
X-228180Y-359570D01*
X-227060Y-359790D01*
X-225770Y-359360D01*
X-224800Y-358300D01*
X-223840Y-356400D01*
G01X-256160Y99770D02*
Y112470D01*
X-252140D01*
X-250850Y111830D01*
X-250050Y110990D01*
X-249730Y109290D01*
X-250050Y107600D01*
X-251010Y106540D01*
X-252140Y105910D01*
X-256160D01*
G01X-252140D02*
X-249730Y99770D01*
G01X-243530Y101670D02*
X-242570Y100620D01*
X-241440Y99980D01*
X-240000Y99770D01*
X-238550Y100190D01*
X-237420Y101040D01*
X-236620Y102520D01*
X-236460Y104210D01*
X-236780Y105910D01*
X-237580Y106970D01*
X-238710Y107810D01*
X-239830Y108020D01*
X-240960Y107810D01*
X-242410Y106970D01*
X-241930Y112470D01*
X-237580D01*
G01X-230580Y102310D02*
X-229620Y100830D01*
X-228330Y99980D01*
X-226880Y99770D01*
X-225600Y99980D01*
X-224310Y101040D01*
X-223510Y102310D01*
X-223350Y103580D01*
X-223670Y105060D01*
X-224790Y106120D01*
X-225920Y106540D01*
X-227370D01*
G01X-225920D02*
X-224950Y107180D01*
X-224150Y108240D01*
X-223830Y109510D01*
X-224150Y110780D01*
X-224950Y111830D01*
X-226400Y112470D01*
X-227850Y112260D01*
X-229300Y111410D01*
G01X-256160Y303770D02*
Y316470D01*
X-252140D01*
X-250850Y315830D01*
X-250050Y314990D01*
X-249730Y313290D01*
X-250050Y311600D01*
X-251010Y310540D01*
X-252140Y309910D01*
X-256160D01*
G01X-252140D02*
X-249730Y303770D01*
G01X-238060D02*
Y316470D01*
X-244020Y307370D01*
X-235970D01*
G01X-227050Y303770D02*
Y316470D01*
X-228980Y313930D01*
G01Y303770D02*
X-225120D01*
G01X-256160Y507770D02*
Y520470D01*
X-252140D01*
X-250850Y519830D01*
X-250050Y518990D01*
X-249730Y517290D01*
X-250050Y515600D01*
X-251010Y514540D01*
X-252140Y513910D01*
X-256160D01*
G01X-252140D02*
X-249730Y507770D01*
G01X-243050Y518350D02*
X-242090Y519620D01*
X-240960Y520260D01*
X-239670Y520470D01*
X-238060Y520050D01*
X-236940Y518990D01*
X-236620Y517720D01*
X-236780Y516450D01*
X-237420Y515390D01*
X-240640Y513270D01*
X-242090Y511790D01*
X-243050Y509670D01*
X-243370Y507770D01*
X-236620D01*
G01X-229780Y509250D02*
X-228650Y508190D01*
X-227370Y507770D01*
X-226080Y508190D01*
X-224950Y509460D01*
X-224150Y511370D01*
X-223830Y513270D01*
Y515600D01*
X-224150Y517510D01*
X-224950Y519200D01*
X-225920Y520050D01*
X-227050Y520470D01*
X-228330Y520050D01*
X-229300Y519200D01*
X-229940Y517930D01*
X-230260Y516240D01*
X-229940Y514760D01*
X-229140Y513270D01*
X-228170Y512430D01*
X-227050Y512210D01*
X-225760Y512640D01*
X-224790Y513700D01*
X-223830Y515600D01*
G01X-254160Y709770D02*
Y722470D01*
X-250140D01*
X-248850Y721830D01*
X-248050Y720990D01*
X-247730Y719290D01*
X-248050Y717600D01*
X-249010Y716540D01*
X-250140Y715910D01*
X-254160D01*
G01X-250140D02*
X-247730Y709770D01*
G01X-238000D02*
Y722470D01*
X-239930Y719930D01*
G01Y709770D02*
X-236070D01*
G01X-225370D02*
X-225050Y712520D01*
X-224560Y714850D01*
X-223920Y716970D01*
X-223110Y719290D01*
X-221830Y722470D01*
X-228260D01*
G01X-130170Y-872230D02*
Y-859530D01*
X-126150D01*
X-124860Y-860170D01*
X-124060Y-861010D01*
X-123740Y-862710D01*
X-124060Y-864400D01*
X-125020Y-865460D01*
X-126150Y-866090D01*
X-130170D01*
G01X-126150D02*
X-123740Y-872230D01*
G01X-114010D02*
X-112880Y-872020D01*
X-111590Y-871380D01*
X-110790Y-870330D01*
X-110470Y-868840D01*
X-110790Y-867360D01*
X-111750Y-866090D01*
X-113200Y-865460D01*
X-114810D01*
X-115770Y-865030D01*
X-116580Y-863980D01*
X-116900Y-862490D01*
X-116420Y-861010D01*
X-115290Y-859950D01*
X-114010Y-859530D01*
X-112720Y-859950D01*
X-111590Y-861010D01*
X-111110Y-862490D01*
X-111430Y-863980D01*
X-112240Y-865030D01*
X-113200Y-865460D01*
X-114810D01*
X-116260Y-866090D01*
X-117220Y-867360D01*
X-117540Y-868840D01*
X-117220Y-870330D01*
X-116420Y-871380D01*
X-115130Y-872020D01*
X-114010Y-872230D01*
G01X-103790Y-870750D02*
X-102660Y-871810D01*
X-101380Y-872230D01*
X-100090Y-871810D01*
X-98960Y-870540D01*
X-98160Y-868630D01*
X-97840Y-866730D01*
Y-864400D01*
X-98160Y-862490D01*
X-98960Y-860800D01*
X-99930Y-859950D01*
X-101060Y-859530D01*
X-102340Y-859950D01*
X-103310Y-860800D01*
X-103950Y-862070D01*
X-104270Y-863760D01*
X-103950Y-865240D01*
X-103150Y-866730D01*
X-102180Y-867570D01*
X-101060Y-867790D01*
X-99770Y-867360D01*
X-98800Y-866300D01*
X-97840Y-864400D01*
G01X-126170Y-668230D02*
Y-655530D01*
X-122150D01*
X-120860Y-656170D01*
X-120060Y-657010D01*
X-119740Y-658710D01*
X-120060Y-660400D01*
X-121020Y-661460D01*
X-122150Y-662090D01*
X-126170D01*
G01X-122150D02*
X-119740Y-668230D01*
G01X-110330D02*
X-110010Y-665480D01*
X-109520Y-663150D01*
X-108880Y-661030D01*
X-108070Y-658710D01*
X-106790Y-655530D01*
X-113220D01*
G01X-97380Y-668230D02*
X-97060Y-665480D01*
X-96570Y-663150D01*
X-95930Y-661030D01*
X-95120Y-658710D01*
X-93840Y-655530D01*
X-100270D01*
G01X-128170Y-466230D02*
Y-453530D01*
X-124150D01*
X-122860Y-454170D01*
X-122060Y-455010D01*
X-121740Y-456710D01*
X-122060Y-458400D01*
X-123020Y-459460D01*
X-124150Y-460090D01*
X-128170D01*
G01X-124150D02*
X-121740Y-466230D01*
G01X-115060Y-460940D02*
X-113940Y-459460D01*
X-112970Y-458610D01*
X-111680Y-458190D01*
X-110560Y-458610D01*
X-109750Y-459460D01*
X-109110Y-460730D01*
X-108950Y-462210D01*
X-109110Y-463480D01*
X-109750Y-464750D01*
X-110720Y-465810D01*
X-111840Y-466230D01*
X-113130Y-465810D01*
X-114260Y-464540D01*
X-114900Y-462630D01*
X-115060Y-460520D01*
X-114740Y-457760D01*
X-114260Y-456280D01*
X-113450Y-454800D01*
X-112330Y-453740D01*
X-111200Y-453530D01*
X-110070Y-453950D01*
X-109270Y-455010D01*
G01X-102590Y-464330D02*
X-101630Y-465380D01*
X-100500Y-466020D01*
X-99060Y-466230D01*
X-97610Y-465810D01*
X-96480Y-464960D01*
X-95680Y-463480D01*
X-95520Y-461790D01*
X-95840Y-460090D01*
X-96640Y-459030D01*
X-97770Y-458190D01*
X-98890Y-457980D01*
X-100020Y-458190D01*
X-101470Y-459030D01*
X-100990Y-453530D01*
X-96640D01*
G01X-126170Y-262230D02*
Y-249530D01*
X-122150D01*
X-120860Y-250170D01*
X-120060Y-251010D01*
X-119740Y-252710D01*
X-120060Y-254400D01*
X-121020Y-255460D01*
X-122150Y-256090D01*
X-126170D01*
G01X-122150D02*
X-119740Y-262230D01*
G01X-110010D02*
Y-249530D01*
X-111940Y-252070D01*
G01Y-262230D02*
X-108080D01*
G01X-97060D02*
Y-249530D01*
X-98990Y-252070D01*
G01Y-262230D02*
X-95130D01*
G01X-126160Y201770D02*
Y214470D01*
X-122140D01*
X-120850Y213830D01*
X-120050Y212990D01*
X-119730Y211290D01*
X-120050Y209600D01*
X-121010Y208540D01*
X-122140Y207910D01*
X-126160D01*
G01X-122140D02*
X-119730Y201770D01*
G01X-108060D02*
Y214470D01*
X-114020Y205370D01*
X-105970D01*
G01X-97370Y201770D02*
X-97050Y204520D01*
X-96560Y206850D01*
X-95920Y208970D01*
X-95110Y211290D01*
X-93830Y214470D01*
X-100260D01*
G01X-128170Y405770D02*
Y418470D01*
X-124150D01*
X-122860Y417830D01*
X-122060Y416990D01*
X-121740Y415290D01*
X-122060Y413600D01*
X-123020Y412540D01*
X-124150Y411910D01*
X-128170D01*
G01X-124150D02*
X-121740Y405770D01*
G01X-115540Y408310D02*
X-114580Y406830D01*
X-113290Y405980D01*
X-111840Y405770D01*
X-110560Y405980D01*
X-109270Y407040D01*
X-108470Y408310D01*
X-108310Y409580D01*
X-108630Y411060D01*
X-109750Y412120D01*
X-110880Y412540D01*
X-112330D01*
G01X-110880D02*
X-109910Y413180D01*
X-109110Y414240D01*
X-108790Y415510D01*
X-109110Y416780D01*
X-109910Y417830D01*
X-111360Y418470D01*
X-112810Y418260D01*
X-114260Y417410D01*
G01X-102590Y407670D02*
X-101630Y406620D01*
X-100500Y405980D01*
X-99060Y405770D01*
X-97610Y406190D01*
X-96480Y407040D01*
X-95680Y408520D01*
X-95520Y410210D01*
X-95840Y411910D01*
X-96640Y412970D01*
X-97770Y413810D01*
X-98890Y414020D01*
X-100020Y413810D01*
X-101470Y412970D01*
X-100990Y418470D01*
X-96640D01*
G01X-130160Y607770D02*
Y620470D01*
X-126140D01*
X-124850Y619830D01*
X-124050Y618990D01*
X-123730Y617290D01*
X-124050Y615600D01*
X-125010Y614540D01*
X-126140Y613910D01*
X-130160D01*
G01X-126140D02*
X-123730Y607770D01*
G01X-117050Y618350D02*
X-116090Y619620D01*
X-114960Y620260D01*
X-113670Y620470D01*
X-112060Y620050D01*
X-110940Y618990D01*
X-110620Y617720D01*
X-110780Y616450D01*
X-111420Y615390D01*
X-114640Y613270D01*
X-116090Y611790D01*
X-117050Y609670D01*
X-117370Y607770D01*
X-110620D01*
G01X-104580Y610310D02*
X-103620Y608830D01*
X-102330Y607980D01*
X-100880Y607770D01*
X-99600Y607980D01*
X-98310Y609040D01*
X-97510Y610310D01*
X-97350Y611580D01*
X-97670Y613060D01*
X-98790Y614120D01*
X-99920Y614540D01*
X-101370D01*
G01X-99920D02*
X-98950Y615180D01*
X-98150Y616240D01*
X-97830Y617510D01*
X-98150Y618780D01*
X-98950Y619830D01*
X-100400Y620470D01*
X-101850Y620260D01*
X-103300Y619410D01*
G01X-121690Y811770D02*
Y824470D01*
X-117670D01*
X-116380Y823830D01*
X-115580Y822990D01*
X-115260Y821290D01*
X-115580Y819600D01*
X-116540Y818540D01*
X-117670Y817910D01*
X-121690D01*
G01X-117670D02*
X-115260Y811770D01*
G01X-109060Y813670D02*
X-108100Y812620D01*
X-106970Y811980D01*
X-105530Y811770D01*
X-104080Y812190D01*
X-102950Y813040D01*
X-102150Y814520D01*
X-101990Y816210D01*
X-102310Y817910D01*
X-103110Y818970D01*
X-104240Y819810D01*
X-105360Y820020D01*
X-106490Y819810D01*
X-107940Y818970D01*
X-107460Y824470D01*
X-103110D01*
G01X32900Y-260390D02*
X39650Y-247690D01*
G01X32900D02*
X39650Y-260390D01*
G01X45690Y-257850D02*
X46650Y-259330D01*
X47940Y-260180D01*
X49390Y-260390D01*
X50670Y-260180D01*
X51960Y-259120D01*
X52760Y-257850D01*
X52920Y-256580D01*
X52600Y-255100D01*
X51480Y-254040D01*
X50350Y-253620D01*
X48900D01*
G01X50350D02*
X51320Y-252980D01*
X52120Y-251920D01*
X52440Y-250650D01*
X52120Y-249380D01*
X51320Y-248330D01*
X49870Y-247690D01*
X48420Y-247900D01*
X46970Y-248750D01*
G01X28250Y819150D02*
X35000Y831850D01*
G01X28250D02*
X35000Y819150D01*
G01X41520Y829730D02*
X42480Y831000D01*
X43610Y831640D01*
X44900Y831850D01*
X46510Y831430D01*
X47630Y830370D01*
X47950Y829100D01*
X47790Y827830D01*
X47150Y826770D01*
X43930Y824650D01*
X42480Y823170D01*
X41520Y821050D01*
X41200Y819150D01*
X47950D01*
G54D13*
G01X-896550Y-288290D02*
X-880550D01*
G01X-888550Y-296290D02*
Y-280290D01*
G01X-755000Y-132000D02*
X-725000D01*
Y-192000D01*
X-755000D01*
Y-132000D01*
G01X-584250Y-1049300D02*
G03X-585500Y-1048050I-1250J0D01*
G01D02*
G03X-586750Y-1049300I0J-1250D01*
G01D02*
G03X-585500Y-1050550I1250J0D01*
G01D02*
G03X-584250Y-1049300I0J1250D01*
G01Y-947700D02*
G03X-585500Y-946450I-1250J0D01*
G01D02*
G03X-586750Y-947700I0J-1250D01*
G01D02*
G03X-585500Y-948950I1250J0D01*
G01D02*
G03X-584250Y-947700I0J1250D01*
G01Y-846100D02*
G03X-585500Y-844850I-1250J0D01*
G01D02*
G03X-586750Y-846100I0J-1250D01*
G01D02*
G03X-585500Y-847350I1250J0D01*
G01D02*
G03X-584250Y-846100I0J1250D01*
G01Y-744500D02*
G03X-585500Y-743250I-1250J0D01*
G01D02*
G03X-586750Y-744500I0J-1250D01*
G01D02*
G03X-585500Y-745750I1250J0D01*
G01D02*
G03X-584250Y-744500I0J1250D01*
G01Y-642900D02*
G03X-585500Y-641650I-1250J0D01*
G01D02*
G03X-586750Y-642900I0J-1250D01*
G01D02*
G03X-585500Y-644150I1250J0D01*
G01D02*
G03X-584250Y-642900I0J1250D01*
G01Y-541300D02*
G03X-585500Y-540050I-1250J0D01*
G01D02*
G03X-586750Y-541300I0J-1250D01*
G01D02*
G03X-585500Y-542550I1250J0D01*
G01D02*
G03X-584250Y-541300I0J1250D01*
G01Y-439700D02*
G03X-585500Y-438450I-1250J0D01*
G01D02*
G03X-586750Y-439700I0J-1250D01*
G01D02*
G03X-585500Y-440950I1250J0D01*
G01D02*
G03X-584250Y-439700I0J1250D01*
G01Y-338100D02*
G03X-585500Y-336850I-1250J0D01*
G01D02*
G03X-586750Y-338100I0J-1250D01*
G01D02*
G03X-585500Y-339350I1250J0D01*
G01D02*
G03X-584250Y-338100I0J1250D01*
G01Y23850D02*
G03X-585500Y25100I-1250J0D01*
G01D02*
G03X-586750Y23850I0J-1250D01*
G01D02*
G03X-585500Y22600I1250J0D01*
G01D02*
G03X-584250Y23850I0J1250D01*
G01Y125450D02*
G03X-585500Y126700I-1250J0D01*
G01D02*
G03X-586750Y125450I0J-1250D01*
G01D02*
G03X-585500Y124200I1250J0D01*
G01D02*
G03X-584250Y125450I0J1250D01*
G01Y227050D02*
G03X-585500Y228300I-1250J0D01*
G01D02*
G03X-586750Y227050I0J-1250D01*
G01D02*
G03X-585500Y225800I1250J0D01*
G01D02*
G03X-584250Y227050I0J1250D01*
G01Y328650D02*
G03X-585500Y329900I-1250J0D01*
G01D02*
G03X-586750Y328650I0J-1250D01*
G01D02*
G03X-585500Y327400I1250J0D01*
G01D02*
G03X-584250Y328650I0J1250D01*
G01Y430250D02*
G03X-585500Y431500I-1250J0D01*
G01D02*
G03X-586750Y430250I0J-1250D01*
G01D02*
G03X-585500Y429000I1250J0D01*
G01D02*
G03X-584250Y430250I0J1250D01*
G01Y531850D02*
G03X-585500Y533100I-1250J0D01*
G01D02*
G03X-586750Y531850I0J-1250D01*
G01D02*
G03X-585500Y530600I1250J0D01*
G01D02*
G03X-584250Y531850I0J1250D01*
G01Y633450D02*
G03X-585500Y634700I-1250J0D01*
G01D02*
G03X-586750Y633450I0J-1250D01*
G01D02*
G03X-585500Y632200I1250J0D01*
G01D02*
G03X-584250Y633450I0J1250D01*
G01Y735050D02*
G03X-585500Y736300I-1250J0D01*
G01D02*
G03X-586750Y735050I0J-1250D01*
G01D02*
G03X-585500Y733800I1250J0D01*
G01D02*
G03X-584250Y735050I0J1250D01*
G01X1250Y-285750D02*
G03I-1250J0D01*
G01Y787400D02*
G03I-1250J0D01*
M02*
