G04 ================== begin FILE IDENTIFICATION RECORD ==================*
G04 Layout Name:  D:/Project/Circuit/ORCAD/KPRD/03v1/pcb/kprd_03v1.brd*
G04 Film Name:    SILK_BOT*
G04 File Format:  Gerber RS274X*
G04 File Origin:  Cadence Allegro 16.6-S012*
G04 Origin Date:  Sun Jul 28 12:05:33 2013*
G04 *
G04 Layer:  MANUFACTURING/AUTOSILK_BOTTOM*
G04 *
G04 Offset:    (0.000 0.000)*
G04 Mirror:    No*
G04 Mode:      Positive*
G04 Rotation:  0*
G04 FullContactRelief:  No*
G04 UndefLineWidth:     0.200*
G04 ================== end FILE IDENTIFICATION RECORD ====================*
%FSLAX34Y34*MOMM*%
%IR0*IPPOS*OFA0.00000B0.00000*MIA0B0*SFA1.00000B1.00000*%
%ADD10C,.2*%
%ADD11C,.5*%
%ADD12C,.15*%
%ADD13C,.25*%
G75*
%LPD*%
G75*
G54D10*
G01X-635000Y-1076320D02*
X-673100D01*
Y-1031880D01*
X-635000D01*
Y-1076320D01*
G01X-719200Y-1073300D02*
Y-1060300D01*
G01X-703200Y-1073300D02*
Y-1060300D01*
G01X-635000Y-974720D02*
X-673100D01*
Y-930280D01*
X-635000D01*
Y-974720D01*
G01X-719200Y-971700D02*
Y-958700D01*
G01X-703200Y-971700D02*
Y-958700D01*
G01X-635000Y-873120D02*
X-673100D01*
Y-828680D01*
X-635000D01*
Y-873120D01*
G01X-719200Y-870100D02*
Y-857100D01*
G01X-703200Y-870100D02*
Y-857100D01*
G01X-635000Y-771520D02*
X-673100D01*
Y-727080D01*
X-635000D01*
Y-771520D01*
G01X-719200Y-768500D02*
Y-755500D01*
G01X-703200Y-768500D02*
Y-755500D01*
G01X-635000Y-669920D02*
X-673100D01*
Y-625480D01*
X-635000D01*
Y-669920D01*
G01X-719200Y-666900D02*
Y-653900D01*
G01X-703200Y-666900D02*
Y-653900D01*
G01X-635000Y-568320D02*
X-673100D01*
Y-523880D01*
X-635000D01*
Y-568320D01*
G01X-719200Y-565300D02*
Y-552300D01*
G01X-703200Y-565300D02*
Y-552300D01*
G01X-635000Y-466720D02*
X-673100D01*
Y-422280D01*
X-635000D01*
Y-466720D01*
G01X-719200Y-463700D02*
Y-450700D01*
G01X-703200Y-463700D02*
Y-450700D01*
G01X-635000Y-365120D02*
X-673100D01*
Y-320680D01*
X-635000D01*
Y-365120D01*
G01X-719200Y-362100D02*
Y-349100D01*
G01X-703200Y-362100D02*
Y-349100D01*
G01X-635000Y-3170D02*
X-673100D01*
Y41270D01*
X-635000D01*
Y-3170D01*
G01X-719200Y-150D02*
Y12850D01*
G01X-703200Y-150D02*
Y12850D01*
G01X-635000Y98430D02*
X-673100D01*
Y142870D01*
X-635000D01*
Y98430D01*
G01X-719200Y101450D02*
Y114450D01*
G01X-703200Y101450D02*
Y114450D01*
G01X-635000Y200030D02*
X-673100D01*
Y244470D01*
X-635000D01*
Y200030D01*
G01X-719200Y203050D02*
Y216050D01*
G01X-703200Y203050D02*
Y216050D01*
G01X-635000Y301630D02*
X-673100D01*
Y346070D01*
X-635000D01*
Y301630D01*
G01X-719200Y304650D02*
Y317650D01*
G01X-703200Y304650D02*
Y317650D01*
G01X-635000Y403230D02*
X-673100D01*
Y447670D01*
X-635000D01*
Y403230D01*
G01X-719200Y406250D02*
Y419250D01*
G01X-703200Y406250D02*
Y419250D01*
G01X-635000Y504830D02*
X-673100D01*
Y549270D01*
X-635000D01*
Y504830D01*
G01X-719200Y507850D02*
Y520850D01*
G01X-703200Y507850D02*
Y520850D01*
G01X-635000Y606430D02*
X-673100D01*
Y650870D01*
X-635000D01*
Y606430D01*
G01X-719200Y609450D02*
Y622450D01*
G01X-703200Y609450D02*
Y622450D01*
G01X-635000Y708030D02*
X-673100D01*
Y752470D01*
X-635000D01*
Y708030D01*
G01X-719200Y711050D02*
Y724050D01*
G01X-703200Y711050D02*
Y724050D01*
G01X-526450Y-1036350D02*
Y-1040350D01*
X-578450D01*
Y-1036350D01*
G01X-603400Y-1045600D02*
Y-1062600D01*
G01X-590400Y-1045600D02*
Y-1062600D01*
G01Y-1049100D02*
X-603400D01*
G01X-590400Y-1051100D02*
X-603400D01*
G01X-590400Y-1053100D02*
X-603400D01*
G01X-610300Y-1068100D02*
X-602900D01*
G01X-606900Y-1072100D02*
Y-1064100D01*
G01X-526450Y-1008350D02*
Y-1004350D01*
X-578450D01*
Y-1008350D01*
G01X-603400Y-944000D02*
Y-961000D01*
G01X-590400Y-944000D02*
Y-961000D01*
G01Y-947500D02*
X-603400D01*
G01X-590400Y-949500D02*
X-603400D01*
G01X-590400Y-951500D02*
X-603400D01*
G01X-610300Y-966500D02*
X-602900D01*
G01X-606900Y-970500D02*
Y-962500D01*
G01X-526450Y-906750D02*
Y-902750D01*
X-578450D01*
Y-906750D01*
G01X-526450Y-934750D02*
Y-938750D01*
X-578450D01*
Y-934750D01*
G01X-606900Y-868900D02*
Y-860900D01*
G01X-526450Y-805150D02*
Y-801150D01*
X-578450D01*
Y-805150D01*
G01X-526450Y-833150D02*
Y-837150D01*
X-578450D01*
Y-833150D01*
G01X-603400Y-842400D02*
Y-859400D01*
G01X-590400Y-842400D02*
Y-859400D01*
G01Y-845900D02*
X-603400D01*
G01X-590400Y-847900D02*
X-603400D01*
G01X-590400Y-849900D02*
X-603400D01*
G01X-610300Y-864900D02*
X-602900D01*
G01X-526450Y-731550D02*
Y-735550D01*
X-578450D01*
Y-731550D01*
G01X-603400Y-740800D02*
Y-757800D01*
G01X-590400Y-740800D02*
Y-757800D01*
G01Y-744300D02*
X-603400D01*
G01X-590400Y-746300D02*
X-603400D01*
G01X-590400Y-748300D02*
X-603400D01*
G01X-610300Y-763300D02*
X-602900D01*
G01X-606900Y-767300D02*
Y-759300D01*
G01X-526450Y-703550D02*
Y-699550D01*
X-578450D01*
Y-703550D01*
G01X-603400Y-639200D02*
Y-656200D01*
G01X-590400Y-639200D02*
Y-656200D01*
G01Y-642700D02*
X-603400D01*
G01X-590400Y-644700D02*
X-603400D01*
G01X-590400Y-646700D02*
X-603400D01*
G01X-610300Y-661700D02*
X-602900D01*
G01X-606900Y-665700D02*
Y-657700D01*
G01X-526450Y-601950D02*
Y-597950D01*
X-578450D01*
Y-601950D01*
G01X-526450Y-629950D02*
Y-633950D01*
X-578450D01*
Y-629950D01*
G01X-606900Y-564100D02*
Y-556100D01*
G01X-526450Y-500350D02*
Y-496350D01*
X-578450D01*
Y-500350D01*
G01X-526450Y-528350D02*
Y-532350D01*
X-578450D01*
Y-528350D01*
G01X-603400Y-537600D02*
Y-554600D01*
G01X-590400Y-537600D02*
Y-554600D01*
G01Y-541100D02*
X-603400D01*
G01X-590400Y-543100D02*
X-603400D01*
G01X-590400Y-545100D02*
X-603400D01*
G01X-610300Y-560100D02*
X-602900D01*
G01X-526450Y-426750D02*
Y-430750D01*
X-578450D01*
Y-426750D01*
G01X-603400Y-436000D02*
Y-453000D01*
G01X-590400Y-436000D02*
Y-453000D01*
G01Y-439500D02*
X-603400D01*
G01X-590400Y-441500D02*
X-603400D01*
G01X-590400Y-443500D02*
X-603400D01*
G01X-610300Y-458500D02*
X-602900D01*
G01X-606900Y-462500D02*
Y-454500D01*
G01X-526450Y-398750D02*
Y-394750D01*
X-578450D01*
Y-398750D01*
G01X-603400Y-334400D02*
Y-351400D01*
G01X-590400Y-334400D02*
Y-351400D01*
G01Y-337900D02*
X-603400D01*
G01X-590400Y-339900D02*
X-603400D01*
G01X-590400Y-341900D02*
X-603400D01*
G01X-610300Y-356900D02*
X-602900D01*
G01X-606900Y-360900D02*
Y-352900D01*
G01X-526450Y-297150D02*
Y-293150D01*
X-578450D01*
Y-297150D01*
G01X-526450Y-325150D02*
Y-329150D01*
X-578450D01*
Y-325150D01*
G01X-526450Y36800D02*
Y32800D01*
X-578450D01*
Y36800D01*
G01X-603400Y27550D02*
Y10550D01*
G01X-590400Y27550D02*
Y10550D01*
G01Y24050D02*
X-603400D01*
G01X-590400Y22050D02*
X-603400D01*
G01X-590400Y20050D02*
X-603400D01*
G01X-610300Y5050D02*
X-602900D01*
G01X-606900Y1050D02*
Y9050D01*
G01X-526450Y64800D02*
Y68800D01*
X-578450D01*
Y64800D01*
G01X-603400Y129150D02*
Y112150D01*
G01X-590400Y129150D02*
Y112150D01*
G01Y121650D02*
X-603400D01*
G01X-610300Y106650D02*
X-602900D01*
G01X-606900Y102650D02*
Y110650D01*
G01X-526450Y166400D02*
Y170400D01*
X-578450D01*
Y166400D01*
G01X-526450Y138400D02*
Y134400D01*
X-578450D01*
Y138400D01*
G01X-590400Y125650D02*
X-603400D01*
G01X-590400Y123650D02*
X-603400D01*
G01X-526450Y268000D02*
Y272000D01*
X-578450D01*
Y268000D01*
G01X-526450Y240000D02*
Y236000D01*
X-578450D01*
Y240000D01*
G01X-603400Y230750D02*
Y213750D01*
G01X-590400Y230750D02*
Y213750D01*
G01Y227250D02*
X-603400D01*
G01X-590400Y225250D02*
X-603400D01*
G01X-590400Y223250D02*
X-603400D01*
G01X-610300Y208250D02*
X-602900D01*
G01X-606900Y204250D02*
Y212250D01*
G01X-526450Y341600D02*
Y337600D01*
X-578450D01*
Y341600D01*
G01X-603400Y332350D02*
Y315350D01*
G01X-590400Y332350D02*
Y315350D01*
G01Y328850D02*
X-603400D01*
G01X-590400Y326850D02*
X-603400D01*
G01X-590400Y324850D02*
X-603400D01*
G01X-610300Y309850D02*
X-602900D01*
G01X-606900Y305850D02*
Y313850D01*
G01X-526450Y369600D02*
Y373600D01*
X-578450D01*
Y369600D01*
G01X-603400Y433950D02*
Y416950D01*
G01X-590400Y433950D02*
Y416950D01*
G01Y426450D02*
X-603400D01*
G01X-610300Y411450D02*
X-602900D01*
G01X-606900Y407450D02*
Y415450D01*
G01X-526450Y471200D02*
Y475200D01*
X-578450D01*
Y471200D01*
G01X-526450Y443200D02*
Y439200D01*
X-578450D01*
Y443200D01*
G01X-590400Y430450D02*
X-603400D01*
G01X-590400Y428450D02*
X-603400D01*
G01X-526450Y572800D02*
Y576800D01*
X-578450D01*
Y572800D01*
G01X-526450Y544800D02*
Y540800D01*
X-578450D01*
Y544800D01*
G01X-603400Y535550D02*
Y518550D01*
G01X-590400Y535550D02*
Y518550D01*
G01Y532050D02*
X-603400D01*
G01X-590400Y530050D02*
X-603400D01*
G01X-590400Y528050D02*
X-603400D01*
G01X-610300Y513050D02*
X-602900D01*
G01X-606900Y509050D02*
Y517050D01*
G01X-526450Y646400D02*
Y642400D01*
X-578450D01*
Y646400D01*
G01X-603400Y637150D02*
Y620150D01*
G01X-590400Y637150D02*
Y620150D01*
G01Y633650D02*
X-603400D01*
G01X-590400Y631650D02*
X-603400D01*
G01X-590400Y629650D02*
X-603400D01*
G01X-610300Y614650D02*
X-602900D01*
G01X-606900Y610650D02*
Y618650D01*
G01X-526450Y674400D02*
Y678400D01*
X-578450D01*
Y674400D01*
G01X-603400Y738750D02*
Y721750D01*
G01X-590400Y738750D02*
Y721750D01*
G01Y731250D02*
X-603400D01*
G01X-610300Y716250D02*
X-602900D01*
G01X-606900Y712250D02*
Y720250D01*
G01X-526450Y776000D02*
Y780000D01*
X-578450D01*
Y776000D01*
G01X-526450Y748000D02*
Y744000D01*
X-578450D01*
Y748000D01*
G01X-590400Y735250D02*
X-603400D01*
G01X-590400Y733250D02*
X-603400D01*
G01X-567450Y-1054300D02*
X-537450D01*
G01X-567450Y-1079300D02*
X-537450D01*
G01X-514150Y-967500D02*
Y-937500D01*
G01X-567450Y-952700D02*
X-537450D01*
G01X-567450Y-977700D02*
X-537450D01*
G01X-567450Y-876100D02*
X-537450D01*
G01X-567450Y-851100D02*
X-537450D01*
G01X-514150Y-764300D02*
Y-734300D01*
G01X-567450Y-749500D02*
X-537450D01*
G01X-567450Y-774500D02*
X-537450D01*
G01X-567450Y-647900D02*
X-537450D01*
G01X-567450Y-672900D02*
X-537450D01*
G01X-567450Y-571300D02*
X-537450D01*
G01X-514150Y-561100D02*
Y-531100D01*
G01X-567450Y-546300D02*
X-537450D01*
G01X-567450Y-444700D02*
X-537450D01*
G01X-567450Y-469700D02*
X-537450D01*
G01X-514150Y-357900D02*
Y-327900D01*
G01X-567450Y-343100D02*
X-537450D01*
G01X-567450Y-368100D02*
X-537450D01*
G01X-567450Y18850D02*
X-537450D01*
G01X-567450Y-6150D02*
X-537450D01*
G01X-514150Y105650D02*
Y135650D01*
G01X-567450Y120450D02*
X-537450D01*
G01X-567450Y95450D02*
X-537450D01*
G01X-567450Y197050D02*
X-537450D01*
G01X-567450Y222050D02*
X-537450D01*
G01X-514150Y308850D02*
Y338850D01*
G01X-567450Y323650D02*
X-537450D01*
G01X-567450Y298650D02*
X-537450D01*
G01X-567450Y425250D02*
X-537450D01*
G01X-567450Y400250D02*
X-537450D01*
G01X-567450Y501850D02*
X-537450D01*
G01X-514150Y512050D02*
Y542050D01*
G01X-567450Y526850D02*
X-537450D01*
G01X-567450Y628450D02*
X-537450D01*
G01X-567450Y603450D02*
X-537450D01*
G01X-514150Y715250D02*
Y745250D01*
G01X-567450Y730050D02*
X-537450D01*
G01X-567450Y705050D02*
X-537450D01*
G01X-452150Y-1028100D02*
X-456150D01*
Y-1080100D01*
X-452150D01*
G01X-424150Y-1028100D02*
X-420150D01*
Y-1080100D01*
X-424150D01*
G01X-476050Y-967500D02*
Y-937500D01*
G01X-451050Y-967500D02*
Y-937500D01*
G01X-489150Y-967500D02*
Y-937500D01*
G01X-439450Y-926500D02*
X-443450D01*
Y-978500D01*
X-439450D01*
G01X-452150Y-824900D02*
X-456150D01*
Y-876900D01*
X-452150D01*
G01X-424150Y-824900D02*
X-420150D01*
Y-876900D01*
X-424150D01*
G01X-476050Y-764300D02*
Y-734300D01*
G01X-451050Y-764300D02*
Y-734300D01*
G01X-489150Y-764300D02*
Y-734300D01*
G01X-439450Y-723300D02*
X-443450D01*
Y-775300D01*
X-439450D01*
G01X-452150Y-621700D02*
X-456150D01*
Y-673700D01*
X-452150D01*
G01X-424150Y-621700D02*
X-420150D01*
Y-673700D01*
X-424150D01*
G01X-439450Y-520100D02*
X-443450D01*
Y-572100D01*
X-439450D01*
G01X-476050Y-561100D02*
Y-531100D01*
G01X-451050Y-561100D02*
Y-531100D01*
G01X-489150Y-561100D02*
Y-531100D01*
G01X-452150Y-418500D02*
X-456150D01*
Y-470500D01*
X-452150D01*
G01X-424150Y-418500D02*
X-420150D01*
Y-470500D01*
X-424150D01*
G01X-476050Y-357900D02*
Y-327900D01*
G01X-451050Y-357900D02*
Y-327900D01*
G01X-489150Y-357900D02*
Y-327900D01*
G01X-439450Y-316900D02*
X-443450D01*
Y-368900D01*
X-439450D01*
G01X-452150Y45050D02*
X-456150D01*
Y-6950D01*
X-452150D01*
G01X-424150Y45050D02*
X-420150D01*
Y-6950D01*
X-424150D01*
G01X-476050Y105650D02*
Y135650D01*
G01X-451050Y105650D02*
Y135650D01*
G01X-489150Y105650D02*
Y135650D01*
G01X-439450Y146650D02*
X-443450D01*
Y94650D01*
X-439450D01*
G01X-452150Y248250D02*
X-456150D01*
Y196250D01*
X-452150D01*
G01X-424150Y248250D02*
X-420150D01*
Y196250D01*
X-424150D01*
G01X-476050Y308850D02*
Y338850D01*
G01X-451050Y308850D02*
Y338850D01*
G01X-489150Y308850D02*
Y338850D01*
G01X-439450Y349850D02*
X-443450D01*
Y297850D01*
X-439450D01*
G01X-452150Y451450D02*
X-456150D01*
Y399450D01*
X-452150D01*
G01X-424150Y451450D02*
X-420150D01*
Y399450D01*
X-424150D01*
G01X-439450Y553050D02*
X-443450D01*
Y501050D01*
X-439450D01*
G01X-476050Y512050D02*
Y542050D01*
G01X-451050Y512050D02*
Y542050D01*
G01X-489150Y512050D02*
Y542050D01*
G01X-452150Y654650D02*
X-456150D01*
Y602650D01*
X-452150D01*
G01X-424150Y654650D02*
X-420150D01*
Y602650D01*
X-424150D01*
G01X-476050Y715250D02*
Y745250D01*
G01X-451050Y715250D02*
Y745250D01*
G01X-489150Y715250D02*
Y745250D01*
G01X-439450Y756250D02*
X-443450D01*
Y704250D01*
X-439450D01*
G01X-412550Y-1069100D02*
Y-1039100D01*
G01X-387550Y-1069100D02*
Y-1039100D01*
G01X-374450Y-1069100D02*
Y-1039100D01*
G01X-349450Y-1069100D02*
Y-1039100D01*
G01X-411450Y-926500D02*
X-407450D01*
Y-978500D01*
X-411450D01*
G01X-412550Y-865900D02*
Y-835900D01*
G01X-387550Y-865900D02*
Y-835900D01*
G01X-374450Y-865900D02*
Y-835900D01*
G01X-349450Y-865900D02*
Y-835900D01*
G01X-411450Y-723300D02*
X-407450D01*
Y-775300D01*
X-411450D01*
G01X-412550Y-662700D02*
Y-632700D01*
G01X-387550Y-662700D02*
Y-632700D01*
G01X-374450Y-662700D02*
Y-632700D01*
G01X-349450Y-662700D02*
Y-632700D01*
G01X-411450Y-520100D02*
X-407450D01*
Y-572100D01*
X-411450D01*
G01X-412550Y-459500D02*
Y-429500D01*
G01X-387550Y-459500D02*
Y-429500D01*
G01X-374450Y-459500D02*
Y-429500D01*
G01X-349450Y-459500D02*
Y-429500D01*
G01X-411450Y-316900D02*
X-407450D01*
Y-368900D01*
X-411450D01*
G01X-412550Y4050D02*
Y34050D01*
G01X-387550Y4050D02*
Y34050D01*
G01X-374450Y4050D02*
Y34050D01*
G01X-349450Y4050D02*
Y34050D01*
G01X-411450Y146650D02*
X-407450D01*
Y94650D01*
X-411450D01*
G01X-412550Y207250D02*
Y237250D01*
G01X-387550Y207250D02*
Y237250D01*
G01X-374450Y207250D02*
Y237250D01*
G01X-349450Y207250D02*
Y237250D01*
G01X-411450Y349850D02*
X-407450D01*
Y297850D01*
X-411450D01*
G01X-412550Y410450D02*
Y440450D01*
G01X-387550Y410450D02*
Y440450D01*
G01X-374450Y410450D02*
Y440450D01*
G01X-349450Y410450D02*
Y440450D01*
G01X-411450Y553050D02*
X-407450D01*
Y501050D01*
X-411450D01*
G01X-412550Y613650D02*
Y643650D01*
G01X-387550Y613650D02*
Y643650D01*
G01X-374450Y613650D02*
Y643650D01*
G01X-349450Y613650D02*
Y643650D01*
G01X-411450Y756250D02*
X-407450D01*
Y704250D01*
X-411450D01*
G01X-322200Y-1049100D02*
Y-1059100D01*
G01X-338200Y-1049100D02*
Y-1059100D01*
G01X-322200Y-947500D02*
Y-957500D01*
G01X-338200Y-947500D02*
Y-957500D01*
G01X-322200Y-845900D02*
Y-855900D01*
G01X-338200Y-845900D02*
Y-855900D01*
G01X-322200Y-744300D02*
Y-754300D01*
G01X-338200Y-744300D02*
Y-754300D01*
G01X-322200Y-642700D02*
Y-652700D01*
G01X-338200Y-642700D02*
Y-652700D01*
G01X-322200Y-541100D02*
Y-551100D01*
G01X-338200Y-541100D02*
Y-551100D01*
G01X-322200Y-439500D02*
Y-449500D01*
G01X-338200Y-439500D02*
Y-449500D01*
G01X-322200Y-337900D02*
Y-347900D01*
G01X-338200Y-337900D02*
Y-347900D01*
G01X-322200Y24050D02*
Y14050D01*
G01X-338200Y24050D02*
Y14050D01*
G01X-322200Y125650D02*
Y115650D01*
G01X-338200Y125650D02*
Y115650D01*
G01X-322200Y227250D02*
Y217250D01*
G01X-338200Y227250D02*
Y217250D01*
G01X-322200Y328850D02*
Y318850D01*
G01X-338200Y328850D02*
Y318850D01*
G01X-322200Y430450D02*
Y420450D01*
G01X-338200Y430450D02*
Y420450D01*
G01X-322200Y532050D02*
Y522050D01*
G01X-338200Y532050D02*
Y522050D01*
G01X-322200Y633650D02*
Y623650D01*
G01X-338200Y633650D02*
Y623650D01*
G01X-322200Y735250D02*
Y725250D01*
G01X-338200Y735250D02*
Y725250D01*
G01X-76650Y-998650D02*
X-86650D01*
Y-1077650D01*
X-76650D01*
G01Y-795450D02*
X-86650D01*
Y-874450D01*
X-76650D01*
G01Y-592250D02*
X-86650D01*
Y-671250D01*
X-76650D01*
G01Y-389050D02*
X-86650D01*
Y-468050D01*
X-76650D01*
G01Y74500D02*
X-86650D01*
Y-4500D01*
X-76650D01*
G01Y277700D02*
X-86650D01*
Y198700D01*
X-76650D01*
G01Y480900D02*
X-86650D01*
Y401900D01*
X-76650D01*
G01Y684100D02*
X-86650D01*
Y605100D01*
X-76650D01*
G01X-37650Y-998650D02*
X-27650D01*
Y-1077650D01*
X-37650D01*
G01X37650Y-906650D02*
X27650D01*
Y-985650D01*
X37650D01*
G01X-37650Y-795450D02*
X-27650D01*
Y-874450D01*
X-37650D01*
G01X37650Y-703450D02*
X27650D01*
Y-782450D01*
X37650D01*
G01X-37650Y-592250D02*
X-27650D01*
Y-671250D01*
X-37650D01*
G01X37650Y-500250D02*
X27650D01*
Y-579250D01*
X37650D01*
G01X-37650Y-389050D02*
X-27650D01*
Y-468050D01*
X-37650D01*
G01X37650Y-297050D02*
X27650D01*
Y-376050D01*
X37650D01*
G01X-37650Y74500D02*
X-27650D01*
Y-4500D01*
X-37650D01*
G01X37650Y166500D02*
X27650D01*
Y87500D01*
X37650D01*
G01X-37650Y277700D02*
X-27650D01*
Y198700D01*
X-37650D01*
G01X37650Y369700D02*
X27650D01*
Y290700D01*
X37650D01*
G01X-37650Y480900D02*
X-27650D01*
Y401900D01*
X-37650D01*
G01X37650Y572900D02*
X27650D01*
Y493900D01*
X37650D01*
G01X-37650Y684100D02*
X-27650D01*
Y605100D01*
X-37650D01*
G01X37650Y776100D02*
X27650D01*
Y697100D01*
X37650D01*
G01X76650Y-906650D02*
X86650D01*
Y-985650D01*
X76650D01*
G01Y-703450D02*
X86650D01*
Y-782450D01*
X76650D01*
G01Y-500250D02*
X86650D01*
Y-579250D01*
X76650D01*
G01Y-297050D02*
X86650D01*
Y-376050D01*
X76650D01*
G01Y166500D02*
X86650D01*
Y87500D01*
X76650D01*
G01Y369700D02*
X86650D01*
Y290700D01*
X76650D01*
G01Y572900D02*
X86650D01*
Y493900D01*
X76650D01*
G01Y776100D02*
X86650D01*
Y697100D01*
X76650D01*
G54D11*
G01X-641480Y-1039400D02*
G03I-2495J0D01*
G01Y-937800D02*
G03I-2495J0D01*
G01Y-836200D02*
G03I-2495J0D01*
G01Y-734600D02*
G03I-2495J0D01*
G01Y-633000D02*
G03I-2495J0D01*
G01Y-531400D02*
G03I-2495J0D01*
G01Y-429800D02*
G03I-2495J0D01*
G01Y-328200D02*
G03I-2495J0D01*
G01Y33750D02*
G03I-2495J0D01*
G01Y135350D02*
G03I-2495J0D01*
G01Y236950D02*
G03I-2495J0D01*
G01Y338550D02*
G03I-2495J0D01*
G01Y440150D02*
G03I-2495J0D01*
G01Y541750D02*
G03I-2495J0D01*
G01Y643350D02*
G03I-2495J0D01*
G01Y744950D02*
G03I-2495J0D01*
G54D12*
G01X-724590Y-1016600D02*
X-723630Y-1015960D01*
X-722500Y-1015540D01*
X-721220D01*
X-719770Y-1016180D01*
X-718640Y-1017230D01*
X-717840Y-1018500D01*
X-717190Y-1020620D01*
X-717030Y-1022530D01*
X-717360Y-1024430D01*
X-717840Y-1025700D01*
X-718800Y-1026970D01*
X-719930Y-1027820D01*
X-721050Y-1028240D01*
X-722180D01*
X-723310Y-1027820D01*
X-724270Y-1027180D01*
X-725080Y-1026340D01*
G01X-735940Y-1028240D02*
Y-1015540D01*
X-729980Y-1024640D01*
X-738030D01*
G01X-744220Y-1026760D02*
X-745350Y-1027820D01*
X-746630Y-1028240D01*
X-747920Y-1027820D01*
X-749050Y-1026550D01*
X-749850Y-1024640D01*
X-750170Y-1022740D01*
Y-1020410D01*
X-749850Y-1018500D01*
X-749050Y-1016810D01*
X-748080Y-1015960D01*
X-746950Y-1015540D01*
X-745670Y-1015960D01*
X-744700Y-1016810D01*
X-744060Y-1018080D01*
X-743740Y-1019770D01*
X-744060Y-1021250D01*
X-744860Y-1022740D01*
X-745830Y-1023580D01*
X-746950Y-1023800D01*
X-748240Y-1023370D01*
X-749210Y-1022310D01*
X-750170Y-1020410D01*
G01X-727830Y-1072240D02*
Y-1059540D01*
X-731850D01*
X-733140Y-1060180D01*
X-733940Y-1061020D01*
X-734260Y-1062720D01*
X-733940Y-1064410D01*
X-732980Y-1065470D01*
X-731850Y-1066100D01*
X-727830D01*
G01X-731850D02*
X-734260Y-1072240D01*
G01X-741260Y-1070760D02*
X-742390Y-1071820D01*
X-743670Y-1072240D01*
X-744960Y-1071820D01*
X-746090Y-1070550D01*
X-746890Y-1068640D01*
X-747210Y-1066740D01*
Y-1064410D01*
X-746890Y-1062500D01*
X-746090Y-1060810D01*
X-745120Y-1059960D01*
X-743990Y-1059540D01*
X-742710Y-1059960D01*
X-741740Y-1060810D01*
X-741100Y-1062080D01*
X-740780Y-1063770D01*
X-741100Y-1065250D01*
X-741900Y-1066740D01*
X-742870Y-1067580D01*
X-743990Y-1067800D01*
X-745280Y-1067370D01*
X-746250Y-1066310D01*
X-747210Y-1064410D01*
G01X-756940Y-1072240D02*
X-758070Y-1072030D01*
X-759360Y-1071390D01*
X-760160Y-1070340D01*
X-760480Y-1068850D01*
X-760160Y-1067370D01*
X-759200Y-1066100D01*
X-757750Y-1065470D01*
X-756140D01*
X-755180Y-1065040D01*
X-754370Y-1063990D01*
X-754050Y-1062500D01*
X-754530Y-1061020D01*
X-755660Y-1059960D01*
X-756940Y-1059540D01*
X-758230Y-1059960D01*
X-759360Y-1061020D01*
X-759840Y-1062500D01*
X-759520Y-1063990D01*
X-758710Y-1065040D01*
X-757750Y-1065470D01*
X-756140D01*
X-754690Y-1066100D01*
X-753730Y-1067370D01*
X-753410Y-1068850D01*
X-753730Y-1070340D01*
X-754530Y-1071390D01*
X-755820Y-1072030D01*
X-756940Y-1072240D01*
G01X-725830Y-970240D02*
Y-957540D01*
X-729850D01*
X-731140Y-958180D01*
X-731940Y-959020D01*
X-732260Y-960720D01*
X-731940Y-962410D01*
X-730980Y-963470D01*
X-729850Y-964100D01*
X-725830D01*
G01X-729850D02*
X-732260Y-970240D01*
G01X-739260Y-968760D02*
X-740390Y-969820D01*
X-741670Y-970240D01*
X-742960Y-969820D01*
X-744090Y-968550D01*
X-744890Y-966640D01*
X-745210Y-964740D01*
Y-962410D01*
X-744890Y-960500D01*
X-744090Y-958810D01*
X-743120Y-957960D01*
X-741990Y-957540D01*
X-740710Y-957960D01*
X-739740Y-958810D01*
X-739100Y-960080D01*
X-738780Y-961770D01*
X-739100Y-963250D01*
X-739900Y-964740D01*
X-740870Y-965580D01*
X-741990Y-965800D01*
X-743280Y-965370D01*
X-744250Y-964310D01*
X-745210Y-962410D01*
G01X-751890Y-959660D02*
X-752850Y-958390D01*
X-753980Y-957750D01*
X-755270Y-957540D01*
X-756880Y-957960D01*
X-758000Y-959020D01*
X-758320Y-960290D01*
X-758160Y-961560D01*
X-757520Y-962620D01*
X-754300Y-964740D01*
X-752850Y-966220D01*
X-751890Y-968340D01*
X-751570Y-970240D01*
X-758320D01*
G01X-724590Y-914600D02*
X-723630Y-913960D01*
X-722500Y-913540D01*
X-721220D01*
X-719770Y-914180D01*
X-718640Y-915230D01*
X-717840Y-916500D01*
X-717190Y-918620D01*
X-717030Y-920530D01*
X-717360Y-922430D01*
X-717840Y-923700D01*
X-718800Y-924970D01*
X-719930Y-925820D01*
X-721050Y-926240D01*
X-722180D01*
X-723310Y-925820D01*
X-724270Y-925180D01*
X-725080Y-924340D01*
G01X-735940Y-926240D02*
Y-913540D01*
X-729980Y-922640D01*
X-738030D01*
G01X-743900Y-920950D02*
X-745020Y-919470D01*
X-745990Y-918620D01*
X-747280Y-918200D01*
X-748400Y-918620D01*
X-749210Y-919470D01*
X-749850Y-920740D01*
X-750010Y-922220D01*
X-749850Y-923490D01*
X-749210Y-924760D01*
X-748240Y-925820D01*
X-747120Y-926240D01*
X-745830Y-925820D01*
X-744700Y-924550D01*
X-744060Y-922640D01*
X-743900Y-920530D01*
X-744220Y-917770D01*
X-744700Y-916290D01*
X-745510Y-914810D01*
X-746630Y-913750D01*
X-747760Y-913540D01*
X-748890Y-913960D01*
X-749690Y-915020D01*
G01X-725830Y-870240D02*
Y-857540D01*
X-729850D01*
X-731140Y-858180D01*
X-731940Y-859020D01*
X-732260Y-860720D01*
X-731940Y-862410D01*
X-730980Y-863470D01*
X-729850Y-864100D01*
X-725830D01*
G01X-729850D02*
X-732260Y-870240D01*
G01X-741990D02*
X-743120Y-870030D01*
X-744410Y-869390D01*
X-745210Y-868340D01*
X-745530Y-866850D01*
X-745210Y-865370D01*
X-744250Y-864100D01*
X-742800Y-863470D01*
X-741190D01*
X-740230Y-863040D01*
X-739420Y-861990D01*
X-739100Y-860500D01*
X-739580Y-859020D01*
X-740710Y-857960D01*
X-741990Y-857540D01*
X-743280Y-857960D01*
X-744410Y-859020D01*
X-744890Y-860500D01*
X-744570Y-861990D01*
X-743760Y-863040D01*
X-742800Y-863470D01*
X-741190D01*
X-739740Y-864100D01*
X-738780Y-865370D01*
X-738460Y-866850D01*
X-738780Y-868340D01*
X-739580Y-869390D01*
X-740870Y-870030D01*
X-741990Y-870240D01*
G01X-751890Y-864950D02*
X-753010Y-863470D01*
X-753980Y-862620D01*
X-755270Y-862200D01*
X-756390Y-862620D01*
X-757200Y-863470D01*
X-757840Y-864740D01*
X-758000Y-866220D01*
X-757840Y-867490D01*
X-757200Y-868760D01*
X-756230Y-869820D01*
X-755110Y-870240D01*
X-753820Y-869820D01*
X-752690Y-868550D01*
X-752050Y-866640D01*
X-751890Y-864530D01*
X-752210Y-861770D01*
X-752690Y-860290D01*
X-753500Y-858810D01*
X-754620Y-857750D01*
X-755750Y-857540D01*
X-756880Y-857960D01*
X-757680Y-859020D01*
G01X-724590Y-814600D02*
X-723630Y-813960D01*
X-722500Y-813540D01*
X-721220D01*
X-719770Y-814180D01*
X-718640Y-815230D01*
X-717840Y-816500D01*
X-717190Y-818620D01*
X-717030Y-820530D01*
X-717360Y-822430D01*
X-717840Y-823700D01*
X-718800Y-824970D01*
X-719930Y-825820D01*
X-721050Y-826240D01*
X-722180D01*
X-723310Y-825820D01*
X-724270Y-825180D01*
X-725080Y-824340D01*
G01X-735940Y-826240D02*
Y-813540D01*
X-729980Y-822640D01*
X-738030D01*
G01X-743420Y-823700D02*
X-744380Y-825180D01*
X-745670Y-826030D01*
X-747120Y-826240D01*
X-748400Y-826030D01*
X-749690Y-824970D01*
X-750490Y-823700D01*
X-750650Y-822430D01*
X-750330Y-820950D01*
X-749210Y-819890D01*
X-748080Y-819470D01*
X-746630D01*
G01X-748080D02*
X-749050Y-818830D01*
X-749850Y-817770D01*
X-750170Y-816500D01*
X-749850Y-815230D01*
X-749050Y-814180D01*
X-747600Y-813540D01*
X-746150Y-813750D01*
X-744700Y-814600D01*
G01X-724590Y-710600D02*
X-723630Y-709960D01*
X-722500Y-709540D01*
X-721220D01*
X-719770Y-710180D01*
X-718640Y-711230D01*
X-717840Y-712500D01*
X-717190Y-714620D01*
X-717030Y-716530D01*
X-717360Y-718430D01*
X-717840Y-719700D01*
X-718800Y-720970D01*
X-719930Y-721820D01*
X-721050Y-722240D01*
X-722180D01*
X-723310Y-721820D01*
X-724270Y-721180D01*
X-725080Y-720340D01*
G01X-735940Y-722240D02*
Y-709540D01*
X-729980Y-718640D01*
X-738030D01*
G01X-746950Y-709540D02*
X-745670Y-709960D01*
X-744700Y-711020D01*
X-744060Y-712290D01*
X-743580Y-713990D01*
X-743420Y-715890D01*
X-743580Y-717800D01*
X-744060Y-719490D01*
X-744700Y-720760D01*
X-745670Y-721820D01*
X-746950Y-722240D01*
X-748240Y-721820D01*
X-749210Y-720760D01*
X-749850Y-719490D01*
X-750330Y-717800D01*
X-750490Y-715890D01*
X-750330Y-713990D01*
X-749850Y-712290D01*
X-749210Y-711020D01*
X-748240Y-709960D01*
X-746950Y-709540D01*
G01X-725830Y-768240D02*
Y-755540D01*
X-729850D01*
X-731140Y-756180D01*
X-731940Y-757020D01*
X-732260Y-758720D01*
X-731940Y-760410D01*
X-730980Y-761470D01*
X-729850Y-762100D01*
X-725830D01*
G01X-729850D02*
X-732260Y-768240D01*
G01X-741990D02*
X-743120Y-768030D01*
X-744410Y-767390D01*
X-745210Y-766340D01*
X-745530Y-764850D01*
X-745210Y-763370D01*
X-744250Y-762100D01*
X-742800Y-761470D01*
X-741190D01*
X-740230Y-761040D01*
X-739420Y-759990D01*
X-739100Y-758500D01*
X-739580Y-757020D01*
X-740710Y-755960D01*
X-741990Y-755540D01*
X-743280Y-755960D01*
X-744410Y-757020D01*
X-744890Y-758500D01*
X-744570Y-759990D01*
X-743760Y-761040D01*
X-742800Y-761470D01*
X-741190D01*
X-739740Y-762100D01*
X-738780Y-763370D01*
X-738460Y-764850D01*
X-738780Y-766340D01*
X-739580Y-767390D01*
X-740870Y-768030D01*
X-741990Y-768240D01*
G01X-754940Y-755540D02*
X-753660Y-755960D01*
X-752690Y-757020D01*
X-752050Y-758290D01*
X-751570Y-759990D01*
X-751410Y-761890D01*
X-751570Y-763800D01*
X-752050Y-765490D01*
X-752690Y-766760D01*
X-753660Y-767820D01*
X-754940Y-768240D01*
X-756230Y-767820D01*
X-757200Y-766760D01*
X-757840Y-765490D01*
X-758320Y-763800D01*
X-758480Y-761890D01*
X-758320Y-759990D01*
X-757840Y-758290D01*
X-757200Y-757020D01*
X-756230Y-755960D01*
X-754940Y-755540D01*
G01X-725830Y-666240D02*
Y-653540D01*
X-729850D01*
X-731140Y-654180D01*
X-731940Y-655020D01*
X-732260Y-656720D01*
X-731940Y-658410D01*
X-730980Y-659470D01*
X-729850Y-660100D01*
X-725830D01*
G01X-729850D02*
X-732260Y-666240D01*
G01X-741670D02*
X-741990Y-663490D01*
X-742480Y-661160D01*
X-743120Y-659040D01*
X-743930Y-656720D01*
X-745210Y-653540D01*
X-738780D01*
G01X-756880Y-666240D02*
Y-653540D01*
X-750920Y-662640D01*
X-758970D01*
G01X-724590Y-610600D02*
X-723630Y-609960D01*
X-722500Y-609540D01*
X-721220D01*
X-719770Y-610180D01*
X-718640Y-611230D01*
X-717840Y-612500D01*
X-717190Y-614620D01*
X-717030Y-616530D01*
X-717360Y-618430D01*
X-717840Y-619700D01*
X-718800Y-620970D01*
X-719930Y-621820D01*
X-721050Y-622240D01*
X-722180D01*
X-723310Y-621820D01*
X-724270Y-621180D01*
X-725080Y-620340D01*
G01X-730470Y-619700D02*
X-731430Y-621180D01*
X-732720Y-622030D01*
X-734170Y-622240D01*
X-735450Y-622030D01*
X-736740Y-620970D01*
X-737540Y-619700D01*
X-737700Y-618430D01*
X-737380Y-616950D01*
X-736260Y-615890D01*
X-735130Y-615470D01*
X-733680D01*
G01X-735130D02*
X-736100Y-614830D01*
X-736900Y-613770D01*
X-737220Y-612500D01*
X-736900Y-611230D01*
X-736100Y-610180D01*
X-734650Y-609540D01*
X-733200Y-609750D01*
X-731750Y-610600D01*
G01X-746630Y-622240D02*
X-746950Y-619490D01*
X-747440Y-617160D01*
X-748080Y-615040D01*
X-748890Y-612720D01*
X-750170Y-609540D01*
X-743740D01*
G01X-725830Y-564240D02*
Y-551540D01*
X-729850D01*
X-731140Y-552180D01*
X-731940Y-553020D01*
X-732260Y-554720D01*
X-731940Y-556410D01*
X-730980Y-557470D01*
X-729850Y-558100D01*
X-725830D01*
G01X-729850D02*
X-732260Y-564240D01*
G01X-738940Y-558950D02*
X-740060Y-557470D01*
X-741030Y-556620D01*
X-742320Y-556200D01*
X-743440Y-556620D01*
X-744250Y-557470D01*
X-744890Y-558740D01*
X-745050Y-560220D01*
X-744890Y-561490D01*
X-744250Y-562760D01*
X-743280Y-563820D01*
X-742160Y-564240D01*
X-740870Y-563820D01*
X-739740Y-562550D01*
X-739100Y-560640D01*
X-738940Y-558530D01*
X-739260Y-555770D01*
X-739740Y-554290D01*
X-740550Y-552810D01*
X-741670Y-551750D01*
X-742800Y-551540D01*
X-743930Y-551960D01*
X-744730Y-553020D01*
G01X-754940Y-564240D02*
X-756070Y-564030D01*
X-757360Y-563390D01*
X-758160Y-562340D01*
X-758480Y-560850D01*
X-758160Y-559370D01*
X-757200Y-558100D01*
X-755750Y-557470D01*
X-754140D01*
X-753180Y-557040D01*
X-752370Y-555990D01*
X-752050Y-554500D01*
X-752530Y-553020D01*
X-753660Y-551960D01*
X-754940Y-551540D01*
X-756230Y-551960D01*
X-757360Y-553020D01*
X-757840Y-554500D01*
X-757520Y-555990D01*
X-756710Y-557040D01*
X-755750Y-557470D01*
X-754140D01*
X-752690Y-558100D01*
X-751730Y-559370D01*
X-751410Y-560850D01*
X-751730Y-562340D01*
X-752530Y-563390D01*
X-753820Y-564030D01*
X-754940Y-564240D01*
G01X-724590Y-508600D02*
X-723630Y-507960D01*
X-722500Y-507540D01*
X-721220D01*
X-719770Y-508180D01*
X-718640Y-509230D01*
X-717840Y-510500D01*
X-717190Y-512620D01*
X-717030Y-514530D01*
X-717360Y-516430D01*
X-717840Y-517700D01*
X-718800Y-518970D01*
X-719930Y-519820D01*
X-721050Y-520240D01*
X-722180D01*
X-723310Y-519820D01*
X-724270Y-519180D01*
X-725080Y-518340D01*
G01X-730470Y-517700D02*
X-731430Y-519180D01*
X-732720Y-520030D01*
X-734170Y-520240D01*
X-735450Y-520030D01*
X-736740Y-518970D01*
X-737540Y-517700D01*
X-737700Y-516430D01*
X-737380Y-514950D01*
X-736260Y-513890D01*
X-735130Y-513470D01*
X-733680D01*
G01X-735130D02*
X-736100Y-512830D01*
X-736900Y-511770D01*
X-737220Y-510500D01*
X-736900Y-509230D01*
X-736100Y-508180D01*
X-734650Y-507540D01*
X-733200Y-507750D01*
X-731750Y-508600D01*
G01X-748890Y-520240D02*
Y-507540D01*
X-742930Y-516640D01*
X-750980D01*
G01X-724590Y-406600D02*
X-723630Y-405960D01*
X-722500Y-405540D01*
X-721220D01*
X-719770Y-406180D01*
X-718640Y-407230D01*
X-717840Y-408500D01*
X-717190Y-410620D01*
X-717030Y-412530D01*
X-717360Y-414430D01*
X-717840Y-415700D01*
X-718800Y-416970D01*
X-719930Y-417820D01*
X-721050Y-418240D01*
X-722180D01*
X-723310Y-417820D01*
X-724270Y-417180D01*
X-725080Y-416340D01*
G01X-730470Y-415700D02*
X-731430Y-417180D01*
X-732720Y-418030D01*
X-734170Y-418240D01*
X-735450Y-418030D01*
X-736740Y-416970D01*
X-737540Y-415700D01*
X-737700Y-414430D01*
X-737380Y-412950D01*
X-736260Y-411890D01*
X-735130Y-411470D01*
X-733680D01*
G01X-735130D02*
X-736100Y-410830D01*
X-736900Y-409770D01*
X-737220Y-408500D01*
X-736900Y-407230D01*
X-736100Y-406180D01*
X-734650Y-405540D01*
X-733200Y-405750D01*
X-731750Y-406600D01*
G01X-746950Y-418240D02*
Y-405540D01*
X-745020Y-408080D01*
G01Y-418240D02*
X-748880D01*
G01X-725830Y-462240D02*
Y-449540D01*
X-729850D01*
X-731140Y-450180D01*
X-731940Y-451020D01*
X-732260Y-452720D01*
X-731940Y-454410D01*
X-730980Y-455470D01*
X-729850Y-456100D01*
X-725830D01*
G01X-729850D02*
X-732260Y-462240D01*
G01X-738940Y-456950D02*
X-740060Y-455470D01*
X-741030Y-454620D01*
X-742320Y-454200D01*
X-743440Y-454620D01*
X-744250Y-455470D01*
X-744890Y-456740D01*
X-745050Y-458220D01*
X-744890Y-459490D01*
X-744250Y-460760D01*
X-743280Y-461820D01*
X-742160Y-462240D01*
X-740870Y-461820D01*
X-739740Y-460550D01*
X-739100Y-458640D01*
X-738940Y-456530D01*
X-739260Y-453770D01*
X-739740Y-452290D01*
X-740550Y-450810D01*
X-741670Y-449750D01*
X-742800Y-449540D01*
X-743930Y-449960D01*
X-744730Y-451020D01*
G01X-751890Y-451660D02*
X-752850Y-450390D01*
X-753980Y-449750D01*
X-755270Y-449540D01*
X-756880Y-449960D01*
X-758000Y-451020D01*
X-758320Y-452290D01*
X-758160Y-453560D01*
X-757520Y-454620D01*
X-754300Y-456740D01*
X-752850Y-458220D01*
X-751890Y-460340D01*
X-751570Y-462240D01*
X-758320D01*
G01X-725830Y-360240D02*
Y-347540D01*
X-729850D01*
X-731140Y-348180D01*
X-731940Y-349020D01*
X-732260Y-350720D01*
X-731940Y-352410D01*
X-730980Y-353470D01*
X-729850Y-354100D01*
X-725830D01*
G01X-729850D02*
X-732260Y-360240D01*
G01X-741990D02*
Y-347540D01*
X-740060Y-350080D01*
G01Y-360240D02*
X-743920D01*
G01X-751410Y-357700D02*
X-752370Y-359180D01*
X-753660Y-360030D01*
X-755110Y-360240D01*
X-756390Y-360030D01*
X-757680Y-358970D01*
X-758480Y-357700D01*
X-758640Y-356430D01*
X-758320Y-354950D01*
X-757200Y-353890D01*
X-756070Y-353470D01*
X-754620D01*
G01X-756070D02*
X-757040Y-352830D01*
X-757840Y-351770D01*
X-758160Y-350500D01*
X-757840Y-349230D01*
X-757040Y-348180D01*
X-755590Y-347540D01*
X-754140Y-347750D01*
X-752690Y-348600D01*
G01X-725060Y-304600D02*
X-724100Y-303960D01*
X-722970Y-303540D01*
X-721690D01*
X-720240Y-304180D01*
X-719110Y-305230D01*
X-718310Y-306500D01*
X-717660Y-308620D01*
X-717500Y-310530D01*
X-717830Y-312430D01*
X-718310Y-313700D01*
X-719270Y-314970D01*
X-720400Y-315820D01*
X-721520Y-316240D01*
X-722650D01*
X-723780Y-315820D01*
X-724740Y-315180D01*
X-725550Y-314340D01*
G01X-734150Y-316240D02*
X-734470Y-313490D01*
X-734960Y-311160D01*
X-735600Y-309040D01*
X-736410Y-306720D01*
X-737690Y-303540D01*
X-731260D01*
G01X-724590Y55410D02*
X-723630Y56050D01*
X-722500Y56470D01*
X-721220D01*
X-719770Y55830D01*
X-718640Y54780D01*
X-717840Y53510D01*
X-717190Y51390D01*
X-717030Y49480D01*
X-717360Y47580D01*
X-717840Y46310D01*
X-718800Y45040D01*
X-719930Y44190D01*
X-721050Y43770D01*
X-722180D01*
X-723310Y44190D01*
X-724270Y44830D01*
X-725080Y45670D01*
G01X-730950Y54350D02*
X-731910Y55620D01*
X-733040Y56260D01*
X-734330Y56470D01*
X-735940Y56050D01*
X-737060Y54990D01*
X-737380Y53720D01*
X-737220Y52450D01*
X-736580Y51390D01*
X-733360Y49270D01*
X-731910Y47790D01*
X-730950Y45670D01*
X-730630Y43770D01*
X-737380D01*
G01X-743420Y45670D02*
X-744380Y44620D01*
X-745510Y43980D01*
X-746950Y43770D01*
X-748400Y44190D01*
X-749530Y45040D01*
X-750330Y46520D01*
X-750490Y48210D01*
X-750170Y49910D01*
X-749370Y50970D01*
X-748240Y51810D01*
X-747120Y52020D01*
X-745990Y51810D01*
X-744540Y50970D01*
X-745020Y56470D01*
X-749370D01*
G01X-725840Y1760D02*
Y14460D01*
X-729860D01*
X-731150Y13820D01*
X-731950Y12980D01*
X-732270Y11280D01*
X-731950Y9590D01*
X-730990Y8530D01*
X-729860Y7900D01*
X-725840D01*
G01X-729860D02*
X-732270Y1760D01*
G01X-738470Y3660D02*
X-739430Y2610D01*
X-740560Y1970D01*
X-742000Y1760D01*
X-743450Y2180D01*
X-744580Y3030D01*
X-745380Y4510D01*
X-745540Y6200D01*
X-745220Y7900D01*
X-744420Y8960D01*
X-743290Y9800D01*
X-742170Y10010D01*
X-741040Y9800D01*
X-739590Y8960D01*
X-740070Y14460D01*
X-744420D01*
G01X-751900Y7050D02*
X-753020Y8530D01*
X-753990Y9380D01*
X-755280Y9800D01*
X-756400Y9380D01*
X-757210Y8530D01*
X-757850Y7260D01*
X-758010Y5780D01*
X-757850Y4510D01*
X-757210Y3240D01*
X-756240Y2180D01*
X-755120Y1760D01*
X-753830Y2180D01*
X-752700Y3450D01*
X-752060Y5360D01*
X-751900Y7470D01*
X-752220Y10230D01*
X-752700Y11710D01*
X-753510Y13190D01*
X-754630Y14250D01*
X-755760Y14460D01*
X-756890Y14040D01*
X-757690Y12980D01*
G01X-725840Y101760D02*
Y114460D01*
X-729860D01*
X-731150Y113820D01*
X-731950Y112980D01*
X-732270Y111280D01*
X-731950Y109590D01*
X-730990Y108530D01*
X-729860Y107900D01*
X-725840D01*
G01X-729860D02*
X-732270Y101760D01*
G01X-738470Y103660D02*
X-739430Y102610D01*
X-740560Y101970D01*
X-742000Y101760D01*
X-743450Y102180D01*
X-744580Y103030D01*
X-745380Y104510D01*
X-745540Y106200D01*
X-745220Y107900D01*
X-744420Y108960D01*
X-743290Y109800D01*
X-742170Y110010D01*
X-741040Y109800D01*
X-739590Y108960D01*
X-740070Y114460D01*
X-744420D01*
G01X-754950D02*
X-753670Y114040D01*
X-752700Y112980D01*
X-752060Y111710D01*
X-751580Y110010D01*
X-751420Y108110D01*
X-751580Y106200D01*
X-752060Y104510D01*
X-752700Y103240D01*
X-753670Y102180D01*
X-754950Y101760D01*
X-756240Y102180D01*
X-757210Y103240D01*
X-757850Y104510D01*
X-758330Y106200D01*
X-758490Y108110D01*
X-758330Y110010D01*
X-757850Y111710D01*
X-757210Y112980D01*
X-756240Y114040D01*
X-754950Y114460D01*
G01X-724590Y157410D02*
X-723630Y158050D01*
X-722500Y158470D01*
X-721220D01*
X-719770Y157830D01*
X-718640Y156780D01*
X-717840Y155510D01*
X-717190Y153390D01*
X-717030Y151480D01*
X-717360Y149580D01*
X-717840Y148310D01*
X-718800Y147040D01*
X-719930Y146190D01*
X-721050Y145770D01*
X-722180D01*
X-723310Y146190D01*
X-724270Y146830D01*
X-725080Y147670D01*
G01X-730950Y156350D02*
X-731910Y157620D01*
X-733040Y158260D01*
X-734330Y158470D01*
X-735940Y158050D01*
X-737060Y156990D01*
X-737380Y155720D01*
X-737220Y154450D01*
X-736580Y153390D01*
X-733360Y151270D01*
X-731910Y149790D01*
X-730950Y147670D01*
X-730630Y145770D01*
X-737380D01*
G01X-746950D02*
X-748080Y145980D01*
X-749370Y146620D01*
X-750170Y147670D01*
X-750490Y149160D01*
X-750170Y150640D01*
X-749210Y151910D01*
X-747760Y152540D01*
X-746150D01*
X-745190Y152970D01*
X-744380Y154020D01*
X-744060Y155510D01*
X-744540Y156990D01*
X-745670Y158050D01*
X-746950Y158470D01*
X-748240Y158050D01*
X-749370Y156990D01*
X-749850Y155510D01*
X-749530Y154020D01*
X-748720Y152970D01*
X-747760Y152540D01*
X-746150D01*
X-744700Y151910D01*
X-743740Y150640D01*
X-743420Y149160D01*
X-743740Y147670D01*
X-744540Y146620D01*
X-745830Y145980D01*
X-746950Y145770D01*
G01X-724590Y259410D02*
X-723630Y260050D01*
X-722500Y260470D01*
X-721220D01*
X-719770Y259830D01*
X-718640Y258780D01*
X-717840Y257510D01*
X-717190Y255390D01*
X-717030Y253480D01*
X-717360Y251580D01*
X-717840Y250310D01*
X-718800Y249040D01*
X-719930Y248190D01*
X-721050Y247770D01*
X-722180D01*
X-723310Y248190D01*
X-724270Y248830D01*
X-725080Y249670D01*
G01X-730950Y258350D02*
X-731910Y259620D01*
X-733040Y260260D01*
X-734330Y260470D01*
X-735940Y260050D01*
X-737060Y258990D01*
X-737380Y257720D01*
X-737220Y256450D01*
X-736580Y255390D01*
X-733360Y253270D01*
X-731910Y251790D01*
X-730950Y249670D01*
X-730630Y247770D01*
X-737380D01*
G01X-743900Y258350D02*
X-744860Y259620D01*
X-745990Y260260D01*
X-747280Y260470D01*
X-748890Y260050D01*
X-750010Y258990D01*
X-750330Y257720D01*
X-750170Y256450D01*
X-749530Y255390D01*
X-746310Y253270D01*
X-744860Y251790D01*
X-743900Y249670D01*
X-743580Y247770D01*
X-750330D01*
G01X-725840Y203760D02*
Y216460D01*
X-729860D01*
X-731150Y215820D01*
X-731950Y214980D01*
X-732270Y213280D01*
X-731950Y211590D01*
X-730990Y210530D01*
X-729860Y209900D01*
X-725840D01*
G01X-729860D02*
X-732270Y203760D01*
G01X-743940D02*
Y216460D01*
X-737980Y207360D01*
X-746030D01*
G01X-756890Y203760D02*
Y216460D01*
X-750930Y207360D01*
X-758980D01*
G01X-724590Y361410D02*
X-723630Y362050D01*
X-722500Y362470D01*
X-721220D01*
X-719770Y361830D01*
X-718640Y360780D01*
X-717840Y359510D01*
X-717190Y357390D01*
X-717030Y355480D01*
X-717360Y353580D01*
X-717840Y352310D01*
X-718800Y351040D01*
X-719930Y350190D01*
X-721050Y349770D01*
X-722180D01*
X-723310Y350190D01*
X-724270Y350830D01*
X-725080Y351670D01*
G01X-734000Y349770D02*
Y362470D01*
X-732070Y359930D01*
G01Y349770D02*
X-735930D01*
G01X-744220Y351250D02*
X-745350Y350190D01*
X-746630Y349770D01*
X-747920Y350190D01*
X-749050Y351460D01*
X-749850Y353370D01*
X-750170Y355270D01*
Y357600D01*
X-749850Y359510D01*
X-749050Y361200D01*
X-748080Y362050D01*
X-746950Y362470D01*
X-745670Y362050D01*
X-744700Y361200D01*
X-744060Y359930D01*
X-743740Y358240D01*
X-744060Y356760D01*
X-744860Y355270D01*
X-745830Y354430D01*
X-746950Y354210D01*
X-748240Y354640D01*
X-749210Y355700D01*
X-750170Y357600D01*
G01X-725840Y305760D02*
Y318460D01*
X-729860D01*
X-731150Y317820D01*
X-731950Y316980D01*
X-732270Y315280D01*
X-731950Y313590D01*
X-730990Y312530D01*
X-729860Y311900D01*
X-725840D01*
G01X-729860D02*
X-732270Y305760D01*
G01X-738470Y308300D02*
X-739430Y306820D01*
X-740720Y305970D01*
X-742170Y305760D01*
X-743450Y305970D01*
X-744740Y307030D01*
X-745540Y308300D01*
X-745700Y309570D01*
X-745380Y311050D01*
X-744260Y312110D01*
X-743130Y312530D01*
X-741680D01*
G01X-743130D02*
X-744100Y313170D01*
X-744900Y314230D01*
X-745220Y315500D01*
X-744900Y316770D01*
X-744100Y317820D01*
X-742650Y318460D01*
X-741200Y318250D01*
X-739750Y317400D01*
G01X-754950Y305760D02*
X-756080Y305970D01*
X-757370Y306610D01*
X-758170Y307660D01*
X-758490Y309150D01*
X-758170Y310630D01*
X-757210Y311900D01*
X-755760Y312530D01*
X-754150D01*
X-753190Y312960D01*
X-752380Y314010D01*
X-752060Y315500D01*
X-752540Y316980D01*
X-753670Y318040D01*
X-754950Y318460D01*
X-756240Y318040D01*
X-757370Y316980D01*
X-757850Y315500D01*
X-757530Y314010D01*
X-756720Y312960D01*
X-755760Y312530D01*
X-754150D01*
X-752700Y311900D01*
X-751740Y310630D01*
X-751420Y309150D01*
X-751740Y307660D01*
X-752540Y306610D01*
X-753830Y305970D01*
X-754950Y305760D01*
G01X-725840Y407760D02*
Y420460D01*
X-729860D01*
X-731150Y419820D01*
X-731950Y418980D01*
X-732270Y417280D01*
X-731950Y415590D01*
X-730990Y414530D01*
X-729860Y413900D01*
X-725840D01*
G01X-729860D02*
X-732270Y407760D01*
G01X-738470Y410300D02*
X-739430Y408820D01*
X-740720Y407970D01*
X-742170Y407760D01*
X-743450Y407970D01*
X-744740Y409030D01*
X-745540Y410300D01*
X-745700Y411570D01*
X-745380Y413050D01*
X-744260Y414110D01*
X-743130Y414530D01*
X-741680D01*
G01X-743130D02*
X-744100Y415170D01*
X-744900Y416230D01*
X-745220Y417500D01*
X-744900Y418770D01*
X-744100Y419820D01*
X-742650Y420460D01*
X-741200Y420250D01*
X-739750Y419400D01*
G01X-751900Y418340D02*
X-752860Y419610D01*
X-753990Y420250D01*
X-755280Y420460D01*
X-756890Y420040D01*
X-758010Y418980D01*
X-758330Y417710D01*
X-758170Y416440D01*
X-757530Y415380D01*
X-754310Y413260D01*
X-752860Y411780D01*
X-751900Y409660D01*
X-751580Y407760D01*
X-758330D01*
G01X-724590Y463410D02*
X-723630Y464050D01*
X-722500Y464470D01*
X-721220D01*
X-719770Y463830D01*
X-718640Y462780D01*
X-717840Y461510D01*
X-717190Y459390D01*
X-717030Y457480D01*
X-717360Y455580D01*
X-717840Y454310D01*
X-718800Y453040D01*
X-719930Y452190D01*
X-721050Y451770D01*
X-722180D01*
X-723310Y452190D01*
X-724270Y452830D01*
X-725080Y453670D01*
G01X-734000Y451770D02*
Y464470D01*
X-732070Y461930D01*
G01Y451770D02*
X-735930D01*
G01X-743900Y457060D02*
X-745020Y458540D01*
X-745990Y459390D01*
X-747280Y459810D01*
X-748400Y459390D01*
X-749210Y458540D01*
X-749850Y457270D01*
X-750010Y455790D01*
X-749850Y454520D01*
X-749210Y453250D01*
X-748240Y452190D01*
X-747120Y451770D01*
X-745830Y452190D01*
X-744700Y453460D01*
X-744060Y455370D01*
X-743900Y457480D01*
X-744220Y460240D01*
X-744700Y461720D01*
X-745510Y463200D01*
X-746630Y464260D01*
X-747760Y464470D01*
X-748890Y464050D01*
X-749690Y462990D01*
G01X-724590Y565410D02*
X-723630Y566050D01*
X-722500Y566470D01*
X-721220D01*
X-719770Y565830D01*
X-718640Y564780D01*
X-717840Y563510D01*
X-717190Y561390D01*
X-717030Y559480D01*
X-717360Y557580D01*
X-717840Y556310D01*
X-718800Y555040D01*
X-719930Y554190D01*
X-721050Y553770D01*
X-722180D01*
X-723310Y554190D01*
X-724270Y554830D01*
X-725080Y555670D01*
G01X-734000Y553770D02*
Y566470D01*
X-732070Y563930D01*
G01Y553770D02*
X-735930D01*
G01X-743420Y556310D02*
X-744380Y554830D01*
X-745670Y553980D01*
X-747120Y553770D01*
X-748400Y553980D01*
X-749690Y555040D01*
X-750490Y556310D01*
X-750650Y557580D01*
X-750330Y559060D01*
X-749210Y560120D01*
X-748080Y560540D01*
X-746630D01*
G01X-748080D02*
X-749050Y561180D01*
X-749850Y562240D01*
X-750170Y563510D01*
X-749850Y564780D01*
X-749050Y565830D01*
X-747600Y566470D01*
X-746150Y566260D01*
X-744700Y565410D01*
G01X-725840Y509760D02*
Y522460D01*
X-729860D01*
X-731150Y521820D01*
X-731950Y520980D01*
X-732270Y519280D01*
X-731950Y517590D01*
X-730990Y516530D01*
X-729860Y515900D01*
X-725840D01*
G01X-729860D02*
X-732270Y509760D01*
G01X-738950Y520340D02*
X-739910Y521610D01*
X-741040Y522250D01*
X-742330Y522460D01*
X-743940Y522040D01*
X-745060Y520980D01*
X-745380Y519710D01*
X-745220Y518440D01*
X-744580Y517380D01*
X-741360Y515260D01*
X-739910Y513780D01*
X-738950Y511660D01*
X-738630Y509760D01*
X-745380D01*
G01X-751900Y515050D02*
X-753020Y516530D01*
X-753990Y517380D01*
X-755280Y517800D01*
X-756400Y517380D01*
X-757210Y516530D01*
X-757850Y515260D01*
X-758010Y513780D01*
X-757850Y512510D01*
X-757210Y511240D01*
X-756240Y510180D01*
X-755120Y509760D01*
X-753830Y510180D01*
X-752700Y511450D01*
X-752060Y513360D01*
X-751900Y515470D01*
X-752220Y518230D01*
X-752700Y519710D01*
X-753510Y521190D01*
X-754630Y522250D01*
X-755760Y522460D01*
X-756890Y522040D01*
X-757690Y520980D01*
G01X-724590Y667410D02*
X-723630Y668050D01*
X-722500Y668470D01*
X-721220D01*
X-719770Y667830D01*
X-718640Y666780D01*
X-717840Y665510D01*
X-717190Y663390D01*
X-717030Y661480D01*
X-717360Y659580D01*
X-717840Y658310D01*
X-718800Y657040D01*
X-719930Y656190D01*
X-721050Y655770D01*
X-722180D01*
X-723310Y656190D01*
X-724270Y656830D01*
X-725080Y657670D01*
G01X-734000Y655770D02*
Y668470D01*
X-732070Y665930D01*
G01Y655770D02*
X-735930D01*
G01X-746950Y668470D02*
X-745670Y668050D01*
X-744700Y666990D01*
X-744060Y665720D01*
X-743580Y664020D01*
X-743420Y662120D01*
X-743580Y660210D01*
X-744060Y658520D01*
X-744700Y657250D01*
X-745670Y656190D01*
X-746950Y655770D01*
X-748240Y656190D01*
X-749210Y657250D01*
X-749850Y658520D01*
X-750330Y660210D01*
X-750490Y662120D01*
X-750330Y664020D01*
X-749850Y665720D01*
X-749210Y666990D01*
X-748240Y668050D01*
X-746950Y668470D01*
G01X-725840Y611760D02*
Y624460D01*
X-729860D01*
X-731150Y623820D01*
X-731950Y622980D01*
X-732270Y621280D01*
X-731950Y619590D01*
X-730990Y618530D01*
X-729860Y617900D01*
X-725840D01*
G01X-729860D02*
X-732270Y611760D01*
G01X-738950Y622340D02*
X-739910Y623610D01*
X-741040Y624250D01*
X-742330Y624460D01*
X-743940Y624040D01*
X-745060Y622980D01*
X-745380Y621710D01*
X-745220Y620440D01*
X-744580Y619380D01*
X-741360Y617260D01*
X-739910Y615780D01*
X-738950Y613660D01*
X-738630Y611760D01*
X-745380D01*
G01X-754950Y624460D02*
X-753670Y624040D01*
X-752700Y622980D01*
X-752060Y621710D01*
X-751580Y620010D01*
X-751420Y618110D01*
X-751580Y616200D01*
X-752060Y614510D01*
X-752700Y613240D01*
X-753670Y612180D01*
X-754950Y611760D01*
X-756240Y612180D01*
X-757210Y613240D01*
X-757850Y614510D01*
X-758330Y616200D01*
X-758490Y618110D01*
X-758330Y620010D01*
X-757850Y621710D01*
X-757210Y622980D01*
X-756240Y624040D01*
X-754950Y624460D01*
G01X-726310Y711760D02*
Y724460D01*
X-730330D01*
X-731620Y723820D01*
X-732420Y722980D01*
X-732740Y721280D01*
X-732420Y719590D01*
X-731460Y718530D01*
X-730330Y717900D01*
X-726310D01*
G01X-730330D02*
X-732740Y711760D01*
G01X-742150D02*
X-742470Y714510D01*
X-742960Y716840D01*
X-743600Y718960D01*
X-744410Y721280D01*
X-745690Y724460D01*
X-739260D01*
G01X-725060Y769410D02*
X-724100Y770050D01*
X-722970Y770470D01*
X-721690D01*
X-720240Y769830D01*
X-719110Y768780D01*
X-718310Y767510D01*
X-717660Y765390D01*
X-717500Y763480D01*
X-717830Y761580D01*
X-718310Y760310D01*
X-719270Y759040D01*
X-720400Y758190D01*
X-721520Y757770D01*
X-722650D01*
X-723780Y758190D01*
X-724740Y758830D01*
X-725550Y759670D01*
G01X-736410Y757770D02*
Y770470D01*
X-730450Y761370D01*
X-738500D01*
G01X-630550Y-1020240D02*
X-634570Y-1007540D01*
X-638600Y-1020240D01*
G01X-637150Y-1015800D02*
X-632000D01*
G01X-643500Y-1007540D02*
X-647520Y-1020240D01*
X-651550Y-1007540D01*
G01X-660470Y-1020240D02*
Y-1007540D01*
X-658540Y-1010080D01*
G01Y-1020240D02*
X-662400D01*
G01X-670370Y-1014950D02*
X-671490Y-1013470D01*
X-672460Y-1012620D01*
X-673750Y-1012200D01*
X-674870Y-1012620D01*
X-675680Y-1013470D01*
X-676320Y-1014740D01*
X-676480Y-1016220D01*
X-676320Y-1017490D01*
X-675680Y-1018760D01*
X-674710Y-1019820D01*
X-673590Y-1020240D01*
X-672300Y-1019820D01*
X-671170Y-1018550D01*
X-670530Y-1016640D01*
X-670370Y-1014530D01*
X-670690Y-1011770D01*
X-671170Y-1010290D01*
X-671980Y-1008810D01*
X-673100Y-1007750D01*
X-674230Y-1007540D01*
X-675360Y-1007960D01*
X-676160Y-1009020D01*
G01X-698500Y-1026350D02*
Y-1018350D01*
G01X-630550Y-920240D02*
X-634570Y-907540D01*
X-638600Y-920240D01*
G01X-637150Y-915800D02*
X-632000D01*
G01X-643500Y-907540D02*
X-647520Y-920240D01*
X-651550Y-907540D01*
G01X-660470Y-920240D02*
Y-907540D01*
X-658540Y-910080D01*
G01Y-920240D02*
X-662400D01*
G01X-669890Y-918340D02*
X-670850Y-919390D01*
X-671980Y-920030D01*
X-673420Y-920240D01*
X-674870Y-919820D01*
X-676000Y-918970D01*
X-676800Y-917490D01*
X-676960Y-915800D01*
X-676640Y-914100D01*
X-675840Y-913040D01*
X-674710Y-912200D01*
X-673590Y-911990D01*
X-672460Y-912200D01*
X-671010Y-913040D01*
X-671490Y-907540D01*
X-675840D01*
G01X-698500Y-924750D02*
Y-916750D01*
G01X-630550Y-820240D02*
X-634570Y-807540D01*
X-638600Y-820240D01*
G01X-637150Y-815800D02*
X-632000D01*
G01X-643500Y-807540D02*
X-647520Y-820240D01*
X-651550Y-807540D01*
G01X-660470Y-820240D02*
Y-807540D01*
X-658540Y-810080D01*
G01Y-820240D02*
X-662400D01*
G01X-675360D02*
Y-807540D01*
X-669400Y-816640D01*
X-677450D01*
G01X-698500Y-823150D02*
Y-815150D01*
G01X-630550Y-718240D02*
X-634570Y-705540D01*
X-638600Y-718240D01*
G01X-637150Y-713800D02*
X-632000D01*
G01X-643500Y-705540D02*
X-647520Y-718240D01*
X-651550Y-705540D01*
G01X-660470Y-718240D02*
Y-705540D01*
X-658540Y-708080D01*
G01Y-718240D02*
X-662400D01*
G01X-669890Y-715700D02*
X-670850Y-717180D01*
X-672140Y-718030D01*
X-673590Y-718240D01*
X-674870Y-718030D01*
X-676160Y-716970D01*
X-676960Y-715700D01*
X-677120Y-714430D01*
X-676800Y-712950D01*
X-675680Y-711890D01*
X-674550Y-711470D01*
X-673100D01*
G01X-674550D02*
X-675520Y-710830D01*
X-676320Y-709770D01*
X-676640Y-708500D01*
X-676320Y-707230D01*
X-675520Y-706180D01*
X-674070Y-705540D01*
X-672620Y-705750D01*
X-671170Y-706600D01*
G01X-698500Y-721550D02*
Y-713550D01*
G01X-628550Y-616240D02*
X-632570Y-603540D01*
X-636600Y-616240D01*
G01X-635150Y-611800D02*
X-630000D01*
G01X-641500Y-603540D02*
X-645520Y-616240D01*
X-649550Y-603540D01*
G01X-658470Y-616240D02*
Y-603540D01*
X-656540Y-606080D01*
G01Y-616240D02*
X-660400D01*
G01X-668370Y-605660D02*
X-669330Y-604390D01*
X-670460Y-603750D01*
X-671750Y-603540D01*
X-673360Y-603960D01*
X-674480Y-605020D01*
X-674800Y-606290D01*
X-674640Y-607560D01*
X-674000Y-608620D01*
X-670780Y-610740D01*
X-669330Y-612220D01*
X-668370Y-614340D01*
X-668050Y-616240D01*
X-674800D01*
G01X-698500Y-619950D02*
Y-611950D01*
G01X-630550Y-514240D02*
X-634570Y-501540D01*
X-638600Y-514240D01*
G01X-637150Y-509800D02*
X-632000D01*
G01X-643500Y-501540D02*
X-647520Y-514240D01*
X-651550Y-501540D01*
G01X-660470Y-514240D02*
Y-501540D01*
X-658540Y-504080D01*
G01Y-514240D02*
X-662400D01*
G01X-673420D02*
Y-501540D01*
X-671490Y-504080D01*
G01Y-514240D02*
X-675350D01*
G01X-698500Y-518350D02*
Y-510350D01*
G01X-630550Y-414240D02*
X-634570Y-401540D01*
X-638600Y-414240D01*
G01X-637150Y-409800D02*
X-632000D01*
G01X-643500Y-401540D02*
X-647520Y-414240D01*
X-651550Y-401540D01*
G01X-660470Y-414240D02*
Y-401540D01*
X-658540Y-404080D01*
G01Y-414240D02*
X-662400D01*
G01X-673420Y-401540D02*
X-672140Y-401960D01*
X-671170Y-403020D01*
X-670530Y-404290D01*
X-670050Y-405990D01*
X-669890Y-407890D01*
X-670050Y-409800D01*
X-670530Y-411490D01*
X-671170Y-412760D01*
X-672140Y-413820D01*
X-673420Y-414240D01*
X-674710Y-413820D01*
X-675680Y-412760D01*
X-676320Y-411490D01*
X-676800Y-409800D01*
X-676960Y-407890D01*
X-676800Y-405990D01*
X-676320Y-404290D01*
X-675680Y-403020D01*
X-674710Y-401960D01*
X-673420Y-401540D01*
G01X-698500Y-416750D02*
Y-408750D01*
G01X-637030Y-314240D02*
X-641050Y-301540D01*
X-645080Y-314240D01*
G01X-643630Y-309800D02*
X-638480D01*
G01X-649980Y-301540D02*
X-654000Y-314240D01*
X-658030Y-301540D01*
G01X-663900Y-303660D02*
X-664860Y-302390D01*
X-665990Y-301750D01*
X-667280Y-301540D01*
X-668890Y-301960D01*
X-670010Y-303020D01*
X-670330Y-304290D01*
X-670170Y-305560D01*
X-669530Y-306620D01*
X-666310Y-308740D01*
X-664860Y-310220D01*
X-663900Y-312340D01*
X-663580Y-314240D01*
X-670330D01*
G01X-698500Y-315150D02*
Y-307150D01*
G01X-637030Y49770D02*
X-641050Y62470D01*
X-645080Y49770D01*
G01X-643630Y54210D02*
X-638480D01*
G01X-649980Y62470D02*
X-654000Y49770D01*
X-658030Y62470D01*
G01X-664220Y51250D02*
X-665350Y50190D01*
X-666630Y49770D01*
X-667920Y50190D01*
X-669050Y51460D01*
X-669850Y53370D01*
X-670170Y55270D01*
Y57600D01*
X-669850Y59510D01*
X-669050Y61200D01*
X-668080Y62050D01*
X-666950Y62470D01*
X-665670Y62050D01*
X-664700Y61200D01*
X-664060Y59930D01*
X-663740Y58240D01*
X-664060Y56760D01*
X-664860Y55270D01*
X-665830Y54430D01*
X-666950Y54210D01*
X-668240Y54640D01*
X-669210Y55700D01*
X-670170Y57600D01*
G01X-698500Y46800D02*
Y54800D01*
G01X-637030Y151770D02*
X-641050Y164470D01*
X-645080Y151770D01*
G01X-643630Y156210D02*
X-638480D01*
G01X-649980Y164470D02*
X-654000Y151770D01*
X-658030Y164470D01*
G01X-666950Y151770D02*
X-668080Y151980D01*
X-669370Y152620D01*
X-670170Y153670D01*
X-670490Y155160D01*
X-670170Y156640D01*
X-669210Y157910D01*
X-667760Y158540D01*
X-666150D01*
X-665190Y158970D01*
X-664380Y160020D01*
X-664060Y161510D01*
X-664540Y162990D01*
X-665670Y164050D01*
X-666950Y164470D01*
X-668240Y164050D01*
X-669370Y162990D01*
X-669850Y161510D01*
X-669530Y160020D01*
X-668720Y158970D01*
X-667760Y158540D01*
X-666150D01*
X-664700Y157910D01*
X-663740Y156640D01*
X-663420Y155160D01*
X-663740Y153670D01*
X-664540Y152620D01*
X-665830Y151980D01*
X-666950Y151770D01*
G01X-698500Y148400D02*
Y156400D01*
G01X-637030Y253770D02*
X-641050Y266470D01*
X-645080Y253770D01*
G01X-643630Y258210D02*
X-638480D01*
G01X-649980Y266470D02*
X-654000Y253770D01*
X-658030Y266470D01*
G01X-666630Y253770D02*
X-666950Y256520D01*
X-667440Y258850D01*
X-668080Y260970D01*
X-668890Y263290D01*
X-670170Y266470D01*
X-663740D01*
G01X-698500Y250000D02*
Y258000D01*
G01X-637030Y355770D02*
X-641050Y368470D01*
X-645080Y355770D01*
G01X-643630Y360210D02*
X-638480D01*
G01X-649980Y368470D02*
X-654000Y355770D01*
X-658030Y368470D01*
G01X-663900Y361060D02*
X-665020Y362540D01*
X-665990Y363390D01*
X-667280Y363810D01*
X-668400Y363390D01*
X-669210Y362540D01*
X-669850Y361270D01*
X-670010Y359790D01*
X-669850Y358520D01*
X-669210Y357250D01*
X-668240Y356190D01*
X-667120Y355770D01*
X-665830Y356190D01*
X-664700Y357460D01*
X-664060Y359370D01*
X-663900Y361480D01*
X-664220Y364240D01*
X-664700Y365720D01*
X-665510Y367200D01*
X-666630Y368260D01*
X-667760Y368470D01*
X-668890Y368050D01*
X-669690Y366990D01*
G01X-698500Y351600D02*
Y359600D01*
G01X-637030Y457770D02*
X-641050Y470470D01*
X-645080Y457770D01*
G01X-643630Y462210D02*
X-638480D01*
G01X-649980Y470470D02*
X-654000Y457770D01*
X-658030Y470470D01*
G01X-663420Y459670D02*
X-664380Y458620D01*
X-665510Y457980D01*
X-666950Y457770D01*
X-668400Y458190D01*
X-669530Y459040D01*
X-670330Y460520D01*
X-670490Y462210D01*
X-670170Y463910D01*
X-669370Y464970D01*
X-668240Y465810D01*
X-667120Y466020D01*
X-665990Y465810D01*
X-664540Y464970D01*
X-665020Y470470D01*
X-669370D01*
G01X-698500Y453200D02*
Y461200D01*
G01X-637030Y557770D02*
X-641050Y570470D01*
X-645080Y557770D01*
G01X-643630Y562210D02*
X-638480D01*
G01X-649980Y570470D02*
X-654000Y557770D01*
X-658030Y570470D01*
G01X-668890Y557770D02*
Y570470D01*
X-662930Y561370D01*
X-670980D01*
G01X-698500Y554800D02*
Y562800D01*
G01X-637030Y659770D02*
X-641050Y672470D01*
X-645080Y659770D01*
G01X-643630Y664210D02*
X-638480D01*
G01X-649980Y672470D02*
X-654000Y659770D01*
X-658030Y672470D01*
G01X-663420Y662310D02*
X-664380Y660830D01*
X-665670Y659980D01*
X-667120Y659770D01*
X-668400Y659980D01*
X-669690Y661040D01*
X-670490Y662310D01*
X-670650Y663580D01*
X-670330Y665060D01*
X-669210Y666120D01*
X-668080Y666540D01*
X-666630D01*
G01X-668080D02*
X-669050Y667180D01*
X-669850Y668240D01*
X-670170Y669510D01*
X-669850Y670780D01*
X-669050Y671830D01*
X-667600Y672470D01*
X-666150Y672260D01*
X-664700Y671410D01*
G01X-698500Y656400D02*
Y664400D01*
G01X-637030Y761770D02*
X-641050Y774470D01*
X-645080Y761770D01*
G01X-643630Y766210D02*
X-638480D01*
G01X-649980Y774470D02*
X-654000Y761770D01*
X-658030Y774470D01*
G01X-666950Y761770D02*
Y774470D01*
X-665020Y771930D01*
G01Y761770D02*
X-668880D01*
G01X-698500Y758000D02*
Y766000D01*
G01X-586550Y-1079540D02*
X-590570Y-1092240D01*
X-594600Y-1079540D01*
G01X-599990Y-1092240D02*
Y-1079540D01*
X-603200D01*
X-604490Y-1080180D01*
X-605460Y-1081020D01*
X-606260Y-1082290D01*
X-606900Y-1083770D01*
X-607060Y-1085890D01*
X-606900Y-1088010D01*
X-606260Y-1089490D01*
X-605460Y-1090760D01*
X-604490Y-1091610D01*
X-603200Y-1092240D01*
X-599990D01*
G01X-616470D02*
X-617600Y-1092030D01*
X-618890Y-1091390D01*
X-619690Y-1090340D01*
X-620010Y-1088850D01*
X-619690Y-1087370D01*
X-618730Y-1086100D01*
X-617280Y-1085470D01*
X-615670D01*
X-614710Y-1085040D01*
X-613900Y-1083990D01*
X-613580Y-1082500D01*
X-614060Y-1081020D01*
X-615190Y-1079960D01*
X-616470Y-1079540D01*
X-617760Y-1079960D01*
X-618890Y-1081020D01*
X-619370Y-1082500D01*
X-619050Y-1083990D01*
X-618240Y-1085040D01*
X-617280Y-1085470D01*
X-615670D01*
X-614220Y-1086100D01*
X-613260Y-1087370D01*
X-612940Y-1088850D01*
X-613260Y-1090340D01*
X-614060Y-1091390D01*
X-615350Y-1092030D01*
X-616470Y-1092240D01*
G01X-626370Y-1081660D02*
X-627330Y-1080390D01*
X-628460Y-1079750D01*
X-629750Y-1079540D01*
X-631360Y-1079960D01*
X-632480Y-1081020D01*
X-632800Y-1082290D01*
X-632640Y-1083560D01*
X-632000Y-1084620D01*
X-628780Y-1086740D01*
X-627330Y-1088220D01*
X-626370Y-1090340D01*
X-626050Y-1092240D01*
X-632800D01*
G01X-583550Y-994540D02*
X-587570Y-1007240D01*
X-591600Y-994540D01*
G01X-596990Y-1007240D02*
Y-994540D01*
X-600200D01*
X-601490Y-995180D01*
X-602460Y-996020D01*
X-603260Y-997290D01*
X-603900Y-998770D01*
X-604060Y-1000890D01*
X-603900Y-1003010D01*
X-603260Y-1004490D01*
X-602460Y-1005760D01*
X-601490Y-1006610D01*
X-600200Y-1007240D01*
X-596990D01*
G01X-613470D02*
X-614600Y-1007030D01*
X-615890Y-1006390D01*
X-616690Y-1005340D01*
X-617010Y-1003850D01*
X-616690Y-1002370D01*
X-615730Y-1001100D01*
X-614280Y-1000470D01*
X-612670D01*
X-611710Y-1000040D01*
X-610900Y-998990D01*
X-610580Y-997500D01*
X-611060Y-996020D01*
X-612190Y-994960D01*
X-613470Y-994540D01*
X-614760Y-994960D01*
X-615890Y-996020D01*
X-616370Y-997500D01*
X-616050Y-998990D01*
X-615240Y-1000040D01*
X-614280Y-1000470D01*
X-612670D01*
X-611220Y-1001100D01*
X-610260Y-1002370D01*
X-609940Y-1003850D01*
X-610260Y-1005340D01*
X-611060Y-1006390D01*
X-612350Y-1007030D01*
X-613470Y-1007240D01*
G01X-626420Y-994540D02*
X-625140Y-994960D01*
X-624170Y-996020D01*
X-623530Y-997290D01*
X-623050Y-998990D01*
X-622890Y-1000890D01*
X-623050Y-1002800D01*
X-623530Y-1004490D01*
X-624170Y-1005760D01*
X-625140Y-1006820D01*
X-626420Y-1007240D01*
X-627710Y-1006820D01*
X-628680Y-1005760D01*
X-629320Y-1004490D01*
X-629800Y-1002800D01*
X-629960Y-1000890D01*
X-629800Y-998990D01*
X-629320Y-997290D01*
X-628680Y-996020D01*
X-627710Y-994960D01*
X-626420Y-994540D01*
G01X-586550Y-977530D02*
X-590570Y-990230D01*
X-594600Y-977530D01*
G01X-599990Y-990230D02*
Y-977530D01*
X-603200D01*
X-604490Y-978170D01*
X-605460Y-979010D01*
X-606260Y-980280D01*
X-606900Y-981760D01*
X-607060Y-983880D01*
X-606900Y-986000D01*
X-606260Y-987480D01*
X-605460Y-988750D01*
X-604490Y-989600D01*
X-603200Y-990230D01*
X-599990D01*
G01X-616150D02*
X-616470Y-987480D01*
X-616960Y-985150D01*
X-617600Y-983030D01*
X-618410Y-980710D01*
X-619690Y-977530D01*
X-613260D01*
G01X-629100Y-990230D02*
X-629420Y-987480D01*
X-629910Y-985150D01*
X-630550Y-983030D01*
X-631360Y-980710D01*
X-632640Y-977530D01*
X-626210D01*
G01X-584550Y-893540D02*
X-588570Y-906240D01*
X-592600Y-893540D01*
G01X-597990Y-906240D02*
Y-893540D01*
X-601200D01*
X-602490Y-894180D01*
X-603460Y-895020D01*
X-604260Y-896290D01*
X-604900Y-897770D01*
X-605060Y-899890D01*
X-604900Y-902010D01*
X-604260Y-903490D01*
X-603460Y-904760D01*
X-602490Y-905610D01*
X-601200Y-906240D01*
X-597990D01*
G01X-614150D02*
X-614470Y-903490D01*
X-614960Y-901160D01*
X-615600Y-899040D01*
X-616410Y-896720D01*
X-617690Y-893540D01*
X-611260D01*
G01X-623890Y-904340D02*
X-624850Y-905390D01*
X-625980Y-906030D01*
X-627420Y-906240D01*
X-628870Y-905820D01*
X-630000Y-904970D01*
X-630800Y-903490D01*
X-630960Y-901800D01*
X-630640Y-900100D01*
X-629840Y-899040D01*
X-628710Y-898200D01*
X-627590Y-897990D01*
X-626460Y-898200D01*
X-625010Y-899040D01*
X-625490Y-893540D01*
X-629840D01*
G01X-588550Y-875530D02*
X-592570Y-888230D01*
X-596600Y-875530D01*
G01X-601990Y-888230D02*
Y-875530D01*
X-605200D01*
X-606490Y-876170D01*
X-607460Y-877010D01*
X-608260Y-878280D01*
X-608900Y-879760D01*
X-609060Y-881880D01*
X-608900Y-884000D01*
X-608260Y-885480D01*
X-607460Y-886750D01*
X-606490Y-887600D01*
X-605200Y-888230D01*
X-601990D01*
G01X-618150D02*
X-618470Y-885480D01*
X-618960Y-883150D01*
X-619600Y-881030D01*
X-620410Y-878710D01*
X-621690Y-875530D01*
X-615260D01*
G01X-628370Y-877650D02*
X-629330Y-876380D01*
X-630460Y-875740D01*
X-631750Y-875530D01*
X-633360Y-875950D01*
X-634480Y-877010D01*
X-634800Y-878280D01*
X-634640Y-879550D01*
X-634000Y-880610D01*
X-630780Y-882730D01*
X-629330Y-884210D01*
X-628370Y-886330D01*
X-628050Y-888230D01*
X-634800D01*
G01X-584550Y-793540D02*
X-588570Y-806240D01*
X-592600Y-793540D01*
G01X-597990Y-806240D02*
Y-793540D01*
X-601200D01*
X-602490Y-794180D01*
X-603460Y-795020D01*
X-604260Y-796290D01*
X-604900Y-797770D01*
X-605060Y-799890D01*
X-604900Y-802010D01*
X-604260Y-803490D01*
X-603460Y-804760D01*
X-602490Y-805610D01*
X-601200Y-806240D01*
X-597990D01*
G01X-614150D02*
X-614470Y-803490D01*
X-614960Y-801160D01*
X-615600Y-799040D01*
X-616410Y-796720D01*
X-617690Y-793540D01*
X-611260D01*
G01X-627420D02*
X-626140Y-793960D01*
X-625170Y-795020D01*
X-624530Y-796290D01*
X-624050Y-797990D01*
X-623890Y-799890D01*
X-624050Y-801800D01*
X-624530Y-803490D01*
X-625170Y-804760D01*
X-626140Y-805820D01*
X-627420Y-806240D01*
X-628710Y-805820D01*
X-629680Y-804760D01*
X-630320Y-803490D01*
X-630800Y-801800D01*
X-630960Y-799890D01*
X-630800Y-797990D01*
X-630320Y-796290D01*
X-629680Y-795020D01*
X-628710Y-793960D01*
X-627420Y-793540D01*
G01X-586550Y-773530D02*
X-590570Y-786230D01*
X-594600Y-773530D01*
G01X-599990Y-786230D02*
Y-773530D01*
X-603200D01*
X-604490Y-774170D01*
X-605460Y-775010D01*
X-606260Y-776280D01*
X-606900Y-777760D01*
X-607060Y-779880D01*
X-606900Y-782000D01*
X-606260Y-783480D01*
X-605460Y-784750D01*
X-604490Y-785600D01*
X-603200Y-786230D01*
X-599990D01*
G01X-613420Y-780940D02*
X-614540Y-779460D01*
X-615510Y-778610D01*
X-616800Y-778190D01*
X-617920Y-778610D01*
X-618730Y-779460D01*
X-619370Y-780730D01*
X-619530Y-782210D01*
X-619370Y-783480D01*
X-618730Y-784750D01*
X-617760Y-785810D01*
X-616640Y-786230D01*
X-615350Y-785810D01*
X-614220Y-784540D01*
X-613580Y-782630D01*
X-613420Y-780520D01*
X-613740Y-777760D01*
X-614220Y-776280D01*
X-615030Y-774800D01*
X-616150Y-773740D01*
X-617280Y-773530D01*
X-618410Y-773950D01*
X-619210Y-775010D01*
G01X-629100Y-786230D02*
X-629420Y-783480D01*
X-629910Y-781150D01*
X-630550Y-779030D01*
X-631360Y-776710D01*
X-632640Y-773530D01*
X-626210D01*
G01X-585550Y-690540D02*
X-589570Y-703240D01*
X-593600Y-690540D01*
G01X-598990Y-703240D02*
Y-690540D01*
X-602200D01*
X-603490Y-691180D01*
X-604460Y-692020D01*
X-605260Y-693290D01*
X-605900Y-694770D01*
X-606060Y-696890D01*
X-605900Y-699010D01*
X-605260Y-700490D01*
X-604460Y-701760D01*
X-603490Y-702610D01*
X-602200Y-703240D01*
X-598990D01*
G01X-612420Y-697950D02*
X-613540Y-696470D01*
X-614510Y-695620D01*
X-615800Y-695200D01*
X-616920Y-695620D01*
X-617730Y-696470D01*
X-618370Y-697740D01*
X-618530Y-699220D01*
X-618370Y-700490D01*
X-617730Y-701760D01*
X-616760Y-702820D01*
X-615640Y-703240D01*
X-614350Y-702820D01*
X-613220Y-701550D01*
X-612580Y-699640D01*
X-612420Y-697530D01*
X-612740Y-694770D01*
X-613220Y-693290D01*
X-614030Y-691810D01*
X-615150Y-690750D01*
X-616280Y-690540D01*
X-617410Y-690960D01*
X-618210Y-692020D01*
G01X-624890Y-701340D02*
X-625850Y-702390D01*
X-626980Y-703030D01*
X-628420Y-703240D01*
X-629870Y-702820D01*
X-631000Y-701970D01*
X-631800Y-700490D01*
X-631960Y-698800D01*
X-631640Y-697100D01*
X-630840Y-696040D01*
X-629710Y-695200D01*
X-628590Y-694990D01*
X-627460Y-695200D01*
X-626010Y-696040D01*
X-626490Y-690540D01*
X-630840D01*
G01X-588550Y-671530D02*
X-592570Y-684230D01*
X-596600Y-671530D01*
G01X-601990Y-684230D02*
Y-671530D01*
X-605200D01*
X-606490Y-672170D01*
X-607460Y-673010D01*
X-608260Y-674280D01*
X-608900Y-675760D01*
X-609060Y-677880D01*
X-608900Y-680000D01*
X-608260Y-681480D01*
X-607460Y-682750D01*
X-606490Y-683600D01*
X-605200Y-684230D01*
X-601990D01*
G01X-615420Y-678940D02*
X-616540Y-677460D01*
X-617510Y-676610D01*
X-618800Y-676190D01*
X-619920Y-676610D01*
X-620730Y-677460D01*
X-621370Y-678730D01*
X-621530Y-680210D01*
X-621370Y-681480D01*
X-620730Y-682750D01*
X-619760Y-683810D01*
X-618640Y-684230D01*
X-617350Y-683810D01*
X-616220Y-682540D01*
X-615580Y-680630D01*
X-615420Y-678520D01*
X-615740Y-675760D01*
X-616220Y-674280D01*
X-617030Y-672800D01*
X-618150Y-671740D01*
X-619280Y-671530D01*
X-620410Y-671950D01*
X-621210Y-673010D01*
G01X-628370Y-673650D02*
X-629330Y-672380D01*
X-630460Y-671740D01*
X-631750Y-671530D01*
X-633360Y-671950D01*
X-634480Y-673010D01*
X-634800Y-674280D01*
X-634640Y-675550D01*
X-634000Y-676610D01*
X-630780Y-678730D01*
X-629330Y-680210D01*
X-628370Y-682330D01*
X-628050Y-684230D01*
X-634800D01*
G01X-584550Y-587540D02*
X-588570Y-600240D01*
X-592600Y-587540D01*
G01X-597990Y-600240D02*
Y-587540D01*
X-601200D01*
X-602490Y-588180D01*
X-603460Y-589020D01*
X-604260Y-590290D01*
X-604900Y-591770D01*
X-605060Y-593890D01*
X-604900Y-596010D01*
X-604260Y-597490D01*
X-603460Y-598760D01*
X-602490Y-599610D01*
X-601200Y-600240D01*
X-597990D01*
G01X-611420Y-594950D02*
X-612540Y-593470D01*
X-613510Y-592620D01*
X-614800Y-592200D01*
X-615920Y-592620D01*
X-616730Y-593470D01*
X-617370Y-594740D01*
X-617530Y-596220D01*
X-617370Y-597490D01*
X-616730Y-598760D01*
X-615760Y-599820D01*
X-614640Y-600240D01*
X-613350Y-599820D01*
X-612220Y-598550D01*
X-611580Y-596640D01*
X-611420Y-594530D01*
X-611740Y-591770D01*
X-612220Y-590290D01*
X-613030Y-588810D01*
X-614150Y-587750D01*
X-615280Y-587540D01*
X-616410Y-587960D01*
X-617210Y-589020D01*
G01X-627420Y-587540D02*
X-626140Y-587960D01*
X-625170Y-589020D01*
X-624530Y-590290D01*
X-624050Y-591990D01*
X-623890Y-593890D01*
X-624050Y-595800D01*
X-624530Y-597490D01*
X-625170Y-598760D01*
X-626140Y-599820D01*
X-627420Y-600240D01*
X-628710Y-599820D01*
X-629680Y-598760D01*
X-630320Y-597490D01*
X-630800Y-595800D01*
X-630960Y-593890D01*
X-630800Y-591990D01*
X-630320Y-590290D01*
X-629680Y-589020D01*
X-628710Y-587960D01*
X-627420Y-587540D01*
G01X-586550Y-569530D02*
X-590570Y-582230D01*
X-594600Y-569530D01*
G01X-599990Y-582230D02*
Y-569530D01*
X-603200D01*
X-604490Y-570170D01*
X-605460Y-571010D01*
X-606260Y-572280D01*
X-606900Y-573760D01*
X-607060Y-575880D01*
X-606900Y-578000D01*
X-606260Y-579480D01*
X-605460Y-580750D01*
X-604490Y-581600D01*
X-603200Y-582230D01*
X-599990D01*
G01X-612940Y-580330D02*
X-613900Y-581380D01*
X-615030Y-582020D01*
X-616470Y-582230D01*
X-617920Y-581810D01*
X-619050Y-580960D01*
X-619850Y-579480D01*
X-620010Y-577790D01*
X-619690Y-576090D01*
X-618890Y-575030D01*
X-617760Y-574190D01*
X-616640Y-573980D01*
X-615510Y-574190D01*
X-614060Y-575030D01*
X-614540Y-569530D01*
X-618890D01*
G01X-629100Y-582230D02*
X-629420Y-579480D01*
X-629910Y-577150D01*
X-630550Y-575030D01*
X-631360Y-572710D01*
X-632640Y-569530D01*
X-626210D01*
G01X-585550Y-486540D02*
X-589570Y-499240D01*
X-593600Y-486540D01*
G01X-598990Y-499240D02*
Y-486540D01*
X-602200D01*
X-603490Y-487180D01*
X-604460Y-488020D01*
X-605260Y-489290D01*
X-605900Y-490770D01*
X-606060Y-492890D01*
X-605900Y-495010D01*
X-605260Y-496490D01*
X-604460Y-497760D01*
X-603490Y-498610D01*
X-602200Y-499240D01*
X-598990D01*
G01X-611940Y-497340D02*
X-612900Y-498390D01*
X-614030Y-499030D01*
X-615470Y-499240D01*
X-616920Y-498820D01*
X-618050Y-497970D01*
X-618850Y-496490D01*
X-619010Y-494800D01*
X-618690Y-493100D01*
X-617890Y-492040D01*
X-616760Y-491200D01*
X-615640Y-490990D01*
X-614510Y-491200D01*
X-613060Y-492040D01*
X-613540Y-486540D01*
X-617890D01*
G01X-624890Y-497340D02*
X-625850Y-498390D01*
X-626980Y-499030D01*
X-628420Y-499240D01*
X-629870Y-498820D01*
X-631000Y-497970D01*
X-631800Y-496490D01*
X-631960Y-494800D01*
X-631640Y-493100D01*
X-630840Y-492040D01*
X-629710Y-491200D01*
X-628590Y-490990D01*
X-627460Y-491200D01*
X-626010Y-492040D01*
X-626490Y-486540D01*
X-630840D01*
G01X-586550Y-467530D02*
X-590570Y-480230D01*
X-594600Y-467530D01*
G01X-599990Y-480230D02*
Y-467530D01*
X-603200D01*
X-604490Y-468170D01*
X-605460Y-469010D01*
X-606260Y-470280D01*
X-606900Y-471760D01*
X-607060Y-473880D01*
X-606900Y-476000D01*
X-606260Y-477480D01*
X-605460Y-478750D01*
X-604490Y-479600D01*
X-603200Y-480230D01*
X-599990D01*
G01X-612940Y-478330D02*
X-613900Y-479380D01*
X-615030Y-480020D01*
X-616470Y-480230D01*
X-617920Y-479810D01*
X-619050Y-478960D01*
X-619850Y-477480D01*
X-620010Y-475790D01*
X-619690Y-474090D01*
X-618890Y-473030D01*
X-617760Y-472190D01*
X-616640Y-471980D01*
X-615510Y-472190D01*
X-614060Y-473030D01*
X-614540Y-467530D01*
X-618890D01*
G01X-626370Y-469650D02*
X-627330Y-468380D01*
X-628460Y-467740D01*
X-629750Y-467530D01*
X-631360Y-467950D01*
X-632480Y-469010D01*
X-632800Y-470280D01*
X-632640Y-471550D01*
X-632000Y-472610D01*
X-628780Y-474730D01*
X-627330Y-476210D01*
X-626370Y-478330D01*
X-626050Y-480230D01*
X-632800D01*
G01X-585550Y-386540D02*
X-589570Y-399240D01*
X-593600Y-386540D01*
G01X-598990Y-399240D02*
Y-386540D01*
X-602200D01*
X-603490Y-387180D01*
X-604460Y-388020D01*
X-605260Y-389290D01*
X-605900Y-390770D01*
X-606060Y-392890D01*
X-605900Y-395010D01*
X-605260Y-396490D01*
X-604460Y-397760D01*
X-603490Y-398610D01*
X-602200Y-399240D01*
X-598990D01*
G01X-611940Y-397340D02*
X-612900Y-398390D01*
X-614030Y-399030D01*
X-615470Y-399240D01*
X-616920Y-398820D01*
X-618050Y-397970D01*
X-618850Y-396490D01*
X-619010Y-394800D01*
X-618690Y-393100D01*
X-617890Y-392040D01*
X-616760Y-391200D01*
X-615640Y-390990D01*
X-614510Y-391200D01*
X-613060Y-392040D01*
X-613540Y-386540D01*
X-617890D01*
G01X-628420D02*
X-627140Y-386960D01*
X-626170Y-388020D01*
X-625530Y-389290D01*
X-625050Y-390990D01*
X-624890Y-392890D01*
X-625050Y-394800D01*
X-625530Y-396490D01*
X-626170Y-397760D01*
X-627140Y-398820D01*
X-628420Y-399240D01*
X-629710Y-398820D01*
X-630680Y-397760D01*
X-631320Y-396490D01*
X-631800Y-394800D01*
X-631960Y-392890D01*
X-631800Y-390990D01*
X-631320Y-389290D01*
X-630680Y-388020D01*
X-629710Y-386960D01*
X-628420Y-386540D01*
G01X-586550Y-365530D02*
X-590570Y-378230D01*
X-594600Y-365530D01*
G01X-599990Y-378230D02*
Y-365530D01*
X-603200D01*
X-604490Y-366170D01*
X-605460Y-367010D01*
X-606260Y-368280D01*
X-606900Y-369760D01*
X-607060Y-371880D01*
X-606900Y-374000D01*
X-606260Y-375480D01*
X-605460Y-376750D01*
X-604490Y-377600D01*
X-603200Y-378230D01*
X-599990D01*
G01X-616470D02*
Y-365530D01*
X-614540Y-368070D01*
G01Y-378230D02*
X-618400D01*
G01X-625890Y-375690D02*
X-626850Y-377170D01*
X-628140Y-378020D01*
X-629590Y-378230D01*
X-630870Y-378020D01*
X-632160Y-376960D01*
X-632960Y-375690D01*
X-633120Y-374420D01*
X-632800Y-372940D01*
X-631680Y-371880D01*
X-630550Y-371460D01*
X-629100D01*
G01X-630550D02*
X-631520Y-370820D01*
X-632320Y-369760D01*
X-632640Y-368490D01*
X-632320Y-367220D01*
X-631520Y-366170D01*
X-630070Y-365530D01*
X-628620Y-365740D01*
X-627170Y-366590D01*
G01X-530550Y-275540D02*
X-534570Y-288240D01*
X-538600Y-275540D01*
G01X-543990Y-288240D02*
Y-275540D01*
X-547200D01*
X-548490Y-276180D01*
X-549460Y-277020D01*
X-550260Y-278290D01*
X-550900Y-279770D01*
X-551060Y-281890D01*
X-550900Y-284010D01*
X-550260Y-285490D01*
X-549460Y-286760D01*
X-548490Y-287610D01*
X-547200Y-288240D01*
X-543990D01*
G01X-560470D02*
Y-275540D01*
X-558540Y-278080D01*
G01Y-288240D02*
X-562400D01*
G01X-573420Y-275540D02*
X-572140Y-275960D01*
X-571170Y-277020D01*
X-570530Y-278290D01*
X-570050Y-279990D01*
X-569890Y-281890D01*
X-570050Y-283800D01*
X-570530Y-285490D01*
X-571170Y-286760D01*
X-572140Y-287820D01*
X-573420Y-288240D01*
X-574710Y-287820D01*
X-575680Y-286760D01*
X-576320Y-285490D01*
X-576800Y-283800D01*
X-576960Y-281890D01*
X-576800Y-279990D01*
X-576320Y-278290D01*
X-575680Y-277020D01*
X-574710Y-275960D01*
X-573420Y-275540D01*
G01X-586550Y-3530D02*
X-590570Y-16230D01*
X-594600Y-3530D01*
G01X-599990Y-16230D02*
Y-3530D01*
X-603200D01*
X-604490Y-4170D01*
X-605460Y-5010D01*
X-606260Y-6280D01*
X-606900Y-7760D01*
X-607060Y-9880D01*
X-606900Y-12000D01*
X-606260Y-13480D01*
X-605460Y-14750D01*
X-604490Y-15600D01*
X-603200Y-16230D01*
X-599990D01*
G01X-618410D02*
Y-3530D01*
X-612450Y-12630D01*
X-620500D01*
G01X-629100Y-16230D02*
X-629420Y-13480D01*
X-629910Y-11150D01*
X-630550Y-9030D01*
X-631360Y-6710D01*
X-632640Y-3530D01*
X-626210D01*
G01X-586550Y76470D02*
X-590570Y63770D01*
X-594600Y76470D01*
G01X-599990Y63770D02*
Y76470D01*
X-603200D01*
X-604490Y75830D01*
X-605460Y74990D01*
X-606260Y73720D01*
X-606900Y72240D01*
X-607060Y70120D01*
X-606900Y68000D01*
X-606260Y66520D01*
X-605460Y65250D01*
X-604490Y64400D01*
X-603200Y63770D01*
X-599990D01*
G01X-618410D02*
Y76470D01*
X-612450Y67370D01*
X-620500D01*
G01X-625890Y65670D02*
X-626850Y64620D01*
X-627980Y63980D01*
X-629420Y63770D01*
X-630870Y64190D01*
X-632000Y65040D01*
X-632800Y66520D01*
X-632960Y68210D01*
X-632640Y69910D01*
X-631840Y70970D01*
X-630710Y71810D01*
X-629590Y72020D01*
X-628460Y71810D01*
X-627010Y70970D01*
X-627490Y76470D01*
X-631840D01*
G01X-586550Y96470D02*
X-590570Y83770D01*
X-594600Y96470D01*
G01X-599990Y83770D02*
Y96470D01*
X-603200D01*
X-604490Y95830D01*
X-605460Y94990D01*
X-606260Y93720D01*
X-606900Y92240D01*
X-607060Y90120D01*
X-606900Y88000D01*
X-606260Y86520D01*
X-605460Y85250D01*
X-604490Y84400D01*
X-603200Y83770D01*
X-599990D01*
G01X-618410D02*
Y96470D01*
X-612450Y87370D01*
X-620500D01*
G01X-626370Y94350D02*
X-627330Y95620D01*
X-628460Y96260D01*
X-629750Y96470D01*
X-631360Y96050D01*
X-632480Y94990D01*
X-632800Y93720D01*
X-632640Y92450D01*
X-632000Y91390D01*
X-628780Y89270D01*
X-627330Y87790D01*
X-626370Y85670D01*
X-626050Y83770D01*
X-632800D01*
G01X-586550Y178470D02*
X-590570Y165770D01*
X-594600Y178470D01*
G01X-599990Y165770D02*
Y178470D01*
X-603200D01*
X-604490Y177830D01*
X-605460Y176990D01*
X-606260Y175720D01*
X-606900Y174240D01*
X-607060Y172120D01*
X-606900Y170000D01*
X-606260Y168520D01*
X-605460Y167250D01*
X-604490Y166400D01*
X-603200Y165770D01*
X-599990D01*
G01X-618410D02*
Y178470D01*
X-612450Y169370D01*
X-620500D01*
G01X-629420Y178470D02*
X-628140Y178050D01*
X-627170Y176990D01*
X-626530Y175720D01*
X-626050Y174020D01*
X-625890Y172120D01*
X-626050Y170210D01*
X-626530Y168520D01*
X-627170Y167250D01*
X-628140Y166190D01*
X-629420Y165770D01*
X-630710Y166190D01*
X-631680Y167250D01*
X-632320Y168520D01*
X-632800Y170210D01*
X-632960Y172120D01*
X-632800Y174020D01*
X-632320Y175720D01*
X-631680Y176990D01*
X-630710Y178050D01*
X-629420Y178470D01*
G01X-586550Y198470D02*
X-590570Y185770D01*
X-594600Y198470D01*
G01X-599990Y185770D02*
Y198470D01*
X-603200D01*
X-604490Y197830D01*
X-605460Y196990D01*
X-606260Y195720D01*
X-606900Y194240D01*
X-607060Y192120D01*
X-606900Y190000D01*
X-606260Y188520D01*
X-605460Y187250D01*
X-604490Y186400D01*
X-603200Y185770D01*
X-599990D01*
G01X-612940Y188310D02*
X-613900Y186830D01*
X-615190Y185980D01*
X-616640Y185770D01*
X-617920Y185980D01*
X-619210Y187040D01*
X-620010Y188310D01*
X-620170Y189580D01*
X-619850Y191060D01*
X-618730Y192120D01*
X-617600Y192540D01*
X-616150D01*
G01X-617600D02*
X-618570Y193180D01*
X-619370Y194240D01*
X-619690Y195510D01*
X-619370Y196780D01*
X-618570Y197830D01*
X-617120Y198470D01*
X-615670Y198260D01*
X-614220Y197410D01*
G01X-629100Y185770D02*
X-629420Y188520D01*
X-629910Y190850D01*
X-630550Y192970D01*
X-631360Y195290D01*
X-632640Y198470D01*
X-626210D01*
G01X-586550Y280470D02*
X-590570Y267770D01*
X-594600Y280470D01*
G01X-599990Y267770D02*
Y280470D01*
X-603200D01*
X-604490Y279830D01*
X-605460Y278990D01*
X-606260Y277720D01*
X-606900Y276240D01*
X-607060Y274120D01*
X-606900Y272000D01*
X-606260Y270520D01*
X-605460Y269250D01*
X-604490Y268400D01*
X-603200Y267770D01*
X-599990D01*
G01X-612940Y270310D02*
X-613900Y268830D01*
X-615190Y267980D01*
X-616640Y267770D01*
X-617920Y267980D01*
X-619210Y269040D01*
X-620010Y270310D01*
X-620170Y271580D01*
X-619850Y273060D01*
X-618730Y274120D01*
X-617600Y274540D01*
X-616150D01*
G01X-617600D02*
X-618570Y275180D01*
X-619370Y276240D01*
X-619690Y277510D01*
X-619370Y278780D01*
X-618570Y279830D01*
X-617120Y280470D01*
X-615670Y280260D01*
X-614220Y279410D01*
G01X-625890Y269670D02*
X-626850Y268620D01*
X-627980Y267980D01*
X-629420Y267770D01*
X-630870Y268190D01*
X-632000Y269040D01*
X-632800Y270520D01*
X-632960Y272210D01*
X-632640Y273910D01*
X-631840Y274970D01*
X-630710Y275810D01*
X-629590Y276020D01*
X-628460Y275810D01*
X-627010Y274970D01*
X-627490Y280470D01*
X-631840D01*
G01X-586550Y300470D02*
X-590570Y287770D01*
X-594600Y300470D01*
G01X-599990Y287770D02*
Y300470D01*
X-603200D01*
X-604490Y299830D01*
X-605460Y298990D01*
X-606260Y297720D01*
X-606900Y296240D01*
X-607060Y294120D01*
X-606900Y292000D01*
X-606260Y290520D01*
X-605460Y289250D01*
X-604490Y288400D01*
X-603200Y287770D01*
X-599990D01*
G01X-612940Y290310D02*
X-613900Y288830D01*
X-615190Y287980D01*
X-616640Y287770D01*
X-617920Y287980D01*
X-619210Y289040D01*
X-620010Y290310D01*
X-620170Y291580D01*
X-619850Y293060D01*
X-618730Y294120D01*
X-617600Y294540D01*
X-616150D01*
G01X-617600D02*
X-618570Y295180D01*
X-619370Y296240D01*
X-619690Y297510D01*
X-619370Y298780D01*
X-618570Y299830D01*
X-617120Y300470D01*
X-615670Y300260D01*
X-614220Y299410D01*
G01X-626370Y298350D02*
X-627330Y299620D01*
X-628460Y300260D01*
X-629750Y300470D01*
X-631360Y300050D01*
X-632480Y298990D01*
X-632800Y297720D01*
X-632640Y296450D01*
X-632000Y295390D01*
X-628780Y293270D01*
X-627330Y291790D01*
X-626370Y289670D01*
X-626050Y287770D01*
X-632800D01*
G01X-586550Y380470D02*
X-590570Y367770D01*
X-594600Y380470D01*
G01X-599990Y367770D02*
Y380470D01*
X-603200D01*
X-604490Y379830D01*
X-605460Y378990D01*
X-606260Y377720D01*
X-606900Y376240D01*
X-607060Y374120D01*
X-606900Y372000D01*
X-606260Y370520D01*
X-605460Y369250D01*
X-604490Y368400D01*
X-603200Y367770D01*
X-599990D01*
G01X-612940Y370310D02*
X-613900Y368830D01*
X-615190Y367980D01*
X-616640Y367770D01*
X-617920Y367980D01*
X-619210Y369040D01*
X-620010Y370310D01*
X-620170Y371580D01*
X-619850Y373060D01*
X-618730Y374120D01*
X-617600Y374540D01*
X-616150D01*
G01X-617600D02*
X-618570Y375180D01*
X-619370Y376240D01*
X-619690Y377510D01*
X-619370Y378780D01*
X-618570Y379830D01*
X-617120Y380470D01*
X-615670Y380260D01*
X-614220Y379410D01*
G01X-629420Y380470D02*
X-628140Y380050D01*
X-627170Y378990D01*
X-626530Y377720D01*
X-626050Y376020D01*
X-625890Y374120D01*
X-626050Y372210D01*
X-626530Y370520D01*
X-627170Y369250D01*
X-628140Y368190D01*
X-629420Y367770D01*
X-630710Y368190D01*
X-631680Y369250D01*
X-632320Y370520D01*
X-632800Y372210D01*
X-632960Y374120D01*
X-632800Y376020D01*
X-632320Y377720D01*
X-631680Y378990D01*
X-630710Y380050D01*
X-629420Y380470D01*
G01X-586550Y402470D02*
X-590570Y389770D01*
X-594600Y402470D01*
G01X-599990Y389770D02*
Y402470D01*
X-603200D01*
X-604490Y401830D01*
X-605460Y400990D01*
X-606260Y399720D01*
X-606900Y398240D01*
X-607060Y396120D01*
X-606900Y394000D01*
X-606260Y392520D01*
X-605460Y391250D01*
X-604490Y390400D01*
X-603200Y389770D01*
X-599990D01*
G01X-613420Y400350D02*
X-614380Y401620D01*
X-615510Y402260D01*
X-616800Y402470D01*
X-618410Y402050D01*
X-619530Y400990D01*
X-619850Y399720D01*
X-619690Y398450D01*
X-619050Y397390D01*
X-615830Y395270D01*
X-614380Y393790D01*
X-613420Y391670D01*
X-613100Y389770D01*
X-619850D01*
G01X-629100D02*
X-629420Y392520D01*
X-629910Y394850D01*
X-630550Y396970D01*
X-631360Y399290D01*
X-632640Y402470D01*
X-626210D01*
G01X-584550Y482470D02*
X-588570Y469770D01*
X-592600Y482470D01*
G01X-597990Y469770D02*
Y482470D01*
X-601200D01*
X-602490Y481830D01*
X-603460Y480990D01*
X-604260Y479720D01*
X-604900Y478240D01*
X-605060Y476120D01*
X-604900Y474000D01*
X-604260Y472520D01*
X-603460Y471250D01*
X-602490Y470400D01*
X-601200Y469770D01*
X-597990D01*
G01X-611420Y480350D02*
X-612380Y481620D01*
X-613510Y482260D01*
X-614800Y482470D01*
X-616410Y482050D01*
X-617530Y480990D01*
X-617850Y479720D01*
X-617690Y478450D01*
X-617050Y477390D01*
X-613830Y475270D01*
X-612380Y473790D01*
X-611420Y471670D01*
X-611100Y469770D01*
X-617850D01*
G01X-623890Y471670D02*
X-624850Y470620D01*
X-625980Y469980D01*
X-627420Y469770D01*
X-628870Y470190D01*
X-630000Y471040D01*
X-630800Y472520D01*
X-630960Y474210D01*
X-630640Y475910D01*
X-629840Y476970D01*
X-628710Y477810D01*
X-627590Y478020D01*
X-626460Y477810D01*
X-625010Y476970D01*
X-625490Y482470D01*
X-629840D01*
G01X-586550Y504470D02*
X-590570Y491770D01*
X-594600Y504470D01*
G01X-599990Y491770D02*
Y504470D01*
X-603200D01*
X-604490Y503830D01*
X-605460Y502990D01*
X-606260Y501720D01*
X-606900Y500240D01*
X-607060Y498120D01*
X-606900Y496000D01*
X-606260Y494520D01*
X-605460Y493250D01*
X-604490Y492400D01*
X-603200Y491770D01*
X-599990D01*
G01X-613420Y502350D02*
X-614380Y503620D01*
X-615510Y504260D01*
X-616800Y504470D01*
X-618410Y504050D01*
X-619530Y502990D01*
X-619850Y501720D01*
X-619690Y500450D01*
X-619050Y499390D01*
X-615830Y497270D01*
X-614380Y495790D01*
X-613420Y493670D01*
X-613100Y491770D01*
X-619850D01*
G01X-626370Y502350D02*
X-627330Y503620D01*
X-628460Y504260D01*
X-629750Y504470D01*
X-631360Y504050D01*
X-632480Y502990D01*
X-632800Y501720D01*
X-632640Y500450D01*
X-632000Y499390D01*
X-628780Y497270D01*
X-627330Y495790D01*
X-626370Y493670D01*
X-626050Y491770D01*
X-632800D01*
G01X-584550Y584470D02*
X-588570Y571770D01*
X-592600Y584470D01*
G01X-597990Y571770D02*
Y584470D01*
X-601200D01*
X-602490Y583830D01*
X-603460Y582990D01*
X-604260Y581720D01*
X-604900Y580240D01*
X-605060Y578120D01*
X-604900Y576000D01*
X-604260Y574520D01*
X-603460Y573250D01*
X-602490Y572400D01*
X-601200Y571770D01*
X-597990D01*
G01X-611420Y582350D02*
X-612380Y583620D01*
X-613510Y584260D01*
X-614800Y584470D01*
X-616410Y584050D01*
X-617530Y582990D01*
X-617850Y581720D01*
X-617690Y580450D01*
X-617050Y579390D01*
X-613830Y577270D01*
X-612380Y575790D01*
X-611420Y573670D01*
X-611100Y571770D01*
X-617850D01*
G01X-627420Y584470D02*
X-626140Y584050D01*
X-625170Y582990D01*
X-624530Y581720D01*
X-624050Y580020D01*
X-623890Y578120D01*
X-624050Y576210D01*
X-624530Y574520D01*
X-625170Y573250D01*
X-626140Y572190D01*
X-627420Y571770D01*
X-628710Y572190D01*
X-629680Y573250D01*
X-630320Y574520D01*
X-630800Y576210D01*
X-630960Y578120D01*
X-630800Y580020D01*
X-630320Y581720D01*
X-629680Y582990D01*
X-628710Y584050D01*
X-627420Y584470D01*
G01X-586550Y606470D02*
X-590570Y593770D01*
X-594600Y606470D01*
G01X-599990Y593770D02*
Y606470D01*
X-603200D01*
X-604490Y605830D01*
X-605460Y604990D01*
X-606260Y603720D01*
X-606900Y602240D01*
X-607060Y600120D01*
X-606900Y598000D01*
X-606260Y596520D01*
X-605460Y595250D01*
X-604490Y594400D01*
X-603200Y593770D01*
X-599990D01*
G01X-616470D02*
Y606470D01*
X-614540Y603930D01*
G01Y593770D02*
X-618400D01*
G01X-629100D02*
X-629420Y596520D01*
X-629910Y598850D01*
X-630550Y600970D01*
X-631360Y603290D01*
X-632640Y606470D01*
X-626210D01*
G01X-586550Y688470D02*
X-590570Y675770D01*
X-594600Y688470D01*
G01X-599990Y675770D02*
Y688470D01*
X-603200D01*
X-604490Y687830D01*
X-605460Y686990D01*
X-606260Y685720D01*
X-606900Y684240D01*
X-607060Y682120D01*
X-606900Y680000D01*
X-606260Y678520D01*
X-605460Y677250D01*
X-604490Y676400D01*
X-603200Y675770D01*
X-599990D01*
G01X-616470D02*
Y688470D01*
X-614540Y685930D01*
G01Y675770D02*
X-618400D01*
G01X-625890Y677670D02*
X-626850Y676620D01*
X-627980Y675980D01*
X-629420Y675770D01*
X-630870Y676190D01*
X-632000Y677040D01*
X-632800Y678520D01*
X-632960Y680210D01*
X-632640Y681910D01*
X-631840Y682970D01*
X-630710Y683810D01*
X-629590Y684020D01*
X-628460Y683810D01*
X-627010Y682970D01*
X-627490Y688470D01*
X-631840D01*
G01X-589030Y708470D02*
X-593050Y695770D01*
X-597080Y708470D01*
G01X-602470Y695770D02*
Y708470D01*
X-605680D01*
X-606970Y707830D01*
X-607940Y706990D01*
X-608740Y705720D01*
X-609380Y704240D01*
X-609540Y702120D01*
X-609380Y700000D01*
X-608740Y698520D01*
X-607940Y697250D01*
X-606970Y696400D01*
X-605680Y695770D01*
X-602470D01*
G01X-618950D02*
X-620080Y695980D01*
X-621370Y696620D01*
X-622170Y697670D01*
X-622490Y699160D01*
X-622170Y700640D01*
X-621210Y701910D01*
X-619760Y702540D01*
X-618150D01*
X-617190Y702970D01*
X-616380Y704020D01*
X-616060Y705510D01*
X-616540Y706990D01*
X-617670Y708050D01*
X-618950Y708470D01*
X-620240Y708050D01*
X-621370Y706990D01*
X-621850Y705510D01*
X-621530Y704020D01*
X-620720Y702970D01*
X-619760Y702540D01*
X-618150D01*
X-616700Y701910D01*
X-615740Y700640D01*
X-615420Y699160D01*
X-615740Y697670D01*
X-616540Y696620D01*
X-617830Y695980D01*
X-618950Y695770D01*
G01X-537830Y-1098230D02*
Y-1085530D01*
X-541850D01*
X-543140Y-1086170D01*
X-543940Y-1087010D01*
X-544260Y-1088710D01*
X-543940Y-1090400D01*
X-542980Y-1091460D01*
X-541850Y-1092090D01*
X-537830D01*
G01X-541850D02*
X-544260Y-1098230D01*
G01X-551260Y-1096750D02*
X-552390Y-1097810D01*
X-553670Y-1098230D01*
X-554960Y-1097810D01*
X-556090Y-1096540D01*
X-556890Y-1094630D01*
X-557210Y-1092730D01*
Y-1090400D01*
X-556890Y-1088490D01*
X-556090Y-1086800D01*
X-555120Y-1085950D01*
X-553990Y-1085530D01*
X-552710Y-1085950D01*
X-551740Y-1086800D01*
X-551100Y-1088070D01*
X-550780Y-1089760D01*
X-551100Y-1091240D01*
X-551900Y-1092730D01*
X-552870Y-1093570D01*
X-553990Y-1093790D01*
X-555280Y-1093360D01*
X-556250Y-1092300D01*
X-557210Y-1090400D01*
G01X-564210Y-1096750D02*
X-565340Y-1097810D01*
X-566620Y-1098230D01*
X-567910Y-1097810D01*
X-569040Y-1096540D01*
X-569840Y-1094630D01*
X-570160Y-1092730D01*
Y-1090400D01*
X-569840Y-1088490D01*
X-569040Y-1086800D01*
X-568070Y-1085950D01*
X-566940Y-1085530D01*
X-565660Y-1085950D01*
X-564690Y-1086800D01*
X-564050Y-1088070D01*
X-563730Y-1089760D01*
X-564050Y-1091240D01*
X-564850Y-1092730D01*
X-565820Y-1093570D01*
X-566940Y-1093790D01*
X-568230Y-1093360D01*
X-569200Y-1092300D01*
X-570160Y-1090400D01*
G01X-537830Y-996230D02*
Y-983530D01*
X-541850D01*
X-543140Y-984170D01*
X-543940Y-985010D01*
X-544260Y-986710D01*
X-543940Y-988400D01*
X-542980Y-989460D01*
X-541850Y-990090D01*
X-537830D01*
G01X-541850D02*
X-544260Y-996230D01*
G01X-551260Y-994750D02*
X-552390Y-995810D01*
X-553670Y-996230D01*
X-554960Y-995810D01*
X-556090Y-994540D01*
X-556890Y-992630D01*
X-557210Y-990730D01*
Y-988400D01*
X-556890Y-986490D01*
X-556090Y-984800D01*
X-555120Y-983950D01*
X-553990Y-983530D01*
X-552710Y-983950D01*
X-551740Y-984800D01*
X-551100Y-986070D01*
X-550780Y-987760D01*
X-551100Y-989240D01*
X-551900Y-990730D01*
X-552870Y-991570D01*
X-553990Y-991790D01*
X-555280Y-991360D01*
X-556250Y-990300D01*
X-557210Y-988400D01*
G01X-563410Y-993690D02*
X-564370Y-995170D01*
X-565660Y-996020D01*
X-567110Y-996230D01*
X-568390Y-996020D01*
X-569680Y-994960D01*
X-570480Y-993690D01*
X-570640Y-992420D01*
X-570320Y-990940D01*
X-569200Y-989880D01*
X-568070Y-989460D01*
X-566620D01*
G01X-568070D02*
X-569040Y-988820D01*
X-569840Y-987760D01*
X-570160Y-986490D01*
X-569840Y-985220D01*
X-569040Y-984170D01*
X-567590Y-983530D01*
X-566140Y-983740D01*
X-564690Y-984590D01*
G01X-537830Y-894230D02*
Y-881530D01*
X-541850D01*
X-543140Y-882170D01*
X-543940Y-883010D01*
X-544260Y-884710D01*
X-543940Y-886400D01*
X-542980Y-887460D01*
X-541850Y-888090D01*
X-537830D01*
G01X-541850D02*
X-544260Y-894230D01*
G01X-553990D02*
X-555120Y-894020D01*
X-556410Y-893380D01*
X-557210Y-892330D01*
X-557530Y-890840D01*
X-557210Y-889360D01*
X-556250Y-888090D01*
X-554800Y-887460D01*
X-553190D01*
X-552230Y-887030D01*
X-551420Y-885980D01*
X-551100Y-884490D01*
X-551580Y-883010D01*
X-552710Y-881950D01*
X-553990Y-881530D01*
X-555280Y-881950D01*
X-556410Y-883010D01*
X-556890Y-884490D01*
X-556570Y-885980D01*
X-555760Y-887030D01*
X-554800Y-887460D01*
X-553190D01*
X-551740Y-888090D01*
X-550780Y-889360D01*
X-550460Y-890840D01*
X-550780Y-892330D01*
X-551580Y-893380D01*
X-552870Y-894020D01*
X-553990Y-894230D01*
G01X-566620D02*
X-566940Y-891480D01*
X-567430Y-889150D01*
X-568070Y-887030D01*
X-568880Y-884710D01*
X-570160Y-881530D01*
X-563730D01*
G01X-483830Y-916240D02*
Y-903540D01*
X-487850D01*
X-489140Y-904180D01*
X-489940Y-905020D01*
X-490260Y-906720D01*
X-489940Y-908410D01*
X-488980Y-909470D01*
X-487850Y-910100D01*
X-483830D01*
G01X-487850D02*
X-490260Y-916240D01*
G01X-497260Y-914760D02*
X-498390Y-915820D01*
X-499670Y-916240D01*
X-500960Y-915820D01*
X-502090Y-914550D01*
X-502890Y-912640D01*
X-503210Y-910740D01*
Y-908410D01*
X-502890Y-906500D01*
X-502090Y-904810D01*
X-501120Y-903960D01*
X-499990Y-903540D01*
X-498710Y-903960D01*
X-497740Y-904810D01*
X-497100Y-906080D01*
X-496780Y-907770D01*
X-497100Y-909250D01*
X-497900Y-910740D01*
X-498870Y-911580D01*
X-499990Y-911800D01*
X-501280Y-911370D01*
X-502250Y-910310D01*
X-503210Y-908410D01*
G01X-512940Y-916240D02*
Y-903540D01*
X-511010Y-906080D01*
G01Y-916240D02*
X-514870D01*
G01X-537830Y-792230D02*
Y-779530D01*
X-541850D01*
X-543140Y-780170D01*
X-543940Y-781010D01*
X-544260Y-782710D01*
X-543940Y-784400D01*
X-542980Y-785460D01*
X-541850Y-786090D01*
X-537830D01*
G01X-541850D02*
X-544260Y-792230D01*
G01X-553990D02*
X-555120Y-792020D01*
X-556410Y-791380D01*
X-557210Y-790330D01*
X-557530Y-788840D01*
X-557210Y-787360D01*
X-556250Y-786090D01*
X-554800Y-785460D01*
X-553190D01*
X-552230Y-785030D01*
X-551420Y-783980D01*
X-551100Y-782490D01*
X-551580Y-781010D01*
X-552710Y-779950D01*
X-553990Y-779530D01*
X-555280Y-779950D01*
X-556410Y-781010D01*
X-556890Y-782490D01*
X-556570Y-783980D01*
X-555760Y-785030D01*
X-554800Y-785460D01*
X-553190D01*
X-551740Y-786090D01*
X-550780Y-787360D01*
X-550460Y-788840D01*
X-550780Y-790330D01*
X-551580Y-791380D01*
X-552870Y-792020D01*
X-553990Y-792230D01*
G01X-566940D02*
Y-779530D01*
X-565010Y-782070D01*
G01Y-792230D02*
X-568870D01*
G01X-537830Y-692230D02*
Y-679530D01*
X-541850D01*
X-543140Y-680170D01*
X-543940Y-681010D01*
X-544260Y-682710D01*
X-543940Y-684400D01*
X-542980Y-685460D01*
X-541850Y-686090D01*
X-537830D01*
G01X-541850D02*
X-544260Y-692230D01*
G01X-553670D02*
X-553990Y-689480D01*
X-554480Y-687150D01*
X-555120Y-685030D01*
X-555930Y-682710D01*
X-557210Y-679530D01*
X-550780D01*
G01X-563410Y-690330D02*
X-564370Y-691380D01*
X-565500Y-692020D01*
X-566940Y-692230D01*
X-568390Y-691810D01*
X-569520Y-690960D01*
X-570320Y-689480D01*
X-570480Y-687790D01*
X-570160Y-686090D01*
X-569360Y-685030D01*
X-568230Y-684190D01*
X-567110Y-683980D01*
X-565980Y-684190D01*
X-564530Y-685030D01*
X-565010Y-679530D01*
X-569360D01*
G01X-483840Y-710240D02*
Y-697540D01*
X-487860D01*
X-489150Y-698180D01*
X-489950Y-699020D01*
X-490270Y-700720D01*
X-489950Y-702410D01*
X-488990Y-703470D01*
X-487860Y-704100D01*
X-483840D01*
G01X-487860D02*
X-490270Y-710240D01*
G01X-499680D02*
X-500000Y-707490D01*
X-500490Y-705160D01*
X-501130Y-703040D01*
X-501940Y-700720D01*
X-503220Y-697540D01*
X-496790D01*
G01X-510220Y-708760D02*
X-511350Y-709820D01*
X-512630Y-710240D01*
X-513920Y-709820D01*
X-515050Y-708550D01*
X-515850Y-706640D01*
X-516170Y-704740D01*
Y-702410D01*
X-515850Y-700500D01*
X-515050Y-698810D01*
X-514080Y-697960D01*
X-512950Y-697540D01*
X-511670Y-697960D01*
X-510700Y-698810D01*
X-510060Y-700080D01*
X-509740Y-701770D01*
X-510060Y-703250D01*
X-510860Y-704740D01*
X-511830Y-705580D01*
X-512950Y-705800D01*
X-514240Y-705370D01*
X-515210Y-704310D01*
X-516170Y-702410D01*
G01X-537830Y-590230D02*
Y-577530D01*
X-541850D01*
X-543140Y-578170D01*
X-543940Y-579010D01*
X-544260Y-580710D01*
X-543940Y-582400D01*
X-542980Y-583460D01*
X-541850Y-584090D01*
X-537830D01*
G01X-541850D02*
X-544260Y-590230D01*
G01X-550940Y-584940D02*
X-552060Y-583460D01*
X-553030Y-582610D01*
X-554320Y-582190D01*
X-555440Y-582610D01*
X-556250Y-583460D01*
X-556890Y-584730D01*
X-557050Y-586210D01*
X-556890Y-587480D01*
X-556250Y-588750D01*
X-555280Y-589810D01*
X-554160Y-590230D01*
X-552870Y-589810D01*
X-551740Y-588540D01*
X-551100Y-586630D01*
X-550940Y-584520D01*
X-551260Y-581760D01*
X-551740Y-580280D01*
X-552550Y-578800D01*
X-553670Y-577740D01*
X-554800Y-577530D01*
X-555930Y-577950D01*
X-556730Y-579010D01*
G01X-564210Y-588750D02*
X-565340Y-589810D01*
X-566620Y-590230D01*
X-567910Y-589810D01*
X-569040Y-588540D01*
X-569840Y-586630D01*
X-570160Y-584730D01*
Y-582400D01*
X-569840Y-580490D01*
X-569040Y-578800D01*
X-568070Y-577950D01*
X-566940Y-577530D01*
X-565660Y-577950D01*
X-564690Y-578800D01*
X-564050Y-580070D01*
X-563730Y-581760D01*
X-564050Y-583240D01*
X-564850Y-584730D01*
X-565820Y-585570D01*
X-566940Y-585790D01*
X-568230Y-585360D01*
X-569200Y-584300D01*
X-570160Y-582400D01*
G01X-537830Y-488230D02*
Y-475530D01*
X-541850D01*
X-543140Y-476170D01*
X-543940Y-477010D01*
X-544260Y-478710D01*
X-543940Y-480400D01*
X-542980Y-481460D01*
X-541850Y-482090D01*
X-537830D01*
G01X-541850D02*
X-544260Y-488230D01*
G01X-550940Y-482940D02*
X-552060Y-481460D01*
X-553030Y-480610D01*
X-554320Y-480190D01*
X-555440Y-480610D01*
X-556250Y-481460D01*
X-556890Y-482730D01*
X-557050Y-484210D01*
X-556890Y-485480D01*
X-556250Y-486750D01*
X-555280Y-487810D01*
X-554160Y-488230D01*
X-552870Y-487810D01*
X-551740Y-486540D01*
X-551100Y-484630D01*
X-550940Y-482520D01*
X-551260Y-479760D01*
X-551740Y-478280D01*
X-552550Y-476800D01*
X-553670Y-475740D01*
X-554800Y-475530D01*
X-555930Y-475950D01*
X-556730Y-477010D01*
G01X-563410Y-485690D02*
X-564370Y-487170D01*
X-565660Y-488020D01*
X-567110Y-488230D01*
X-568390Y-488020D01*
X-569680Y-486960D01*
X-570480Y-485690D01*
X-570640Y-484420D01*
X-570320Y-482940D01*
X-569200Y-481880D01*
X-568070Y-481460D01*
X-566620D01*
G01X-568070D02*
X-569040Y-480820D01*
X-569840Y-479760D01*
X-570160Y-478490D01*
X-569840Y-477220D01*
X-569040Y-476170D01*
X-567590Y-475530D01*
X-566140Y-475740D01*
X-564690Y-476590D01*
G01X-483830Y-510240D02*
Y-497540D01*
X-487850D01*
X-489140Y-498180D01*
X-489940Y-499020D01*
X-490260Y-500720D01*
X-489940Y-502410D01*
X-488980Y-503470D01*
X-487850Y-504100D01*
X-483830D01*
G01X-487850D02*
X-490260Y-510240D01*
G01X-496940Y-504950D02*
X-498060Y-503470D01*
X-499030Y-502620D01*
X-500320Y-502200D01*
X-501440Y-502620D01*
X-502250Y-503470D01*
X-502890Y-504740D01*
X-503050Y-506220D01*
X-502890Y-507490D01*
X-502250Y-508760D01*
X-501280Y-509820D01*
X-500160Y-510240D01*
X-498870Y-509820D01*
X-497740Y-508550D01*
X-497100Y-506640D01*
X-496940Y-504530D01*
X-497260Y-501770D01*
X-497740Y-500290D01*
X-498550Y-498810D01*
X-499670Y-497750D01*
X-500800Y-497540D01*
X-501930Y-497960D01*
X-502730Y-499020D01*
G01X-512620Y-510240D02*
X-512940Y-507490D01*
X-513430Y-505160D01*
X-514070Y-503040D01*
X-514880Y-500720D01*
X-516160Y-497540D01*
X-509730D01*
G01X-537830Y-386230D02*
Y-373530D01*
X-541850D01*
X-543140Y-374170D01*
X-543940Y-375010D01*
X-544260Y-376710D01*
X-543940Y-378400D01*
X-542980Y-379460D01*
X-541850Y-380090D01*
X-537830D01*
G01X-541850D02*
X-544260Y-386230D01*
G01X-553990D02*
Y-373530D01*
X-552060Y-376070D01*
G01Y-386230D02*
X-555920D01*
G01X-563410Y-384330D02*
X-564370Y-385380D01*
X-565500Y-386020D01*
X-566940Y-386230D01*
X-568390Y-385810D01*
X-569520Y-384960D01*
X-570320Y-383480D01*
X-570480Y-381790D01*
X-570160Y-380090D01*
X-569360Y-379030D01*
X-568230Y-378190D01*
X-567110Y-377980D01*
X-565980Y-378190D01*
X-564530Y-379030D01*
X-565010Y-373530D01*
X-569360D01*
G01X-483830Y-308240D02*
Y-295540D01*
X-487850D01*
X-489140Y-296180D01*
X-489940Y-297020D01*
X-490260Y-298720D01*
X-489940Y-300410D01*
X-488980Y-301470D01*
X-487850Y-302100D01*
X-483830D01*
G01X-487850D02*
X-490260Y-308240D01*
G01X-499990D02*
Y-295540D01*
X-498060Y-298080D01*
G01Y-308240D02*
X-501920D01*
G01X-514880D02*
Y-295540D01*
X-508920Y-304640D01*
X-516970D01*
G01X-537830Y-24230D02*
Y-11530D01*
X-541850D01*
X-543140Y-12170D01*
X-543940Y-13010D01*
X-544260Y-14710D01*
X-543940Y-16400D01*
X-542980Y-17460D01*
X-541850Y-18090D01*
X-537830D01*
G01X-541850D02*
X-544260Y-24230D01*
G01X-550460Y-22330D02*
X-551420Y-23380D01*
X-552550Y-24020D01*
X-553990Y-24230D01*
X-555440Y-23810D01*
X-556570Y-22960D01*
X-557370Y-21480D01*
X-557530Y-19790D01*
X-557210Y-18090D01*
X-556410Y-17030D01*
X-555280Y-16190D01*
X-554160Y-15980D01*
X-553030Y-16190D01*
X-551580Y-17030D01*
X-552060Y-11530D01*
X-556410D01*
G01X-566620Y-24230D02*
X-566940Y-21480D01*
X-567430Y-19150D01*
X-568070Y-17030D01*
X-568880Y-14710D01*
X-570160Y-11530D01*
X-563730D01*
G01X-537830Y77760D02*
Y90460D01*
X-541850D01*
X-543140Y89820D01*
X-543940Y88980D01*
X-544260Y87280D01*
X-543940Y85590D01*
X-542980Y84530D01*
X-541850Y83900D01*
X-537830D01*
G01X-541850D02*
X-544260Y77760D01*
G01X-550460Y79660D02*
X-551420Y78610D01*
X-552550Y77970D01*
X-553990Y77760D01*
X-555440Y78180D01*
X-556570Y79030D01*
X-557370Y80510D01*
X-557530Y82200D01*
X-557210Y83900D01*
X-556410Y84960D01*
X-555280Y85800D01*
X-554160Y86010D01*
X-553030Y85800D01*
X-551580Y84960D01*
X-552060Y90460D01*
X-556410D01*
G01X-566940Y77760D02*
Y90460D01*
X-565010Y87920D01*
G01Y77760D02*
X-568870D01*
G01X-535840Y179770D02*
Y192470D01*
X-539860D01*
X-541150Y191830D01*
X-541950Y190990D01*
X-542270Y189290D01*
X-541950Y187600D01*
X-540990Y186540D01*
X-539860Y185910D01*
X-535840D01*
G01X-539860D02*
X-542270Y179770D01*
G01X-553940D02*
Y192470D01*
X-547980Y183370D01*
X-556030D01*
G01X-561420Y181670D02*
X-562380Y180620D01*
X-563510Y179980D01*
X-564950Y179770D01*
X-566400Y180190D01*
X-567530Y181040D01*
X-568330Y182520D01*
X-568490Y184210D01*
X-568170Y185910D01*
X-567370Y186970D01*
X-566240Y187810D01*
X-565120Y188020D01*
X-563990Y187810D01*
X-562540Y186970D01*
X-563020Y192470D01*
X-567370D01*
G01X-483840Y155770D02*
Y168470D01*
X-487860D01*
X-489150Y167830D01*
X-489950Y166990D01*
X-490270Y165290D01*
X-489950Y163600D01*
X-488990Y162540D01*
X-487860Y161910D01*
X-483840D01*
G01X-487860D02*
X-490270Y155770D01*
G01X-501940D02*
Y168470D01*
X-495980Y159370D01*
X-504030D01*
G01X-510220Y157250D02*
X-511350Y156190D01*
X-512630Y155770D01*
X-513920Y156190D01*
X-515050Y157460D01*
X-515850Y159370D01*
X-516170Y161270D01*
Y163600D01*
X-515850Y165510D01*
X-515050Y167200D01*
X-514080Y168050D01*
X-512950Y168470D01*
X-511670Y168050D01*
X-510700Y167200D01*
X-510060Y165930D01*
X-509740Y164240D01*
X-510060Y162760D01*
X-510860Y161270D01*
X-511830Y160430D01*
X-512950Y160210D01*
X-514240Y160640D01*
X-515210Y161700D01*
X-516170Y163600D01*
G01X-535840Y279770D02*
Y292470D01*
X-539860D01*
X-541150Y291830D01*
X-541950Y290990D01*
X-542270Y289290D01*
X-541950Y287600D01*
X-540990Y286540D01*
X-539860Y285910D01*
X-535840D01*
G01X-539860D02*
X-542270Y279770D01*
G01X-548470Y282310D02*
X-549430Y280830D01*
X-550720Y279980D01*
X-552170Y279770D01*
X-553450Y279980D01*
X-554740Y281040D01*
X-555540Y282310D01*
X-555700Y283580D01*
X-555380Y285060D01*
X-554260Y286120D01*
X-553130Y286540D01*
X-551680D01*
G01X-553130D02*
X-554100Y287180D01*
X-554900Y288240D01*
X-555220Y289510D01*
X-554900Y290780D01*
X-554100Y291830D01*
X-552650Y292470D01*
X-551200Y292260D01*
X-549750Y291410D01*
G01X-562220Y281250D02*
X-563350Y280190D01*
X-564630Y279770D01*
X-565920Y280190D01*
X-567050Y281460D01*
X-567850Y283370D01*
X-568170Y285270D01*
Y287600D01*
X-567850Y289510D01*
X-567050Y291200D01*
X-566080Y292050D01*
X-564950Y292470D01*
X-563670Y292050D01*
X-562700Y291200D01*
X-562060Y289930D01*
X-561740Y288240D01*
X-562060Y286760D01*
X-562860Y285270D01*
X-563830Y284430D01*
X-564950Y284210D01*
X-566240Y284640D01*
X-567210Y285700D01*
X-568170Y287600D01*
G01X-537840Y381770D02*
Y394470D01*
X-541860D01*
X-543150Y393830D01*
X-543950Y392990D01*
X-544270Y391290D01*
X-543950Y389600D01*
X-542990Y388540D01*
X-541860Y387910D01*
X-537840D01*
G01X-541860D02*
X-544270Y381770D01*
G01X-550470Y384310D02*
X-551430Y382830D01*
X-552720Y381980D01*
X-554170Y381770D01*
X-555450Y381980D01*
X-556740Y383040D01*
X-557540Y384310D01*
X-557700Y385580D01*
X-557380Y387060D01*
X-556260Y388120D01*
X-555130Y388540D01*
X-553680D01*
G01X-555130D02*
X-556100Y389180D01*
X-556900Y390240D01*
X-557220Y391510D01*
X-556900Y392780D01*
X-556100Y393830D01*
X-554650Y394470D01*
X-553200Y394260D01*
X-551750Y393410D01*
G01X-563420Y384310D02*
X-564380Y382830D01*
X-565670Y381980D01*
X-567120Y381770D01*
X-568400Y381980D01*
X-569690Y383040D01*
X-570490Y384310D01*
X-570650Y385580D01*
X-570330Y387060D01*
X-569210Y388120D01*
X-568080Y388540D01*
X-566630D01*
G01X-568080D02*
X-569050Y389180D01*
X-569850Y390240D01*
X-570170Y391510D01*
X-569850Y392780D01*
X-569050Y393830D01*
X-567600Y394470D01*
X-566150Y394260D01*
X-564700Y393410D01*
G01X-485840Y357760D02*
Y370460D01*
X-489860D01*
X-491150Y369820D01*
X-491950Y368980D01*
X-492270Y367280D01*
X-491950Y365590D01*
X-490990Y364530D01*
X-489860Y363900D01*
X-485840D01*
G01X-489860D02*
X-492270Y357760D01*
G01X-498470Y360300D02*
X-499430Y358820D01*
X-500720Y357970D01*
X-502170Y357760D01*
X-503450Y357970D01*
X-504740Y359030D01*
X-505540Y360300D01*
X-505700Y361570D01*
X-505380Y363050D01*
X-504260Y364110D01*
X-503130Y364530D01*
X-501680D01*
G01X-503130D02*
X-504100Y365170D01*
X-504900Y366230D01*
X-505220Y367500D01*
X-504900Y368770D01*
X-504100Y369820D01*
X-502650Y370460D01*
X-501200Y370250D01*
X-499750Y369400D01*
G01X-514630Y357760D02*
X-514950Y360510D01*
X-515440Y362840D01*
X-516080Y364960D01*
X-516890Y367280D01*
X-518170Y370460D01*
X-511740D01*
G01X-537840Y483770D02*
Y496470D01*
X-541860D01*
X-543150Y495830D01*
X-543950Y494990D01*
X-544270Y493290D01*
X-543950Y491600D01*
X-542990Y490540D01*
X-541860Y489910D01*
X-537840D01*
G01X-541860D02*
X-544270Y483770D01*
G01X-550950Y494350D02*
X-551910Y495620D01*
X-553040Y496260D01*
X-554330Y496470D01*
X-555940Y496050D01*
X-557060Y494990D01*
X-557380Y493720D01*
X-557220Y492450D01*
X-556580Y491390D01*
X-553360Y489270D01*
X-551910Y487790D01*
X-550950Y485670D01*
X-550630Y483770D01*
X-557380D01*
G01X-566630D02*
X-566950Y486520D01*
X-567440Y488850D01*
X-568080Y490970D01*
X-568890Y493290D01*
X-570170Y496470D01*
X-563740D01*
G01X-483840Y561770D02*
Y574470D01*
X-487860D01*
X-489150Y573830D01*
X-489950Y572990D01*
X-490270Y571290D01*
X-489950Y569600D01*
X-488990Y568540D01*
X-487860Y567910D01*
X-483840D01*
G01X-487860D02*
X-490270Y561770D01*
G01X-496950Y572350D02*
X-497910Y573620D01*
X-499040Y574260D01*
X-500330Y574470D01*
X-501940Y574050D01*
X-503060Y572990D01*
X-503380Y571720D01*
X-503220Y570450D01*
X-502580Y569390D01*
X-499360Y567270D01*
X-497910Y565790D01*
X-496950Y563670D01*
X-496630Y561770D01*
X-503380D01*
G01X-509420Y563670D02*
X-510380Y562620D01*
X-511510Y561980D01*
X-512950Y561770D01*
X-514400Y562190D01*
X-515530Y563040D01*
X-516330Y564520D01*
X-516490Y566210D01*
X-516170Y567910D01*
X-515370Y568970D01*
X-514240Y569810D01*
X-513120Y570020D01*
X-511990Y569810D01*
X-510540Y568970D01*
X-511020Y574470D01*
X-515370D01*
G01X-537840Y585770D02*
Y598470D01*
X-541860D01*
X-543150Y597830D01*
X-543950Y596990D01*
X-544270Y595290D01*
X-543950Y593600D01*
X-542990Y592540D01*
X-541860Y591910D01*
X-537840D01*
G01X-541860D02*
X-544270Y585770D01*
G01X-550950Y596350D02*
X-551910Y597620D01*
X-553040Y598260D01*
X-554330Y598470D01*
X-555940Y598050D01*
X-557060Y596990D01*
X-557380Y595720D01*
X-557220Y594450D01*
X-556580Y593390D01*
X-553360Y591270D01*
X-551910Y589790D01*
X-550950Y587670D01*
X-550630Y585770D01*
X-557380D01*
G01X-566950D02*
Y598470D01*
X-565020Y595930D01*
G01Y585770D02*
X-568880D01*
G01X-546310Y687770D02*
Y700470D01*
X-550330D01*
X-551620Y699830D01*
X-552420Y698990D01*
X-552740Y697290D01*
X-552420Y695600D01*
X-551460Y694540D01*
X-550330Y693910D01*
X-546310D01*
G01X-550330D02*
X-552740Y687770D01*
G01X-559740Y689250D02*
X-560870Y688190D01*
X-562150Y687770D01*
X-563440Y688190D01*
X-564570Y689460D01*
X-565370Y691370D01*
X-565690Y693270D01*
Y695600D01*
X-565370Y697510D01*
X-564570Y699200D01*
X-563600Y700050D01*
X-562470Y700470D01*
X-561190Y700050D01*
X-560220Y699200D01*
X-559580Y697930D01*
X-559260Y696240D01*
X-559580Y694760D01*
X-560380Y693270D01*
X-561350Y692430D01*
X-562470Y692210D01*
X-563760Y692640D01*
X-564730Y693700D01*
X-565690Y695600D01*
G01X-492310Y763760D02*
Y776460D01*
X-496330D01*
X-497620Y775820D01*
X-498420Y774980D01*
X-498740Y773280D01*
X-498420Y771590D01*
X-497460Y770530D01*
X-496330Y769900D01*
X-492310D01*
G01X-496330D02*
X-498740Y763760D01*
G01X-508470D02*
X-509600Y763970D01*
X-510890Y764610D01*
X-511690Y765660D01*
X-512010Y767150D01*
X-511690Y768630D01*
X-510730Y769900D01*
X-509280Y770530D01*
X-507670D01*
X-506710Y770960D01*
X-505900Y772010D01*
X-505580Y773500D01*
X-506060Y774980D01*
X-507190Y776040D01*
X-508470Y776460D01*
X-509760Y776040D01*
X-510890Y774980D01*
X-511370Y773500D01*
X-511050Y772010D01*
X-510240Y770960D01*
X-509280Y770530D01*
X-507670D01*
X-506220Y769900D01*
X-505260Y768630D01*
X-504940Y767150D01*
X-505260Y765660D01*
X-506060Y764610D01*
X-507350Y763970D01*
X-508470Y763760D01*
G01X-535030Y796470D02*
X-539050Y783770D01*
X-543080Y796470D01*
G01X-548470Y783770D02*
Y796470D01*
X-551680D01*
X-552970Y795830D01*
X-553940Y794990D01*
X-554740Y793720D01*
X-555380Y792240D01*
X-555540Y790120D01*
X-555380Y788000D01*
X-554740Y786520D01*
X-553940Y785250D01*
X-552970Y784400D01*
X-551680Y783770D01*
X-548470D01*
G01X-561420Y785670D02*
X-562380Y784620D01*
X-563510Y783980D01*
X-564950Y783770D01*
X-566400Y784190D01*
X-567530Y785040D01*
X-568330Y786520D01*
X-568490Y788210D01*
X-568170Y789910D01*
X-567370Y790970D01*
X-566240Y791810D01*
X-565120Y792020D01*
X-563990Y791810D01*
X-562540Y790970D01*
X-563020Y796470D01*
X-567370D01*
G01X-432550Y-1001530D02*
X-436570Y-1014230D01*
X-440600Y-1001530D01*
G01X-445990Y-1014230D02*
Y-1001530D01*
X-449200D01*
X-450490Y-1002170D01*
X-451460Y-1003010D01*
X-452260Y-1004280D01*
X-452900Y-1005760D01*
X-453060Y-1007880D01*
X-452900Y-1010000D01*
X-452260Y-1011480D01*
X-451460Y-1012750D01*
X-450490Y-1013600D01*
X-449200Y-1014230D01*
X-445990D01*
G01X-462470D02*
X-463600Y-1014020D01*
X-464890Y-1013380D01*
X-465690Y-1012330D01*
X-466010Y-1010840D01*
X-465690Y-1009360D01*
X-464730Y-1008090D01*
X-463280Y-1007460D01*
X-461670D01*
X-460710Y-1007030D01*
X-459900Y-1005980D01*
X-459580Y-1004490D01*
X-460060Y-1003010D01*
X-461190Y-1001950D01*
X-462470Y-1001530D01*
X-463760Y-1001950D01*
X-464890Y-1003010D01*
X-465370Y-1004490D01*
X-465050Y-1005980D01*
X-464240Y-1007030D01*
X-463280Y-1007460D01*
X-461670D01*
X-460220Y-1008090D01*
X-459260Y-1009360D01*
X-458940Y-1010840D01*
X-459260Y-1012330D01*
X-460060Y-1013380D01*
X-461350Y-1014020D01*
X-462470Y-1014230D01*
G01X-471890Y-1011690D02*
X-472850Y-1013170D01*
X-474140Y-1014020D01*
X-475590Y-1014230D01*
X-476870Y-1014020D01*
X-478160Y-1012960D01*
X-478960Y-1011690D01*
X-479120Y-1010420D01*
X-478800Y-1008940D01*
X-477680Y-1007880D01*
X-476550Y-1007460D01*
X-475100D01*
G01X-476550D02*
X-477520Y-1006820D01*
X-478320Y-1005760D01*
X-478640Y-1004490D01*
X-478320Y-1003220D01*
X-477520Y-1002170D01*
X-476070Y-1001530D01*
X-474620Y-1001740D01*
X-473170Y-1002590D01*
G01X-443830Y-916240D02*
Y-903540D01*
X-447850D01*
X-449140Y-904180D01*
X-449940Y-905020D01*
X-450260Y-906720D01*
X-449940Y-908410D01*
X-448980Y-909470D01*
X-447850Y-910100D01*
X-443830D01*
G01X-447850D02*
X-450260Y-916240D01*
G01X-457260Y-914760D02*
X-458390Y-915820D01*
X-459670Y-916240D01*
X-460960Y-915820D01*
X-462090Y-914550D01*
X-462890Y-912640D01*
X-463210Y-910740D01*
Y-908410D01*
X-462890Y-906500D01*
X-462090Y-904810D01*
X-461120Y-903960D01*
X-459990Y-903540D01*
X-458710Y-903960D01*
X-457740Y-904810D01*
X-457100Y-906080D01*
X-456780Y-907770D01*
X-457100Y-909250D01*
X-457900Y-910740D01*
X-458870Y-911580D01*
X-459990Y-911800D01*
X-461280Y-911370D01*
X-462250Y-910310D01*
X-463210Y-908410D01*
G01X-472940Y-903540D02*
X-471660Y-903960D01*
X-470690Y-905020D01*
X-470050Y-906290D01*
X-469570Y-907990D01*
X-469410Y-909890D01*
X-469570Y-911800D01*
X-470050Y-913490D01*
X-470690Y-914760D01*
X-471660Y-915820D01*
X-472940Y-916240D01*
X-474230Y-915820D01*
X-475200Y-914760D01*
X-475840Y-913490D01*
X-476320Y-911800D01*
X-476480Y-909890D01*
X-476320Y-907990D01*
X-475840Y-906290D01*
X-475200Y-905020D01*
X-474230Y-903960D01*
X-472940Y-903540D01*
G01X-384550Y-901530D02*
X-388570Y-914230D01*
X-392600Y-901530D01*
G01X-397990Y-914230D02*
Y-901530D01*
X-401200D01*
X-402490Y-902170D01*
X-403460Y-903010D01*
X-404260Y-904280D01*
X-404900Y-905760D01*
X-405060Y-907880D01*
X-404900Y-910000D01*
X-404260Y-911480D01*
X-403460Y-912750D01*
X-402490Y-913600D01*
X-401200Y-914230D01*
X-397990D01*
G01X-414150D02*
X-414470Y-911480D01*
X-414960Y-909150D01*
X-415600Y-907030D01*
X-416410Y-904710D01*
X-417690Y-901530D01*
X-411260D01*
G01X-427420Y-914230D02*
X-428550Y-914020D01*
X-429840Y-913380D01*
X-430640Y-912330D01*
X-430960Y-910840D01*
X-430640Y-909360D01*
X-429680Y-908090D01*
X-428230Y-907460D01*
X-426620D01*
X-425660Y-907030D01*
X-424850Y-905980D01*
X-424530Y-904490D01*
X-425010Y-903010D01*
X-426140Y-901950D01*
X-427420Y-901530D01*
X-428710Y-901950D01*
X-429840Y-903010D01*
X-430320Y-904490D01*
X-430000Y-905980D01*
X-429190Y-907030D01*
X-428230Y-907460D01*
X-426620D01*
X-425170Y-908090D01*
X-424210Y-909360D01*
X-423890Y-910840D01*
X-424210Y-912330D01*
X-425010Y-913380D01*
X-426300Y-914020D01*
X-427420Y-914230D01*
G01X-432550Y-799530D02*
X-436570Y-812230D01*
X-440600Y-799530D01*
G01X-445990Y-812230D02*
Y-799530D01*
X-449200D01*
X-450490Y-800170D01*
X-451460Y-801010D01*
X-452260Y-802280D01*
X-452900Y-803760D01*
X-453060Y-805880D01*
X-452900Y-808000D01*
X-452260Y-809480D01*
X-451460Y-810750D01*
X-450490Y-811600D01*
X-449200Y-812230D01*
X-445990D01*
G01X-462150D02*
X-462470Y-809480D01*
X-462960Y-807150D01*
X-463600Y-805030D01*
X-464410Y-802710D01*
X-465690Y-799530D01*
X-459260D01*
G01X-471890Y-809690D02*
X-472850Y-811170D01*
X-474140Y-812020D01*
X-475590Y-812230D01*
X-476870Y-812020D01*
X-478160Y-810960D01*
X-478960Y-809690D01*
X-479120Y-808420D01*
X-478800Y-806940D01*
X-477680Y-805880D01*
X-476550Y-805460D01*
X-475100D01*
G01X-476550D02*
X-477520Y-804820D01*
X-478320Y-803760D01*
X-478640Y-802490D01*
X-478320Y-801220D01*
X-477520Y-800170D01*
X-476070Y-799530D01*
X-474620Y-799740D01*
X-473170Y-800590D01*
G01X-443830Y-712240D02*
Y-699540D01*
X-447850D01*
X-449140Y-700180D01*
X-449940Y-701020D01*
X-450260Y-702720D01*
X-449940Y-704410D01*
X-448980Y-705470D01*
X-447850Y-706100D01*
X-443830D01*
G01X-447850D02*
X-450260Y-712240D01*
G01X-459670D02*
X-459990Y-709490D01*
X-460480Y-707160D01*
X-461120Y-705040D01*
X-461930Y-702720D01*
X-463210Y-699540D01*
X-456780D01*
G01X-472940Y-712240D02*
X-474070Y-712030D01*
X-475360Y-711390D01*
X-476160Y-710340D01*
X-476480Y-708850D01*
X-476160Y-707370D01*
X-475200Y-706100D01*
X-473750Y-705470D01*
X-472140D01*
X-471180Y-705040D01*
X-470370Y-703990D01*
X-470050Y-702500D01*
X-470530Y-701020D01*
X-471660Y-699960D01*
X-472940Y-699540D01*
X-474230Y-699960D01*
X-475360Y-701020D01*
X-475840Y-702500D01*
X-475520Y-703990D01*
X-474710Y-705040D01*
X-473750Y-705470D01*
X-472140D01*
X-470690Y-706100D01*
X-469730Y-707370D01*
X-469410Y-708850D01*
X-469730Y-710340D01*
X-470530Y-711390D01*
X-471820Y-712030D01*
X-472940Y-712240D01*
G01X-382550Y-697530D02*
X-386570Y-710230D01*
X-390600Y-697530D01*
G01X-395990Y-710230D02*
Y-697530D01*
X-399200D01*
X-400490Y-698170D01*
X-401460Y-699010D01*
X-402260Y-700280D01*
X-402900Y-701760D01*
X-403060Y-703880D01*
X-402900Y-706000D01*
X-402260Y-707480D01*
X-401460Y-708750D01*
X-400490Y-709600D01*
X-399200Y-710230D01*
X-395990D01*
G01X-409420Y-704940D02*
X-410540Y-703460D01*
X-411510Y-702610D01*
X-412800Y-702190D01*
X-413920Y-702610D01*
X-414730Y-703460D01*
X-415370Y-704730D01*
X-415530Y-706210D01*
X-415370Y-707480D01*
X-414730Y-708750D01*
X-413760Y-709810D01*
X-412640Y-710230D01*
X-411350Y-709810D01*
X-410220Y-708540D01*
X-409580Y-706630D01*
X-409420Y-704520D01*
X-409740Y-701760D01*
X-410220Y-700280D01*
X-411030Y-698800D01*
X-412150Y-697740D01*
X-413280Y-697530D01*
X-414410Y-697950D01*
X-415210Y-699010D01*
G01X-425420Y-710230D02*
X-426550Y-710020D01*
X-427840Y-709380D01*
X-428640Y-708330D01*
X-428960Y-706840D01*
X-428640Y-705360D01*
X-427680Y-704090D01*
X-426230Y-703460D01*
X-424620D01*
X-423660Y-703030D01*
X-422850Y-701980D01*
X-422530Y-700490D01*
X-423010Y-699010D01*
X-424140Y-697950D01*
X-425420Y-697530D01*
X-426710Y-697950D01*
X-427840Y-699010D01*
X-428320Y-700490D01*
X-428000Y-701980D01*
X-427190Y-703030D01*
X-426230Y-703460D01*
X-424620D01*
X-423170Y-704090D01*
X-422210Y-705360D01*
X-421890Y-706840D01*
X-422210Y-708330D01*
X-423010Y-709380D01*
X-424300Y-710020D01*
X-425420Y-710230D01*
G01X-432550Y-595530D02*
X-436570Y-608230D01*
X-440600Y-595530D01*
G01X-445990Y-608230D02*
Y-595530D01*
X-449200D01*
X-450490Y-596170D01*
X-451460Y-597010D01*
X-452260Y-598280D01*
X-452900Y-599760D01*
X-453060Y-601880D01*
X-452900Y-604000D01*
X-452260Y-605480D01*
X-451460Y-606750D01*
X-450490Y-607600D01*
X-449200Y-608230D01*
X-445990D01*
G01X-459420Y-602940D02*
X-460540Y-601460D01*
X-461510Y-600610D01*
X-462800Y-600190D01*
X-463920Y-600610D01*
X-464730Y-601460D01*
X-465370Y-602730D01*
X-465530Y-604210D01*
X-465370Y-605480D01*
X-464730Y-606750D01*
X-463760Y-607810D01*
X-462640Y-608230D01*
X-461350Y-607810D01*
X-460220Y-606540D01*
X-459580Y-604630D01*
X-459420Y-602520D01*
X-459740Y-599760D01*
X-460220Y-598280D01*
X-461030Y-596800D01*
X-462150Y-595740D01*
X-463280Y-595530D01*
X-464410Y-595950D01*
X-465210Y-597010D01*
G01X-471890Y-605690D02*
X-472850Y-607170D01*
X-474140Y-608020D01*
X-475590Y-608230D01*
X-476870Y-608020D01*
X-478160Y-606960D01*
X-478960Y-605690D01*
X-479120Y-604420D01*
X-478800Y-602940D01*
X-477680Y-601880D01*
X-476550Y-601460D01*
X-475100D01*
G01X-476550D02*
X-477520Y-600820D01*
X-478320Y-599760D01*
X-478640Y-598490D01*
X-478320Y-597220D01*
X-477520Y-596170D01*
X-476070Y-595530D01*
X-474620Y-595740D01*
X-473170Y-596590D01*
G01X-443830Y-510240D02*
Y-497540D01*
X-447850D01*
X-449140Y-498180D01*
X-449940Y-499020D01*
X-450260Y-500720D01*
X-449940Y-502410D01*
X-448980Y-503470D01*
X-447850Y-504100D01*
X-443830D01*
G01X-447850D02*
X-450260Y-510240D01*
G01X-456940Y-504950D02*
X-458060Y-503470D01*
X-459030Y-502620D01*
X-460320Y-502200D01*
X-461440Y-502620D01*
X-462250Y-503470D01*
X-462890Y-504740D01*
X-463050Y-506220D01*
X-462890Y-507490D01*
X-462250Y-508760D01*
X-461280Y-509820D01*
X-460160Y-510240D01*
X-458870Y-509820D01*
X-457740Y-508550D01*
X-457100Y-506640D01*
X-456940Y-504530D01*
X-457260Y-501770D01*
X-457740Y-500290D01*
X-458550Y-498810D01*
X-459670Y-497750D01*
X-460800Y-497540D01*
X-461930Y-497960D01*
X-462730Y-499020D01*
G01X-469890Y-504950D02*
X-471010Y-503470D01*
X-471980Y-502620D01*
X-473270Y-502200D01*
X-474390Y-502620D01*
X-475200Y-503470D01*
X-475840Y-504740D01*
X-476000Y-506220D01*
X-475840Y-507490D01*
X-475200Y-508760D01*
X-474230Y-509820D01*
X-473110Y-510240D01*
X-471820Y-509820D01*
X-470690Y-508550D01*
X-470050Y-506640D01*
X-469890Y-504530D01*
X-470210Y-501770D01*
X-470690Y-500290D01*
X-471500Y-498810D01*
X-472620Y-497750D01*
X-473750Y-497540D01*
X-474880Y-497960D01*
X-475680Y-499020D01*
G01X-384550Y-495530D02*
X-388570Y-508230D01*
X-392600Y-495530D01*
G01X-397990Y-508230D02*
Y-495530D01*
X-401200D01*
X-402490Y-496170D01*
X-403460Y-497010D01*
X-404260Y-498280D01*
X-404900Y-499760D01*
X-405060Y-501880D01*
X-404900Y-504000D01*
X-404260Y-505480D01*
X-403460Y-506750D01*
X-402490Y-507600D01*
X-401200Y-508230D01*
X-397990D01*
G01X-410940Y-506330D02*
X-411900Y-507380D01*
X-413030Y-508020D01*
X-414470Y-508230D01*
X-415920Y-507810D01*
X-417050Y-506960D01*
X-417850Y-505480D01*
X-418010Y-503790D01*
X-417690Y-502090D01*
X-416890Y-501030D01*
X-415760Y-500190D01*
X-414640Y-499980D01*
X-413510Y-500190D01*
X-412060Y-501030D01*
X-412540Y-495530D01*
X-416890D01*
G01X-427420Y-508230D02*
X-428550Y-508020D01*
X-429840Y-507380D01*
X-430640Y-506330D01*
X-430960Y-504840D01*
X-430640Y-503360D01*
X-429680Y-502090D01*
X-428230Y-501460D01*
X-426620D01*
X-425660Y-501030D01*
X-424850Y-499980D01*
X-424530Y-498490D01*
X-425010Y-497010D01*
X-426140Y-495950D01*
X-427420Y-495530D01*
X-428710Y-495950D01*
X-429840Y-497010D01*
X-430320Y-498490D01*
X-430000Y-499980D01*
X-429190Y-501030D01*
X-428230Y-501460D01*
X-426620D01*
X-425170Y-502090D01*
X-424210Y-503360D01*
X-423890Y-504840D01*
X-424210Y-506330D01*
X-425010Y-507380D01*
X-426300Y-508020D01*
X-427420Y-508230D01*
G01X-434550Y-393530D02*
X-438570Y-406230D01*
X-442600Y-393530D01*
G01X-447990Y-406230D02*
Y-393530D01*
X-451200D01*
X-452490Y-394170D01*
X-453460Y-395010D01*
X-454260Y-396280D01*
X-454900Y-397760D01*
X-455060Y-399880D01*
X-454900Y-402000D01*
X-454260Y-403480D01*
X-453460Y-404750D01*
X-452490Y-405600D01*
X-451200Y-406230D01*
X-447990D01*
G01X-460940Y-404330D02*
X-461900Y-405380D01*
X-463030Y-406020D01*
X-464470Y-406230D01*
X-465920Y-405810D01*
X-467050Y-404960D01*
X-467850Y-403480D01*
X-468010Y-401790D01*
X-467690Y-400090D01*
X-466890Y-399030D01*
X-465760Y-398190D01*
X-464640Y-397980D01*
X-463510Y-398190D01*
X-462060Y-399030D01*
X-462540Y-393530D01*
X-466890D01*
G01X-473890Y-403690D02*
X-474850Y-405170D01*
X-476140Y-406020D01*
X-477590Y-406230D01*
X-478870Y-406020D01*
X-480160Y-404960D01*
X-480960Y-403690D01*
X-481120Y-402420D01*
X-480800Y-400940D01*
X-479680Y-399880D01*
X-478550Y-399460D01*
X-477100D01*
G01X-478550D02*
X-479520Y-398820D01*
X-480320Y-397760D01*
X-480640Y-396490D01*
X-480320Y-395220D01*
X-479520Y-394170D01*
X-478070Y-393530D01*
X-476620Y-393740D01*
X-475170Y-394590D01*
G01X-443830Y-308240D02*
Y-295540D01*
X-447850D01*
X-449140Y-296180D01*
X-449940Y-297020D01*
X-450260Y-298720D01*
X-449940Y-300410D01*
X-448980Y-301470D01*
X-447850Y-302100D01*
X-443830D01*
G01X-447850D02*
X-450260Y-308240D01*
G01X-459990D02*
Y-295540D01*
X-458060Y-298080D01*
G01Y-308240D02*
X-461920D01*
G01X-469890Y-297660D02*
X-470850Y-296390D01*
X-471980Y-295750D01*
X-473270Y-295540D01*
X-474880Y-295960D01*
X-476000Y-297020D01*
X-476320Y-298290D01*
X-476160Y-299560D01*
X-475520Y-300620D01*
X-472300Y-302740D01*
X-470850Y-304220D01*
X-469890Y-306340D01*
X-469570Y-308240D01*
X-476320D01*
G01X-384550Y-291530D02*
X-388570Y-304230D01*
X-392600Y-291530D01*
G01X-397990Y-304230D02*
Y-291530D01*
X-401200D01*
X-402490Y-292170D01*
X-403460Y-293010D01*
X-404260Y-294280D01*
X-404900Y-295760D01*
X-405060Y-297880D01*
X-404900Y-300000D01*
X-404260Y-301480D01*
X-403460Y-302750D01*
X-402490Y-303600D01*
X-401200Y-304230D01*
X-397990D01*
G01X-414470D02*
Y-291530D01*
X-412540Y-294070D01*
G01Y-304230D02*
X-416400D01*
G01X-427420D02*
Y-291530D01*
X-425490Y-294070D01*
G01Y-304230D02*
X-429350D01*
G01X-432550Y70470D02*
X-436570Y57770D01*
X-440600Y70470D01*
G01X-445990Y57770D02*
Y70470D01*
X-449200D01*
X-450490Y69830D01*
X-451460Y68990D01*
X-452260Y67720D01*
X-452900Y66240D01*
X-453060Y64120D01*
X-452900Y62000D01*
X-452260Y60520D01*
X-451460Y59250D01*
X-450490Y58400D01*
X-449200Y57770D01*
X-445990D01*
G01X-464410D02*
Y70470D01*
X-458450Y61370D01*
X-466500D01*
G01X-475420Y57770D02*
X-476550Y57980D01*
X-477840Y58620D01*
X-478640Y59670D01*
X-478960Y61160D01*
X-478640Y62640D01*
X-477680Y63910D01*
X-476230Y64540D01*
X-474620D01*
X-473660Y64970D01*
X-472850Y66020D01*
X-472530Y67510D01*
X-473010Y68990D01*
X-474140Y70050D01*
X-475420Y70470D01*
X-476710Y70050D01*
X-477840Y68990D01*
X-478320Y67510D01*
X-478000Y66020D01*
X-477190Y64970D01*
X-476230Y64540D01*
X-474620D01*
X-473170Y63910D01*
X-472210Y62640D01*
X-471890Y61160D01*
X-472210Y59670D01*
X-473010Y58620D01*
X-474300Y57980D01*
X-475420Y57770D01*
G01X-443840Y155760D02*
Y168460D01*
X-447860D01*
X-449150Y167820D01*
X-449950Y166980D01*
X-450270Y165280D01*
X-449950Y163590D01*
X-448990Y162530D01*
X-447860Y161900D01*
X-443840D01*
G01X-447860D02*
X-450270Y155760D01*
G01X-461940D02*
Y168460D01*
X-455980Y159360D01*
X-464030D01*
G01X-472950Y155760D02*
X-474080Y155970D01*
X-475370Y156610D01*
X-476170Y157660D01*
X-476490Y159150D01*
X-476170Y160630D01*
X-475210Y161900D01*
X-473760Y162530D01*
X-472150D01*
X-471190Y162960D01*
X-470380Y164010D01*
X-470060Y165500D01*
X-470540Y166980D01*
X-471670Y168040D01*
X-472950Y168460D01*
X-474240Y168040D01*
X-475370Y166980D01*
X-475850Y165500D01*
X-475530Y164010D01*
X-474720Y162960D01*
X-473760Y162530D01*
X-472150D01*
X-470700Y161900D01*
X-469740Y160630D01*
X-469420Y159150D01*
X-469740Y157660D01*
X-470540Y156610D01*
X-471830Y155970D01*
X-472950Y155760D01*
G01X-384550Y170470D02*
X-388570Y157770D01*
X-392600Y170470D01*
G01X-397990Y157770D02*
Y170470D01*
X-401200D01*
X-402490Y169830D01*
X-403460Y168990D01*
X-404260Y167720D01*
X-404900Y166240D01*
X-405060Y164120D01*
X-404900Y162000D01*
X-404260Y160520D01*
X-403460Y159250D01*
X-402490Y158400D01*
X-401200Y157770D01*
X-397990D01*
G01X-416410D02*
Y170470D01*
X-410450Y161370D01*
X-418500D01*
G01X-423890Y160310D02*
X-424850Y158830D01*
X-426140Y157980D01*
X-427590Y157770D01*
X-428870Y157980D01*
X-430160Y159040D01*
X-430960Y160310D01*
X-431120Y161580D01*
X-430800Y163060D01*
X-429680Y164120D01*
X-428550Y164540D01*
X-427100D01*
G01X-428550D02*
X-429520Y165180D01*
X-430320Y166240D01*
X-430640Y167510D01*
X-430320Y168780D01*
X-429520Y169830D01*
X-428070Y170470D01*
X-426620Y170260D01*
X-425170Y169410D01*
G01X-432550Y272470D02*
X-436570Y259770D01*
X-440600Y272470D01*
G01X-445990Y259770D02*
Y272470D01*
X-449200D01*
X-450490Y271830D01*
X-451460Y270990D01*
X-452260Y269720D01*
X-452900Y268240D01*
X-453060Y266120D01*
X-452900Y264000D01*
X-452260Y262520D01*
X-451460Y261250D01*
X-450490Y260400D01*
X-449200Y259770D01*
X-445990D01*
G01X-458940Y262310D02*
X-459900Y260830D01*
X-461190Y259980D01*
X-462640Y259770D01*
X-463920Y259980D01*
X-465210Y261040D01*
X-466010Y262310D01*
X-466170Y263580D01*
X-465850Y265060D01*
X-464730Y266120D01*
X-463600Y266540D01*
X-462150D01*
G01X-463600D02*
X-464570Y267180D01*
X-465370Y268240D01*
X-465690Y269510D01*
X-465370Y270780D01*
X-464570Y271830D01*
X-463120Y272470D01*
X-461670Y272260D01*
X-460220Y271410D01*
G01X-475420Y259770D02*
X-476550Y259980D01*
X-477840Y260620D01*
X-478640Y261670D01*
X-478960Y263160D01*
X-478640Y264640D01*
X-477680Y265910D01*
X-476230Y266540D01*
X-474620D01*
X-473660Y266970D01*
X-472850Y268020D01*
X-472530Y269510D01*
X-473010Y270990D01*
X-474140Y272050D01*
X-475420Y272470D01*
X-476710Y272050D01*
X-477840Y270990D01*
X-478320Y269510D01*
X-478000Y268020D01*
X-477190Y266970D01*
X-476230Y266540D01*
X-474620D01*
X-473170Y265910D01*
X-472210Y264640D01*
X-471890Y263160D01*
X-472210Y261670D01*
X-473010Y260620D01*
X-474300Y259980D01*
X-475420Y259770D01*
G01X-445840Y357760D02*
Y370460D01*
X-449860D01*
X-451150Y369820D01*
X-451950Y368980D01*
X-452270Y367280D01*
X-451950Y365590D01*
X-450990Y364530D01*
X-449860Y363900D01*
X-445840D01*
G01X-449860D02*
X-452270Y357760D01*
G01X-458470Y360300D02*
X-459430Y358820D01*
X-460720Y357970D01*
X-462170Y357760D01*
X-463450Y357970D01*
X-464740Y359030D01*
X-465540Y360300D01*
X-465700Y361570D01*
X-465380Y363050D01*
X-464260Y364110D01*
X-463130Y364530D01*
X-461680D01*
G01X-463130D02*
X-464100Y365170D01*
X-464900Y366230D01*
X-465220Y367500D01*
X-464900Y368770D01*
X-464100Y369820D01*
X-462650Y370460D01*
X-461200Y370250D01*
X-459750Y369400D01*
G01X-471900Y363050D02*
X-473020Y364530D01*
X-473990Y365380D01*
X-475280Y365800D01*
X-476400Y365380D01*
X-477210Y364530D01*
X-477850Y363260D01*
X-478010Y361780D01*
X-477850Y360510D01*
X-477210Y359240D01*
X-476240Y358180D01*
X-475120Y357760D01*
X-473830Y358180D01*
X-472700Y359450D01*
X-472060Y361360D01*
X-471900Y363470D01*
X-472220Y366230D01*
X-472700Y367710D01*
X-473510Y369190D01*
X-474630Y370250D01*
X-475760Y370460D01*
X-476890Y370040D01*
X-477690Y368980D01*
G01X-388550Y372470D02*
X-392570Y359770D01*
X-396600Y372470D01*
G01X-401990Y359770D02*
Y372470D01*
X-405200D01*
X-406490Y371830D01*
X-407460Y370990D01*
X-408260Y369720D01*
X-408900Y368240D01*
X-409060Y366120D01*
X-408900Y364000D01*
X-408260Y362520D01*
X-407460Y361250D01*
X-406490Y360400D01*
X-405200Y359770D01*
X-401990D01*
G01X-414940Y362310D02*
X-415900Y360830D01*
X-417190Y359980D01*
X-418640Y359770D01*
X-419920Y359980D01*
X-421210Y361040D01*
X-422010Y362310D01*
X-422170Y363580D01*
X-421850Y365060D01*
X-420730Y366120D01*
X-419600Y366540D01*
X-418150D01*
G01X-419600D02*
X-420570Y367180D01*
X-421370Y368240D01*
X-421690Y369510D01*
X-421370Y370780D01*
X-420570Y371830D01*
X-419120Y372470D01*
X-417670Y372260D01*
X-416220Y371410D01*
G01X-427890Y362310D02*
X-428850Y360830D01*
X-430140Y359980D01*
X-431590Y359770D01*
X-432870Y359980D01*
X-434160Y361040D01*
X-434960Y362310D01*
X-435120Y363580D01*
X-434800Y365060D01*
X-433680Y366120D01*
X-432550Y366540D01*
X-431100D01*
G01X-432550D02*
X-433520Y367180D01*
X-434320Y368240D01*
X-434640Y369510D01*
X-434320Y370780D01*
X-433520Y371830D01*
X-432070Y372470D01*
X-430620Y372260D01*
X-429170Y371410D01*
G01X-389840Y461770D02*
Y474470D01*
X-393860D01*
X-395150Y473830D01*
X-395950Y472990D01*
X-396270Y471290D01*
X-395950Y469600D01*
X-394990Y468540D01*
X-393860Y467910D01*
X-389840D01*
G01X-393860D02*
X-396270Y461770D01*
G01X-402470Y464310D02*
X-403430Y462830D01*
X-404720Y461980D01*
X-406170Y461770D01*
X-407450Y461980D01*
X-408740Y463040D01*
X-409540Y464310D01*
X-409700Y465580D01*
X-409380Y467060D01*
X-408260Y468120D01*
X-407130Y468540D01*
X-405680D01*
G01X-407130D02*
X-408100Y469180D01*
X-408900Y470240D01*
X-409220Y471510D01*
X-408900Y472780D01*
X-408100Y473830D01*
X-406650Y474470D01*
X-405200Y474260D01*
X-403750Y473410D01*
G01X-418950Y474470D02*
X-417670Y474050D01*
X-416700Y472990D01*
X-416060Y471720D01*
X-415580Y470020D01*
X-415420Y468120D01*
X-415580Y466210D01*
X-416060Y464520D01*
X-416700Y463250D01*
X-417670Y462190D01*
X-418950Y461770D01*
X-420240Y462190D01*
X-421210Y463250D01*
X-421850Y464520D01*
X-422330Y466210D01*
X-422490Y468120D01*
X-422330Y470020D01*
X-421850Y471720D01*
X-421210Y472990D01*
X-420240Y474050D01*
X-418950Y474470D01*
G01X-432550D02*
X-436570Y461770D01*
X-440600Y474470D01*
G01X-445990Y461770D02*
Y474470D01*
X-449200D01*
X-450490Y473830D01*
X-451460Y472990D01*
X-452260Y471720D01*
X-452900Y470240D01*
X-453060Y468120D01*
X-452900Y466000D01*
X-452260Y464520D01*
X-451460Y463250D01*
X-450490Y462400D01*
X-449200Y461770D01*
X-445990D01*
G01X-459420Y472350D02*
X-460380Y473620D01*
X-461510Y474260D01*
X-462800Y474470D01*
X-464410Y474050D01*
X-465530Y472990D01*
X-465850Y471720D01*
X-465690Y470450D01*
X-465050Y469390D01*
X-461830Y467270D01*
X-460380Y465790D01*
X-459420Y463670D01*
X-459100Y461770D01*
X-465850D01*
G01X-475420D02*
X-476550Y461980D01*
X-477840Y462620D01*
X-478640Y463670D01*
X-478960Y465160D01*
X-478640Y466640D01*
X-477680Y467910D01*
X-476230Y468540D01*
X-474620D01*
X-473660Y468970D01*
X-472850Y470020D01*
X-472530Y471510D01*
X-473010Y472990D01*
X-474140Y474050D01*
X-475420Y474470D01*
X-476710Y474050D01*
X-477840Y472990D01*
X-478320Y471510D01*
X-478000Y470020D01*
X-477190Y468970D01*
X-476230Y468540D01*
X-474620D01*
X-473170Y467910D01*
X-472210Y466640D01*
X-471890Y465160D01*
X-472210Y463670D01*
X-473010Y462620D01*
X-474300Y461980D01*
X-475420Y461770D01*
G01X-443840Y561770D02*
Y574470D01*
X-447860D01*
X-449150Y573830D01*
X-449950Y572990D01*
X-450270Y571290D01*
X-449950Y569600D01*
X-448990Y568540D01*
X-447860Y567910D01*
X-443840D01*
G01X-447860D02*
X-450270Y561770D01*
G01X-456950Y572350D02*
X-457910Y573620D01*
X-459040Y574260D01*
X-460330Y574470D01*
X-461940Y574050D01*
X-463060Y572990D01*
X-463380Y571720D01*
X-463220Y570450D01*
X-462580Y569390D01*
X-459360Y567270D01*
X-457910Y565790D01*
X-456950Y563670D01*
X-456630Y561770D01*
X-463380D01*
G01X-474890D02*
Y574470D01*
X-468930Y565370D01*
X-476980D01*
G01X-386550Y576470D02*
X-390570Y563770D01*
X-394600Y576470D01*
G01X-399990Y563770D02*
Y576470D01*
X-403200D01*
X-404490Y575830D01*
X-405460Y574990D01*
X-406260Y573720D01*
X-406900Y572240D01*
X-407060Y570120D01*
X-406900Y568000D01*
X-406260Y566520D01*
X-405460Y565250D01*
X-404490Y564400D01*
X-403200Y563770D01*
X-399990D01*
G01X-413420Y574350D02*
X-414380Y575620D01*
X-415510Y576260D01*
X-416800Y576470D01*
X-418410Y576050D01*
X-419530Y574990D01*
X-419850Y573720D01*
X-419690Y572450D01*
X-419050Y571390D01*
X-415830Y569270D01*
X-414380Y567790D01*
X-413420Y565670D01*
X-413100Y563770D01*
X-419850D01*
G01X-425890Y566310D02*
X-426850Y564830D01*
X-428140Y563980D01*
X-429590Y563770D01*
X-430870Y563980D01*
X-432160Y565040D01*
X-432960Y566310D01*
X-433120Y567580D01*
X-432800Y569060D01*
X-431680Y570120D01*
X-430550Y570540D01*
X-429100D01*
G01X-430550D02*
X-431520Y571180D01*
X-432320Y572240D01*
X-432640Y573510D01*
X-432320Y574780D01*
X-431520Y575830D01*
X-430070Y576470D01*
X-428620Y576260D01*
X-427170Y575410D01*
G01X-434550Y680470D02*
X-438570Y667770D01*
X-442600Y680470D01*
G01X-447990Y667770D02*
Y680470D01*
X-451200D01*
X-452490Y679830D01*
X-453460Y678990D01*
X-454260Y677720D01*
X-454900Y676240D01*
X-455060Y674120D01*
X-454900Y672000D01*
X-454260Y670520D01*
X-453460Y669250D01*
X-452490Y668400D01*
X-451200Y667770D01*
X-447990D01*
G01X-464470D02*
Y680470D01*
X-462540Y677930D01*
G01Y667770D02*
X-466400D01*
G01X-477420D02*
X-478550Y667980D01*
X-479840Y668620D01*
X-480640Y669670D01*
X-480960Y671160D01*
X-480640Y672640D01*
X-479680Y673910D01*
X-478230Y674540D01*
X-476620D01*
X-475660Y674970D01*
X-474850Y676020D01*
X-474530Y677510D01*
X-475010Y678990D01*
X-476140Y680050D01*
X-477420Y680470D01*
X-478710Y680050D01*
X-479840Y678990D01*
X-480320Y677510D01*
X-480000Y676020D01*
X-479190Y674970D01*
X-478230Y674540D01*
X-476620D01*
X-475170Y673910D01*
X-474210Y672640D01*
X-473890Y671160D01*
X-474210Y669670D01*
X-475010Y668620D01*
X-476300Y667980D01*
X-477420Y667770D01*
G01X-456310Y763760D02*
Y776460D01*
X-460330D01*
X-461620Y775820D01*
X-462420Y774980D01*
X-462740Y773280D01*
X-462420Y771590D01*
X-461460Y770530D01*
X-460330Y769900D01*
X-456310D01*
G01X-460330D02*
X-462740Y763760D01*
G01X-469420Y769050D02*
X-470540Y770530D01*
X-471510Y771380D01*
X-472800Y771800D01*
X-473920Y771380D01*
X-474730Y770530D01*
X-475370Y769260D01*
X-475530Y767780D01*
X-475370Y766510D01*
X-474730Y765240D01*
X-473760Y764180D01*
X-472640Y763760D01*
X-471350Y764180D01*
X-470220Y765450D01*
X-469580Y767360D01*
X-469420Y769470D01*
X-469740Y772230D01*
X-470220Y773710D01*
X-471030Y775190D01*
X-472150Y776250D01*
X-473280Y776460D01*
X-474410Y776040D01*
X-475210Y774980D01*
G01X-409020Y780470D02*
X-413040Y767770D01*
X-417070Y780470D01*
G01X-422460Y767770D02*
Y780470D01*
X-425670D01*
X-426960Y779830D01*
X-427930Y778990D01*
X-428730Y777720D01*
X-429370Y776240D01*
X-429530Y774120D01*
X-429370Y772000D01*
X-428730Y770520D01*
X-427930Y769250D01*
X-426960Y768400D01*
X-425670Y767770D01*
X-422460D01*
G01X-435890Y773060D02*
X-437010Y774540D01*
X-437980Y775390D01*
X-439270Y775810D01*
X-440390Y775390D01*
X-441200Y774540D01*
X-441840Y773270D01*
X-442000Y771790D01*
X-441840Y770520D01*
X-441200Y769250D01*
X-440230Y768190D01*
X-439110Y767770D01*
X-437820Y768190D01*
X-436690Y769460D01*
X-436050Y771370D01*
X-435890Y773480D01*
X-436210Y776240D01*
X-436690Y777720D01*
X-437500Y779200D01*
X-438620Y780260D01*
X-439750Y780470D01*
X-440880Y780050D01*
X-441680Y778990D01*
G01X-383830Y-1016240D02*
Y-1003540D01*
X-387850D01*
X-389140Y-1004180D01*
X-389940Y-1005020D01*
X-390260Y-1006720D01*
X-389940Y-1008410D01*
X-388980Y-1009470D01*
X-387850Y-1010100D01*
X-383830D01*
G01X-387850D02*
X-390260Y-1016240D01*
G01X-397260Y-1014760D02*
X-398390Y-1015820D01*
X-399670Y-1016240D01*
X-400960Y-1015820D01*
X-402090Y-1014550D01*
X-402890Y-1012640D01*
X-403210Y-1010740D01*
Y-1008410D01*
X-402890Y-1006500D01*
X-402090Y-1004810D01*
X-401120Y-1003960D01*
X-399990Y-1003540D01*
X-398710Y-1003960D01*
X-397740Y-1004810D01*
X-397100Y-1006080D01*
X-396780Y-1007770D01*
X-397100Y-1009250D01*
X-397900Y-1010740D01*
X-398870Y-1011580D01*
X-399990Y-1011800D01*
X-401280Y-1011370D01*
X-402250Y-1010310D01*
X-403210Y-1008410D01*
G01X-409890Y-1010950D02*
X-411010Y-1009470D01*
X-411980Y-1008620D01*
X-413270Y-1008200D01*
X-414390Y-1008620D01*
X-415200Y-1009470D01*
X-415840Y-1010740D01*
X-416000Y-1012220D01*
X-415840Y-1013490D01*
X-415200Y-1014760D01*
X-414230Y-1015820D01*
X-413110Y-1016240D01*
X-411820Y-1015820D01*
X-410690Y-1014550D01*
X-410050Y-1012640D01*
X-409890Y-1010530D01*
X-410210Y-1007770D01*
X-410690Y-1006290D01*
X-411500Y-1004810D01*
X-412620Y-1003750D01*
X-413750Y-1003540D01*
X-414880Y-1003960D01*
X-415680Y-1005020D01*
G01X-341830Y-1016240D02*
Y-1003540D01*
X-345850D01*
X-347140Y-1004180D01*
X-347940Y-1005020D01*
X-348260Y-1006720D01*
X-347940Y-1008410D01*
X-346980Y-1009470D01*
X-345850Y-1010100D01*
X-341830D01*
G01X-345850D02*
X-348260Y-1016240D01*
G01X-355260Y-1014760D02*
X-356390Y-1015820D01*
X-357670Y-1016240D01*
X-358960Y-1015820D01*
X-360090Y-1014550D01*
X-360890Y-1012640D01*
X-361210Y-1010740D01*
Y-1008410D01*
X-360890Y-1006500D01*
X-360090Y-1004810D01*
X-359120Y-1003960D01*
X-357990Y-1003540D01*
X-356710Y-1003960D01*
X-355740Y-1004810D01*
X-355100Y-1006080D01*
X-354780Y-1007770D01*
X-355100Y-1009250D01*
X-355900Y-1010740D01*
X-356870Y-1011580D01*
X-357990Y-1011800D01*
X-359280Y-1011370D01*
X-360250Y-1010310D01*
X-361210Y-1008410D01*
G01X-370620Y-1016240D02*
X-370940Y-1013490D01*
X-371430Y-1011160D01*
X-372070Y-1009040D01*
X-372880Y-1006720D01*
X-374160Y-1003540D01*
X-367730D01*
G01X-387830Y-814240D02*
Y-801540D01*
X-391850D01*
X-393140Y-802180D01*
X-393940Y-803020D01*
X-394260Y-804720D01*
X-393940Y-806410D01*
X-392980Y-807470D01*
X-391850Y-808100D01*
X-387830D01*
G01X-391850D02*
X-394260Y-814240D01*
G01X-403990D02*
X-405120Y-814030D01*
X-406410Y-813390D01*
X-407210Y-812340D01*
X-407530Y-810850D01*
X-407210Y-809370D01*
X-406250Y-808100D01*
X-404800Y-807470D01*
X-403190D01*
X-402230Y-807040D01*
X-401420Y-805990D01*
X-401100Y-804500D01*
X-401580Y-803020D01*
X-402710Y-801960D01*
X-403990Y-801540D01*
X-405280Y-801960D01*
X-406410Y-803020D01*
X-406890Y-804500D01*
X-406570Y-805990D01*
X-405760Y-807040D01*
X-404800Y-807470D01*
X-403190D01*
X-401740Y-808100D01*
X-400780Y-809370D01*
X-400460Y-810850D01*
X-400780Y-812340D01*
X-401580Y-813390D01*
X-402870Y-814030D01*
X-403990Y-814240D01*
G01X-418880D02*
Y-801540D01*
X-412920Y-810640D01*
X-420970D01*
G01X-343830Y-814240D02*
Y-801540D01*
X-347850D01*
X-349140Y-802180D01*
X-349940Y-803020D01*
X-350260Y-804720D01*
X-349940Y-806410D01*
X-348980Y-807470D01*
X-347850Y-808100D01*
X-343830D01*
G01X-347850D02*
X-350260Y-814240D01*
G01X-359990D02*
X-361120Y-814030D01*
X-362410Y-813390D01*
X-363210Y-812340D01*
X-363530Y-810850D01*
X-363210Y-809370D01*
X-362250Y-808100D01*
X-360800Y-807470D01*
X-359190D01*
X-358230Y-807040D01*
X-357420Y-805990D01*
X-357100Y-804500D01*
X-357580Y-803020D01*
X-358710Y-801960D01*
X-359990Y-801540D01*
X-361280Y-801960D01*
X-362410Y-803020D01*
X-362890Y-804500D01*
X-362570Y-805990D01*
X-361760Y-807040D01*
X-360800Y-807470D01*
X-359190D01*
X-357740Y-808100D01*
X-356780Y-809370D01*
X-356460Y-810850D01*
X-356780Y-812340D01*
X-357580Y-813390D01*
X-358870Y-814030D01*
X-359990Y-814240D01*
G01X-369410Y-812340D02*
X-370370Y-813390D01*
X-371500Y-814030D01*
X-372940Y-814240D01*
X-374390Y-813820D01*
X-375520Y-812970D01*
X-376320Y-811490D01*
X-376480Y-809800D01*
X-376160Y-808100D01*
X-375360Y-807040D01*
X-374230Y-806200D01*
X-373110Y-805990D01*
X-371980Y-806200D01*
X-370530Y-807040D01*
X-371010Y-801540D01*
X-375360D01*
G01X-320590Y-710590D02*
X-319630Y-709950D01*
X-318500Y-709530D01*
X-317220D01*
X-315770Y-710170D01*
X-314640Y-711220D01*
X-313840Y-712490D01*
X-313190Y-714610D01*
X-313030Y-716520D01*
X-313360Y-718420D01*
X-313840Y-719690D01*
X-314800Y-720960D01*
X-315930Y-721810D01*
X-317050Y-722230D01*
X-318180D01*
X-319310Y-721810D01*
X-320270Y-721170D01*
X-321080Y-720330D01*
G01X-331940Y-722230D02*
Y-709530D01*
X-325980Y-718630D01*
X-334030D01*
G01X-342950Y-722230D02*
Y-709530D01*
X-341020Y-712070D01*
G01Y-722230D02*
X-344880D01*
G01X-385830Y-610240D02*
Y-597540D01*
X-389850D01*
X-391140Y-598180D01*
X-391940Y-599020D01*
X-392260Y-600720D01*
X-391940Y-602410D01*
X-390980Y-603470D01*
X-389850Y-604100D01*
X-385830D01*
G01X-389850D02*
X-392260Y-610240D01*
G01X-401670D02*
X-401990Y-607490D01*
X-402480Y-605160D01*
X-403120Y-603040D01*
X-403930Y-600720D01*
X-405210Y-597540D01*
X-398780D01*
G01X-411890Y-599660D02*
X-412850Y-598390D01*
X-413980Y-597750D01*
X-415270Y-597540D01*
X-416880Y-597960D01*
X-418000Y-599020D01*
X-418320Y-600290D01*
X-418160Y-601560D01*
X-417520Y-602620D01*
X-414300Y-604740D01*
X-412850Y-606220D01*
X-411890Y-608340D01*
X-411570Y-610240D01*
X-418320D01*
G01X-341830D02*
Y-597540D01*
X-345850D01*
X-347140Y-598180D01*
X-347940Y-599020D01*
X-348260Y-600720D01*
X-347940Y-602410D01*
X-346980Y-603470D01*
X-345850Y-604100D01*
X-341830D01*
G01X-345850D02*
X-348260Y-610240D01*
G01X-357670D02*
X-357990Y-607490D01*
X-358480Y-605160D01*
X-359120Y-603040D01*
X-359930Y-600720D01*
X-361210Y-597540D01*
X-354780D01*
G01X-367410Y-607700D02*
X-368370Y-609180D01*
X-369660Y-610030D01*
X-371110Y-610240D01*
X-372390Y-610030D01*
X-373680Y-608970D01*
X-374480Y-607700D01*
X-374640Y-606430D01*
X-374320Y-604950D01*
X-373200Y-603890D01*
X-372070Y-603470D01*
X-370620D01*
G01X-372070D02*
X-373040Y-602830D01*
X-373840Y-601770D01*
X-374160Y-600500D01*
X-373840Y-599230D01*
X-373040Y-598180D01*
X-371590Y-597540D01*
X-370140Y-597750D01*
X-368690Y-598600D01*
G01X-320590Y-506590D02*
X-319630Y-505950D01*
X-318500Y-505530D01*
X-317220D01*
X-315770Y-506170D01*
X-314640Y-507220D01*
X-313840Y-508490D01*
X-313190Y-510610D01*
X-313030Y-512520D01*
X-313360Y-514420D01*
X-313840Y-515690D01*
X-314800Y-516960D01*
X-315930Y-517810D01*
X-317050Y-518230D01*
X-318180D01*
X-319310Y-517810D01*
X-320270Y-517170D01*
X-321080Y-516330D01*
G01X-326470Y-515690D02*
X-327430Y-517170D01*
X-328720Y-518020D01*
X-330170Y-518230D01*
X-331450Y-518020D01*
X-332740Y-516960D01*
X-333540Y-515690D01*
X-333700Y-514420D01*
X-333380Y-512940D01*
X-332260Y-511880D01*
X-331130Y-511460D01*
X-329680D01*
G01X-331130D02*
X-332100Y-510820D01*
X-332900Y-509760D01*
X-333220Y-508490D01*
X-332900Y-507220D01*
X-332100Y-506170D01*
X-330650Y-505530D01*
X-329200Y-505740D01*
X-327750Y-506590D01*
G01X-339420Y-516330D02*
X-340380Y-517380D01*
X-341510Y-518020D01*
X-342950Y-518230D01*
X-344400Y-517810D01*
X-345530Y-516960D01*
X-346330Y-515480D01*
X-346490Y-513790D01*
X-346170Y-512090D01*
X-345370Y-511030D01*
X-344240Y-510190D01*
X-343120Y-509980D01*
X-341990Y-510190D01*
X-340540Y-511030D01*
X-341020Y-505530D01*
X-345370D01*
G01X-385830Y-408240D02*
Y-395540D01*
X-389850D01*
X-391140Y-396180D01*
X-391940Y-397020D01*
X-392260Y-398720D01*
X-391940Y-400410D01*
X-390980Y-401470D01*
X-389850Y-402100D01*
X-385830D01*
G01X-389850D02*
X-392260Y-408240D01*
G01X-398940Y-402950D02*
X-400060Y-401470D01*
X-401030Y-400620D01*
X-402320Y-400200D01*
X-403440Y-400620D01*
X-404250Y-401470D01*
X-404890Y-402740D01*
X-405050Y-404220D01*
X-404890Y-405490D01*
X-404250Y-406760D01*
X-403280Y-407820D01*
X-402160Y-408240D01*
X-400870Y-407820D01*
X-399740Y-406550D01*
X-399100Y-404640D01*
X-398940Y-402530D01*
X-399260Y-399770D01*
X-399740Y-398290D01*
X-400550Y-396810D01*
X-401670Y-395750D01*
X-402800Y-395540D01*
X-403930Y-395960D01*
X-404730Y-397020D01*
G01X-414940Y-395540D02*
X-413660Y-395960D01*
X-412690Y-397020D01*
X-412050Y-398290D01*
X-411570Y-399990D01*
X-411410Y-401890D01*
X-411570Y-403800D01*
X-412050Y-405490D01*
X-412690Y-406760D01*
X-413660Y-407820D01*
X-414940Y-408240D01*
X-416230Y-407820D01*
X-417200Y-406760D01*
X-417840Y-405490D01*
X-418320Y-403800D01*
X-418480Y-401890D01*
X-418320Y-399990D01*
X-417840Y-398290D01*
X-417200Y-397020D01*
X-416230Y-395960D01*
X-414940Y-395540D01*
G01X-343830Y-408240D02*
Y-395540D01*
X-347850D01*
X-349140Y-396180D01*
X-349940Y-397020D01*
X-350260Y-398720D01*
X-349940Y-400410D01*
X-348980Y-401470D01*
X-347850Y-402100D01*
X-343830D01*
G01X-347850D02*
X-350260Y-408240D01*
G01X-356940Y-402950D02*
X-358060Y-401470D01*
X-359030Y-400620D01*
X-360320Y-400200D01*
X-361440Y-400620D01*
X-362250Y-401470D01*
X-362890Y-402740D01*
X-363050Y-404220D01*
X-362890Y-405490D01*
X-362250Y-406760D01*
X-361280Y-407820D01*
X-360160Y-408240D01*
X-358870Y-407820D01*
X-357740Y-406550D01*
X-357100Y-404640D01*
X-356940Y-402530D01*
X-357260Y-399770D01*
X-357740Y-398290D01*
X-358550Y-396810D01*
X-359670Y-395750D01*
X-360800Y-395540D01*
X-361930Y-395960D01*
X-362730Y-397020D01*
G01X-372940Y-408240D02*
Y-395540D01*
X-371010Y-398080D01*
G01Y-408240D02*
X-374870D01*
G01X-387840Y55770D02*
Y68470D01*
X-391860D01*
X-393150Y67830D01*
X-393950Y66990D01*
X-394270Y65290D01*
X-393950Y63600D01*
X-392990Y62540D01*
X-391860Y61910D01*
X-387840D01*
G01X-391860D02*
X-394270Y55770D01*
G01X-400470Y57670D02*
X-401430Y56620D01*
X-402560Y55980D01*
X-404000Y55770D01*
X-405450Y56190D01*
X-406580Y57040D01*
X-407380Y58520D01*
X-407540Y60210D01*
X-407220Y61910D01*
X-406420Y62970D01*
X-405290Y63810D01*
X-404170Y64020D01*
X-403040Y63810D01*
X-401590Y62970D01*
X-402070Y68470D01*
X-406420D01*
G01X-418890Y55770D02*
Y68470D01*
X-412930Y59370D01*
X-420980D01*
G01X-345840Y55760D02*
Y68460D01*
X-349860D01*
X-351150Y67820D01*
X-351950Y66980D01*
X-352270Y65280D01*
X-351950Y63590D01*
X-350990Y62530D01*
X-349860Y61900D01*
X-345840D01*
G01X-349860D02*
X-352270Y55760D01*
G01X-358470Y57660D02*
X-359430Y56610D01*
X-360560Y55970D01*
X-362000Y55760D01*
X-363450Y56180D01*
X-364580Y57030D01*
X-365380Y58510D01*
X-365540Y60200D01*
X-365220Y61900D01*
X-364420Y62960D01*
X-363290Y63800D01*
X-362170Y64010D01*
X-361040Y63800D01*
X-359590Y62960D01*
X-360070Y68460D01*
X-364420D01*
G01X-371420Y57660D02*
X-372380Y56610D01*
X-373510Y55970D01*
X-374950Y55760D01*
X-376400Y56180D01*
X-377530Y57030D01*
X-378330Y58510D01*
X-378490Y60200D01*
X-378170Y61900D01*
X-377370Y62960D01*
X-376240Y63800D01*
X-375120Y64010D01*
X-373990Y63800D01*
X-372540Y62960D01*
X-373020Y68460D01*
X-377370D01*
G01X-320580Y159410D02*
X-319620Y160050D01*
X-318490Y160470D01*
X-317210D01*
X-315760Y159830D01*
X-314630Y158780D01*
X-313830Y157510D01*
X-313180Y155390D01*
X-313020Y153480D01*
X-313350Y151580D01*
X-313830Y150310D01*
X-314790Y149040D01*
X-315920Y148190D01*
X-317040Y147770D01*
X-318170D01*
X-319300Y148190D01*
X-320260Y148830D01*
X-321070Y149670D01*
G01X-326940Y158350D02*
X-327900Y159620D01*
X-329030Y160260D01*
X-330320Y160470D01*
X-331930Y160050D01*
X-333050Y158990D01*
X-333370Y157720D01*
X-333210Y156450D01*
X-332570Y155390D01*
X-329350Y153270D01*
X-327900Y151790D01*
X-326940Y149670D01*
X-326620Y147770D01*
X-333370D01*
G01X-339890Y153060D02*
X-341010Y154540D01*
X-341980Y155390D01*
X-343270Y155810D01*
X-344390Y155390D01*
X-345200Y154540D01*
X-345840Y153270D01*
X-346000Y151790D01*
X-345840Y150520D01*
X-345200Y149250D01*
X-344230Y148190D01*
X-343110Y147770D01*
X-341820Y148190D01*
X-340690Y149460D01*
X-340050Y151370D01*
X-339890Y153480D01*
X-340210Y156240D01*
X-340690Y157720D01*
X-341500Y159200D01*
X-342620Y160260D01*
X-343750Y160470D01*
X-344880Y160050D01*
X-345680Y158990D01*
G01X-387840Y257770D02*
Y270470D01*
X-391860D01*
X-393150Y269830D01*
X-393950Y268990D01*
X-394270Y267290D01*
X-393950Y265600D01*
X-392990Y264540D01*
X-391860Y263910D01*
X-387840D01*
G01X-391860D02*
X-394270Y257770D01*
G01X-405940D02*
Y270470D01*
X-399980Y261370D01*
X-408030D01*
G01X-413900Y268350D02*
X-414860Y269620D01*
X-415990Y270260D01*
X-417280Y270470D01*
X-418890Y270050D01*
X-420010Y268990D01*
X-420330Y267720D01*
X-420170Y266450D01*
X-419530Y265390D01*
X-416310Y263270D01*
X-414860Y261790D01*
X-413900Y259670D01*
X-413580Y257770D01*
X-420330D01*
G01X-341840D02*
Y270470D01*
X-345860D01*
X-347150Y269830D01*
X-347950Y268990D01*
X-348270Y267290D01*
X-347950Y265600D01*
X-346990Y264540D01*
X-345860Y263910D01*
X-341840D01*
G01X-345860D02*
X-348270Y257770D01*
G01X-359940D02*
Y270470D01*
X-353980Y261370D01*
X-362030D01*
G01X-367420Y260310D02*
X-368380Y258830D01*
X-369670Y257980D01*
X-371120Y257770D01*
X-372400Y257980D01*
X-373690Y259040D01*
X-374490Y260310D01*
X-374650Y261580D01*
X-374330Y263060D01*
X-373210Y264120D01*
X-372080Y264540D01*
X-370630D01*
G01X-372080D02*
X-373050Y265180D01*
X-373850Y266240D01*
X-374170Y267510D01*
X-373850Y268780D01*
X-373050Y269830D01*
X-371600Y270470D01*
X-370150Y270260D01*
X-368700Y269410D01*
G01X-320590Y361410D02*
X-319630Y362050D01*
X-318500Y362470D01*
X-317220D01*
X-315770Y361830D01*
X-314640Y360780D01*
X-313840Y359510D01*
X-313190Y357390D01*
X-313030Y355480D01*
X-313360Y353580D01*
X-313840Y352310D01*
X-314800Y351040D01*
X-315930Y350190D01*
X-317050Y349770D01*
X-318180D01*
X-319310Y350190D01*
X-320270Y350830D01*
X-321080Y351670D01*
G01X-326950Y360350D02*
X-327910Y361620D01*
X-329040Y362260D01*
X-330330Y362470D01*
X-331940Y362050D01*
X-333060Y360990D01*
X-333380Y359720D01*
X-333220Y358450D01*
X-332580Y357390D01*
X-329360Y355270D01*
X-327910Y353790D01*
X-326950Y351670D01*
X-326630Y349770D01*
X-333380D01*
G01X-342950Y362470D02*
X-341670Y362050D01*
X-340700Y360990D01*
X-340060Y359720D01*
X-339580Y358020D01*
X-339420Y356120D01*
X-339580Y354210D01*
X-340060Y352520D01*
X-340700Y351250D01*
X-341670Y350190D01*
X-342950Y349770D01*
X-344240Y350190D01*
X-345210Y351250D01*
X-345850Y352520D01*
X-346330Y354210D01*
X-346490Y356120D01*
X-346330Y358020D01*
X-345850Y359720D01*
X-345210Y360990D01*
X-344240Y362050D01*
X-342950Y362470D01*
G01X-345840Y461770D02*
Y474470D01*
X-349860D01*
X-351150Y473830D01*
X-351950Y472990D01*
X-352270Y471290D01*
X-351950Y469600D01*
X-350990Y468540D01*
X-349860Y467910D01*
X-345840D01*
G01X-349860D02*
X-352270Y461770D01*
G01X-358470Y464310D02*
X-359430Y462830D01*
X-360720Y461980D01*
X-362170Y461770D01*
X-363450Y461980D01*
X-364740Y463040D01*
X-365540Y464310D01*
X-365700Y465580D01*
X-365380Y467060D01*
X-364260Y468120D01*
X-363130Y468540D01*
X-361680D01*
G01X-363130D02*
X-364100Y469180D01*
X-364900Y470240D01*
X-365220Y471510D01*
X-364900Y472780D01*
X-364100Y473830D01*
X-362650Y474470D01*
X-361200Y474260D01*
X-359750Y473410D01*
G01X-374950Y461770D02*
Y474470D01*
X-373020Y471930D01*
G01Y461770D02*
X-376880D01*
G01X-320580Y565410D02*
X-319620Y566050D01*
X-318490Y566470D01*
X-317210D01*
X-315760Y565830D01*
X-314630Y564780D01*
X-313830Y563510D01*
X-313180Y561390D01*
X-313020Y559480D01*
X-313350Y557580D01*
X-313830Y556310D01*
X-314790Y555040D01*
X-315920Y554190D01*
X-317040Y553770D01*
X-318170D01*
X-319300Y554190D01*
X-320260Y554830D01*
X-321070Y555670D01*
G01X-329990Y553770D02*
Y566470D01*
X-328060Y563930D01*
G01Y553770D02*
X-331920D01*
G01X-344880D02*
Y566470D01*
X-338920Y557370D01*
X-346970D01*
G01X-387840Y663770D02*
Y676470D01*
X-391860D01*
X-393150Y675830D01*
X-393950Y674990D01*
X-394270Y673290D01*
X-393950Y671600D01*
X-392990Y670540D01*
X-391860Y669910D01*
X-387840D01*
G01X-391860D02*
X-394270Y663770D01*
G01X-404000D02*
Y676470D01*
X-402070Y673930D01*
G01Y663770D02*
X-405930D01*
G01X-416950D02*
X-418080Y663980D01*
X-419370Y664620D01*
X-420170Y665670D01*
X-420490Y667160D01*
X-420170Y668640D01*
X-419210Y669910D01*
X-417760Y670540D01*
X-416150D01*
X-415190Y670970D01*
X-414380Y672020D01*
X-414060Y673510D01*
X-414540Y674990D01*
X-415670Y676050D01*
X-416950Y676470D01*
X-418240Y676050D01*
X-419370Y674990D01*
X-419850Y673510D01*
X-419530Y672020D01*
X-418720Y670970D01*
X-417760Y670540D01*
X-416150D01*
X-414700Y669910D01*
X-413740Y668640D01*
X-413420Y667160D01*
X-413740Y665670D01*
X-414540Y664620D01*
X-415830Y663980D01*
X-416950Y663770D01*
G01X-343840D02*
Y676470D01*
X-347860D01*
X-349150Y675830D01*
X-349950Y674990D01*
X-350270Y673290D01*
X-349950Y671600D01*
X-348990Y670540D01*
X-347860Y669910D01*
X-343840D01*
G01X-347860D02*
X-350270Y663770D01*
G01X-360000D02*
Y676470D01*
X-358070Y673930D01*
G01Y663770D02*
X-361930D01*
G01X-370220Y665250D02*
X-371350Y664190D01*
X-372630Y663770D01*
X-373920Y664190D01*
X-375050Y665460D01*
X-375850Y667370D01*
X-376170Y669270D01*
Y671600D01*
X-375850Y673510D01*
X-375050Y675200D01*
X-374080Y676050D01*
X-372950Y676470D01*
X-371670Y676050D01*
X-370700Y675200D01*
X-370060Y673930D01*
X-369740Y672240D01*
X-370060Y670760D01*
X-370860Y669270D01*
X-371830Y668430D01*
X-372950Y668210D01*
X-374240Y668640D01*
X-375210Y669700D01*
X-376170Y671600D01*
G01X-306590Y-1014590D02*
X-305630Y-1013950D01*
X-304500Y-1013530D01*
X-303220D01*
X-301770Y-1014170D01*
X-300640Y-1015220D01*
X-299840Y-1016490D01*
X-299190Y-1018610D01*
X-299030Y-1020520D01*
X-299360Y-1022420D01*
X-299840Y-1023690D01*
X-300800Y-1024960D01*
X-301930Y-1025810D01*
X-303050Y-1026230D01*
X-304180D01*
X-305310Y-1025810D01*
X-306270Y-1025170D01*
X-307080Y-1024330D01*
G01X-312470D02*
X-313430Y-1025380D01*
X-314560Y-1026020D01*
X-316000Y-1026230D01*
X-317450Y-1025810D01*
X-318580Y-1024960D01*
X-319380Y-1023480D01*
X-319540Y-1021790D01*
X-319220Y-1020090D01*
X-318420Y-1019030D01*
X-317290Y-1018190D01*
X-316170Y-1017980D01*
X-315040Y-1018190D01*
X-313590Y-1019030D01*
X-314070Y-1013530D01*
X-318420D01*
G01X-328950D02*
X-327670Y-1013950D01*
X-326700Y-1015010D01*
X-326060Y-1016280D01*
X-325580Y-1017980D01*
X-325420Y-1019880D01*
X-325580Y-1021790D01*
X-326060Y-1023480D01*
X-326700Y-1024750D01*
X-327670Y-1025810D01*
X-328950Y-1026230D01*
X-330240Y-1025810D01*
X-331210Y-1024750D01*
X-331850Y-1023480D01*
X-332330Y-1021790D01*
X-332490Y-1019880D01*
X-332330Y-1017980D01*
X-331850Y-1016280D01*
X-331210Y-1015010D01*
X-330240Y-1013950D01*
X-328950Y-1013530D01*
G01X-318590Y-912590D02*
X-317630Y-911950D01*
X-316500Y-911530D01*
X-315220D01*
X-313770Y-912170D01*
X-312640Y-913220D01*
X-311840Y-914490D01*
X-311190Y-916610D01*
X-311030Y-918520D01*
X-311360Y-920420D01*
X-311840Y-921690D01*
X-312800Y-922960D01*
X-313930Y-923810D01*
X-315050Y-924230D01*
X-316180D01*
X-317310Y-923810D01*
X-318270Y-923170D01*
X-319080Y-922330D01*
G01X-329940Y-924230D02*
Y-911530D01*
X-323980Y-920630D01*
X-332030D01*
G01X-340630Y-924230D02*
X-340950Y-921480D01*
X-341440Y-919150D01*
X-342080Y-917030D01*
X-342890Y-914710D01*
X-344170Y-911530D01*
X-337740D01*
G01X-308590Y-810590D02*
X-307630Y-809950D01*
X-306500Y-809530D01*
X-305220D01*
X-303770Y-810170D01*
X-302640Y-811220D01*
X-301840Y-812490D01*
X-301190Y-814610D01*
X-301030Y-816520D01*
X-301360Y-818420D01*
X-301840Y-819690D01*
X-302800Y-820960D01*
X-303930Y-821810D01*
X-305050Y-822230D01*
X-306180D01*
X-307310Y-821810D01*
X-308270Y-821170D01*
X-309080Y-820330D01*
G01X-319940Y-822230D02*
Y-809530D01*
X-313980Y-818630D01*
X-322030D01*
G01X-332890Y-822230D02*
Y-809530D01*
X-326930Y-818630D01*
X-334980D01*
G01X-306590Y-608590D02*
X-305630Y-607950D01*
X-304500Y-607530D01*
X-303220D01*
X-301770Y-608170D01*
X-300640Y-609220D01*
X-299840Y-610490D01*
X-299190Y-612610D01*
X-299030Y-614520D01*
X-299360Y-616420D01*
X-299840Y-617690D01*
X-300800Y-618960D01*
X-301930Y-619810D01*
X-303050Y-620230D01*
X-304180D01*
X-305310Y-619810D01*
X-306270Y-619170D01*
X-307080Y-618330D01*
G01X-312470Y-617690D02*
X-313430Y-619170D01*
X-314720Y-620020D01*
X-316170Y-620230D01*
X-317450Y-620020D01*
X-318740Y-618960D01*
X-319540Y-617690D01*
X-319700Y-616420D01*
X-319380Y-614940D01*
X-318260Y-613880D01*
X-317130Y-613460D01*
X-315680D01*
G01X-317130D02*
X-318100Y-612820D01*
X-318900Y-611760D01*
X-319220Y-610490D01*
X-318900Y-609220D01*
X-318100Y-608170D01*
X-316650Y-607530D01*
X-315200Y-607740D01*
X-313750Y-608590D01*
G01X-328950Y-620230D02*
X-330080Y-620020D01*
X-331370Y-619380D01*
X-332170Y-618330D01*
X-332490Y-616840D01*
X-332170Y-615360D01*
X-331210Y-614090D01*
X-329760Y-613460D01*
X-328150D01*
X-327190Y-613030D01*
X-326380Y-611980D01*
X-326060Y-610490D01*
X-326540Y-609010D01*
X-327670Y-607950D01*
X-328950Y-607530D01*
X-330240Y-607950D01*
X-331370Y-609010D01*
X-331850Y-610490D01*
X-331530Y-611980D01*
X-330720Y-613030D01*
X-329760Y-613460D01*
X-328150D01*
X-326700Y-614090D01*
X-325740Y-615360D01*
X-325420Y-616840D01*
X-325740Y-618330D01*
X-326540Y-619380D01*
X-327830Y-620020D01*
X-328950Y-620230D01*
G01X-306590Y-404590D02*
X-305630Y-403950D01*
X-304500Y-403530D01*
X-303220D01*
X-301770Y-404170D01*
X-300640Y-405220D01*
X-299840Y-406490D01*
X-299190Y-408610D01*
X-299030Y-410520D01*
X-299360Y-412420D01*
X-299840Y-413690D01*
X-300800Y-414960D01*
X-301930Y-415810D01*
X-303050Y-416230D01*
X-304180D01*
X-305310Y-415810D01*
X-306270Y-415170D01*
X-307080Y-414330D01*
G01X-312470Y-413690D02*
X-313430Y-415170D01*
X-314720Y-416020D01*
X-316170Y-416230D01*
X-317450Y-416020D01*
X-318740Y-414960D01*
X-319540Y-413690D01*
X-319700Y-412420D01*
X-319380Y-410940D01*
X-318260Y-409880D01*
X-317130Y-409460D01*
X-315680D01*
G01X-317130D02*
X-318100Y-408820D01*
X-318900Y-407760D01*
X-319220Y-406490D01*
X-318900Y-405220D01*
X-318100Y-404170D01*
X-316650Y-403530D01*
X-315200Y-403740D01*
X-313750Y-404590D01*
G01X-325900Y-405650D02*
X-326860Y-404380D01*
X-327990Y-403740D01*
X-329280Y-403530D01*
X-330890Y-403950D01*
X-332010Y-405010D01*
X-332330Y-406280D01*
X-332170Y-407550D01*
X-331530Y-408610D01*
X-328310Y-410730D01*
X-326860Y-412210D01*
X-325900Y-414330D01*
X-325580Y-416230D01*
X-332330D01*
G01X-327060Y-304590D02*
X-326100Y-303950D01*
X-324970Y-303530D01*
X-323690D01*
X-322240Y-304170D01*
X-321110Y-305220D01*
X-320310Y-306490D01*
X-319660Y-308610D01*
X-319500Y-310520D01*
X-319830Y-312420D01*
X-320310Y-313690D01*
X-321270Y-314960D01*
X-322400Y-315810D01*
X-323520Y-316230D01*
X-324650D01*
X-325780Y-315810D01*
X-326740Y-315170D01*
X-327550Y-314330D01*
G01X-336470Y-316230D02*
X-337600Y-316020D01*
X-338890Y-315380D01*
X-339690Y-314330D01*
X-340010Y-312840D01*
X-339690Y-311360D01*
X-338730Y-310090D01*
X-337280Y-309460D01*
X-335670D01*
X-334710Y-309030D01*
X-333900Y-307980D01*
X-333580Y-306490D01*
X-334060Y-305010D01*
X-335190Y-303950D01*
X-336470Y-303530D01*
X-337760Y-303950D01*
X-338890Y-305010D01*
X-339370Y-306490D01*
X-339050Y-307980D01*
X-338240Y-309030D01*
X-337280Y-309460D01*
X-335670D01*
X-334220Y-310090D01*
X-333260Y-311360D01*
X-332940Y-312840D01*
X-333260Y-314330D01*
X-334060Y-315380D01*
X-335350Y-316020D01*
X-336470Y-316230D01*
G01X-306580Y59410D02*
X-305620Y60050D01*
X-304490Y60470D01*
X-303210D01*
X-301760Y59830D01*
X-300630Y58780D01*
X-299830Y57510D01*
X-299180Y55390D01*
X-299020Y53480D01*
X-299350Y51580D01*
X-299830Y50310D01*
X-300790Y49040D01*
X-301920Y48190D01*
X-303040Y47770D01*
X-304170D01*
X-305300Y48190D01*
X-306260Y48830D01*
X-307070Y49670D01*
G01X-312940Y58350D02*
X-313900Y59620D01*
X-315030Y60260D01*
X-316320Y60470D01*
X-317930Y60050D01*
X-319050Y58990D01*
X-319370Y57720D01*
X-319210Y56450D01*
X-318570Y55390D01*
X-315350Y53270D01*
X-313900Y51790D01*
X-312940Y49670D01*
X-312620Y47770D01*
X-319370D01*
G01X-326210Y49250D02*
X-327340Y48190D01*
X-328620Y47770D01*
X-329910Y48190D01*
X-331040Y49460D01*
X-331840Y51370D01*
X-332160Y53270D01*
Y55600D01*
X-331840Y57510D01*
X-331040Y59200D01*
X-330070Y60050D01*
X-328940Y60470D01*
X-327660Y60050D01*
X-326690Y59200D01*
X-326050Y57930D01*
X-325730Y56240D01*
X-326050Y54760D01*
X-326850Y53270D01*
X-327820Y52430D01*
X-328940Y52210D01*
X-330230Y52640D01*
X-331200Y53700D01*
X-332160Y55600D01*
G01X-306590Y261410D02*
X-305630Y262050D01*
X-304500Y262470D01*
X-303220D01*
X-301770Y261830D01*
X-300640Y260780D01*
X-299840Y259510D01*
X-299190Y257390D01*
X-299030Y255480D01*
X-299360Y253580D01*
X-299840Y252310D01*
X-300800Y251040D01*
X-301930Y250190D01*
X-303050Y249770D01*
X-304180D01*
X-305310Y250190D01*
X-306270Y250830D01*
X-307080Y251670D01*
G01X-312950Y260350D02*
X-313910Y261620D01*
X-315040Y262260D01*
X-316330Y262470D01*
X-317940Y262050D01*
X-319060Y260990D01*
X-319380Y259720D01*
X-319220Y258450D01*
X-318580Y257390D01*
X-315360Y255270D01*
X-313910Y253790D01*
X-312950Y251670D01*
X-312630Y249770D01*
X-319380D01*
G01X-325420Y252310D02*
X-326380Y250830D01*
X-327670Y249980D01*
X-329120Y249770D01*
X-330400Y249980D01*
X-331690Y251040D01*
X-332490Y252310D01*
X-332650Y253580D01*
X-332330Y255060D01*
X-331210Y256120D01*
X-330080Y256540D01*
X-328630D01*
G01X-330080D02*
X-331050Y257180D01*
X-331850Y258240D01*
X-332170Y259510D01*
X-331850Y260780D01*
X-331050Y261830D01*
X-329600Y262470D01*
X-328150Y262260D01*
X-326700Y261410D01*
G01X-312590Y465410D02*
X-311630Y466050D01*
X-310500Y466470D01*
X-309220D01*
X-307770Y465830D01*
X-306640Y464780D01*
X-305840Y463510D01*
X-305190Y461390D01*
X-305030Y459480D01*
X-305360Y457580D01*
X-305840Y456310D01*
X-306800Y455040D01*
X-307930Y454190D01*
X-309050Y453770D01*
X-310180D01*
X-311310Y454190D01*
X-312270Y454830D01*
X-313080Y455670D01*
G01X-322000Y453770D02*
Y466470D01*
X-320070Y463930D01*
G01Y453770D02*
X-323930D01*
G01X-334630D02*
X-334950Y456520D01*
X-335440Y458850D01*
X-336080Y460970D01*
X-336890Y463290D01*
X-338170Y466470D01*
X-331740D01*
G01X-312590Y667410D02*
X-311630Y668050D01*
X-310500Y668470D01*
X-309220D01*
X-307770Y667830D01*
X-306640Y666780D01*
X-305840Y665510D01*
X-305190Y663390D01*
X-305030Y661480D01*
X-305360Y659580D01*
X-305840Y658310D01*
X-306800Y657040D01*
X-307930Y656190D01*
X-309050Y655770D01*
X-310180D01*
X-311310Y656190D01*
X-312270Y656830D01*
X-313080Y657670D01*
G01X-322000Y655770D02*
Y668470D01*
X-320070Y665930D01*
G01Y655770D02*
X-323930D01*
G01X-334950D02*
Y668470D01*
X-333020Y665930D01*
G01Y655770D02*
X-336880D01*
G01X-327060Y769410D02*
X-326100Y770050D01*
X-324970Y770470D01*
X-323690D01*
X-322240Y769830D01*
X-321110Y768780D01*
X-320310Y767510D01*
X-319660Y765390D01*
X-319500Y763480D01*
X-319830Y761580D01*
X-320310Y760310D01*
X-321270Y759040D01*
X-322400Y758190D01*
X-323520Y757770D01*
X-324650D01*
X-325780Y758190D01*
X-326740Y758830D01*
X-327550Y759670D01*
G01X-332940D02*
X-333900Y758620D01*
X-335030Y757980D01*
X-336470Y757770D01*
X-337920Y758190D01*
X-339050Y759040D01*
X-339850Y760520D01*
X-340010Y762210D01*
X-339690Y763910D01*
X-338890Y764970D01*
X-337760Y765810D01*
X-336640Y766020D01*
X-335510Y765810D01*
X-334060Y764970D01*
X-334540Y770470D01*
X-338890D01*
G01X-34550Y-973530D02*
X-38570Y-986230D01*
X-42600Y-973530D01*
G01X-47990Y-986230D02*
Y-973530D01*
X-51200D01*
X-52490Y-974170D01*
X-53460Y-975010D01*
X-54260Y-976280D01*
X-54900Y-977760D01*
X-55060Y-979880D01*
X-54900Y-982000D01*
X-54260Y-983480D01*
X-53460Y-984750D01*
X-52490Y-985600D01*
X-51200Y-986230D01*
X-47990D01*
G01X-64470D02*
X-65600Y-986020D01*
X-66890Y-985380D01*
X-67690Y-984330D01*
X-68010Y-982840D01*
X-67690Y-981360D01*
X-66730Y-980090D01*
X-65280Y-979460D01*
X-63670D01*
X-62710Y-979030D01*
X-61900Y-977980D01*
X-61580Y-976490D01*
X-62060Y-975010D01*
X-63190Y-973950D01*
X-64470Y-973530D01*
X-65760Y-973950D01*
X-66890Y-975010D01*
X-67370Y-976490D01*
X-67050Y-977980D01*
X-66240Y-979030D01*
X-65280Y-979460D01*
X-63670D01*
X-62220Y-980090D01*
X-61260Y-981360D01*
X-60940Y-982840D01*
X-61260Y-984330D01*
X-62060Y-985380D01*
X-63350Y-986020D01*
X-64470Y-986230D01*
G01X-77420D02*
Y-973530D01*
X-75490Y-976070D01*
G01Y-986230D02*
X-79350D01*
G01X-34550Y-769530D02*
X-38570Y-782230D01*
X-42600Y-769530D01*
G01X-47990Y-782230D02*
Y-769530D01*
X-51200D01*
X-52490Y-770170D01*
X-53460Y-771010D01*
X-54260Y-772280D01*
X-54900Y-773760D01*
X-55060Y-775880D01*
X-54900Y-778000D01*
X-54260Y-779480D01*
X-53460Y-780750D01*
X-52490Y-781600D01*
X-51200Y-782230D01*
X-47990D01*
G01X-64150D02*
X-64470Y-779480D01*
X-64960Y-777150D01*
X-65600Y-775030D01*
X-66410Y-772710D01*
X-67690Y-769530D01*
X-61260D01*
G01X-77420Y-782230D02*
Y-769530D01*
X-75490Y-772070D01*
G01Y-782230D02*
X-79350D01*
G01X-34550Y-567530D02*
X-38570Y-580230D01*
X-42600Y-567530D01*
G01X-47990Y-580230D02*
Y-567530D01*
X-51200D01*
X-52490Y-568170D01*
X-53460Y-569010D01*
X-54260Y-570280D01*
X-54900Y-571760D01*
X-55060Y-573880D01*
X-54900Y-576000D01*
X-54260Y-577480D01*
X-53460Y-578750D01*
X-52490Y-579600D01*
X-51200Y-580230D01*
X-47990D01*
G01X-61420Y-574940D02*
X-62540Y-573460D01*
X-63510Y-572610D01*
X-64800Y-572190D01*
X-65920Y-572610D01*
X-66730Y-573460D01*
X-67370Y-574730D01*
X-67530Y-576210D01*
X-67370Y-577480D01*
X-66730Y-578750D01*
X-65760Y-579810D01*
X-64640Y-580230D01*
X-63350Y-579810D01*
X-62220Y-578540D01*
X-61580Y-576630D01*
X-61420Y-574520D01*
X-61740Y-571760D01*
X-62220Y-570280D01*
X-63030Y-568800D01*
X-64150Y-567740D01*
X-65280Y-567530D01*
X-66410Y-567950D01*
X-67210Y-569010D01*
G01X-77420Y-580230D02*
Y-567530D01*
X-75490Y-570070D01*
G01Y-580230D02*
X-79350D01*
G01X-34550Y-363530D02*
X-38570Y-376230D01*
X-42600Y-363530D01*
G01X-47990Y-376230D02*
Y-363530D01*
X-51200D01*
X-52490Y-364170D01*
X-53460Y-365010D01*
X-54260Y-366280D01*
X-54900Y-367760D01*
X-55060Y-369880D01*
X-54900Y-372000D01*
X-54260Y-373480D01*
X-53460Y-374750D01*
X-52490Y-375600D01*
X-51200Y-376230D01*
X-47990D01*
G01X-60940Y-374330D02*
X-61900Y-375380D01*
X-63030Y-376020D01*
X-64470Y-376230D01*
X-65920Y-375810D01*
X-67050Y-374960D01*
X-67850Y-373480D01*
X-68010Y-371790D01*
X-67690Y-370090D01*
X-66890Y-369030D01*
X-65760Y-368190D01*
X-64640Y-367980D01*
X-63510Y-368190D01*
X-62060Y-369030D01*
X-62540Y-363530D01*
X-66890D01*
G01X-77420Y-376230D02*
Y-363530D01*
X-75490Y-366070D01*
G01Y-376230D02*
X-79350D01*
G01X-34550Y100470D02*
X-38570Y87770D01*
X-42600Y100470D01*
G01X-47990Y87770D02*
Y100470D01*
X-51200D01*
X-52490Y99830D01*
X-53460Y98990D01*
X-54260Y97720D01*
X-54900Y96240D01*
X-55060Y94120D01*
X-54900Y92000D01*
X-54260Y90520D01*
X-53460Y89250D01*
X-52490Y88400D01*
X-51200Y87770D01*
X-47990D01*
G01X-66410D02*
Y100470D01*
X-60450Y91370D01*
X-68500D01*
G01X-74370Y93060D02*
X-75490Y94540D01*
X-76460Y95390D01*
X-77750Y95810D01*
X-78870Y95390D01*
X-79680Y94540D01*
X-80320Y93270D01*
X-80480Y91790D01*
X-80320Y90520D01*
X-79680Y89250D01*
X-78710Y88190D01*
X-77590Y87770D01*
X-76300Y88190D01*
X-75170Y89460D01*
X-74530Y91370D01*
X-74370Y93480D01*
X-74690Y96240D01*
X-75170Y97720D01*
X-75980Y99200D01*
X-77100Y100260D01*
X-78230Y100470D01*
X-79360Y100050D01*
X-80160Y98990D01*
G01X-32550Y302470D02*
X-36570Y289770D01*
X-40600Y302470D01*
G01X-45990Y289770D02*
Y302470D01*
X-49200D01*
X-50490Y301830D01*
X-51460Y300990D01*
X-52260Y299720D01*
X-52900Y298240D01*
X-53060Y296120D01*
X-52900Y294000D01*
X-52260Y292520D01*
X-51460Y291250D01*
X-50490Y290400D01*
X-49200Y289770D01*
X-45990D01*
G01X-58940Y292310D02*
X-59900Y290830D01*
X-61190Y289980D01*
X-62640Y289770D01*
X-63920Y289980D01*
X-65210Y291040D01*
X-66010Y292310D01*
X-66170Y293580D01*
X-65850Y295060D01*
X-64730Y296120D01*
X-63600Y296540D01*
X-62150D01*
G01X-63600D02*
X-64570Y297180D01*
X-65370Y298240D01*
X-65690Y299510D01*
X-65370Y300780D01*
X-64570Y301830D01*
X-63120Y302470D01*
X-61670Y302260D01*
X-60220Y301410D01*
G01X-72370Y295060D02*
X-73490Y296540D01*
X-74460Y297390D01*
X-75750Y297810D01*
X-76870Y297390D01*
X-77680Y296540D01*
X-78320Y295270D01*
X-78480Y293790D01*
X-78320Y292520D01*
X-77680Y291250D01*
X-76710Y290190D01*
X-75590Y289770D01*
X-74300Y290190D01*
X-73170Y291460D01*
X-72530Y293370D01*
X-72370Y295480D01*
X-72690Y298240D01*
X-73170Y299720D01*
X-73980Y301200D01*
X-75100Y302260D01*
X-76230Y302470D01*
X-77360Y302050D01*
X-78160Y300990D01*
G01X-34550Y506470D02*
X-38570Y493770D01*
X-42600Y506470D01*
G01X-47990Y493770D02*
Y506470D01*
X-51200D01*
X-52490Y505830D01*
X-53460Y504990D01*
X-54260Y503720D01*
X-54900Y502240D01*
X-55060Y500120D01*
X-54900Y498000D01*
X-54260Y496520D01*
X-53460Y495250D01*
X-52490Y494400D01*
X-51200Y493770D01*
X-47990D01*
G01X-61420Y504350D02*
X-62380Y505620D01*
X-63510Y506260D01*
X-64800Y506470D01*
X-66410Y506050D01*
X-67530Y504990D01*
X-67850Y503720D01*
X-67690Y502450D01*
X-67050Y501390D01*
X-63830Y499270D01*
X-62380Y497790D01*
X-61420Y495670D01*
X-61100Y493770D01*
X-67850D01*
G01X-74370Y499060D02*
X-75490Y500540D01*
X-76460Y501390D01*
X-77750Y501810D01*
X-78870Y501390D01*
X-79680Y500540D01*
X-80320Y499270D01*
X-80480Y497790D01*
X-80320Y496520D01*
X-79680Y495250D01*
X-78710Y494190D01*
X-77590Y493770D01*
X-76300Y494190D01*
X-75170Y495460D01*
X-74530Y497370D01*
X-74370Y499480D01*
X-74690Y502240D01*
X-75170Y503720D01*
X-75980Y505200D01*
X-77100Y506260D01*
X-78230Y506470D01*
X-79360Y506050D01*
X-80160Y504990D01*
G01X-32550Y708470D02*
X-36570Y695770D01*
X-40600Y708470D01*
G01X-45990Y695770D02*
Y708470D01*
X-49200D01*
X-50490Y707830D01*
X-51460Y706990D01*
X-52260Y705720D01*
X-52900Y704240D01*
X-53060Y702120D01*
X-52900Y700000D01*
X-52260Y698520D01*
X-51460Y697250D01*
X-50490Y696400D01*
X-49200Y695770D01*
X-45990D01*
G01X-62470D02*
Y708470D01*
X-60540Y705930D01*
G01Y695770D02*
X-64400D01*
G01X-72370Y701060D02*
X-73490Y702540D01*
X-74460Y703390D01*
X-75750Y703810D01*
X-76870Y703390D01*
X-77680Y702540D01*
X-78320Y701270D01*
X-78480Y699790D01*
X-78320Y698520D01*
X-77680Y697250D01*
X-76710Y696190D01*
X-75590Y695770D01*
X-74300Y696190D01*
X-73170Y697460D01*
X-72530Y699370D01*
X-72370Y701480D01*
X-72690Y704240D01*
X-73170Y705720D01*
X-73980Y707200D01*
X-75100Y708260D01*
X-76230Y708470D01*
X-77360Y708050D01*
X-78160Y706990D01*
G01X79450Y-881540D02*
X75430Y-894240D01*
X71400Y-881540D01*
G01X66010Y-894240D02*
Y-881540D01*
X62800D01*
X61510Y-882180D01*
X60540Y-883020D01*
X59740Y-884290D01*
X59100Y-885770D01*
X58940Y-887890D01*
X59100Y-890010D01*
X59740Y-891490D01*
X60540Y-892760D01*
X61510Y-893610D01*
X62800Y-894240D01*
X66010D01*
G01X49850D02*
X49530Y-891490D01*
X49040Y-889160D01*
X48400Y-887040D01*
X47590Y-884720D01*
X46310Y-881540D01*
X52740D01*
G01X39630Y-888950D02*
X38510Y-887470D01*
X37540Y-886620D01*
X36250Y-886200D01*
X35130Y-886620D01*
X34320Y-887470D01*
X33680Y-888740D01*
X33520Y-890220D01*
X33680Y-891490D01*
X34320Y-892760D01*
X35290Y-893820D01*
X36410Y-894240D01*
X37700Y-893820D01*
X38830Y-892550D01*
X39470Y-890640D01*
X39630Y-888530D01*
X39310Y-885770D01*
X38830Y-884290D01*
X38020Y-882810D01*
X36900Y-881750D01*
X35770Y-881540D01*
X34640Y-881960D01*
X33840Y-883020D01*
G01X79450Y-677540D02*
X75430Y-690240D01*
X71400Y-677540D01*
G01X66010Y-690240D02*
Y-677540D01*
X62800D01*
X61510Y-678180D01*
X60540Y-679020D01*
X59740Y-680290D01*
X59100Y-681770D01*
X58940Y-683890D01*
X59100Y-686010D01*
X59740Y-687490D01*
X60540Y-688760D01*
X61510Y-689610D01*
X62800Y-690240D01*
X66010D01*
G01X52580Y-684950D02*
X51460Y-683470D01*
X50490Y-682620D01*
X49200Y-682200D01*
X48080Y-682620D01*
X47270Y-683470D01*
X46630Y-684740D01*
X46470Y-686220D01*
X46630Y-687490D01*
X47270Y-688760D01*
X48240Y-689820D01*
X49360Y-690240D01*
X50650Y-689820D01*
X51780Y-688550D01*
X52420Y-686640D01*
X52580Y-684530D01*
X52260Y-681770D01*
X51780Y-680290D01*
X50970Y-678810D01*
X49850Y-677750D01*
X48720Y-677540D01*
X47590Y-677960D01*
X46790Y-679020D01*
G01X39630Y-684950D02*
X38510Y-683470D01*
X37540Y-682620D01*
X36250Y-682200D01*
X35130Y-682620D01*
X34320Y-683470D01*
X33680Y-684740D01*
X33520Y-686220D01*
X33680Y-687490D01*
X34320Y-688760D01*
X35290Y-689820D01*
X36410Y-690240D01*
X37700Y-689820D01*
X38830Y-688550D01*
X39470Y-686640D01*
X39630Y-684530D01*
X39310Y-681770D01*
X38830Y-680290D01*
X38020Y-678810D01*
X36900Y-677750D01*
X35770Y-677540D01*
X34640Y-677960D01*
X33840Y-679020D01*
G01X79450Y-475540D02*
X75430Y-488240D01*
X71400Y-475540D01*
G01X66010Y-488240D02*
Y-475540D01*
X62800D01*
X61510Y-476180D01*
X60540Y-477020D01*
X59740Y-478290D01*
X59100Y-479770D01*
X58940Y-481890D01*
X59100Y-484010D01*
X59740Y-485490D01*
X60540Y-486760D01*
X61510Y-487610D01*
X62800Y-488240D01*
X66010D01*
G01X53060Y-486340D02*
X52100Y-487390D01*
X50970Y-488030D01*
X49530Y-488240D01*
X48080Y-487820D01*
X46950Y-486970D01*
X46150Y-485490D01*
X45990Y-483800D01*
X46310Y-482100D01*
X47110Y-481040D01*
X48240Y-480200D01*
X49360Y-479990D01*
X50490Y-480200D01*
X51940Y-481040D01*
X51460Y-475540D01*
X47110D01*
G01X39630Y-482950D02*
X38510Y-481470D01*
X37540Y-480620D01*
X36250Y-480200D01*
X35130Y-480620D01*
X34320Y-481470D01*
X33680Y-482740D01*
X33520Y-484220D01*
X33680Y-485490D01*
X34320Y-486760D01*
X35290Y-487820D01*
X36410Y-488240D01*
X37700Y-487820D01*
X38830Y-486550D01*
X39470Y-484640D01*
X39630Y-482530D01*
X39310Y-479770D01*
X38830Y-478290D01*
X38020Y-476810D01*
X36900Y-475750D01*
X35770Y-475540D01*
X34640Y-475960D01*
X33840Y-477020D01*
G01X79450Y-271540D02*
X75430Y-284240D01*
X71400Y-271540D01*
G01X66010Y-284240D02*
Y-271540D01*
X62800D01*
X61510Y-272180D01*
X60540Y-273020D01*
X59740Y-274290D01*
X59100Y-275770D01*
X58940Y-277890D01*
X59100Y-280010D01*
X59740Y-281490D01*
X60540Y-282760D01*
X61510Y-283610D01*
X62800Y-284240D01*
X66010D01*
G01X49530D02*
Y-271540D01*
X51460Y-274080D01*
G01Y-284240D02*
X47600D01*
G01X39630Y-273660D02*
X38670Y-272390D01*
X37540Y-271750D01*
X36250Y-271540D01*
X34640Y-271960D01*
X33520Y-273020D01*
X33200Y-274290D01*
X33360Y-275560D01*
X34000Y-276620D01*
X37220Y-278740D01*
X38670Y-280220D01*
X39630Y-282340D01*
X39950Y-284240D01*
X33200D01*
G01X77450Y192460D02*
X73430Y179760D01*
X69400Y192460D01*
G01X64010Y179760D02*
Y192460D01*
X60800D01*
X59510Y191820D01*
X58540Y190980D01*
X57740Y189710D01*
X57100Y188230D01*
X56940Y186110D01*
X57100Y183990D01*
X57740Y182510D01*
X58540Y181240D01*
X59510Y180390D01*
X60800Y179760D01*
X64010D01*
G01X45590D02*
Y192460D01*
X51550Y183360D01*
X43500D01*
G01X34580Y179760D02*
Y192460D01*
X36510Y189920D01*
G01Y179760D02*
X32650D01*
G01X77450Y394460D02*
X73430Y381760D01*
X69400Y394460D01*
G01X64010Y381760D02*
Y394460D01*
X60800D01*
X59510Y393820D01*
X58540Y392980D01*
X57740Y391710D01*
X57100Y390230D01*
X56940Y388110D01*
X57100Y385990D01*
X57740Y384510D01*
X58540Y383240D01*
X59510Y382390D01*
X60800Y381760D01*
X64010D01*
G01X51060Y384300D02*
X50100Y382820D01*
X48810Y381970D01*
X47360Y381760D01*
X46080Y381970D01*
X44790Y383030D01*
X43990Y384300D01*
X43830Y385570D01*
X44150Y387050D01*
X45270Y388110D01*
X46400Y388530D01*
X47850D01*
G01X46400D02*
X45430Y389170D01*
X44630Y390230D01*
X44310Y391500D01*
X44630Y392770D01*
X45430Y393820D01*
X46880Y394460D01*
X48330Y394250D01*
X49780Y393400D01*
G01X34580Y381760D02*
Y394460D01*
X36510Y391920D01*
G01Y381760D02*
X32650D01*
G01X79450Y598460D02*
X75430Y585760D01*
X71400Y598460D01*
G01X66010Y585760D02*
Y598460D01*
X62800D01*
X61510Y597820D01*
X60540Y596980D01*
X59740Y595710D01*
X59100Y594230D01*
X58940Y592110D01*
X59100Y589990D01*
X59740Y588510D01*
X60540Y587240D01*
X61510Y586390D01*
X62800Y585760D01*
X66010D01*
G01X52580Y596340D02*
X51620Y597610D01*
X50490Y598250D01*
X49200Y598460D01*
X47590Y598040D01*
X46470Y596980D01*
X46150Y595710D01*
X46310Y594440D01*
X46950Y593380D01*
X50170Y591260D01*
X51620Y589780D01*
X52580Y587660D01*
X52900Y585760D01*
X46150D01*
G01X36580D02*
Y598460D01*
X38510Y595920D01*
G01Y585760D02*
X34650D01*
G01X70980Y802460D02*
X66960Y789760D01*
X62930Y802460D01*
G01X57540Y789760D02*
Y802460D01*
X54330D01*
X53040Y801820D01*
X52070Y800980D01*
X51270Y799710D01*
X50630Y798230D01*
X50470Y796110D01*
X50630Y793990D01*
X51270Y792510D01*
X52070Y791240D01*
X53040Y790390D01*
X54330Y789760D01*
X57540D01*
G01X41380D02*
X41060Y792510D01*
X40570Y794840D01*
X39930Y796960D01*
X39120Y799280D01*
X37840Y802460D01*
X44270D01*
G54D13*
G01X-613800Y-1031900D02*
G03X-615050Y-1030650I-1250J0D01*
G01D02*
G03X-616300Y-1031900I0J-1250D01*
G01D02*
G03X-615050Y-1033150I1250J0D01*
G01D02*
G03X-613800Y-1031900I0J1250D01*
G01Y-930300D02*
G03X-615050Y-929050I-1250J0D01*
G01D02*
G03X-616300Y-930300I0J-1250D01*
G01D02*
G03X-615050Y-931550I1250J0D01*
G01D02*
G03X-613800Y-930300I0J1250D01*
G01Y-828700D02*
G03X-615050Y-827450I-1250J0D01*
G01D02*
G03X-616300Y-828700I0J-1250D01*
G01D02*
G03X-615050Y-829950I1250J0D01*
G01D02*
G03X-613800Y-828700I0J1250D01*
G01Y-727100D02*
G03X-615050Y-725850I-1250J0D01*
G01D02*
G03X-616300Y-727100I0J-1250D01*
G01D02*
G03X-615050Y-728350I1250J0D01*
G01D02*
G03X-613800Y-727100I0J1250D01*
G01Y-625500D02*
G03X-615050Y-624250I-1250J0D01*
G01D02*
G03X-616300Y-625500I0J-1250D01*
G01D02*
G03X-615050Y-626750I1250J0D01*
G01D02*
G03X-613800Y-625500I0J1250D01*
G01Y-523900D02*
G03X-615050Y-522650I-1250J0D01*
G01D02*
G03X-616300Y-523900I0J-1250D01*
G01D02*
G03X-615050Y-525150I1250J0D01*
G01D02*
G03X-613800Y-523900I0J1250D01*
G01Y-422300D02*
G03X-615050Y-421050I-1250J0D01*
G01D02*
G03X-616300Y-422300I0J-1250D01*
G01D02*
G03X-615050Y-423550I1250J0D01*
G01D02*
G03X-613800Y-422300I0J1250D01*
G01Y-320700D02*
G03X-615050Y-319450I-1250J0D01*
G01D02*
G03X-616300Y-320700I0J-1250D01*
G01D02*
G03X-615050Y-321950I1250J0D01*
G01D02*
G03X-613800Y-320700I0J1250D01*
G01Y41250D02*
G03X-615050Y42500I-1250J0D01*
G01D02*
G03X-616300Y41250I0J-1250D01*
G01D02*
G03X-615050Y40000I1250J0D01*
G01D02*
G03X-613800Y41250I0J1250D01*
G01Y142850D02*
G03X-615050Y144100I-1250J0D01*
G01D02*
G03X-616300Y142850I0J-1250D01*
G01D02*
G03X-615050Y141600I1250J0D01*
G01D02*
G03X-613800Y142850I0J1250D01*
G01Y244450D02*
G03X-615050Y245700I-1250J0D01*
G01D02*
G03X-616300Y244450I0J-1250D01*
G01D02*
G03X-615050Y243200I1250J0D01*
G01D02*
G03X-613800Y244450I0J1250D01*
G01Y346050D02*
G03X-615050Y347300I-1250J0D01*
G01D02*
G03X-616300Y346050I0J-1250D01*
G01D02*
G03X-615050Y344800I1250J0D01*
G01D02*
G03X-613800Y346050I0J1250D01*
G01Y447650D02*
G03X-615050Y448900I-1250J0D01*
G01D02*
G03X-616300Y447650I0J-1250D01*
G01D02*
G03X-615050Y446400I1250J0D01*
G01D02*
G03X-613800Y447650I0J1250D01*
G01Y549250D02*
G03X-615050Y550500I-1250J0D01*
G01D02*
G03X-616300Y549250I0J-1250D01*
G01D02*
G03X-615050Y548000I1250J0D01*
G01D02*
G03X-613800Y549250I0J1250D01*
G01Y650850D02*
G03X-615050Y652100I-1250J0D01*
G01D02*
G03X-616300Y650850I0J-1250D01*
G01D02*
G03X-615050Y649600I1250J0D01*
G01D02*
G03X-613800Y650850I0J1250D01*
G01Y752450D02*
G03X-615050Y753700I-1250J0D01*
G01D02*
G03X-616300Y752450I0J-1250D01*
G01D02*
G03X-615050Y751200I1250J0D01*
G01D02*
G03X-613800Y752450I0J1250D01*
G01X-463550Y-1093400D02*
Y-1077400D01*
G01X-471550Y-1085400D02*
X-455550D01*
G01X-463550Y-890200D02*
Y-874200D01*
G01X-471550Y-882200D02*
X-455550D01*
G01X-463550Y-687000D02*
Y-671000D01*
G01X-471550Y-679000D02*
X-455550D01*
G01X-463550Y-483800D02*
Y-467800D01*
G01X-471550Y-475800D02*
X-455550D01*
G01X-463550Y-20250D02*
Y-4250D01*
G01X-471550Y-12250D02*
X-455550D01*
G01X-463550Y182950D02*
Y198950D01*
G01X-471550Y190950D02*
X-455550D01*
G01X-463550Y386150D02*
Y402150D01*
G01X-471550Y394150D02*
X-455550D01*
G01X-463550Y589350D02*
Y605350D01*
G01X-471550Y597350D02*
X-455550D01*
G01X-400050Y-991800D02*
Y-975800D01*
G01X-408050Y-983800D02*
X-392050D01*
G01X-400050Y-788600D02*
Y-772600D01*
G01X-408050Y-780600D02*
X-392050D01*
G01X-400050Y-585400D02*
Y-569400D01*
G01X-408050Y-577400D02*
X-392050D01*
G01X-400050Y-382200D02*
Y-366200D01*
G01X-408050Y-374200D02*
X-392050D01*
G01X-400050Y81350D02*
Y97350D01*
G01X-408050Y89350D02*
X-392050D01*
G01X-400050Y284550D02*
Y300550D01*
G01X-408050Y292550D02*
X-392050D01*
G01X-400050Y487750D02*
Y503750D01*
G01X-408050Y495750D02*
X-392050D01*
G01X-400050Y690950D02*
Y706950D01*
G01X-408050Y698950D02*
X-392050D01*
M02*
