G04 ================== begin FILE IDENTIFICATION RECORD ==================*
G04 Layout Name:  D:/Project/Circuit/ORCAD/KPRD/03v1/pcb/kprd_03v1.brd*
G04 Film Name:    TOP*
G04 File Format:  Gerber RS274X*
G04 File Origin:  Cadence Allegro 16.6-S012*
G04 Origin Date:  Mon Jul 29 17:33:44 2013*
G04 *
G04 Layer:  ETCH/TOP*
G04 Layer:  PIN/TOP*
G04 Layer:  VIA CLASS/TOP*
G04 *
G04 Offset:    (0.000 0.000)*
G04 Mirror:    No*
G04 Mode:      Positive*
G04 Rotation:  0*
G04 FullContactRelief:  No*
G04 UndefLineWidth:     0.250*
G04 ================== end FILE IDENTIFICATION RECORD ====================*
%FSLAX34Y34*MOMM*%
%IR0*IPPOS*OFA0.00000B0.00000*MIA0B0*SFA1.00000B1.00000*%
%ADD22R,.6X1.*%
%ADD26R,1.X.6*%
%ADD11C,1.*%
%ADD16C,2.*%
%ADD10C,4.2*%
%ADD31C,5.2*%
%ADD29C,2.5*%
%ADD20C,1.6*%
%ADD13C,1.55*%
%ADD14R,2.05X2.05*%
%ADD28C,1.95*%
%ADD12R,1.55X1.55*%
%AMMACRO18*
4,1,18,.4,-.9,
.245331,-.867877,
.09859,-.809384,
-.035765,-.726298,
-.153651,-.621144,
-.251486,-.497117,
-.326298,-.357985,
-.375813,-.207976,
-.398527,-.051648,
-.39375,.10625,
-.361627,.260919,
-.303134,.40766,
-.220048,.542015,
-.114894,.659901,
.009133,.757736,
.148265,.832548,
.298274,.882063,
.4,.9,
.4,-.9,
0.0*
%
%ADD18MACRO18*%
%ADD27R,1.95X1.95*%
%ADD19R,1.4X1.1*%
%ADD15R,1.1X2.7*%
%ADD17R,1.X1.75*%
%ADD30R,2.5X2.5*%
%ADD24R,1.75X1.*%
%ADD23R,2.2X1.55*%
%ADD21R,1.8X1.25*%
%AMMACRO25*
4,1,18,-.4,.9,
-.245331,.867877,
-.09859,.809384,
.035765,.726298,
.153651,.621144,
.251486,.497117,
.326298,.357985,
.375813,.207976,
.398527,.051648,
.39375,-.10625,
.361627,-.260919,
.303134,-.40766,
.220048,-.542015,
.114894,-.659901,
-.009133,-.757736,
-.148265,-.832548,
-.298274,-.882063,
-.4,-.9,
-.4,.9,
0.0*
%
%ADD25MACRO25*%
%ADD32C,1.27*%
%ADD33C,.4*%
%ADD34C,.5*%
%ADD35C,.25*%
%ADD38C,2.104*%
%ADD36C,3.004*%
%ADD37C,2.054*%
G75*
%LPD*%
G75*
G36*
G01X66070Y222250D02*
G02X65230Y220350I-2569J0D01*
G02X64560Y220090I-673J740D01*
G01X64150D01*
X63570Y220670D01*
Y240370D01*
G03X62570Y241370I-1000J0D01*
G01X61050D01*
G02X60130Y242000I8J999D01*
G01X59430Y243710D01*
G02X59670Y244810I929J373D01*
G03X57320Y264980I-8869J9189D01*
G02X56830Y265840I511J861D01*
G01Y267560D01*
G02X57320Y268420I1001J-1D01*
G03Y290380I-6520J10980D01*
G02X56830Y291240I511J861D01*
G01Y292960D01*
G02X57320Y293820I1001J-1D01*
G03Y315780I-6520J10980D01*
G02X56830Y316640I511J861D01*
G01Y318360D01*
G02X57320Y319220I1001J-1D01*
G03Y341180I-6520J10980D01*
G02X56830Y342040I511J861D01*
G01Y343760D01*
G02X57320Y344620I1001J-1D01*
G03Y366580I-6520J10980D01*
G02X56830Y367440I511J861D01*
G01Y369160D01*
G02X57320Y370020I1001J-1D01*
G03Y391980I-6520J10980D01*
G02X56830Y392840I511J861D01*
G01Y394560D01*
G02X57320Y395420I1001J-1D01*
G03Y417380I-6520J10980D01*
G02X56830Y418240I511J861D01*
G01Y419960D01*
G02X57320Y420820I1001J-1D01*
G03Y442780I-6520J10980D01*
G02X56830Y443640I511J861D01*
G01Y445360D01*
G02X57320Y446220I1001J-1D01*
G03X59670Y466390I-6519J10981D01*
G02X59430Y467490I689J727D01*
G01X60130Y469200D01*
G02X61050Y469830I928J-369D01*
G01X62570D01*
G03X63570Y470830I0J1000D01*
G01Y494370D01*
G03X62570Y495370I-1000J0D01*
G01X61050D01*
G02X60130Y496000I8J999D01*
G01X59430Y497710D01*
G02X59670Y498810I929J373D01*
G03X57320Y518980I-8869J9189D01*
G02X56830Y519840I511J861D01*
G01Y521560D01*
G02X57320Y522420I1001J-1D01*
G03Y544380I-6520J10980D01*
G02X56830Y545240I511J861D01*
G01Y546960D01*
G02X57320Y547820I1001J-1D01*
G03Y569780I-6520J10980D01*
G02X56830Y570640I511J861D01*
G01Y572360D01*
G02X57320Y573220I1001J-1D01*
G03Y595180I-6520J10980D01*
G02X56830Y596040I511J861D01*
G01Y597760D01*
G02X57320Y598620I1001J-1D01*
G03Y620580I-6520J10980D01*
G02X56830Y621440I511J861D01*
G01Y623160D01*
G02X57320Y624020I1001J-1D01*
G03Y645980I-6520J10980D01*
G02X56830Y646840I511J861D01*
G01Y648560D01*
G02X57320Y649420I1001J-1D01*
G03Y671380I-6520J10980D01*
G02X56830Y672240I511J861D01*
G01Y673960D01*
G02X57320Y674820I1001J-1D01*
G03Y696780I-6520J10980D01*
G02X56830Y697640I511J861D01*
G01Y699360D01*
G02X57320Y700220I1001J-1D01*
G03X59670Y720390I-6519J10981D01*
G02X59430Y721490I689J727D01*
G01X60130Y723200D01*
G02X61050Y723830I928J-369D01*
G01X62570D01*
G03X63570Y724830I0J1000D01*
G01Y748370D01*
G03X62570Y749370I-1000J0D01*
G01X39030D01*
G03X38030Y748370I0J-1000D01*
G01Y724830D01*
G03X39030Y723830I1000J0D01*
G01X40550D01*
G02X41470Y723200I-8J-999D01*
G01X42170Y721490D01*
G02X41930Y720390I-929J-373D01*
G03X44280Y700220I8869J-9189D01*
G02X44770Y699360I-511J-861D01*
G01Y697640D01*
G02X44280Y696780I-1001J1D01*
G03Y674820I6520J-10980D01*
G02X44770Y673960I-511J-861D01*
G01Y672240D01*
G02X44280Y671380I-1001J1D01*
G03Y649420I6520J-10980D01*
G02X44770Y648560I-511J-861D01*
G01Y646840D01*
G02X44280Y645980I-1001J1D01*
G03Y624020I6520J-10980D01*
G02X44770Y623160I-511J-861D01*
G01Y621440D01*
G02X44280Y620580I-1001J1D01*
G03Y598620I6520J-10980D01*
G02X44770Y597760I-511J-861D01*
G01Y596040D01*
G02X44280Y595180I-1001J1D01*
G03Y573220I6520J-10980D01*
G02X44770Y572360I-511J-861D01*
G01Y570640D01*
G02X44280Y569780I-1001J1D01*
G03Y547820I6520J-10980D01*
G02X44770Y546960I-511J-861D01*
G01Y545240D01*
G02X44280Y544380I-1001J1D01*
G03Y522420I6520J-10980D01*
G02X44770Y521560I-511J-861D01*
G01Y519840D01*
G02X44280Y518980I-1001J1D01*
G03X41930Y498810I6519J-10981D01*
G02X42170Y497710I-689J-727D01*
G01X41470Y496000D01*
G02X40550Y495370I-928J369D01*
G01X39030D01*
G03X38030Y494370I0J-1000D01*
G01Y470830D01*
G03X39030Y469830I1000J0D01*
G01X40550D01*
G02X41470Y469200I-8J-999D01*
G01X42170Y467490D01*
G02X41930Y466390I-929J-373D01*
G03X44280Y446220I8869J-9189D01*
G02X44770Y445360I-511J-861D01*
G01Y443640D01*
G02X44280Y442780I-1001J1D01*
G03Y420820I6520J-10980D01*
G02X44770Y419960I-511J-861D01*
G01Y418240D01*
G02X44280Y417380I-1001J1D01*
G03Y395420I6520J-10980D01*
G02X44770Y394560I-511J-861D01*
G01Y392840D01*
G02X44280Y391980I-1001J1D01*
G03Y370020I6520J-10980D01*
G02X44770Y369160I-511J-861D01*
G01Y367440D01*
G02X44280Y366580I-1001J1D01*
G03Y344620I6520J-10980D01*
G02X44770Y343760I-511J-861D01*
G01Y342040D01*
G02X44280Y341180I-1001J1D01*
G03Y319220I6520J-10980D01*
G02X44770Y318360I-511J-861D01*
G01Y316640D01*
G02X44280Y315780I-1001J1D01*
G03Y293820I6520J-10980D01*
G02X44770Y292960I-511J-861D01*
G01Y291240D01*
G02X44280Y290380I-1001J1D01*
G03Y268420I6520J-10980D01*
G02X44770Y267560I-511J-861D01*
G01Y265840D01*
G02X44280Y264980I-1001J1D01*
G03X41930Y244810I6519J-10981D01*
G02X42170Y243710I-689J-727D01*
G01X41470Y242000D01*
G02X40550Y241370I-928J369D01*
G01X39030D01*
G03X38030Y240370I0J-1000D01*
G01Y220680D01*
G02X37030Y219680I-1000J0D01*
G01X36670D01*
G02X35670Y220680I0J1000D01*
G01Y237870D01*
G03X34670Y238870I-1000J0D01*
G01X16130D01*
G03X15130Y237870I0J-1000D01*
G01Y219990D01*
X14980Y219800D01*
G02X14390Y219460I-765J646D01*
G03X13940Y219370I2477J-13555D01*
G02X13730Y219350I-199J981D01*
G01X13350D01*
X12770Y219930D01*
Y240370D01*
G03X11770Y241370I-1000J0D01*
G01X10250D01*
G02X9330Y242000I8J999D01*
G01X8630Y243710D01*
G02X8870Y244810I929J373D01*
G03X6520Y264980I-8869J9189D01*
G02X6030Y265840I511J861D01*
G01Y267560D01*
G02X6520Y268420I1001J-1D01*
G03Y290380I-6520J10980D01*
G02X6030Y291240I511J861D01*
G01Y292960D01*
G02X6520Y293820I1001J-1D01*
G03Y315780I-6520J10980D01*
G02X6030Y316640I511J861D01*
G01Y318360D01*
G02X6520Y319220I1001J-1D01*
G03Y341180I-6520J10980D01*
G02X6030Y342040I511J861D01*
G01Y343760D01*
G02X6520Y344620I1001J-1D01*
G03Y366580I-6520J10980D01*
G02X6030Y367440I511J861D01*
G01Y369160D01*
G02X6520Y370020I1001J-1D01*
G03Y391980I-6520J10980D01*
G02X6030Y392840I511J861D01*
G01Y394560D01*
G02X6520Y395420I1001J-1D01*
G03Y417380I-6520J10980D01*
G02X6030Y418240I511J861D01*
G01Y419960D01*
G02X6520Y420820I1001J-1D01*
G03Y442780I-6520J10980D01*
G02X6030Y443640I511J861D01*
G01Y445360D01*
G02X6520Y446220I1001J-1D01*
G03X8870Y466390I-6519J10981D01*
G02X8630Y467490I689J727D01*
G01X9330Y469200D01*
G02X10250Y469830I928J-369D01*
G01X11770D01*
G03X12770Y470830I0J1000D01*
G01Y494370D01*
G03X11770Y495370I-1000J0D01*
G01X10250D01*
G02X9330Y496000I8J999D01*
G01X8630Y497710D01*
G02X8870Y498810I929J373D01*
G03X6520Y518980I-8869J9189D01*
G02X6030Y519840I511J861D01*
G01Y521560D01*
G02X6520Y522420I1001J-1D01*
G03Y544380I-6520J10980D01*
G02X6030Y545240I511J861D01*
G01Y546960D01*
G02X6520Y547820I1001J-1D01*
G03Y569780I-6520J10980D01*
G02X6030Y570640I511J861D01*
G01Y572360D01*
G02X6520Y573220I1001J-1D01*
G03Y595180I-6520J10980D01*
G02X6030Y596040I511J861D01*
G01Y597760D01*
G02X6520Y598620I1001J-1D01*
G03Y620580I-6520J10980D01*
G02X6030Y621440I511J861D01*
G01Y623160D01*
G02X6520Y624020I1001J-1D01*
G03Y645980I-6520J10980D01*
G02X6030Y646840I511J861D01*
G01Y648560D01*
G02X6520Y649420I1001J-1D01*
G03Y671380I-6520J10980D01*
G02X6030Y672240I511J861D01*
G01Y673960D01*
G02X6520Y674820I1001J-1D01*
G03Y696780I-6520J10980D01*
G02X6030Y697640I511J861D01*
G01Y699360D01*
G02X6520Y700220I1001J-1D01*
G03X8870Y720390I-6519J10981D01*
G02X8630Y721490I689J727D01*
G01X9330Y723200D01*
G02X10250Y723830I928J-369D01*
G01X11770D01*
G03X12770Y724830I0J1000D01*
G01Y748370D01*
G03X11770Y749370I-1000J0D01*
G01X-11770D01*
G03X-12770Y748370I0J-1000D01*
G01Y724830D01*
G03X-11770Y723830I1000J0D01*
G01X-10250D01*
G02X-9330Y723200I-8J-999D01*
G01X-8630Y721490D01*
G02X-8870Y720390I-929J-373D01*
G03X-6520Y700220I8869J-9189D01*
G02X-6030Y699360I-511J-861D01*
G01Y697640D01*
G02X-6520Y696780I-1001J1D01*
G03Y674820I6520J-10980D01*
G02X-6030Y673960I-511J-861D01*
G01Y672240D01*
G02X-6520Y671380I-1001J1D01*
G03Y649420I6520J-10980D01*
G02X-6030Y648560I-511J-861D01*
G01Y646840D01*
G02X-6520Y645980I-1001J1D01*
G03Y624020I6520J-10980D01*
G02X-6030Y623160I-511J-861D01*
G01Y621440D01*
G02X-6520Y620580I-1001J1D01*
G03Y598620I6520J-10980D01*
G02X-6030Y597760I-511J-861D01*
G01Y596040D01*
G02X-6520Y595180I-1001J1D01*
G03Y573220I6520J-10980D01*
G02X-6030Y572360I-511J-861D01*
G01Y570640D01*
G02X-6520Y569780I-1001J1D01*
G03Y547820I6520J-10980D01*
G02X-6030Y546960I-511J-861D01*
G01Y545240D01*
G02X-6520Y544380I-1001J1D01*
G03Y522420I6520J-10980D01*
G02X-6030Y521560I-511J-861D01*
G01Y519840D01*
G02X-6520Y518980I-1001J1D01*
G03X-8870Y498810I6519J-10981D01*
G02X-8630Y497710I-689J-727D01*
G01X-9330Y496000D01*
G02X-10250Y495370I-928J369D01*
G01X-11770D01*
G03X-12770Y494370I0J-1000D01*
G01Y470830D01*
G03X-11770Y469830I1000J0D01*
G01X-10250D01*
G02X-9330Y469200I-8J-999D01*
G01X-8630Y467490D01*
G02X-8870Y466390I-929J-373D01*
G03X-6520Y446220I8869J-9189D01*
G02X-6030Y445360I-511J-861D01*
G01Y443640D01*
G02X-6520Y442780I-1001J1D01*
G03Y420820I6520J-10980D01*
G02X-6030Y419960I-511J-861D01*
G01Y418240D01*
G02X-6520Y417380I-1001J1D01*
G03Y395420I6520J-10980D01*
G02X-6030Y394560I-511J-861D01*
G01Y392840D01*
G02X-6520Y391980I-1001J1D01*
G03Y370020I6520J-10980D01*
G02X-6030Y369160I-511J-861D01*
G01Y367440D01*
G02X-6520Y366580I-1001J1D01*
G03Y344620I6520J-10980D01*
G02X-6030Y343760I-511J-861D01*
G01Y342040D01*
G02X-6520Y341180I-1001J1D01*
G03Y319220I6520J-10980D01*
G02X-6030Y318360I-511J-861D01*
G01Y316640D01*
G02X-6520Y315780I-1001J1D01*
G03Y293820I6520J-10980D01*
G02X-6030Y292960I-511J-861D01*
G01Y291240D01*
G02X-6520Y290380I-1001J1D01*
G03Y268420I6520J-10980D01*
G02X-6030Y267560I-511J-861D01*
G01Y265840D01*
G02X-6520Y264980I-1001J1D01*
G03X-8870Y244810I6519J-10981D01*
G02X-8630Y243710I-689J-727D01*
G01X-9330Y242000D01*
G02X-10250Y241370I-928J369D01*
G01X-11770D01*
G03X-12770Y240370I0J-1000D01*
G01Y216830D01*
G03X-11770Y215830I1000J0D01*
G01X-10250D01*
G02X-9330Y215200I-8J-999D01*
G01X-8630Y213490D01*
G02X-8870Y212390I-929J-373D01*
G03X-6520Y192220I8869J-9189D01*
G02X-6030Y191360I-511J-861D01*
G01Y189640D01*
G02X-6520Y188780I-1001J1D01*
G03Y166820I6520J-10980D01*
G02X-6030Y165960I-511J-861D01*
G01Y164240D01*
G02X-6520Y163380I-1001J1D01*
G03Y141420I6520J-10980D01*
G02X-6030Y140560I-511J-861D01*
G01Y138840D01*
G02X-6520Y137980I-1001J1D01*
G03Y116020I6520J-10980D01*
G02X-6030Y115160I-511J-861D01*
G01Y113440D01*
G02X-6520Y112580I-1001J1D01*
G03Y90620I6520J-10980D01*
G02X-6030Y89760I-511J-861D01*
G01Y88040D01*
G02X-6520Y87180I-1001J1D01*
G03Y65220I6520J-10980D01*
G02X-6030Y64360I-511J-861D01*
G01Y62640D01*
G02X-6520Y61780I-1001J1D01*
G03Y39820I6520J-10980D01*
G02X-6030Y38960I-511J-861D01*
G01Y37240D01*
G02X-6520Y36380I-1001J1D01*
G03X-8870Y16210I6519J-10981D01*
G02X-8630Y15110I-689J-727D01*
G01X-9330Y13400D01*
G02X-10250Y12770I-928J369D01*
G01X-11770D01*
G03X-12770Y11770I0J-1000D01*
G01Y-11770D01*
G03X-11770Y-12770I1000J0D01*
G01X-5080D01*
X-4510Y-13290D01*
X-4480Y-13680D01*
G03X6350Y-23570I10830J985D01*
G01X44450D01*
G03X55280Y-13680I0J10875D01*
G01X55310Y-13290D01*
X55880Y-12770D01*
X62570D01*
G03X63570Y-11770I0J1000D01*
G01Y-5520D01*
G02X64570Y-4520I1000J0D01*
G01X75580D01*
G02X76580Y-5520I0J-1000D01*
G01Y-25470D01*
G03X77580Y-26470I1000J0D01*
G01X95620D01*
G03X96620Y-25470I0J1000D01*
G01Y70D01*
G03X95620Y1070I-1000J0D01*
G01X87030D01*
G02X86380Y1310I0J999D01*
G03X77650Y4520I-8730J-10266D01*
G01X64570D01*
G02X63570Y5520I0J1000D01*
G01Y11770D01*
G03X62570Y12770I-1000J0D01*
G01X61050D01*
G02X60130Y13400I8J999D01*
G01X59430Y15110D01*
G02X59670Y16210I929J373D01*
G03X57320Y36380I-8869J9189D01*
G02X56830Y37240I511J861D01*
G01Y38960D01*
G02X57320Y39820I1001J-1D01*
G03Y61780I-6520J10980D01*
G02X56830Y62640I511J861D01*
G01Y64360D01*
G02X57320Y65220I1001J-1D01*
G03Y87180I-6520J10980D01*
G02X56830Y88040I511J861D01*
G01Y89760D01*
G02X57320Y90620I1001J-1D01*
G03Y112580I-6520J10980D01*
G02X56830Y113440I511J861D01*
G01Y115160D01*
G02X57320Y116020I1001J-1D01*
G03Y137980I-6520J10980D01*
G02X56830Y138840I511J861D01*
G01Y140560D01*
G02X57320Y141420I1001J-1D01*
G03X61810Y158880I-6518J10983D01*
G01X61690Y159080D01*
X61650Y159540D01*
X62330Y161230D01*
G02X63000Y161820I927J-377D01*
G03X69100Y165360I-3632J13285D01*
G01X94990Y191250D01*
G03X99020Y200980I-9742J9735D01*
G01Y203710D01*
G02X99310Y204410I1000J-4D01*
G01X100320Y205420D01*
G02X101020Y205710I704J-710D01*
G01X101280D01*
G02X102280Y204710I0J-1000D01*
G01Y167070D01*
G02X102110Y166510I-1000J-2D01*
G03X103980Y148720I11753J-7758D01*
G01X103990Y148710D01*
G02X104280Y148010I-710J-704D01*
G01Y146900D01*
G03X113460Y137720I9180J0D01*
G01X124580D01*
G02X125580Y136720I0J-1000D01*
G01Y133220D01*
G03X126580Y132220I1000J0D01*
G01X146310D01*
G02X147020Y131920I-3J-998D01*
G01X147670Y131270D01*
G02X149280Y127400I-3868J-3879D01*
G01Y107620D01*
G02X148280Y106620I-1000J0D01*
G01X135680D01*
G03X134680Y105620I0J-1000D01*
G01Y12370D01*
G02X133680Y11370I-1000J0D01*
G01X103930D01*
G03X102930Y10370I0J-1000D01*
G01Y-42120D01*
G03X103930Y-43120I1000J0D01*
G01X105580D01*
G02X106580Y-44120I0J-1000D01*
G01Y-57220D01*
G03X107580Y-58220I1000J0D01*
G01X125620D01*
G03X126620Y-57220I0J1000D01*
G01Y-44120D01*
G02X127620Y-43120I1000J0D01*
G01X136430D01*
G02X137430Y-44120I0J-1000D01*
G01Y-53720D01*
G03X138430Y-54720I1000J0D01*
G01X165430D01*
G02X166430Y-55720I0J-1000D01*
G01Y-64980D01*
G03X167430Y-65980I1000J0D01*
G01X226270D01*
G03X227270Y-64980I0J1000D01*
G01Y-18720D01*
G02X228270Y-17720I1000J0D01*
G01X272050D01*
G02X273050Y-18720I0J-1000D01*
G01Y-87900D01*
G02X272050Y-88900I-1000J0D01*
G01X-43420D01*
G02X-44420Y-87900I0J1000D01*
G01Y-73060D01*
G02X-43860Y-72160I1001J2D01*
G01X-42000Y-71240D01*
X-41440Y-71290D01*
X-41210Y-71470D01*
G03Y-30130I15810J20670D01*
G01X-41440Y-30310D01*
X-42000Y-30360D01*
X-43860Y-29440D01*
G02X-44420Y-28540I441J898D01*
G01Y815940D01*
G02X-43860Y816840I1001J2D01*
G01X-42000Y817760D01*
X-41440Y817710D01*
X-41210Y817530D01*
G03Y858870I15810J20670D01*
G01X-41440Y858690D01*
X-42000Y858640D01*
X-43860Y859560D01*
G02X-44420Y860460I441J898D01*
G01Y2056400D01*
G02X-43420Y2057400I1000J0D01*
G01X176800D01*
G02X177800Y2056400I0J-1000D01*
G01Y107620D01*
G02X176800Y106620I-1000J0D01*
G01X159320D01*
G02X158320Y107620I0J1000D01*
G01Y127410D01*
G03X154070Y137670I-14522J-5D01*
G01X153420Y138320D01*
G02X153120Y139030I698J713D01*
G01Y151260D01*
G03X152120Y152260I-1000J0D01*
G01X130180D01*
G02X129380Y152660I0J1000D01*
G01X128420Y153940D01*
G02X128260Y154820I800J600D01*
G03X128680Y156760I-13520J3942D01*
G01X128730Y157130D01*
X129290Y157620D01*
X152120D01*
G03X153120Y158620I0J1000D01*
G01Y176660D01*
G03X152120Y177660I-1000J0D01*
G01X127320D01*
G02X126320Y178660I0J1000D01*
G01Y182020D01*
G02X127320Y183020I1000J0D01*
G01X152120D01*
G03X153120Y184020I0J1000D01*
G01Y199080D01*
G02X153650Y199960I999J-2D01*
G01X155450Y200930D01*
X155990Y200900D01*
X156230Y200740D01*
G03X170270Y208240I5017J7500D01*
G01Y1992390D01*
G03X153390Y2009270I-16880J0D01*
G01X130690D01*
G02X130280Y2009360I5J1000D01*
G03X121100Y2008930I-4173J-9110D01*
G01X117600Y2006900D01*
G02X117100Y2006770I-493J871D01*
G01X116620D01*
G02X115620Y2007770I0J1000D01*
G01Y2010520D01*
G03X114620Y2011520I-1000J0D01*
G01X88580D01*
G03X87580Y2010520I0J-1000D01*
G01Y2007770D01*
G02X86580Y2006770I-1000J0D01*
G01X84870D01*
G02X83870Y2007770I0J1000D01*
G01Y2010520D01*
G03X82870Y2011520I-1000J0D01*
G01X56830D01*
G03X55830Y2010520I0J-1000D01*
G01Y2009180D01*
G02X55330Y2008310I-1000J-4D01*
G01X55100Y2008180D01*
X54560D01*
X53270Y2008930D01*
G03X38870Y2003740I-5007J-8679D01*
G01X38840Y2003680D01*
X-22540Y1942290D01*
G03X-28130Y1928800I13490J-13493D01*
G01Y1050040D01*
G02X-28500Y1049260I-1000J-3D01*
G03X-17410Y1022660I9453J-11671D01*
G01X-17400D01*
G02X-16590Y1022370I101J-995D01*
G01X12380Y993400D01*
X12460Y993200D01*
G03X13170Y991680I9401J3466D01*
G01X15200Y988180D01*
G02X15330Y987680I-871J-493D01*
G01Y984720D01*
G02X14330Y983720I-1000J0D01*
G01X12330D01*
G03X11330Y982720I0J-1000D01*
G01Y947680D01*
G03X12330Y946680I1000J0D01*
G01X26680D01*
G02X27680Y945680I0J-1000D01*
G01Y943370D01*
G02X26680Y942370I-1000J0D01*
G01X19930D01*
G03X18930Y941370I0J-1000D01*
G01Y912830D01*
G03X19930Y911830I1000J0D01*
G01X22950D01*
G02X23770Y911400I-2J-1000D01*
G01X24850Y909850D01*
X24910Y909360D01*
X24820Y909130D01*
G03X24810Y909090I9716J-2450D01*
G01X24780Y909030D01*
X21910Y906150D01*
G03X16320Y892660I13490J-13493D01*
G01Y816510D01*
G02X15320Y815510I-1000J0D01*
G01X6350D01*
G03X-6520Y802640I0J-12870D01*
G01Y798940D01*
G02X-6970Y798100I-1000J-5D01*
G03X10700Y780430I6970J-10700D01*
G02X11540Y780880I835J-550D01*
G01X13860D01*
G02X14700Y780430I5J-1000D01*
G03X36100I10700J6970D01*
G02X36940Y780880I835J-550D01*
G01X39260D01*
G02X40100Y780430I5J-1000D01*
G03X57770Y798100I10700J6970D01*
G02X57320Y798940I550J835D01*
G01Y802640D01*
G03X44450Y815510I-12870J0D01*
G01X35480D01*
G02X34480Y816510I0J1000D01*
G01Y892660D01*
G02X34750Y893310I920J-1D01*
G01X37630Y896180D01*
X37690Y896210D01*
G03X43580Y909130I-3489J9393D01*
G01X43490Y909360D01*
X43550Y909850D01*
X44630Y911400D01*
G02X45450Y911830I822J-570D01*
G01X48470D01*
G03X49470Y912830I0J1000D01*
G01Y941370D01*
G03X48470Y942370I-1000J0D01*
G01X41720D01*
G02X40720Y943370I0J1000D01*
G01Y962750D01*
G03X33120Y972500I-10054J0D01*
G01X32790Y972580D01*
X32370Y973120D01*
Y982720D01*
G03X31370Y983720I-1000J0D01*
G01X29370D01*
G02X28370Y984720I0J1000D01*
G01Y987680D01*
G02X28500Y988180I1001J7D01*
G01X30530Y991680D01*
G03X25340Y1006080I-8679J5007D01*
G01X25140Y1006160D01*
X-3830Y1035130D01*
G02X-4120Y1035940I705J709D01*
G01Y1035950D01*
G03X-9600Y1049260I-14929J1636D01*
G02X-9970Y1050040I630J777D01*
G01Y1928800D01*
G02X-9700Y1929450I920J-1D01*
G01X51690Y1990830D01*
X51750Y1990860D01*
G03X53270Y1991570I-3466J9401D01*
G01X54330Y1992190D01*
G02X55330I500J-867D01*
G01X55570Y1992050D01*
X55830Y1991600D01*
Y1989980D01*
G03X56830Y1988980I1000J0D01*
G01X62830D01*
G02X63830Y1987980I0J-1000D01*
G01Y1987550D01*
G03X77860Y1973520I14030J0D01*
G01X101280D01*
G02X102280Y1972520I0J-1000D01*
G01Y1951780D01*
G02X102110Y1951220I-1000J-2D01*
G03X103970Y1933320I11703J-7831D01*
G01X103980Y1933310D01*
G02X104270Y1932610I-709J-704D01*
G01X104290Y1929780D01*
G03X104580Y1929080I999J4D01*
G01X107930Y1925720D01*
G03X116730Y1922070I8812J8812D01*
G01X124580D01*
G02X125580Y1921070I0J-1000D01*
G01Y1917570D01*
G03X126580Y1916570I1000J0D01*
G01X133830D01*
G02X134830Y1915570I0J-1000D01*
G01Y1886810D01*
G02X133830Y1885810I-1000J0D01*
G01X127320D01*
G02X126320Y1886810I0J1000D01*
G01Y1887460D01*
G03X125320Y1888460I-1000J0D01*
G01X103280D01*
G03X102280Y1887460I0J-1000D01*
G01Y1849820D01*
G02X102110Y1849260I-1000J-2D01*
G03X103980Y1831470I11753J-7758D01*
G01X103990Y1831460D01*
G02X104280Y1830760I-710J-704D01*
G01Y1829650D01*
G03X113460Y1820470I9180J0D01*
G01X124580D01*
G02X125580Y1819470I0J-1000D01*
G01Y1815970D01*
G03X126580Y1814970I1000J0D01*
G01X133830D01*
G02X134830Y1813970I0J-1000D01*
G01Y1805300D01*
X134730Y1805200D01*
Y1793580D01*
X134830Y1793480D01*
Y1785210D01*
G02X133830Y1784210I-1000J0D01*
G01X127320D01*
G02X126320Y1785210I0J1000D01*
G01Y1785860D01*
G03X125320Y1786860I-1000J0D01*
G01X103280D01*
G03X102280Y1785860I0J-1000D01*
G01Y1748760D01*
G02X102090Y1748180I-998J6D01*
G03X103680Y1729970I11471J-8173D01*
G01X103690Y1729960D01*
G02X103980Y1729260I-710J-704D01*
G01Y1728350D01*
G03X113460Y1718870I9480J0D01*
G01X124580D01*
G02X125580Y1717870I0J-1000D01*
G01Y1714370D01*
G03X126580Y1713370I1000J0D01*
G01X133830D01*
G02X134830Y1712370I0J-1000D01*
G01Y1705300D01*
X134730Y1705200D01*
Y1693580D01*
X134830Y1693480D01*
Y1683610D01*
G02X133830Y1682610I-1000J0D01*
G01X127320D01*
G02X126320Y1683610I0J1000D01*
G01Y1684260D01*
G03X125320Y1685260I-1000J0D01*
G01X103280D01*
G03X102280Y1684260I0J-1000D01*
G01Y1646620D01*
G02X102110Y1646060I-1000J-2D01*
G03X103980Y1628270I11753J-7758D01*
G01X103990Y1628260D01*
G02X104280Y1627560I-710J-704D01*
G01Y1626450D01*
G03X113460Y1617270I9180J0D01*
G01X124580D01*
G02X125580Y1616270I0J-1000D01*
G01Y1612770D01*
G03X126580Y1611770I1000J0D01*
G01X133830D01*
G02X134830Y1610770I0J-1000D01*
G01Y1603300D01*
X134730Y1603200D01*
Y1591580D01*
X134830Y1591480D01*
Y1582010D01*
G02X133830Y1581010I-1000J0D01*
G01X127320D01*
G02X126320Y1582010I0J1000D01*
G01Y1582660D01*
G03X125320Y1583660I-1000J0D01*
G01X103280D01*
G03X102280Y1582660I0J-1000D01*
G01Y1545020D01*
G02X102110Y1544460I-1000J-2D01*
G03X103980Y1526670I11753J-7758D01*
G01X103990Y1526660D01*
G02X104280Y1525960I-710J-704D01*
G01Y1524850D01*
G03X113460Y1515670I9180J0D01*
G01X124580D01*
G02X125580Y1514670I0J-1000D01*
G01Y1511170D01*
G03X126580Y1510170I1000J0D01*
G01X133830D01*
G02X134830Y1509170I0J-1000D01*
G01Y1501300D01*
X134730Y1501200D01*
Y1489580D01*
X134830Y1489480D01*
Y1480410D01*
G02X133830Y1479410I-1000J0D01*
G01X127320D01*
G02X126320Y1480410I0J1000D01*
G01Y1481060D01*
G03X125320Y1482060I-1000J0D01*
G01X103280D01*
G03X102280Y1481060I0J-1000D01*
G01Y1443420D01*
G02X102110Y1442860I-1000J-2D01*
G03X103980Y1425070I11753J-7758D01*
G01X103990Y1425060D01*
G02X104280Y1424360I-710J-704D01*
G01Y1423250D01*
G03X113460Y1414070I9180J0D01*
G01X124580D01*
G02X125580Y1413070I0J-1000D01*
G01Y1409570D01*
G03X126580Y1408570I1000J0D01*
G01X133830D01*
G02X134830Y1407570I0J-1000D01*
G01Y1397320D01*
X134730Y1397220D01*
Y1385600D01*
X134830Y1385500D01*
Y1378810D01*
G02X133830Y1377810I-1000J0D01*
G01X127320D01*
G02X126320Y1378810I0J1000D01*
G01Y1379460D01*
G03X125320Y1380460I-1000J0D01*
G01X103280D01*
G03X102280Y1379460I0J-1000D01*
G01Y1341820D01*
G02X102110Y1341260I-1000J-2D01*
G03X103980Y1323470I11753J-7758D01*
G01X103990Y1323460D01*
G02X104280Y1322760I-710J-704D01*
G01Y1321650D01*
G03X113460Y1312470I9180J0D01*
G01X124580D01*
G02X125580Y1311470I0J-1000D01*
G01Y1307970D01*
G03X126580Y1306970I1000J0D01*
G01X133830D01*
G02X134830Y1305970I0J-1000D01*
G01Y1289370D01*
X134920Y1289280D01*
Y1285140D01*
X134830Y1285050D01*
Y1277210D01*
G02X133830Y1276210I-1000J0D01*
G01X127320D01*
G02X126320Y1277210I0J1000D01*
G01Y1277860D01*
G03X125320Y1278860I-1000J0D01*
G01X103280D01*
G03X102280Y1277860I0J-1000D01*
G01Y1240220D01*
G02X102110Y1239660I-1000J-2D01*
G03X103980Y1221870I11753J-7758D01*
G01X103990Y1221860D01*
G02X104280Y1221160I-710J-704D01*
G01Y1220050D01*
G03X113460Y1210870I9180J0D01*
G01X124580D01*
G02X125580Y1209870I0J-1000D01*
G01Y1206370D01*
G03X126580Y1205370I1000J0D01*
G01X133830D01*
G02X134830Y1204370I0J-1000D01*
G01Y1196710D01*
G02X134540Y1196010I-1000J4D01*
G01X133020Y1194490D01*
G03X132730Y1193790I710J-704D01*
G01Y923990D01*
G03X133020Y923290I1000J4D01*
G01X134540Y921770D01*
G02X134830Y921070I-710J-704D01*
G01Y915260D01*
G02X133830Y914260I-1000J0D01*
G01X127320D01*
G02X126320Y915260I0J1000D01*
G01Y915910D01*
G03X125320Y916910I-1000J0D01*
G01X103280D01*
G03X102280Y915910I0J-1000D01*
G01Y878270D01*
G02X102110Y877720I-998J7D01*
G03X101260Y876240I11767J-7742D01*
G02X100160Y875700I-898J439D01*
G01X99820Y875770D01*
G02X99020Y876750I201J981D01*
G01Y1167690D01*
G02X99460Y1168520I1001J1D01*
G03X91040I-4210J6230D01*
G02X91480Y1167690I-561J-829D01*
G01Y1161440D01*
G02X90810Y1160500I-999J3D01*
G01X90350Y1160340D01*
G02X89270Y1160620I-332J944D01*
G03X88640Y1161300I-10412J-9015D01*
G01X83680Y1166250D01*
X83530Y1166720D01*
X83580Y1166970D01*
G03X77630Y1161020I-7380J1430D01*
G01X77880Y1161070D01*
X78350Y1160920D01*
X83300Y1155960D01*
G02X85130Y1151560I-4398J-4410D01*
G01Y1141810D01*
G02X84510Y1140880I-1001J-4D01*
G01X84230Y1140770D01*
X83650Y1140880D01*
X64630Y1159900D01*
X64480Y1160370D01*
X64530Y1160620D01*
G03X58580Y1154670I-7380J1430D01*
G01X58830Y1154720D01*
X59300Y1154570D01*
X78420Y1135450D01*
G02X78780Y1134580I-870J-870D01*
G01Y1123340D01*
G02X78110Y1122400I-999J3D01*
G01X77650Y1122240D01*
G02X76570Y1122520I-332J944D01*
G03X75940Y1123200I-10412J-9015D01*
G01X45580Y1153550D01*
X45430Y1154020D01*
X45480Y1154270D01*
G03X39530Y1148320I-7380J1430D01*
G01X39780Y1148370D01*
X40250Y1148220D01*
X70600Y1117860D01*
G02X72430Y1113460I-4398J-4410D01*
G01Y1104290D01*
G02X71760Y1103350I-999J3D01*
G01X71300Y1103190D01*
G02X70220Y1103470I-332J944D01*
G03X69590Y1104150I-10415J-9017D01*
G01X26530Y1147210D01*
X26380Y1147680D01*
X26430Y1147920D01*
G03X20480Y1141970I-7380J1430D01*
G01X20720Y1142020D01*
X21190Y1141870D01*
X64250Y1098810D01*
G02X66070Y1094420I-4401J-4397D01*
G01Y222250D01*
G37*
G36*
G01X12770Y-13530D02*
Y11770D01*
G03X11770Y12770I-1000J0D01*
G01X10250D01*
G02X9330Y13400I8J998D01*
G01X8510Y15410D01*
X8640Y15990D01*
X8870Y16210D01*
G03X6520Y36380I-8869J9189D01*
G02X6030Y37240I510J860D01*
G01Y38960D01*
G02X6520Y39820I1000J0D01*
G03Y61780I-6520J10980D01*
G02X6030Y62640I510J860D01*
G01Y64360D01*
G02X6520Y65220I1000J0D01*
G03Y87180I-6520J10980D01*
G02X6030Y88040I510J860D01*
G01Y89760D01*
G02X6520Y90620I1000J0D01*
G03Y112580I-6520J10980D01*
G02X6030Y113440I510J860D01*
G01Y115160D01*
G02X6520Y116020I1000J0D01*
G03Y137980I-6520J10980D01*
G02X6030Y138840I510J860D01*
G01Y140560D01*
G02X6520Y141420I1000J0D01*
G03X11600Y157740I-6520J10980D01*
G01X11470Y158030D01*
X11580Y158640D01*
X12440Y159500D01*
G02X16840Y161330I4410J-4398D01*
G01X17390D01*
G02X18390Y160330I0J-1000D01*
G01Y160130D01*
X18240Y159770D01*
X18100Y159630D01*
G03X33870Y158200I7294J-7230D01*
G01X33710Y158430D01*
X33680Y158980D01*
X34640Y160800D01*
G02X35530Y161330I883J-471D01*
G01X37760D01*
G02X38610Y160850I-4J-1000D01*
G01X39630Y159150D01*
X39650Y158630D01*
X39520Y158390D01*
G03X44280Y141420I11279J-5989D01*
G02X44770Y140560I-510J-860D01*
G01Y138840D01*
G02X44280Y137980I-1000J0D01*
G03Y116020I6520J-10980D01*
G02X44770Y115160I-510J-860D01*
G01Y113440D01*
G02X44280Y112580I-1000J0D01*
G03Y90620I6520J-10980D01*
G02X44770Y89760I-510J-860D01*
G01Y88040D01*
G02X44280Y87180I-1000J0D01*
G03Y65220I6520J-10980D01*
G02X44770Y64360I-510J-860D01*
G01Y62640D01*
G02X44280Y61780I-1000J0D01*
G03Y39820I6520J-10980D01*
G02X44770Y38960I-510J-860D01*
G01Y37240D01*
G02X44280Y36380I-1000J0D01*
G03X41930Y16210I6519J-10981D01*
G01X42160Y15990D01*
X42290Y15410D01*
X41470Y13400D01*
G02X40550Y12770I-928J368D01*
G01X39030D01*
G03X38030Y11770I0J-1000D01*
G01Y-13530D01*
G02X37030Y-14530I-1000J0D01*
G01X13770D01*
G02X12770Y-13530I0J1000D01*
G37*
G36*
G01X32040Y911850D02*
X29870Y908100D01*
G03X38530I4330J-2500D01*
G01X36360Y911850D01*
G03X32040I-2160J-1250D01*
G37*
G36*
G01X24010Y990440D02*
X26180Y994190D01*
G03X17520I-4330J2500D01*
G01X19690Y990440D01*
G03X24010I2160J1250D01*
G37*
G36*
G01X124120Y-36100D02*
Y-35180D01*
G03X122120Y-33180I-2000J0D01*
G01X109950D01*
G02X107950Y-31180I0J2000D01*
G01Y-25970D01*
G02X109950Y-23970I2000J0D01*
G01X122120D01*
G03X124120Y-21970I0J2000D01*
G01Y-3430D01*
G03X122120Y-1430I-2000J0D01*
G01X109950D01*
G02X107950Y570I0J2000D01*
G01Y4350D01*
G02X109950Y6350I2000J0D01*
G01X132680D01*
G02X134680Y4350I0J-2000D01*
G01Y3330D01*
G03X136680Y1330I2000J0D01*
G01X196180D01*
G02X198180Y-670I0J-2000D01*
G01Y-31080D01*
G02X196180Y-33080I-2000J0D01*
G01X168140D01*
X166970Y-31910D01*
Y-31680D01*
X136930D01*
G03X134930Y-33680I0J-2000D01*
G01Y-36100D01*
G02X132930Y-38100I-2000J0D01*
G01X126120D01*
G02X124120Y-36100I0J2000D01*
G37*
G36*
G01X99020Y368750D02*
Y453870D01*
G02X99700Y454820I1001J2D01*
G01X101810Y455520D01*
X102420Y455340D01*
X102620Y455070D01*
G03X103980Y453520I11236J8487D01*
G01X104130Y453370D01*
X104280Y453010D01*
Y451700D01*
G03X113460Y442520I9180J0D01*
G01X124580D01*
G02X125580Y441520I0J-1000D01*
G01Y438020D01*
G03X126580Y437020I1000J0D01*
G01X133830D01*
G02X134830Y436020I0J-1000D01*
G01Y407260D01*
G02X133830Y406260I-1000J0D01*
G01X127320D01*
G02X126320Y407260I0J1000D01*
G01Y407910D01*
G03X125320Y408910I-1000J0D01*
G01X103280D01*
G03X102280Y407910I0J-1000D01*
G01Y370270D01*
G02X102110Y369720I-998J7D01*
G03X101260Y368230I11786J-7711D01*
G02X100160Y367700I-895J450D01*
G01X99820Y367770D01*
G02X99020Y368750I201J980D01*
G37*
G36*
G01Y470350D02*
Y555470D01*
G02X99700Y556420I1001J2D01*
G01X101810Y557120D01*
X102420Y556940D01*
X102620Y556670D01*
G03X103980Y555120I11236J8487D01*
G01X104130Y554970D01*
X104280Y554610D01*
Y553300D01*
G03X113460Y544120I9180J0D01*
G01X124580D01*
G02X125580Y543120I0J-1000D01*
G01Y539620D01*
G03X126580Y538620I1000J0D01*
G01X133830D01*
G02X134830Y537620I0J-1000D01*
G01Y508860D01*
G02X133830Y507860I-1000J0D01*
G01X127320D01*
G02X126320Y508860I0J1000D01*
G01Y509510D01*
G03X125320Y510510I-1000J0D01*
G01X103280D01*
G03X102280Y509510I0J-1000D01*
G01Y471870D01*
G02X102110Y471320I-998J7D01*
G03X101260Y469830I11786J-7711D01*
G02X100160Y469300I-895J450D01*
G01X99820Y469370D01*
G02X99020Y470350I201J980D01*
G37*
G36*
G01Y571950D02*
Y657070D01*
G02X99700Y658020I1001J2D01*
G01X101810Y658720D01*
X102420Y658540D01*
X102620Y658270D01*
G03X103980Y656720I11236J8487D01*
G01X104130Y656570D01*
X104280Y656210D01*
Y654900D01*
G03X113460Y645720I9180J0D01*
G01X124580D01*
G02X125580Y644720I0J-1000D01*
G01Y641220D01*
G03X126580Y640220I1000J0D01*
G01X133830D01*
G02X134830Y639220I0J-1000D01*
G01Y610460D01*
G02X133830Y609460I-1000J0D01*
G01X127320D01*
G02X126320Y610460I0J1000D01*
G01Y611110D01*
G03X125320Y612110I-1000J0D01*
G01X103280D01*
G03X102280Y611110I0J-1000D01*
G01Y573470D01*
G02X102110Y572920I-998J7D01*
G03X101260Y571430I11786J-7711D01*
G02X100160Y570900I-895J450D01*
G01X99820Y570970D01*
G02X99020Y571950I201J980D01*
G37*
G36*
G01Y673550D02*
Y758670D01*
G02X99700Y759620I1001J2D01*
G01X101810Y760320D01*
X102420Y760140D01*
X102620Y759870D01*
G03X103980Y758320I11236J8487D01*
G01X104130Y758170D01*
X104280Y757810D01*
Y756500D01*
G03X113460Y747320I9180J0D01*
G01X124580D01*
G02X125580Y746320I0J-1000D01*
G01Y742820D01*
G03X126580Y741820I1000J0D01*
G01X133830D01*
G02X134830Y740820I0J-1000D01*
G01Y712060D01*
G02X133830Y711060I-1000J0D01*
G01X127320D01*
G02X126320Y712060I0J1000D01*
G01Y712710D01*
G03X125320Y713710I-1000J0D01*
G01X103280D01*
G03X102280Y712710I0J-1000D01*
G01Y675070D01*
G02X102110Y674520I-998J7D01*
G03X101260Y673030I11786J-7711D01*
G02X100160Y672500I-895J450D01*
G01X99820Y672570D01*
G02X99020Y673550I201J980D01*
G37*
G36*
G01Y775150D02*
Y860270D01*
G02X99700Y861220I1001J2D01*
G01X101810Y861920D01*
X102420Y861740D01*
X102620Y861470D01*
G03X103980Y859920I11236J8487D01*
G01X104130Y859770D01*
X104280Y859410D01*
Y858100D01*
G03X113460Y848920I9180J0D01*
G01X124580D01*
G02X125580Y847920I0J-1000D01*
G01Y844420D01*
G03X126580Y843420I1000J0D01*
G01X133830D01*
G02X134830Y842420I0J-1000D01*
G01Y813660D01*
G02X133830Y812660I-1000J0D01*
G01X127320D01*
G02X126320Y813660I0J1000D01*
G01Y814310D01*
G03X125320Y815310I-1000J0D01*
G01X103280D01*
G03X102280Y814310I0J-1000D01*
G01Y776670D01*
G02X102110Y776120I-998J7D01*
G03X101260Y774630I11786J-7711D01*
G02X100160Y774100I-895J450D01*
G01X99820Y774170D01*
G02X99020Y775150I201J980D01*
G37*
G36*
G01X54510Y2002410D02*
X50760Y2004580D01*
G03Y1995920I-2500J-4330D01*
G01X54510Y1998090D01*
G03Y2002410I-1250J2160D01*
G37*
G36*
G01X171450Y-58960D02*
Y-40100D01*
G02X173450Y-38100I2000J0D01*
G01X176430D01*
G02X178430Y-40100I0J-2000D01*
G01Y-52720D01*
G03X180430Y-54720I2000J0D01*
G01X203470D01*
G03X205470Y-52720I0J2000D01*
G01Y-36180D01*
G03X203470Y-34180I-2000J0D01*
G01X203200D01*
Y-21020D01*
G02X205200Y-19020I2000J0D01*
G01X209870D01*
G03X211870Y-17020I0J2000D01*
G01Y-5980D01*
G03X209870Y-3980I-2000J0D01*
G01X205200D01*
G02X203200Y-1980I0J2000D01*
G01Y-670D01*
G02X205200Y1330I2000J0D01*
G01X220250D01*
G02X222250Y-670I0J-2000D01*
G01Y-58960D01*
G02X220250Y-60960I-2000J0D01*
G01X173450D01*
G02X171450Y-58960I0J2000D01*
G37*
G36*
G01X228600Y-11700D02*
Y5350D01*
G03X227600Y6350I-1000J0D01*
G01X203370D01*
G02X202370Y7350I0J1000D01*
G01Y18020D01*
G03X201370Y19020I-1000J0D01*
G01X192330D01*
G03X191330Y18020I0J-1000D01*
G01Y7350D01*
G02X190330Y6350I-1000J0D01*
G01X158920D01*
G02X157920Y7350I0J1000D01*
G01Y18020D01*
G03X156920Y19020I-1000J0D01*
G01X147880D01*
G03X146880Y18020I0J-1000D01*
G01Y7350D01*
G02X145880Y6350I-1000J0D01*
G01X140700D01*
G02X139700Y7350I0J1000D01*
G01Y24400D01*
G02X140700Y25400I1000J0D01*
G01X144780D01*
G02X145780Y24400I0J-1000D01*
G01Y23080D01*
G03X146780Y22080I1000J0D01*
G01X160820D01*
G03X161820Y23080I0J1000D01*
G01Y24400D01*
G02X162820Y25400I1000J0D01*
G01X189500D01*
G03X190500Y26400I0J1000D01*
G01Y87900D01*
G02X191500Y88900I1000J0D01*
G01X192780D01*
G02X193780Y87900I0J-1000D01*
G01Y61180D01*
G03X194780Y60180I1000J0D01*
G01X208820D01*
G03X209820Y61180I0J1000D01*
G01Y87900D01*
G02X210820Y88900I1000J0D01*
G01X215490D01*
G02X216190Y88610I-4J-1000D01*
G01X272760Y32040D01*
G02X273050Y31340I-710J-704D01*
G01Y-11700D01*
G02X272050Y-12700I-1000J0D01*
G01X229600D01*
G02X228600Y-11700I0J1000D01*
G37*
G36*
G01X139700Y32420D02*
Y99600D01*
G02X141700Y101600I2000J0D01*
G01X175800D01*
G02X177800Y99600I0J-2000D01*
G01Y90900D01*
G03X179800Y88900I2000J0D01*
G01X182150D01*
G02X184150Y86900I0J-2000D01*
G01Y32420D01*
G02X182150Y30420I-2000J0D01*
G01X163820D01*
G02X161820Y32420I0J2000D01*
G01Y52120D01*
G03X159820Y54120I-2000J0D01*
G01X147780D01*
G03X145780Y52120I0J-2000D01*
G01Y32420D01*
G02X143780Y30420I-2000J0D01*
G01X141700D01*
G02X139700Y32420I0J2000D01*
G37*
G36*
G01X143870Y915260D02*
Y924810D01*
G03X143580Y925520I-1002J5D01*
G01X142060Y927030D01*
G02X141770Y927740I711J704D01*
G01Y1190040D01*
G02X142060Y1190750I1001J6D01*
G01X143580Y1192260D01*
G03X143870Y1192970I-712J705D01*
G01Y1204370D01*
G02X144870Y1205370I1000J0D01*
G01X151230D01*
G02X152230Y1204370I0J-1000D01*
G01Y915260D01*
G02X151230Y914260I-1000J0D01*
G01X144870D01*
G02X143870Y915260I0J1000D01*
G37*
G36*
G01X119860Y1998090D02*
X123610Y1995920D01*
G03Y2004580I2500J4330D01*
G01X119860Y2002410D01*
G03Y1998090I1250J-2160D01*
G37*
G36*
G01X311150Y131540D02*
Y134450D01*
X311680Y134980D01*
G03X312270Y136400I-1410J1418D01*
G01Y152940D01*
G02X314270Y154940I2000J0D01*
G01X537750D01*
G02X539750Y152940I0J-2000D01*
G01Y131540D01*
G02X537750Y129540I-2000J0D01*
G01X313150D01*
G02X311150Y131540I0J2000D01*
G37*
G36*
G01X552770D02*
Y165960D01*
G03X550770Y167960I-2000J0D01*
G01X317360D01*
G02X315870Y168620I-5J2002D01*
G01X313600Y171160D01*
X313340Y171960D01*
X313380Y172390D01*
G03X311420Y181560I-14932J1603D01*
G02X311150Y182570I1731J1004D01*
G01Y203740D01*
G02X313150Y205740I2000J0D01*
G01X575850D01*
G02X577850Y203740I0J-2000D01*
G01Y182810D01*
X577330Y181900D01*
X576870Y181630D01*
G03X580960Y166710I4090J-6899D01*
G01X640580D01*
G02X642370Y165600I-1J-2000D01*
G01X647150Y156050D01*
G03X648940Y154940I1790J889D01*
G01X840340D01*
G02X842040Y153980I-8J-1999D01*
G01X844100Y150610D01*
X844140Y149580D01*
X843890Y149110D01*
G03Y135370I13360J-6870D01*
G01X844140Y134900D01*
X844100Y133870D01*
X842040Y130500D01*
G02X840340Y129540I-1708J1039D01*
G01X637720D01*
G02X635720Y131540I0J2000D01*
G01Y160410D01*
G03X633720Y162410I-2000J0D01*
G01X598180D01*
G03X596180Y160410I0J-2000D01*
G01Y131540D01*
G02X594180Y129540I-2000J0D01*
G01X554770D01*
G02X552770Y131540I0J2000D01*
G37*
G36*
G01X311150Y233140D02*
Y236050D01*
X311680Y236580D01*
G03X312270Y238000I-1410J1418D01*
G01Y254540D01*
G02X314270Y256540I2000J0D01*
G01X537750D01*
G02X539750Y254540I0J-2000D01*
G01Y233140D01*
G02X537750Y231140I-2000J0D01*
G01X313150D01*
G02X311150Y233140I0J2000D01*
G37*
G36*
G01X552770D02*
Y267560D01*
G03X550770Y269560I-2000J0D01*
G01X317360D01*
G02X315870Y270220I-5J2002D01*
G01X313600Y272760D01*
X313340Y273560D01*
X313380Y273990D01*
G03X311420Y283160I-14932J1603D01*
G02X311150Y284170I1731J1004D01*
G01Y305340D01*
G02X313150Y307340I2000J0D01*
G01X575850D01*
G02X577850Y305340I0J-2000D01*
G01Y258540D01*
G03X579850Y256540I2000J0D01*
G01X709960D01*
G03X711750Y257650I0J1999D01*
G01X716530Y267200D01*
G02X718320Y268310I1791J-890D01*
G01X767580D01*
G02X769370Y267200I-1J-2000D01*
G01X774150Y257650D01*
G03X775940Y256540I1790J889D01*
G01X840340D01*
G02X842040Y255580I-8J-1999D01*
G01X844100Y252210D01*
X844140Y251180D01*
X843890Y250710D01*
G03Y236970I13360J-6870D01*
G01X844140Y236500D01*
X844100Y235470D01*
X842040Y232100D01*
G02X840340Y231140I-1708J1039D01*
G01X764720D01*
G02X762720Y233140I0J2000D01*
G01Y262010D01*
G03X760720Y264010I-2000J0D01*
G01X725180D01*
G03X723180Y262010I0J-2000D01*
G01Y233140D01*
G02X721180Y231140I-2000J0D01*
G01X554770D01*
G02X552770Y233140I0J2000D01*
G37*
G36*
G01Y334740D02*
Y369160D01*
G03X550770Y371160I-2000J0D01*
G01X317360D01*
G02X315870Y371820I-5J2002D01*
G01X313600Y374360D01*
X313340Y375160D01*
X313380Y375590D01*
G03X311420Y384760I-14932J1603D01*
G02X311150Y385770I1731J1004D01*
G01Y406940D01*
G02X313150Y408940I2000J0D01*
G01X575850D01*
G02X577850Y406940I0J-2000D01*
G01Y386010D01*
X577330Y385100D01*
X576870Y384830D01*
G03X580960Y369910I4090J-6899D01*
G01X640580D01*
G02X642370Y368800I-1J-2000D01*
G01X647150Y359250D01*
G03X648940Y358140I1790J889D01*
G01X840340D01*
G02X842040Y357180I-8J-1999D01*
G01X844100Y353810D01*
X844140Y352780D01*
X843890Y352310D01*
G03Y338570I13360J-6870D01*
G01X844140Y338100D01*
X844100Y337070D01*
X842040Y333700D01*
G02X840340Y332740I-1708J1039D01*
G01X637720D01*
G02X635720Y334740I0J2000D01*
G01Y363610D01*
G03X633720Y365610I-2000J0D01*
G01X598180D01*
G03X596180Y363610I0J-2000D01*
G01Y334740D01*
G02X594180Y332740I-2000J0D01*
G01X554770D01*
G02X552770Y334740I0J2000D01*
G37*
G36*
G01X311150D02*
Y337650D01*
X311680Y338180D01*
G03X312270Y339600I-1410J1418D01*
G01Y356140D01*
G02X314270Y358140I2000J0D01*
G01X537750D01*
G02X539750Y356140I0J-2000D01*
G01Y334740D01*
G02X537750Y332740I-2000J0D01*
G01X313150D01*
G02X311150Y334740I0J2000D01*
G37*
G36*
G01Y436340D02*
Y439250D01*
X311680Y439780D01*
G03X312270Y441200I-1410J1418D01*
G01Y457740D01*
G02X314270Y459740I2000J0D01*
G01X537750D01*
G02X539750Y457740I0J-2000D01*
G01Y436340D01*
G02X537750Y434340I-2000J0D01*
G01X313150D01*
G02X311150Y436340I0J2000D01*
G37*
G36*
G01X552770D02*
Y470760D01*
G03X550770Y472760I-2000J0D01*
G01X317360D01*
G02X315870Y473420I-5J2002D01*
G01X313600Y475960D01*
X313340Y476760D01*
X313380Y477190D01*
G03X311420Y486360I-14932J1603D01*
G02X311150Y487370I1731J1004D01*
G01Y508540D01*
G02X313150Y510540I2000J0D01*
G01X575850D01*
G02X577850Y508540I0J-2000D01*
G01Y461740D01*
G03X579850Y459740I2000J0D01*
G01X709960D01*
G03X711750Y460850I0J1999D01*
G01X716530Y470400D01*
G02X718320Y471510I1791J-890D01*
G01X767580D01*
G02X769370Y470400I-1J-2000D01*
G01X774150Y460850D01*
G03X775940Y459740I1790J889D01*
G01X840340D01*
G02X842040Y458780I-8J-1999D01*
G01X844100Y455410D01*
X844140Y454380D01*
X843890Y453910D01*
G03Y440170I13360J-6870D01*
G01X844140Y439700D01*
X844100Y438670D01*
X842040Y435300D01*
G02X840340Y434340I-1708J1039D01*
G01X764720D01*
G02X762720Y436340I0J2000D01*
G01Y465210D01*
G03X760720Y467210I-2000J0D01*
G01X725180D01*
G03X723180Y465210I0J-2000D01*
G01Y436340D01*
G02X721180Y434340I-2000J0D01*
G01X554770D01*
G02X552770Y436340I0J2000D01*
G37*
G36*
G01X311150Y537940D02*
Y540850D01*
X311680Y541380D01*
G03X312270Y542800I-1410J1418D01*
G01Y559340D01*
G02X314270Y561340I2000J0D01*
G01X537750D01*
G02X539750Y559340I0J-2000D01*
G01Y537940D01*
G02X537750Y535940I-2000J0D01*
G01X313150D01*
G02X311150Y537940I0J2000D01*
G37*
G36*
G01X552770D02*
Y572360D01*
G03X550770Y574360I-2000J0D01*
G01X317360D01*
G02X315870Y575020I-5J2002D01*
G01X313600Y577560D01*
X313340Y578360D01*
X313380Y578790D01*
G03X311420Y587960I-14932J1603D01*
G02X311150Y588970I1731J1004D01*
G01Y610140D01*
G02X313150Y612140I2000J0D01*
G01X575850D01*
G02X577850Y610140I0J-2000D01*
G01Y589210D01*
X577330Y588300D01*
X576870Y588030D01*
G03X580960Y573110I4090J-6899D01*
G01X640580D01*
G02X642370Y572000I-1J-2000D01*
G01X647150Y562450D01*
G03X648940Y561340I1790J889D01*
G01X840340D01*
G02X842040Y560380I-8J-1999D01*
G01X844100Y557010D01*
X844140Y555980D01*
X843890Y555510D01*
G03Y541770I13360J-6870D01*
G01X844140Y541300D01*
X844100Y540270D01*
X842040Y536900D01*
G02X840340Y535940I-1708J1039D01*
G01X637720D01*
G02X635720Y537940I0J2000D01*
G01Y566810D01*
G03X633720Y568810I-2000J0D01*
G01X598180D01*
G03X596180Y566810I0J-2000D01*
G01Y537940D01*
G02X594180Y535940I-2000J0D01*
G01X554770D01*
G02X552770Y537940I0J2000D01*
G37*
G36*
G01X311150Y690570D02*
Y711740D01*
G02X313150Y713740I2000J0D01*
G01X575850D01*
G02X577850Y711740I0J-2000D01*
G01Y664940D01*
G03X579850Y662940I2000J0D01*
G01X709960D01*
G03X711750Y664050I0J1999D01*
G01X716530Y673600D01*
G02X718320Y674710I1791J-890D01*
G01X767580D01*
G02X769370Y673600I-1J-2000D01*
G01X774150Y664050D01*
G03X775940Y662940I1790J889D01*
G01X840340D01*
G02X842040Y661980I-8J-1999D01*
G01X844100Y658610D01*
X844140Y657580D01*
X843890Y657110D01*
G03Y643370I13360J-6870D01*
G01X844140Y642900D01*
X844100Y641870D01*
X842040Y638500D01*
G02X840340Y637540I-1708J1039D01*
G01X764720D01*
G02X762720Y639540I0J2000D01*
G01Y668410D01*
G03X760720Y670410I-2000J0D01*
G01X725180D01*
G03X723180Y668410I0J-2000D01*
G01Y639540D01*
G02X721180Y637540I-2000J0D01*
G01X554770D01*
G02X552770Y639540I0J2000D01*
G01Y673960D01*
G03X550770Y675960I-2000J0D01*
G01X317360D01*
G02X315870Y676620I-5J2002D01*
G01X313600Y679160D01*
X313340Y679960D01*
X313380Y680390D01*
G03X311420Y689560I-14932J1603D01*
G02X311150Y690570I1731J1004D01*
G37*
G36*
G01Y639540D02*
Y642450D01*
X311680Y642980D01*
G03X312270Y644400I-1410J1418D01*
G01Y660940D01*
G02X314270Y662940I2000J0D01*
G01X537750D01*
G02X539750Y660940I0J-2000D01*
G01Y639540D01*
G02X537750Y637540I-2000J0D01*
G01X313150D01*
G02X311150Y639540I0J2000D01*
G37*
G36*
G01Y741140D02*
Y744050D01*
X311680Y744580D01*
G03X312270Y746000I-1410J1418D01*
G01Y762540D01*
G02X314270Y764540I2000J0D01*
G01X537750D01*
G02X539750Y762540I0J-2000D01*
G01Y741140D01*
G02X537750Y739140I-2000J0D01*
G01X313150D01*
G02X311150Y741140I0J2000D01*
G37*
G36*
G01Y792170D02*
Y813340D01*
G02X313150Y815340I2000J0D01*
G01X575850D01*
G02X577850Y813340I0J-2000D01*
G01Y792410D01*
X577330Y791500D01*
X576870Y791230D01*
G03X580960Y776310I4090J-6899D01*
G01X640580D01*
G02X642370Y775200I-1J-2000D01*
G01X647150Y765650D01*
G03X648940Y764540I1790J889D01*
G01X840340D01*
G02X842040Y763580I-8J-1999D01*
G01X844100Y760210D01*
X844140Y759180D01*
X843890Y758710D01*
G03Y744970I13360J-6870D01*
G01X844140Y744500D01*
X844100Y743470D01*
X842040Y740100D01*
G02X840340Y739140I-1708J1039D01*
G01X637720D01*
G02X635720Y741140I0J2000D01*
G01Y770010D01*
G03X633720Y772010I-2000J0D01*
G01X598180D01*
G03X596180Y770010I0J-2000D01*
G01Y741140D01*
G02X594180Y739140I-2000J0D01*
G01X554770D01*
G02X552770Y741140I0J2000D01*
G01Y775560D01*
G03X550770Y777560I-2000J0D01*
G01X317360D01*
G02X315870Y778220I-5J2002D01*
G01X313600Y780760D01*
X313340Y781560D01*
X313380Y781990D01*
G03X311420Y791160I-14932J1603D01*
G02X311150Y792170I1731J1004D01*
G37*
G36*
G01Y842740D02*
Y845650D01*
X311680Y846180D01*
G03X312270Y847600I-1410J1418D01*
G01Y864140D01*
G02X314270Y866140I2000J0D01*
G01X537750D01*
G02X539750Y864140I0J-2000D01*
G01Y842740D01*
G02X537750Y840740I-2000J0D01*
G01X313150D01*
G02X311150Y842740I0J2000D01*
G37*
G36*
G01Y893770D02*
Y914940D01*
G02X313150Y916940I2000J0D01*
G01X575850D01*
G02X577850Y914940I0J-2000D01*
G01Y868140D01*
G03X579850Y866140I2000J0D01*
G01X709960D01*
G03X711750Y867250I0J1999D01*
G01X716530Y876800D01*
G02X718320Y877910I1791J-890D01*
G01X767580D01*
G02X769370Y876800I-1J-2000D01*
G01X774150Y867250D01*
G03X775940Y866140I1790J889D01*
G01X840340D01*
G02X842040Y865180I-8J-1999D01*
G01X844100Y861810D01*
X844140Y860780D01*
X843890Y860310D01*
G03Y846570I13360J-6870D01*
G01X844140Y846100D01*
X844100Y845070D01*
X842040Y841700D01*
G02X840340Y840740I-1708J1039D01*
G01X764720D01*
G02X762720Y842740I0J2000D01*
G01Y871610D01*
G03X760720Y873610I-2000J0D01*
G01X725180D01*
G03X723180Y871610I0J-2000D01*
G01Y842740D01*
G02X721180Y840740I-2000J0D01*
G01X554770D01*
G02X552770Y842740I0J2000D01*
G01Y877160D01*
G03X550770Y879160I-2000J0D01*
G01X317360D01*
G02X315870Y879820I-5J2002D01*
G01X313600Y882360D01*
X313340Y883160D01*
X313380Y883590D01*
G03X311420Y892760I-14932J1603D01*
G02X311150Y893770I1731J1004D01*
G37*
G36*
G01Y1204690D02*
Y1207600D01*
X311680Y1208130D01*
G03X312270Y1209550I-1410J1418D01*
G01Y1226090D01*
G02X314270Y1228090I2000J0D01*
G01X537750D01*
G02X539750Y1226090I0J-2000D01*
G01Y1204690D01*
G02X537750Y1202690I-2000J0D01*
G01X313150D01*
G02X311150Y1204690I0J2000D01*
G37*
G36*
G01Y1255720D02*
Y1276890D01*
G02X313150Y1278890I2000J0D01*
G01X575850D01*
G02X577850Y1276890I0J-2000D01*
G01Y1255960D01*
X577330Y1255050D01*
X576870Y1254780D01*
G03X580960Y1239860I4090J-6899D01*
G01X640580D01*
G02X642370Y1238750I-1J-2000D01*
G01X647150Y1229200D01*
G03X648940Y1228090I1790J889D01*
G01X840340D01*
G02X842040Y1227130I-8J-1999D01*
G01X844100Y1223760D01*
X844140Y1222730D01*
X843890Y1222260D01*
G03Y1208520I13360J-6870D01*
G01X844140Y1208050D01*
X844100Y1207020D01*
X842040Y1203650D01*
G02X840340Y1202690I-1708J1039D01*
G01X637720D01*
G02X635720Y1204690I0J2000D01*
G01Y1233560D01*
G03X633720Y1235560I-2000J0D01*
G01X598180D01*
G03X596180Y1233560I0J-2000D01*
G01Y1204690D01*
G02X594180Y1202690I-2000J0D01*
G01X554770D01*
G02X552770Y1204690I0J2000D01*
G01Y1239110D01*
G03X550770Y1241110I-2000J0D01*
G01X317360D01*
G02X315870Y1241770I-5J2002D01*
G01X313600Y1244310D01*
X313340Y1245110D01*
X313380Y1245540D01*
G03X311420Y1254710I-14932J1603D01*
G02X311150Y1255720I1731J1004D01*
G37*
G36*
G01X552770Y1306290D02*
Y1340710D01*
G03X550770Y1342710I-2000J0D01*
G01X317360D01*
G02X315870Y1343370I-5J2002D01*
G01X313600Y1345910D01*
X313340Y1346710D01*
X313380Y1347140D01*
G03X311420Y1356310I-14932J1603D01*
G02X311150Y1357320I1731J1004D01*
G01Y1378490D01*
G02X313150Y1380490I2000J0D01*
G01X575850D01*
G02X577850Y1378490I0J-2000D01*
G01Y1331690D01*
G03X579850Y1329690I2000J0D01*
G01X709960D01*
G03X711750Y1330800I0J1999D01*
G01X716530Y1340350D01*
G02X718320Y1341460I1791J-890D01*
G01X767580D01*
G02X769370Y1340350I-1J-2000D01*
G01X774150Y1330800D01*
G03X775940Y1329690I1790J889D01*
G01X840340D01*
G02X842040Y1328730I-8J-1999D01*
G01X844100Y1325360D01*
X844140Y1324330D01*
X843890Y1323860D01*
G03Y1310120I13360J-6870D01*
G01X844140Y1309650D01*
X844100Y1308620D01*
X842040Y1305250D01*
G02X840340Y1304290I-1708J1039D01*
G01X764720D01*
G02X762720Y1306290I0J2000D01*
G01Y1335160D01*
G03X760720Y1337160I-2000J0D01*
G01X725180D01*
G03X723180Y1335160I0J-2000D01*
G01Y1306290D01*
G02X721180Y1304290I-2000J0D01*
G01X554770D01*
G02X552770Y1306290I0J2000D01*
G37*
G36*
G01X311150D02*
Y1309200D01*
X311680Y1309730D01*
G03X312270Y1311150I-1410J1418D01*
G01Y1327690D01*
G02X314270Y1329690I2000J0D01*
G01X537750D01*
G02X539750Y1327690I0J-2000D01*
G01Y1306290D01*
G02X537750Y1304290I-2000J0D01*
G01X313150D01*
G02X311150Y1306290I0J2000D01*
G37*
G36*
G01X577850Y1480090D02*
Y1459170D01*
X577320Y1458250D01*
X576870Y1457980D01*
G03X580950Y1443060I4080J-6902D01*
G01X640580D01*
G02X642370Y1441950I-1J-2000D01*
G01X647150Y1432400D01*
G03X648940Y1431290I1790J889D01*
G01X840340D01*
G02X842040Y1430330I-8J-1999D01*
G01X844100Y1426960D01*
X844140Y1425930D01*
X843890Y1425460D01*
G03Y1411720I13360J-6870D01*
G01X844140Y1411250D01*
X844100Y1410220D01*
X842040Y1406850D01*
G02X840340Y1405890I-1708J1039D01*
G01X637720D01*
G02X635720Y1407890I0J2000D01*
G01Y1436760D01*
G03X633720Y1438760I-2000J0D01*
G01X598180D01*
G03X596180Y1436760I0J-2000D01*
G01Y1407890D01*
G02X594180Y1405890I-2000J0D01*
G01X554770D01*
G02X552770Y1407890I0J2000D01*
G01Y1442310D01*
G03X550770Y1444310I-2000J0D01*
G01X317360D01*
G02X315870Y1444970I-5J2002D01*
G01X313600Y1447510D01*
X313340Y1448310D01*
X313380Y1448740D01*
G03X311420Y1457910I-14932J1603D01*
G02X311150Y1458920I1731J1004D01*
G01Y1480090D01*
G02X313150Y1482090I2000J0D01*
G01X575850D01*
G02X577850Y1480090I0J-2000D01*
G37*
G36*
G01X311150Y1407890D02*
Y1410800D01*
X311680Y1411330D01*
G03X312270Y1412750I-1410J1418D01*
G01Y1429290D01*
G02X314270Y1431290I2000J0D01*
G01X537750D01*
G02X539750Y1429290I0J-2000D01*
G01Y1407890D01*
G02X537750Y1405890I-2000J0D01*
G01X313150D01*
G02X311150Y1407890I0J2000D01*
G37*
G36*
G01Y1509490D02*
Y1512400D01*
X311680Y1512930D01*
G03X312270Y1514350I-1410J1418D01*
G01Y1530890D01*
G02X314270Y1532890I2000J0D01*
G01X537750D01*
G02X539750Y1530890I0J-2000D01*
G01Y1509490D01*
G02X537750Y1507490I-2000J0D01*
G01X313150D01*
G02X311150Y1509490I0J2000D01*
G37*
G36*
G01X552770D02*
Y1543910D01*
G03X550770Y1545910I-2000J0D01*
G01X317360D01*
G02X315870Y1546570I-5J2002D01*
G01X313600Y1549110D01*
X313340Y1549910D01*
X313380Y1550340D01*
G03X311420Y1559510I-14932J1603D01*
G02X311150Y1560520I1731J1004D01*
G01Y1581690D01*
G02X313150Y1583690I2000J0D01*
G01X575850D01*
G02X577850Y1581690I0J-2000D01*
G01Y1534890D01*
G03X579850Y1532890I2000J0D01*
G01X709960D01*
G03X711750Y1534000I0J1999D01*
G01X716530Y1543540D01*
G02X718320Y1544650I1790J-889D01*
G01X767580D01*
G02X769370Y1543540I0J-1999D01*
G01X774150Y1534000D01*
G03X775940Y1532890I1790J889D01*
G01X840340D01*
G02X842040Y1531930I-8J-1999D01*
G01X844100Y1528560D01*
X844140Y1527530D01*
X843890Y1527060D01*
G03Y1513320I13360J-6870D01*
G01X844140Y1512850D01*
X844100Y1511820D01*
X842040Y1508450D01*
G02X840340Y1507490I-1708J1039D01*
G01X764720D01*
G02X762720Y1509490I0J2000D01*
G01Y1538360D01*
G03X760720Y1540360I-2000J0D01*
G01X725180D01*
G03X723180Y1538360I0J-2000D01*
G01Y1509490D01*
G02X721180Y1507490I-2000J0D01*
G01X554770D01*
G02X552770Y1509490I0J2000D01*
G37*
G36*
G01X577850Y1683290D02*
Y1662380D01*
X577320Y1661460D01*
X576870Y1661190D01*
G03X580950Y1646270I4080J-6902D01*
G01X640570D01*
G02X642360Y1645160I0J-1999D01*
G01X647150Y1635600D01*
G03X648940Y1634490I1790J889D01*
G01X840340D01*
G02X842040Y1633530I-8J-1999D01*
G01X844100Y1630160D01*
X844140Y1629130D01*
X843890Y1628660D01*
G03Y1614920I13360J-6870D01*
G01X844140Y1614450D01*
X844100Y1613420D01*
X842040Y1610050D01*
G02X840340Y1609090I-1708J1039D01*
G01X637720D01*
G02X635720Y1611090I0J2000D01*
G01Y1639960D01*
G03X633720Y1641960I-2000J0D01*
G01X598180D01*
G03X596180Y1639960I0J-2000D01*
G01Y1611090D01*
G02X594180Y1609090I-2000J0D01*
G01X554770D01*
G02X552770Y1611090I0J2000D01*
G01Y1645510D01*
G03X550770Y1647510I-2000J0D01*
G01X317360D01*
G02X315870Y1648170I-5J2002D01*
G01X313600Y1650710D01*
X313340Y1651510D01*
X313380Y1651940D01*
G03X311420Y1661110I-14932J1603D01*
G02X311150Y1662120I1731J1004D01*
G01Y1683290D01*
G02X313150Y1685290I2000J0D01*
G01X575850D01*
G02X577850Y1683290I0J-2000D01*
G37*
G36*
G01X311150Y1611090D02*
Y1614000D01*
X311680Y1614530D01*
G03X312270Y1615950I-1410J1418D01*
G01Y1632490D01*
G02X314270Y1634490I2000J0D01*
G01X537750D01*
G02X539750Y1632490I0J-2000D01*
G01Y1611090D01*
G02X537750Y1609090I-2000J0D01*
G01X313150D01*
G02X311150Y1611090I0J2000D01*
G37*
G36*
G01X552770Y1712690D02*
Y1747110D01*
G03X550770Y1749110I-2000J0D01*
G01X317360D01*
G02X315870Y1749770I-5J2002D01*
G01X313600Y1752310D01*
X313340Y1753110D01*
X313380Y1753540D01*
G03X311420Y1762710I-14932J1603D01*
G02X311150Y1763720I1731J1004D01*
G01Y1784890D01*
G02X313150Y1786890I2000J0D01*
G01X575850D01*
G02X577850Y1784890I0J-2000D01*
G01Y1738090D01*
G03X579850Y1736090I2000J0D01*
G01X709960D01*
G03X711750Y1737200I0J1999D01*
G01X716540Y1746760D01*
G02X718330Y1747870I1790J-889D01*
G01X767570D01*
G02X769360Y1746760I0J-1999D01*
G01X774150Y1737200D01*
G03X775940Y1736090I1790J889D01*
G01X840340D01*
G02X842040Y1735130I-8J-1999D01*
G01X844100Y1731760D01*
X844140Y1730730D01*
X843890Y1730260D01*
G03Y1716520I13360J-6870D01*
G01X844140Y1716050D01*
X844100Y1715020D01*
X842040Y1711650D01*
G02X840340Y1710690I-1708J1039D01*
G01X764720D01*
G02X762720Y1712690I0J2000D01*
G01Y1741560D01*
G03X760720Y1743560I-2000J0D01*
G01X725180D01*
G03X723180Y1741560I0J-2000D01*
G01Y1712690D01*
G02X721180Y1710690I-2000J0D01*
G01X554770D01*
G02X552770Y1712690I0J2000D01*
G37*
G36*
G01X311150D02*
Y1715600D01*
X311680Y1716130D01*
G03X312270Y1717550I-1410J1418D01*
G01Y1734090D01*
G02X314270Y1736090I2000J0D01*
G01X537750D01*
G02X539750Y1734090I0J-2000D01*
G01Y1712690D01*
G02X537750Y1710690I-2000J0D01*
G01X313150D01*
G02X311150Y1712690I0J2000D01*
G37*
G36*
G01Y1814290D02*
Y1817200D01*
X311680Y1817730D01*
G03X312270Y1819150I-1410J1418D01*
G01Y1835690D01*
G02X314270Y1837690I2000J0D01*
G01X537750D01*
G02X539750Y1835690I0J-2000D01*
G01Y1814290D01*
G02X537750Y1812290I-2000J0D01*
G01X313150D01*
G02X311150Y1814290I0J2000D01*
G37*
G36*
G01X577850Y1886490D02*
Y1865580D01*
X577320Y1864660D01*
X576870Y1864390D01*
G03X580950Y1849470I4080J-6902D01*
G01X640570D01*
G02X642360Y1848360I0J-1999D01*
G01X647150Y1838800D01*
G03X648940Y1837690I1790J889D01*
G01X840340D01*
G02X842040Y1836730I-8J-1999D01*
G01X844100Y1833360D01*
X844140Y1832330D01*
X843890Y1831860D01*
G03Y1818120I13360J-6870D01*
G01X844140Y1817650D01*
X844100Y1816620D01*
X842040Y1813250D01*
G02X840340Y1812290I-1708J1039D01*
G01X637720D01*
G02X635720Y1814290I0J2000D01*
G01Y1843160D01*
G03X633720Y1845160I-2000J0D01*
G01X598180D01*
G03X596180Y1843160I0J-2000D01*
G01Y1814290D01*
G02X594180Y1812290I-2000J0D01*
G01X554770D01*
G02X552770Y1814290I0J2000D01*
G01Y1848710D01*
G03X550770Y1850710I-2000J0D01*
G01X317360D01*
G02X315870Y1851370I-5J2002D01*
G01X313600Y1853910D01*
X313340Y1854710D01*
X313380Y1855140D01*
G03X311420Y1864310I-14932J1603D01*
G02X311150Y1865320I1731J1004D01*
G01Y1886490D01*
G02X313150Y1888490I2000J0D01*
G01X575850D01*
G02X577850Y1886490I0J-2000D01*
G37*
G36*
G01X552770Y1915890D02*
Y1950310D01*
G03X550770Y1952310I-2000J0D01*
G01X317360D01*
G02X315870Y1952970I-5J2002D01*
G01X313600Y1955510D01*
X313340Y1956310D01*
X313380Y1956740D01*
G03X311420Y1965910I-14932J1603D01*
G02X311150Y1966920I1731J1004D01*
G01Y1988090D01*
G02X313150Y1990090I2000J0D01*
G01X575850D01*
G02X577850Y1988090I0J-2000D01*
G01Y1941290D01*
G03X579850Y1939290I2000J0D01*
G01X709960D01*
G03X711750Y1940400I0J1999D01*
G01X716540Y1949960D01*
G02X718330Y1951070I1790J-889D01*
G01X767570D01*
G02X769360Y1949960I0J-1999D01*
G01X774150Y1940400D01*
G03X775940Y1939290I1790J889D01*
G01X840340D01*
G02X842040Y1938330I-8J-1999D01*
G01X844100Y1934960D01*
X844140Y1933930D01*
X843890Y1933460D01*
G03Y1919720I13360J-6870D01*
G01X844140Y1919250D01*
X844100Y1918220D01*
X842040Y1914850D01*
G02X840340Y1913890I-1708J1039D01*
G01X764720D01*
G02X762720Y1915890I0J2000D01*
G01Y1944760D01*
G03X760720Y1946760I-2000J0D01*
G01X725180D01*
G03X723180Y1944760I0J-2000D01*
G01Y1915890D01*
G02X721180Y1913890I-2000J0D01*
G01X554770D01*
G02X552770Y1915890I0J2000D01*
G37*
G36*
G01X311150D02*
Y1918800D01*
X311680Y1919330D01*
G03X312270Y1920750I-1410J1418D01*
G01Y1937290D01*
G02X314270Y1939290I2000J0D01*
G01X537750D01*
G02X539750Y1937290I0J-2000D01*
G01Y1915890D01*
G02X537750Y1913890I-2000J0D01*
G01X313150D01*
G02X311150Y1915890I0J2000D01*
G37*
G36*
G01X656180Y180820D02*
G03X650960Y182750I-5220J-6094D01*
G01X605250D01*
G02X603250Y184750I0J2000D01*
G01Y203740D01*
G02X605250Y205740I2000J0D01*
G01X840340D01*
G02X842040Y204780I-8J-1999D01*
G01X844100Y201410D01*
X844140Y200380D01*
X843890Y199910D01*
G03Y186170I13360J-6870D01*
G01X844140Y185700D01*
X844100Y184670D01*
X842040Y181300D01*
G02X840340Y180340I-1708J1039D01*
G01X657480D01*
G02X656180Y180820I0J2000D01*
G37*
G36*
G01X603250Y283940D02*
Y305340D01*
G02X605250Y307340I2000J0D01*
G01X840340D01*
G02X842040Y306380I-8J-1999D01*
G01X844100Y303010D01*
X844140Y301980D01*
X843890Y301510D01*
G03Y287770I13360J-6870D01*
G01X844140Y287300D01*
X844100Y286270D01*
X842040Y282900D01*
G02X840340Y281940I-1708J1039D01*
G01X784480D01*
G02X783180Y282420I0J2000D01*
G03X777960Y284350I-5220J-6094D01*
G01X707960D01*
G03X702740Y282420I0J-8024D01*
G02X701440Y281940I-1300J1520D01*
G01X605250D01*
G02X603250Y283940I0J2000D01*
G37*
G36*
G01X656180Y384020D02*
G03X650960Y385950I-5220J-6094D01*
G01X605250D01*
G02X603250Y387950I0J2000D01*
G01Y406940D01*
G02X605250Y408940I2000J0D01*
G01X840340D01*
G02X842040Y407980I-8J-1999D01*
G01X844100Y404610D01*
X844140Y403580D01*
X843890Y403110D01*
G03Y389370I13360J-6870D01*
G01X844140Y388900D01*
X844100Y387870D01*
X842040Y384500D01*
G02X840340Y383540I-1708J1039D01*
G01X657480D01*
G02X656180Y384020I0J2000D01*
G37*
G36*
G01X603250Y487140D02*
Y508540D01*
G02X605250Y510540I2000J0D01*
G01X840340D01*
G02X842040Y509580I-8J-1999D01*
G01X844100Y506210D01*
X844140Y505180D01*
X843890Y504710D01*
G03Y490970I13360J-6870D01*
G01X844140Y490500D01*
X844100Y489470D01*
X842040Y486100D01*
G02X840340Y485140I-1708J1039D01*
G01X788230D01*
G02X786810Y485730I-2J2000D01*
G01X781640Y490900D01*
G03X780220Y491490I-1418J-1410D01*
G01X705680D01*
G03X704260Y490900I-2J-2000D01*
G01X699090Y485730D01*
G02X697670Y485140I-1418J1410D01*
G01X605250D01*
G02X603250Y487140I0J2000D01*
G37*
G36*
G01X656180Y587220D02*
G03X650960Y589150I-5220J-6094D01*
G01X605250D01*
G02X603250Y591150I0J2000D01*
G01Y610140D01*
G02X605250Y612140I2000J0D01*
G01X840340D01*
G02X842040Y611180I-8J-1999D01*
G01X844100Y607810D01*
X844140Y606780D01*
X843890Y606310D01*
G03Y592570I13360J-6870D01*
G01X844140Y592100D01*
X844100Y591070D01*
X842040Y587700D01*
G02X840340Y586740I-1708J1039D01*
G01X657480D01*
G02X656180Y587220I0J2000D01*
G37*
G36*
G01X603250Y690340D02*
Y711740D01*
G02X605250Y713740I2000J0D01*
G01X840340D01*
G02X842040Y712780I-8J-1999D01*
G01X844100Y709410D01*
X844140Y708380D01*
X843890Y707910D01*
G03Y694170I13360J-6870D01*
G01X844140Y693700D01*
X844100Y692670D01*
X842040Y689300D01*
G02X840340Y688340I-1708J1039D01*
G01X784480D01*
G02X783180Y688820I0J2000D01*
G03X777960Y690750I-5220J-6094D01*
G01X707960D01*
G03X702740Y688820I0J-8024D01*
G02X701440Y688340I-1300J1520D01*
G01X605250D01*
G02X603250Y690340I0J2000D01*
G37*
G36*
G01X656180Y790420D02*
G03X650960Y792350I-5220J-6094D01*
G01X605250D01*
G02X603250Y794350I0J2000D01*
G01Y813340D01*
G02X605250Y815340I2000J0D01*
G01X840340D01*
G02X842040Y814380I-8J-1999D01*
G01X844100Y811010D01*
X844140Y809980D01*
X843890Y809510D01*
G03Y795770I13360J-6870D01*
G01X844140Y795300D01*
X844100Y794270D01*
X842040Y790900D01*
G02X840340Y789940I-1708J1039D01*
G01X657480D01*
G02X656180Y790420I0J2000D01*
G37*
G36*
G01X603250Y893540D02*
Y914940D01*
G02X605250Y916940I2000J0D01*
G01X840230D01*
G02X842230Y914940I0J-2000D01*
G01Y893540D01*
G02X840230Y891540I-2000J0D01*
G01X784480D01*
G02X783180Y892020I0J2000D01*
G03X777960Y893950I-5220J-6094D01*
G01X707960D01*
G03X702740Y892020I0J-8024D01*
G02X701440Y891540I-1300J1520D01*
G01X605250D01*
G02X603250Y893540I0J2000D01*
G37*
G36*
G01X656180Y1253970D02*
G03X650960Y1255900I-5220J-6094D01*
G01X605250D01*
G02X603250Y1257900I0J2000D01*
G01Y1276890D01*
G02X605250Y1278890I2000J0D01*
G01X840340D01*
G02X842040Y1277930I-8J-1999D01*
G01X844100Y1274560D01*
X844140Y1273530D01*
X843890Y1273060D01*
G03Y1259320I13360J-6870D01*
G01X844140Y1258850D01*
X844100Y1257820D01*
X842040Y1254450D01*
G02X840340Y1253490I-1708J1039D01*
G01X657480D01*
G02X656180Y1253970I0J2000D01*
G37*
G36*
G01X603250Y1357090D02*
Y1378490D01*
G02X605250Y1380490I2000J0D01*
G01X840340D01*
G02X842040Y1379530I-8J-1999D01*
G01X844100Y1376160D01*
X844140Y1375130D01*
X843890Y1374660D01*
G03Y1360920I13360J-6870D01*
G01X844140Y1360450D01*
X844100Y1359420D01*
X842040Y1356050D01*
G02X840340Y1355090I-1708J1039D01*
G01X784480D01*
G02X783180Y1355570I0J2000D01*
G03X777960Y1357500I-5220J-6094D01*
G01X707960D01*
G03X702740Y1355570I0J-8024D01*
G02X701440Y1355090I-1300J1520D01*
G01X605250D01*
G02X603250Y1357090I0J2000D01*
G37*
G36*
G01X656170Y1457170D02*
G03X650950Y1459100I-5220J-6094D01*
G01X605250D01*
G02X603250Y1461100I0J2000D01*
G01Y1480090D01*
G02X605250Y1482090I2000J0D01*
G01X840340D01*
G02X842040Y1481130I-8J-1999D01*
G01X844100Y1477760D01*
X844140Y1476730D01*
X843890Y1476260D01*
G03Y1462520I13360J-6870D01*
G01X844140Y1462050D01*
X844100Y1461020D01*
X842040Y1457650D01*
G02X840340Y1456690I-1708J1039D01*
G01X657470D01*
G02X656170Y1457170I0J2000D01*
G37*
G36*
G01X603250Y1560290D02*
Y1581690D01*
G02X605250Y1583690I2000J0D01*
G01X840340D01*
G02X842040Y1582730I-8J-1999D01*
G01X844100Y1579360D01*
X844140Y1578330D01*
X843890Y1577860D01*
G03Y1564120I13360J-6870D01*
G01X844140Y1563650D01*
X844100Y1562620D01*
X842040Y1559250D01*
G02X840340Y1558290I-1708J1039D01*
G01X784480D01*
G02X783180Y1558770I0J1999D01*
G03X777970Y1560690I-5210J-6109D01*
G01X707970D01*
G03X702760Y1558770I0J-8029D01*
G02X701460Y1558290I-1300J1519D01*
G01X605250D01*
G02X603250Y1560290I0J2000D01*
G37*
G36*
G01X656180Y1660370D02*
G03X650950Y1662310I-5230J-6080D01*
G01X605250D01*
G02X603250Y1664310I0J2000D01*
G01Y1683290D01*
G02X605250Y1685290I2000J0D01*
G01X840340D01*
G02X842040Y1684330I-8J-1999D01*
G01X844100Y1680960D01*
X844140Y1679930D01*
X843890Y1679460D01*
G03Y1665720I13360J-6870D01*
G01X844140Y1665250D01*
X844100Y1664220D01*
X842040Y1660850D01*
G02X840340Y1659890I-1708J1039D01*
G01X657480D01*
G02X656180Y1660370I0J2000D01*
G37*
G36*
G01X603250Y1763490D02*
Y1784890D01*
G02X605250Y1786890I2000J0D01*
G01X840340D01*
G02X842040Y1785930I-8J-1999D01*
G01X844100Y1782560D01*
X844140Y1781530D01*
X843890Y1781060D01*
G03Y1767320I13360J-6870D01*
G01X844140Y1766850D01*
X844100Y1765820D01*
X842040Y1762450D01*
G02X840340Y1761490I-1708J1039D01*
G01X784480D01*
G02X783180Y1761970I0J2000D01*
G03X777950Y1763910I-5230J-6080D01*
G01X707950D01*
G03X702720Y1761970I0J-8020D01*
G02X701420Y1761490I-1300J1520D01*
G01X605250D01*
G02X603250Y1763490I0J2000D01*
G37*
G36*
G01X656180Y1863570D02*
G03X650950Y1865510I-5230J-6080D01*
G01X605250D01*
G02X603250Y1867510I0J2000D01*
G01Y1886490D01*
G02X605250Y1888490I2000J0D01*
G01X840340D01*
G02X842040Y1887530I-8J-1999D01*
G01X844100Y1884160D01*
X844140Y1883130D01*
X843890Y1882660D01*
G03Y1868920I13360J-6870D01*
G01X844140Y1868450D01*
X844100Y1867420D01*
X842040Y1864050D01*
G02X840340Y1863090I-1708J1039D01*
G01X657480D01*
G02X656180Y1863570I0J2000D01*
G37*
G36*
G01X603250Y1966690D02*
Y1988090D01*
G02X605250Y1990090I2000J0D01*
G01X840230D01*
G02X842230Y1988090I0J-2000D01*
G01Y1966690D01*
G02X840230Y1964690I-2000J0D01*
G01X784480D01*
G02X783180Y1965170I0J2000D01*
G03X777950Y1967110I-5230J-6080D01*
G01X707950D01*
G03X702720Y1965170I0J-8020D01*
G02X701420Y1964690I-1300J1520D01*
G01X605250D01*
G02X603250Y1966690I0J2000D01*
G37*
%LPC*%
G75*
G36*
G01X34670Y472330D02*
X16130D01*
G02X15130Y473330I0J1000D01*
G01Y491870D01*
G02X16130Y492870I1000J0D01*
G01X34670D01*
G02X35670Y491870I0J-1000D01*
G01Y473330D01*
G02X34670Y472330I-1000J0D01*
G37*
G36*
G01Y726330D02*
X16130D01*
G02X15130Y727330I0J1000D01*
G01Y745870D01*
G02X16130Y746870I1000J0D01*
G01X34670D01*
G02X35670Y745870I0J-1000D01*
G01Y727330D01*
G02X34670Y726330I-1000J0D01*
G37*
G36*
G01X2970Y914330D02*
X-20570D01*
G02X-21570Y915330I0J1000D01*
G01Y938870D01*
G02X-20570Y939870I1000J0D01*
G01X2970D01*
G02X3970Y938870I0J-1000D01*
G01Y915330D01*
G02X2970Y914330I-1000J0D01*
G37*
G36*
G01X-2130Y949180D02*
X-16170D01*
G02X-17170Y950180I0J1000D01*
G01Y980220D01*
G02X-16170Y981220I1000J0D01*
G01X-2130D01*
G02X-1130Y980220I0J-1000D01*
G01Y950180D01*
G02X-2130Y949180I-1000J0D01*
G37*
G36*
G01X93120Y-55720D02*
X80080D01*
G02X79080Y-54720I0J1000D01*
G01Y-34180D01*
G02X80080Y-33180I1000J0D01*
G01X93120D01*
G02X94120Y-34180I0J-1000D01*
G01Y-54720D01*
G02X93120Y-55720I-1000J0D01*
G37*
G36*
G01X126520Y1030420D02*
X107980D01*
G02X106980Y1031420I0J1000D01*
G01Y1049960D01*
G02X107980Y1050960I1000J0D01*
G01X126520D01*
G02X127520Y1049960I0J-1000D01*
G01Y1031420D01*
G02X126520Y1030420I-1000J0D01*
G37*
G36*
G01X112120Y2021480D02*
X91080D01*
G02X90080Y2022480I0J1000D01*
G01Y2038020D01*
G02X91080Y2039020I1000J0D01*
G01X112120D01*
G02X113120Y2038020I0J-1000D01*
G01Y2022480D01*
G02X112120Y2021480I-1000J0D01*
G37*
G36*
G01X80370D02*
X59330D01*
G02X58330Y2022480I0J1000D01*
G01Y2038020D01*
G02X59330Y2039020I1000J0D01*
G01X80370D01*
G02X81370Y2038020I0J-1000D01*
G01Y2022480D01*
G02X80370Y2021480I-1000J0D01*
G37*
G36*
G01X259420Y-46970D02*
X235880D01*
G02X234880Y-45970I0J1000D01*
G01Y-22430D01*
G02X235880Y-21430I1000J0D01*
G01X259420D01*
G02X260420Y-22430I0J-1000D01*
G01Y-45970D01*
G02X259420Y-46970I-1000J0D01*
G37*
G36*
G01X16130Y10270D02*
X34670D01*
G02X35670Y9270I0J-1000D01*
G01Y-9270D01*
G02X34670Y-10270I-1000J0D01*
G01X16130D01*
G02X15130Y-9270I0J1000D01*
G01Y9270D01*
G02X16130Y10270I1000J0D01*
G37*
G36*
G01X183830Y-3980D02*
X190870D01*
G02X192870Y-5980I0J-2000D01*
G01Y-17020D01*
G02X190870Y-19020I-2000J0D01*
G01X183830D01*
G02X181830Y-17020I0J2000D01*
G01Y-5980D01*
G02X183830Y-3980I2000J0D01*
G37*
G36*
G01X158380D02*
X165420D01*
G02X167420Y-5980I0J-2000D01*
G01Y-17020D01*
G02X165420Y-19020I-2000J0D01*
G01X158380D01*
G02X156380Y-17020I0J2000D01*
G01Y-5980D01*
G02X158380Y-3980I2000J0D01*
G37*
G36*
G01X139380D02*
X146420D01*
G02X148420Y-5980I0J-2000D01*
G01Y-17020D01*
G02X146420Y-19020I-2000J0D01*
G01X139380D01*
G02X137380Y-17020I0J2000D01*
G01Y-5980D01*
G02X139380Y-3980I2000J0D01*
G37*
G36*
G01X235880Y21570D02*
X259420D01*
G02X260420Y20570I0J-1000D01*
G01Y-2970D01*
G02X259420Y-3970I-1000J0D01*
G01X235880D01*
G02X234880Y-2970I0J1000D01*
G01Y20570D01*
G02X235880Y21570I1000J0D01*
G37*
G36*
G01X194780Y54120D02*
X208820D01*
G02X209820Y53120I0J-1000D01*
G01Y23080D01*
G02X208820Y22080I-1000J0D01*
G01X194780D01*
G02X193780Y23080I0J1000D01*
G01Y53120D01*
G02X194780Y54120I1000J0D01*
G37*
G36*
G01X147780Y92220D02*
X159820D01*
G02X161820Y90220I0J-2000D01*
G01Y62180D01*
G02X159820Y60180I-2000J0D01*
G01X147780D01*
G02X145780Y62180I0J2000D01*
G01Y90220D01*
G02X147780Y92220I2000J0D01*
G37*
G54D38*
X117250Y1066090D03*
G54D36*
X44450Y-54610D03*
G54D37*
X25400Y304800D03*
Y279400D03*
Y254000D03*
Y381000D03*
Y355600D03*
Y330200D03*
Y457200D03*
Y431800D03*
Y406400D03*
Y533400D03*
Y508000D03*
Y609600D03*
Y584200D03*
Y558800D03*
Y685800D03*
Y660400D03*
Y635000D03*
Y762000D03*
Y711200D03*
X0Y762000D03*
X50800D03*
X25400Y76200D03*
Y50800D03*
Y25400D03*
Y127000D03*
Y101600D03*
%LPD*%
G75*
G54D10*
X-25400Y-50800D03*
Y838200D03*
G54D20*
X117250Y1066090D03*
G54D11*
G01X25400Y808990D02*
Y892660D01*
G02X28330Y899730I10000J-2D01*
G01X34200Y905600D01*
G01X21850Y996690D02*
X-19050Y1037590D01*
G01X48260Y2000250D02*
X-16120Y1935870D01*
G03X-19050Y1928800I7070J-7072D01*
G01Y1037590D01*
G01X161250Y208240D02*
Y309130D01*
G01D02*
Y412240D01*
G01D02*
Y512330D01*
G01D02*
Y614240D01*
G01D02*
Y718240D01*
G01D02*
Y818240D01*
G01D02*
Y920240D01*
G01D02*
Y1280680D01*
G01D02*
Y1386240D01*
G01D02*
Y1488240D01*
G01D02*
Y1590240D01*
G01D02*
Y1692240D01*
G01D02*
Y1792240D01*
G01D02*
Y1890280D01*
G01D02*
Y1992240D01*
G01X126110Y2000250D02*
X153390D01*
G02X161250Y1992390I0J-7860D01*
G01Y1992240D01*
X-36750Y-18610D03*
X-38100Y129540D03*
Y281940D03*
Y447040D03*
Y548640D03*
Y739140D03*
Y802640D03*
Y878840D03*
Y999490D03*
Y1304290D03*
Y1513840D03*
Y1723390D03*
X12700Y-73660D03*
X44450Y-54610D03*
X6350Y897890D03*
X0Y993140D03*
X12700Y1037590D03*
X-3750Y1118390D03*
X19050Y1149350D03*
X38100Y1155700D03*
X28800Y1210000D03*
X-3750Y1327390D03*
X27800Y1400000D03*
X-3750Y1536390D03*
X27800Y1690000D03*
X-3750Y1746390D03*
X33800Y1798000D03*
X0Y1805940D03*
Y1926590D03*
X-31750Y1958340D03*
Y2047240D03*
X-6350Y2104390D03*
X114300Y-82550D03*
X71250Y13390D03*
X63500Y-29210D03*
X114300Y31750D03*
X117250Y437390D03*
X114300Y535940D03*
X107950Y637540D03*
Y739140D03*
X57150Y821690D03*
X107950Y840740D03*
X57150Y891540D03*
X57250Y985390D03*
X107950Y929640D03*
X104800Y1148000D03*
X79800Y1152000D03*
X73800Y1133000D03*
X66800Y1114000D03*
X57250Y1091390D03*
X85800Y1188000D03*
X104800Y1206000D03*
X76200Y1168400D03*
X95250Y1174750D03*
X57150Y1162050D03*
X66800Y1264000D03*
X47800Y1333000D03*
X109250Y1405390D03*
X85800Y1405000D03*
X66800Y1486000D03*
X107950Y1507490D03*
X47800Y1581000D03*
X86800Y1553000D03*
X107950Y1609090D03*
X67800Y1635000D03*
X95250Y1659890D03*
X50800Y1715000D03*
X107950Y1710690D03*
X95250Y1761490D03*
X107950Y1812290D03*
X95250Y1863090D03*
X57150D03*
X107950Y1913890D03*
X95250Y1964690D03*
X57150Y1977390D03*
X50800Y2015490D03*
X69850Y2047240D03*
X101600D03*
X133350Y-63500D03*
X127000Y63500D03*
X165100Y114300D03*
X143250Y115390D03*
X161250Y208240D03*
X174250Y218240D03*
X161250Y309130D03*
X174250Y320240D03*
X161250Y412240D03*
X174250Y421240D03*
X127000Y415290D03*
X161250Y512330D03*
X174250Y523240D03*
X127000Y516890D03*
X161250Y614240D03*
X127000Y618490D03*
X174250Y625240D03*
X161250Y718240D03*
X174250Y726240D03*
X127000Y720090D03*
X161250Y818240D03*
X174250Y828240D03*
X127000Y821690D03*
X161250Y920240D03*
X127250Y923390D03*
X174250Y930240D03*
X147250Y936240D03*
X174250Y1189240D03*
X147250Y1186240D03*
X161250Y1280680D03*
X174250Y1292240D03*
X129940Y1287210D03*
X161250Y1386240D03*
X174250Y1393240D03*
X127250Y1387390D03*
X161250Y1488240D03*
X174250Y1495240D03*
X129250Y1487390D03*
X161250Y1590240D03*
X174250Y1596240D03*
X127000Y1590040D03*
X161250Y1692240D03*
X174250Y1698240D03*
X127000Y1691640D03*
X161250Y1792240D03*
X174250Y1799240D03*
X127000Y1793240D03*
X161250Y1890280D03*
X174250Y1901240D03*
X127000Y1894840D03*
X161250Y1992240D03*
X170250Y2007240D03*
X158750Y2047240D03*
X265250Y-80610D03*
X241300Y-54610D03*
X273050Y173990D03*
X298450D03*
X273050Y275430D03*
X298450Y275590D03*
X273050Y377190D03*
X298450D03*
X273050Y478630D03*
X298450Y478790D03*
X273050Y580390D03*
X298450D03*
X273050Y681830D03*
X298450Y681990D03*
X273050Y783590D03*
X298450D03*
Y885190D03*
X273050Y885030D03*
Y1247140D03*
X298450D03*
X273050Y1348580D03*
X298450Y1348740D03*
X273050Y1450340D03*
X298450D03*
X273050Y1551780D03*
X298450Y1551940D03*
X273050Y1653540D03*
X298450D03*
X273050Y1754980D03*
X298450Y1755140D03*
X273050Y1856740D03*
X298450D03*
Y1958340D03*
X273050Y1958180D03*
X857250Y-54610D03*
Y2104390D03*
G54D21*
X101600Y2030250D03*
Y2000250D03*
X69850Y2030250D03*
Y2000250D03*
G54D30*
X857250Y904240D03*
Y1977390D03*
G54D12*
X25400Y0D03*
X0D03*
X25400Y228600D03*
X0D03*
X25400Y482600D03*
X0D03*
X25400Y736600D03*
X0D03*
X50800Y0D03*
Y228600D03*
Y482600D03*
Y736600D03*
X117250Y1040690D03*
G54D13*
X25400Y76200D03*
Y50800D03*
Y25400D03*
X0Y76200D03*
Y50800D03*
Y25400D03*
X25400Y152400D03*
Y127000D03*
Y101600D03*
X0Y152400D03*
Y127000D03*
Y101600D03*
X25400Y203200D03*
Y177800D03*
X0Y203200D03*
Y177800D03*
X25400Y304800D03*
Y279400D03*
Y254000D03*
X0Y304800D03*
Y279400D03*
Y254000D03*
X25400Y381000D03*
Y355600D03*
Y330200D03*
X0Y381000D03*
Y355600D03*
Y330200D03*
X25400Y457200D03*
Y431800D03*
Y406400D03*
X0Y457200D03*
Y431800D03*
Y406400D03*
X25400Y533400D03*
Y508000D03*
X0Y533400D03*
Y508000D03*
X25400Y609600D03*
Y584200D03*
Y558800D03*
X0Y609600D03*
Y584200D03*
Y558800D03*
X25400Y685800D03*
Y660400D03*
Y635000D03*
X0Y685800D03*
Y660400D03*
Y635000D03*
X25400Y762000D03*
Y711200D03*
X0Y762000D03*
Y711200D03*
X25400Y787400D03*
X0D03*
X50800Y76200D03*
Y50800D03*
Y25400D03*
Y152400D03*
Y127000D03*
Y101600D03*
Y203200D03*
Y177800D03*
Y304800D03*
Y279400D03*
Y254000D03*
Y381000D03*
Y355600D03*
Y330200D03*
Y457200D03*
Y431800D03*
Y406400D03*
Y533400D03*
Y508000D03*
Y609600D03*
Y584200D03*
Y558800D03*
Y685800D03*
Y660400D03*
Y635000D03*
Y762000D03*
Y711200D03*
Y787400D03*
G54D31*
X939800Y-52070D03*
Y2170430D03*
G54D22*
X187350Y-11500D03*
X152400Y11500D03*
X161900Y-11500D03*
X142900D03*
X196850Y11500D03*
X206350Y-11500D03*
G54D32*
G01X840230Y142240D02*
X857250D01*
G01X840230Y193040D02*
X857250D01*
G01X840230Y294640D02*
X857250D01*
G01X840230Y243840D02*
X857250D01*
G01X840230Y345440D02*
X857250D01*
G01X840230Y447040D02*
X857250D01*
G01X840230Y396240D02*
X857250D01*
G01X840230Y497840D02*
X857250D01*
G01X840230Y599440D02*
X857250D01*
G01X840230Y548640D02*
X857250D01*
G01X840230Y650240D02*
X857250D01*
G01X840230Y751840D02*
X857250D01*
G01X840230Y701040D02*
X857250D01*
G01X840230Y802640D02*
X857250D01*
G01X840230Y853440D02*
X857250D01*
G01X840230Y904240D02*
X857250D01*
G01X840230Y1215390D02*
X857250D01*
G01X840230Y1266190D02*
X857250D01*
G01X840230Y1316990D02*
X857250D01*
G01X840230Y1367790D02*
X857250D01*
G01X840230Y1418590D02*
X857250D01*
G01X840230Y1520190D02*
X857250D01*
G01X840230Y1469390D02*
X857250D01*
G01X840230Y1570990D02*
X857250D01*
G01X840230Y1672590D02*
X857250D01*
G01X840230Y1621790D02*
X857250D01*
G01X840230Y1723390D02*
X857250D01*
G01X840230Y1824990D02*
X857250D01*
G01X840230Y1774190D02*
X857250D01*
G01X840230Y1875790D02*
X857250D01*
G01X840230Y1977390D02*
X857250D01*
G01X840230Y1926590D02*
X857250D01*
G54D23*
X191950Y-44450D03*
X150950D03*
G54D14*
X-8800Y927100D03*
X34200D03*
X247650Y-34200D03*
Y8800D03*
G54D33*
G01X50800Y0D02*
Y-12700D01*
G02X44450Y-19050I-6350J0D01*
G01X6350D01*
G02X0Y-12700I0J6350D01*
G01Y0D01*
G01X50800D02*
X77650D01*
G02X86600Y-8950I0J-8950D01*
G01Y-12700D01*
G01X108800Y158750D02*
Y146900D01*
G03X113460Y142240I4660J0D01*
G01X139350D01*
G01X114300Y178190D02*
X111730Y175620D01*
G03X108800Y168550I7070J-7072D01*
G01Y158750D01*
G01X114300Y279790D02*
X111730Y277220D01*
G03X108800Y270150I7070J-7072D01*
G01Y260350D01*
G01D02*
Y252640D01*
G03X111730Y245570I10000J2D01*
G01X113460Y243840D01*
X139350D01*
G01X114300Y381390D02*
X111730Y378820D01*
G03X108800Y371750I7070J-7072D01*
G01Y361950D01*
G01D02*
Y354240D01*
G03X111730Y347170I10000J2D01*
G01X113460Y345440D01*
X139350D01*
G01X114300Y482990D02*
X111730Y480420D01*
G03X108800Y473350I7070J-7072D01*
G01Y463550D01*
G01D02*
Y451700D01*
G03X113460Y447040I4660J0D01*
G01X139350D01*
G01X114300Y584590D02*
X111730Y582020D01*
G03X108800Y574950I7070J-7072D01*
G01Y565150D01*
G01D02*
Y553300D01*
G03X113460Y548640I4660J0D01*
G01X139350D01*
G01X114300Y686190D02*
X111730Y683620D01*
G03X108800Y676550I7070J-7072D01*
G01Y666750D01*
G01D02*
Y654900D01*
G03X113460Y650240I4660J0D01*
G01X139350D01*
G01X114300Y787790D02*
X111730Y785220D01*
G03X108800Y778150I7070J-7072D01*
G01Y768350D01*
G01D02*
Y756500D01*
G03X113460Y751840I4660J0D01*
G01X139350D01*
G01X114300Y889390D02*
X111730Y886820D01*
G03X108800Y879750I7070J-7072D01*
G01Y869950D01*
G01D02*
Y858100D01*
G03X113460Y853440I4660J0D01*
G01X139350D01*
G01X108800Y1231900D02*
Y1220050D01*
G03X113460Y1215390I4660J0D01*
G01X139350D01*
G01X114300Y1251340D02*
X111730Y1248770D01*
G03X108800Y1241700I7070J-7072D01*
G01Y1231900D01*
G01X139350Y1316990D02*
X113460D01*
G02X108800Y1321650I0J4660D01*
G01Y1333500D01*
G01D02*
Y1343300D01*
G02X111730Y1350370I10000J-2D01*
G01X114300Y1352940D01*
G01Y1454540D02*
X111730Y1451970D01*
G03X108800Y1444900I7070J-7072D01*
G01Y1435100D01*
G01D02*
Y1423250D01*
G03X113460Y1418590I4660J0D01*
G01X139350D01*
G01X108800Y1536700D02*
Y1524850D01*
G03X113460Y1520190I4660J0D01*
G01X139350D01*
G01X114300Y1556140D02*
X111730Y1553570D01*
G03X108800Y1546500I7070J-7072D01*
G01Y1536700D01*
G01X114300Y1657740D02*
X111730Y1655170D01*
G03X108800Y1648100I7070J-7072D01*
G01Y1638300D01*
G01D02*
Y1626450D01*
G03X113460Y1621790I4660J0D01*
G01X139350D01*
G01X108500Y1740000D02*
Y1728350D01*
G03X113460Y1723390I4960J0D01*
G01X139350D01*
G01X108500Y1740000D02*
Y1749400D01*
G02X111430Y1756470I10000J-2D01*
G01X114300Y1759340D01*
G01X108800Y1841500D02*
Y1829650D01*
G03X113460Y1824990I4660J0D01*
G01X139350D01*
G01X114300Y1860940D02*
X111730Y1858370D01*
G03X108800Y1851300I7070J-7072D01*
G01Y1841500D01*
G01X69850Y2000250D02*
Y1987550D01*
G03X77860Y1979540I8010J0D01*
G01X114300D01*
G01X139350Y1926590D02*
X116750D01*
G02X111130Y1928920I-1J7940D01*
G01X108800Y1931250D01*
X108750Y1943390D01*
G01D02*
Y1952850D01*
G02X111680Y1959920I10000J-2D01*
G01X114300Y1962540D01*
G01X152400Y11500D02*
Y20020D01*
G01X145880Y11500D02*
X152400D01*
G01D02*
X158920D01*
G01X153800Y58180D02*
Y76200D01*
G01D02*
Y94220D01*
G01X143780Y76200D02*
X153800D01*
G01D02*
X163820D01*
G01X153800Y38100D02*
Y56120D01*
G01X143780Y38100D02*
X153800D01*
G01D02*
X163820D01*
G01X152400Y95250D02*
X153800Y96650D01*
G01D02*
Y127400D01*
G03X150870Y134470I-10000J-2D01*
G01X145750Y139590D01*
G03X139350Y142240I-6399J-6400D01*
G01X119800Y158750D02*
X125760Y164710D01*
G02X132830Y167640I7072J-7070D01*
G01X139350D01*
G01Y193040D02*
Y243840D01*
G01X114300Y195190D02*
X134160D01*
G02X139350Y193040I4J-7330D01*
G01Y294640D02*
Y345440D01*
G01X114300Y296790D02*
X134160D01*
G02X139350Y294640I4J-7330D01*
G01X119800Y260350D02*
X125760Y266310D01*
G02X132830Y269240I7072J-7070D01*
G01X139350D01*
G01X119800Y361950D02*
X125760Y367910D01*
G02X132830Y370840I7072J-7070D01*
G01X139350D01*
G01Y447040D02*
Y396240D01*
G01X114300Y398390D02*
X134160D01*
G02X139350Y396240I4J-7330D01*
G01X119800Y463550D02*
X125760Y469510D01*
G02X132830Y472440I7072J-7070D01*
G01X139350D01*
G01Y548640D02*
Y497840D01*
G01X114300Y499990D02*
X134160D01*
G02X139350Y497840I4J-7330D01*
G01Y650240D02*
Y599440D01*
G01X114300Y601590D02*
X134160D01*
G02X139350Y599440I4J-7330D01*
G01X119800Y565150D02*
X125760Y571110D01*
G02X132830Y574040I7072J-7070D01*
G01X139350D01*
G01X119800Y666750D02*
X125760Y672710D01*
G02X132830Y675640I7072J-7070D01*
G01X139350D01*
G01Y751840D02*
Y701040D01*
G01X114300Y703190D02*
X134160D01*
G02X139350Y701040I4J-7330D01*
G01X119800Y768350D02*
X125760Y774310D01*
G02X132830Y777240I7072J-7070D01*
G01X139350D01*
G01X114300Y804790D02*
X134160D01*
G02X139350Y802640I4J-7330D01*
G01Y853440D02*
Y802640D01*
G01X114300Y906390D02*
X134160D01*
G02X139350Y904240I4J-7330D01*
G01Y1215390D02*
Y1194430D01*
X137250Y1192330D01*
Y925450D01*
X139350Y923350D01*
Y904240D01*
G01X119800Y869950D02*
X125760Y875910D01*
G02X132830Y878840I7072J-7070D01*
G01X139350D01*
G01X114300Y1268340D02*
X134160D01*
G02X139350Y1266190I4J-7330D01*
G01Y1316990D02*
Y1291240D01*
X139440Y1291150D01*
Y1283270D01*
X139350Y1283180D01*
Y1266190D01*
G01X119800Y1231900D02*
X125760Y1237860D01*
G02X132830Y1240790I7072J-7070D01*
G01X139350D01*
G01X114300Y1369940D02*
X134160D01*
G02X139350Y1367790I4J-7330D01*
G01Y1418590D02*
Y1395450D01*
X139250Y1395350D01*
Y1387470D01*
X139350Y1387370D01*
Y1367790D01*
G01X119800Y1333500D02*
X125760Y1339460D01*
G02X132830Y1342390I7072J-7070D01*
G01X139350D01*
G01X119800Y1435100D02*
X125760Y1441060D01*
G02X132830Y1443990I7072J-7070D01*
G01X139350D01*
G01X114300Y1471540D02*
X134160D01*
G02X139350Y1469390I4J-7330D01*
G01Y1520190D02*
Y1499430D01*
X139250Y1499330D01*
Y1491450D01*
X139350Y1491350D01*
Y1469390D01*
G01X114300Y1573140D02*
X134160D01*
G02X139350Y1570990I4J-7330D01*
G01Y1621790D02*
Y1601430D01*
X139250Y1601330D01*
Y1593450D01*
X139350Y1593350D01*
Y1570990D01*
G01X119800Y1536700D02*
X125760Y1542660D01*
G02X132830Y1545590I7072J-7070D01*
G01X139350D01*
G01X114300Y1674740D02*
X134160D01*
G02X139350Y1672590I4J-7330D01*
G01Y1723390D02*
Y1703430D01*
X139250Y1703330D01*
Y1695450D01*
X139350Y1695350D01*
Y1672590D01*
G01X119800Y1638300D02*
X125760Y1644260D01*
G02X132830Y1647190I7072J-7070D01*
G01X139350D01*
G01Y1748790D02*
X132430D01*
G03X125360Y1745860I2J-10000D01*
G01X119500Y1740000D01*
G01X114300Y1776340D02*
X134160D01*
G02X139350Y1774190I4J-7330D01*
G01Y1824990D02*
Y1803430D01*
X139250Y1803330D01*
Y1795450D01*
X139350Y1795350D01*
Y1774190D01*
G01X114300Y1877940D02*
X134160D01*
G02X139350Y1875790I4J-7330D01*
G01Y1926590D02*
Y1875790D01*
G01X119800Y1841500D02*
X125760Y1847460D01*
G02X132830Y1850390I7072J-7070D01*
G01X139350D01*
G01X114300Y1979540D02*
X134160D01*
G02X139350Y1977390I4J-7330D01*
G01X119750Y1943390D02*
X125790Y1949200D01*
G02X132720Y1951990I6929J-7210D01*
G01X139350D01*
G01X247650Y-4970D02*
Y8800D01*
G01X201800Y59180D02*
Y76200D01*
G01X192780D02*
X201800D01*
G01D02*
X210820D01*
G01X201800Y21080D02*
Y38100D01*
G01D02*
Y55120D01*
G01X192780Y38100D02*
X201800D01*
G01D02*
X210820D01*
G01X196850Y11500D02*
Y20020D01*
G01X190330Y11500D02*
X196850D01*
G01D02*
X203370D01*
G01X247650Y8800D02*
Y22570D01*
G01X233880Y8800D02*
X247650D01*
G01D02*
X261420D01*
G01X254350Y142240D02*
X261940D01*
G02X265730Y140670I4J-5350D01*
G03X269540Y139090I3808J3800D01*
G01X274250D01*
G01X254350Y193040D02*
X276860D01*
G02X285750Y184150I0J-8890D01*
G01Y165100D01*
G02X278740Y158090I-7010J0D01*
G01X274250D01*
G01X254350Y167640D02*
X262560D01*
G03X269630Y170570I-2J10000D01*
G01X273050Y173990D01*
G01X254350Y294640D02*
X276860D01*
G02X285750Y285750I0J-8890D01*
G01Y266700D01*
G02X278740Y259690I-7010J0D01*
G01X274250D01*
G01X254350Y269240D02*
X262720D01*
G03X269790Y272170I-2J10000D01*
G01X273050Y275430D01*
G01X254350Y243840D02*
X261940D01*
G02X265730Y242270I4J-5350D01*
G03X269540Y240690I3808J3800D01*
G01X274250D01*
G01X254350Y370840D02*
X262560D01*
G03X269630Y373770I-2J10000D01*
G01X273050Y377190D01*
G01X254350Y345440D02*
X261940D01*
G02X265730Y343870I4J-5350D01*
G03X269540Y342290I3808J3800D01*
G01X274250D01*
G01X254350Y396240D02*
X276860D01*
G02X285750Y387350I0J-8890D01*
G01Y368300D01*
G02X278740Y361290I-7010J0D01*
G01X274250D01*
G01X254350Y447040D02*
X261940D01*
G02X265730Y445470I4J-5350D01*
G03X269540Y443890I3808J3800D01*
G01X274250D01*
G01X254350Y497840D02*
X276860D01*
G02X285750Y488950I0J-8890D01*
G01Y469900D01*
G02X278740Y462890I-7010J0D01*
G01X274250D01*
G01X254350Y472440D02*
X262720D01*
G03X269790Y475370I-2J10000D01*
G01X273050Y478630D01*
G01X254350Y599440D02*
X276860D01*
G02X285750Y590550I0J-8890D01*
G01Y571500D01*
G02X278740Y564490I-7010J0D01*
G01X274250D01*
G01X254350Y574040D02*
X262560D01*
G03X269630Y576970I-2J10000D01*
G01X273050Y580390D01*
G01X254350Y548640D02*
X261940D01*
G02X265730Y547070I4J-5350D01*
G03X269540Y545490I3808J3800D01*
G01X274250D01*
G01X254350Y675640D02*
X262720D01*
G03X269790Y678570I-2J10000D01*
G01X273050Y681830D01*
G01X254350Y650240D02*
X261940D01*
G02X265730Y648670I4J-5350D01*
G03X269540Y647090I3808J3800D01*
G01X274250D01*
G01X254350Y701040D02*
X276860D01*
G02X285750Y692150I0J-8890D01*
G01Y673100D01*
G02X278740Y666090I-7010J0D01*
G01X274250D01*
G01X254350Y751840D02*
X261940D01*
G02X265730Y750270I4J-5350D01*
G03X269540Y748690I3808J3800D01*
G01X274250D01*
G01X254350Y802640D02*
X276860D01*
G02X285750Y793750I0J-8890D01*
G01Y774700D01*
G02X278740Y767690I-7010J0D01*
G01X274250D01*
G01X254350Y777240D02*
X262560D01*
G03X269630Y780170I-2J10000D01*
G01X273050Y783590D01*
G01X254350Y904240D02*
X276860D01*
G02X285750Y895350I0J-8890D01*
G01Y876300D01*
G02X278740Y869290I-7010J0D01*
G01X274250D01*
G01X254350Y878840D02*
X262720D01*
G03X269790Y881770I-2J10000D01*
G01X273050Y885030D01*
G01X254350Y853440D02*
X261940D01*
G02X265730Y851870I4J-5350D01*
G03X269540Y850290I3808J3800D01*
G01X274250D01*
G01X254350Y1215390D02*
X261940D01*
G02X265730Y1213820I4J-5350D01*
G03X269540Y1212240I3808J3800D01*
G01X274250D01*
G01X254350Y1266190D02*
X276860D01*
G02X285750Y1257300I0J-8890D01*
G01Y1238250D01*
G02X278740Y1231240I-7010J0D01*
G01X274250D01*
G01X254350Y1240790D02*
X262560D01*
G03X269630Y1243720I-2J10000D01*
G01X273050Y1247140D01*
G01X254350Y1367790D02*
X276860D01*
G02X285750Y1358900I0J-8890D01*
G01Y1339850D01*
G02X278740Y1332840I-7010J0D01*
G01X274250D01*
G01X254350Y1342390D02*
X262720D01*
G03X269790Y1345320I-2J10000D01*
G01X273050Y1348580D01*
G01X254350Y1316990D02*
X261940D01*
G02X265730Y1315420I4J-5350D01*
G03X269540Y1313840I3808J3800D01*
G01X274250D01*
G01X254350Y1443990D02*
X262560D01*
G03X269630Y1446920I-2J10000D01*
G01X273050Y1450340D01*
G01X254350Y1418590D02*
X261940D01*
G02X265730Y1417020I4J-5350D01*
G03X269540Y1415440I3808J3800D01*
G01X274250D01*
G01X254350Y1469390D02*
X276860D01*
G02X285750Y1460500I0J-8890D01*
G01Y1441450D01*
G02X278740Y1434440I-7010J0D01*
G01X274250D01*
G01X254350Y1520190D02*
X261940D01*
G02X265730Y1518620I4J-5350D01*
G03X269540Y1517040I3808J3800D01*
G01X274250D01*
G01X254350Y1570990D02*
X276860D01*
G02X285750Y1562100I0J-8890D01*
G01Y1543050D01*
G02X278740Y1536040I-7010J0D01*
G01X274250D01*
G01X254350Y1545590D02*
X262720D01*
G03X269790Y1548520I-2J10000D01*
G01X273050Y1551780D01*
G01X254350Y1672590D02*
X276860D01*
G02X285750Y1663700I0J-8890D01*
G01Y1644650D01*
G02X278740Y1637640I-7010J0D01*
G01X274250D01*
G01X254350Y1647190D02*
X262560D01*
G03X269630Y1650120I-2J10000D01*
G01X273050Y1653540D01*
G01X254350Y1621790D02*
X261940D01*
G02X265730Y1620220I4J-5350D01*
G03X269540Y1618640I3808J3800D01*
G01X274250D01*
G01X254350Y1748790D02*
X262720D01*
G03X269790Y1751720I-2J10000D01*
G01X273050Y1754980D01*
G01X254350Y1723390D02*
X261940D01*
G02X265730Y1721820I4J-5350D01*
G03X269540Y1720240I3808J3800D01*
G01X274250D01*
G01X254350Y1774190D02*
X276860D01*
G02X285750Y1765300I0J-8890D01*
G01Y1746250D01*
G02X278740Y1739240I-7010J0D01*
G01X274250D01*
G01X254350Y1824990D02*
X261940D01*
G02X265730Y1823420I4J-5350D01*
G03X269540Y1821840I3808J3800D01*
G01X274250D01*
G01X254350Y1875790D02*
X276860D01*
G02X285750Y1866900I0J-8890D01*
G01Y1847850D01*
G02X278740Y1840840I-7010J0D01*
G01X274250D01*
G01X254350Y1850390D02*
X262560D01*
G03X269630Y1853320I-2J10000D01*
G01X273050Y1856740D01*
G01X254350Y1977390D02*
X276860D01*
G02X285750Y1968500I0J-8890D01*
G01Y1949450D01*
G02X278740Y1942440I-7010J0D01*
G01X274250D01*
G01X254350Y1951990D02*
X262720D01*
G03X269790Y1954920I-2J10000D01*
G01X273050Y1958180D01*
G01X254350Y1926590D02*
X261940D01*
G02X265730Y1925020I4J-5350D01*
G03X269540Y1923440I3808J3800D01*
G01X274250D01*
G01X297250Y148590D02*
Y172790D01*
X298450Y173990D01*
G01X297250Y250190D02*
Y274390D01*
X298450Y275590D01*
G01X297250Y351790D02*
Y375990D01*
X298450Y377190D01*
G01X297250Y453390D02*
Y477590D01*
X298450Y478790D01*
G01X297250Y554990D02*
Y579190D01*
X298450Y580390D01*
G01X297250Y656590D02*
Y680790D01*
X298450Y681990D01*
G01X297250Y758190D02*
Y782390D01*
X298450Y783590D01*
G01X297250Y859790D02*
Y883990D01*
X298450Y885190D01*
G01X297250Y1221740D02*
Y1245940D01*
X298450Y1247140D01*
G01X297250Y1323340D02*
Y1347540D01*
X298450Y1348740D01*
G01X297250Y1424940D02*
Y1449140D01*
X298450Y1450340D01*
G01X297250Y1526540D02*
Y1550740D01*
X298450Y1551940D01*
G01X297250Y1628140D02*
Y1652340D01*
X298450Y1653540D01*
G01X297250Y1729740D02*
Y1753940D01*
X298450Y1755140D01*
G01X297250Y1831340D02*
Y1855540D01*
X298450Y1856740D01*
G01X297250Y1932940D02*
Y1957140D01*
X298450Y1958340D01*
G54D24*
X139350Y142240D03*
Y167640D03*
Y193040D03*
Y243840D03*
Y269240D03*
Y294640D03*
Y345440D03*
Y370840D03*
Y447040D03*
Y396240D03*
Y472440D03*
Y497840D03*
Y548640D03*
Y574040D03*
Y599440D03*
Y650240D03*
Y675640D03*
Y751840D03*
Y701040D03*
Y777240D03*
Y802640D03*
Y853440D03*
Y878840D03*
Y904240D03*
Y1215390D03*
Y1240790D03*
Y1266190D03*
Y1316990D03*
Y1342390D03*
Y1367790D03*
Y1418590D03*
Y1443990D03*
Y1520190D03*
Y1469390D03*
Y1545590D03*
Y1570990D03*
Y1621790D03*
Y1647190D03*
Y1672590D03*
Y1723390D03*
Y1748790D03*
Y1824990D03*
Y1774190D03*
Y1850390D03*
Y1875790D03*
Y1926590D03*
Y1951990D03*
Y1977390D03*
X254350Y142240D03*
Y167640D03*
Y193040D03*
Y243840D03*
Y269240D03*
Y294640D03*
Y345440D03*
Y370840D03*
Y447040D03*
Y396240D03*
Y472440D03*
Y497840D03*
Y548640D03*
Y574040D03*
Y599440D03*
Y650240D03*
Y675640D03*
Y751840D03*
Y701040D03*
Y777240D03*
Y802640D03*
Y853440D03*
Y878840D03*
Y904240D03*
Y1215390D03*
Y1240790D03*
Y1266190D03*
Y1316990D03*
Y1342390D03*
Y1367790D03*
Y1418590D03*
Y1443990D03*
Y1520190D03*
Y1469390D03*
Y1545590D03*
Y1570990D03*
Y1621790D03*
Y1647190D03*
Y1672590D03*
Y1723390D03*
Y1748790D03*
Y1824990D03*
Y1774190D03*
Y1850390D03*
Y1875790D03*
Y1926590D03*
Y1951990D03*
Y1977390D03*
G54D15*
X-9150Y965200D03*
X21850D03*
X153800Y38100D03*
Y76200D03*
X201800Y38100D03*
Y76200D03*
G54D34*
G01X25400Y-11270D02*
Y0D01*
G01D02*
Y11270D01*
G01X14130Y0D02*
X25400D01*
G01D02*
X36670D01*
G01X25400Y14130D02*
Y25400D01*
G01D02*
Y36670D01*
G01X14130Y25400D02*
X25400D01*
G01D02*
X36670D01*
G01X25400Y39530D02*
Y50800D01*
G01D02*
Y62070D01*
G01X14130Y50800D02*
X25400D01*
G01D02*
X36670D01*
G01X25400Y64930D02*
Y76200D01*
G01D02*
Y87470D01*
G01X14130Y76200D02*
X25400D01*
G01D02*
X36670D01*
G01X25400Y90330D02*
Y101600D01*
G01D02*
Y112870D01*
G01X14130Y101600D02*
X25400D01*
G01D02*
X36670D01*
G01X25400Y115730D02*
Y127000D01*
G01D02*
Y138270D01*
G01X14130Y127000D02*
X25400D01*
G01D02*
X36670D01*
G01X25400Y141130D02*
Y152400D01*
G01X14130D02*
X25400D01*
G01D02*
X36670D01*
G01X25400Y228600D02*
Y239870D01*
G01X14130Y228600D02*
X25400D01*
G01D02*
X36670D01*
G01X25400Y242730D02*
Y254000D01*
G01D02*
Y265270D01*
G01X14130Y254000D02*
X25400D01*
G01D02*
X36670D01*
G01X25400Y268130D02*
Y279400D01*
G01D02*
Y290670D01*
G01X14130Y279400D02*
X25400D01*
G01D02*
X36670D01*
G01X25400Y293530D02*
Y304800D01*
G01D02*
Y316070D01*
G01X14130Y304800D02*
X25400D01*
G01D02*
X36670D01*
G01X25400Y318930D02*
Y330200D01*
G01D02*
Y341470D01*
G01X14130Y330200D02*
X25400D01*
G01D02*
X36670D01*
G01X25400Y344330D02*
Y355600D01*
G01D02*
Y366870D01*
G01X14130Y355600D02*
X25400D01*
G01D02*
X36670D01*
G01X25400Y369730D02*
Y381000D01*
G01D02*
Y392270D01*
G01X14130Y381000D02*
X25400D01*
G01D02*
X36670D01*
G01X25400Y395130D02*
Y406400D01*
G01D02*
Y417670D01*
G01X14130Y406400D02*
X25400D01*
G01D02*
X36670D01*
G01X25400Y420530D02*
Y431800D01*
G01D02*
Y443070D01*
G01X14130Y431800D02*
X25400D01*
G01D02*
X36670D01*
G01X25400Y445930D02*
Y457200D01*
G01D02*
Y468470D01*
G01X14130Y457200D02*
X25400D01*
G01D02*
X36670D01*
G01X25400Y496730D02*
Y508000D01*
G01D02*
Y519270D01*
G01X14130Y508000D02*
X25400D01*
G01D02*
X36670D01*
G01X25400Y522130D02*
Y533400D01*
G01D02*
Y544670D01*
G01X14130Y533400D02*
X25400D01*
G01D02*
X36670D01*
G01X25400Y471330D02*
Y482600D01*
G01D02*
Y493870D01*
G01X14130Y482600D02*
X25400D01*
G01D02*
X36670D01*
G01X25400Y547530D02*
Y558800D01*
G01D02*
Y570070D01*
G01X14130Y558800D02*
X25400D01*
G01D02*
X36670D01*
G01X25400Y572930D02*
Y584200D01*
G01D02*
Y595470D01*
G01X14130Y584200D02*
X25400D01*
G01D02*
X36670D01*
G01X25400Y598330D02*
Y609600D01*
G01D02*
Y620870D01*
G01X14130Y609600D02*
X25400D01*
G01D02*
X36670D01*
G01X25400Y623730D02*
Y635000D01*
G01D02*
Y646270D01*
G01X14130Y635000D02*
X25400D01*
G01D02*
X36670D01*
G01X25400Y649130D02*
Y660400D01*
G01D02*
Y671670D01*
G01X14130Y660400D02*
X25400D01*
G01D02*
X36670D01*
G01X25400Y674530D02*
Y685800D01*
G01D02*
Y697070D01*
G01X14130Y685800D02*
X25400D01*
G01D02*
X36670D01*
G01X0Y750730D02*
Y762000D01*
G01D02*
Y773270D01*
G01X-11270Y762000D02*
X0D01*
G01D02*
X11270D01*
G01X25400Y699930D02*
Y711200D01*
G01D02*
Y722470D01*
G01X14130Y711200D02*
X25400D01*
G01D02*
X36670D01*
G01X25400Y750730D02*
Y762000D01*
G01D02*
Y773270D01*
G01X14130Y762000D02*
X25400D01*
G01D02*
X36670D01*
G01X25400Y725330D02*
Y736600D01*
G01D02*
Y747870D01*
G01X14130Y736600D02*
X25400D01*
G01D02*
X36670D01*
G01X25400Y787400D02*
X50800D01*
G01D02*
Y802640D01*
G03X44450Y808990I-6350J0D01*
G01X25400D01*
G01X0Y787400D02*
X25400D01*
G01Y808990D02*
Y787400D01*
G01Y808990D02*
X6350D01*
G03X0Y802640I0J-6350D01*
G01Y787400D01*
G01X34200Y905600D02*
Y927100D01*
G01X-8800Y913330D02*
Y927100D01*
G01X21850Y965200D02*
X22940Y966290D01*
X30660D01*
G02X34200Y962750I0J-3540D01*
G01Y927100D01*
G01X21850Y965200D02*
Y996690D01*
G01X-9150Y948180D02*
Y965200D01*
G01D02*
Y982220D01*
G01X-18170Y965200D02*
X-9150D01*
G01D02*
X-130D01*
G01X-8800Y927100D02*
Y940870D01*
G01X-22570Y927100D02*
X-8800D01*
G01D02*
X4970D01*
G01X86600Y-56720D02*
Y-44450D01*
G01D02*
Y-32180D01*
G01X78080Y-44450D02*
X86600D01*
G01D02*
X95120D01*
G01X50800Y750730D02*
Y762000D01*
G01D02*
Y773270D01*
G01X39530Y762000D02*
X50800D01*
G01D02*
X62070D01*
G01X105730Y1066090D02*
X117250D01*
G01X105980Y1040690D02*
X117250D01*
G01X101600Y2000250D02*
X126110D01*
G01X69850D02*
X48260D01*
G01X69850D02*
X101600D01*
G01X69850Y2020480D02*
Y2030250D01*
G01D02*
Y2040020D01*
G01X57330Y2030250D02*
X69850D01*
G01D02*
X82370D01*
G01X101600Y2020480D02*
Y2030250D01*
G01D02*
Y2040020D01*
G01X89080Y2030250D02*
X101600D01*
G01D02*
X114120D01*
G01X150950Y-55720D02*
Y-44450D01*
G01X136430D02*
X150950D01*
G01X176430D02*
X191950D01*
G01X142900Y-21020D02*
Y-11500D01*
G01D02*
Y-1980D01*
G01X135380Y-11500D02*
X142900D01*
G01D02*
X150420D01*
G01X187350Y-21020D02*
Y-11500D01*
G01D02*
Y-1980D01*
G01X179830Y-11500D02*
X187350D01*
G01D02*
X194870D01*
G01X116600Y-25970D02*
Y-12700D01*
G01D02*
Y570D01*
G01Y-12700D02*
X126120D01*
G01X116600Y-44450D02*
Y-31180D01*
G01Y-44450D02*
X124190Y-31180D01*
G01X117250Y1054570D02*
Y1066090D01*
G01D02*
Y1077610D01*
G01Y1066090D02*
X128770D01*
G01X117250Y1029420D02*
Y1040690D01*
G01D02*
Y1051960D01*
G01Y1040690D02*
X128520D01*
G01X247650Y-47970D02*
Y-34200D01*
G01D02*
Y-20430D01*
G01X233880Y-34200D02*
X247650D01*
G01D02*
X261420D01*
G01X206350Y-21020D02*
Y-11500D01*
G01D02*
Y-1980D01*
G01Y-11500D02*
X213870D01*
G01X191950Y-56720D02*
Y-44450D01*
G01D02*
X207470D01*
G54D25*
X119800Y158750D03*
Y260350D03*
Y361950D03*
Y463550D03*
Y565150D03*
Y666750D03*
Y768350D03*
Y869950D03*
Y1231900D03*
Y1333500D03*
Y1435100D03*
Y1536700D03*
Y1638300D03*
X119500Y1740000D03*
X119800Y1841500D03*
X119750Y1943390D03*
G54D16*
X-19050Y1037590D03*
G54D35*
G01X0Y152400D02*
X9770Y162170D01*
G02X16840Y165100I7072J-7070D01*
G01X59360D01*
G03X66430Y168030I-2J10000D01*
G01X92320Y193920D01*
G03X95250Y200990I-7070J7072D01*
G01Y1174750D01*
G01X19050Y1149350D02*
X66920Y1101480D01*
G02X69850Y1094410I-7070J-7072D01*
G01Y222250D01*
G02X63500Y215900I-6350J0D01*
G01X16840D01*
G03X9770Y212970I2J-10000D01*
G01X0Y203200D01*
G01Y177800D02*
X9770Y187570D01*
G02X16840Y190500I7072J-7070D01*
G01X59360D01*
G03X66430Y193430I-2J10000D01*
G01X79620Y206620D01*
G03X82550Y213690I-7070J7072D01*
G01Y1134580D01*
G03X81090Y1138110I-5000J-1D01*
G01X57150Y1162050D01*
G01X50800Y177800D02*
X59360D01*
G03X66430Y180730I-2J10000D01*
G01X85970Y200270D01*
G03X88900Y207340I-7070J7072D01*
G01Y1151560D01*
G03X85970Y1158630I-10000J-2D01*
G01X76200Y1168400D01*
G01X50800Y203200D02*
X59360D01*
G03X66430Y206130I-2J10000D01*
G01X73270Y212970D01*
G03X76200Y220040I-7070J7072D01*
G01Y1113460D01*
G03X73270Y1120530I-10000J-2D01*
G01X38100Y1155700D01*
G54D17*
X86600Y-12700D03*
Y-44450D03*
X116600Y-12700D03*
Y-44450D03*
G54D26*
X297250Y148590D03*
X274250Y139090D03*
Y158090D03*
X297250Y250190D03*
X274250Y240690D03*
Y259690D03*
X297250Y351790D03*
X274250Y342290D03*
Y361290D03*
X297250Y453390D03*
X274250Y443890D03*
Y462890D03*
X297250Y554990D03*
X274250Y545490D03*
Y564490D03*
X297250Y656590D03*
X274250Y647090D03*
Y666090D03*
X297250Y758190D03*
X274250Y748690D03*
Y767690D03*
X297250Y859790D03*
X274250Y850290D03*
Y869290D03*
X297250Y1221740D03*
X274250Y1212240D03*
Y1231240D03*
X297250Y1323340D03*
X274250Y1313840D03*
Y1332840D03*
X297250Y1424940D03*
X274250Y1415440D03*
Y1434440D03*
X297250Y1526540D03*
X274250Y1517040D03*
Y1536040D03*
X297250Y1628140D03*
X274250Y1618640D03*
Y1637640D03*
X297250Y1729740D03*
X274250Y1720240D03*
Y1739240D03*
X297250Y1831340D03*
X274250Y1821840D03*
Y1840840D03*
X297250Y1932940D03*
X274250Y1923440D03*
Y1942440D03*
G54D27*
X361950Y142640D03*
Y345840D03*
Y549040D03*
Y752240D03*
Y1215790D03*
Y1418990D03*
Y1622190D03*
Y1825390D03*
X488950Y244240D03*
Y447440D03*
Y650640D03*
Y853840D03*
Y1317390D03*
Y1520590D03*
Y1723790D03*
Y1926990D03*
X615950Y142640D03*
Y345840D03*
Y549040D03*
Y752240D03*
Y1215790D03*
Y1418990D03*
Y1622190D03*
Y1825390D03*
X742950Y244240D03*
Y447440D03*
Y650640D03*
Y853840D03*
Y1317390D03*
Y1520590D03*
Y1723790D03*
Y1926990D03*
G54D18*
X108800Y158750D03*
Y260350D03*
Y361950D03*
Y463550D03*
Y565150D03*
Y666750D03*
Y768350D03*
Y869950D03*
Y1231900D03*
Y1333500D03*
Y1435100D03*
Y1536700D03*
Y1638300D03*
X108500Y1740000D03*
X108800Y1841500D03*
X108750Y1943390D03*
G54D19*
X114300Y178190D03*
Y195190D03*
Y279790D03*
Y296790D03*
Y381390D03*
Y398390D03*
Y482990D03*
Y499990D03*
Y584590D03*
Y601590D03*
Y686190D03*
Y703190D03*
Y787790D03*
Y804790D03*
Y889390D03*
Y906390D03*
Y1251340D03*
Y1268340D03*
Y1352940D03*
Y1369940D03*
Y1454540D03*
Y1471540D03*
Y1556140D03*
Y1573140D03*
Y1657740D03*
Y1674740D03*
Y1759340D03*
Y1776340D03*
Y1860940D03*
Y1877940D03*
Y1962540D03*
Y1979540D03*
G54D28*
X361950Y192640D03*
Y395840D03*
Y599040D03*
Y802240D03*
Y1265790D03*
Y1468990D03*
Y1672190D03*
Y1875390D03*
X488950Y294240D03*
Y497440D03*
Y700640D03*
Y903840D03*
Y1367390D03*
Y1570590D03*
Y1773790D03*
Y1976990D03*
X615950Y192640D03*
Y395840D03*
Y599040D03*
Y802240D03*
Y1265790D03*
Y1468990D03*
Y1672190D03*
Y1875390D03*
X742950Y294240D03*
Y497440D03*
Y700640D03*
Y903840D03*
Y1367390D03*
Y1570590D03*
Y1773790D03*
Y1976990D03*
G54D29*
X857250Y142240D03*
Y243840D03*
Y193040D03*
Y294640D03*
Y396240D03*
Y345440D03*
Y447040D03*
Y548640D03*
Y497840D03*
Y599440D03*
Y701040D03*
Y650240D03*
Y751840D03*
Y853440D03*
Y802640D03*
Y1215390D03*
Y1266190D03*
Y1367790D03*
Y1316990D03*
Y1418590D03*
Y1520190D03*
Y1469390D03*
Y1570990D03*
Y1672590D03*
Y1621790D03*
Y1723390D03*
Y1824990D03*
Y1774190D03*
Y1875790D03*
Y1926590D03*
M02*
